<svg xmlns="http://www.w3.org/2000/svg" width="72" height="72" fill="none" viewBox="0 0 72 72">
  <path fill="#001E60" d="M70 64.407H2V68h68v-3.593ZM5.86 12.105 2.04 24.139v4.128c0 1.716 1.381 3.107 3.086 3.107a3.097 3.097 0 0 0 3.087-3.107 3.097 3.097 0 0 0 3.087 3.107c1.704 0 3.086-1.391 3.086-3.107v-4.128l2.82-12.033H5.86Zm38.092 0h-16.07l-1.144 12.033v4.128c0 1.716 1.382 3.107 3.086 3.107a3.097 3.097 0 0 0 3.087-3.107 3.097 3.097 0 0 0 3.087 3.107 3.097 3.097 0 0 0 3.087-3.107 3.097 3.097 0 0 0 3.087 3.107c1.704 0 3.086-1.391 3.086-3.107v-4.128l-1.31-12.033h.004Zm22.255 0h-11.68l3.087 12.033v4.128c0 1.716 1.382 3.107 3.086 3.107a3.097 3.097 0 0 0 3.087-3.107 3.097 3.097 0 0 0 3.087 3.107 3.097 3.097 0 0 0 3.087-3.107v-4.128l-3.756-12.033h.002Z"/>
  <path fill="#A9DDF7" d="M63.788 28.267c0 1.716-1.383 3.108-3.087 3.108-1.705 0-3.087-1.392-3.087-3.108 0 1.716-1.382 3.108-3.087 3.108-1.705 0-3.087-1.392-3.087-3.108 0 1.716-1.382 3.108-3.087 3.108-1.704 0-3.086-1.392-3.086-3.108 0 1.716-1.383 3.108-3.087 3.108-1.705 0-3.087-1.392-3.087-3.108 0 1.716-1.382 3.108-3.087 3.108-1.704 0-3.087-1.392-3.087-3.108 0 1.716-1.382 3.108-3.086 3.108-1.705 0-3.087-1.392-3.087-3.108 0 1.716-1.382 3.108-3.087 3.108-1.705 0-3.087-1.392-3.087-3.108 0 1.716-1.382 3.108-3.087 3.108-1.704 0-3.086-1.392-3.086-3.108 0 1.716-1.382 3.108-3.087 3.108-1.705 0-3.087-1.392-3.087-3.108a3.104 3.104 0 0 1-2.354 3.017v33.123h36.483V37.715h17.483v26.692h6.382V31.3a3.103 3.103 0 0 1-2.417-3.033h-.014Zm2.419-20.715H5.86v4.551h60.348V7.552Z"/>
  <path fill="#0053E2" d="M60 37.078H41.653V64.5h18.349V37.078Z"/>
  <path fill="#4DBDF5" d="M57.64 39.401H44.129v11.08H57.64V39.4Z"/>
  <path fill="#fff" d="M45.275 54.559a1.146 1.146 0 1 0 0-2.291 1.146 1.146 0 0 0 0 2.291Z"/>
  <mask id="a" width="24" height="21" x="12" y="37" maskUnits="userSpaceOnUse" style="mask-type:alpha">
    <path fill="#3C71B7" d="M35.454 37H12v20.672h23.454V37Z"/>
  </mask>
  <g mask="url(#a)">
    <path fill="#A9DDF7" d="M28.056 37 12 53.011v4.66h1.47L34.2 37h-6.144Zm-8.224 0L12 44.81v6.128L25.977 37h-6.145Z"/>
  </g>
  <path fill="#4DBDF5" d="M35.454 57.672H12V37h23.454v20.672ZM13.1 52.552v4.284h1.325l18.675-19h-5.536L13.1 52.552Zm-.112-7.859v5.276l12-12h-5.275l-6.725 6.724ZM66.207 4H5.86v3.552h60.348V4Zm.002 27.302a3.103 3.103 0 0 1-2.418-3.033 3.097 3.097 0 0 1-3.087 3.107 3.097 3.097 0 0 1-3.087-3.107c0 1.716-1.382 3.107-3.086 3.107a3.096 3.096 0 0 1-3.087-3.107 3.097 3.097 0 0 1-3.087 3.107 3.096 3.096 0 0 1-3.087-3.107 3.097 3.097 0 0 1-3.087 3.107 3.096 3.096 0 0 1-3.086-3.107 3.098 3.098 0 0 1-3.087 3.107 3.096 3.096 0 0 1-3.087-3.107 3.097 3.097 0 0 1-3.087 3.107 3.096 3.096 0 0 1-3.086-3.107 3.098 3.098 0 0 1-3.087 3.107 3.096 3.096 0 0 1-3.087-3.107 3.097 3.097 0 0 1-3.087 3.107 3.096 3.096 0 0 1-3.087-3.107c0 1.716-1.382 3.107-3.086 3.107a3.096 3.096 0 0 1-3.087-3.107 3.104 3.104 0 0 1-2.354 3.017v2.712a3.103 3.103 0 0 0 2.406-3.029c0 1.716 1.382 3.108 3.086 3.108 1.705 0 3.087-1.392 3.087-3.108 0 1.716 1.382 3.108 3.087 3.108 1.705 0 3.087-1.392 3.087-3.108 0 1.716 1.382 3.108 3.087 3.108 1.704 0 3.087-1.392 3.087-3.108 0 1.716 1.382 3.108 3.086 3.108 1.705 0 3.087-1.392 3.087-3.108 0 1.716 1.382 3.108 3.087 3.108 1.705 0 3.087-1.392 3.087-3.108 0 1.716 1.382 3.108 3.087 3.108 1.704 0 3.086-1.392 3.086-3.108 0 1.716 1.383 3.108 3.087 3.108 1.705 0 3.087-1.392 3.087-3.108 0 1.716 1.382 3.108 3.087 3.108 1.704 0 3.087-1.392 3.087-3.108 0 1.716 1.382 3.108 3.086 3.108 1.705 0 3.087-1.392 3.087-3.108a3.105 3.105 0 0 0 2.368 3.02v-2.685l-.002-.002Z"/>
  <path fill="#0053E2" d="m17.207 12.105-2.82 12.033v4.128a3.097 3.097 0 0 0 3.087 3.107c1.704 0 3.086-1.391 3.086-3.107a3.098 3.098 0 0 0 3.087 3.107 3.097 3.097 0 0 0 3.087-3.107v-4.128l1.144-12.033H17.205h.002Zm37.316 0H43.951l1.31 12.033v4.128c0 1.716 1.382 3.107 3.086 3.107a3.097 3.097 0 0 0 3.087-3.107 3.098 3.098 0 0 0 3.087 3.107 3.097 3.097 0 0 0 3.087-3.107v-4.128l-3.087-12.033h.002Z"/>
</svg>
