<svg xmlns="http://www.w3.org/2000/svg" width="72" height="72" fill="none" viewBox="0 0 72 72">
  <g clip-path="url(#a)">
    <path fill="#0053E2" d="M.902 32.235a1.5 1.5 0 0 1 1.442-1.151l6.247-.07a1 1 0 0 1 .987 1.22l-.049.214a.5.5 0 0 0 .488.61H17.5a.5.5 0 0 1 .5.5V35.5a.5.5 0 0 1-.5.5H1.268a1 1 0 0 1-.973-1.233l.607-2.532Zm70.197 0a1.5 1.5 0 0 0-1.443-1.151l-6.247-.07a1 1 0 0 0-.987 1.22l.049.214a.5.5 0 0 1-.488.61H54.5a.5.5 0 0 0-.5.5V35.5a.5.5 0 0 0 .5.5h16.232a1 1 0 0 0 .973-1.233l-.606-2.532Z"/>
    <path fill="#001E60" fill-rule="evenodd" d="M15.017 70H8.983C7.617 70 6.5 69.063 6.5 67.917V50.083C6.5 48.937 7.617 48 8.983 48h6.034c1.366 0 2.483.937 2.483 2.083v17.834c0 1.146-1.117 2.083-2.483 2.083Zm48 0h-6.034c-1.366 0-2.483-.937-2.483-2.083V50.083c0-1.146 1.117-2.083 2.483-2.083h6.034c1.366 0 2.483.937 2.483 2.083v17.834c0 1.146-1.117 2.083-2.483 2.083Z" clip-rule="evenodd"/>
    <path fill="#0053E2" d="M6.5 45.37a8 8 0 0 1 1.362-4.464L21.25 21h29.5l13.388 19.906A8 8 0 0 1 65.5 45.37V56a6 6 0 0 1-6 6h-47a6 6 0 0 1-6-6V45.37Z"/>
    <path fill="#001E60" d="M12.5 62a4 4 0 0 1 4-4h39a4 4 0 0 1 4 4h-47Z"/>
    <path fill="#4DBDF5" d="M14.155 31.06 20.752 21h30.496l6.61 10.06 2.391 4.323a10 10 0 0 1 1.251 4.842V49a4 4 0 0 1-4 4h-43a4 4 0 0 1-4-4v-8.795a10 10 0 0 1 1.271-4.88l2.384-4.265Z"/>
    <path fill="#0053E2" d="M10.573 7.802c-.321-1.011.202-2.086 1.217-2.398C15.412 4.289 24.276 2 36 2s20.588 2.289 24.21 3.404c1.014.312 1.538 1.387 1.217 2.398l-5.984 18.804A2 2 0 0 1 53.538 28H18.462a2 2 0 0 1-1.905-1.394L10.573 7.802Z"/>
    <path fill="#fff" d="M56.526 38.178H60a2 2 0 0 1 2 2v5a2 2 0 0 1-2 2h-6l2.526-9Zm-41.052 0H12a2 2 0 0 0-2 2v5a2 2 0 0 0 2 2h6l-2.526-9Z"/>
    <path fill="#001E60" d="M17.573 28.934a1.967 1.967 0 0 1 1.45-1.111C21.892 27.333 30.237 26 36 26s14.108 1.333 16.977 1.823a1.967 1.967 0 0 1 1.45 1.111l2.462 5.26a4 4 0 0 1 .248 2.702l-2.369 9.11A4 4 0 0 1 50.897 49H21.103a4 4 0 0 1-3.871-2.993l-2.37-9.111a4 4 0 0 1 .25-2.702l2.461-5.26Z"/>
    <path fill="#0053E2" fill-rule="evenodd" d="M41.984 33.184h4.169v-1.581h-4.169v1.58Zm5.169 0v-2.091l-.498-.509H41.49l-.497.509v2.09h-3.62v15.235h13.399V33.183h-3.62Zm-20.203-.001h4.168v-1.581h-4.169v1.58Zm5.167 0v-2.09l-.497-.509h-5.165l-.497.509v2.09h-3.62v15.235h13.399V33.183h-3.62Z" clip-rule="evenodd"/>
    <path fill="#fff" d="M43.71 37.316a.495.495 0 0 1 .793.153.46.46 0 0 1 .037.18c0 .114-.118 1.326-.16 1.447a.333.333 0 0 1-.124.168.35.35 0 0 1-.405 0 .332.332 0 0 1-.125-.168c-.041-.121-.16-1.333-.16-1.447 0-.125.052-.245.143-.333Zm-1.674 1.189a.498.498 0 0 0-.67.17.463.463 0 0 0 .184.647c.101.057 1.244.564 1.373.59a.354.354 0 0 0 .212-.02.34.34 0 0 0 .158-.139.324.324 0 0 0-.043-.39c-.088-.096-1.112-.8-1.214-.858Zm4.521.816c-.102.058-1.244.565-1.373.59a.354.354 0 0 1-.212-.02.34.34 0 0 1-.159-.139.324.324 0 0 1 .044-.39c.087-.095 1.112-.8 1.214-.857a.498.498 0 0 1 .664.172.462.462 0 0 1-.178.644Zm-1.373 1.123c.13.026 1.271.533 1.373.59a.474.474 0 0 1 .227.287c.034.12.016.25-.048.357a.485.485 0 0 1-.296.22.5.5 0 0 1-.37-.047c-.101-.057-1.125-.762-1.213-.857a.328.328 0 0 1-.044-.39.34.34 0 0 1 .159-.139.353.353 0 0 1 .212-.02Zm-1.131.584a.353.353 0 0 0-.202.064.335.335 0 0 0-.125.167c-.041.121-.16 1.333-.16 1.447 0 .125.052.245.143.334a.495.495 0 0 0 .689 0 .465.465 0 0 0 .142-.334c0-.114-.118-1.326-.16-1.447a.335.335 0 0 0-.124-.167.353.353 0 0 0-.203-.064Zm-2.503.006c.102-.057 1.244-.564 1.373-.59a.354.354 0 0 1 .212.021.34.34 0 0 1 .159.138.324.324 0 0 1-.044.39c-.087.096-1.111.8-1.213.857a.498.498 0 0 1-.67-.169.461.461 0 0 1 .183-.647Zm-12.84-3.718a.495.495 0 0 1 .793.153.46.46 0 0 1 .037.18c0 .114-.118 1.326-.16 1.447a.333.333 0 0 1-.124.168.35.35 0 0 1-.405 0 .332.332 0 0 1-.125-.168c-.041-.121-.16-1.333-.16-1.447 0-.125.052-.245.143-.333Zm-1.674 1.189a.498.498 0 0 0-.67.17.463.463 0 0 0 .183.647c.102.057 1.245.564 1.373.59a.354.354 0 0 0 .213-.02.34.34 0 0 0 .158-.139.324.324 0 0 0-.043-.39c-.088-.096-1.112-.8-1.214-.858Zm4.521.816c-.101.058-1.244.565-1.373.59a.354.354 0 0 1-.212-.02.34.34 0 0 1-.159-.139.324.324 0 0 1 .044-.39c.087-.095 1.112-.8 1.214-.857a.498.498 0 0 1 .664.172.462.462 0 0 1-.178.644Zm-1.373 1.123c.13.026 1.271.533 1.373.59a.474.474 0 0 1 .227.287c.034.12.016.25-.048.357a.485.485 0 0 1-.296.22.5.5 0 0 1-.37-.047c-.101-.057-1.125-.762-1.213-.857a.328.328 0 0 1-.044-.39.34.34 0 0 1 .159-.139.353.353 0 0 1 .212-.02Zm-1.131.584a.353.353 0 0 0-.202.064.335.335 0 0 0-.125.167c-.041.121-.16 1.333-.16 1.447 0 .125.052.245.143.334a.495.495 0 0 0 .689 0 .465.465 0 0 0 .142-.334c0-.114-.118-1.326-.16-1.447a.335.335 0 0 0-.124-.167.353.353 0 0 0-.203-.064Zm-2.503.006c.102-.057 1.244-.564 1.373-.59a.354.354 0 0 1 .212.021.34.34 0 0 1 .159.138.324.324 0 0 1-.044.39c-.087.096-1.111.8-1.213.857a.498.498 0 0 1-.67-.169.461.461 0 0 1 .183-.647Z"/>
    <path fill="#4DBDF5" d="M14.307 9.027a.983.983 0 0 1 .734-1.252C18.34 7.078 28.778 5 36 5c7.222 0 17.66 2.078 20.96 2.775.566.12.899.697.733 1.252l-3.67 12.26a1 1 0 0 1-.958.713h-34.13a1 1 0 0 1-.958-.713l-3.67-12.26Z"/>
    <path fill="#A9DDF7" d="M36 5c2.506 0 5.4.253 8.248.608L34.688 22H18.934a1 1 0 0 1-.957-.713l-3.67-12.26a.983.983 0 0 1 .733-1.253C18.341 7.077 28.778 5 36 5Z"/>
    <path fill="#001E60" d="M14.308 9.027a.983.983 0 0 1 .733-1.252C18.341 7.077 28.778 5 36 5c7.222 0 17.658 2.077 20.959 2.775.567.12.9.697.733 1.252L56.5 13S44.091 10 36 10s-20.5 3-20.5 3l-1.192-3.973Zm1.992 9.608a.588.588 0 0 0-1.12.36l3.39 10.554a.588.588 0 0 0 1.12-.36L16.3 18.635Zm39.471-.075a.588.588 0 1 1 1.12.36L53.5 29.474a.588.588 0 1 1-1.12-.36l3.392-10.554Z"/>
  </g>
  <defs>
    <clipPath id="a">
      <path fill="#fff" d="M0 0h72v72H0z"/>
    </clipPath>
  </defs>
</svg>
