<svg xmlns="http://www.w3.org/2000/svg" width="1152" height="896"><metadata><?xpacket begin="" id="W5M0MpCehiHzreSzNTczkc9d"?><x:xmpmeta xmlns:x="adobe:ns:meta/" x:xmptk="XMP Core 6.0.0"><rdf:RDF xmlns:rdf="http://www.w3.org/1999/02/22-rdf-syntax-ns#"><rdf:Description rdf:about="" xmlns:xmp="http://ns.adobe.com/xap/1.0/" xmlns:xmpMM="http://ns.adobe.com/xap/1.0/mm/" xmlns:dc="http://purl.org/dc/elements/1.1/" xmlns:dcterms="http://purl.org/dc/terms/" xmpMM:DocumentID="xmp.did:cb9f5498-bb58-4572-8043-8c369e6bfb9b" xmpMM:InstanceID="xmp.iid:cb9f5498-bb58-4572-8043-8c369e6bfb9b" dcterms:provenance="https://cai-manifests.adobe.com/manifests/urn-c2pa-def5b312-3601-4f47-a273-d3ca201d8f2d-adobe"> </rdf:Description></rdf:RDF></x:xmpmeta>
<?xpacket end="w"?></metadata>
<defs>
</defs>
<path d="M0,895.5 C0,895.5 0,0 0,0 C0,0 1152,0 1152,0 C1152,0 1152,896 1152,896 C1152,896 0,896 0,896 C0,896 0,895.5 0,895.5 Z M1015.58,765.993 C1015.58,765.993 1042.18,765.443 1042.18,765.443 C1061.59,762.462 1077.05,748.64 1079.41,728.782 C1079.41,728.782 1079.6,175.193 1079.6,175.193 C1079.61,151.726 1064.49,130.931 1039.71,130.654 C1039.71,130.654 1018.63,130.419 1018.63,130.419 C1018.63,130.419 157.988,130.542 157.988,130.542 C138.919,133.451 123.292,146.723 120.784,166.166 C120.784,166.166 120.664,722.823 120.664,722.823 C120.659,746.653 137.8,765.951 162.244,765.952 C162.244,765.952 1015.58,765.993 1015.58,765.993 Z " fill="rgb(254,254,254)"/>
<path d="M1018.63,130.419 C1017.43,130.792 1016.42,130.584 1015.91,131.739 C1032.68,134.377 1050.93,152.278 1050.93,168.301 C1050.93,168.301 1050.94,467.989 1050.94,467.989 C1050.94,467.989 1050.71,728.777 1050.71,728.777 C1050.69,747.089 1034.23,759.943 1019.15,764.698 C1019.15,764.698 1016.61,764.963 1016.61,764.963 C1016.22,765.003 1015.82,765.417 1015.58,765.993 C1015.58,765.993 162.244,765.952 162.244,765.952 C137.8,765.951 120.659,746.653 120.664,722.823 C120.664,722.823 120.784,166.166 120.784,166.166 C123.292,146.723 138.919,133.451 157.988,130.542 C157.988,130.542 1018.63,130.419 1018.63,130.419 Z M169.188,171.636 C172.356,176.224 177.342,177.432 181.552,174.981 C185.788,172.515 187.997,167.33 185.245,162.876 C182.359,158.206 176.795,156.717 172.583,159.144 C168.095,161.729 166.163,167.257 169.188,171.636 Z M206.211,174.762 C210.669,177.334 215.001,176.153 217.991,172.523 C220.763,169.157 220.999,164.978 218.052,161.497 C215.331,158.282 211.357,156.964 206.842,158.701 C203.317,160.057 201.491,163.058 201.391,166.635 C201.296,170.018 202.916,172.861 206.211,174.762 Z M241.044,158.633 C235.769,160.931 233.975,167.15 236.825,171.434 C239.401,175.304 244.131,177.58 248.582,175.309 C252.998,173.057 255.623,167.872 253.26,163.334 C251.082,159.154 246.018,156.466 241.044,158.633 Z M316.327,192.009 C316.327,192.009 150.209,192.036 150.209,192.036 C150.209,192.036 150.071,222.01 150.071,222.01 C150.071,222.01 150.113,252.867 150.113,252.867 C150.113,252.867 150.068,722.713 150.068,722.713 C150.067,730.6 155.564,736.223 163.068,736.243 C163.068,736.243 208.978,736.361 208.978,736.361 C208.978,736.361 275.226,736.112 275.226,736.112 C275.226,736.112 962.171,736.206 962.171,736.206 C962.171,736.206 1007.93,736.584 1007.93,736.584 C1016.77,736.657 1021.93,730.708 1021.92,721.874 C1021.92,721.874 1021.78,590.041 1021.78,590.041 C1021.78,590.041 1021.79,494.865 1021.79,494.865 C1021.79,494.865 1021.99,252.811 1021.99,252.811 C1021.99,252.811 1021.91,221.92 1021.91,221.92 C1021.91,221.92 1021.55,191.816 1021.55,191.816 C1021.55,191.816 1021.9,176.124 1021.9,176.124 C1022.12,166.256 1015.54,160.001 1005.69,160 C1005.69,160 319.199,159.878 319.199,159.878 C311.687,159.877 306.152,166.181 304.671,172.043 C302.469,180.753 308.008,188.858 316.327,192.009 Z " fill="rgb(89,200,251)"/>
<path d="M1018.63,130.419 C1018.63,130.419 1039.71,130.654 1039.71,130.654 C1064.49,130.931 1079.61,151.726 1079.6,175.193 C1079.6,175.193 1079.41,728.782 1079.41,728.782 C1077.05,748.64 1061.59,762.462 1042.18,765.443 C1042.18,765.443 1015.58,765.993 1015.58,765.993 C1015.82,765.417 1016.22,765.003 1016.61,764.963 C1016.61,764.963 1019.15,764.698 1019.15,764.698 C1034.23,759.943 1050.69,747.089 1050.71,728.777 C1050.71,728.777 1050.94,467.989 1050.94,467.989 C1050.94,467.989 1050.93,168.301 1050.93,168.301 C1050.93,152.278 1032.68,134.377 1015.91,131.739 C1016.42,130.584 1017.43,130.792 1018.63,130.419 Z " fill="rgb(3,94,235)"/>
<path d="M1021.99,252.811 C1021.99,252.811 1021.79,494.865 1021.79,494.865 C1021.79,494.865 1021.78,590.041 1021.78,590.041 C1021.78,590.041 1021.92,721.874 1021.92,721.874 C1021.93,730.708 1016.77,736.657 1007.93,736.584 C1007.93,736.584 962.171,736.206 962.171,736.206 C962.171,736.206 961.994,720.149 961.994,720.149 C960.097,709.998 951.459,705.876 941.752,705.877 C941.752,705.877 347.146,705.96 347.146,705.96 C347.146,705.96 225.231,706.218 225.231,706.218 C215.07,706.239 208.656,716.225 208.803,724.731 C208.803,724.731 208.978,736.361 208.978,736.361 C208.978,736.361 163.068,736.243 163.068,736.243 C155.564,736.223 150.067,730.6 150.068,722.713 C150.068,722.713 150.113,252.867 150.113,252.867 C150.113,252.867 441.081,252.736 441.081,252.736 C441.081,252.736 898.777,252.691 898.777,252.691 C898.777,252.691 1021.99,252.811 1021.99,252.811 Z M438.602,389.251 C438.602,389.251 438.647,651.887 438.647,651.887 C438.648,660.144 446.573,668.706 455.313,668.715 C455.313,668.715 622.916,668.884 622.916,668.884 C630.459,668.891 638.534,659.982 638.536,652.847 C638.536,652.847 638.607,387.814 638.607,387.814 C638.607,387.814 638.681,309.103 638.681,309.103 C638.687,302.512 636.409,297.561 632.574,293.782 C627.707,288.986 622.769,288.849 615.712,288.85 C615.712,288.85 209.846,288.946 209.846,288.946 C209.846,288.946 209.366,306.73 209.366,306.73 C209.366,306.73 271.989,307.17 271.989,307.17 C271.989,307.17 349.072,307.262 349.072,307.262 C349.072,307.262 476.424,307.17 476.424,307.17 C476.424,307.17 476.53,330.589 476.53,330.589 C476.53,330.589 209.604,330.616 209.604,330.616 C209.604,330.616 209.231,348.911 209.231,348.911 C209.231,348.911 541.402,349.003 541.402,349.003 C541.402,349.003 541.375,372.365 541.375,372.365 C541.375,372.365 438.839,372.104 438.839,372.104 C438.839,372.104 438.602,389.251 438.602,389.251 Z M962.489,652.978 C962.489,652.978 962.723,511.943 962.723,511.943 C962.723,511.943 962.132,304.057 962.132,304.057 C962.111,296.622 953.285,288.893 945.891,288.897 C945.891,288.897 682.687,289.012 682.687,289.012 C672.561,291.908 667.582,299.015 667.583,309.199 C667.583,309.199 667.635,648.839 667.635,648.839 C667.636,658.136 673.621,668.728 684.434,668.73 C684.434,668.73 948.382,668.76 948.382,668.76 C955.622,668.761 962.478,659.442 962.489,652.978 Z M405.815,391.01 C405.815,391.01 406.005,372.264 406.005,372.264 C406.005,372.264 209.123,372.286 209.123,372.286 C209.123,372.286 209.128,390.927 209.128,390.927 C209.128,390.927 405.815,391.01 405.815,391.01 Z M393.539,669.152 C401.263,667.109 409.305,661.437 409.311,653.141 C409.311,653.141 409.483,435.282 409.483,435.282 C409.492,424.351 398.764,417.711 388.954,417.741 C388.954,417.741 225.252,418.236 225.252,418.236 C214.627,418.268 208.873,428.88 208.893,438.099 C208.893,438.099 209.352,652.789 209.352,652.789 C209.374,663.352 221.173,669.11 230.005,669.112 C230.005,669.112 393.539,669.152 393.539,669.152 Z " fill="rgb(254,254,254)"/>
<path d="M1021.91,221.92 C1021.91,221.92 1021.99,252.811 1021.99,252.811 C1021.99,252.811 898.777,252.691 898.777,252.691 C898.777,252.691 441.081,252.736 441.081,252.736 C441.081,252.736 150.113,252.867 150.113,252.867 C150.113,252.867 150.071,222.01 150.071,222.01 C150.071,222.01 1021.91,221.92 1021.91,221.92 Z " fill="rgb(179,224,249)"/>
<path d="M316.327,192.009 C316.327,192.009 1021.55,191.816 1021.55,191.816 C1021.55,191.816 1021.91,221.92 1021.91,221.92 C1021.91,221.92 150.071,222.01 150.071,222.01 C150.071,222.01 150.209,192.036 150.209,192.036 C150.209,192.036 316.327,192.009 316.327,192.009 Z " fill="rgb(3,93,232)"/>
<path d="M1021.55,191.816 C1021.55,191.816 316.327,192.009 316.327,192.009 C308.008,188.858 302.469,180.753 304.671,172.043 C306.152,166.181 311.687,159.877 319.199,159.878 C319.199,159.878 1005.69,160 1005.69,160 C1015.54,160.001 1022.12,166.256 1021.9,176.124 C1021.9,176.124 1021.55,191.816 1021.55,191.816 Z " fill="rgb(180,225,249)"/>
<path d="M962.171,736.206 C962.171,736.206 275.226,736.112 275.226,736.112 C275.226,736.112 208.978,736.361 208.978,736.361 C208.978,736.361 208.803,724.731 208.803,724.731 C208.656,716.225 215.07,706.239 225.231,706.218 C225.231,706.218 347.146,705.96 347.146,705.96 C347.146,705.96 941.752,705.877 941.752,705.877 C951.459,705.876 960.097,709.998 961.994,720.149 C961.994,720.149 962.171,736.206 962.171,736.206 Z " fill="rgb(3,94,233)"/>
<path d="M206.211,174.762 C202.916,172.861 201.296,170.018 201.391,166.635 C201.491,163.058 203.317,160.057 206.842,158.701 C211.357,156.964 215.331,158.282 218.052,161.497 C220.999,164.978 220.763,169.157 217.991,172.523 C215.001,176.153 210.669,177.334 206.211,174.762 Z " fill="rgb(7,94,237)"/>
<path d="M169.188,171.636 C166.163,167.257 168.095,161.729 172.583,159.144 C176.795,156.717 182.359,158.206 185.245,162.876 C187.997,167.33 185.788,172.515 181.552,174.981 C177.342,177.432 172.356,176.224 169.188,171.636 Z " fill="rgb(4,97,233)"/>
<path d="M241.044,158.633 C246.018,156.466 251.082,159.154 253.26,163.334 C255.623,167.872 252.998,173.057 248.582,175.309 C244.131,177.58 239.401,175.304 236.825,171.434 C233.975,167.15 235.769,160.931 241.044,158.633 Z " fill="rgb(2,96,237)"/>
<path d="M962.489,652.978 C962.478,659.442 955.622,668.761 948.382,668.76 C948.382,668.76 684.434,668.73 684.434,668.73 C673.621,668.728 667.636,658.136 667.635,648.839 C667.635,648.839 667.583,309.199 667.583,309.199 C667.582,299.015 672.561,291.908 682.687,289.012 C682.687,289.012 945.891,288.897 945.891,288.897 C953.285,288.893 962.111,296.622 962.132,304.057 C962.132,304.057 962.723,511.943 962.723,511.943 C962.723,511.943 962.489,652.978 962.489,652.978 Z " fill="rgb(179,225,250)"/>
<path d="M393.539,669.152 C393.539,669.152 230.005,669.112 230.005,669.112 C221.173,669.11 209.374,663.352 209.352,652.789 C209.352,652.789 208.893,438.099 208.893,438.099 C208.873,428.88 214.627,418.268 225.252,418.236 C225.252,418.236 388.954,417.741 388.954,417.741 C398.764,417.711 409.492,424.351 409.483,435.282 C409.483,435.282 409.311,653.141 409.311,653.141 C409.305,661.437 401.263,667.109 393.539,669.152 Z " fill="rgb(90,201,251)"/>
<path d="M638.607,387.814 C637.893,388.363 637.875,389.605 637.74,391.108 C637.74,391.108 441.184,391.034 441.184,391.034 C439.432,391.252 438.99,390.835 438.602,389.251 C438.602,389.251 438.839,372.104 438.839,372.104 C438.839,372.104 541.375,372.365 541.375,372.365 C541.375,372.365 541.402,349.003 541.402,349.003 C541.402,349.003 209.231,348.911 209.231,348.911 C209.231,348.911 209.604,330.616 209.604,330.616 C209.604,330.616 476.53,330.589 476.53,330.589 C476.53,330.589 476.424,307.17 476.424,307.17 C476.424,307.17 349.072,307.262 349.072,307.262 C349.072,307.262 271.989,307.17 271.989,307.17 C271.989,307.17 209.366,306.73 209.366,306.73 C209.366,306.73 209.846,288.946 209.846,288.946 C209.846,288.946 615.712,288.85 615.712,288.85 C622.769,288.849 627.707,288.986 632.574,293.782 C636.409,297.561 638.687,302.512 638.681,309.103 C638.681,309.103 638.607,387.814 638.607,387.814 Z " fill="rgb(89,200,250)"/>
<path d="M405.815,391.01 C405.815,391.01 209.128,390.927 209.128,390.927 C209.128,390.927 209.123,372.286 209.123,372.286 C209.123,372.286 406.005,372.264 406.005,372.264 C406.005,372.264 405.815,391.01 405.815,391.01 Z " fill="rgb(89,199,250)"/>
<path d="M438.602,389.251 C438.99,390.835 439.432,391.252 441.184,391.034 C441.184,391.034 637.74,391.108 637.74,391.108 C637.875,389.605 637.893,388.363 638.607,387.814 C638.607,387.814 638.536,652.847 638.536,652.847 C638.534,659.982 630.459,668.891 622.916,668.884 C622.916,668.884 455.313,668.715 455.313,668.715 C446.573,668.706 438.648,660.144 438.647,651.887 C438.647,651.887 438.602,389.251 438.602,389.251 Z " fill="rgb(179,225,250)"/>
</svg>
