<svg xmlns="http://www.w3.org/2000/svg" width="32" height="32" fill="none" viewBox="0 0 32 32">
  <rect width="28.5" height="25.5" fill="#4DBDF5" rx="5.15"/>
  <rect width="4.453" height="4.453" x="2.672" y="9.852" fill="#0053E2" rx="2"/>
  <rect width="4.453" height="4.453" x="8.906" y="9.852" fill="#0053E2" rx="2"/>
  <rect width="4.453" height="4.453" x="15.141" y="9.852" fill="#0053E2" rx="2"/>
  <rect width="4.453" height="4.453" x="21.375" y="9.852" fill="#0053E2" rx="2"/>
  <rect width="4.453" height="4.453" x="2.672" y="16.086" fill="#FDFDFD" rx="2"/>
  <rect width="4.453" height="4.453" x="8.906" y="16.086" fill="#0053E2" rx="2"/>
  <rect width="4.453" height="4.453" x="15.141" y="16.086" fill="#0053E2" rx="2"/>
  <path fill="#0053E2" d="M0 5.15A5.15 5.15 0 0 1 5.15 0h18.2a5.15 5.15 0 0 1 5.15 5.15v1.6H0v-1.6Z"/>
  <circle cx="4.5" cy="3.375" r="1.125" fill="#4DBDF5"/>
  <circle cx="24" cy="3.375" r="1.125" fill="#4DBDF5"/>
  <circle cx="23.793" cy="23.793" r="8.207" fill="#0053E2"/>
  <rect width="1.346" height="5.085" x="22.994" y="19.438" fill="#FDFDFD" rx=".673"/>
  <rect width="1.346" height="3.963" x="26.889" y="24.934" fill="#FDFDFD" rx=".673" transform="rotate(120 26.889 24.934)"/>
</svg>
