<svg xmlns="http://www.w3.org/2000/svg" width="32" height="32" fill="none" viewBox="0 0 32 32">
  <path fill="#173CD4" d="M2 17v.02C2 18.67 3.34 20 4.98 20H5c-1.66 0-3.01-1.35-3.01-3.01L2 17Z"/>
  <path fill="#0053E2" d="M27 6H5a3 3 0 0 0-3 3v14a3 3 0 0 0 3 3h22a3 3 0 0 0 3-3V9a3 3 0 0 0-3-3Z"/>
  <path fill="#4DBDF5" d="M30 9H2v3h28V9Z"/>
  <path fill="#fff" fill-rule="evenodd" d="M15.32 14.73c0-.39.32-.7.7-.7.38 0 .7.32.7.7 0 .17-.17 1.98-.23 2.16-.07.21-.26.34-.48.34-.22 0-.41-.14-.48-.34-.06-.18-.23-1.99-.23-2.16h.02Zm4.32 2.5c-.14.08-1.8.84-1.98.88a.52.52 0 0 1-.54-.23.515.515 0 0 1 .06-.59c.12-.14 1.6-1.19 1.76-1.28a.71.71 0 0 1 .96.25c.19.34.08.76-.25.96l-.01.01Zm-1.98 1.67c.19.04 1.84.79 1.98.88.34.19.45.63.25.96-.19.34-.63.45-.96.25-.14-.08-1.62-1.14-1.76-1.28a.515.515 0 0 1-.06-.59c.11-.19.32-.28.54-.23l.01.01Zm-1.64.87c-.21 0-.41.14-.48.34-.06.18-.23 1.99-.23 2.16 0 .39.32.7.7.7.38 0 .7-.32.7-.7 0-.17-.17-1.98-.23-2.16a.495.495 0 0 0-.48-.34h.02Zm-3.61.01c.14-.08 1.8-.84 1.98-.88.21-.04.43.05.54.23.11.19.08.42-.06.59-.12.14-1.6 1.19-1.76 1.28a.71.71 0 0 1-.96-.25.71.71 0 0 1 .25-.96l.01-.01Zm.7-3.77a.71.71 0 0 0-.96.25.71.71 0 0 0 .25.96c.14.08 1.8.84 1.98.88.21.04.43-.05.54-.23.11-.19.08-.42-.06-.59-.12-.14-1.6-1.19-1.76-1.28l.01.01Z" clip-rule="evenodd"/>
</svg>
