<svg xmlns="http://www.w3.org/2000/svg" width="1152" height="896"><metadata><?xpacket begin="" id="W5M0MpCehiHzreSzNTczkc9d"?><x:xmpmeta xmlns:x="adobe:ns:meta/" x:xmptk="XMP Core 6.0.0"><rdf:RDF xmlns:rdf="http://www.w3.org/1999/02/22-rdf-syntax-ns#"><rdf:Description rdf:about="" xmlns:xmp="http://ns.adobe.com/xap/1.0/" xmlns:xmpMM="http://ns.adobe.com/xap/1.0/mm/" xmlns:dc="http://purl.org/dc/elements/1.1/" xmlns:dcterms="http://purl.org/dc/terms/" xmpMM:DocumentID="xmp.did:cb9f5498-bb58-4572-8043-8c369e6bfb9b" xmpMM:InstanceID="xmp.iid:cb9f5498-bb58-4572-8043-8c369e6bfb9b" dcterms:provenance="https://cai-manifests.adobe.com/manifests/urn-c2pa-337433a1-78f4-4b27-aabb-fd3191cbebe2-adobe"> </rdf:Description></rdf:RDF></x:xmpmeta>
<?xpacket end="w"?></metadata>
<defs>
</defs>
<path d="M0,895.5 C0,895.5 0,0 0,0 C0,0 1152,0 1152,0 C1152,0 1152,896 1152,896 C1152,896 0,896 0,896 C0,896 0,895.5 0,895.5 Z M231.16,765.855 C231.114,767.064 231.928,767.188 233,767.042 C233,767.042 295.048,766.907 295.048,766.907 C320.132,765.311 344.201,761.199 368.056,753.003 C414.236,737.136 453.304,706.34 481.72,666.897 C482.653,665.602 482.928,664.985 482.922,663.826 C482.922,663.826 799.14,663.97 799.14,663.97 C799.14,663.97 849.161,664.399 849.161,664.399 C894.865,664.79 938.563,650.36 973.141,619.852 C1007.57,589.475 1030.84,544.741 1030.85,498.063 C1030.85,498.063 1030.88,291.981 1030.88,291.981 C1030.88,252.008 1012.09,214.223 985.46,185.561 C954.94,152.711 912.833,133.904 868.081,130.331 C868.081,130.331 805.057,129.642 805.057,129.642 C805.057,129.642 744.782,129.534 744.782,129.534 C744.782,129.534 299.109,130.213 299.109,130.213 C249.916,130.288 202.571,153.072 170.164,188.979 C144.541,217.369 127.435,253.472 127.377,292.048 C127.377,292.048 127.072,496.022 127.072,496.022 C127.003,541.916 149.501,584.427 182.739,615.162 C213.684,643.777 253.398,660.312 295.602,663.67 C281.433,707.434 250.111,736.645 207.3,753.318 C200.341,756.028 193.833,758.6 194.783,763.482 C195.085,765.034 196.701,766.773 199.271,766.816 C199.271,766.816 228.997,767.31 228.997,767.31 C228.997,767.31 231.16,765.855 231.16,765.855 Z " fill="rgb(254,254,254)"/>
<path d="M805.057,129.642 C804.889,130.392 805.033,130.785 805.979,130.876 C863.655,136.419 914.512,169.277 942.431,220.612 C954.338,242.504 962.505,267.313 962.477,293.056 C962.477,293.056 962.256,500.46 962.256,500.46 C962.229,525.992 952.758,549.835 940.871,571.865 C929.321,593.273 913.249,610.481 894.25,625.296 C867.239,646.358 835.047,658.424 801.099,663.192 C799.885,662.399 798.924,663.146 799.14,663.97 C799.14,663.97 482.922,663.826 482.922,663.826 C482.922,663.826 416.584,663.922 416.584,663.922 C374.461,720.448 313.634,755.788 243.025,765.274 C238.871,765.488 235.304,766.601 231.16,765.855 C231.16,765.855 228.997,767.31 228.997,767.31 C228.997,767.31 199.271,766.816 199.271,766.816 C196.701,766.773 195.085,765.034 194.783,763.482 C193.833,758.6 200.341,756.028 207.3,753.318 C250.111,736.645 281.433,707.434 295.602,663.67 C253.398,660.312 213.684,643.777 182.739,615.162 C149.501,584.427 127.003,541.916 127.072,496.022 C127.072,496.022 127.377,292.048 127.377,292.048 C127.435,253.472 144.541,217.369 170.164,188.979 C202.571,153.072 249.916,130.288 299.109,130.213 C299.109,130.213 744.782,129.534 744.782,129.534 C744.782,129.534 805.057,129.642 805.057,129.642 Z M853.623,348.481 C853.623,348.481 853.614,320.195 853.614,320.195 C853.614,320.195 258.525,320.32 258.525,320.32 C258.525,320.32 258.478,348.543 258.478,348.543 C258.478,348.543 853.623,348.481 853.623,348.481 Z M853.304,414.041 C853.304,414.041 853.291,385.619 853.291,385.619 C853.291,385.619 258.787,385.667 258.787,385.667 C258.787,385.667 258.75,414.063 258.75,414.063 C258.75,414.063 853.304,414.041 853.304,414.041 Z M853.575,479.677 C853.575,479.677 853.484,451.185 853.484,451.185 C853.484,451.185 258.417,451.258 258.417,451.258 C258.417,451.258 258.214,479.663 258.214,479.663 C258.214,479.663 853.575,479.677 853.575,479.677 Z " fill="rgb(85,199,250)"/>
<path d="M799.14,663.97 C798.924,663.146 799.885,662.399 801.099,663.192 C835.047,658.424 867.239,646.358 894.25,625.296 C913.249,610.481 929.321,593.273 940.871,571.865 C952.758,549.835 962.229,525.992 962.256,500.46 C962.256,500.46 962.477,293.056 962.477,293.056 C962.505,267.313 954.338,242.504 942.431,220.612 C914.512,169.277 863.655,136.419 805.979,130.876 C805.033,130.785 804.889,130.392 805.057,129.642 C805.057,129.642 868.081,130.331 868.081,130.331 C912.833,133.904 954.94,152.711 985.46,185.561 C1012.09,214.223 1030.88,252.008 1030.88,291.981 C1030.88,291.981 1030.85,498.063 1030.85,498.063 C1030.84,544.741 1007.57,589.475 973.141,619.852 C938.563,650.36 894.865,664.79 849.161,664.399 C849.161,664.399 799.14,663.97 799.14,663.97 Z " fill="rgb(0,92,235)"/>
<path d="M482.922,663.826 C482.928,664.985 482.653,665.602 481.72,666.897 C453.304,706.34 414.236,737.136 368.056,753.003 C344.201,761.199 320.132,765.311 295.048,766.907 C295.048,766.907 233,767.042 233,767.042 C231.928,767.188 231.114,767.064 231.16,765.855 C235.304,766.601 238.871,765.488 243.025,765.274 C313.634,755.788 374.461,720.448 416.584,663.922 C416.584,663.922 482.922,663.826 482.922,663.826 Z " fill="rgb(0,92,235)"/>
<path d="M853.575,479.677 C853.575,479.677 258.214,479.663 258.214,479.663 C258.214,479.663 258.417,451.258 258.417,451.258 C258.417,451.258 853.484,451.185 853.484,451.185 C853.484,451.185 853.575,479.677 853.575,479.677 Z " fill="rgb(3,40,117)"/>
<path d="M853.623,348.481 C853.623,348.481 258.478,348.543 258.478,348.543 C258.478,348.543 258.525,320.32 258.525,320.32 C258.525,320.32 853.614,320.195 853.614,320.195 C853.614,320.195 853.623,348.481 853.623,348.481 Z " fill="rgb(3,41,119)"/>
<path d="M853.304,414.041 C853.304,414.041 258.75,414.063 258.75,414.063 C258.75,414.063 258.787,385.667 258.787,385.667 C258.787,385.667 853.291,385.619 853.291,385.619 C853.291,385.619 853.304,414.041 853.304,414.041 Z " fill="rgb(3,40,117)"/>
</svg>
