<svg xmlns="http://www.w3.org/2000/svg" width="72" height="72" fill="none" viewBox="0 0 72 72">
  <path fill="#0053E2" d="M67.823 13.44A3.999 3.999 0 0 1 70 17v38a4 4 0 0 1-4 4H6a4 4 0 0 1-4-4V17a4 4 0 0 1 2.176-3.56l2.017 5.042a8 8 0 0 0 2.524 3.35l24.83 19.266a4 4 0 0 0 4.905 0l24.831-19.266a7.999 7.999 0 0 0 2.524-3.35l2.016-5.042Z"/>
  <path fill="#001E60" d="M67.605 14H4.398l3.815 9.533a8 8 0 0 0 2.444 3.287l22.851 18.196a4 4 0 0 0 4.984 0l22.852-18.197a8.001 8.001 0 0 0 2.443-3.284L67.605 14Z"/>
  <path fill="#4DBDF5" d="M66 13c.657 0 1.276.159 1.823.44l-2.016 5.042a7.999 7.999 0 0 1-2.524 3.35l-24.83 19.266a4 4 0 0 1-4.905 0L8.717 21.832a8 8 0 0 1-2.524-3.35L4.176 13.44A3.982 3.982 0 0 1 6 13h60Z"/>
  <path fill="#A9DDF7" d="M36 13v28.938c-.865 0-1.73-.28-2.452-.84L8.717 21.832a8 8 0 0 1-2.524-3.35L4.176 13.44A3.982 3.982 0 0 1 6 13h30Z"/>
</svg>
