<svg xmlns="http://www.w3.org/2000/svg" width="72" height="72" fill="none" viewBox="0 0 72 72">
  <path fill="#001E60" d="m36.64 14.557 3.127 7.757a4.277 4.277 0 0 0 3.181 7.891L59.796 72H26.51a6.838 6.838 0 0 0-5.01-10.045v-47.4l15.14.002Z"/>
  <path fill="#4DBDF5" d="M42.855 72H0l8.148-21.773c.032.001.063.004.094.004a3.21 3.21 0 0 0 2.034-5.69L21.5 14.557 42.855 72Z"/>
  <circle cx="14.5" cy="61.497" r="4.5" fill="#0053E2"/>
  <circle cx="25.316" cy="45.312" r="3.316" fill="#0053E2"/>
  <circle cx="19" cy="33.997" r="2" fill="#0053E2"/>
  <path fill="#001E60" d="M67.83 49.877a2.77 2.77 0 0 1 3.798 1.024 2.813 2.813 0 0 1-1.019 3.825c-.21.122-.43.213-.653.275.224.061.443.153.653.275a2.813 2.813 0 0 1 1.019 3.825 2.77 2.77 0 0 1-4.505.437l-.003-.004-.002.003-2.923-3.448-2.195.412 1.272-1.5L62 53.5l2.195.41 2.923-3.446.002.003.003-.005c.197-.227.433-.427.707-.587Z"/>
  <path fill="#0053E2" d="M51 39.008c8.881.264 16 7.547 16 16.492s-7.119 16.227-16 16.491V72H36V39.008L51 39v.008Z"/>
  <path fill="#001E60" d="M51 39.008c8.881.264 16 7.547 16 16.492s-7.119 16.227-16 16.491V72h-4v-.009c8.881-.264 16-7.546 16-16.491s-7.119-16.228-16-16.492V39h4v.008Z"/>
  <ellipse cx="36.75" cy="55.5" fill="#A9DDF7" rx="12.75" ry="16.5"/>
  <ellipse cx="36" cy="55.5" fill="#001E60" rx="12" ry="16.5"/>
  <ellipse cx="36" cy="55.5" fill="#0053E2" rx="10" ry="14.5"/>
  <circle cx="37" cy="60" r="3" fill="#A9DDF7"/>
  <circle cx="30.5" cy="55.5" r="1.5" fill="#A9DDF7"/>
  <circle cx="38" cy="50" r="2" fill="#A9DDF7"/>
</svg>
