<svg xmlns="http://www.w3.org/2000/svg" width="72" height="72" fill="none" viewBox="0 0 72 72">
  <path fill="#001E60" d="M22.004 16.689h7.436L45.007 72H36L22.004 16.689Z"/>
  <path fill="#001E60" d="M8.728 43.052c-4.304-12.365 4.074-26.364 20.715-26.364 8.024 0 9.037 5.57 14.437 10.044 3.787 3.138 20.087 3.766 25.108 16.32C76.386 61.544 59.498 72 45.005 72a29.184 29.184 0 0 1-1.752-.073c-10.466-.74-13.435-9.423-21.342-16.32-5.357-4.674-10.845-5.84-13.182-12.555Z"/>
  <path fill="#0053E2" stroke="#A9DDF7" stroke-width="3" d="M36 70.499c-10.232 0-17.328-1.89-24.894-8.49-2.586-2.257-4.66-4.615-6.101-7.551-1.438-2.931-2.291-6.533-2.291-11.334 0-6.085 2.996-12.363 7.053-17.16 2.017-2.385 4.257-4.353 6.435-5.714 2.2-1.375 4.226-2.061 5.845-2.061 1.823 0 3.163.319 4.234.813 1.075.496 1.96 1.207 2.83 2.108.902.934 1.697 1.968 2.717 3.188.991 1.185 2.127 2.457 3.58 3.661.645.534 1.476.955 2.34 1.316.877.368 1.894.714 2.968 1.064 2.18.71 4.651 1.45 7.173 2.482 5.035 2.061 9.906 5.145 12.192 10.86 1.834 4.585 2.132 8.486 1.416 11.748-.716 3.26-2.471 6.002-4.95 8.23C51.55 68.154 43.66 70.5 36 70.5Z"/>
  <path stroke="#A9DDF7" stroke-width="2" d="M37.864 30c-3.463 1.647-10.51 6.353-11 12M21.3 47.447C17.28 47.964 6 50.374 2.866 46"/>
  <path stroke="#A9DDF7" stroke-width="3" d="M27.697 47.446C26.44 57.49 42.87 61.21 38.475 70.624"/>
  <circle cx="25.694" cy="44.936" r="4.149" fill="#0053E2" stroke="#fff" stroke-width="3"/>
</svg>
