<svg xmlns="http://www.w3.org/2000/svg" width="72" height="72" fill="none" viewBox="0 0 72 72">
  <path fill="#0053E2" d="M2.82 26.146a1.5 1.5 0 0 1 1.44-1.148l5.911-.065a1 1 0 0 1 1.011 1v.512a.5.5 0 0 0 .509.5l6.568-.114a.5.5 0 0 1 .508.5v1.706a.5.5 0 0 1-.5.5H3.27a1 1 0 0 1-.972-1.235l.521-2.156Zm66.36 0a1.5 1.5 0 0 0-1.44-1.148l-5.911-.065a1 1 0 0 0-1.011 1v.62a.5.5 0 0 1-.516.5l-6.553-.214a.5.5 0 0 0-.516.5v1.698a.5.5 0 0 0 .5.5H68.73a1 1 0 0 0 .972-1.235l-.521-2.156Z"/>
  <path fill="#001E60" d="M17.836 51.692h36.329v2.769H17.836z"/>
  <path fill="#001E60" fill-rule="evenodd" d="M16.453 60h-5.62c-1.273 0-2.313-.865-2.313-1.923V41.615c0-1.058 1.04-1.923 2.312-1.923h5.621c1.272 0 2.313.865 2.313 1.923v16.462c0 1.058-1.04 1.923-2.313 1.923Zm44.713 0h-5.62c-1.273 0-2.314-.865-2.314-1.923V41.615c0-1.058 1.041-1.923 2.313-1.923h5.621c1.272 0 2.313.865 2.313 1.923v16.462c0 1.058-1.04 1.923-2.313 1.923Z" clip-rule="evenodd"/>
  <path fill="#0053E2" d="M15.905 17.397c.955-2.42 3.032-4.21 5.61-4.55C24.62 12.438 29.47 12 36.001 12c6.53 0 11.382.438 14.486.847 2.578.34 4.655 2.13 5.61 4.55l4.717 11.946a7.66 7.66 0 0 0 1.204 2.047 10.532 10.532 0 0 1 2.39 6.691v.803a2.052 2.052 0 0 1 1.766 2.352l-1.513 9.688a2 2 0 0 1-1.976 1.69H9.317a2 2 0 0 1-1.976-1.69l-1.515-9.686a2.053 2.053 0 0 1 1.768-2.354l-.001-.803a10.532 10.532 0 0 1 2.391-6.69 7.662 7.662 0 0 0 1.204-2.048l4.716-11.946Z"/>
  <path fill="#001E60" d="M22.965 41.027a1 1 0 0 1 .943-1.335H48.09a1 1 0 0 1 .943 1.335l-.22.618a4 4 0 0 1-3.77 2.663H26.956a4 4 0 0 1-3.77-2.663l-.22-.618Zm-2.669 6.519a1 1 0 0 1 .92-1.394h29.57a1 1 0 0 1 .92 1.394l-.341.796a4 4 0 0 1-3.677 2.426H24.314a4 4 0 0 1-3.677-2.426l-.341-.796Z"/>
  <path fill="#fff" d="M8.52 39.095a2 2 0 0 1 2.164-1.993l5.927.489a3.364 3.364 0 0 1-.277 6.716H10.52a2 2 0 0 1-2-2v-3.212Z"/>
  <path fill="#A9DDF7" d="M10.383 48.998a1.77 1.77 0 0 1 1.916-1.764l2.13.176a1.682 1.682 0 0 1-.14 3.358h-2.136a1.77 1.77 0 0 1-1.77-1.77Zm51.234 0a1.77 1.77 0 0 0-1.915-1.764l-2.13.176a1.682 1.682 0 0 0 .138 3.358h2.137a1.77 1.77 0 0 0 1.77-1.77Zm-50.93-11.896 1.56.128v7.078h-1.726a2 2 0 0 1-2-2v-3.213a2 2 0 0 1 2.165-1.993Z"/>
  <path fill="#fff" d="M63.48 39.095a2 2 0 0 0-2.164-1.993l-5.927.489a3.364 3.364 0 0 0 .277 6.716h5.815a2 2 0 0 0 2-2v-3.212Z"/>
  <path fill="#A9DDF7" d="m61.313 37.102-1.56.129v7.078h1.725a2 2 0 0 0 2-2v-3.213a2 2 0 0 0-2.165-1.993ZM18.534 17.918a4.945 4.945 0 0 1 4.326-3.409c3.641-.273 9.473-.661 13.14-.661s9.499.388 13.14.661a4.945 4.945 0 0 1 4.326 3.41l3.493 10.698H15.041l3.493-10.699Z"/>
  <path fill="#4DBDF5" d="M36.466 13.85c3.68.03 9.182.398 12.673.66a4.944 4.944 0 0 1 4.325 3.408l3.493 10.698H36.466V13.851Z"/>
  <path fill="#0053E2" d="M22.914 14.255a.654.654 0 0 1 .498-1.077h25.176c.557 0 .859.652.498 1.076a2.615 2.615 0 0 1-1.994.924H24.908a2.615 2.615 0 0 1-1.994-.924Z"/>
</svg>
