<svg xmlns="http://www.w3.org/2000/svg" width="72" height="72" fill="none" viewBox="0 0 72 72">
  <path fill="#0E1E5D" d="M5.035 57.184H67v3.5H5.035v-3.5Z"/>
  <path fill="#0E1E5D" d="M21.5 37.5a6 6 0 0 1 6-6H61a6 6 0 0 1 6 6v21H21.5v-21Zm50.5 23H54V72h18z"/>
  <path fill="#2F50D8" d="M0 60.5h55V72H0z"/>
  <path fill="#3052D2" d="m51.436 57.304 11.6-14.846h-45.5L5.348 56.384c-.707.809-.133 2.074.94 2.074h42.783a3 3 0 0 0 2.364-1.154ZM17.535 37.458a6 6 0 0 1 6-6h33.5a6 6 0 0 1 6 6v5h-45.5v-5Z"/>
  <path fill="#A9DDF7" d="m16.946 54.114-1.725 2.209H9.156l1.944-2.21h5.846Zm8.188 0-1.726 2.209h-6.283l1.726-2.21h6.283Zm8.187 0-1.725 2.209h-6.284l1.726-2.21h6.283Zm10.702-3.219-4.24 5.428H33.5l4.24-5.428h6.283Zm3.68 5.428h-6.016l4.24-5.428h6.016l-4.24 5.428Zm-28.242-5.428-1.733 2.219h-5.749l1.954-2.219h5.528Zm8.187 0-1.733 2.219h-6.283l1.733-2.219h6.283Zm8.188 0-1.733 2.219h-6.284l1.734-2.219h6.283Zm16.889-1h-6.016l1.733-2.219h6.015l-1.732 2.219ZM24.49 44.457l-4.248 5.438h-5.43l4.785-5.438h4.893Zm8.188 0-4.248 5.438h-6.284l4.248-5.438h6.284Zm5.673 3.22-1.734 2.218h-6.283l1.733-2.219h6.284Zm8.187 0-1.733 2.218h-6.283l1.733-2.219h6.283Zm8.7-1h-6.014l1.733-2.22h6.015l-1.734 2.22Zm-14.373-2.22-1.733 2.22h-6.283l1.733-2.22h6.283Zm8.188 0-1.734 2.22h-6.283l1.733-2.22h6.284Z"/>
  <path fill="#0E1E5D" d="M22.5 42H24v-1.5L22.5 42ZM39 40.5 37.5 42v-1.5H39Z"/>
  <path fill="#A9DDF7" d="M24 28h13.5v14H24z"/>
  <path fill="#3052D2" d="M37.5 27a3.5 3.5 0 1 1 7 0v1h-7v-1Z"/>
  <path fill="#A9DDF7" d="M40.995 23.5A3.5 3.5 0 0 0 37.5 27v1H24a4.5 4.5 0 0 1 4.5-4.5h12.495Z"/>
  <path fill="#4DBDF5" d="M25.5 36h10v1h-10zm0-3h10v1h-10zm0-3h10v1h-10z"/>
  <path fill="#3052D2" d="M51 23h5v9h-5z"/>
  <path fill="#0E1E5D" d="M56 22h-5v2.5h2a1.5 1.5 0 0 1 1.5 1.5v5.5H56V22Z"/>
  <rect width="25" height="12" x="42" y="11" fill="#0E1E5D" rx="2"/>
  <rect width="25" height="12" x="40" y="11" fill="#3052D2" rx="2"/>
  <rect width="21" height="8" x="42" y="13" fill="#A9DDF7" rx=".75"/>
</svg>
