<svg xmlns="http://www.w3.org/2000/svg" width="64" height="64" fill="none" viewBox="0 0 64 64">
  <path fill="#0053E2" d="M52.05 12h-39.1A3.95 3.95 0 0 0 9 15.95v32.1A3.95 3.95 0 0 0 12.95 52h39.1A3.95 3.95 0 0 0 56 48.05v-32.1A3.95 3.95 0 0 0 52.05 12Z"/>
  <path fill="#A9DDF7" d="M11 47h43V16.33A2.33 2.33 0 0 0 51.67 14H13.33A2.33 2.33 0 0 0 11 16.33V47Z"/>
  <path fill="#4DBDF5" fill-rule="evenodd" d="M28.89 14h6.41L54 33.72v6.76L28.89 14ZM18 14h4.9L54 47.32v.15h-4.76L18 14Zm36 18.3L37 14h2.38L54 29.74v2.56Z" clip-rule="evenodd"/>
  <path fill="#0053E2" d="M61 47a5 5 0 0 1-5 5H27.4L26 47h35Z"/>
  <path fill="#0053E2" d="M27.4 52H17l.55-4.99h8.48L27.4 52Z"/>
  <path fill="#4DBDF5" d="M26.03 47.01h-8.48L20 25l6.03 22.01Z"/>
  <path fill="#001E60" d="M16.86 22H6.14A3.14 3.14 0 0 0 3 25.14v23.72A3.14 3.14 0 0 0 6.14 52h10.72A3.14 3.14 0 0 0 20 48.86V25.14A3.14 3.14 0 0 0 16.86 22Z"/>
  <path fill="#0053E2" d="M9.52 24h4a.51.51 0 0 1 .52.5.51.51 0 0 1-.52.5h-4a.51.51 0 0 1-.52-.5.51.51 0 0 1 .52-.5ZM28 13h9v1.62A1.38 1.38 0 0 1 35.62 16h-6.24A1.38 1.38 0 0 1 28 14.62V13Z"/>
</svg>
