<svg xmlns="http://www.w3.org/2000/svg" width="64" height="64" fill="none" viewBox="0 0 64 64">
  <path fill="#4DBDF5" d="M42 14h-2V9.64A1.65 1.65 0 0 0 38.35 8h-2.7A1.65 1.65 0 0 0 34 9.64V14h-2V9.6A3.61 3.61 0 0 1 35.61 6h2.78A3.61 3.61 0 0 1 42 9.6V14Z"/>
  <path fill="#0053E2" d="m34.23 34.34-.25.96-.61 2.36-.1.39-.89 3.4-1.01 3.9L27.82 59h-4.21l3.55-13.65 1.02-3.9.88-3.4.16-.61.55-2.14.25-.96h4.21ZM50.64 59h-4.21l-3.55-13.65-1.02-3.9-.88-3.4-.1-.39-.61-2.36-.26-.96h4.21l.26.96.55 2.14.16.61.88 3.4 1.02 3.9L50.64 59Z"/>
  <path fill="#0053E2" d="M46.98 50.87h-19.6v3.91h19.6v-3.91Z"/>
  <path fill="#001E60" d="M32.47 41.09 31.46 45h-4.21l1.01-3.91h4.21ZM47 45h-4.21l-1.02-3.91h4.21L47 45Z"/>
  <path fill="#001E60" d="M16 26.16h42v4.28A13.57 13.57 0 0 1 44.43 44H29.57A13.57 13.57 0 0 1 16 30.43v-4.28.01ZM25.95 11h22.11a9.95 9.95 0 0 1 9.95 9.95v3.89H16v-3.89A9.95 9.95 0 0 1 25.95 11Z"/>
  <path fill="#0053E2" d="M16 26.16h40v4.28A13.57 13.57 0 0 1 42.43 44H29.57A13.57 13.57 0 0 1 16 30.43v-4.28.01ZM25.95 11h20.11a9.95 9.95 0 0 1 9.95 9.95v3.89H16v-3.89A9.95 9.95 0 0 1 25.95 11Z"/>
  <path fill="#A9DDF7" d="M37 21a1.5 1.5 0 1 0 0-3 1.5 1.5 0 0 0 0 3Z"/>
  <path fill="#4DBDF5" d="M5.2 46h16.6l-1.12 11.1a2.08 2.08 0 0 1-2.07 1.9H8.26L5.2 46Z"/>
  <path fill="#A9DDF7" d="m19.6 46-1.06 11.16a2 2 0 0 1-2 1.81H8.42a2.08 2.08 0 0 1-2.07-1.87L5.74 51l-.2-2-.3-3H19.6Z"/>
  <path fill="#4DBDF5" fill-rule="evenodd" d="m19.41 49-.15 2H5.738l-.2-2h13.87Z" clip-rule="evenodd"/>
  <path fill="#001E60" d="M12.41 42.91A2.56 2.56 0 0 0 9.92 41H6.56l.59 2.34a2.56 2.56 0 0 0 2.5 2H13l-.59-2.43Zm2.18 0A2.56 2.56 0 0 1 17.08 41h3.36l-.59 2.34a2.56 2.56 0 0 1-2.5 2H14l.59-2.43ZM14 35.62h-1v9.34h1v-9.34Z"/>
  <path fill="#4DBDF5" fill-rule="evenodd" d="M13.56 35.09h-.44l-.15.16a1.23 1.23 0 0 1-.17.15c.027.146.027.295 0 .44.072.046.139.1.2.16l.15.16h.44l.14-.16.17-.15a2.431 2.431 0 0 1 0-.44l-.17-.15a1.072 1.072 0 0 1-.17-.17ZM9 33.81a1.9 1.9 0 0 0 0 3.62A1.9 1.9 0 0 0 11.52 40a2.08 2.08 0 0 0 1.82 1.33A2.05 2.05 0 0 0 15.15 40a1.9 1.9 0 0 0 2.56-2.57 1.901 1.901 0 0 0 0-3.62 1.9 1.9 0 0 0-2.56-2.57 2.05 2.05 0 0 0-1.81-1.33 2.08 2.08 0 0 0-1.82 1.33A1.9 1.9 0 0 0 9 33.81Z" clip-rule="evenodd"/>
  <path fill="#0053E2" d="M13.34 38.73a3.11 3.11 0 1 0 0-6.22 3.11 3.11 0 0 0 0 6.22Z"/>
  <path fill="#A9DDF7" d="M4 44.85h19V49H4v-4.15Z"/>
  <path fill="#0053E2" d="M60 24H14v3h46v-3Z"/>
  <path fill="#4DBDF5" d="M57 24H14v3h43v-3Z"/>
</svg>
