<svg xmlns="http://www.w3.org/2000/svg" width="64" height="64" fill="none" viewBox="0 0 64 64">
  <path fill="#001E60" d="M23.78 13.7a2.17 2.17 0 0 1 1.94-1.2H37.1a2.14 2.14 0 0 1 1.93 1.2l2.65 5.29H21.14l2.64-5.29Zm34.17 33.48a4.33 4.33 0 0 1-4.38 4.32h-9.19a4.32 4.32 0 0 1-4.32-4.32V22.82a4.32 4.32 0 0 1 4.32-4.32h9.19a4.33 4.33 0 0 1 4.38 4.32v24.36Z"/>
  <path fill="#0053E2" d="M57.95 47.18a4.33 4.33 0 0 1-4.38 4.32h-9.19a4.32 4.32 0 0 1-4.32-4.32V33.12a4.309 4.309 0 0 1 4.32-4.32h13.57v18.38Z"/>
  <path fill="#4DBDF5" d="M6 47.18a4.33 4.33 0 0 0 4.33 4.32H46a4.33 4.33 0 0 0 4.33-4.32V22.82A4.33 4.33 0 0 0 46 18.5H10.33A4.33 4.33 0 0 0 6 22.82v24.36Z"/>
  <path fill="#0053E2" d="M6 28.8h44.33v-6A4.33 4.33 0 0 0 46 18.5H10.33A4.33 4.33 0 0 0 6 22.82v5.98Z"/>
  <path fill="#4DBDF5" d="M10.46 17.31a.81.81 0 0 1 .81-.81h4.87a.81.81 0 0 1 .81.81v.38a.81.81 0 0 1-.81.81h-4.87a.81.81 0 0 1-.81-.81v-.38Z"/>
  <path fill="#A9DDF7" d="M9.95 17.31a.81.81 0 0 1 .81-.81h3.38a.81.81 0 0 1 .81.81v.38a.81.81 0 0 1-.81.81h-3.38a.81.81 0 0 1-.81-.81v-.38Z"/>
  <path fill="#0053E2" d="M20.54 13.7a2.17 2.17 0 0 1 1.94-1.2h10.3a2.16 2.16 0 0 1 1.93 1.2l2.65 5.29H17.95l2.59-5.29Zm4.41 10.23h4.33a11.9 11.9 0 0 1 0 23.79h-4.33V23.93Z"/>
  <path fill="#0053E2" d="M24.92 45.56c5.373 0 9.73-4.357 9.73-9.73 0-5.374-4.357-9.73-9.73-9.73a9.73 9.73 0 0 0-9.73 9.73c0 5.373 4.356 9.73 9.73 9.73Z"/>
  <path fill="#001E60" d="M26.31 44.5a8.51 8.51 0 1 0 0-17.02 8.51 8.51 0 0 0 0 17.02Z"/>
  <path fill="#A9DDF7" d="M24.95 47.5a11.51 11.51 0 1 1 8.13-3.37 11.429 11.429 0 0 1-8.13 3.37Zm0-21a9.5 9.5 0 1 0 9.5 9.5 9.51 9.51 0 0 0-9.5-9.5Z"/>
  <path fill="#fff" d="M23 35a2 2 0 1 0 0-4 2 2 0 0 0 0 4Z"/>
  <path fill="#A9DDF7" d="m41.95 14.5 2 6 5 2-5 2-2 6-2-6-5-2 5-2 2-6Z"/>
</svg>
