<svg xmlns="http://www.w3.org/2000/svg" width="64" height="64" fill="none" viewBox="0 0 64 64">
  <path fill="#001E60" fill-rule="evenodd" d="M38.88 22.442a15.36 15.36 0 0 1-1.82 7.27c-1.92 3.58-3.9 7.55-6.76 10.45a9.64 9.64 0 0 1-4.83 2.65 1.59 1.59 0 0 0-.9.52 1.29 1.29 0 0 0 .15 1.8l1.07.91a.68.68 0 0 1 .22.49v.35a.641.641 0 0 1-.64.64h-3.86a.642.642 0 0 1-.65-.64v-.35a.69.69 0 0 1 .23-.49l1.06-.91a1.28 1.28 0 0 0 .15-1.8 1.59 1.59 0 0 0-.9-.52 9.61 9.61 0 0 1-4.82-2.65c-2.86-2.9-4.85-6.87-6.76-10.45a15.44 15.44 0 1 1 29.06-7.27Z" clip-rule="evenodd"/>
  <path fill="#A9DDF7" d="M22.42 53.133a5.13 5.13 0 0 0-.33 3.87h-1a6.09 6.09 0 0 1 .46-4.28 12 12 0 0 0 1.39-5.2h.92a13 13 0 0 1-1.44 5.61Z"/>
  <path fill="#0053E2" fill-rule="evenodd" d="M20.86 37.233c7.46 0 13.51-7.2 13.51-16.08a17.09 17.09 0 0 0-5.94-13.33A15.46 15.46 0 0 0 8 22.443a15.36 15.36 0 0 0 1.82 7.27l.5.95 1 1.89a12.5 12.5 0 0 0 9.54 4.68Z" clip-rule="evenodd"/>
  <path fill="#A9DDF7" d="M24.98 43.652h-3v1h3v-1Z"/>
  <path fill="#0053E2" d="m54.31 28.702-2.28 20.54H37.78l-2.28-20.54h18.81Z"/>
  <path fill="#A9DDF7" d="M54.98 26.973H34.83c-.563 0-1.02.454-1.02 1.015 0 .56.457 1.015 1.02 1.015h20.15c.564 0 1.02-.455 1.02-1.015 0-.56-.456-1.015-1.02-1.015Z"/>
  <path fill="#0053E2" d="m54.31 32.612-2.28 20.55H37.78l-2.28-20.55h18.81Z"/>
  <path fill="#A9DDF7" d="M54.98 30.973H34.83c-.563 0-1.02.454-1.02 1.015 0 .56.457 1.015 1.02 1.015h20.15c.564 0 1.02-.455 1.02-1.015 0-.56-.456-1.015-1.02-1.015Z"/>
  <path fill="#0053E2" d="m54.31 36.442-2.18 19.61a1.06 1.06 0 0 1-1 .94H38.72a1.06 1.06 0 0 1-1-.94l-2.22-19.61h18.81Z"/>
  <path fill="#4DBDF5" d="m52.74 36.442-2.18 19.61a1.06 1.06 0 0 1-1 .94h-10.8a1.06 1.06 0 0 1-1-.94l-.51-4.6-1-8.53-.72-6.48h17.21Z"/>
  <path fill="#001E60" d="m53.2 46.402-1 9.18a4.748 4.748 0 0 1-1.48-.77l.89-8a4.783 4.783 0 0 1 1.59-.41Zm1.11-9.96-.48 4.31a4.591 4.591 0 0 1-1.7 1.14l.61-5.45h1.57Z"/>
  <path fill="#0053E2" d="m52.74 36.442-.61 5.45a4.55 4.55 0 0 1-1.7.32 4.71 4.71 0 0 1-4.58-5.77h6.89Zm-9.45 10.561a4.7 4.7 0 0 1-6.12 4.48l-1-8.53a4.69 4.69 0 0 1 7.07 4l.05.05Zm8.3-.181-.89 8a4.661 4.661 0 0 1-1.84-3.72 4.71 4.71 0 0 1 2.73-4.28Z"/>
  <path fill="#A9DDF7" d="M54.98 34.973H34.83c-.563 0-1.02.454-1.02 1.015 0 .56.457 1.015 1.02 1.015h20.15c.564 0 1.02-.455 1.02-1.015 0-.56-.456-1.015-1.02-1.015Z"/>
</svg>
