<svg xmlns="http://www.w3.org/2000/svg" width="64" height="64" fill="none" viewBox="0 0 64 64">
  <path fill="#001E60" d="M13 23h-2v6h2v-6Z"/>
  <path fill="#0053E2" d="M16 7H8a3 3 0 0 0-3 3v7.21a3.06 3.06 0 0 0 .37 1.45l1.56 2.81A3 3 0 0 0 9.54 23h4.92a3 3 0 0 0 2.61-1.54l1.56-2.81A3.06 3.06 0 0 0 19 17.2V10a3 3 0 0 0-3-3ZM9 18.5a.5.5 0 0 1-1 0v-8a.5.5 0 0 1 1 0v8Zm3.5 0a.5.5 0 0 1-1 0v-8a.5.5 0 0 1 1 0v8Zm3.5 0a.5.5 0 0 1-1 0v-8a.5.5 0 0 1 1 0v8Z"/>
  <path fill="#4DBDF5" d="M10.95 28h2.1A1.95 1.95 0 0 1 15 30v21.71H9V30a1.95 1.95 0 0 1 1.95-2Z"/>
  <path fill="#0053E2" d="M15 30v21.71h-2V30a2 2 0 0 0-1.95-2h2A2 2 0 0 1 15 30Z"/>
  <path fill="#001E60" d="M35.05 17.09A1.781 1.781 0 0 1 36.8 15h3.44A1.77 1.77 0 0 1 42 17.09l-.58 3.23h-5.76l-.61-3.23Z"/>
  <path fill="#001E60" fill-rule="evenodd" d="M28.6 56.06A10.6 10.6 0 0 1 18 45.46V32.74h41v12.72a10.6 10.6 0 0 1-10.6 10.6H28.6Z" clip-rule="evenodd"/>
  <path fill="#0053E2" fill-rule="evenodd" d="M18 32.7v12.74a10.62 10.62 0 0 0 10.62 10.62H43a10.61 10.61 0 0 0 10.62-10.62V32.7H18Z" clip-rule="evenodd"/>
  <path fill="#001E60" d="M18 30.64A10.64 10.64 0 0 1 28.64 20h19.72A10.64 10.64 0 0 1 59 30.64v1.77H18v-1.77Z"/>
  <path fill="#0053E2" d="M18 30.63A10.62 10.62 0 0 1 28.62 20H43a10.61 10.61 0 0 1 10.62 10.62v1.77H18v-1.76Z"/>
  <path fill="#001E60" d="M59 31H18v2h41v-2Zm-37.49 7.25h6.38a5.75 5.75 0 0 1 5.5 4.07l4.21 13.74H21.51V38.25Z"/>
  <path fill="#4DBDF5" fill-rule="evenodd" d="M26.25 36H5v15.47a4.59 4.59 0 0 0 4.6 4.59h12.06a4.58 4.58 0 0 0 4.59-4.59V51l4.77-2.8a5.51 5.51 0 0 0 2.7-4.73A5.48 5.48 0 0 0 28.24 38h-2l.01-2Zm0 4.3v8l3.61-2.11a3.21 3.21 0 0 0 1.57-2.75 3.18 3.18 0 0 0-3.19-3.18l-1.99.04Z" clip-rule="evenodd"/>
  <path fill="#A9DDF7" d="M5 36h17.23v15.47a4.58 4.58 0 0 1-4.59 4.59h-8a4.59 4.59 0 0 1-4.6-4.59L5 36Z"/>
  <path fill="#0053E2" d="M35.05 17.08A1.77 1.77 0 0 1 36.79 15h1a1.78 1.78 0 0 1 1.75 2.08L39 20.32h-3.33l-.62-3.24Z"/>
</svg>
