<svg xmlns="http://www.w3.org/2000/svg" width="64" height="64" fill="none" viewBox="0 0 64 64">
  <path fill="#001E60" fill-rule="evenodd" d="M46.51 13.28h-2.26v1.62a6.73 6.73 0 0 1-.66 2.74 6 6 0 0 0-.47 2.42c0 2.19 1 4 2.26 4 1.26 0 2.26-1.77 2.26-4a6 6 0 0 0-.48-2.42 6.722 6.722 0 0 1-.65-2.74v-1.62Z" clip-rule="evenodd"/>
  <path fill="#4DBDF5" fill-rule="evenodd" d="M45.51 13.28h-2v1.62a6.731 6.731 0 0 1-.66 2.74 6 6 0 0 0-.47 2.42c0 2.19 1 4 2.26 4 1.26 0 2-1.77 2-4a6 6 0 0 0-.48-2.42 6.879 6.879 0 0 1-.65-2.74v-1.62Z" clip-rule="evenodd"/>
  <path fill="#001E60" d="M46.51 13.5h-3v1h3v-1Z"/>
  <path fill="#4DBDF5" d="M52.52 6.5H37.51v6h15.01v-6Z"/>
  <path fill="#fff" d="M51.51 8.5h-13v1h13v-1Z"/>
  <path fill="#001E60" d="M51.51 11.5h-13v1h13v-1Z"/>
  <path fill="#A9DDF7" d="M52 11H39v1h13v-1Z"/>
  <path fill="#001E60" d="M40.51 12.5h10a1 1 0 0 1-1 1h-8a1 1 0 0 1-1-1Z"/>
  <path fill="#4DBDF5" d="M39.51 12.5h10a1 1 0 0 1-1 1h-8a1 1 0 0 1-1-1Z"/>
  <path fill="#A9DDF7" d="m33.417 6.56-2.966.45 1.198 7.91 2.966-.45-1.198-7.91Z"/>
  <path fill="#001E60" d="m31.749 15.621 2.576 4.402.145.248 1.393 9.174-2.966.45-1.307-8.606-2.574-4.401-.146-.248-1.393-9.185 2.966-.45 1.306 8.616Z"/>
  <path fill="#001E60" d="M29.51 18.5h26l-3.9 35.1a4.34 4.34 0 0 1-4.31 3.9h-9.58a4.34 4.34 0 0 1-4.31-3.86l-3.9-35.14Z"/>
  <path fill="#0053E2" d="M26.51 18.5h26l-3.9 35.1a4.34 4.34 0 0 1-4.31 3.9h-9.58a4.34 4.34 0 0 1-4.31-3.86l-3.9-35.14Z"/>
  <path fill="#001E60" d="M29.08 35.36 40.51 57.5h-6.3a2.93 2.93 0 0 1-2.91-2.6l-2.22-19.54ZM53.51 6.5h-.99v6h.99v-6Z"/>
  <path fill="#A9DDF7" d="M13.94 35.42 9.2 51.5a4.65 4.65 0 0 0 4.46 6h15.79a4.66 4.66 0 0 0 4.46-6l-4.83-16.1a2.68 2.68 0 0 0-2.57-1.9h-10a2.69 2.69 0 0 0-2.57 1.92Zm9.72-13.92h-4.27v7.08h4.27V21.5Z"/>
  <path fill="#4DBDF5" d="M23.67 21.5h-1.15v7.08h1.15V21.5Z"/>
  <path fill="#4DBDF5" d="M23.66 23.05h-4.27v1.45h4.27v-1.45Z"/>
  <path fill="#A9DDF7" d="m13.701 25.34-1.41-1.42 2.41-2.41h10.81v2h-9.98l-1.83 1.83Z"/>
  <path fill="#001E60" d="M16.51 33.5h10v-3.13a2.86 2.86 0 0 0-2.87-2.87h-4.25a2.86 2.86 0 0 0-2.88 2.87v3.13Z"/>
  <path fill="#0053E2" d="M16.51 33.5h8v-3.13a2.87 2.87 0 0 0-2.86-2.87h-2.26a2.86 2.86 0 0 0-2.88 2.87v3.13Z"/>
  <path fill="#4DBDF5" d="M29.38 55.5H13.74a2.881 2.881 0 0 1-2.76-3.69l2.75-9.31a19 19 0 0 1 7.13 2.8 24.17 24.17 0 0 0 10.41 3.62l.86 2.88a2.88 2.88 0 0 1-2.75 3.7Z"/>
</svg>
