<svg xmlns="http://www.w3.org/2000/svg" width="64" height="64" fill="none" viewBox="0 0 64 64">
  <path fill="#4DBDF5" fill-rule="evenodd" d="M50.5 19.383c0 3.78-4.48 6.85-10 6.85a14.068 14.068 0 0 1-3.09-.34 9.22 9.22 0 0 1-6.31-4.16 1.546 1.546 0 0 1-.12-.22 4.207 4.207 0 0 1-.18-.45.16.16 0 0 1 0-.09c0-.1-.07-.21-.1-.31a1.202 1.202 0 0 1 0-.18.13.13 0 0 0 0-.06 1.693 1.693 0 0 1-.06-.31 2.481 2.481 0 0 1 0-.27 3.53 3.53 0 0 1 0-.46c-.01-.18-.01-.36 0-.54.34-2.81 3.15-5.14 7-6 .12 0 .37-.06.63-.1a1.12 1.12 0 0 0 .872-1.633 1.15 1.15 0 0 0-.352-.407l-.09-.06a3.159 3.159 0 0 1-1.17-2.45 3.17 3.17 0 0 1 2.1-3 3.18 3.18 0 0 1 4.21 2.37 3.17 3.17 0 0 1-1.34 3.09l-.08.06a1.2 1.2 0 0 0-.54.93c0 .55.42.9 1 1.06l.63.15c4.05.88 6.99 3.47 6.99 6.53Z" clip-rule="evenodd"/>
  <path fill="#A9DDF7" fill-rule="evenodd" d="M46.89 19.353c-.27 3.65-3.67 6.63-8.21 6.63a9.26 9.26 0 0 1-1.29-.09h-.2l-.72-.19-.41-.13a9.83 9.83 0 0 1-1-.4l-.51-.25a8.27 8.27 0 0 1-2.84-2.29 1.999 1.999 0 0 1-.17-.23 4.865 4.865 0 0 1-.39-.65 1.54 1.54 0 0 1-.12-.22 4.2 4.2 0 0 1-.18-.45.16.16 0 0 1 0-.09c0-.1-.07-.21-.1-.31v-.18a.13.13 0 0 0 0-.06 1.271 1.271 0 0 1-.06-.55 3.566 3.566 0 0 1 0-.46c-.01-.18-.01-.36 0-.54.34-2.81 3.15-5.14 7-6 .12 0 .37-.06.63-.1a1.12 1.12 0 0 0 .871-1.633 1.15 1.15 0 0 0-.352-.407l-.09-.06a3.16 3.16 0 0 1-1.17-2.45 2.66 2.66 0 0 1 2.43-2.79 2.71 2.71 0 0 1 2.4 2.73 2.9 2.9 0 0 1-1 2.38l-.23.22a1.19 1.19 0 0 0 .39 2c2.93 1.23 5.58 3.23 5.32 6.57Z" clip-rule="evenodd"/>
  <path fill="#4DBDF5" d="M52.5 27.014v26.06a4.94 4.94 0 0 1-4.94 4.94H33.5a4.94 4.94 0 0 1-5-4.94v-26.06h24Z"/>
  <path fill="#A9DDF7" d="M49.5 26.783v26.23a5 5 0 0 1-5 5h-11a5 5 0 0 1-5-5v-26.26l21 .03Z"/>
  <path fill="#0053E2" d="M52.44 35.014H43.5v2h8.94v-2Z"/>
  <path fill="#4DBDF5" d="M50.85 27.264H28.5v2.76h22.35v-2.76Z"/>
  <path fill="#001E60" stroke="#001E60" d="M28.5 22.514h24a1.5 1.5 0 0 1 1.5 1.5v2a1.5 1.5 0 0 1-1.5 1.5h-24a1.5 1.5 0 0 1-1.5-1.5v-2a1.5 1.5 0 0 1 1.5-1.5Z"/>
  <path fill="#001E60" d="M50.5 19.014a2 2 0 0 1 2 2v1.76a2 2 0 0 1-2 2h-20a2 2 0 0 1-2-2v-1.76a2 2 0 0 1 2-2h20Z"/>
  <path fill="#0053E2" d="M47.5 19.014a2 2 0 0 1 2 2v1.77a2 2 0 0 1-2 2h-17a2 2 0 0 1-2-2v-1.77a2 2 0 0 1 2-2h17Z"/>
  <path fill="#0053E2" d="M49.77 22.014a1.73 1.73 0 0 1 1.73 1.68v2.59a1.718 1.718 0 0 1-1.73 1.73H28.23a1.72 1.72 0 0 1-1.73-1.73v-2.59a1.73 1.73 0 0 1 1.73-1.68h21.54Zm-30.27 33a7.1 7.1 0 0 1-7.09-7.08 6.999 6.999 0 0 1 7.09-6.92v-3a10 10 0 1 0 0 20v-3Z"/>
  <path fill="#001E60" d="M19.5 41.014a7.1 7.1 0 0 1 7.09 7.08 7 7 0 0 1-7.09 6.92v3a10 10 0 0 0 0-20v3Z"/>
  <path fill="#0053E2" d="M15.5 37.014h8v2a3 3 0 0 1-3 3h-2a3 3 0 0 1-3-3v-2Z"/>
  <path fill="#001E60" d="M23.5 36.733h-8v1.29h8v-1.29Z"/>
  <path fill="#4DBDF5" fill-rule="evenodd" d="M17.09 33.093a1.62 1.62 0 0 0 .09-2.41 3.24 3.24 0 0 1-.9-3 3.27 3.27 0 0 1 2.62-2.59 3.29 3.29 0 0 1 3.9 3.24 3.298 3.298 0 0 1-1 2.34 1.61 1.61 0 0 0 .1 2.4l.62.52h-6l.57-.5Z" clip-rule="evenodd"/>
  <path fill="#001E60" d="M11.5 35.014a2 2 0 0 1 2-2h12a2 2 0 0 1 0 4h-12a2 2 0 0 1-2-2Z"/>
  <path fill="#0053E2" d="M11.5 35.014a2 2 0 0 1 2-2h10a2 2 0 0 1 0 4h-10a2 2 0 0 1-2-2Z"/>
  <path fill="#A9DDF7" d="M18.42 29.863c.79 0 1.43-.792 1.43-1.77 0-.977-.64-1.77-1.43-1.77-.79 0-1.43.793-1.43 1.77 0 .978.64 1.77 1.43 1.77Z"/>
  <path fill="#001E60" d="M52.5 35.014h-3v2h3v-2Z"/>
  <path fill="#0053E2" d="M52.44 40.014H43.5v2h8.94v-2Z"/>
  <path fill="#001E60" d="M52.5 40.014h-3v2h3v-2Z"/>
  <path fill="#0053E2" d="M52.44 45.014H43.5v2h8.94v-2Z"/>
  <path fill="#001E60" d="M52.5 45.014h-3v2h3v-2Z"/>
</svg>
