<svg xmlns="http://www.w3.org/2000/svg" width="64" height="64" fill="none" viewBox="0 0 64 64">
  <path fill="#4DBDF5" d="M54.32 52h-1.89a.26.26 0 0 1-.24-.19l-1.17-4.4h2.42l1.13 4.27a.26.26 0 0 1-.25.32Z"/>
  <path fill="#001E60" d="M52.37 52h-.83a.27.27 0 0 1-.25-.19l-1.16-4.4h1.36l1.13 4.27a.26.26 0 0 1-.25.32Z"/>
  <path fill="#0053E2" d="M47.67 52h1.56a.26.26 0 0 0 .24-.19l1.17-4.4h-2.09l-1.13 4.27a.26.26 0 0 0 .25.32Z"/>
  <path fill="#4DBDF5" d="M46.25 52h1.5a.26.26 0 0 0 .24-.19l1.17-4.4h-2L46 51.68a.26.26 0 0 0 .25.32Z"/>
  <path fill="#0053E2" d="M58.85 12H20.06a1.15 1.15 0 0 0-1.15 1.15v33.7c0 .635.515 1.15 1.15 1.15h38.79A1.15 1.15 0 0 0 60 46.85v-33.7A1.15 1.15 0 0 0 58.85 12Z"/>
  <path fill="#4DBDF5" d="M7 13.15A1.14 1.14 0 0 1 8.15 12h49.56a1.14 1.14 0 0 1 1.14 1.15v33.7A1.14 1.14 0 0 1 57.71 48H8.15A1.14 1.14 0 0 1 7 46.85v-33.7Z"/>
  <path fill="#001E60" d="M57 14H8.82v32H57V14Z"/>
  <mask id="a" width="50" height="32" x="8" y="14" maskUnits="userSpaceOnUse" style="mask-type:luminance">
    <path fill="#fff" d="M57 14H8.82v32H57V14Z"/>
  </mask>
  <g mask="url(#a)">
    <path fill="#0053E2" fill-rule="evenodd" d="M32.41 14h6.32l18.45 19.46v6.67L32.41 14Zm-9.78 0h4.71l29.84 32v.15h-4.57l-30-32.09.02-.06Zm34.55 18.06L40.37 14h2.35l14.46 15.53v2.53Z" clip-rule="evenodd"/>
  </g>
  <path fill="#0053E2" d="M18.1 29.63h-4.88a1.86 1.86 0 0 0-1.86 1.86v18.65A1.86 1.86 0 0 0 13.22 52h4.88a1.86 1.86 0 0 0 1.86-1.86V31.49a1.86 1.86 0 0 0-1.86-1.86Z"/>
  <path fill="#4DBDF5" d="M14.18 29.63H5.86A1.86 1.86 0 0 0 4 31.49v18.65A1.86 1.86 0 0 0 5.86 52h8.32a1.86 1.86 0 0 0 1.86-1.86V31.49a1.86 1.86 0 0 0-1.86-1.86Z"/>
  <path fill="#0053E2" fill-rule="evenodd" d="M10 40a4 4 0 1 0-3.73-4A3.88 3.88 0 0 0 10 40Zm0 9.75a4 4 0 1 0-3.73-4A3.88 3.88 0 0 0 10 49.71v.04Zm2.58-13.77A2.59 2.59 0 1 1 10 33.11a2.74 2.74 0 0 1 2.6 2.83l-.02.04ZM10 48.56a2.89 2.89 0 1 0-2.58-2.87A2.74 2.74 0 0 0 10 48.56Z" clip-rule="evenodd"/>
  <path fill="#0053E2" d="M10.02 47.41c.79 0 1.43-.77 1.43-1.72s-.64-1.72-1.43-1.72c-.79 0-1.43.77-1.43 1.72s.64 1.72 1.43 1.72Zm0-9.75c.79 0 1.43-.77 1.43-1.72s-.64-1.72-1.43-1.72c-.79 0-1.43.77-1.43 1.72s.64 1.72 1.43 1.72Zm4.02 13.19a.86.86 0 1 0 0-1.72.86.86 0 0 0 0 1.72Z"/>
</svg>
