<svg xmlns="http://www.w3.org/2000/svg" width="64" height="64" fill="none" viewBox="0 0 64 64">
  <path fill="#001E60" d="M48 24.57V12H16v12.57h32Z"/>
  <path fill="#0053E2" d="M46 24.57V12H16v12.57h30Z"/>
  <path fill="#001E60" d="M56 41.14V28.57H8v12.57h48Z"/>
  <path fill="#0053E2" d="M54 41.14V28.57H8v12.57h46Z"/>
  <path fill="#4DBDF5" fill-rule="evenodd" d="M23.21 9H15v2.34a4.69 4.69 0 0 0 7.07 4.01 4.68 4.68 0 0 0 1.72-1.77A4.7 4.7 0 0 0 27.9 16a4.7 4.7 0 0 0 4.1-2.42A4.7 4.7 0 0 0 36.1 16a4.7 4.7 0 0 0 4.11-2.42 4.68 4.68 0 0 0 4.1 2.42A4.69 4.69 0 0 0 49 11.31V9H23.21Zm-8.07 15.51H7v2.33a4.65 4.65 0 0 0 8.72 2.25 4.65 4.65 0 0 0 8.14 0 4.65 4.65 0 0 0 8.14 0 4.65 4.65 0 0 0 8.14 0 4.65 4.65 0 0 0 8.14 0A4.65 4.65 0 0 0 57 26.84v-2.33H15.14Z" clip-rule="evenodd"/>
  <path fill="#4DBDF5" d="M4 41h56a5 5 0 0 1-5 5H9a5 5 0 0 1-5-5Z"/>
  <path fill="#001E60" d="M24.44 56H40a3.33 3.33 0 0 0-3.33-3.33h-1A1.631 1.631 0 0 1 34 51v-5h-2.89v4.89a1.781 1.781 0 0 1-1.78 1.78h-1.55A3.34 3.34 0 0 0 24.44 56Z"/>
  <path fill="#0053E2" fill-rule="evenodd" d="M27.33 52.67A3.33 3.33 0 0 0 24 56h13.89a3.33 3.33 0 0 0-3.33-3.33H34a1.48 1.48 0 0 1-1.48-1.48V46H30v5a1.63 1.63 0 0 1-1.63 1.63h-1l-.04.04Z" clip-rule="evenodd"/>
  <path fill="#A9DDF7" d="M57 24H7v2h50v-2ZM49 8H15v2h34V8ZM4 41h49a5 5 0 0 1-5 5H9a5 5 0 0 1-5-5Z"/>
</svg>
