<svg xmlns="http://www.w3.org/2000/svg" width="64" height="64" fill="none" viewBox="0 0 64 64">
  <path fill="#001E60" d="M40 23.96h-2V29h2v-5.04Z"/>
  <path fill="#4DBDF5" d="M30.48 6h17a2 2 0 0 1 1.93 1.48L55 27H23l5.55-19.52A2 2 0 0 1 30.48 6Z"/>
  <path fill="#A9DDF7" d="M30.48 6h15a2.41 2.41 0 0 1 2.33 1.82L52.92 27H23l5.55-19.52A2 2 0 0 1 30.48 6Z"/>
  <path fill="#0053E2" fill-rule="evenodd" d="m51.27 40.57-4.18 15.61A2.45 2.45 0 0 1 44.72 58H33.25a2.45 2.45 0 0 1-2.37-1.82l-2.25-8.4-1.94-7.21A7.169 7.169 0 0 1 32 31.72v-1.49A1.23 1.23 0 0 1 33.21 29h11.55A1.22 1.22 0 0 1 46 30.23v1.49a7.16 7.16 0 0 1 5.27 8.85Z" clip-rule="evenodd"/>
  <path fill="#001E60" fill-rule="evenodd" d="m51.27 40.57-4.18 15.61A2.45 2.45 0 0 1 44.72 58h-3.31c1.11 0 2.93-.74 3.21-1.82l4.19-15.61a7.172 7.172 0 0 0-5.29-8.85v-1.49c0-.68-1.4-1.23-2.07-1.23h3.31A1.22 1.22 0 0 1 46 30.23v1.49a7.16 7.16 0 0 1 5.27 8.85Z" clip-rule="evenodd"/>
  <path fill="#001E60" d="M37.1 58h-3.83a2.52 2.52 0 0 1-2.44-1.87l-2.33-8.66L31.64 44l5.46 14ZM25.4 37.68h-9.46v5.33h9.46v-5.33Z"/>
  <path fill="#001E60" d="M19.75 31.37a1.09 1.09 0 0 1 1.85 0 9.842 9.842 0 0 1 1.56 5 9.8 9.8 0 0 1-1.56 5 1.09 1.09 0 0 1-1.85 0 9.89 9.89 0 0 1-1.56-5 9.929 9.929 0 0 1 1.56-5Z"/>
  <path fill="#001E60" d="M26.851 32.84a1.08 1.08 0 0 1 1.47 1 7.46 7.46 0 0 1-1 4.38 7.43 7.43 0 0 1-3.6 2.68 1.08 1.08 0 0 1-1.47-1 7.43 7.43 0 0 1 1-4.37 7.46 7.46 0 0 1 3.6-2.69Zm-12.341 0a1.089 1.089 0 0 0-1.48 1 7.46 7.46 0 0 0 1 4.38 7.43 7.43 0 0 0 3.6 2.68 1.08 1.08 0 0 0 1.47-1 7.43 7.43 0 0 0-1-4.37 7.48 7.48 0 0 0-3.59-2.69Z"/>
  <path fill="#001E60" d="M30.51 38.25a1.091 1.091 0 0 1 .71 1.59 8.17 8.17 0 0 1-3.54 3.47c-2.87 1.27-6.24-.1-6.24-.1s1.26-3.41 4.12-4.68a8.1 8.1 0 0 1 4.95-.28Zm-19.67 0a1.08 1.08 0 0 0-.7 1.59 8.14 8.14 0 0 0 3.53 3.47 8.11 8.11 0 0 0 5 .29 1.09 1.09 0 0 0 .71-1.6 8.17 8.17 0 0 0-3.54-3.47 8.1 8.1 0 0 0-5-.28Z"/>
  <path fill="#4DBDF5" d="M32.35 48c.004 3.061-1.2 6-3.35 8.18A6.17 6.17 0 0 1 24.56 58h-7.77a6.17 6.17 0 0 1-4.39-1.82A11.63 11.63 0 0 1 9 48a11.57 11.57 0 0 1 1.63-6h20.09a11.57 11.57 0 0 1 1.63 6Z"/>
  <path fill="#A9DDF7" d="M30 48a11.631 11.631 0 0 1-3.4 8.23A6.169 6.169 0 0 1 22.21 58h-5.42a6.17 6.17 0 0 1-4.39-1.82A11.63 11.63 0 0 1 9 48a11.57 11.57 0 0 1 1.63-6h17.74A11.57 11.57 0 0 1 30 48Z"/>
</svg>
