<svg xmlns="http://www.w3.org/2000/svg" width="64" height="64" fill="none" viewBox="0 0 64 64">
  <path fill="#4DBDF5" fill-rule="evenodd" d="M60 46.93c0 4.69-4.88 8.84-11 8.84H34.7V10.38c2.92 0 5.84.54 7.35 1.73a4.58 4.58 0 1 1 4.86 6.39 5.71 5.71 0 0 1 2.26 8.54l3.6-1.68a5.073 5.073 0 0 1 7.176 6.027 5.072 5.072 0 0 1-2.497 2.973L49.1 39.2l.57 5.15s2.62-2.14 5-2.29a4.54 4.54 0 0 1 3.79 1.15A4.911 4.911 0 0 1 60 46.93Z" clip-rule="evenodd"/>
  <path fill="#A9DDF7" fill-rule="evenodd" d="M51.43 45.83c-1.88 1.79-2.4 4.3-1.16 5.61 1.24 1.31 3.78.92 5.67-.88 1.89-1.8 2.39-4.3 1.15-5.61-1.24-1.31-3.78-.91-5.66.88Z" clip-rule="evenodd"/>
  <path fill="#4DBDF5" fill-rule="evenodd" d="M18.59 46.14c-1.88-1.79-4.42-2.18-5.66-.87-1.24 1.31-.73 3.82 1.15 5.61 1.88 1.79 4.41 2.18 5.66.88 1.25-1.3.73-3.82-1.15-5.62Z" clip-rule="evenodd"/>
  <path fill="#001E60" d="M41.72 19.01a1.37 1.37 0 1 1-1.37 1.36 1.36 1.36 0 0 1 1.37-1.36Zm-14 0a1.37 1.37 0 1 1-1.36 1.36 1.361 1.361 0 0 1 1.36-1.36Z"/>
  <path fill="#fff" d="M34.72 17.91v13.13a5.38 5.38 0 0 1-5.47-5.25c0-2.9 2.45-7.87 5.47-7.88Z"/>
  <path fill="#A9DDF7" d="M40.19 25.75A5.359 5.359 0 0 1 34.72 31V17.91c3.02 0 5.47 4.98 5.47 7.84Z"/>
  <path fill="#fff" d="M34.72 32.48v18.4a8.19 8.19 0 0 1-8-9.79l.48-2.42a7.7 7.7 0 0 1 7.52-6.19Z"/>
  <path fill="#A9DDF7" d="M34.72 50.88v-18.4a7.7 7.7 0 0 1 7.55 6.19l.48 2.42a8.19 8.19 0 0 1-8.03 9.79Z"/>
  <path fill="#A9DDF7" fill-rule="evenodd" d="M48.93 14.14a2.63 2.63 0 0 1-1.69 2.3.71.71 0 0 1-.92-.42 5.52 5.52 0 0 0-2-2.63.71.71 0 0 1-.15-1 2.639 2.639 0 0 1 4.74 1.75h.02Z" clip-rule="evenodd"/>
  <path fill="#fff" fill-rule="evenodd" d="M21 14.14a2.63 2.63 0 0 0 1.68 2.3.72.72 0 0 0 .93-.42 5.59 5.59 0 0 1 2-2.63.7.7 0 0 0 .16-1 2.639 2.639 0 0 0-4.74 1.75H21Z" clip-rule="evenodd"/>
  <path fill="#0053E2" d="M33.554 12.126c.68-.265.916-1.285.529-2.278-.388-.993-1.252-1.583-1.931-1.318-.68.265-.916 1.285-.529 2.278.388.993 1.252 1.583 1.931 1.318Zm4.503-1.316c.388-.993.151-2.013-.528-2.278-.68-.265-1.544.325-1.931 1.318-.387.993-.15 2.013.528 2.278.68.265 1.544-.325 1.931-1.318Z"/>
  <path fill="#0053E2" fill-rule="evenodd" d="M34.72 7.75v3.85c-.68-.09-1.2-.92-1.2-1.93 0-1.01.48-1.82 1.2-1.92Zm1.44 1.93c0 1.07-.59 1.93-1.32 1.93h-.12V7.75h.12c.73 0 1.32.86 1.32 1.93Z" clip-rule="evenodd"/>
  <path fill="#212A5B" d="M34.72 27.84a4.59 4.59 0 0 1-2.68-.85l.43-.61a3.88 3.88 0 0 0 4.5 0l.43.61a4.57 4.57 0 0 1-2.68.85Z"/>
  <path fill="#A9DDF7" fill-rule="evenodd" d="M53.48 26.97c-1.65.77-.86 2-.09 3.67s1.22 3.06 2.87 2.29a3.306 3.306 0 1 0-2.78-6v.04Z" clip-rule="evenodd"/>
  <path stroke="#E40017" stroke-miterlimit="10" d="M37.79 22.07c0 1.09-1.22 3-2.73 3s-2.74-1.86-2.74-3 1.23-2 2.74-2c1.51 0 2.73.88 2.73 2Z"/>
  <path fill="#0053E2" fill-rule="evenodd" d="M60 46.93c0 4.69-4.88 8.84-11 8.84H34.7V10.38c2.92 0 5.84.54 7.35 1.73a4.58 4.58 0 1 1 4.86 6.39 5.71 5.71 0 0 1 2.26 8.54l3.6-1.68a5.073 5.073 0 0 1 7.176 6.027 5.072 5.072 0 0 1-2.497 2.973L49.1 39.2l.57 5.15s2.62-2.14 5-2.29a4.54 4.54 0 0 1 3.79 1.15A4.911 4.911 0 0 1 60 46.93Z" clip-rule="evenodd"/>
  <path fill="#0053E2" fill-rule="evenodd" d="M27.61 12.1a4.58 4.58 0 1 0-4.87 6.39 5.749 5.749 0 0 0-2.26 8.56l-3.37-1.59a5.19 5.19 0 0 0-7.44 4.58 5.05 5.05 0 0 0 2.53 4.28l8.35 4.84-.57 5.16-2.11-1.41a5.25 5.25 0 0 0-2.92-.89h-.13a4.44 4.44 0 0 0-4.45 4.08 5 5 0 0 0 .65 3.41l2.31 3.07c.16.21.33.4.49.59 1.52 1.65 5.91 2.6 5.91 2.6h15V10.38c-2.73.04-5.52.61-7.12 1.72Z" clip-rule="evenodd"/>
  <path fill="#4DBDF5" fill-rule="evenodd" d="M51.43 45.83c-1.88 1.79-2.4 4.3-1.16 5.61 1.24 1.31 3.78.92 5.67-.88 1.89-1.8 2.39-4.3 1.15-5.61-1.24-1.31-3.78-.91-5.66.88Z" clip-rule="evenodd"/>
  <path fill="#001E60" d="M41.72 19.01a1.37 1.37 0 1 1-1.37 1.36 1.36 1.36 0 0 1 1.37-1.36Zm-14 0a1.37 1.37 0 1 1-1.36 1.36 1.361 1.361 0 0 1 1.36-1.36Z"/>
  <path fill="#fff" d="M34.72 17.91v13.13a5.38 5.38 0 0 1-5.47-5.25c0-2.9 2.45-7.87 5.47-7.88Z"/>
  <path fill="#A9DDF7" d="M40.19 25.75A5.359 5.359 0 0 1 34.72 31V17.91c3.02 0 5.47 4.98 5.47 7.84Z"/>
  <path fill="#fff" d="M34.72 32.48v18.4a8.19 8.19 0 0 1-8-9.79l.48-2.42a7.7 7.7 0 0 1 7.52-6.19Z"/>
  <path fill="#A9DDF7" d="M34.72 50.88v-18.4a7.7 7.7 0 0 1 7.55 6.19l.48 2.42a8.19 8.19 0 0 1-8.03 9.79Z"/>
  <path fill="#4DBDF5" fill-rule="evenodd" d="M48.93 14.14a2.63 2.63 0 0 1-1.69 2.3.71.71 0 0 1-.92-.42 5.52 5.52 0 0 0-2-2.63.71.71 0 0 1-.15-1 2.639 2.639 0 0 1 4.74 1.75h.02Zm-27.93 0a2.63 2.63 0 0 0 1.68 2.3.72.72 0 0 0 .93-.42 5.59 5.59 0 0 1 2-2.63.7.7 0 0 0 .16-1 2.639 2.639 0 0 0-4.74 1.75H21Z" clip-rule="evenodd"/>
  <path fill="#0053E2" d="M33.554 12.126c.68-.265.916-1.285.529-2.278-.388-.993-1.252-1.583-1.931-1.318-.68.265-.916 1.285-.529 2.278.388.993 1.252 1.583 1.931 1.318Zm4.503-1.316c.388-.993.151-2.013-.528-2.278-.68-.265-1.544.325-1.931 1.318-.387.993-.15 2.013.528 2.278.68.265 1.544-.325 1.931-1.318Z"/>
  <path fill="#0053E2" fill-rule="evenodd" d="M34.72 7.75v3.85c-.68-.09-1.2-.92-1.2-1.93 0-1.01.48-1.82 1.2-1.92Zm1.44 1.93c0 1.07-.59 1.93-1.32 1.93h-.12V7.75h.12c.73 0 1.32.86 1.32 1.93Z" clip-rule="evenodd"/>
  <path fill="#001E60" d="M34.72 27.84a4.59 4.59 0 0 1-2.68-.85l.43-.61a3.88 3.88 0 0 0 4.5 0l.43.61a4.57 4.57 0 0 1-2.68.85Z"/>
  <path fill="#4DBDF5" fill-rule="evenodd" d="M16.28 26.97c1.65.77.86 2 .09 3.67s-1.22 3.06-2.87 2.29a3.306 3.306 0 1 1 2.78-6v.04Zm37.2 0c-1.65.77-.86 2-.09 3.67s1.22 3.06 2.87 2.29a3.306 3.306 0 1 0-2.78-6v.04Z" clip-rule="evenodd"/>
  <path fill="#0053E2" d="M37.45 22.07c0 1.09-1.22 3-2.73 3s-2.73-1.86-2.73-3 1.22-2 2.73-2 2.73.88 2.73 2Z"/>
  <path fill="#001E60" d="M37.45 22.07c0-1.09-1.22-2-2.73-2v4.92c1.51 0 2.73-1.86 2.73-3M23.02 56.25a2.67 2.67 0 1 0 0-5.34 2.67 2.67 0 0 0 0 5.34Zm-10.67 0a2.67 2.67 0 1 0 0-5.34 2.67 2.67 0 0 0 0 5.34Z"/>
  <path fill="#4DBDF5" d="M6.66 49.09v2.93a1.65 1.65 0 0 0 1.64 1.64h18.86a1.64 1.64 0 0 0 1.64-1.64v-2.08a1.39 1.39 0 0 0-1-1.36l-.84-.22-2.57-.69a1.24 1.24 0 0 1-.91-1 7.16 7.16 0 0 0-14.17 0 1 1 0 0 1-1 .85 1.64 1.64 0 0 0-1.65 1.57Z"/>
  <path fill="#A9DDF7" d="M4 49.09v2.93a1.64 1.64 0 0 0 1.64 1.64H24.5a1.64 1.64 0 0 0 1.64-1.64v-2.08a1.4 1.4 0 0 0-1-1.36l-.84-.22-2.57-.69a1.24 1.24 0 0 1-.91-1 7.16 7.16 0 0 0-14.17 0 1 1 0 0 1-1 .85A1.63 1.63 0 0 0 4 49.09Z"/>
  <path fill="#fff" d="M8.86 47.33h9.66a.58.58 0 0 0 .58-.67 5.47 5.47 0 0 0-10.82 0 .59.59 0 0 0 .58.67Z"/>
  <path fill="#A9DDF7" d="M26.83 48.92a1.89 1.89 0 0 0 1.89 1.88h.08v-.86a1.39 1.39 0 0 0-1-1.36l-.84-.22c-.07.18-.114.368-.13.56Z"/>
  <path fill="#A9DDF7" d="M26.92 48.36h-2.61l1.88 2.44h2.61"/>
  <path fill="#001E60" d="M20.1 56.25a2.67 2.67 0 1 0 0-5.34 2.67 2.67 0 0 0 0 5.34Zm-10.67 0a2.67 2.67 0 1 0 0-5.34 2.67 2.67 0 0 0 0 5.34Z"/>
  <path fill="#80C1E4" d="M9.43 54.7a1.12 1.12 0 1 0 0-2.24 1.12 1.12 0 0 0 0 2.24Zm10.67 0a1.12 1.12 0 1 0 0-2.24 1.12 1.12 0 0 0 0 2.24Z"/>
  <path fill="#fff" d="M24.17 48.92a1.88 1.88 0 0 0 1.88 1.88h.09v-.86a1.4 1.4 0 0 0-1-1.36l-.84-.22a1.69 1.69 0 0 0-.13.56Z"/>
</svg>
