<svg xmlns="http://www.w3.org/2000/svg" width="64" height="64" fill="none" viewBox="0 0 64 64">
  <path fill="#0053E2" d="M57 9H24.14v46.94H57V9Z"/>
  <path fill="#A9DDF7" d="M55 9H22.6v46.94H55V9Z"/>
  <path fill="#0053E2" d="M53 9H21v46.94h32V9Z"/>
  <path fill="#001E60" d="m15.8 46 23.94-4.54c3.38-.8 6.72.15 7.64 3.49l3 11H15.8V46Z"/>
  <path fill="#A9DDF7" d="M46.06 46H22v4.69h24.06V46Z"/>
  <path fill="#4DBDF5" fill-rule="evenodd" d="M47.08 43.36a4.69 4.69 0 0 0-5.17-3.26L9 44.94a3.51 3.51 0 0 0-3 3.37v6.46h42.25v-.07A2.35 2.35 0 0 0 46 52.36l-23.36-.65-.45-2 26.1-2.54-1.21-3.81Z" clip-rule="evenodd"/>
  <path fill="#0053E2" d="M48.25 54.77 6 53.59v2.35h42.25v-1.17Z"/>
  <path fill="#4DBDF5" fill-rule="evenodd" d="M19 11h3.52v1H19v-1Zm0 3h4v1h-4v-1Zm4 3h-4v1h4v-1Zm-4 3h4v1h-4v-1Zm0 3h4v1h-4v-1Zm4 3h-4v1h4v-1Zm0 3h-4v1h4v-1Zm0 3h-4v1h4v-1Zm0 3h-4v1h4v-1Zm0 3h-4v1h4v-1Zm0 3h-4v1h4v-1Z" clip-rule="evenodd"/>
  <path fill="#fff" d="M43.65 21h-11.3A2.35 2.35 0 0 0 30 23.35v4.3A2.35 2.35 0 0 0 32.35 30h11.3A2.35 2.35 0 0 0 46 27.65v-4.3A2.35 2.35 0 0 0 43.65 21Z"/>
  <path fill="#0053E2" fill-rule="evenodd" d="M42 24h-8v1h8v-1Zm0 2h-8v1h8v-1Z" clip-rule="evenodd"/>
</svg>
