<svg xmlns="http://www.w3.org/2000/svg" width="64" height="64" fill="none" viewBox="0 0 64 64">
  <path fill="#A9DDF7" d="M21 20.61H11v2.89h10v-2.89ZM31 55.5v-48h18l9 9v39H31Z"/>
  <path fill="#0053E2" d="M49 7.5v9h9l-9-9Z"/>
  <path fill="#4DBDF5" d="M35 27.5h19v1.89H35V27.5Zm0 5h19v1.92H35V32.5Zm0 5h19v2H35v-2Z"/>
  <path fill="#0053E2" fill-rule="evenodd" d="M43.74 16.03h-1.62l-1.45 2.07L39 15.74a2.27 2.27 0 0 0-1.09-4.24H35v7.76h1.29v-3.23h1.3l2.26 3.23-2.26 3.24h1.62l1.45-2.08 1.46 2.08h1.62l-2.26-3.25 2.26-3.22Zm-5.83-1.29h-1.62v-1.95h1.62a1 1 0 0 1 0 1.95Z" clip-rule="evenodd"/>
  <path fill="#4DBDF5" d="M37.31 36.55H41l4 19h-7.69v-19ZM7.06 26.81 11 22.5h10l3.87 3.87a4 4 0 0 1 1.16 2.8v23.19a3.14 3.14 0 0 1-3.14 3.14H9.14A3.15 3.15 0 0 1 6 52.36V29.5a4 4 0 0 1 1.06-2.69ZM21 19.61H11v2.89h10v-2.89Z"/>
  <path fill="#A9DDF7" d="m18 22.5 3.54 4.37a3.94 3.94 0 0 1 .86 2.46v23a3.138 3.138 0 0 1-3.14 3.17H9.14A3.14 3.14 0 0 1 6 52.36V29.5a4 4 0 0 1 1.06-2.69L11 22.5h7Z"/>
  <path fill="#0053E2" fill-rule="evenodd" d="M9 36.5v3h11v-3H9Z" clip-rule="evenodd"/>
  <path fill="#0053E2" fill-rule="evenodd" d="M16 32.5h-3v11h3v-11Z" clip-rule="evenodd"/>
  <path fill="#001E60" d="M11 12.4a2.13 2.13 0 0 1 2.12-1.9h5.74a2.12 2.12 0 0 1 2.11 1.9L22 20.5H11.27a1 1 0 0 1-1.06-1.07L11 12.4Z"/>
  <path fill="#0053E2" d="M11 12.4a2.13 2.13 0 0 1 2.12-1.9H16a2.28 2.28 0 0 1 2.27 2l.85 8H10l1-8.1Z"/>
  <path fill="#001E60" d="M25.91 38.24H40v15.17a2.1 2.1 0 0 1-2.09 2.09H28a2.09 2.09 0 0 1-2.09-2.09V38.24Z"/>
  <path fill="#0053E2" d="M25.91 38.24H37v15.17a2.1 2.1 0 0 1-2.07 2.09H28a2.09 2.09 0 0 1-2.09-2.09V38.24Z"/>
  <path fill="#001E60" d="M25.91 39.59h12.55V37.5H25.91v2.09Z"/>
  <path fill="#fff" d="M25.91 41.5H34v10h-8.09v-10Z"/>
  <path fill="#0053E2" fill-rule="evenodd" d="M27 30.5a1 1 0 0 0-1 1v4h-2v3h16v-7a1 1 0 0 0-1-1H27Z" clip-rule="evenodd"/>
  <path fill="#001E60" fill-rule="evenodd" d="M42 35.5v3h-3.76v-3H37v-4a1 1 0 0 0-1-1h3a1 1 0 0 1 1 1v4h2Z" clip-rule="evenodd"/>
</svg>
