<svg xmlns="http://www.w3.org/2000/svg" width="64" height="64" fill="none" viewBox="0 0 64 64">
  <path fill="#001E60" d="M31.89 58.599H18.24a7.3 7.3 0 0 1-7.29-7.29v-6.71c0-3.57 9-12 9-12h3a12 12 0 0 1 12 12v10.94a3.06 3.06 0 0 1-3.06 3.06Z"/>
  <path fill="#0053E2" d="M19.95 32.599a12 12 0 0 1 12 12v11a3.05 3.05 0 0 1-3.05 3.05H15.28A7.28 7.28 0 0 1 8 51.369v-6.77a12 12 0 0 1 12-12h-.05Z"/>
  <path fill="#4DBDF5" d="M19.91 53.218a8.12 8.12 0 1 0 0-16.24 8.12 8.12 0 0 0 0 16.24Z"/>
  <path fill="#fff" d="M28.45 56.599a1.5 1.5 0 1 0 0-3 1.5 1.5 0 0 0 0 3Z"/>
  <path fill="#001E60" d="M16.95 55.599a1 1 0 0 1 1 1v2h-2v-2a1 1 0 0 1 1-1Zm34-38.721 1.01-1.93 1.04 1.93v18.53h-2.05v-18.53Z"/>
  <path fill="#0053E2" d="m50.95 16.878 1.01-1.93v20.46h-1.01v-18.53Z"/>
  <path fill="#4DBDF5" d="M55.95 39.599v17a2 2 0 0 1-2 2h-.51v-21h.51a2 2 0 0 1 2 2Z"/>
  <path fill="#4DBDF5" d="M53.45 37.599v21h-3.5a2 2 0 0 1-2-2v-17a2 2 0 0 1 2-2h3.5Zm-3.55 0H54a.95.95 0 0 0 .95-.95v-1.1a.95.95 0 0 0-.95-.95h-4.1a.95.95 0 0 0-.95.95v1.1c0 .524.425.95.95.95Z"/>
  <path fill="#A9DDF7" d="M53.45 37.599h-3v21h3v-21Z"/>
  <path fill="#001E60" d="m25.928 12.022-5.795 1.553 2.07 7.728L28 19.75l-2.07-7.728Z"/>
  <path fill="#4DBDF5" d="m36.5 20.569-.52-1.93-4.83 1.29.52 1.94.963-.26 4.664 17.404 3.863-1.035-4.66-17.41Z"/>
  <path fill="#0053E2" d="m24.44 10.348 14.84-4a10.06 10.06 0 0 1 10.45 3.39l1.94 2.39-2.19 1.9-1.53-1.32a4.872 4.872 0 0 0-4.4-1 4.86 4.86 0 0 0-3.58 5l.16 1.87-12.54 3.38-3.15-11.61Z"/>
  <path fill="#A9DDF7" d="m35.543 20.83-2.91.78 4.685 17.479 2.91-.78-4.685-17.48Z"/>
  <path fill="#0053E2" d="m18.761 11.565 1.94-.52a2.009 2.009 0 0 1 2.46 1.42l2.08 7.76a2.009 2.009 0 0 1-1.42 2.46l-1.94.52a1.004 1.004 0 0 1-1.23-.71l-2.6-9.7a1.004 1.004 0 0 1 .71-1.23Z"/>
  <path fill="#4DBDF5" d="m18.751 11.532.97-.26 3.12 11.64-.97.26a1.004 1.004 0 0 1-1.23-.71l-2.579-9.622a1.004 1.004 0 0 1 .71-1.23l-.02-.078Z"/>
  <path fill="#001E60" d="m40.88 37-3.824 1.024a1.02 1.02 0 0 0-.722 1.25l4.907 18.313a1.02 1.02 0 0 0 1.25.721l3.825-1.024a1.02 1.02 0 0 0 .721-1.25L42.13 37.72a1.02 1.02 0 0 0-1.25-.72Z"/>
  <path fill="#0053E2" d="m39.95 37.242-2.89.775a1.023 1.023 0 0 0-.724 1.255l4.93 18.39c.146.547.707.871 1.254.725l2.89-.775c.547-.146.871-.708.725-1.254l-4.93-18.392a1.024 1.024 0 0 0-1.255-.724Z"/>
  <path fill="#001E60" d="M20.95 55.599a1 1 0 0 1 1 1v2h-2v-2a1 1 0 0 1 1-1Zm4 0a1 1 0 0 1 1 1v2h-2v-2a1 1 0 0 1 1-1Z"/>
</svg>
