<svg xmlns="http://www.w3.org/2000/svg" width="64" height="64" fill="none" viewBox="0 0 64 64">
  <path fill="#001E60" d="M52.499 12.692c-.41 2.16-1.85 3.69-3.22 3.43-1.37-.26-2.12-2.23-1.71-4.38.41-2.15 3.62-5.48 3.62-5.48s1.73 4.27 1.31 6.43Z"/>
  <path fill="#4DBDF5" d="m50.459 20.402-.91-.17.46-4.8 1.01.2-.56 4.77Z"/>
  <path fill="#A9DDF7" d="m49.548 20.232-2.9-.57 1.23-4.64 2.26.44-.59 4.77Z"/>
  <path fill="#001E60" d="m47.138 34.881 3.32-14.48-3.81-.74-2.32 14.68a1.42 1.42 0 0 0 1.15 1.59 1.42 1.42 0 0 0 1.66-1.05Z"/>
  <path fill="#001E60" d="m50.458 20.402-3.32 14.48a1.41 1.41 0 0 1-.62.86c-.3.182-.654.25-1 .19a1.292 1.292 0 0 1-.44-.16c.2-.03.39-.101.56-.21a1.41 1.41 0 0 0 .62-.86l3.33-14.48.87.18Z"/>
  <path fill="#A9DDF7" d="M46.327 11.771a5.87 5.87 0 0 0-6.37-5.75 6 6 0 0 0-5.37 6.16l.19 10.44a2.57 2.57 0 0 0 2.75 2.52 2.66 2.66 0 0 0 2.38-2.76v-1a4.39 4.39 0 0 1 2.85-4.11 5.89 5.89 0 0 0 3.57-5.5Zm-9.62.83a3.82 3.82 0 0 1 3-4.47 3.8 3.8 0 0 1 4.47 3 3.81 3.81 0 0 1-3 4.48 3.82 3.82 0 0 1-4.47-3.01Z"/>
  <path fill="#4DBDF5" d="M30.218 20.001a4.39 4.39 0 0 1 4.27 2.6l.38.9a2.69 2.69 0 0 0 3.3 1.55 2.57 2.57 0 0 0 1.49-3.42l-4.09-9.62a6 6 0 0 0-7.41-3.43 5.88 5.88 0 0 0-3.48 7.85 5.89 5.89 0 0 0 5.54 3.57Zm-1-9.58a3.8 3.8 0 0 1 4.57 2.85 3.81 3.81 0 0 1-2.85 4.57 3.81 3.81 0 0 1-4.57-2.85 3.802 3.802 0 0 1 2.89-4.62l-.04.05Z"/>
  <path fill="#001E60" d="M37.358 23.701a1.02 1.02 0 1 0 0-2.04 1.02 1.02 0 0 0 0 2.04Z"/>
  <path fill="#001E60" d="M27.328 23.001h27l-3.47 31.27a4.16 4.16 0 0 1-4.13 3.73h-11.8a4.16 4.16 0 0 1-4.13-3.69l-3.47-31.31Z"/>
  <path fill="#0053E2" d="M27.328 23.001h24l-3.47 31.27a4.16 4.16 0 0 1-4.13 3.73h-12.52l-3.88-35Z"/>
  <path fill="#001E60" d="m35.328 29.96 5 28.04h-11V32l6-2.04Z"/>
  <path fill="#0053E2" d="M16.328 53.001a6.29 6.29 0 0 1-4.05-1.52c-3.37-2.81-2.29-6.84-1.24-8.58l1.71 1c-.08.14-2.08 3.61.81 6a4.31 4.31 0 0 0 2.77 1.1v2Z"/>
  <path fill="#4DBDF5" d="M13.328 29.96v3l2.97 2h16.03l3-2v-3h-22Zm22 28v-3l-3-2h-16.03l-2.96 2v3h21.99Z"/>
  <path fill="#0053E2" d="M32.329 34.96h-16.03v18h16.03v-18Z"/>
  <path fill="#001E60" d="M32.329 36.96h-16.03v2h16.03v-2Zm0 4h-16.03v2h16.03v-2Zm0 4h-16.03v2h16.03v-2Zm0 4h-16.03v2h16.03v-2Z"/>
</svg>
