<svg xmlns="http://www.w3.org/2000/svg" width="64" height="64" fill="none" viewBox="0 0 64 64">
  <path fill="#001E60" d="M26.63 19.31H59v33.18a2.5 2.5 0 0 1-2.5 2.5H29.13a2.499 2.499 0 0 1-2.5-2.51V19.31Z"/>
  <path fill="#0053E2" d="M25 19.31h27.49v32.61a3.19 3.19 0 0 1-3.28 3.07H27.66a2.59 2.59 0 0 1-2.66-2.5V19.31Z"/>
  <path fill="#4DBDF5" d="M26 19.25a1.252 1.252 0 0 1 1.26-1.26h31.49A1.25 1.25 0 0 1 60 19.25v1.74H26v-1.74Z"/>
  <path fill="#A9DDF7" d="M24 19.25a1.25 1.25 0 0 1 1.25-1.26h27.24v3H24v-1.74Z"/>
  <path fill="#0053E2" d="M26.65 33.11 35 54.99H24.4V31.16a3.398 3.398 0 0 1 2.25 1.95Z"/>
  <path fill="#001E60" d="M43 33.76a3.19 3.19 0 1 0 0-6.38 3.19 3.19 0 0 0 0 6.38Z"/>
  <path fill="#001E60" d="M56.81 39.1a1.5 1.5 0 0 1-.64-.15l-14.87-7a1.501 1.501 0 0 1 .106-2.806 1.501 1.501 0 0 1 1.175.096l14.87 7a1.5 1.5 0 0 1-.64 2.86Z"/>
  <path fill="#4DBDF5" d="M41.94 32.69a3.19 3.19 0 1 0 0-6.38 3.19 3.19 0 0 0 0 6.38Z"/>
  <path fill="#A9DDF7" d="M60 38.99a.98.98 0 0 1-.43-.1l-18.06-8.55a1 1 0 1 1 .86-1.8l18.07 8.56a1 1 0 0 1-.44 1.89Z"/>
  <path fill="#001E60" d="M4 39.62h22.27v14.19A1.19 1.19 0 0 1 25.08 55H5.19A1.19 1.19 0 0 1 4 53.81V39.62Z"/>
  <path fill="#A9DDF7" d="M26.27 37H4v3h22.27v-3Z"/>
  <path fill="#0053E2" d="m24.22 30.69-3.52-.7a4.26 4.26 0 0 1-3.32-5.32c.6-2.59 2.47-9.6 2.47-9.6.1-.396.15-.802.15-1.21a4.86 4.86 0 1 0-9.72 0 4.7 4.7 0 0 0 .16 1.18s1.87 7 2.47 9.6a4.26 4.26 0 0 1-3.34 5.35l-3.52.73a2.58 2.58 0 0 0-2 2.52v3.75h22.22v-3.78a2.57 2.57 0 0 0-2.05-2.52Zm-9.08-15.37a1.62 1.62 0 1 1 0-3.24 1.62 1.62 0 0 1 0 3.24Z"/>
  <path fill="#4DBDF5" d="M5.19 54.99h19.93a1.19 1.19 0 0 0 1.19-1.19v-4.56a6.72 6.72 0 0 0-4.92-1.45c-3.72.41-5.49 3.94-8.92 3.94-2.57 0-3.4-.8-5.15-1.63A5.92 5.92 0 0 0 4 49.61v4.2a1.19 1.19 0 0 0 1.19 1.18Zm31.19-35.85h-5.67a.5.5 0 0 0-.5.49v1.36h.52a2 2 0 0 1 2 2 6.74 6.74 0 0 1-.79 3.11 3.79 3.79 0 0 0-.54 1.6 2.17 2.17 0 1 0 4.33 0 3.859 3.859 0 0 0-.54-1.61 6.67 6.67 0 0 1-.79-3.1 2 2 0 0 1 2-2h.52v-1.36a.499.499 0 0 0-.54-.49Z"/>
  <path fill="#4DBDF5" d="M27.31 17.99h12.75a3 3 0 0 1-3 3h-6.75a3 3 0 0 1-3-3Z"/>
</svg>
