<svg xmlns="http://www.w3.org/2000/svg" width="64" height="64" fill="none" viewBox="0 0 64 64">
  <path fill="#A9DDF7" fill-rule="evenodd" d="M29 30.19v24.67A3.15 3.15 0 0 0 32.14 58h15.72A3.15 3.15 0 0 0 51 54.86V30.19a15.5 15.5 0 0 0-3.12-9.34L45 17H35l-2.89 3.85A15.56 15.56 0 0 0 29 30.19Z" clip-rule="evenodd"/>
  <path fill="#A9DDF7" d="M42.14 6h-4.27v7.08h4.27V6Z"/>
  <path fill="#4DBDF5" d="M42.15 6H41v7.08h1.15V6Z"/>
  <path fill="#4DBDF5" d="M42.14 7.55h-4.27V9h4.27V7.55Z"/>
  <path fill="#A9DDF7" d="m32.19 9.84-1.42-1.42 2.41-2.41H44v2h-9.99l-1.82 1.83Z"/>
  <path fill="#001E60" d="M35 17h10v-2.13A2.86 2.86 0 0 0 42.13 12h-4.25a2.86 2.86 0 0 0-2.87 2.87L35 17Z"/>
  <path fill="#0053E2" d="M35 17h8v-2.13A2.86 2.86 0 0 0 40.13 12h-2.26A2.86 2.86 0 0 0 35 14.87V17Z"/>
  <path fill="#4DBDF5" fill-rule="evenodd" d="M36.67 37.49 42.97 58H29.88V36l6.79 1.49Z" clip-rule="evenodd"/>
  <path fill="#0053E2" d="M22.5 55C30.508 55 37 48.508 37 40.5S30.508 26 22.5 26 8 32.492 8 40.5 14.492 55 22.5 55Z"/>
  <mask id="a" width="29" height="29" x="8" y="26" maskUnits="userSpaceOnUse" style="mask-type:luminance">
    <path fill="#fff" d="M22.5 55C30.508 55 37 48.508 37 40.5S30.508 26 22.5 26 8 32.492 8 40.5 14.492 55 22.5 55Z"/>
  </mask>
  <g mask="url(#a)">
    <path fill="#001E60" d="M33 51H12v2h21v-2Z"/>
  </g>
  <path fill="#4DBDF5" d="M22.5 52C28.851 52 34 46.851 34 40.5S28.851 29 22.5 29 11 34.149 11 40.5 16.149 52 22.5 52Z"/>
  <mask id="b" width="23" height="23" x="11" y="29" maskUnits="userSpaceOnUse" style="mask-type:luminance">
    <path fill="#fff" d="M22.5 52C28.851 52 34 46.851 34 40.5S28.851 29 22.5 29 11 34.149 11 40.5 16.149 52 22.5 52Z"/>
  </mask>
  <g mask="url(#b)">
    <path fill="#A9DDF7" fill-rule="evenodd" d="M14.6 50.52A14.22 14.22 0 0 1 10 47l20.52-19.2a13.9 13.9 0 0 1 3.38 4.74L14.6 50.52Zm8 1.3c-.594.072-1.192.108-1.79.11a14.568 14.568 0 0 1-4-.57l17.83-16.68A13.69 13.69 0 0 1 35 38a14.364 14.364 0 0 1-.22 2.47L22.6 51.82Z" clip-rule="evenodd"/>
  </g>
  <path fill="#001E60" d="M11 53h26a5 5 0 0 1-5 5H16a5 5 0 0 1-5-5Z"/>
  <path fill="#0053E2" d="M8 53h26a5 5 0 0 1-5 5H13a5 5 0 0 1-5-5Z"/>
  <path fill="#001E60" stroke="#001E60" d="M24.903 53.5c-.026.075-.056.15-.092.22a1.7 1.7 0 0 1-.49.58l-.005.003a2.901 2.901 0 0 1-1.808.597h-.016c-.653.01-1.29-.2-1.808-.597l-.004-.003a1.7 1.7 0 0 1-.583-.8h4.806Z"/>
  <path fill="#001E60" d="M29 51H16v2h13v-2Zm20-24 3 1.11a3.14 3.14 0 0 1 2 2.93v18.69h-5V27Z"/>
  <path fill="#001E60" d="M51.27 37a1 1 0 0 1 1-1H55v6.1h-3.73V37Z"/>
  <path fill="#0053E2" d="m49 27 3.12 1.2a.882.882 0 0 1 .46 1.25 1.55 1.55 0 0 1-2.84-.25L49 27Zm-1 13.86V36h5.64v4.91L48 40.86Z"/>
  <path fill="#A9DDF7" d="M53.64 39H48v2h5.64v-2Z"/>
  <path fill="#4DBDF5" d="M55 39h-1.36v2H55v-2Z"/>
  <path fill="#001E60" d="M53.64 41H55a1 1 0 0 1 1 1v16h-2.36V41Z"/>
  <path fill="#0053E2" d="M48 41h5.64v17H47V42a1 1 0 0 1 1-1Z"/>
</svg>
