<svg xmlns="http://www.w3.org/2000/svg" width="64" height="64" fill="none" viewBox="0 0 64 64">
  <path fill="#A9DDF7" d="M39 6h-3v4.97h3V6Z"/>
  <path fill="#4DBDF5" d="M39 6h-1.02v4.97H39V6Z"/>
  <path fill="#4DBDF5" d="M39 6.98h-3V8h3V6.98Z"/>
  <path fill="#001E60" d="M34 14h7v-1.48a2 2 0 0 0-2-2h-3a2 2 0 0 0-2 2V14Z"/>
  <path fill="#4DBDF5" d="M29 26.19a3.07 3.07 0 0 0 2.95 3.91h11a3.071 3.071 0 0 0 3-3.91l-3.16-11.08A1.53 1.53 0 0 0 41.24 14h-7.65a1.53 1.53 0 0 0-1.48 1.11L29 26.19Z"/>
  <path fill="#A9DDF7" d="M40.001 6v1h-6.794l-1.344 1.335-.352-.355-.353-.355L32.795 6H40Z"/>
  <path fill="#0053E2" d="M34 14h6v-1.48a2 2 0 0 0-2-2h-2a2 2 0 0 0-2 2V14Z"/>
  <path fill="#0053E2" d="M42.93 30.1h-2.47a3.07 3.07 0 0 0 2.95-3.91l-3.17-11.08A1.53 1.53 0 0 0 38.77 14h2.47a1.53 1.53 0 0 1 1.48 1.11l3.16 11.08a3.07 3.07 0 0 1-2.95 3.91Z"/>
  <path fill="#4DBDF5" d="M28.15 23.78a1.59 1.59 0 1 0 0-3.18 1.59 1.59 0 0 0 0 3.18Z"/>
  <path fill="#4DBDF5" d="M25.61 22.49a1.59 1.59 0 1 0 0-3.18 1.59 1.59 0 0 0 0 3.18Zm-4.71-3.11a1.91 1.91 0 1 0 0-3.82 1.91 1.91 0 0 0 0 3.82Z"/>
  <path fill="#A9DDF7" d="M20.911 17.33c.114-.472-.102-.93-.483-1.022-.381-.093-.783.216-.897.688-.114.473.102.93.483 1.022.381.092.783-.216.897-.688Z"/>
  <path fill="#4DBDF5" d="M24.34 14.75a1.59 1.59 0 1 0 0-3.18 1.59 1.59 0 0 0 0 3.18Z"/>
  <path fill="#0053E2" d="M24.92 28.2c4.06 0 7.35-1.419 7.35-3.17 0-1.75-3.29-3.17-7.35-3.17-4.059 0-7.35 1.42-7.35 3.17 0 1.751 3.291 3.17 7.35 3.17Z"/>
  <path fill="#4DBDF5" d="M24.53 23.76a1.26 1.26 0 1 0 0-2.52 1.26 1.26 0 0 0 0 2.52Z"/>
  <path fill="#A9DDF7" d="M24.305 13.07c.09-.37-.081-.73-.382-.802-.3-.073-.617.168-.706.539-.09.37.081.73.382.802.3.073.617-.169.706-.539Z"/>
  <path fill="#4DBDF5" d="M24.55 51c0-3.86 2.49-7 6.34-7H49a7 7 0 1 1 0 14H30.89c-3.85 0-6.34-3.12-6.34-7Z"/>
  <path fill="#A9DDF7" d="M24.34 51c0-3.86 2.49-7 6.34-7h7.51a7 7 0 1 1 0 14h-7.51c-3.85 0-6.34-3.12-6.34-7Z"/>
  <path fill="#A9DDF7" d="M8 48.51A4.51 4.51 0 0 1 12.51 44H31a2.81 2.81 0 0 1 2.81 2.82v3.38A2.81 2.81 0 0 1 31 53H12.51A4.51 4.51 0 0 1 8 48.51ZM10 54h19.47a1.5 1.5 0 0 1 1.5 1.5v1a1.5 1.5 0 0 1-1.5 1.5H10a2 2 0 1 1 0-4Z"/>
  <path fill="#001E60" d="M24.44 37c0-3.87 2.5-7 6.36-7H49a7 7 0 0 1 0 14H30.8c-3.86 0-6.36-3.13-6.36-7Z"/>
  <path fill="#0053E2" d="M24.27 37c0-3.87 2.49-7 6.36-7h7.53a7 7 0 0 1 0 14h-7.53c-3.87 0-6.36-3.13-6.36-7Z"/>
  <path fill="#0053E2" d="M8 34.51A4.51 4.51 0 0 1 12.51 30H31a2.81 2.81 0 0 1 2.81 2.82v3.38A2.82 2.82 0 0 1 31 39H12.51A4.51 4.51 0 0 1 8 34.51ZM10 40h21v4H10a2 2 0 1 1 0-4Z"/>
  <path fill="#001E60" d="M37 40H12v-1h25a2 2 0 0 0 0-4H12v-1h25a3 3 0 0 1 0 6Z"/>
  <path fill="#0053E2" d="M37 54H12v-1h25a2 2 0 0 0 0-4H12v-1h25a3 3 0 0 1 0 6Z"/>
  <path fill="#A9DDF7" d="M25.453 20.543c.064-.263-.059-.519-.273-.57-.215-.052-.44.119-.504.382s.059.518.273.57c.215.052.44-.12.504-.382ZM15.59 24.93h18.83a.59.59 0 0 1 .59.59 4.49 4.49 0 0 1-4.5 4.48h-11A4.49 4.49 0 0 1 15 25.52a.59.59 0 0 1 .59-.59Z"/>
</svg>
