<svg xmlns="http://www.w3.org/2000/svg" width="65" height="64" fill="none" viewBox="0 0 65 64">
  <path fill="#4DBDF5" d="m27.32 53.84-9.039-37.48a3.056 3.056 0 0 0-1.104-1.705A3.139 3.139 0 0 0 15.234 14h-2.03v-2h2.03a5.13 5.13 0 0 1 3.204 1.079 4.991 4.991 0 0 1 1.803 2.821l9.04 37.48-1.96.46Z"/>
  <path fill="#001E60" d="M35.557 8.85a.71.71 0 0 1 .158-.592.73.73 0 0 1 .563-.258H37.7a.741.741 0 0 1 .556.262.717.717 0 0 1 .155.588l-.234 1.31h-2.376l-.244-1.31Z"/>
  <path fill="#0053E2" d="M35.557 8.85a.71.71 0 0 1 .158-.592.73.73 0 0 1 .563-.258h.406a.74.74 0 0 1 .563.258.716.716 0 0 1 .158.592l-.243 1.31H35.79l-.234-1.31Z"/>
  <path fill="#001E60" fill-rule="evenodd" d="M32.895 24.5a4.422 4.422 0 0 1-3.102-1.265 4.287 4.287 0 0 1-1.285-3.055V15h17.265v5.18a4.297 4.297 0 0 1-1.288 3.052 4.432 4.432 0 0 1-3.1 1.268h-8.49Z" clip-rule="evenodd"/>
  <path fill="#0053E2" fill-rule="evenodd" d="M28.508 15v5.18c0 1.146.462 2.244 1.285 3.055a4.422 4.422 0 0 0 3.102 1.265h6.46a4.433 4.433 0 0 0 3.1-1.268 4.297 4.297 0 0 0 1.287-3.052V15H28.508Z" clip-rule="evenodd"/>
  <path fill="#001E60" d="M28.508 14.32a4.251 4.251 0 0 1 .331-1.655c.22-.524.543-1.001.95-1.403A4.436 4.436 0 0 1 32.895 10h8.817c1.077 0 2.11.421 2.873 1.172A3.969 3.969 0 0 1 45.774 14v1H28.507v-.68Z"/>
  <path fill="#0053E2" d="M28.508 14c0-1.06.428-2.078 1.19-2.828A4.095 4.095 0 0 1 32.57 10h7.11c1.077 0 2.11.421 2.872 1.172A3.969 3.969 0 0 1 43.742 14v1H28.508v-1Z"/>
  <path fill="#001E60" d="M28.508 15v-1H45.57v1"/>
  <path fill="#A9DDF7" d="M46.79 11.28c0-.074.029-.146.082-.198a.287.287 0 0 1 .201-.082h5.911v1.94H46.79v-1.66Z"/>
  <path fill="#4DBDF5" fill-rule="evenodd" d="M52.67 12.94h.559l1.686 2.21v5.25h-3.93v-5.25l1.685-2.21Z" clip-rule="evenodd"/>
  <path fill="#A9DDF7" d="M50.973 15.15h-5.91v5.25h5.91v-5.25Z"/>
  <path fill="#fff" d="M46.79 12.94h5.92l-1.686 2.21h-5.962l1.727-2.21Z"/>
  <path fill="#4DBDF5" d="M53.229 11.28a.266.266 0 0 0-.08-.2.275.275 0 0 0-.205-.08.278.278 0 0 0-.256.174.265.265 0 0 0-.018.106v1.66h.559v-1.66Z"/>
  <path fill="#001E60" d="M24.496 15.28h-.762V15a4.272 4.272 0 0 1 .335-1.673 4.35 4.35 0 0 1 .965-1.417l.539.53A3.612 3.612 0 0 0 24.496 15v.28Zm-.386-2.83a1.153 1.153 0 0 0-.344-.834 1.189 1.189 0 0 0-.844-.346h-.508v.51c0 .31.125.607.348.827.223.22.525.343.84.343h.508v-.5Z"/>
  <path fill="#A9DDF7" fill-rule="evenodd" d="M24.447 14.53a.471.471 0 0 1-.63 0 2.689 2.689 0 0 0-1.144-.679 2.722 2.722 0 0 0-1.334-.051c-1.534.39-2.326 2.34-1.767 4.34.558 2 2.254 3.31 3.798 2.91a1.92 1.92 0 0 0 .518-.2.494.494 0 0 1 .498 0c.161.091.336.158.518.2 1.533.4 3.24-.9 3.798-2.91.559-2.01-.234-3.95-1.777-4.34a2.742 2.742 0 0 0-1.334.054 2.71 2.71 0 0 0-1.144.676Z" clip-rule="evenodd"/>
  <path fill="#4DBDF5" fill-rule="evenodd" d="M28.682 18.14c-.549 2-2.194 3.25-3.707 2.93a3.766 3.766 0 0 0 1.586-1.15 3.673 3.673 0 0 0 .78-1.78c.477-2-.203-3.95-1.523-4.35.363-.09.743-.09 1.107 0 1.523.4 2.315 2.34 1.757 4.35Z" clip-rule="evenodd"/>
  <path fill="#0053E2" d="M52.133 42H22.74l-6.003-24H61.01l-4.682 20.68a4.222 4.222 0 0 1-1.503 2.387 4.338 4.338 0 0 1-2.691.933Z"/>
  <path fill="#4DBDF5" d="M44.88 42H15.427l-5.87-24h45.256l-4.49 19.7a5.489 5.489 0 0 1-1.955 3.09A5.64 5.64 0 0 1 44.88 42Z"/>
  <path fill="#001E60" d="M27.594 57c2.243 0 4.062-1.79 4.062-4s-1.819-4-4.062-4c-2.244 0-4.063 1.79-4.063 4s1.82 4 4.063 4Zm25.469 0c2.243 0 4.062-1.79 4.062-4s-1.819-4-4.063-4C50.82 49 49 50.79 49 53s1.819 4 4.063 4Z"/>
  <path fill="#A9DDF7" d="M53.015 54.1H20.322c-.27 0-.527-.106-.718-.293a.992.992 0 0 1 0-1.415c.19-.187.449-.292.718-.292h32.693c.27 0 .528.105.718.292a.993.993 0 0 1 0 1.415c-.19.187-.448.293-.718.293Z"/>
  <path fill="#0053E2" d="M43.742 57c2.244 0 4.063-1.79 4.063-4s-1.82-4-4.063-4c-2.243 0-4.062 1.79-4.062 4s1.819 4 4.062 4Z"/>
  <path fill="#A9DDF7" d="M18.18 53.84 9.14 16.36a3.055 3.055 0 0 0-1.103-1.705A3.139 3.139 0 0 0 6.094 14H4.062v-2h2.032a5.13 5.13 0 0 1 3.204 1.079A4.992 4.992 0 0 1 11.1 15.9l9.039 37.48-1.96.46Zm25.564.6c.807 0 1.462-.645 1.462-1.44 0-.796-.655-1.44-1.462-1.44-.808 0-1.463.644-1.463 1.44 0 .795.655 1.44 1.463 1.44Z"/>
  <path fill="#0053E2" d="M18.352 57c2.243 0 4.062-1.79 4.062-4s-1.819-4-4.062-4c-2.244 0-4.063 1.79-4.063 4s1.819 4 4.063 4Z"/>
  <path fill="#A9DDF7" d="M18.353 54.44c.808 0 1.463-.645 1.463-1.44 0-.796-.655-1.44-1.463-1.44s-1.462.644-1.462 1.44c0 .795.654 1.44 1.462 1.44Z"/>
  <path fill="#0053E2" d="M18.971 23h-2.305l3.047 14h2.275L18.97 23Zm7.506 0 1.25 14h-2.265l-1.29-14h2.305Zm5.191 0h2.306v14h-2.275l-.031-14Zm17.296 0h-2.306l-2.996 14h2.275l3.027-14ZM37.965 37l1.198-14h2.306l-1.23 14h-2.274Z"/>
  <path fill="#001E60" d="M20.13 23h-2.56l3.047 14h2.53L20.13 23Zm7.496 0 1.239 14h-2.53l-1.269-14h2.56Zm4.944 0h2.56v14h-2.56V23Zm17.54 0h-2.56l-3.046 14h2.529l3.077-14ZM38.848 37l1.208-14h2.56l-1.24 14h-2.528Z"/>
</svg>
