<svg xmlns="http://www.w3.org/2000/svg" width="64" height="64" fill="none" viewBox="0 0 64 64">
  <path fill="#001E60" d="M17.358 52h40.19a2.411 2.411 0 0 0 2.39-2.81l-6-35.86a2.74 2.74 0 0 0-2.7-2.29h-39.24a1.248 1.248 0 0 0-1.24 1.46l6.6 39.5Z"/>
  <path fill="#A9DDF7" d="M43.858 52H6.028a2.06 2.06 0 0 1-2-2.4l6.19-36.95a2 2 0 0 1 1.95-1.65h39.05a2 2 0 0 1 1.94 2.3l-6 35.86a3.35 3.35 0 0 1-3.31 2.8"/>
  <path fill="#0053E2" d="M52.298 18.32H9.248l1-5.92a1.67 1.67 0 0 1 1.65-1.4h39.65a1.68 1.68 0 0 1 1.65 2l-.9 5.32Z"/>
  <path fill="#001E60" d="M20.518 14.66a1.78 1.78 0 0 1-1.63 1.51 1.2 1.2 0 0 1-1.13-1.51 1.78 1.78 0 0 1 1.63-1.51 1.19 1.19 0 0 1 1.13 1.51Z"/>
  <path fill="#A9DDF7" d="M19.969 14.35a1.79 1.79 0 0 1-1.64 1.51 1.2 1.2 0 0 1-1.13-1.51 1.79 1.79 0 0 1 1.64-1.52 1.2 1.2 0 0 1 1.13 1.52Z"/>
  <path fill="#001E60" d="M43.578 14.66a1.78 1.78 0 0 1-1.64 1.51 1.2 1.2 0 0 1-1.13-1.51 1.78 1.78 0 0 1 1.64-1.51 1.201 1.201 0 0 1 1.13 1.51Z"/>
  <path fill="#A9DDF7" d="M43.059 14.35a1.79 1.79 0 0 1-1.63 1.51 1.2 1.2 0 0 1-1.13-1.51 1.79 1.79 0 0 1 1.63-1.52 1.2 1.2 0 0 1 1.13 1.52Z"/>
  <path fill="#0053E2" d="m35.438 36-1.68 11.32h1.22L36.648 36h-1.21Z"/>
  <path fill="#0053E2" d="m35.289 41.08-2.74-3.21.99-.86 2.01 2.35 2.7-2.35.73.86-3.69 3.21Zm1.559 5.44-2.01-2.36-2.71 2.36-.73-.86 3.69-3.22 2.74 3.22-.98.86Z"/>
  <path fill="#0053E2" d="m29.639 41.05-.18 1.22h11.32l.18-1.22h-11.32Z"/>
  <path fill="#0053E2" d="m38.53 44.88-2.74-3.22 3.69-3.22.73.86-2.71 2.36 2.01 2.36-.98.86Zm-7.802 0-.73-.86 2.71-2.36-2.01-2.36.99-.86 2.73 3.22-3.69 3.22Z"/>
  <path fill="#001E60" d="M19.148 38.16h-1.17l.31-2h1.17l-.31 2Z"/>
  <path fill="#4DBDF5" d="M17.955 42.849c.595-2.481-.124-4.78-1.606-5.136-1.482-.356-3.166 1.367-3.761 3.848-.596 2.481.123 4.781 1.606 5.137 1.482.355 3.166-1.368 3.761-3.85Z"/>
  <path fill="#4DBDF5" d="M20.67 42.855c.595-2.481-.124-4.781-1.606-5.137-1.482-.355-3.166 1.368-3.762 3.849-.595 2.481.124 4.78 1.607 5.136 1.482.356 3.166-1.367 3.761-3.848Z"/>
  <path fill="#4DBDF5" d="M23.319 42.858c.595-2.481-.124-4.781-1.607-5.137-1.482-.355-3.166 1.368-3.761 3.849-.595 2.481.124 4.78 1.606 5.136 1.482.356 3.166-1.367 3.762-3.848Z"/>
  <path fill="#fff" d="M24.828 31.35a2.71 2.71 0 0 0 2.67-2.73 1.84 1.84 0 0 0-.48-1.19 2.3 2.3 0 0 0-1.66-.94h-.09a.6.6 0 0 1-.58-.6 2.438 2.438 0 0 0-2.49-2.44 3.06 3.06 0 0 0-2.47 1.33.84.84 0 0 1-1 .35 1.92 1.92 0 0 0-1.05-.08 2.24 2.24 0 0 0-1.65 1.46 1.347 1.347 0 0 0-.07.27.87.87 0 0 1-.85.67 1.73 1.73 0 0 0-.5 0 2.221 2.221 0 0 0-1.65 1.63 1.76 1.76 0 0 0 1.73 2.23l10.14.04Z"/>
  <path fill="#0053E2" fill-rule="evenodd" d="M37.97 26.58a1.44 1.44 0 0 1-.57.11 1.24 1.24 0 0 1-.54-.11 1.63 1.63 0 0 1-.37.46c-.156.128-.332.23-.52.3a1.35 1.35 0 0 1 0 .53 1.74 1.74 0 0 1-.19.54 1 1 0 0 1 .42.3c.116.128.202.283.25.45a1.56 1.56 0 0 1 .57-.11c.181 0 .362.037.53.11.097-.172.226-.324.38-.45a1.4 1.4 0 0 1 .51-.3 1.221 1.221 0 0 1 0-.54 1.36 1.36 0 0 1 .19-.53 1.19 1.19 0 0 1-.43-.3 1 1 0 0 1-.23-.46Zm-4.77-.42a2.39 2.39 0 0 0-2.07 1.71c-.12.82.55 1.52 1.57 1.71-.72.86-.91 1.88-.39 2.46a2.07 2.07 0 0 0 2.55 0c.06 1 .66 1.76 1.51 1.76a2.38 2.38 0 0 0 2-1.76 2.06 2.06 0 0 0 2.53 0 1.94 1.94 0 0 0 .32-2.46 2.37 2.37 0 0 0 2.07-1.71c.12-.82-.55-1.51-1.57-1.71.72-.86.91-1.87.39-2.45a2 2 0 0 0-2.54 0 1.66 1.66 0 0 0-1.52-1.76 2.41 2.41 0 0 0-2 1.76 2 2 0 0 0-2.53 0 1.94 1.94 0 0 0-.31 2.45h-.01Z" clip-rule="evenodd"/>
  <path fill="#A9DDF7" d="M38.618 29.346c.988-.948 1.123-2.411.3-3.268-.821-.857-2.289-.783-3.277.166-.988.948-1.123 2.412-.3 3.268.821.857 2.289.783 3.277-.166Z"/>
</svg>
