<svg xmlns="http://www.w3.org/2000/svg" width="64" height="64" fill="none" viewBox="0 0 64 64">
  <path fill="#001E60" fill-rule="evenodd" d="M60 51.43V53H28v-1.63c3-1.14 9-2.07 16-2.07s16 2.13 16 2.13Z" clip-rule="evenodd"/>
  <path fill="#001E60" d="M47 45.92h-4.72v4.72H47v-4.72Z"/>
  <path fill="#0053E2" fill-rule="evenodd" d="M58 51v2H27v-2a81.44 81.44 0 0 1 15.5-2A83.36 83.36 0 0 1 58 51Z" clip-rule="evenodd"/>
  <path fill="#001E60" d="M45.97 10h-2.35C37.755 10 33 14.755 33 20.62v15.86c0 5.865 4.755 10.62 10.62 10.62h2.35c5.865 0 10.62-4.755 10.62-10.62V20.62c0-5.865-4.755-10.62-10.62-10.62Z"/>
  <path fill="#0053E2" fill-rule="evenodd" d="M54 20.62v15.86A10.62 10.62 0 0 1 44.9 47l-.34.05h-4.12a10.821 10.821 0 0 1-2.73-.68 10.183 10.183 0 0 1-1.77-.91 10.58 10.58 0 0 1-4.94-9V20.62A10.61 10.61 0 0 1 41.62 10h1.76A10.611 10.611 0 0 1 54 20.62Z" clip-rule="evenodd"/>
  <path fill="#001E60" d="M36.12 32.9v10.71a9.324 9.324 0 0 1-.18 1.84 10.578 10.578 0 0 1-4.94-9V24.54a9.37 9.37 0 0 1 5.12 8.36Z"/>
  <path fill="#4DBDF5" d="M24.61 24H14.47a9.39 9.39 0 0 0-9.39 9.39v10.22A9.39 9.39 0 0 0 14.47 53h10.14A9.39 9.39 0 0 0 34 43.61V33.39A9.39 9.39 0 0 0 24.61 24Z"/>
  <path fill="#A9DDF7" d="M22 24h-8.61A9.39 9.39 0 0 0 4 33.39v10.22A9.39 9.39 0 0 0 13.39 53H22a9.39 9.39 0 0 0 9.39-9.39V33.39A9.39 9.39 0 0 0 22 24Z"/>
  <path fill="#001E60" fill-rule="evenodd" d="M43.26 31a8.131 8.131 0 0 0 8.26-8 8.13 8.13 0 0 0-8.26-8A8.131 8.131 0 0 0 35 23a8.13 8.13 0 0 0 8.26 8Z" clip-rule="evenodd"/>
  <path fill="#4DBDF5" d="M42 31a8 8 0 1 0 0-16 8 8 0 0 0 0 16Z"/>
  <path fill="#001E60" d="M42 28a5 5 0 1 0 0-10 5 5 0 0 0 0 10Z"/>
  <path fill="#0053E2" d="M43 26a3 3 0 1 0 0-6 3 3 0 0 0 0 6Z"/>
  <path fill="#fff" d="M42.5 24c.828 0 1.5-.668 1.5-1.49 0-.823-.672-1.49-1.5-1.49s-1.5.667-1.5 1.49c0 .822.672 1.49 1.5 1.49Z"/>
  <path fill="#0053E2" d="M14.69 40.57h-1.58l2.45-5.37h-3.18V34h4.69v1.32l-2.38 5.25Zm2.85-3.28c0-2.27 1.24-3.46 2.79-3.46s2.79 1.19 2.79 3.46-1.24 3.44-2.79 3.44-2.79-1.17-2.79-3.44Zm4 0c0-1.48-.46-2.19-1.25-2.19s-1.25.71-1.25 2.19.47 2.18 1.25 2.18 1.29-.71 1.29-2.18h-.04Zm4.16-2.53a1.05 1.05 0 0 1-1.13 1.06 1 1 0 0 1-1.14-1 1.06 1.06 0 0 1 1.14-1.06 1.05 1.05 0 0 1 1.13 1Zm-1.58 0a.41.41 0 0 0 .45.42.392.392 0 0 0 .43-.43.38.38 0 0 0-.43-.41.41.41 0 0 0-.45.43v-.01ZM14 44.5a.5.5 0 0 0-1 0v1a.5.5 0 0 0 1 0v-1Zm2 0a.5.5 0 0 0-1 0v1a.5.5 0 0 0 1 0v-1Zm2 0a.5.5 0 0 0-1 0v1a.5.5 0 0 0 1 0v-1Zm2 0a.5.5 0 0 0-1 0v1a.5.5 0 0 0 1 0v-1Zm2 0a.5.5 0 0 0-1 0v1a.5.5 0 0 0 1 0v-1Zm22.86 1.42h-4.72v4.72h4.72v-4.72Z"/>
</svg>
