<svg xmlns="http://www.w3.org/2000/svg" width="64" height="64" fill="none" viewBox="0 0 64 64">
  <path fill="#0053E2" d="M19.717 38.089c3.292-.902 4.304-7.675 2.261-15.126-2.043-7.452-6.367-12.76-9.659-11.859-3.291.903-4.304 7.675-2.261 15.127 2.043 7.451 6.367 12.76 9.659 11.858Z"/>
  <path fill="#001E60" d="M13.226 21.606c1.792-.485 3.123-1.33 2.972-1.887-.15-.556-1.726-.614-3.518-.13-1.792.486-3.122 1.331-2.971 1.888.15.556 1.725.614 3.517.129Z"/>
  <path fill="#001E60" d="M15.737 23.549c2.243-.615 3.905-1.68 3.714-2.377-.191-.698-2.164-.765-4.406-.15-2.243.614-3.906 1.678-3.714 2.376.191.698 2.164.765 4.406.15Z"/>
  <path fill="#0053E2" d="M16.895 27.78c2.44-.668 4.262-1.776 4.07-2.474-.19-.697-2.323-.72-4.763-.052-2.44.669-4.262 1.776-4.07 2.474.19.698 2.323.721 4.763.053Z"/>
  <path fill="#A9DDF7" d="M24.43 7.57A.57.57 0 0 1 25 7h12v4H24.43V7.57Z"/>
  <path fill="#4DBDF5" fill-rule="evenodd" d="M36.43 11h1.14L41 15.56v10.83h-8V15.56L36.43 11Z" clip-rule="evenodd"/>
  <path fill="#A9DDF7" d="M33.01 15.56H21v10.83h12.01V15.56Z"/>
  <path fill="#fff" d="M24.43 11h12L33 15.56H21L24.43 11Z"/>
  <path fill="#001E60" d="M46 20.52V20a7.11 7.11 0 0 1 2.08-5"/>
  <path fill="#001E60" d="M48.434 15.354a6.61 6.61 0 0 0-1.934 4.648v.518h-1v-.522l.01-.375a7.61 7.61 0 0 1 2.217-4.977l.707.707Zm-2.764.036a2.43 2.43 0 0 0-2.43-2.43h-1v1a2.43 2.43 0 0 0 2.43 2.43h1v-1Z"/>
  <path fill="#0053E2" fill-rule="evenodd" d="M46.22 19.24a.83.83 0 0 1-1.1 0 4.76 4.76 0 0 0-4.35-1.3c-2.7.71-4.09 4.17-3.11 7.74.98 3.57 4 5.9 6.67 5.19.318-.078.624-.199.91-.36a.9.9 0 0 1 .87 0c.284.163.59.284.91.36 2.7.71 5.68-1.61 6.67-5.19.99-3.58-.42-7-3.12-7.74a4.76 4.76 0 0 0-4.35 1.3Z" clip-rule="evenodd"/>
  <path fill="#001E60" fill-rule="evenodd" d="M53.69 25.69c-1 3.49-3.85 5.79-6.51 5.22 1.8-.43 3.51-2.44 4.15-5.22.84-3.58-.35-7-2.67-7.75a4 4 0 0 1 1.94 0c2.68.71 4.07 4.17 3.09 7.75Z" clip-rule="evenodd"/>
  <path fill="#4DBDF5" d="M37.57 7.57A.57.57 0 0 0 37 7a.58.58 0 0 0-.57.57V11h1.14V7.57Z"/>
  <path fill="#0053E2" d="M21.5 29.75h36.55l-2.57 23.14A3.51 3.51 0 0 1 52 56H26.75L21.5 29.75Z"/>
  <mask id="a" width="38" height="27" x="21" y="29" maskUnits="userSpaceOnUse" style="mask-type:luminance">
    <path fill="#fff" d="M21.5 29.75h36.55l-2.57 23.14A3.51 3.51 0 0 1 52 56H26.75L21.5 29.75Z"/>
  </mask>
  <g mask="url(#a)">
    <path fill="#001E60" fill-rule="evenodd" d="M58.99 29.75 58.74 32h-9.8l.25-2.25h9.8Z" clip-rule="evenodd"/>
  </g>
  <path fill="#4DBDF5" d="m50.08 29.75-.2 1.83-2.37 21.31A3.49 3.49 0 0 1 44 56H12a3.51 3.51 0 0 1-3.48-3.11L6.15 31.58 6 29.75h44.08Z"/>
  <mask id="b" width="45" height="27" x="6" y="29" maskUnits="userSpaceOnUse" style="mask-type:luminance">
    <path fill="#fff" d="m50.08 29.75-.2 1.83-2.37 21.31A3.49 3.49 0 0 1 44 56H12a3.51 3.51 0 0 1-3.48-3.11L6.15 31.58 6 29.75h44.08Z"/>
  </mask>
  <g mask="url(#b)">
    <path fill="#0053E2" fill-rule="evenodd" d="m6 32-.05-2.25h44.13L50 32" clip-rule="evenodd"/>
  </g>
  <path fill="#4DBDF5" d="M20.33 25.08h30.92V30H20.33v-4.92Z"/>
  <path fill="#A9DDF7" d="M4 25h23a2.5 2.5 0 0 1 0 5H4v-5Z"/>
  <path fill="#0053E2" d="M27.33 28.59a1.17 1.17 0 1 0 0-2.34 1.17 1.17 0 0 0 0 2.34Z"/>
  <path fill="#0053E2" fill-rule="evenodd" d="M15 36a2 2 0 0 0-2 2v11a2 2 0 0 0 4 0V38a2 2 0 0 0-2-2Zm8 0a2 2 0 0 0-2 2v11a2 2 0 0 0 4 0V38a2 2 0 0 0-2-2Zm6 2a2 2 0 0 1 4 0v11a2 2 0 0 1-4 0V38Zm10-2a2 2 0 0 0-2 2v11a2 2 0 0 0 4 0V38a2 2 0 0 0-2-2Z" clip-rule="evenodd"/>
  <path fill="#001E60" fill-rule="evenodd" d="M15.62 36a2 2 0 0 0-1.45 2v11a2 2 0 0 0 1.45 2 2 2 0 0 0 1.46-2V38a2 2 0 0 0-1.46-2Zm8.01 0a2 2 0 0 0-1.46 2v11a2 2 0 0 0 1.46 2 2 2 0 0 0 1.45-2V38a2 2 0 0 0-1.45-2Zm7.99 0a2 2 0 0 1 1.46 2v11a2 2 0 0 1-1.46 2 2 2 0 0 1-1.45-2V38a2 2 0 0 1 1.45-2Zm7.92 0a2.06 2.06 0 0 0-1.46 2v11a2.06 2.06 0 0 0 1.46 2A2.06 2.06 0 0 0 41 49V38a2.06 2.06 0 0 0-1.46-2Z" clip-rule="evenodd"/>
  <path fill="#0053E2" d="M60 25.08h-8.75V30H60v-4.92Z"/>
</svg>
