<svg xmlns="http://www.w3.org/2000/svg" width="64" height="64" fill="none" viewBox="0 0 64 64">
  <path fill="#0053E2" d="M52.028 16.82A11.18 11.18 0 0 0 40.948 7a11.17 11.17 0 0 0-11.07 9.8l-1.05 8.56v.17h1.95l1-8.5a9.24 9.24 0 0 1 15.274-5.721 9.22 9.22 0 0 1 3.046 5.771l1 8.37v.13h2l-1.07-8.76Z"/>
  <path fill="#001E60" fill-rule="evenodd" d="m52.538 19 .29 2.36h-2.37l-.29-2.36h2.37Zm-20.79 0h-2.37l-.29 2.36h2.38l.28-2.36Z" clip-rule="evenodd"/>
  <path fill="#0053E2" d="M59.746 52.06a3.62 3.62 0 0 1-3.43 3.94h-30.74a3.242 3.242 0 0 1-.89-.13 3.67 3.67 0 0 1-2.53-3.81l.89-18.88.14-2.52h35.52l.14 2.53.9 18.87Z"/>
  <path fill="#001E60" d="M58.857 33c-.193.08-.39.15-.59.21A56.002 56.002 0 0 1 40.947 36a58.623 58.623 0 0 1-12.3-1.37 47.259 47.259 0 0 1-5-1.38 4.72 4.72 0 0 1-.59-.22l.14-2.52h35.53l.13 2.49Z"/>
  <path fill="#0053E2" d="M40.947 21h18.15l1 7.81a2.94 2.94 0 0 1-2.44 2.82A57.6 57.6 0 0 1 40.947 34a57.597 57.597 0 0 1-16.64-2.44 2.94 2.94 0 0 1-2.44-2.82l1-7.81 18.08.07Z"/>
  <path fill="#001E60" stroke="#001E60" d="M40.856 30.14a.8.8 0 1 1 0 1.6.8.8 0 0 1 0-1.6Z"/>
  <path fill="#0053E2" d="m46.617 51.35 2.33 4.65h-11.17l-.17-8 5.78 1a4.43 4.43 0 0 1 3.23 2.35Z"/>
  <path fill="#4DBDF5" d="m24.887 39.08-4-4.43a1 1 0 0 0-1.32-.15c-1.21.85-3.24 2.91-1.77 6.59"/>
  <path fill="#4DBDF5" d="m5.037 49 .13-4.07a3.16 3.16 0 0 1 .78-1.93c.27-.32.22-.43.14-.85-.08-.42-.14-.84-.18-1.27a5.14 5.14 0 0 1 0-1.24c0-.33.12-.85.45-1a.49.49 0 0 1 .41 0c.219.093.404.25.53.45.53.67 1.79 3.53 5.29 3.53a7.41 7.41 0 0 0 5.48-2.83l.87-.86a3.52 3.52 0 0 1 3.36-.93 9.88 9.88 0 0 1 3 1.29l9.25 6a16.91 16.91 0 0 0 3.79 1.81l5 1.67a2.7 2.7 0 0 1 1.49 1.23l.49.86h-30.37L5.037 49Z"/>
  <path fill="#A9DDF7" d="M45.257 50.72h-17.86c-8.58 0-22.36-1.76-22.36-1.76l-.52 1.14a5.85 5.85 0 0 0 0 4.81 2 2 0 0 0 1.78 1.15h37.07a2.351 2.351 0 0 0 2.32-2.74l-.43-2.6Z"/>
  <path fill="#fff" d="M25.92 39.68a.748.748 0 0 0-.223-1.034.747.747 0 0 0-1.032.23l-.577.9a.748.748 0 0 0 .222 1.034.748.748 0 0 0 1.032-.23l.578-.9Zm2.238 1.441a.748.748 0 0 0-.222-1.033.748.748 0 0 0-1.032.229l-.578.9a.748.748 0 0 0 .222 1.034.748.748 0 0 0 1.032-.229l.578-.9Zm.405 1.545a.748.748 0 0 0 .222 1.033.748.748 0 0 0 1.032-.229l.578-.9a.748.748 0 0 0-.222-1.034.748.748 0 0 0-1.032.23l-.578.9Zm2.242 1.438a.748.748 0 0 0 .222 1.034.748.748 0 0 0 1.032-.23l.578-.9a.747.747 0 0 0-.222-1.033.748.748 0 0 0-1.032.229l-.578.9Zm2.245 1.433a.747.747 0 0 0 .221 1.033.747.747 0 0 0 1.032-.229l.578-.9a.747.747 0 0 0-.222-1.034.748.748 0 0 0-1.032.23l-.578.9Z"/>
</svg>
