<svg xmlns="http://www.w3.org/2000/svg" width="64" height="64" fill="none" viewBox="0 0 64 64">
  <path fill="#A9DDF7" d="M58.37 8h-33v48h33V8Z"/>
  <path fill="#0053E2" d="M23.9 44.05H11.49v2.3H23.9v-2.3Z"/>
  <path fill="#0053E2" d="M7.81 56a1.15 1.15 0 0 1-.83-1.94l8.92-9.37a2.08 2.08 0 0 1 1.5-.64h6.5a1.15 1.15 0 1 1 0 2.29h-6.4l-8.86 9.3a1.129 1.129 0 0 1-.83.36Z"/>
  <path fill="#001E60" fill-rule="evenodd" d="M17.37 44.05a2.06 2.06 0 0 0-1.5.64l-1.5 1.65h9.57v-2.29h-6.57Z" clip-rule="evenodd"/>
  <path fill="#0053E2" d="M44.59 44.05H32.18v2.3h12.41v-2.3Z"/>
  <path fill="#0053E2" d="M48.269 56a1.152 1.152 0 0 1-.83-.36l-8.86-9.3h-6.4a1.15 1.15 0 1 1 0-2.29h6.5a2.06 2.06 0 0 1 1.5.64l8.92 9.37a1.15 1.15 0 0 1-.83 1.94Z"/>
  <path fill="#001E60" fill-rule="evenodd" d="M38.68 44.05a2.06 2.06 0 0 1 1.5.64l1.57 1.65h-9.57v-2.29h6.5Z" clip-rule="evenodd"/>
  <path fill="#001E60" d="M17.92 55.93a8.21 8.21 0 1 1 8.22-8.21 8.22 8.22 0 0 1-8.22 8.21Zm0-13.79a5.59 5.59 0 1 0 0 11.181 5.59 5.59 0 0 0 0-11.181Z"/>
  <path fill="#001E60" fill-rule="evenodd" d="M33.56 47.72a5.52 5.52 0 1 0 11.04.02 5.52 5.52 0 0 0-11.04-.02Zm-2.76 0a8.282 8.282 0 0 0 11.51 7.91 8.279 8.279 0 0 0 5.04-7.91.64.64 0 0 1 .42-.6l2-.67a.47.47 0 0 0 .31-.44v-2a.46.46 0 0 0-.46-.46c-2.11 0-4-1.27-5.66-2.53a8.28 8.28 0 0 0-13.19 6.66l.03.04Z" clip-rule="evenodd"/>
  <path fill="#0053E2" fill-rule="evenodd" d="M32.18 47.72a6 6 0 1 0 11.999 0 6 6 0 0 0-12 0Zm-2.3 0a8.28 8.28 0 1 0 16.55 0 .64.64 0 0 1 .42-.6l2-.67a.47.47 0 0 0 .31-.44v-2a.45.45 0 0 0-.46-.46c-2.11 0-4-1.27-5.66-2.53a8.28 8.28 0 0 0-13.19 6.66l.03.04Z" clip-rule="evenodd"/>
  <path fill="#0053E2" d="M24.37 44.05a6.1 6.1 0 0 1 6.44 0l-.46 2.29a4.6 4.6 0 0 0-5.52 0l-.46-2.29Z"/>
  <path fill="#0053E2" fill-rule="evenodd" d="M22.98 47.72a6 6 0 1 1-12 0 6 6 0 0 1 12 0Zm2.3 0a8.28 8.28 0 1 1-16.55 0 .64.64 0 0 0-.42-.6l-2-.67a.47.47 0 0 1-.31-.44v-2a.46.46 0 0 1 .46-.46c2.11 0 4-1.27 5.66-2.53a8.28 8.28 0 0 1 13.19 6.66l-.03.04Z" clip-rule="evenodd"/>
  <path fill="#0053E2" d="M44.71 16.58v-1a.11.11 0 0 0-.1-.1h-4.24a.1.1 0 0 0-.1.1v1.47a.1.1 0 0 0 .06.102.1.1 0 0 0 .04.008h3.59a.09.09 0 0 1 .074.026.091.091 0 0 1 .026.074v1.27a.1.1 0 0 1-.1.1h-3.59a.1.1 0 0 0-.1.11v1.64a.1.1 0 0 0 .1.1h4.39a.11.11 0 0 0 .1-.1V19a.11.11 0 0 1 .11-.11h1.29a.11.11 0 0 1 .1.11v2.89a.11.11 0 0 1-.1.1h-8.48a.11.11 0 0 1-.11-.1V20.6a.11.11 0 0 1 .11-.11h.59a.11.11 0 0 0 .11-.1v-4.8a.11.11 0 0 0-.11-.1h-.55a.11.11 0 0 1-.11-.11V14.1a.11.11 0 0 1 .11-.1h8.32a.11.11 0 0 1 .1.1v2.48a.11.11 0 0 1-.1.11h-1.29a.109.109 0 0 1-.098-.02.11.11 0 0 1-.042-.09ZM30.37 26h3a2.001 2.001 0 0 1 2.21 2.18 2 2 0 0 1-2.28 2.25h-2.93v-.86h.42v-2.71h-.42V26Zm1.48 3.56h1.34c.82 0 1.27-.45 1.26-1.37 0-1.22-.77-1.34-1.2-1.34h-1.41l.01 2.71Zm16.6-3.64h3.21c.93 0 1.76.36 1.76 1.43 0 1.34-1.24 1.47-1.78 1.48h-1.71v.67h.44v.86h-1.9v-.86h.43v-2.71h-.42l-.03-.87Zm1.47 2h1.56c.5 0 .82-.21.82-.61 0-.57-.59-.58-.83-.57h-1.55v1.18Zm-10.24-2h1.89v.86h-.43v2.71h2.26v-.87h.86v1.74h-4.59v-.86h.42v-2.71h-.42l.01-.87Z"/>
  <path fill="#4DBDF5" d="M53.37 33h-23v1h23v-1Zm0 3h-23v1h23v-1Z"/>
</svg>
