<svg xmlns="http://www.w3.org/2000/svg" width="64" height="64" fill="none" viewBox="0 0 64 64">
  <path fill="#4DBDF5" d="M27 36.5a2.5 2.5 0 0 0 2.5 2.5h22a2.5 2.5 0 0 0 0-5h-22a2.5 2.5 0 0 0-2.5 2.5Z"/>
  <path fill="#A9DDF7" d="M9 36.5a2.5 2.5 0 0 0 2.5 2.5h27.67a2.5 2.5 0 0 0 0-5H11.5A2.5 2.5 0 0 0 9 36.5Z"/>
  <path fill="#4DBDF5" d="M55.13 28H42.62a1.359 1.359 0 0 0-.4-1L40 24.8a9.58 9.58 0 0 0-6.76-2.8h12.51a9.56 9.56 0 0 1 6.76 2.8l2.24 2.24a1.32 1.32 0 0 1 .38.96Z"/>
  <path fill="#A9DDF7" d="M42.62 28H8.56a1.36 1.36 0 0 1 .4-1l2.24-2.24A9.58 9.58 0 0 1 18 22h15.26a9.58 9.58 0 0 1 6.76 2.8l2.24 2.24c.24.261.369.606.36.96Z"/>
  <path fill="#4DBDF5" d="M42.62 28a1.36 1.36 0 0 1-.4 1L40 31.2a9.58 9.58 0 0 1-6.76 2.8H18a9.58 9.58 0 0 1-6.76-2.8L9 29a1.36 1.36 0 0 1-.4-1h34.02Z"/>
  <path fill="#0053E2" d="M55.13 28a1.318 1.318 0 0 1-.4 1l-2.24 2.24a9.56 9.56 0 0 1-6.76 2.8H33.22a9.58 9.58 0 0 0 6.76-2.8L42.22 29a1.36 1.36 0 0 0 .4-1h12.51Z"/>
  <path fill="#4DBDF5" d="M55.13 16H42.62a1.359 1.359 0 0 0-.4-1L40 12.8a9.58 9.58 0 0 0-6.76-2.8h12.51a9.56 9.56 0 0 1 6.76 2.8l2.24 2.24a1.32 1.32 0 0 1 .38.96Z"/>
  <path fill="#A9DDF7" d="M42.62 16H8.56a1.36 1.36 0 0 1 .4-1l2.24-2.24A9.58 9.58 0 0 1 18 10h15.26a9.58 9.58 0 0 1 6.76 2.8l2.24 2.24c.24.261.369.606.36.96Z"/>
  <path fill="#4DBDF5" d="M42.62 16a1.36 1.36 0 0 1-.4 1L40 19.2a9.58 9.58 0 0 1-6.76 2.8H18a9.58 9.58 0 0 1-6.76-2.8L9 17a1.36 1.36 0 0 1-.4-1h34.02Z"/>
  <path fill="#0053E2" d="M55.13 16a1.318 1.318 0 0 1-.4 1l-2.24 2.24a9.56 9.56 0 0 1-6.76 2.8H33.22a9.58 9.58 0 0 0 6.76-2.8L42.22 17a1.36 1.36 0 0 0 .4-1h12.51Z"/>
  <path fill="#001E60" d="M24.55 46c0-3.86 2.49-7 6.34-7H49a7 7 0 1 1 0 14H30.89c-3.85 0-6.34-3.12-6.34-7Z"/>
  <path fill="#0053E2" d="M24.31 46c0-3.87 2.49-7 6.35-7h7.54a7 7 0 1 1 0 14h-7.54c-3.86 0-6.35-3.13-6.35-7Z"/>
  <path fill="#0053E2" d="M8 43.51A4.51 4.51 0 0 1 12.51 39H31a2.81 2.81 0 0 1 2.81 2.82v3.38A2.81 2.81 0 0 1 31 48H12.51A4.51 4.51 0 0 1 8 43.49v.02ZM10 49h19.47a1.5 1.5 0 0 1 1.5 1.5v1a1.5 1.5 0 0 1-1.5 1.5H10a2 2 0 1 1 0-4Z"/>
  <path fill="#001E60" d="M39 46.01a1.992 1.992 0 0 0-1.998-1.99H12V43h25v.001a3.008 3.008 0 0 1 3.02 3.009l-.014.296a3.018 3.018 0 0 1-1.85 2.494c-.367.152-.76.23-1.156.23H12v-1.02h25a2.001 2.001 0 0 0 1.99-1.804l.01-.196Z"/>
</svg>
