<svg xmlns="http://www.w3.org/2000/svg" width="64" height="64" fill="none" viewBox="0 0 64 64">
  <path fill="#4DBDF5" d="M26.72 15.85a3.83 3.83 0 0 1-3.72 3V56l18-2.33V14l-14.28 1.85Z"/>
  <path fill="#A9DDF7" d="M19.29 15.88 4 14v39.67L23 56V18.82a3.82 3.82 0 0 1-3.71-2.94Z"/>
  <path fill="#0053E2" d="m60 56-19-2.33V14l19 2.33V56Z"/>
  <path fill="#001E60" d="M23 8a7 7 0 0 0-7 6.92c0 6.92 7 11.53 7 11.53s7-4.61 7-11.53A7 7 0 0 0 23 8Zm0 10.82a3.82 3.82 0 1 1 0-7.64 3.82 3.82 0 0 1 0 7.64Z"/>
</svg>
