<svg xmlns="http://www.w3.org/2000/svg" width="64" height="64" fill="none" viewBox="0 0 64 64">
  <path fill="#001E60" d="M53.32 48.31c.688-2.57-.574-5.143-2.82-5.745-2.246-.601-4.625.995-5.314 3.567-.689 2.57.573 5.143 2.82 5.745 2.245.602 4.624-.995 5.313-3.566Zm-27.997-.003c.69-2.572-.573-5.144-2.819-5.745-2.246-.602-4.625.994-5.314 3.566-.689 2.57.573 5.143 2.82 5.745 2.245.602 4.624-.995 5.313-3.566Z"/>
  <path fill="#001E60" d="m60.91 36-.77 9a2.18 2.18 0 0 1-2.17 2H45.52v-.06L34.11 20.36h4.43l-3.21-8.3H47a3 3 0 0 1 2.79 1.85L57 31l3.41 3.42c.141.175.256.37.34.58.132.316.186.658.16 1Z"/>
  <path fill="#0053E2" d="M60.75 35H48l-.83 10A2.2 2.2 0 0 1 45 47H3V12h33.15a3 3 0 0 1 2.64 1.85L46 31h11l3.41 3.42c.142.175.256.37.34.58Z"/>
  <path fill="#001E60" d="M13.753 48.234c.69-2.57-.443-5.108-2.529-5.667-2.086-.56-4.335 1.072-5.024 3.644-.69 2.57.443 5.108 2.53 5.667 2.085.56 4.334-1.072 5.023-3.644Zm28.037-.004c.69-2.572-.443-5.11-2.529-5.668-2.086-.559-4.335 1.072-5.024 3.644-.689 2.57.443 5.108 2.53 5.667 2.085.56 4.334-1.072 5.023-3.643Z"/>
  <path fill="#A9DDF7" d="M33 20h5.06a1.94 1.94 0 0 1 1.8 1.2L44 31h-9a2 2 0 0 1-2-2v-9Z"/>
  <path fill="#4DBDF5" fill-rule="evenodd" d="M52 43c.66.08 1.31-.79 1.45-1.94.14-1.15-.28-2.16-.94-2.24-.66-.08-1.31.79-1.45 1.94-.14 1.15.25 2.15.94 2.24Zm5.55 0c.66.08 1.31-.79 1.45-1.94.14-1.15-.27-2.16-.93-2.24-.66-.08-1.31.79-1.46 1.94-.15 1.15.25 2.15.91 2.24h.03Z" clip-rule="evenodd"/>
  <path fill="#4DBDF5" d="M57 31H46l-4.64-11h10.99L57 31Z"/>
</svg>
