<svg xmlns="http://www.w3.org/2000/svg" width="64" height="64" fill="none" viewBox="0 0 64 64">
  <path fill="#0053E2" d="M47 52.027h6.3a4.59 4.59 0 0 1 4.58 4.58H47v-4.58Z"/>
  <path fill="#4DBDF5" d="M24.12 49.428a11.24 11.24 0 0 1-3.36-2.65 12.222 12.222 0 0 1-2.2-3.59 14.291 14.291 0 0 1-1-5.34 11.48 11.48 0 0 1 2.78-7.55 28.569 28.569 0 0 1 5.26-4.61 24.72 24.72 0 0 0 3.74-3.15 4.27 4.27 0 0 0 1.26-2.92 2.83 2.83 0 0 0-.69-1.84 2.72 2.72 0 0 0-2.17-.87 3.001 3.001 0 0 0-2.26.89 2.19 2.19 0 0 1-1.59.67 2.19 2.19 0 0 1-1.51-.6 2.2 2.2 0 0 1-.07-3.1 7.29 7.29 0 0 1 2.33-1.62 7.77 7.77 0 0 1 3.1-.62 7.678 7.678 0 0 1 3.13.64 6.78 6.78 0 0 1 2.33 1.71 7.25 7.25 0 0 1 1.8 4.73 8.57 8.57 0 0 1-2.35 5.81 27.736 27.736 0 0 1-4.42 3.77 25.178 25.178 0 0 0-4.49 3.89 7.11 7.11 0 0 0-1.78 4.76 8.92 8.92 0 0 0 2 5.9 7.11 7.11 0 0 0 2 1.7l-1.84 3.99Z"/>
  <path fill="#0053E2" fill-rule="evenodd" d="M54.61 24.208c-10.08 0-17.61 8.18-17.61 18.26v14.14h15.91l1.7-32.4Z" clip-rule="evenodd"/>
  <path fill="#4DBDF5" fill-rule="evenodd" d="M58 14.197v19.41a8.79 8.79 0 0 1-4.269 7.54l-4.05 2.46-.68 13H33.26v-.88l-2.8-.35c9.1-5.75 10.6-17.29 4.63-25.43a21.82 21.82 0 0 1 9.91-5.41v-10.34h13Z" clip-rule="evenodd"/>
  <path fill="#4DBDF5" d="M58 8.608a.6.6 0 0 0-.18-.44.61.61 0 0 0-.84 0l-5.46 4.92 6.48 3.52v-8Zm-13 0a.6.6 0 0 1 .18-.44.61.61 0 0 1 .84 0l5.46 4.92-6.48 3.52v-8Z"/>
  <path fill="#0053E2" d="M57 10.328a.37.37 0 0 0-.1-.24.34.34 0 0 0-.45 0l-3 2.63 3.55 1.89v-4.28Zm-11 0a.37.37 0 0 1 .1-.24.34.34 0 0 1 .45 0l3 2.63-3.55 1.89v-4.28Z"/>
  <path fill="#4DBDF5" d="M51.52 18.908c3.578 0 6.48-1.715 6.48-3.83s-2.902-3.83-6.48-3.83c-3.58 0-6.48 1.715-6.48 3.83s2.9 3.83 6.48 3.83Z"/>
  <path fill="#001E60" fill-rule="evenodd" d="M53.05 19.317a.591.591 0 0 0-.58-.71h-1.9a.591.591 0 0 0-.58.71 1.672 1.672 0 0 1 1.19 1.06h.68a1.67 1.67 0 0 1 1.19-1.06Z" clip-rule="evenodd"/>
  <path fill="#001E60" d="m43.13 20.878-.22-.51 3.41-1.46-3.41-1.46.22-.51 4.59 1.97-4.59 1.97Zm16.78 0-4.59-1.97 4.59-1.97.22.51-3.41 1.46 3.41 1.46-.22.51Z"/>
  <path fill="#0053E2" fill-rule="evenodd" d="M34.25 54.938a8.24 8.24 0 0 0 5.6-7.81v-.65c.781.51 1.497 1.114 2.13 1.8a11.9 11.9 0 0 1 2.36 3.82 12.57 12.57 0 0 1 .83 4.51h-10.9l-.02-1.67Z" clip-rule="evenodd"/>
  <path fill="#4DBDF5" d="M32.78 51.898h6.48a4.71 4.71 0 0 1 4.74 4.71H32.78v-4.71Zm15.51.459h1.46a4.25 4.25 0 0 1 4.25 4.25h-5.71v-4.25Z"/>
  <path fill="#001E60" d="M49.82 16.608a2.33 2.33 0 0 0-1.27-.38 2.24 2.24 0 0 0-1.26.38l-.3-.39a2.68 2.68 0 0 1 1.56-.48 2.77 2.77 0 0 1 1.57.48l-.3.39Zm3.4 0-.3-.39a2.77 2.77 0 0 1 1.57-.48 2.68 2.68 0 0 1 1.56.48l-.3.39a2.29 2.29 0 0 0-2.53 0Z"/>
  <path fill="#A9DDF7" fill-rule="evenodd" d="m33 28.607 2-.86v-1.14H8v1l2 1h23Z" clip-rule="evenodd"/>
  <path fill="#A9DDF7" fill-rule="evenodd" d="M39 40.687a17.51 17.51 0 0 1-9.91 15.77H13.91A17.51 17.51 0 0 1 4 40.687a17.47 17.47 0 0 1 6-13.16h23a17.47 17.47 0 0 1 6 13.16Z" clip-rule="evenodd"/>
  <path fill="#0053E2" fill-rule="evenodd" d="M37 40.837a15.42 15.42 0 0 1-5.43 11.77H11.43A15.42 15.42 0 0 1 6 40.837a15.46 15.46 0 0 1 2.36-8.23h26.28a15.46 15.46 0 0 1 2.36 8.23Z" clip-rule="evenodd"/>
  <path fill="#001E60" fill-rule="evenodd" d="M31.57 52.607a14.996 14.996 0 0 1-3 2H14.4a14.996 14.996 0 0 1-3-2h20.17Z" clip-rule="evenodd"/>
  <path fill="#A9DDF7" fill-rule="evenodd" d="m30.7 54.607 2.3 1v1H10v-1l2.51-1H30.7Z" clip-rule="evenodd"/>
  <path fill="#4DBDF5" d="M16.65 35.608a.65.65 0 1 0 0-1.3.65.65 0 0 0 0 1.3Zm-1 5.299a.65.65 0 1 0 0-1.3.65.65 0 0 0 0 1.3Zm1.35-2.3a1 1 0 1 0 0-2 1 1 0 0 0 0 2Z"/>
  <path fill="#4DBDF5" fill-rule="evenodd" d="m17.53 41.008 4.42-2.61a7.55 7.55 0 0 1 1.89 4.81" clip-rule="evenodd"/>
  <path fill="#4DBDF5" d="M28.38 43.608H14s1.49 3 6 3a7 7 0 0 0 5.36-2.11.42.42 0 0 1 .62 0l4.06 4.07v-3.26a1.63 1.63 0 0 0-1.66-1.7Z"/>
  <path fill="#A9DDF7" d="M26 42.787a.429.429 0 0 1-.62 0 7 7 0 0 0-5.36-2.12c-4.48 0-6 3-6 3H28.4a1.63 1.63 0 0 0 1.63-1.63v-3.26L26 42.787Z"/>
  <path fill="#fff" d="M17 44.607a1 1 0 1 0 0-2 1 1 0 0 0 0 2Z"/>
  <path fill="#001E60" d="M17 44.107a.5.5 0 1 0 0-1 .5.5 0 0 0 0 1Z"/>
  <path fill="#0053E2" d="m58 26.607-6.48-2.4.91-.12a8 8 0 0 0 5.57-3.48v6Z"/>
</svg>
