<svg xmlns="http://www.w3.org/2000/svg" width="64" height="64" fill="none" viewBox="0 0 64 64">
  <path fill="#001E60" d="M52.998 43.82a2.709 2.709 0 0 0-2.29-.47 3 3 0 0 0-2.91-2.16 3.06 3.06 0 0 0-3 2.86 3.996 3.996 0 0 0-.59-.18 3 3 0 0 0-2.23.38 2.06 2.06 0 0 0-.91 2h4.46a3 3 0 0 0 2.32 1.07 3.07 3.07 0 0 0 2.35-1.1h3.86a2.72 2.72 0 0 0-1.06-2.4Z"/>
  <path fill="#A9DDF7" d="M57.368 53.12h-20.19l1.35-6.32a1 1 0 0 1 1-.79h15.47a1 1 0 0 1 1 .8l.82 4 .17.82.08.34.3 1.15Z"/>
  <path fill="#4DBDF5" d="M57.368 53.12h-18.05l-.32-1.12h18.09l.28 1.12Z"/>
  <path fill="#A9DDF7" d="M59.888 57h-24.4v-3a1 1 0 0 1 1-1h21.62a1.2 1.2 0 0 1 1.16.95l.62 3.05Z"/>
  <path fill="#4DBDF5" d="M48.997 57h-3s-1.49-1.48-2.85-3.07l-.68-.81c-.31-.39-.61-.77-.85-1.12h5a6 6 0 0 1 1.17 1.12c.207.253.391.524.55.81.51.939.74 2.005.66 3.07Z"/>
  <path fill="#0053E2" fill-rule="evenodd" d="M39.248 21.49h-3.25V57h11v-.88a5.15 5.15 0 0 0-3.43-4.86l-2.21-.79-2.11-28.98Z" clip-rule="evenodd"/>
  <path fill="#4DBDF5" d="M41.837 57v-.38a5.18 5.18 0 0 0-4.05-5l-1.76-.39v-8.72a7.1 7.1 0 0 0 4.71-6.4l.45-10.7-5.81-10-23.52 20.88a15.48 15.48 0 0 0-5.15 11.53v5.36a3.88 3.88 0 0 0 3.88 3.82h31.25Z"/>
  <path fill="#4DBDF5" d="M24.717 41.46c-3.43 4.21-9 10.26-14.07 7.76a11.91 11.91 0 0 1-5.42-15.95 11.8 11.8 0 0 1 4.87-5.13 1.08 1.08 0 0 1 1.35 1.64c-.55.677-1.02 1.415-1.4 2.2-2.57 5.37-.29 10.4 3.89 10.77 3.12.25 7.77.42 10.78-1.29Z"/>
  <path fill="#0053E2" fill-rule="evenodd" d="M22.457 43.84a9.05 9.05 0 0 1-7.42 8.5V57h12a22.79 22.79 0 0 0-.91-6.42 18.32 18.32 0 0 0-2.59-5.45 14.93 14.93 0 0 0-1.08-1.29Z" clip-rule="evenodd"/>
  <path fill="#4DBDF5" d="m11.418 50.54 7.65.81a5.17 5.17 0 0 1 4.62 5.13V57h-12.27v-6.46Z"/>
  <path fill="#0053E2" d="M41.897 33a6.46 6.46 0 0 0 8.78 2.51 6.46 6.46 0 0 0 2.51-8.78L41.897 33Zm11.29-6.27L43.497 9.3l-11.28 6.27L41.897 33l11.29-6.27Z"/>
  <path fill="#0053E2" d="M32.097 33a6.46 6.46 0 0 1-8.78 2.51 6.46 6.46 0 0 1-2.51-8.78L32.097 33Zm-11.29-6.27 9.69-17.43 11.28 6.27L32.097 33l-11.29-6.27Z"/>
  <path fill="#4DBDF5" d="M28.828 12.67A6.448 6.448 0 0 1 35.278 6h3.44a6.45 6.45 0 0 1 6.45 6.67l-.3 8.95a3.88 3.88 0 0 1-3.87 3.75h-8a3.88 3.88 0 0 1-3.87-3.75l-.3-8.95Z"/>
  <path fill="#001E60" d="m30.998 17-.57-.32a2.27 2.27 0 0 1 1.93-1.07 2.28 2.28 0 0 1 1.94 1.07l-.57.32a1.6 1.6 0 0 0-1.37-.74 1.6 1.6 0 0 0-1.36.74Zm9.25 0-.57-.32a2.28 2.28 0 0 1 1.94-1.07 2.268 2.268 0 0 1 1.93 1.07l-.55.32a1.599 1.599 0 0 0-1.36-.74 1.6 1.6 0 0 0-1.39.74Z"/>
  <path fill="#0053E2" d="M32.767 27.45a2.24 2.24 0 0 1 2.23-2.73h4a2.24 2.24 0 0 1 2.19 2.73 3.93 3.93 0 0 1-3.83 3.08h-.8a3.93 3.93 0 0 1-3.79-3.08Z"/>
  <path fill="#fff" d="M34.998 6h4v9.78a4.74 4.74 0 0 0 2.81 4.39 3.82 3.82 0 0 1 2.29 3.51v.84a4.07 4.07 0 0 1-4.1 4.07 2.541 2.541 0 0 1-2.16-1.19l-.84-1.4-.87 1.39a2.54 2.54 0 0 1-2.13 1.2 4.07 4.07 0 0 1-4.07-4.07v-.84a3.82 3.82 0 0 1 2.29-3.51 4.74 4.74 0 0 0 2.78-4.39V6Z"/>
  <path fill="#001E60" d="M38.997 22.12a3.4 3.4 0 0 0-3.92 0 1.68 1.68 0 0 0-.52 1.58v.35a1.29 1.29 0 0 0 .66 1l1.78 1 1.78-1a1.288 1.288 0 0 0 .66-1v-.35a1.679 1.679 0 0 0-.44-1.58Z"/>
</svg>
