<svg xmlns="http://www.w3.org/2000/svg" width="64" height="64" fill="none" viewBox="0 0 64 64">
  <path fill="#001E60" d="m42.46 15.002-9.08-2.66a3.29 3.29 0 0 1-2.23-2.15 3.071 3.071 0 0 1 .46-2.76A3.11 3.11 0 0 1 34 6.002a3.31 3.31 0 0 1 2.79 1.36l5.67 7.64Zm-8.54-4.5 3.59 1.05-2.22-3a1.4 1.4 0 0 0-1.16-.58 1.18 1.18 0 0 0-.94.57 1.16 1.16 0 0 0-.19 1.03 1.379 1.379 0 0 0 .94.89l-.02.04Z"/>
  <path fill="#001E60" d="M39 14.192a1 1 0 0 1-.8-.41 1 1 0 0 1 0-1.14l3.9-5.27a3.3 3.3 0 0 1 2.78-1.37 3.06 3.06 0 0 1 2.43 1.39 3.07 3.07 0 0 1 .47 2.76 3.33 3.33 0 0 1-2.24 2.15l-6.29 1.84a.841.841 0 0 1-.25.05Zm4.17-5-1.74 2.36 3.57-1.09a1.38 1.38 0 0 0 1-.88 1.18 1.18 0 0 0-.22-1.08 1.15 1.15 0 0 0-.93-.57 1.37 1.37 0 0 0-1.16.58l-.52.68Z"/>
  <path fill="#001E60" d="M57 57.002H26.15l3.39-44H53l4 44Z"/>
  <path fill="#0053E2" d="M51 57.002H26l2-44h22l1 44Z"/>
  <path fill="#001E60" d="m40 13.002-.4 44h-2l.4-44h2Z"/>
  <path fill="#A9DDF7" d="M18 35.732a27.17 27.17 0 0 0-3.87-2 25.66 25.66 0 0 0-2.43-.91 1.3 1.3 0 0 0-1.7 1.18v4.86h8v-3.13Zm2 0a27.17 27.17 0 0 1 3.87-2 25.649 25.649 0 0 1 2.43-.91 1.3 1.3 0 0 1 1.7 1.18v4.86h-8v-3.13Z"/>
  <path fill="#4DBDF5" d="M17.7 34.812h2.6a.7.7 0 0 1 .7.7v2.24h-4v-2.24a.7.7 0 0 1 .7-.7Z"/>
  <path fill="#001E60" fill-rule="evenodd" d="M31 37.562H10.28v19.44h24.83L31 37.561Z" clip-rule="evenodd"/>
  <path fill="#4DBDF5" d="M30 38.702H8v18.3h22v-18.3Z"/>
  <path fill="#4DBDF5" d="M7.83 37.002h22.34a.83.83 0 0 1 .83.83v4.17a1 1 0 0 1-1 1H8a1 1 0 0 1-1-1v-4.16a.83.83 0 0 1 .83-.84Z"/>
  <path fill="#0053E2" d="M30 43.002H8v2h22v-2Z"/>
  <path fill="#A9DDF7" d="M21 37.002h-4v20h4v-20Z"/>
  <path fill="#4DBDF5" d="M21 43.002h-4v2h4v-2Z"/>
</svg>
