<svg xmlns="http://www.w3.org/2000/svg" width="64" height="64" fill="none" viewBox="0 0 64 64">
  <path fill="#0053E2" fill-rule="evenodd" d="M24.341 5v13.91a3.44 3.44 0 0 1-2.77 3.1c-1.9.49-3.79-.36-4.22-1.91-.43-1.55.78-3.2 2.68-3.7a4 4 0 0 1 2.54.13V9.36l-10 3.51v9a3.42 3.42 0 0 1-2.77 3.1c-1.9.5-3.79-.35-4.22-1.9-.43-1.55.78-3.21 2.68-3.7a4.11 4.11 0 0 1 2.54.12V9.74l.59-.21 11.78-4.12 1.17-.41ZM59.69 37.42V36.2l-1.15.36-4.71 1.47-.62.2v9.17a4 4 0 0 0-2.54-.13c-1.9.5-3.1 2.15-2.68 3.7.42 1.55 2.32 2.4 4.22 1.91a3.38 3.38 0 0 0 2.76-3.24V41.2l4.09-1.28.62-.2v-2.3h.01Z" clip-rule="evenodd"/>
  <path fill="#4DBDF5" fill-rule="evenodd" d="M54.69 15.62v-1.2l-1.15.36-4.71 1.47-.62.2v9.17a4 4 0 0 0-2.54-.13c-1.9.5-3.1 2.15-2.68 3.7.42 1.55 2.32 2.4 4.22 1.91a3.38 3.38 0 0 0 2.76-3.24v-8.48l4.09-1.28.62-.2v-2.28h.01Z" clip-rule="evenodd"/>
  <path fill="#001E60" d="M7.25 39.2h34.44v17.64a2.36 2.36 0 0 1-2.36 2.36H9.61a2.36 2.36 0 0 1-2.36-2.36V39.2Z"/>
  <path fill="#0053E2" d="M4.69 39.2h35v17.64a2.36 2.36 0 0 1-2.39 2.36H7.05a2.36 2.36 0 0 1-2.36-2.36V39.2Zm33.79-4.71H4.69v4.71h33.79v-4.71Z"/>
  <path fill="#A9DDF7" d="M4.69 34.49h5.51L7.25 39.2H4.69v-4.71Zm21.42 0h5.3l-2.95 4.71h-5.3l2.95-4.71Zm-10.61 0h5.3l-2.94 4.71h-5.3l2.94-4.71Zm21.19 0h3v4.71H33.8l2.89-4.71Z"/>
  <path fill="#0053E2" d="M41.69 34.49h-2.03v4.71h2.03v-4.71Zm-34.16.71 33.46-9-.61-2.28a2.36 2.36 0 0 0-2.89-1.67L6.31 30.61l1.22 4.59Z"/>
  <path fill="#A9DDF7" d="m4.69 35.95 5.7-1.53-4.07-3.79-.57.15a2.36 2.36 0 0 0-1.67 2.89l.61 2.28Zm21.08-5.65 5.13-1.38-4.07-3.79-5.14 1.37 4.08 3.8Zm-10.26 2.75 5.13-1.38-4.07-3.79-5.13 1.37 4.07 3.8Zm20.48-5.49 3-.81-.61-2.28a2.35 2.35 0 0 0-2.89-1.67l-3.6 1 4.1 3.76Z"/>
</svg>
