<svg xmlns="http://www.w3.org/2000/svg" width="64" height="64" fill="none" viewBox="0 0 64 64">
  <path fill="#4DBDF5" d="M54.56 49.005H17.07l5.43-38h15.2a1.77 1.77 0 0 1 1.56 1l17.28 33.76a2.25 2.25 0 0 1-1.98 3.24Z"/>
  <path fill="#A9DDF7" d="M42.07 49.005H3l18.85-37.52a.87.87 0 0 1 1.56 0l18.66 37.52Z"/>
  <path fill="#001E60" d="M31.85 49.005H13.41l9.22-20.44 9.22 20.44Z"/>
  <path fill="#4DBDF5" d="m11.87 36.094 1.54 12.91 9.22-20.44-10.76 7.53Zm21.52 0-1.54 12.91-9.22-20.44 10.76 7.53Z"/>
  <path fill="#A9DDF7" d="M57.18 26.935H45.76v14.8h11.42v-14.8Z"/>
  <path fill="#001E60" d="M59.26 45.895H43.68v3.12h15.58v-3.12Zm-1.04-19.59h-13.5v1.89h13.5v-1.89Zm-9.68 15.95c0-1.15 1.28-2.08 2.85-2.08s2.86.93 2.86 2.08"/>
  <path fill="#001E60" d="M48.4 23.564h7.48a1.3 1.3 0 0 1 1.3 1.3v1.85H47.1v-1.85a1.3 1.3 0 0 1 1.3-1.3Z"/>
  <path fill="#4DBDF5" d="M57.18 28.205h-1.04v13.54h1.04v-13.54Z"/>
  <path fill="#0053E2" d="M47.06 23.564h7.26a1.3 1.3 0 0 1 1.3 1.3v1.85h-9.86v-1.85a1.3 1.3 0 0 1 1.3-1.3Z"/>
  <path fill="#001E60" d="M45.83 41.734h11.28a1.11 1.11 0 0 1 1.11 1.11v4.27h-13.5v-4.27a1.11 1.11 0 0 1 1.11-1.11Z"/>
  <path fill="#0053E2" d="M45.83 41.734h10.24a1.11 1.11 0 0 1 1.11 1.11v4.27H44.72v-4.27a1.11 1.11 0 0 1 1.11-1.11Z"/>
  <path fill="#4DBDF5" d="M51.47 45.224a.95.95 0 1 0 0-1.9.95.95 0 0 0 0 1.9Z"/>
  <path fill="#0053E2" d="M58.22 45.895H43.68v3.12h14.54v-3.12Z"/>
  <path fill="#4DBDF5" d="M56.66 28.205h-10.9v.56h10.9v-.56Zm-3.17 8.799a2.16 2.16 0 0 1-2.1 2.17 2.16 2.16 0 0 1-2.13-2.17c0-1.4 2.1-4.14 2.1-4.14s2.13 2.78 2.13 4.14Z"/>
  <path fill="#0053E2" d="M52.26 37.575a.94.94 0 0 1-.91.94.93.93 0 0 1-.9-.94 4.69 4.69 0 0 1 .9-1.77 4.67 4.67 0 0 1 .91 1.77Zm-.79-15.57a1.78 1.78 0 1 1 .02 3.558 1.78 1.78 0 0 1-.02-3.558Zm0-1a2.83 2.83 0 0 0-2.82 2.82 2.83 2.83 0 0 0 2.82 2.82 2.82 2.82 0 0 0 0-5.64Z"/>
  <path fill="#4DBDF5" d="M56.66 26.305H44.72v1.89h11.94v-1.89Z"/>
</svg>
