<svg xmlns="http://www.w3.org/2000/svg" width="64" height="64" fill="none" viewBox="0 0 64 64">
  <path fill="#001E60" fill-rule="evenodd" d="M14.6 27.72v24.22A4.06 4.06 0 0 0 18.66 56H51a4.43 4.43 0 0 0 4.42-4.11l1.75-24.17H14.6Z" clip-rule="evenodd"/>
  <path fill="#0053E2" fill-rule="evenodd" d="M7 27.72 7.17 30l1.6 22.1A4.19 4.19 0 0 0 13 56h31a4.2 4.2 0 0 0 4.2-4l1.11-22 .12-2.28H7Z" clip-rule="evenodd"/>
  <path fill="#001E60" d="M49.4 26.79V30H7.17L7 27.72v-.93h42.4Z"/>
  <path fill="#4DBDF5" d="M20.71 23v-5H51.5a2.5 2.5 0 1 1 0 5H20.71Z"/>
  <path fill="#A9DDF7" d="M11 20.5a2.5 2.5 0 0 1 2.5-2.5h28a2.5 2.5 0 0 1 0 5h-28a2.5 2.5 0 0 1-2.5-2.5Z"/>
  <path fill="#001E60" d="M35.75 15.5a2.5 2.5 0 0 1 2.5-2.5H48.5a2.5 2.5 0 0 1 0 5H38.25a2.5 2.5 0 0 1-2.5-2.5Z"/>
  <path fill="#0053E2" d="M36 10.5A2.49 2.49 0 0 1 38.5 8h10.25a2.5 2.5 0 1 1 0 5H38.5a2.49 2.49 0 0 1-2.5-2.5Z"/>
  <path fill="#0053E2" d="M20.5 15.5A2.5 2.5 0 0 1 23 13h18.5a2.5 2.5 0 0 1 0 5H23a2.5 2.5 0 0 1-2.5-2.5Z"/>
  <path fill="#4DBDF5" d="M20.5 10.5A2.5 2.5 0 0 1 23 8h18.38a2.5 2.5 0 0 1 0 5H23a2.5 2.5 0 0 1-2.5-2.5Z"/>
  <path fill="#0053E2" d="M49.4 23H5v5.09h44.4V23Zm9.64 0H49.4v5.09h9.64V23Z"/>
  <path fill="#001E60" fill-rule="evenodd" d="M39 33.5a1.5 1.5 0 1 1 3 0v6a1.5 1.5 0 1 1-3 0v-6Zm0 11a1.5 1.5 0 1 1 3 0v6a1.5 1.5 0 1 1-3 0v-6Zm-6-11a1.5 1.5 0 1 1 3 0v6a1.5 1.5 0 1 1-3 0v-6Zm0 11a1.5 1.5 0 1 1 3 0v6a1.5 1.5 0 1 1-3 0v-6Zm-6-11a1.5 1.5 0 1 1 3 0v6a1.5 1.5 0 1 1-3 0v-6Zm0 11a1.5 1.5 0 1 1 3 0v6a1.5 1.5 0 1 1-3 0v-6Zm-6-11a1.5 1.5 0 1 1 3 0v6a1.5 1.5 0 1 1-3 0v-6Zm0 11a1.5 1.5 0 1 1 3 0v6a1.5 1.5 0 1 1-3 0v-6Zm-6-11a1.5 1.5 0 1 1 3 0v6a1.5 1.5 0 1 1-3 0v-6Zm0 11a1.5 1.5 0 1 1 3 0v6a1.5 1.5 0 1 1-3 0v-6Z" clip-rule="evenodd"/>
</svg>
