<svg xmlns="http://www.w3.org/2000/svg" width="1152" height="896"><metadata><?xpacket begin="" id="W5M0MpCehiHzreSzNTczkc9d"?><x:xmpmeta xmlns:x="adobe:ns:meta/" x:xmptk="XMP Core 6.0.0"><rdf:RDF xmlns:rdf="http://www.w3.org/1999/02/22-rdf-syntax-ns#"><rdf:Description rdf:about="" xmlns:xmp="http://ns.adobe.com/xap/1.0/" xmlns:xmpMM="http://ns.adobe.com/xap/1.0/mm/" xmlns:dc="http://purl.org/dc/elements/1.1/" xmlns:dcterms="http://purl.org/dc/terms/" xmpMM:DocumentID="xmp.did:cb9f5498-bb58-4572-8043-8c369e6bfb9b" xmpMM:InstanceID="xmp.iid:cb9f5498-bb58-4572-8043-8c369e6bfb9b" dcterms:provenance="https://cai-manifests.adobe.com/manifests/urn-c2pa-9069fd09-a15b-4b21-9047-7cfd106050a9-adobe"> </rdf:Description></rdf:RDF></x:xmpmeta>
<?xpacket end="w"?></metadata>
<defs>
</defs>
<path d="M0,895.5 C0,895.5 0,0 0,0 C0,0 1152,0 1152,0 C1152,0 1152,896 1152,896 C1152,896 0,896 0,896 C0,896 0,895.5 0,895.5 Z M583.01,180.805 C657.131,182.068 731.522,214.473 780.832,271.089 C831.783,329.589 855.354,408.105 843.613,485.841 C844.036,502.098 855.388,513.812 870.852,515.636 C885.242,516.932 901.124,507.484 903.557,491.457 C912.338,433.623 904.496,373.891 882.34,319.803 C851.928,245.561 794.711,185.658 722.152,151.771 C678.816,131.532 631.484,120.674 583.342,119.634 C514.672,118.15 447.579,135.601 385.368,165.343 C385.368,165.343 391.604,109.359 391.604,109.359 C393.169,95.3043 387.127,82.4508 374.698,76.4522 C362.009,70.3282 347.624,74.5584 338.27,85.3036 C338.27,85.3036 314.926,112.119 314.926,112.119 C314.926,112.119 209.496,230.339 209.496,230.339 C209.496,230.339 196.48,244.437 196.48,244.437 C189.031,252.504 185.984,263.517 189.903,274.19 C193.42,283.768 202.42,291.08 213.344,292.695 C213.344,292.695 305.031,306.254 305.031,306.254 C305.031,306.254 434.898,325.722 434.898,325.722 C445.888,327.369 455.536,319.286 460.081,311.304 C465.403,301.956 465.987,288.811 458.064,280.878 C458.064,280.878 410.205,232.953 410.205,232.953 C410.205,232.953 402.572,225.575 402.572,225.575 C459.265,197.25 518.88,179.712 583.01,180.805 Z M581.728,776.002 C647.115,774.783 710.799,758.941 771.346,732.572 C771.346,732.572 765.4,792.033 765.4,792.033 C764.474,801.295 767.686,809.248 774.729,815.465 C785.6,825.06 803.884,826.325 814.221,815.244 C814.221,815.244 848.12,778.905 848.12,778.905 C848.12,778.905 959.759,655.955 959.759,655.955 C967.517,647.411 971.887,637.858 968.476,626.043 C966.037,617.595 957.854,606.855 946.715,605.284 C946.715,605.284 725.176,574.052 725.176,574.052 C713.866,572.458 703.208,580.267 698.485,588.18 C692.185,598.734 693.665,610.92 700.715,620.174 C700.715,620.174 720.03,639.096 720.03,639.096 C720.03,639.096 754.842,672.618 754.842,672.618 C700.617,698.226 642.169,713.467 582.359,714.416 C549.984,714.93 518.581,709.048 488.251,698.748 C456.213,687.867 427.733,671.207 402.12,649.049 C402.12,649.049 384.451,632.59 384.451,632.59 C371.596,620.615 361.738,606.816 352.097,591.887 C317.516,538.337 303.764,474.37 314.292,411.17 C314.2,394.807 303.59,382.645 288.111,380.074 C274.053,378.155 256.403,386.785 253.82,402.93 C239.462,492.666 264.784,585.216 322.265,654.7 C362.589,703.446 416.508,741.078 476.354,759.645 C510.355,770.194 545.806,776.671 581.728,776.002 Z " fill="rgb(254,254,254)"/>
<path d="M583.342,119.634 C583.342,119.634 583.01,180.805 583.01,180.805 C518.88,179.712 459.265,197.25 402.572,225.575 C402.572,225.575 410.205,232.953 410.205,232.953 C410.205,232.953 458.064,280.878 458.064,280.878 C465.987,288.811 465.403,301.956 460.081,311.304 C455.536,319.286 445.888,327.369 434.898,325.722 C434.898,325.722 305.031,306.254 305.031,306.254 C305.031,306.254 213.344,292.695 213.344,292.695 C202.42,291.08 193.42,283.768 189.903,274.19 C185.984,263.517 189.031,252.504 196.48,244.437 C196.48,244.437 209.496,230.339 209.496,230.339 C209.496,230.339 314.926,112.119 314.926,112.119 C314.926,112.119 338.27,85.3036 338.27,85.3036 C347.624,74.5584 362.009,70.3282 374.698,76.4522 C387.127,82.4508 393.169,95.3043 391.604,109.359 C391.604,109.359 385.368,165.343 385.368,165.343 C447.579,135.601 514.672,118.15 583.342,119.634 Z " fill="rgb(12,100,233)"/>
<path d="M581.728,776.002 C581.728,776.002 582.359,714.416 582.359,714.416 C642.169,713.467 700.617,698.226 754.842,672.618 C754.842,672.618 720.03,639.096 720.03,639.096 C720.03,639.096 700.715,620.174 700.715,620.174 C693.665,610.92 692.185,598.734 698.485,588.18 C703.208,580.267 713.866,572.458 725.176,574.052 C725.176,574.052 946.715,605.284 946.715,605.284 C957.854,606.855 966.037,617.595 968.476,626.043 C971.887,637.858 967.517,647.411 959.759,655.955 C959.759,655.955 848.12,778.905 848.12,778.905 C848.12,778.905 814.221,815.244 814.221,815.244 C803.884,826.325 785.6,825.06 774.729,815.465 C767.686,809.248 764.474,801.295 765.4,792.033 C765.4,792.033 771.346,732.572 771.346,732.572 C710.799,758.941 647.115,774.783 581.728,776.002 Z " fill="rgb(12,101,234)"/>
<path d="M582.359,714.416 C582.359,714.416 581.728,776.002 581.728,776.002 C545.806,776.671 510.355,770.194 476.354,759.645 C416.508,741.078 362.589,703.446 322.265,654.7 C264.784,585.216 239.462,492.666 253.82,402.93 C256.403,386.785 274.053,378.155 288.111,380.074 C303.59,382.645 314.2,394.807 314.292,411.17 C303.764,474.37 317.516,538.337 352.097,591.887 C361.738,606.816 371.596,620.615 384.451,632.59 C384.451,632.59 402.12,649.049 402.12,649.049 C427.733,671.207 456.213,687.867 488.251,698.748 C518.581,709.048 549.984,714.93 582.359,714.416 Z " fill="rgb(93,199,250)"/>
<path d="M583.01,180.805 C583.01,180.805 583.342,119.634 583.342,119.634 C631.484,120.674 678.816,131.532 722.152,151.771 C794.711,185.658 851.928,245.561 882.34,319.803 C904.496,373.891 912.338,433.623 903.557,491.457 C901.124,507.484 885.242,516.932 870.852,515.636 C855.388,513.812 844.036,502.098 843.613,485.841 C855.354,408.105 831.783,329.589 780.832,271.089 C731.522,214.473 657.131,182.068 583.01,180.805 Z " fill="rgb(93,199,250)"/>
</svg>
