<svg width="73" height="72" viewBox="0 0 73 72" fill="none" xmlns="http://www.w3.org/2000/svg">
<path d="M37.2642 18.0205C37.1942 16.8605 36.7842 15.7905 36.1042 14.9305C35.6742 15.7705 35.4042 16.7105 35.3242 17.7005C36.0042 17.7005 36.6542 17.8205 37.2642 18.0205Z" fill="#001E60"/>
<path d="M35.7664 24.5306C35.4664 24.3306 35.1064 24.2106 34.7164 24.2106C34.3264 24.2106 33.9364 24.3406 33.6264 24.5606C33.1364 22.6706 31.8264 21.1706 30.0164 20.7706C29.4364 20.6406 28.8664 20.6406 28.2964 20.7406C28.3664 20.7506 28.4464 20.7506 28.5164 20.7706C30.4764 21.2906 31.7664 23.5806 31.7664 26.2106H37.2656V23.3102C36.5356 23.3902 35.9964 23.8606 35.7564 24.5306H35.7664Z" fill="#001E60"/>
<path d="M26.5664 21.1306C26.6464 21.1706 26.7364 21.2006 26.8164 21.2406C27.0464 21.1106 27.2964 21.0106 27.5364 20.9306C27.6164 20.4406 27.7464 19.9506 27.9664 19.2806L27.0664 19.0006C26.7964 19.8506 26.6364 20.4606 26.5664 21.1406V21.1306Z" fill="#001E60"/>
<path d="M46.8064 12.1006C45.6564 11.3606 44.2164 10.8306 42.7464 10.8306C40.5764 10.8306 38.6164 11.7606 37.2464 13.2406C37.7164 13.7406 38.1164 14.3106 38.4264 14.9306C39.4364 13.6506 40.9964 12.8306 42.7464 12.8306C45.0864 12.8306 46.8064 14.6806 46.8064 14.6806V12.1006Z" fill="#001E60"/>
<path d="M53.8864 22.6633C53.6764 22.3033 53.4364 21.9633 53.1664 21.6333L52.9264 21.3533C52.5164 20.8733 52.1264 20.3433 51.7864 19.7833C51.2264 18.8533 50.8364 17.8333 50.8364 16.7933V9.21326C50.8364 8.67326 50.4058 8.27832 49.8758 8.27832L49.1016 8.27842C49.5195 8.39551 49.8364 8.77441 49.8364 9.22326V15.2236H46.8364V16.2332H49.8364V16.7933C49.8364 16.9233 49.8364 17.0433 49.8564 17.1733C49.9464 18.7033 50.5864 20.1733 51.4164 21.3633L51.6164 21.6433C52.5164 22.9333 52.8464 24.2433 52.8464 26.2133V26.2433V26.2933H47.4864C47.6964 25.9933 47.8164 25.6233 47.8164 25.2233C47.8164 24.1833 46.9764 23.3533 45.9364 23.3533C45.5864 23.3533 45.2564 23.4533 44.9664 23.6333C44.9764 23.5433 44.9964 23.4533 44.9964 23.3533C44.9964 22.7733 44.7664 22.2133 44.3564 21.8633C44.3364 21.8833 44.3664 21.8433 44.3564 21.8633C44.0264 21.5933 43.6164 21.4233 43.1564 21.4233C43.1564 20.3833 42.3164 19.5433 41.2864 19.5433C40.8564 19.5433 40.4664 19.6933 40.1464 19.9333C39.8764 19.6333 39.5864 19.3533 39.2664 19.1033V20.1933C39.3564 20.4133 39.4364 20.6333 39.5064 20.8633C39.4564 21.0433 39.4164 21.2233 39.4164 21.4133C39.4164 21.8033 39.5364 22.1633 39.7364 22.4633C39.6064 22.5133 39.3864 22.5733 39.2664 22.6433V26.2233H45.8464V64.2233H54.8464V26.1933C54.8464 24.9433 54.5164 23.7233 53.8964 22.6533L53.8864 22.6633Z" fill="#001E60"/>
<path d="M39.2661 22.6468C39.3861 22.5768 39.5961 22.5068 39.7361 22.4668C39.5361 22.1668 39.4161 21.8067 39.4161 21.4167C39.4161 21.2267 39.4561 21.0367 39.5061 20.8667C39.4461 20.6567 39.3661 20.4468 39.2861 20.2368L39.2661 20.2041V22.6689V22.6468Z" fill="#4DBDF5"/>
<path d="M29.7461 20.7267C29.8361 20.7367 29.9178 20.7466 30.0078 20.7666C31.8078 21.1766 33.1428 22.6735 33.6328 24.5635C33.9428 24.3435 34.3127 24.2119 34.7227 24.2119C35.1327 24.2119 35.4375 24.3252 35.7561 24.5168C36.0234 23.8682 36.4922 23.415 37.2656 23.3135V18.3291C37.2656 18.2291 37.2656 18.1533 37.2656 18.0244C36.6456 17.8244 35.9361 17.6768 35.2461 17.6768C32.9261 17.6768 30.8961 18.8967 29.7461 20.7267Z" fill="#4DBDF5"/>
<path d="M33.6172 19.6211C33.8933 19.6211 34.1172 19.3972 34.1172 19.1211C34.1172 18.845 33.8933 18.6211 33.6172 18.6211C33.341 18.6211 33.1172 18.845 33.1172 19.1211C33.1172 19.3972 33.341 19.6211 33.6172 19.6211Z" fill="#A9DDF7"/>
<path d="M28.5177 20.7512C28.4477 20.7312 28.3677 20.7311 28.2977 20.7211C27.7877 20.8111 27.2977 20.9811 26.8377 21.2211C26.6577 21.1211 26.4577 21.0511 26.2677 20.9711V26.1911H31.7677C31.7677 23.5511 30.4777 21.2712 28.5177 20.7512Z" fill="#A9DDF7"/>
<path d="M24.2677 26.2012V20.6812C24.0677 20.7012 23.8577 20.7112 23.6577 20.7612C21.3577 21.2812 19.8477 23.5712 19.8477 26.2012H24.2777H24.2677Z" fill="#A9DDF7"/>
<path d="M52.8456 26.2979V26.1973C52.8456 24.2273 52.5256 22.9173 51.6156 21.6273L51.4156 21.3473C50.5856 20.1573 49.9456 18.6873 49.8556 17.1573C49.8456 17.0373 49.8356 16.9073 49.8356 16.7773V16.2173H46.8356V15.2373H49.8356V9.20734C49.8356 8.75734 49.5256 8.39734 49.1156 8.27734H47.7756C47.2356 8.27734 46.8056 8.71733 46.8056 9.24733V16.8273C46.8056 18.4873 45.7956 20.1073 44.7156 21.3973L44.332 21.8566C44.7539 22.1613 44.9856 22.7573 44.9856 23.3373C44.9856 23.4273 44.9809 23.5418 44.9609 23.6418C45.2409 23.4718 45.5658 23.3606 45.9258 23.3606C46.9658 23.3606 47.8056 24.1773 47.8056 25.2073C47.8056 25.6073 47.6944 25.9879 47.4844 26.2979H52.8456Z" fill="#0053E2"/>
<path d="M39.2656 18.3124C39.2656 14.1724 35.9056 10.8124 31.7656 10.8124C27.6256 10.8124 24.2656 14.1724 24.2656 18.3124V26.2024H17.7656V64.2024H45.8456V26.2024H39.2656V18.3124ZM26.2656 18.3124C26.2656 15.2824 28.7356 12.8124 31.7656 12.8124C34.7956 12.8124 37.2656 15.2824 37.2656 18.3124V26.2024H26.2656V18.3124ZM39.7456 42.8024C39.7456 47.2724 36.1256 50.8924 31.6556 50.8924C29.4156 50.8924 27.3856 49.9824 25.9256 48.5124L27.3456 47.0924C28.4456 48.2024 29.9756 48.8924 31.6556 48.8924C35.0156 48.8924 37.7456 46.1624 37.7456 42.8024C37.7456 39.4424 35.0156 36.7124 31.6556 36.7124C29.9856 36.7124 28.4756 37.3824 27.3756 38.4724L28.6956 39.7924L23.1556 41.2724L24.6356 35.7324L25.9556 37.0524C27.4156 35.6024 29.4256 34.7024 31.6556 34.7024C36.1256 34.7024 39.7456 38.3224 39.7456 42.7924V42.8024Z" fill="#0053E2"/>
<path d="M31.6562 34.7109C29.4362 34.7109 27.4263 35.6109 25.9563 37.0609L24.6363 35.7409L23.1562 41.2809L28.6963 39.8009L27.3763 38.4809C28.4763 37.3909 29.9863 36.7209 31.6562 36.7209C35.0162 36.7209 37.7463 39.4509 37.7463 42.8109C37.7463 46.1709 35.0162 48.9009 31.6562 48.9009C29.9662 48.9009 28.4463 48.2109 27.3463 47.1009L25.9263 48.5209C27.3863 49.9909 29.4162 50.9009 31.6562 50.9009C36.1262 50.9009 39.7463 47.2809 39.7463 42.8109C39.7463 38.3409 36.1262 34.7209 31.6562 34.7209V34.7109Z" fill="white"/>
</svg>
