<svg xmlns="http://www.w3.org/2000/svg" width="32" height="32" fill="none" viewBox="0 0 32 32">
  <path fill="#4DBDF5" fill-rule="evenodd" d="M6.533 1.814c-1.591.566-2.151 3.414-1.547 6.9h7.961c-1.608-4.532-4.44-7.602-6.414-6.9Zm8.997 3.935c-1.198.166-2.107 1.382-2.373 2.965h9.576c-.175-.986-.672-1.779-1.442-2.125a2.468 2.468 0 0 0-1.301-.139c-.438.072-.85.261-1.195.549a.703.703 0 0 1-.972-.13 2.547 2.547 0 0 0-1-.878 2.463 2.463 0 0 0-1.292-.242Z" clip-rule="evenodd"/>
  <path fill="#0053E2" fill-rule="evenodd" d="M7.729 8.714c.236-3.907 2.829-6.985 5.985-6.985 3.154 0 5.745 3.082 5.986 6.985h-1.15c-.226-3.262-2.298-5.825-4.837-5.825-2.54 0-4.613 2.567-4.837 5.825H7.73Z" clip-rule="evenodd"/>
  <path fill="#0053E2" d="M7.729 8.714H4v21h19.429v-21h-15.7Z"/>
  <path fill="#4DBDF5" fill-rule="evenodd" d="M19.903 13.714h6.48c.735 0 1.331.596 1.331 1.332v13.337c0 .735-.596 1.331-1.331 1.331h-6.48a1.331 1.331 0 0 1-1.332-1.331V15.046c0-.736.596-1.332 1.332-1.332Zm2.571 10.76-2.4-2.405.806-.806 1.594 1.594 3.263-3.263.811.812-4.074 4.068Z" clip-rule="evenodd"/>
  <path fill="#0053E2" d="M24.286 14.857H22v.572h2.286v-.572Z"/>
  <path fill="#fff" d="m22.474 24.474-2.4-2.405.806-.806 1.594 1.594 3.263-3.263.811.812-4.074 4.068Z"/>
</svg>
