<svg xmlns="http://www.w3.org/2000/svg" width="32" height="32" fill="none" viewBox="0 0 32 32">
  <g clip-path="url(#a)">
    <path fill="#0053E2" d="m17.656 19.542 1.884-1.883 2.253 2.252-1.884 1.884-2.253-2.253Z"/>
    <path fill="#0053E2" d="M12.56 22.695c5.597 0 10.135-4.538 10.135-10.136 0-5.597-4.538-10.135-10.136-10.135-5.597 0-10.135 4.538-10.135 10.136 0 5.597 4.538 10.135 10.136 10.135Z"/>
    <path fill="#4DBDF5" d="M12.56 20.366a7.806 7.806 0 1 0 0-15.613 7.806 7.806 0 0 0 0 15.613Z"/>
    <path fill="#0053E2" d="M28.935 28.935a2.19 2.19 0 0 1-3.093 0l-6.92-6.915 3.094-3.093 6.919 6.92a2.184 2.184 0 0 1 0 3.088Z"/>
    <path fill="#4DBDF5" d="m18.925 22.017 3.093-3.093 1.356 1.356-3.093 3.092-1.356-1.355Zm-.973-15.098A7.806 7.806 0 1 0 7.28 18.312 7.806 7.806 0 0 0 17.952 6.92Z"/>
    <path fill="#fff" fill-rule="evenodd" d="M18.135 7.096A7.806 7.806 0 1 1 6.918 17.952L17.952 6.92c.062.057.123.116.183.177Z" clip-rule="evenodd"/>
  </g>
  <defs>
    <clipPath id="a">
      <path fill="#fff" d="M2 2h28v28H2z"/>
    </clipPath>
  </defs>
</svg>
