<svg xmlns="http://www.w3.org/2000/svg" width="32" height="32" fill="none" viewBox="0 0 32 32">
  <rect width="14.857" height="26" x="8.5" y="2.857" fill="#0053E2" rx="2"/>
  <path fill="#4DBDF5" d="M18.715 19.704a2.59 2.59 0 0 1-.816 1.876 2.858 2.858 0 0 1-1.97.777 2.86 2.86 0 0 1-1.97-.777 2.59 2.59 0 0 1-.816-1.876c0-1.465 2.786-4.776 2.786-4.776s2.786 3.311 2.786 4.776Z"/>
  <rect width="20.428" height="2.786" x="5.714" y="26.071" fill="#4DBDF5" rx="1"/>
  <path fill="#4DBDF5" d="M10.357 5.714a1 1 0 0 1 1-1H20.5a1 1 0 0 1 1 1v4.5a1 1 0 0 1-1 1h-9.143a1 1 0 0 1-1-1v-4.5Z"/>
  <mask id="a" width="7" height="8" x="15" y="4" maskUnits="userSpaceOnUse" style="mask-type:alpha">
    <path fill="#fff" d="m21.5 4.714-5.571 6.5H21.5v-6.5Z"/>
  </mask>
  <g mask="url(#a)">
    <path fill="#fff" d="M10.357 5.714a1 1 0 0 1 1-1H20.5a1 1 0 0 1 1 1v4.5a1 1 0 0 1-1 1h-9.143a1 1 0 0 1-1-1v-4.5Z"/>
  </g>
  <path fill="#0053E2" d="M24.31 19.34v-3.947a.952.952 0 0 0-.953-.952H21.5v-1.81h1.857a2.762 2.762 0 0 1 2.762 2.762v3.946a.72.72 0 0 0 1.44 0V8.456a.952.952 0 0 0-.399-.775l-2.472-1.766-.072-.057a.905.905 0 0 1 1.124-1.416l2.473 1.766a2.763 2.763 0 0 1 1.156 2.248v10.883a2.53 2.53 0 1 1-5.06 0Z"/>
  <path fill="#0053E2" d="M27.23 6.418c-.155.31-.279.5-.422.82-.126.285-.2.545-.2.784 0 .219.061.452.274.708.225.272.642.593 1.393.915l-.55 1.28c-.873-.374-1.502-.807-1.915-1.304a2.454 2.454 0 0 1-.596-1.599c0-.516.158-.981.321-1.35.148-.33.372-.723.45-.876l1.245.622Z"/>
</svg>
