<svg xmlns="http://www.w3.org/2000/svg" width="1152" height="896"><metadata><?xpacket begin="" id="W5M0MpCehiHzreSzNTczkc9d"?><x:xmpmeta xmlns:x="adobe:ns:meta/" x:xmptk="XMP Core 6.0.0"><rdf:RDF xmlns:rdf="http://www.w3.org/1999/02/22-rdf-syntax-ns#"><rdf:Description rdf:about="" xmlns:xmp="http://ns.adobe.com/xap/1.0/" xmlns:xmpMM="http://ns.adobe.com/xap/1.0/mm/" xmlns:dc="http://purl.org/dc/elements/1.1/" xmlns:dcterms="http://purl.org/dc/terms/" xmpMM:DocumentID="xmp.did:cb9f5498-bb58-4572-8043-8c369e6bfb9b" xmpMM:InstanceID="xmp.iid:cb9f5498-bb58-4572-8043-8c369e6bfb9b" dcterms:provenance="https://cai-manifests.adobe.com/manifests/urn-c2pa-6de762b5-969d-4c06-b015-3c8b415e44ae-adobe"> </rdf:Description></rdf:RDF></x:xmpmeta>
<?xpacket end="w"?></metadata>
<defs>
</defs>
<path d="M0,895.5 C0,895.5 0,0 0,0 C0,0 1152,0 1152,0 C1152,0 1152,896 1152,896 C1152,896 0,896 0,896 C0,896 0,895.5 0,895.5 Z M429.601,515.576 C429.601,515.576 375.424,549.278 375.424,549.278 C374.65,548.702 373.526,549.706 372.691,550.324 C363.992,544.969 352.463,544.27 342.803,550.222 C342.803,550.222 104.324,697.173 104.324,697.173 C84.739,709.242 76.9018,733.691 84.5233,754.469 C89.8101,768.881 101.937,779.935 114.691,784.523 C131.958,790.732 147.485,786.998 162.128,777.937 C162.128,777.937 315.173,683.239 315.173,683.239 C315.173,683.239 395.98,633.277 395.98,633.277 C404.471,628.028 407.818,618.691 407.506,609.781 C407.562,609.419 408.262,608.49 408.118,607.955 C408.118,607.955 465.203,572.277 465.203,572.277 C465.203,572.277 580.73,499.793 580.73,499.793 C580.73,499.793 646.307,459.227 646.307,459.227 C646.307,459.227 763.322,386.289 763.322,386.289 C763.322,386.289 922.216,288.23 922.216,288.23 C922.216,288.23 1052.12,208.326 1052.12,208.326 C1063.45,201.362 1069.13,189.266 1067.43,176.466 C1065.84,164.477 1056.63,154.312 1045.16,150.495 C1035.41,147.252 1026.1,148.354 1016.88,154.039 C1016.88,154.039 953.094,193.345 953.094,193.345 C953.094,193.345 582.883,420.736 582.883,420.736 C582.883,420.736 472.887,488.686 472.887,488.686 C472.887,488.686 429.601,515.576 429.601,515.576 Z M532.036,314.986 C532.036,314.986 544.265,281.048 544.265,281.048 C547.066,273.277 553.895,267.514 561.25,264.286 C561.25,264.286 593.171,250.277 593.171,250.277 C595.499,249.256 596.274,246.242 596.333,244.508 C596.397,242.642 595.77,240.291 593.626,239.373 C593.626,239.373 560.072,225.018 560.072,225.018 C550.32,220.846 545.479,212.331 542.162,202.798 C542.162,202.798 532.123,173.947 532.123,173.947 C531.035,170.821 528.229,169.584 525.473,169.553 C523.355,169.529 520.214,170.668 519.276,173.373 C519.276,173.373 506.676,209.698 506.676,209.698 C504.354,216.392 499.251,221.812 492.641,224.636 C492.641,224.636 459.049,238.988 459.049,238.988 C456.745,239.973 455.408,242.074 455.078,243.604 C454.649,245.59 455.107,248.748 457.37,249.768 C457.37,249.768 485.385,262.391 485.385,262.391 C496.431,267.368 504.151,274.032 508.285,285.986 C508.285,285.986 518.212,314.692 518.212,314.692 C519.38,318.07 522.494,320.418 525.434,320.259 C528.527,320.091 530.848,318.284 532.036,314.986 Z M340.478,461.923 C340.478,461.923 357.741,411.836 357.741,411.836 C362.719,397.393 370.969,383.632 385.395,377.376 C385.395,377.376 445.148,351.463 445.148,351.463 C448.611,349.961 449.58,345.348 449.478,342.59 C449.361,339.436 447.722,336.109 444.227,334.679 C444.227,334.679 391.108,312.944 391.108,312.944 C373.818,305.87 362.978,292.114 357.104,274.793 C357.104,274.793 339.651,223.329 339.651,223.329 C338.091,218.727 334.036,215.797 329.513,215.971 C325.13,216.14 321.136,219.148 319.576,223.739 C319.576,223.739 302.443,274.159 302.443,274.159 C295.968,293.214 283.637,306.254 264.964,314.095 C264.964,314.095 215.848,334.72 215.848,334.72 C212.376,336.177 210.313,340.429 210.244,343.511 C210.185,346.187 212.222,350.378 215.465,351.784 C215.465,351.784 271.04,375.871 271.04,375.871 C286.816,382.708 296.248,396.377 301.686,412.322 C301.686,412.322 318.413,461.369 318.413,461.369 C320.265,466.8 323.91,470.407 329.519,470.441 C334.473,470.471 338.587,467.41 340.478,461.923 Z " fill="rgb(254,254,254)"/>
<path d="M1045.16,150.495 C1050.32,155.048 1053.21,162.547 1051.59,169.57 C1049.67,177.863 1044.44,182.983 1037.13,187.461 C1037.13,187.461 778.205,346.052 778.205,346.052 C778.205,346.052 718.6,382.687 718.6,382.687 C718.6,382.687 564.142,478.167 564.142,478.167 C564.142,478.167 450.94,549.188 450.94,549.188 C450.193,549.376 449.685,548.676 449.858,547.989 C449.858,547.989 429.601,515.576 429.601,515.576 C429.601,515.576 472.887,488.686 472.887,488.686 C472.887,488.686 582.883,420.736 582.883,420.736 C582.883,420.736 953.094,193.345 953.094,193.345 C953.094,193.345 1016.88,154.039 1016.88,154.039 C1026.1,148.354 1035.41,147.252 1045.16,150.495 Z " fill="rgb(94,199,251)"/>
<path d="M340.478,461.923 C338.587,467.41 334.473,470.471 329.519,470.441 C323.91,470.407 320.265,466.8 318.413,461.369 C318.413,461.369 301.686,412.322 301.686,412.322 C296.248,396.377 286.816,382.708 271.04,375.871 C271.04,375.871 215.465,351.784 215.465,351.784 C212.222,350.378 210.185,346.187 210.244,343.511 C210.313,340.429 212.376,336.177 215.848,334.72 C215.848,334.72 264.964,314.095 264.964,314.095 C283.637,306.254 295.968,293.214 302.443,274.159 C302.443,274.159 319.576,223.739 319.576,223.739 C321.136,219.148 325.13,216.14 329.513,215.971 C334.036,215.797 338.091,218.727 339.651,223.329 C339.651,223.329 357.104,274.793 357.104,274.793 C362.978,292.114 373.818,305.87 391.108,312.944 C391.108,312.944 444.227,334.679 444.227,334.679 C447.722,336.109 449.361,339.436 449.478,342.59 C449.58,345.348 448.611,349.961 445.148,351.463 C445.148,351.463 385.395,377.376 385.395,377.376 C370.969,383.632 362.719,397.393 357.741,411.836 C357.741,411.836 340.478,461.923 340.478,461.923 Z M266.482,342.269 C266.482,342.269 309.119,342.32 309.119,342.32 C318.455,342.332 328.467,334.804 328.59,325.017 C328.59,325.017 329.23,274.015 329.23,274.015 C329.267,271.132 327.662,269.543 325.465,268.907 C323.499,268.338 320.76,269.407 319.716,271.845 C319.716,271.845 306.836,301.932 306.836,301.932 C303.004,310.881 295.254,316.694 286.774,320.791 C286.774,320.791 263.28,332.141 263.28,332.141 C260.83,333.325 260.091,336.287 260.517,337.899 C261.153,340.307 263.147,342.265 266.482,342.269 Z " fill="rgb(96,200,251)"/>
<path d="M465.203,572.277 C465.203,572.277 450.94,549.188 450.94,549.188 C450.94,549.188 564.142,478.167 564.142,478.167 C564.142,478.167 718.6,382.687 718.6,382.687 C718.6,382.687 778.205,346.052 778.205,346.052 C778.205,346.052 1037.13,187.461 1037.13,187.461 C1044.44,182.983 1049.67,177.863 1051.59,169.57 C1053.21,162.547 1050.32,155.048 1045.16,150.495 C1056.63,154.312 1065.84,164.477 1067.43,176.466 C1069.13,189.266 1063.45,201.362 1052.12,208.326 C1052.12,208.326 922.216,288.23 922.216,288.23 C922.216,288.23 763.322,386.289 763.322,386.289 C763.322,386.289 646.307,459.227 646.307,459.227 C646.307,459.227 580.73,499.793 580.73,499.793 C580.73,499.793 465.203,572.277 465.203,572.277 Z " fill="rgb(16,100,234)"/>
<path d="M400.941,593.337 C404.327,597.5 406.739,602.824 408.118,607.955 C408.262,608.49 407.562,609.419 407.506,609.781 C407.818,618.691 404.471,628.028 395.98,633.277 C395.98,633.277 315.173,683.239 315.173,683.239 C315.173,683.239 162.128,777.937 162.128,777.937 C147.485,786.998 131.958,790.732 114.691,784.523 C101.937,779.935 89.8101,768.881 84.5233,754.469 C84.7543,753.943 85.1243,753.251 85.3572,752.993 C101.584,766.163 120.545,764.844 137.279,754.341 C137.279,754.341 238.06,691.088 238.06,691.088 C238.06,691.088 344.664,624.868 344.664,624.868 C344.664,624.868 362.057,614.019 362.057,614.019 C362.057,614.019 398.278,591.117 398.278,591.117 C398.278,591.117 400.941,593.337 400.941,593.337 Z " fill="rgb(95,200,251)"/>
<path d="M532.036,314.986 C530.848,318.284 528.527,320.091 525.434,320.259 C522.494,320.418 519.38,318.07 518.212,314.692 C518.212,314.692 508.285,285.986 508.285,285.986 C504.151,274.032 496.431,267.368 485.385,262.391 C485.385,262.391 457.37,249.768 457.37,249.768 C455.107,248.748 454.649,245.59 455.078,243.604 C455.408,242.074 456.745,239.973 459.049,238.988 C459.049,238.988 492.641,224.636 492.641,224.636 C499.251,221.812 504.354,216.392 506.676,209.698 C506.676,209.698 519.276,173.373 519.276,173.373 C520.214,170.668 523.355,169.529 525.473,169.553 C528.229,169.584 531.035,170.821 532.123,173.947 C532.123,173.947 542.162,202.798 542.162,202.798 C545.479,212.331 550.32,220.846 560.072,225.018 C560.072,225.018 593.626,239.373 593.626,239.373 C595.77,240.291 596.397,242.642 596.333,244.508 C596.274,246.242 595.499,249.256 593.171,250.277 C593.171,250.277 561.25,264.286 561.25,264.286 C553.895,267.514 547.066,273.277 544.265,281.048 C544.265,281.048 532.036,314.986 532.036,314.986 Z M516.143,242.445 C522.582,241.291 524.633,234.297 524.475,229.126 C524.475,229.126 523.808,207.266 523.808,207.266 C523.772,206.068 521.265,205.557 520.571,205.972 C517.036,208.09 515.409,219.088 508.977,225.868 C501.096,234.176 489.186,234.385 489.932,239.518 C490.169,241.151 491.393,242.899 494.036,242.851 C494.036,242.851 516.143,242.445 516.143,242.445 Z " fill="rgb(95,199,250)"/>
<path d="M429.601,515.576 C429.601,515.576 449.858,547.989 449.858,547.989 C448.872,550.201 447.022,551.474 444.785,552.876 C444.785,552.876 395.726,583.236 395.726,583.236 C395.726,583.236 380.773,559.278 380.773,559.278 C380.773,559.278 373.814,551.013 373.814,551.013 C374.164,549.974 375.001,549.673 375.424,549.278 C375.424,549.278 429.601,515.576 429.601,515.576 Z " fill="rgb(13,97,232)"/>
<path d="M450.94,549.188 C450.94,549.188 465.203,572.277 465.203,572.277 C465.203,572.277 408.118,607.955 408.118,607.955 C406.739,602.824 404.327,597.5 400.941,593.337 C400.941,593.337 395.726,583.236 395.726,583.236 C395.726,583.236 444.785,552.876 444.785,552.876 C447.022,551.474 448.872,550.201 449.858,547.989 C449.685,548.676 450.193,549.376 450.94,549.188 Z " fill="rgb(10,40,113)"/>
<path d="M266.482,342.269 C263.147,342.265 261.153,340.307 260.517,337.899 C260.091,336.287 260.83,333.325 263.28,332.141 C263.28,332.141 286.774,320.791 286.774,320.791 C295.254,316.694 303.004,310.881 306.836,301.932 C306.836,301.932 319.716,271.845 319.716,271.845 C320.76,269.407 323.499,268.338 325.465,268.907 C327.662,269.543 329.267,271.132 329.23,274.015 C329.23,274.015 328.59,325.017 328.59,325.017 C328.467,334.804 318.455,342.332 309.119,342.32 C309.119,342.32 266.482,342.269 266.482,342.269 Z " fill="rgb(253,254,254)"/>
<path d="M375.424,549.278 C375.001,549.673 374.164,549.974 373.814,551.013 C373.814,551.013 380.773,559.278 380.773,559.278 C380.773,559.278 395.726,583.236 395.726,583.236 C395.726,583.236 400.941,593.337 400.941,593.337 C400.941,593.337 398.278,591.117 398.278,591.117 C398.278,591.117 362.057,614.019 362.057,614.019 C362.057,614.019 344.664,624.868 344.664,624.868 C344.664,624.868 238.06,691.088 238.06,691.088 C238.06,691.088 137.279,754.341 137.279,754.341 C120.545,764.844 101.584,766.163 85.3572,752.993 C85.1243,753.251 84.7543,753.943 84.5233,754.469 C76.9018,733.691 84.739,709.242 104.324,697.173 C104.324,697.173 342.803,550.222 342.803,550.222 C352.463,544.27 363.992,544.969 372.691,550.324 C373.526,549.706 374.65,548.702 375.424,549.278 Z " fill="rgb(182,226,250)"/>
<path d="M516.143,242.445 C516.143,242.445 494.036,242.851 494.036,242.851 C491.393,242.899 490.169,241.151 489.932,239.518 C489.186,234.385 501.096,234.176 508.977,225.868 C515.409,219.088 517.036,208.09 520.571,205.972 C521.265,205.557 523.772,206.068 523.808,207.266 C523.808,207.266 524.475,229.126 524.475,229.126 C524.633,234.297 522.582,241.291 516.143,242.445 Z " fill="rgb(251,253,253)"/>
</svg>
