<svg xmlns="http://www.w3.org/2000/svg" width="1152" height="896"><metadata><?xpacket begin="" id="W5M0MpCehiHzreSzNTczkc9d"?><x:xmpmeta xmlns:x="adobe:ns:meta/" x:xmptk="XMP Core 6.0.0"><rdf:RDF xmlns:rdf="http://www.w3.org/1999/02/22-rdf-syntax-ns#"><rdf:Description rdf:about="" xmlns:xmp="http://ns.adobe.com/xap/1.0/" xmlns:xmpMM="http://ns.adobe.com/xap/1.0/mm/" xmlns:dc="http://purl.org/dc/elements/1.1/" xmlns:dcterms="http://purl.org/dc/terms/" xmpMM:DocumentID="xmp.did:cb9f5498-bb58-4572-8043-8c369e6bfb9b" xmpMM:InstanceID="xmp.iid:cb9f5498-bb58-4572-8043-8c369e6bfb9b" dcterms:provenance="https://cai-manifests.adobe.com/manifests/urn-c2pa-f81874cc-9a44-473b-852a-69463639cb6e-adobe"> </rdf:Description></rdf:RDF></x:xmpmeta>
<?xpacket end="w"?></metadata>
<defs>
</defs>
<path d="M0,895.5 C0,895.5 0,0 0,0 C0,0 1152,0 1152,0 C1152,0 1152,896 1152,896 C1152,896 0,896 0,896 C0,896 0,895.5 0,895.5 Z M79.9593,208.006 C79.9593,208.006 80.166,724.883 80.166,724.883 C80.1735,743.616 98.2681,760.765 117.265,760.772 C117.265,760.772 1065.53,761.083 1065.53,761.083 C1065.53,761.083 1087.26,761.134 1087.26,761.134 C1107.88,761.183 1128.1,745.894 1128.11,723.816 C1128.11,723.816 1128.19,171.175 1128.19,171.175 C1128.2,150.842 1110.34,134.626 1091.18,134.669 C1091.18,134.669 1065.93,134.725 1065.93,134.725 C1065.16,134.726 1064.81,135.774 1065.18,135.819 C1064.32,135.651 1062.7,137.116 1061.8,135.007 C1063.33,135.097 1063.88,134.843 1064.46,134.507 C1064.46,134.507 652.876,134.638 652.876,134.638 C652.876,134.638 123.27,134.579 123.27,134.579 C109.431,134.577 97.7481,138.394 88.9519,148.977 C82.2438,157.049 80.1837,166.259 80.1284,176.549 C80.1284,176.549 79.9593,208.006 79.9593,208.006 Z " fill="rgb(254,254,254)"/>
<path d="M1097.17,208.204 C1097.17,208.204 1097.38,717.787 1097.38,717.787 C1097.39,734.606 1091.41,748.22 1075.89,756.282 C1075.89,756.282 1065.53,761.083 1065.53,761.083 C1065.53,761.083 117.265,760.772 117.265,760.772 C98.2681,760.765 80.1735,743.616 80.166,724.883 C80.166,724.883 79.9593,208.006 79.9593,208.006 C79.9593,208.006 392.095,208.234 392.095,208.234 C392.095,208.234 1097.17,208.204 1097.17,208.204 Z M144.675,450.827 C144.675,450.827 145.069,725.953 145.069,725.953 C145.069,725.953 267.026,726.139 267.026,726.139 C267.026,726.139 924.117,726.168 924.117,726.168 C924.117,726.168 941.011,726.079 941.011,726.079 C941.011,726.079 1063.01,726.008 1063.01,726.008 C1063.01,726.008 1062.86,399.042 1062.86,399.042 C1062.86,399.042 1062.86,242.915 1062.86,242.915 C1062.86,242.915 508.985,242.846 508.985,242.846 C508.985,242.846 147.34,242.865 147.34,242.865 C145.376,242.778 145.135,243.257 144.436,243.473 C144.436,243.473 113.945,243.081 113.945,243.081 C113.945,243.081 114.015,726.02 114.015,726.02 C114.015,726.02 143.998,725.565 143.998,725.565 C143.998,725.565 144.675,450.827 144.675,450.827 Z " fill="rgb(56,153,245)"/>
<path d="M1065.18,135.819 C1081.39,139.012 1096.77,153.267 1096.89,170.89 C1096.89,170.89 1097.17,208.204 1097.17,208.204 C1097.17,208.204 392.095,208.234 392.095,208.234 C392.095,208.234 79.9593,208.006 79.9593,208.006 C79.9593,208.006 80.1284,176.549 80.1284,176.549 C80.1837,166.259 82.2438,157.049 88.9519,148.977 C97.7481,138.394 109.431,134.577 123.27,134.579 C123.27,134.579 652.876,134.638 652.876,134.638 C652.876,134.638 1064.46,134.507 1064.46,134.507 C1063.88,134.843 1063.33,135.097 1061.8,135.007 C1062.7,137.116 1064.32,135.651 1065.18,135.819 Z M962.113,184.377 C967.888,183.44 971.399,178.287 972.401,173.37 C973.614,167.417 970.14,162.535 965.604,159.691 C960.633,156.573 954.779,157.493 950.236,161.182 C945.36,165.142 943.188,171.092 946.189,176.733 C949.328,182.634 955.232,185.493 962.113,184.377 Z M1017.71,178.962 C1022.6,172.788 1020.31,164.345 1014.4,160.29 C1008.47,156.219 1000.42,157.698 995.739,163.831 C990.916,170.142 993.022,178.024 999.141,182.434 C1004.9,186.581 1012.66,185.32 1017.71,178.962 Z M1042.81,178.327 C1047.49,184.505 1053.88,186.037 1059.73,183.346 C1065.24,180.816 1068.93,175.018 1067.4,168.725 C1065.4,160.516 1056.71,155.988 1049.47,158.992 C1041.87,162.147 1037.57,171.402 1042.81,178.327 Z " fill="rgb(146,215,250)"/>
<path d="M1065.53,761.083 C1065.53,761.083 1075.89,756.282 1075.89,756.282 C1091.41,748.22 1097.39,734.606 1097.38,717.787 C1097.38,717.787 1097.17,208.204 1097.17,208.204 C1097.17,208.204 1096.89,170.89 1096.89,170.89 C1096.77,153.267 1081.39,139.012 1065.18,135.819 C1064.81,135.774 1065.16,134.726 1065.93,134.725 C1065.93,134.725 1091.18,134.669 1091.18,134.669 C1110.34,134.626 1128.2,150.842 1128.19,171.175 C1128.19,171.175 1128.11,723.816 1128.11,723.816 C1128.1,745.894 1107.88,761.183 1087.26,761.134 C1087.26,761.134 1065.53,761.083 1065.53,761.083 Z " fill="rgb(3,86,235)"/>
<path d="M941.011,726.079 C941.011,726.079 941.357,361.209 941.357,361.209 C941.36,346.448 930.989,335.211 916.921,333.262 C916.921,333.262 903.086,332.743 903.086,332.743 C903.086,332.743 875.721,332.975 875.721,332.975 C875.721,332.975 298.243,332.925 298.243,332.925 C280.464,332.923 267.699,345.189 267.71,363.235 C267.71,363.235 267.852,583.929 267.852,583.929 C267.852,583.929 267.731,724.641 267.731,724.641 C267.731,725.035 266.721,725.926 267.026,726.139 C267.026,726.139 145.069,725.953 145.069,725.953 C145.069,725.953 144.675,450.827 144.675,450.827 C144.675,450.827 144.436,243.473 144.436,243.473 C145.135,243.257 145.376,242.778 147.34,242.865 C147.34,242.865 508.985,242.846 508.985,242.846 C508.985,242.846 1062.86,242.915 1062.86,242.915 C1062.86,242.915 1062.86,399.042 1062.86,399.042 C1062.86,399.042 1063.01,726.008 1063.01,726.008 C1063.01,726.008 941.011,726.079 941.011,726.079 Z " fill="rgb(254,254,254)"/>
<path d="M903.086,332.743 C903.166,333.827 903.417,334.313 905.359,334.357 C913.507,336.993 923.755,345.226 923.763,356.299 C923.763,356.299 924.117,726.168 924.117,726.168 C924.117,726.168 267.026,726.139 267.026,726.139 C266.721,725.926 267.731,725.035 267.731,724.641 C267.731,724.641 267.852,583.929 267.852,583.929 C267.852,583.929 267.71,363.235 267.71,363.235 C267.699,345.189 280.464,332.923 298.243,332.925 C298.243,332.925 875.721,332.975 875.721,332.975 C875.721,332.975 903.086,332.743 903.086,332.743 Z M582.163,468.727 C582.163,468.727 582.246,405.751 582.246,405.751 C582.246,405.751 316.022,405.749 316.022,405.749 C316.022,405.749 316.016,468.913 316.016,468.913 C316.016,468.913 582.163,468.727 582.163,468.727 Z M886.737,468.811 C886.737,468.811 886.622,405.68 886.622,405.68 C886.622,405.68 622.646,405.689 622.646,405.689 C622.646,405.689 622.641,468.797 622.641,468.797 C622.641,468.797 886.737,468.811 886.737,468.811 Z M886.481,528.838 C886.481,528.838 886.554,501.74 886.554,501.74 C886.554,501.74 316.226,501.879 316.226,501.879 C316.226,501.879 316.208,528.812 316.208,528.812 C316.208,528.812 886.481,528.838 886.481,528.838 Z M886.726,588.91 C886.726,588.91 886.468,561.73 886.468,561.73 C886.468,561.73 316.323,561.78 316.323,561.78 C316.323,561.78 316.184,588.995 316.184,588.995 C316.184,588.995 886.726,588.91 886.726,588.91 Z M582.489,648.808 C582.489,648.808 582.15,621.785 582.15,621.785 C582.15,621.785 316.098,621.866 316.098,621.866 C316.098,621.866 316.063,648.729 316.063,648.729 C316.063,648.729 582.489,648.808 582.489,648.808 Z M886.678,648.694 C886.678,648.694 886.698,621.785 886.698,621.785 C886.698,621.785 622.888,621.731 622.888,621.731 C622.888,621.731 622.612,648.689 622.612,648.689 C622.612,648.689 886.678,648.694 886.678,648.694 Z " fill="rgb(186,226,249)"/>
<path d="M144.436,243.473 C144.436,243.473 144.675,450.827 144.675,450.827 C144.675,450.827 143.998,725.565 143.998,725.565 C143.998,725.565 114.015,726.02 114.015,726.02 C114.015,726.02 113.945,243.081 113.945,243.081 C113.945,243.081 144.436,243.473 144.436,243.473 Z " fill="rgb(3,86,235)"/>
<path d="M941.011,726.079 C941.011,726.079 924.117,726.168 924.117,726.168 C924.117,726.168 923.763,356.299 923.763,356.299 C923.755,345.226 913.507,336.993 905.359,334.357 C903.417,334.313 903.166,333.827 903.086,332.743 C903.086,332.743 916.921,333.262 916.921,333.262 C930.989,335.211 941.36,346.448 941.357,361.209 C941.357,361.209 941.011,726.079 941.011,726.079 Z " fill="rgb(84,198,251)"/>
<path d="M962.113,184.377 C955.232,185.493 949.328,182.634 946.189,176.733 C943.188,171.092 945.36,165.142 950.236,161.182 C954.779,157.493 960.633,156.573 965.604,159.691 C970.14,162.535 973.614,167.417 972.401,173.37 C971.399,178.287 967.888,183.44 962.113,184.377 Z " fill="rgb(83,197,251)"/>
<path d="M1017.71,178.962 C1012.66,185.32 1004.9,186.581 999.141,182.434 C993.022,178.024 990.916,170.142 995.739,163.831 C1000.42,157.698 1008.47,156.219 1014.4,160.29 C1020.31,164.345 1022.6,172.788 1017.71,178.962 Z " fill="rgb(56,146,240)"/>
<path d="M1042.81,178.327 C1037.57,171.402 1041.87,162.147 1049.47,158.992 C1056.71,155.988 1065.4,160.516 1067.4,168.725 C1068.93,175.018 1065.24,180.816 1059.73,183.346 C1053.88,186.037 1047.49,184.505 1042.81,178.327 Z " fill="rgb(56,147,239)"/>
<path d="M582.163,468.727 C582.163,468.727 316.016,468.913 316.016,468.913 C316.016,468.913 316.022,405.749 316.022,405.749 C316.022,405.749 582.246,405.751 582.246,405.751 C582.246,405.751 582.163,468.727 582.163,468.727 Z " fill="rgb(83,198,251)"/>
<path d="M886.737,468.811 C886.737,468.811 622.641,468.797 622.641,468.797 C622.641,468.797 622.646,405.689 622.646,405.689 C622.646,405.689 886.622,405.68 886.622,405.68 C886.622,405.68 886.737,468.811 886.737,468.811 Z " fill="rgb(14,104,235)"/>
<path d="M886.726,588.91 C886.726,588.91 316.184,588.995 316.184,588.995 C316.184,588.995 316.323,561.78 316.323,561.78 C316.323,561.78 886.468,561.73 886.468,561.73 C886.468,561.73 886.726,588.91 886.726,588.91 Z " fill="rgb(82,197,251)"/>
<path d="M886.481,528.838 C886.481,528.838 316.208,528.812 316.208,528.812 C316.208,528.812 316.226,501.879 316.226,501.879 C316.226,501.879 886.554,501.74 886.554,501.74 C886.554,501.74 886.481,528.838 886.481,528.838 Z " fill="rgb(83,197,250)"/>
<path d="M582.489,648.808 C582.489,648.808 316.063,648.729 316.063,648.729 C316.063,648.729 316.098,621.866 316.098,621.866 C316.098,621.866 582.15,621.785 582.15,621.785 C582.15,621.785 582.489,648.808 582.489,648.808 Z " fill="rgb(16,107,236)"/>
<path d="M886.678,648.694 C886.678,648.694 622.612,648.689 622.612,648.689 C622.612,648.689 622.888,621.731 622.888,621.731 C622.888,621.731 886.698,621.785 886.698,621.785 C886.698,621.785 886.678,648.694 886.678,648.694 Z " fill="rgb(15,106,236)"/>
</svg>
