<svg xmlns="http://www.w3.org/2000/svg" width="72" height="72" fill="none" viewBox="0 0 72 72">
  <path fill="#001E60" d="M46 60.5a9.5 9.5 0 0 1-19 0c0-5.247 4.521-10.5 9.768-10.5C42.015 50 46 55.253 46 60.5Z"/>
  <path fill="#001E60" d="M33 25h8v29h-8z"/>
  <path fill="#001E60" d="M50 15c0 7-7 13.5-14.001 13.5-7.732 0 5.5-4.768 5.5-12.5S40.001 2 40.001 2C45.5 2 50 8 50 15Z"/>
  <path fill="#4DBDF5" d="M31 25h8v28h-8z"/>
  <circle cx="35" cy="60" r="9" fill="#4DBDF5"/>
  <circle cx="35" cy="60" r="4" fill="#001E60"/>
  <path fill="#4DBDF5" d="M40 1.996c4.698 1.96 8 6.596 8 12.004 0 7.18-5.82 13-13 13s-13-5.82-13-13c0-5.408 3.302-10.045 8-12.004V16l5 2 5-2V1.996Z"/>
  <path fill="#001E60" d="M30 16V2h2v13l5.5 2-2.5 1-5-2Z"/>
  <path fill="#A9DDF7" d="M33 28a2 2 0 1 1 4 0v22a2 2 0 1 1-4 0V28Z"/>
</svg>
