<svg xmlns="http://www.w3.org/2000/svg" width="32" height="32" fill="none" viewBox="0 0 32 32">
  <path fill="#4DBDF5" d="M22.654 2.001a4.003 4.003 0 0 1 1.464 5.468l-7.335 12.714-3.464-2.002 9.335-16.18Z"/>
  <path fill="#4DBDF5" d="m15.19 20.183 3.47-2.001L9.32 2a4.003 4.003 0 0 0-1.46 5.464l7.33 12.72Z"/>
  <path fill="#0053E2" d="M23.04 19.012a4.147 4.147 0 0 1-4.29-1.931l-.46-.801a2.51 2.51 0 0 0-3.25-1.07 2.42 2.42 0 0 0-1 3.362l4.91 8.506a5.641 5.641 0 0 0 7.31 2.361 5.51 5.51 0 0 0 3.046-5.584 5.516 5.516 0 0 0-.707-2.131 5.512 5.512 0 0 0-5.56-2.712Zm.76 8.006a2.499 2.499 0 0 1-2.5-2.502 2.503 2.503 0 0 1 2.5-2.502 2.499 2.499 0 0 1 2.5 2.502 2.503 2.503 0 0 1-2.5 2.502Z"/>
  <path fill="#0053E2" d="M3.4 21.754a5.516 5.516 0 0 0 2.34 7.716 5.636 5.636 0 0 0 7.31-2.362l4.91-8.506a2.424 2.424 0 0 0-1-3.363 2.509 2.509 0 0 0-3.25 1.071l-.46.8a4.151 4.151 0 0 1-4.26 1.902 5.507 5.507 0 0 0-5.59 2.742Zm7.28 2.762a2.502 2.502 0 0 1-2.5 2.502 2.499 2.499 0 0 1-2.5-2.502 2.503 2.503 0 0 1 2.5-2.502 2.499 2.499 0 0 1 2.5 2.502Z"/>
  <path fill="#fff" d="M15.988 18.632a1 1 0 1 0 0-2 1 1 0 0 0 0 2Z"/>
</svg>
