<svg xmlns="http://www.w3.org/2000/svg" width="32" height="32" fill="none" viewBox="0 0 32 32">
  <path fill="#0053E2" d="m6.173 16.988 1.677-4.086a3.108 3.108 0 0 1 2.86-1.909h10.68a3.112 3.112 0 0 1 2.86 1.909l1.677 4.086h2.483a.59.59 0 0 1 .59.59v1.818a.59.59 0 0 1-.59.59h-1.55.14v7.404a.58.58 0 0 1-.59.59h-1.82a.579.579 0 0 1-.59-.59v-1.409H8v1.429a.58.58 0 0 1-.59.59H5.59a.58.58 0 0 1-.59-.59v-7.424H3.59a.59.59 0 0 1-.59-.59v-1.818a.59.59 0 0 1 .59-.59h2.583Z"/>
  <path fill="#fff" d="M23.516 16.989H8.482l1.187-2.878a1.809 1.809 0 0 1 1.67-1.119h9.32a1.81 1.81 0 0 1 1.67 1.12l1.187 2.877Z"/>
  <path fill="#4DBDF5" d="M8.5 21.985a1.5 1.5 0 1 0 .001-2.999 1.5 1.5 0 0 0-.001 2.999Zm15 0a1.5 1.5 0 1 0 .001-2.999 1.5 1.5 0 0 0-.001 2.999ZM7.5 3a3.492 3.492 0 0 0-3.15 1.998h2.84a.81.81 0 0 1 .81.81v1.379a.809.809 0 0 1-.81.809H4.35a3.488 3.488 0 0 0 5.624.974c.287-.286.518-.616.688-.974h10.675a3.494 3.494 0 0 0 6.313 0h-2.84a.81.81 0 0 1-.81-.81V5.809a.809.809 0 0 1 .81-.81h2.84a3.488 3.488 0 0 0-5.625-.974 3.494 3.494 0 0 0-.688.974H10.662A3.496 3.496 0 0 0 7.5 3Z"/>
</svg>
