<svg xmlns="http://www.w3.org/2000/svg" width="32" height="32" fill="none" viewBox="0 0 32 32">
  <path fill="#0053E2" d="m30 12.747-5.25-1.002-4.54-5.182A3.081 3.081 0 0 0 17.87 5.5H5.78a2.995 2.995 0 0 0-2.77 1.794l-1.74 3.86c-.178.4-.27.834-.27 1.272V22.5h30v-8.52a1.255 1.255 0 0 0-1-1.233Z"/>
  <path fill="#4DBDF5" fill-rule="evenodd" d="m19.38 8.66-.55-.63a1.48 1.48 0 0 0-1.15-.53H15v4.6h7.36l-2.98-3.44ZM4.77 8.39l-1.4 3.11a.42.42 0 0 0 .38.6H13V7.5H6.15a1.51 1.51 0 0 0-1.38.89Zm23.11 3.96 2.12.42A1.25 1.25 0 0 1 31 14v1.5h-1.25a1.87 1.87 0 0 1-1.87-1.88v-1.27Z" clip-rule="evenodd"/>
  <path fill="#4DBDF5" d="M7 26.5a4 4 0 1 0 0-8 4 4 0 0 0 0 8Z"/>
  <path fill="#0053E2" d="M7 24.5a2 2 0 1 0 0-4 2 2 0 0 0 0 4Z"/>
  <path fill="#4DBDF5" d="M25 26.5a4 4 0 1 0 0-8 4 4 0 0 0 0 8Z"/>
  <path fill="#0053E2" d="M25 24.5a2 2 0 1 0 0-4 2 2 0 0 0 0 4Z"/>
  <path fill="#fff" fill-rule="evenodd" d="M22.36 12.1h-6.47l3.49-3.44 2.98 3.44Z" clip-rule="evenodd"/>
</svg>
