<svg xmlns="http://www.w3.org/2000/svg" width="32" height="32" fill="none" viewBox="0 0 32 32">
  <path fill="#0053E2" fill-rule="evenodd" d="M14.79 4.35a.48.48 0 0 0-.13-.32 1.81 1.81 0 1 1 3.15-1.22c0 .45-.167.886-.47 1.22a.48.48 0 0 0-.13.32.44.44 0 0 0 .36.43c2.24.45 3.87 1.83 3.87 3.47 0 2-2.44 3.63-5.44 3.63-3 0-5.44-1.63-5.44-3.63 0-1.64 1.63-3 3.87-3.47a.44.44 0 0 0 .36-.43Z" clip-rule="evenodd"/>
  <path fill="#0053E2" d="M23 11.27v16.31A2.42 2.42 0 0 1 20.58 30h-9.16A2.42 2.42 0 0 1 9 27.58V11.27h14Z"/>
  <path fill="#4DBDF5" fill-rule="evenodd" d="M22.79 9.21A1.21 1.21 0 0 0 21.58 8H10.42a1.21 1.21 0 0 0-1.21 1.21A1.21 1.21 0 0 0 8 10.42v.37A1.21 1.21 0 0 0 9.21 12h13.58A1.21 1.21 0 0 0 24 10.79v-.37a1.21 1.21 0 0 0-1.21-1.21Z" clip-rule="evenodd"/>
  <path fill="#fff" fill-rule="evenodd" d="M13 16v1H9v-1h4Zm0 3v1H9v-1h4Zm0 4v-1H9v1h4Z" clip-rule="evenodd"/>
</svg>
