<svg xmlns="http://www.w3.org/2000/svg" width="32" height="32" fill="none" viewBox="0 0 32 32">
  <path fill="#0053E2" d="m25.25 4.67 2.3.76a1.75 1.75 0 0 1 1.2 1.66v5.16h-3.5V4.67ZM12.5 26a9.5 9.5 0 1 0 0-19 9.5 9.5 0 0 0 0 19Z"/>
  <path fill="#4DBDF5" d="M12.5 24a7.5 7.5 0 1 0 0-15 7.5 7.5 0 0 0 0 15Z"/>
  <path fill="#fff" d="M17.8 11.2a7.468 7.468 0 0 1 2.2 5.3 7.47 7.47 0 0 1-2.2 5.3 7.468 7.468 0 0 1-5.3 2.2 7.469 7.469 0 0 1-5.3-2.2l5.3-5.3 5.3-5.3Z"/>
  <path fill="#0053E2" d="M2 25h21a3 3 0 0 1-3 3H5a3 3 0 0 1-3-3Z"/>
  <path fill="#4DBDF5" d="M14.83 25a1.45 1.45 0 0 1-.17.67 1.94 1.94 0 0 1-.51.57 2.58 2.58 0 0 1-.76.38c-.29.084-.589.128-.89.13a3.239 3.239 0 0 1-.89-.13 2.58 2.58 0 0 1-.76-.38 1.94 1.94 0 0 1-.51-.57 1.45 1.45 0 0 1-.17-.67h4.66Z"/>
  <path fill="#0053E2" d="M30 16.33h-6V28h6V16.33Z"/>
  <path fill="#4DBDF5" d="M29.41 10.5h-4.83v4.67h4.83V10.5Z"/>
  <path fill="#4DBDF5" d="M24 15.75a1.17 1.17 0 0 1 1.17-1.17h3.66A1.17 1.17 0 0 1 30 15.75v.58h-6v-.58Z"/>
</svg>
