<svg xmlns="http://www.w3.org/2000/svg" width="32" height="32" fill="none" viewBox="0 0 32 32">
  <path fill="#0053E2" d="M10.55 29h10.9a1.91 1.91 0 0 0-1.9-1.91h-.23A2.32 2.32 0 0 1 17 24.77v-2.13h-2v2.13a2.32 2.32 0 0 1-2.32 2.32h-.23a1.91 1.91 0 0 0-1.9 1.91ZM24 14.2v-9H8v9h16Zm4 7.8v-7.63H4V22h24Z"/>
  <path fill="#4DBDF5" fill-rule="evenodd" d="M8.2 4A1.2 1.2 0 0 0 7 5.2a2.39 2.39 0 0 0 2.4 2.4h.17a2.41 2.41 0 0 0 2.09-1.22 2.38 2.38 0 0 0 2.08 1.22h.17A2.39 2.39 0 0 0 16 6.38a2.39 2.39 0 0 0 2.09 1.22h.17a2.38 2.38 0 0 0 2.08-1.22 2.41 2.41 0 0 0 2.09 1.22h.17A2.39 2.39 0 0 0 25 5.2 1.2 1.2 0 0 0 23.8 4H8.2ZM4 12.49a1.2 1.2 0 0 0-1.2 1.2 2.4 2.4 0 0 0 2.4 2.4h.11a2.399 2.399 0 0 0 2.09-1.23 2.43 2.43 0 0 0 2.1 1.23h.11a2.4 2.4 0 0 0 2.09-1.23 2.41 2.41 0 0 0 2.1 1.23h.11A2.4 2.4 0 0 0 16 14.86a2.4 2.4 0 0 0 2.09 1.23h.11a2.41 2.41 0 0 0 2.1-1.23 2.4 2.4 0 0 0 2.09 1.23h.11a2.43 2.43 0 0 0 2.1-1.23 2.4 2.4 0 0 0 2.09 1.23h.11a2.4 2.4 0 0 0 2.4-2.4 1.2 1.2 0 0 0-1.2-1.2H4Z" clip-rule="evenodd"/>
  <path fill="#4DBDF5" d="M1 22h30a2.63 2.63 0 0 1-2.56 2H3.56A2.63 2.63 0 0 1 1 22Z"/>
</svg>
