<svg xmlns="http://www.w3.org/2000/svg" width="32" height="32" fill="none" viewBox="0 0 32 32">
  <path fill="#4DBDF5" d="m14.005 4.81-2.4-1.802L3.8 13.404l2.4 1.801 7.804-10.396Zm11.807 10.388 2.399-1.802-7.805-10.395-2.4 1.8 7.806 10.397Z"/>
  <path fill="#0053E2" fill-rule="evenodd" d="M1 12.998v4h1.88l.81 9.73a2.51 2.51 0 0 0 2.49 2.27h19.64a2.51 2.51 0 0 0 2.49-2.27l.81-9.73H31v-4H1Zm8 12.88H7v-8.88h2v8.88Zm5.33 0h-2v-8.88h2v8.88Zm5.34 0h-2v-8.88h2v8.88Zm5.33 0h-2v-8.88h2v8.88Z" clip-rule="evenodd"/>
</svg>
