<svg xmlns="http://www.w3.org/2000/svg" width="32" height="32" fill="none" viewBox="0 0 32 32">
  <path fill="#0053E2" fill-rule="evenodd" d="m1 10.33 4.67 6L7 15.19V29h18V15.19l1.33 1.14L31 9.67 25.58 4.5A5.48 5.48 0 0 0 21.82 3H10.33a5.44 5.44 0 0 0-3.94 1.69L1 10.33Z" clip-rule="evenodd"/>
  <path fill="#4DBDF5" fill-rule="evenodd" d="M11.46 3.01a4.569 4.569 0 0 0 1.32 2.653c.42.43.924.77 1.48.998a4.6 4.6 0 0 0 3.49-.01 4.48 4.48 0 0 0 1.48-.998c.432-.418.773-.92 1-1.476A4.37 4.37 0 0 0 20.55 3h-9.09v.01Z" clip-rule="evenodd"/>
</svg>
