<svg xmlns="http://www.w3.org/2000/svg" width="32" height="32" fill="none" viewBox="0 0 32 32">
  <path fill="#4DBDF5" d="M16 12a5.5 5.5 0 1 0 0-11 5.5 5.5 0 0 0 0 11Z"/>
  <path fill="#0053E2" fill-rule="evenodd" d="M16 3.94a2.56 2.56 0 1 0 0 5.12 2.56 2.56 0 0 0 0-5.12ZM12.44 6.5a3.56 3.56 0 1 1 7.12 0 3.56 3.56 0 0 1-7.12 0Z" clip-rule="evenodd"/>
  <path fill="#0053E2" d="M29 13H3v17h26V13Z"/>
  <path fill="#4DBDF5" d="M18.56 16.57A3.413 3.413 0 0 1 22 20c0 3.06-4.47 5.67-5.51 6.27a.986.986 0 0 1-.49.16l.27-8.99a3.632 3.632 0 0 1 2.29-.87Zm-5.12 0a3.633 3.633 0 0 1 2.29.87l.27 8.99a1.001 1.001 0 0 1-.49-.16C14.47 25.67 10 23.06 10 20a3.41 3.41 0 0 1 3.44-3.43Z"/>
</svg>
