<svg xmlns="http://www.w3.org/2000/svg" width="32" height="32" fill="none" viewBox="0 0 32 32">
  <path fill="#4DBDF5" d="M22 2H5v28h17V2Z"/>
  <path fill="#0053E2" d="M8.5 17.32a1.5 1.5 0 1 0 0-3 1.5 1.5 0 0 0 0 3ZM27 19H15.18v11H27V19Z"/>
  <mask id="a" width="8" height="9" x="17" y="20" maskUnits="userSpaceOnUse" style="mask-type:luminance">
    <path fill="#fff" d="M24.64 20.95h-7.09v7.09h7.09v-7.09Z"/>
  </mask>
  <g mask="url(#a)">
    <path fill="#fff" fill-rule="evenodd" d="M20.542 21.55a.551.551 0 0 1 .939-.389.55.55 0 0 1 .16.389c0 .13-.13 1.55-.18 1.69a.39.39 0 0 1-.74 0c-.05-.14-.18-1.56-.18-1.69Zm3.38 2c-.11.07-1.41.66-1.55.69a.39.39 0 0 1-.37-.24.4.4 0 0 1 .05-.45c.1-.11 1.26-.93 1.37-1a.55.55 0 0 1 .75.2.549.549 0 0 1-.25.75v.05Zm-1.55 1.31c.14 0 1.44.62 1.55.69a.55.55 0 0 1-.55.95c-.11-.07-1.27-.89-1.37-1a.4.4 0 0 1 0-.5.39.39 0 0 1 .37-.19v.05Zm-1.28.68a.39.39 0 0 0-.37.27c-.05.14-.18 1.56-.18 1.69a.55.55 0 0 0 1.1 0c0-.13-.13-1.55-.18-1.69a.39.39 0 0 0-.37-.32v.05Zm-2.83 0c.12-.07 1.41-.66 1.55-.69a.39.39 0 0 1 .42.19.36.36 0 0 1 0 .45c-.1.11-1.25.93-1.37 1a.55.55 0 0 1-.75-.2.55.55 0 0 1 .15-.79v.04Zm.55-3a.55.55 0 0 0-.55.95c.12.07 1.41.66 1.55.69a.39.39 0 0 0 .42-.19.36.36 0 0 0 0-.45c-.15-.1-1.3-.92-1.42-.99v-.01Z" clip-rule="evenodd"/>
  </g>
</svg>
