<svg xmlns="http://www.w3.org/2000/svg" width="32" height="32" fill="none" viewBox="0 0 32 32">
  <path fill="#0053E2" d="M27.5 6h-23A2.5 2.5 0 0 0 2 8.5v15A2.5 2.5 0 0 0 4.5 26h23a2.5 2.5 0 0 0 2.5-2.5v-15A2.5 2.5 0 0 0 27.5 6Z"/>
  <path fill="#4DBDF5" d="M16.5 6h-1v20h1V6Z"/>
  <path fill="#4DBDF5" d="M30 16.5H2v1h28v-1Z"/>
  <path fill="#fff" fill-rule="evenodd" d="M11.66 11.26h.15a2.67 2.67 0 0 1 2.6 2.08l.71 3.13-3.59-.18a2.51 2.51 0 0 1-2.39-2.51 2.52 2.52 0 0 1 2.52-2.52Zm8.86 6.18-3.41.17.38.57a4.66 4.66 0 0 0 5.71 1.7l.45 1.05a5.81 5.81 0 0 1-7.11-2.11L16 18l-.54.81a5.81 5.81 0 0 1-7.11 2.11l.45-1.05a4.66 4.66 0 0 0 5.71-1.7l.38-.57-3.41-.17A3.67 3.67 0 0 1 8 13.78a3.66 3.66 0 0 1 3.66-3.66h.15a3.81 3.81 0 0 1 3.72 3L16 15.2l.47-2.08a3.81 3.81 0 0 1 3.72-3h.15a3.66 3.66 0 0 1 2.65 6.184 3.67 3.67 0 0 1-2.47 1.136Zm-.18-6.18h-.15a2.67 2.67 0 0 0-2.6 2.08l-.71 3.13 3.59-.18a2.51 2.51 0 0 0 2.39-2.51 2.52 2.52 0 0 0-2.52-2.52Z" clip-rule="evenodd"/>
</svg>
