<svg xmlns="http://www.w3.org/2000/svg" width="32" height="32" fill="none" viewBox="0 0 32 32">
  <path fill="#0053E2" d="m23.72 5.63-1.46 1.46 2.55 2.55 1.46-1.46a.632.632 0 0 0 0-.9l-1.65-1.65a.63.63 0 0 0-.9 0Z"/>
  <path fill="#4DBDF5" d="m28 10.91-6.36-6.36h-1.28L14 10.91v17.82A1.27 1.27 0 0 0 15.27 30h11.46A1.27 1.27 0 0 0 28 28.73V10.91Z"/>
  <path fill="#4DBDF5" d="M19.99 2.32a.32.32 0 0 1 .32-.32h1.36a.32.32 0 0 1 .32.32v3.5h-2v-3.5Zm-8.931 18.22h-1v-.47a6.909 6.909 0 0 1 2-4.92l.71.7a6 6 0 0 0-1.74 4.22l.03.47Zm-.499-4.72a2.211 2.211 0 0 0-2.21-2.21h-1v.94a2.21 2.21 0 0 0 2.21 2.21h1v-.94Z"/>
  <path fill="#0053E2" fill-rule="evenodd" d="M10.993 19.285a.758.758 0 0 1-.992 0 4.234 4.234 0 0 0-1.808-1.103 4.188 4.188 0 0 0-2.11-.084c-2.429.644-3.688 3.812-2.796 7.04.893 3.228 3.57 5.39 6 4.747.288-.076.565-.191.823-.342a.834.834 0 0 1 .784 0c.258.15.535.266.823.342 2.43.644 5.117-1.478 6-4.747.883-3.268-.367-6.426-2.797-7.04a4.188 4.188 0 0 0-2.114.081 4.234 4.234 0 0 0-1.813 1.106Z" clip-rule="evenodd"/>
  <path fill="#0053E2" d="M26.05 10.91h-10.1L21 6l5.05 4.91Z"/>
</svg>
