<svg xmlns="http://www.w3.org/2000/svg" width="32" height="32" fill="none" viewBox="0 0 32 32">
  <path fill="#4DBDF5" d="M19.33 10.18h3.34L23.33 30h-4.66l.66-19.82Z"/>
  <path fill="#0053E2" d="M18 5.05h-2.65v4H18v-4Z"/>
  <path fill="#4DBDF5" d="M16.3 3.55h-.6a.7.7 0 0 0-.7.7v5.6a.7.7 0 0 0 .7.7h.6a.7.7 0 0 0 .7-.7v-5.6a.7.7 0 0 0-.7-.7Zm1.7 0h7.16A4.18 4.18 0 0 1 29 6.07l1 2.34-1.39.7-.78-1.13a2.07 2.07 0 0 0-1.71-1 2.07 2.07 0 0 0-2 1.65l-.36 1.83H18V3.55Z"/>
  <path fill="#4DBDF5" fill-rule="evenodd" d="M5.61 12 5 27.4a2.51 2.51 0 0 0 1 2.1 2.52 2.52 0 0 0 3 0 2.52 2.52 0 0 0 1-2.1L9.45 12M7.51 28.51a1 1 0 1 1 0-2 1 1 0 0 1 0 2Z" clip-rule="evenodd"/>
  <path fill="#4DBDF5" fill-rule="evenodd" d="M9.5 2.38V7a1 1 0 0 1-1 1H6.46a1 1 0 0 1-1-1V2.34A5.5 5.5 0 0 0 2 7.5a5.5 5.5 0 1 0 10.04-3.1A5.5 5.5 0 0 0 9.5 2.38Z" clip-rule="evenodd"/>
</svg>
