<svg xmlns="http://www.w3.org/2000/svg" width="32" height="32" fill="none" viewBox="0 0 32 32">
  <path fill="#4DBDF5" d="M21 2h3v2l-3 .6V2Z"/>
  <path fill="#0053E2" fill-rule="evenodd" d="M22 7h-4v1.5a7 7 0 0 0 1.31 4.08l2.38 3.34A7 7 0 0 1 23 20v10H9V20a7 7 0 0 1 1.31-4.08l2.38-3.34A7 7 0 0 0 14 8.5V7h-3a5 5 0 0 1 5-5h6v4.67" clip-rule="evenodd"/>
  <path fill="#4DBDF5" d="M23 20H9v6h14v-6Z"/>
  <path fill="#fff" d="M20 22h-8v2h8v-2Z"/>
  <path fill="#0053E2" d="M22 5.5h-2V9h2V5.5Z"/>
</svg>
