<svg xmlns="http://www.w3.org/2000/svg" width="32" height="32" fill="none" viewBox="0 0 32 32">
  <path fill="#0053E2" d="M3 15.55h26v10.08A2.37 2.37 0 0 1 26.63 28H5.37A2.37 2.37 0 0 1 3 25.63V15.55ZM29 12H3v3.55h26V12Z"/>
  <path fill="#4DBDF5" d="M3 12h6.45l-3 3.55H3V12Zm11.78 0h5.93l-3 3.55h-5.93l3-3.55Zm10.67 0H29v3.55h-6.52L25.45 12Z"/>
  <path fill="#0053E2" d="M2.766 10.906a2.5 2.5 0 0 1 1.926-2.965l20.54-4.366A2.5 2.5 0 0 1 28.199 5.5l.23 1.086-25.431 5.406-.23-1.086Z"/>
  <path fill="#4DBDF5" d="m5.759 7.714-1.067.227a2.5 2.5 0 0 0-1.926 2.965l.23 1.086 6.476-1.377L5.76 7.714Zm14.745.556-5.79 1.231L11 6.6l5.79-1.23 3.714 2.9Zm.976-3.898 3.753-.797A2.5 2.5 0 0 1 28.198 5.5l.23 1.086-3.235.688-3.713-2.902Z"/>
</svg>
