<svg xmlns="http://www.w3.org/2000/svg" width="32" height="32" fill="none" viewBox="0 0 32 32">
  <path fill="#0053E2" fill-rule="evenodd" d="M21 2v15.869c-.06.74-.364 1.44-.868 1.994a3.475 3.475 0 0 1-1.92 1.072c-1.922.489-3.824-.35-4.252-1.878-.427-1.528.784-3.176 2.696-3.665a4.235 4.235 0 0 1 1.964 0v-7.77l-9.492 3.256v9.987a3.356 3.356 0 0 1-.885 1.953c-.503.54-1.17.906-1.902 1.043-1.912.489-3.815-.35-4.252-1.888-.438-1.538.783-3.166 2.706-3.665a4.373 4.373 0 0 1 1.963 0V6.883l.794-.28L19.413 2.53 21 2Z" clip-rule="evenodd"/>
  <path fill="#4DBDF5" fill-rule="evenodd" d="M30 12.26v-1.59l-1.51.47-4.67 1.46-.82.26v11.45a4.092 4.092 0 0 0-1.93 0c-1.89.49-3.07 2.13-2.65 3.67.42 1.54 2.29 2.37 4.18 1.88a3.38 3.38 0 0 0 2.73-3.07v-9.93l3.85-1.2.82-.26v-3.19.05Z" clip-rule="evenodd"/>
</svg>
