<svg xmlns="http://www.w3.org/2000/svg" width="32" height="32" fill="none" viewBox="0 0 32 32">
  <path fill="#0053E2" d="M6.92 17.81h18.2l-1.27 10.56a2.42 2.42 0 0 1-2.4 2.13H10.57a2.43 2.43 0 0 1-2.4-2.13L6.92 17.81Z"/>
  <path fill="#4DBDF5" d="M15.74 17.25a3.63 3.63 0 0 0-3.52-2.75H9.01l.52 2.09a3.64 3.64 0 0 0 3.48 2.74h3.21l-.48-2.08Z"/>
  <path fill="#4DBDF5" d="M16.28 17.25a3.63 3.63 0 0 1 3.52-2.75h3.21l-.52 2.09a3.64 3.64 0 0 1-3.48 2.74H15.8l.48-2.08Z"/>
  <path fill="#4DBDF5" d="M16.76 10.56h-1.5v7.25h1.5v-7.25Z"/>
  <path fill="#0053E2" d="M5.5 17.5h21l-.51 5h-20l-.49-5Z"/>
  <path fill="#0053E2" fill-rule="evenodd" d="M11.01 5.94A2.32 2.32 0 0 0 9.49 8a2.32 2.32 0 0 0 1.52 2.06 2.36 2.36 0 0 0 .38 2.54 2.361 2.361 0 0 0 2.54.38 2.32 2.32 0 0 0 2.08 1.52 2.32 2.32 0 0 0 2.06-1.52 2.36 2.36 0 0 0 2.54-.38 2.36 2.36 0 0 0 .38-2.54A2.32 2.32 0 0 0 22.51 8a2.32 2.32 0 0 0-1.5-2.06 2.36 2.36 0 0 0-.38-2.54 2.36 2.36 0 0 0-2.54-.38 2.32 2.32 0 0 0-2.08-1.52 2.32 2.32 0 0 0-2.06 1.52 2.36 2.36 0 0 0-2.54.38 2.36 2.36 0 0 0-.4 2.54Z" clip-rule="evenodd"/>
  <path fill="#fff" d="M16.01 11a3 3 0 1 0 0-6 3 3 0 0 0 0 6Z"/>
</svg>
