<svg xmlns="http://www.w3.org/2000/svg" width="32" height="32" fill="none" viewBox="0 0 32 32">
  <path fill="#4DBDF5" d="M10.52 2.464a.61.61 0 0 1 .76-.44l1.82.48-1.62 6-1.81-.48a.63.63 0 0 1-.45-.77l1.3-4.79Z"/>
  <path fill="#0053E2" d="M5.93 29.75 4 29.23l4.54-16.91a.88.88 0 0 1 .22-.4l2.62-3L13.1 2.5l1.93.52-1.78 6.64a1 1 0 0 1-.22.41l-2.62 3-4.48 16.68Z"/>
  <path fill="#4DBDF5" d="M16.515 25h10l1.26-21.62A1.28 1.28 0 0 0 26.515 2h-10.24a1.27 1.27 0 0 0-1.27 1.38L16.515 25Z"/>
  <path fill="#0053E2" d="M16.54 25h10v3.73A1.27 1.27 0 0 1 25.27 30h-7.46a1.27 1.27 0 0 1-1.27-1.27V25Z"/>
  <path fill="#fff" d="M23.62 25a2.193 2.193 0 0 1-.16.8c-.11.253-.266.484-.46.68a2 2 0 0 1-.67.45 2 2 0 0 1-.8.16 2 2 0 0 1-.8-.16 1.999 1.999 0 0 1-.68-.45 2.209 2.209 0 0 1-.46-.68 2.18 2.18 0 0 1-.15-.8h4.18Z"/>
</svg>
