<svg xmlns="http://www.w3.org/2000/svg" width="32" height="32" fill="none" viewBox="0 0 32 32">
  <path fill="#4DBDF5" d="M16 14.24A4.12 4.12 0 1 0 16 6a4.12 4.12 0 0 0 0 8.24Z"/>
  <path fill="#4DBDF5" d="M21.29 16a4.12 4.12 0 1 0 0-8.24 4.12 4.12 0 0 0 0 8.24Zm-10.58 0a4.12 4.12 0 1 0 0-8.24 4.12 4.12 0 0 0 0 8.24Z"/>
  <path fill="#0053E2" d="M3.94 14.37A2.81 2.81 0 0 1 6.71 12h18.58a2.81 2.81 0 0 1 2.77 2.37L30 27H2l1.94-12.63Z"/>
  <path fill="#fff" fill-rule="evenodd" d="M10.25 19.36A2 2 0 0 1 9.05 17a2 2 0 0 1 2.385-1.489A2 2 0 0 1 13 17.5c0 .168-.02.336-.06.5h6.12a2.21 2.21 0 0 1 0-1 2 2 0 0 1 1.48-1.49A2.001 2.001 0 0 1 23 17.5a2 2 0 0 1-1.24 1.85.15.15 0 0 0 0 .29A2 2 0 0 1 23 22a2 2 0 0 1-1.48 1.48A2 2 0 0 1 19 21.5c0-.169.02-.337.06-.5h-6.12a2.21 2.21 0 0 1 0 1 2 2 0 0 1-1.48 1.49A2.001 2.001 0 0 1 9 21.5a2 2 0 0 1 1.24-1.85.15.15 0 0 0 .01-.29Z" clip-rule="evenodd"/>
</svg>
