<svg xmlns="http://www.w3.org/2000/svg" width="32" height="32" fill="none" viewBox="0 0 32 32">
  <path fill="#4DBDF5" d="M14.511 19.189c2.083-.72 2.45-5.129.82-9.848C13.7 4.622 10.69 1.381 8.606 2.1c-2.083.72-2.45 5.128-.82 9.847 1.631 4.72 4.641 7.961 6.724 7.242Z"/>
  <path fill="#4DBDF5" fill-rule="evenodd" d="M20.109 14.384a.83.83 0 0 0-.8-.12 1.91 1.91 0 0 1-.52.14c-1.63.22-3.16-1.48-3.41-3.79s.86-4.36 2.49-4.58a2.6 2.6 0 0 1 2.36 1.12.74.74 0 0 0 1 .13 2.61 2.61 0 0 1 2.57-.41c1.51.66 2 2.94 1.12 5.09-.88 2.15-2.82 3.35-4.32 2.69a1.923 1.923 0 0 1-.49-.27Z" clip-rule="evenodd"/>
  <path fill="#0053E2" d="M6 9h20v21H6V9Z"/>
  <path fill="#0053E2" d="M16 17.175c-3.41 0-6.18-3.41-6.18-7.59s2.77-7.57 6.18-7.57c3.41 0 6.18 3.4 6.18 7.58s-2.77 7.58-6.18 7.58Zm0-14c-2.77 0-5 2.88-5 6.41 0 3.53 2.23 6.43 5 6.43s5-2.88 5-6.42-2.23-6.42-5-6.42Z"/>
</svg>
