<svg xmlns="http://www.w3.org/2000/svg" width="32" height="32" fill="none" viewBox="0 0 32 32">
  <path fill="#0053E2" d="M2 6.54c0-.673.268-1.32.745-1.796A2.547 2.547 0 0 1 4.545 4h22.86a2.549 2.549 0 0 1 2.397 1.557c.13.311.198.646.198.983v13a3.795 3.795 0 0 1-1.873 3.28L16 30 3.873 22.86A3.802 3.802 0 0 1 2 19.58V6.54Z"/>
  <path fill="#4DBDF5" d="M16 4.001v26L3.873 22.86A3.803 3.803 0 0 1 2 19.58V6.54c0-.674.268-1.32.745-1.796A2.547 2.547 0 0 1 4.545 4H16Z"/>
  <path fill="#fff" d="m14.68 20.01-4.51-4.51 1.41-1.41 3.1 3.1 6.27-6.27 1.41 1.41-7.68 7.68Z"/>
</svg>
