<svg xmlns="http://www.w3.org/2000/svg" width="32" height="32" fill="none" viewBox="0 0 32 32">
  <path fill="#4DBDF5" d="M29 9H3v19h26V9Z"/>
  <path fill="#0053E2" d="M29 17H3v2h26v-2Z"/>
  <path fill="#0053E2" d="M17 9h-2v19h2V9Z"/>
  <path fill="#0053E2" fill-rule="evenodd" d="M11.2 4.8h.24a1.46 1.46 0 0 1 1.13.54l1.48 1.86H11.2a1.2 1.2 0 1 1 0-2.4ZM17.8 9h-6.6a3 3 0 0 1 0-6h.24A3.22 3.22 0 0 1 14 4.22l2 2.53 2-2.53A3.22 3.22 0 0 1 20.56 3h.24a3 3 0 1 1 0 6h-3Zm3-4.2h-.24a1.46 1.46 0 0 0-1.13.54L18 7.2h2.85a1.2 1.2 0 0 0-.05-2.4Z" clip-rule="evenodd"/>
</svg>
