<svg xmlns="http://www.w3.org/2000/svg" width="32" height="32" fill="none" viewBox="0 0 32 32">
  <path fill="#0053E2" d="M2 7.33A2.33 2.33 0 0 1 4.33 5h23.34A2.33 2.33 0 0 1 30 7.33V11H2V7.33Z"/>
  <path fill="#4DBDF5" d="M2 23.67A2.33 2.33 0 0 0 4.33 26h23.34A2.33 2.33 0 0 0 30 23.67V11H2v12.67Z"/>
  <path fill="#fff" d="M22.92 23.17h-1v-4.75h-4.75v-1h4.75v-4.75h1v4.75h4.75v1h-4.75v4.75Z"/>
  <path fill="#fff" d="m22.42 17.12-2.73-3.41.78-.62 1.95 2.43 1.94-2.43.78.62-2.72 3.41Zm4.2 3.52-3.4-2.72 3.4-2.73.63.78-2.43 1.95 2.43 1.94-.63.78Zm-2.26 2.11-1.94-2.43-1.95 2.43-.78-.63 2.73-3.4 2.72 3.4-.78.63Zm-6.15-2.11-.62-.78 2.43-1.94-2.43-1.95.62-.78 3.41 2.73-3.41 2.72Z"/>
  <path fill="#4DBDF5" fill-rule="evenodd" d="M6 9a1 1 0 1 0 0-2 1 1 0 0 0 0 2Zm20 0a1 1 0 1 0 0-2 1 1 0 0 0 0 2Z" clip-rule="evenodd"/>
  <path fill="#0053E2" fill-rule="evenodd" d="M5.4 16.09A2.17 2.17 0 0 0 4 18a2.17 2.17 0 0 0 1.4 1.91 2.14 2.14 0 0 0 .36 2.33 2.14 2.14 0 0 0 2.33.36A2.17 2.17 0 0 0 10 24a2.17 2.17 0 0 0 1.91-1.4 2.14 2.14 0 0 0 2.33-.36 2.14 2.14 0 0 0 .36-2.33A2.17 2.17 0 0 0 16 18a2.17 2.17 0 0 0-1.4-1.91 2.14 2.14 0 0 0-.36-2.33 2.14 2.14 0 0 0-2.33-.36A2.17 2.17 0 0 0 10 12a2.17 2.17 0 0 0-1.91 1.4 2.14 2.14 0 0 0-2.33.36 2.14 2.14 0 0 0-.36 2.33Z" clip-rule="evenodd"/>
  <path fill="#fff" d="M10 20.5a2.5 2.5 0 1 0 0-5 2.5 2.5 0 0 0 0 5Z"/>
</svg>
