<svg xmlns="http://www.w3.org/2000/svg" width="32" height="32" fill="none" viewBox="0 0 32 32">
  <path fill="#0053E2" fill-rule="evenodd" d="M26.967 21.308a5.894 5.894 0 0 0-2.765 1.284l-.288-2.89 4.579-2.7a2.832 2.832 0 0 0 1.376-1.665c.224-.72.159-1.5-.182-2.17a2.806 2.806 0 0 0-1.633-1.404 2.741 2.741 0 0 0-2.128.186l-1.982.94a3.196 3.196 0 0 0 .595-1.87 3.25 3.25 0 0 0-.499-1.73 3.162 3.162 0 0 0-1.335-1.181 2.493 2.493 0 0 0 1.188-.519c.344-.275.613-.637.779-1.05a2.613 2.613 0 0 0-.326-2.525 2.524 2.524 0 0 0-1.02-.81 2.473 2.473 0 0 0-2.48.298c-.352.265-.63.62-.807 1.028a6.426 6.426 0 0 0-4.054-1.102 6.428 6.428 0 0 0-4.034 1.132 2.559 2.559 0 0 0-.808-1.028 2.473 2.473 0 0 0-2.48-.297 2.525 2.525 0 0 0-1.019.81 2.614 2.614 0 0 0-.326 2.525c.166.412.435.775.78 1.05.345.275.754.454 1.187.518A3.16 3.16 0 0 0 7.95 9.32a3.25 3.25 0 0 0-.498 1.73c0 .673.212 1.328.604 1.87l-1.982-.94a2.742 2.742 0 0 0-2.128-.185 2.805 2.805 0 0 0-1.633 1.403c-.34.67-.406 1.45-.182 2.17a2.83 2.83 0 0 0 1.376 1.666l4.55 2.668-.308 2.89a5.894 5.894 0 0 0-2.765-1.283 2.403 2.403 0 0 0-1.115.075 2.437 2.437 0 0 0-.967.572c-.271.272-.483.6-.62.964a2.768 2.768 0 0 0-.172 1.138C2.11 26.675 4.786 29 8.136 29h15.699c3.35 0 6.026-2.325 6.026-4.943a2.768 2.768 0 0 0-.176-1.157 2.724 2.724 0 0 0-.637-.975 2.435 2.435 0 0 0-.97-.556 2.4 2.4 0 0 0-1.111-.06Z" clip-rule="evenodd"/>
  <path fill="#4DBDF5" d="M20.111 7.724a1 1 0 1 1 0 2 1 1 0 0 1 0-2Zm-8 0a1 1 0 1 1 0 2 1 1 0 0 1 0-2Z"/>
  <path fill="#fff" d="M16.11 7.724c-1.6 0-2.9 2.64-2.9 4.18a2.85 2.85 0 0 0 2.9 2.82 2.85 2.85 0 0 0 2.9-2.78c0-1.54-1.3-4.22-2.9-4.22Z"/>
  <path fill="#4DBDF5" d="m20.48 21.404-.27-1.32a4.18 4.18 0 0 0-8.2 0l-.26 1.32a4.45 4.45 0 1 0 8.73 0Z"/>
  <path fill="#0053E2" d="M17.781 9.924a2 2 0 0 1-1.67 1.8 2 2 0 0 1-1.67-1.8c0-.66.75-1.2 1.67-1.2.92 0 1.67.54 1.67 1.2Z"/>
</svg>
