<svg xmlns="http://www.w3.org/2000/svg" width="32" height="32" fill="none" viewBox="0 0 32 32">
  <path fill="#0053E2" d="M4.204 9.085A4.883 4.883 0 0 1 8.982 5h14.996a4.891 4.891 0 0 1 4.818 4.085l2.14 12.814a4.351 4.351 0 0 1-3.015 4.91 4.362 4.362 0 0 1-5.253-2.373l-2.69-5.454h-6.997l-2.649 5.454a4.357 4.357 0 0 1-5.253 2.372 4.358 4.358 0 0 1-3.014-4.91L4.204 9.086Z"/>
  <path fill="#4DBDF5" fill-rule="evenodd" d="M12 9h-2v2H8v2h2v2h2v-2h2v-2h-2V9Z" clip-rule="evenodd"/>
  <path fill="#fff" fill-rule="evenodd" d="M21.984 10.5a1 1 0 1 0 0-1.999 1 1 0 0 0 0 1.999Zm0 5a1 1 0 1 0 0-1.999 1 1 0 0 0 0 1.999Zm1.5-3.5a1 1 0 1 0 2 0 1 1 0 0 0-2 0Zm-5 0a1 1 0 1 0 2 0 1 1 0 0 0-2 0Z" clip-rule="evenodd"/>
</svg>
