<svg xmlns="http://www.w3.org/2000/svg" width="32" height="32" fill="none" viewBox="0 0 32 32">
  <path fill="#4DBDF5" fill-rule="evenodd" d="M9 8V6H2v20h7v-2H4V8h5Zm14 16v2h7V6h-7v2h5v16h-5Z" clip-rule="evenodd"/>
  <path fill="#0053E2" fill-rule="evenodd" d="M14.9 10.1a1.1 1.1 0 0 1 2.2 0c0 .27-.27 3.09-.36 3.38a.78.78 0 0 1-1.48 0c-.09-.29-.36-3.11-.36-3.38Zm6.76 3.9c-.23.14-2.81 1.32-3.1 1.38a.78.78 0 0 1-.94-.841.77.77 0 0 1 .2-.439c.19-.23 2.51-1.87 2.74-2a1.1 1.1 0 0 1 1.1 1.9Zm-3.1 2.62c.29.06 2.87 1.24 3.1 1.38a1.098 1.098 0 0 1 .463 1.537 1.101 1.101 0 0 1-1.563.363c-.23-.13-2.55-1.77-2.74-2a.77.77 0 0 1 .26-1.232.78.78 0 0 1 .48-.048ZM16 18a.78.78 0 0 0-.74.54c-.09.29-.36 3.11-.36 3.38a1.1 1.1 0 0 0 2.2 0c0-.27-.27-3.09-.36-3.38A.78.78 0 0 0 16 18Zm-5.66 0c.23-.14 2.81-1.32 3.1-1.38a.78.78 0 0 1 .94.841.77.77 0 0 1-.2.439c-.19.23-2.51 1.87-2.74 2a1.1 1.1 0 0 1-1.1-1.9Zm1.1-5.9a1.1 1.1 0 1 0-1.1 1.9c.23.14 2.81 1.32 3.1 1.38a.78.78 0 0 0 .94-.841.77.77 0 0 0-.2-.439c-.18-.23-2.51-1.87-2.74-2Z" clip-rule="evenodd"/>
</svg>
