<svg xmlns="http://www.w3.org/2000/svg" width="32" height="32" fill="none" viewBox="0 0 32 32">
  <g clip-path="url(#a)">
    <path fill="#4DBDF5" d="M30.362 30V15.03a3.6 3.6 0 0 1-1.961.579 3.6 3.6 0 0 1-3.13-1.813 3.6 3.6 0 0 1-3.13 1.813 3.602 3.602 0 0 1-2.998-1.597 3.6 3.6 0 0 1-2.997 1.597 3.6 3.6 0 0 1-3.21-1.96 3.6 3.6 0 0 1-3.21 1.96c-1.295 0-2.43-.68-3.065-1.7a3.6 3.6 0 0 1-3.064 1.7 3.6 3.6 0 0 1-1.667-.407V30h17.094m-3.69-4H5.777v-8.444h9.555V26Zm4.897 4V17.605h7.03L27.247 30"/>
    <path fill="#fff" d="M15.333 17.556H5.778V26h9.555v-8.444Z"/>
    <path fill="#0053E2" d="M27.247 30H20.23V17.604h7.03L27.247 30Zm4.463-19.376-3.057-7.869a1.887 1.887 0 0 0-1.761-1.2H5.074a1.89 1.89 0 0 0-1.763 1.207L.29 10.624c-.186.432-.29.907-.29 1.407 0 1.976 1.61 3.578 3.6 3.578a3.6 3.6 0 0 0 3.063-1.7 3.6 3.6 0 0 0 3.064 1.7 3.6 3.6 0 0 0 3.21-1.96 3.6 3.6 0 0 0 3.211 1.96 3.6 3.6 0 0 0 2.997-1.597 3.6 3.6 0 0 0 2.997 1.597 3.6 3.6 0 0 0 3.13-1.813 3.6 3.6 0 0 0 3.13 1.813c1.988 0 3.6-1.601 3.6-3.578 0-.5-.104-.975-.29-1.407Z"/>
  </g>
  <defs>
    <clipPath id="a">
      <path fill="#fff" d="M0 0h32v32H0z"/>
    </clipPath>
  </defs>
</svg>
