<svg xmlns="http://www.w3.org/2000/svg" width="32" height="32" fill="none" viewBox="0 0 32 32">
  <path fill="#2152D9" d="m22.18 3.93-.78.78 1.36 1.36.78-.78c.13-.13.13-.35 0-.48l-.88-.88a.344.344 0 0 0-.48 0Z"/>
  <path fill="#4DBDF5" d="m24.45 6.74-3.38-3.38h-.68l-3.38 3.38v9.48c0 .37.3.68.68.68h6.09c.37 0 .68-.3.68-.68V6.74h-.01Z"/>
  <path fill="#4DBDF5" d="M20.19 2.17c0-.1.07-.17.17-.17h.72c.1 0 .17.07.17.17v1.86h-1.06V2.17Z"/>
  <path fill="#2152D9" d="M23.41 6.74h-5.37l2.69-2.61 2.69 2.61h-.01Z"/>
  <path fill="#0053E2" d="M12 14c0-2.02-1.67-3.65-3.72-3.65-2.05 0-3.72 1.64-3.72 3.65"/>
  <path fill="#4DBDF5" d="M9.84 9.42c.51-.47.72-1.13.65-1.76-.64-.1-1.32.08-1.83.55-.51.47-.72 1.13-.65 1.76.64.1 1.32-.08 1.83-.55Z"/>
  <path fill="#0053E2" d="M25 28H7c-1.1 0-2-.9-2-2L3 15h26l-2 11c0 1.1-.9 2-2 2Z"/>
  <path fill="#4DBDF5" d="M29 14H3a1 1 0 1 0 0 2h26a1 1 0 1 0 0-2Z"/>
  <path fill="#0053E2" d="M15.11 11.52H26c1.1 0 2 .9 2 2V14H13.11v-.48c0-1.1.9-2 2-2Z"/>
</svg>
