<svg xmlns="http://www.w3.org/2000/svg" width="32" height="32" fill="none" viewBox="0 0 32 32">
  <path fill="#0053E2" d="M20 3h-8c-1.65 0-3 1.35-3 3v4c0 1.65 1.35 3 3 3h8c1.65 0 3-1.35 3-3V6c0-1.65-1.35-3-3-3Zm1 7c0 .55-.45 1-1 1h-8c-.55 0-1-.45-1-1V6c0-.55.45-1 1-1h8c.55 0 1 .45 1 1v4Z"/>
  <path fill="#4DBDF5" d="M26 9.78H6a3 3 0 0 0-3 3V25a3 3 0 0 0 3 3h20a3 3 0 0 0 3-3V12.78a3 3 0 0 0-3-3Z"/>
  <path fill="#0053E2" d="M26 10.74H6a3 3 0 0 0-3 3V21a3 3 0 0 0 3 3h20a3 3 0 0 0 3-3v-7.26a3 3 0 0 0-3-3Z"/>
  <path fill="#4DBDF5" d="M27 8H5a3 3 0 0 0-3 3v9a3 3 0 0 0 3 3h22a3 3 0 0 0 3-3v-9a3 3 0 0 0-3-3Z"/>
  <path fill="#0053E2" d="M22 21h-2v5h2v-5Zm-10 0h-2v5h2v-5Z"/>
  <path fill="#fff" fill-rule="evenodd" d="M15.31 11.94a.7.7 0 0 1 1.4 0c0 .17-.17 1.93-.23 2.12-.07.2-.26.34-.48.34-.22 0-.41-.13-.48-.34-.06-.18-.23-1.95-.23-2.12h.02Zm4.33 2.44c-.14.08-1.8.82-1.99.86a.52.52 0 0 1-.54-.23.484.484 0 0 1 .06-.57c.12-.14 1.61-1.17 1.76-1.25.34-.19.77-.07.97.25.19.33.08.75-.26.94Zm-1.98 1.64c.19.04 1.84.77 1.99.86.34.19.46.61.26.94-.19.33-.63.44-.97.25-.14-.08-1.63-1.11-1.76-1.25a.484.484 0 0 1-.06-.57c.11-.18.32-.28.54-.23Zm-1.65.85c-.21 0-.41.13-.48.34-.06.18-.23 1.95-.23 2.11a.7.7 0 0 0 1.4 0c0-.17-.17-1.93-.23-2.11a.508.508 0 0 0-.48-.34h.02Zm-3.62.01c.14-.08 1.8-.82 1.99-.86.21-.04.43.05.54.23.11.18.08.41-.06.57-.12.14-1.61 1.17-1.76 1.25-.34.19-.77.07-.97-.25a.681.681 0 0 1 .26-.94Zm.7-3.69a.732.732 0 0 0-.97.25c-.19.33-.08.75.26.94.14.08 1.8.82 1.99.86.21.04.43-.05.54-.23.11-.18.08-.41-.06-.57-.12-.14-1.61-1.17-1.76-1.25Z" clip-rule="evenodd"/>
</svg>
