<svg xmlns="http://www.w3.org/2000/svg" width="32" height="32" fill="none" viewBox="0 0 32 32">
  <path fill="#4DBDF5" fill-rule="evenodd" d="M6 29h14l6-6V12.99l-2.042-2.042.928-.928L26 11.134V3H6v26Z" clip-rule="evenodd"/>
  <path fill="#0053E2" fill-rule="evenodd" d="M20 29v-6h6l-6 6Z" clip-rule="evenodd"/>
  <path fill="#fff" d="M9 8h10v2H9zm0 4h14v2H9zm0 4h14v2H9zm0 4h14v2H9z"/>
  <path fill="#0053E2" d="m11.888 26.665 3.409-1.128c.26-.085.495-.23.688-.424l13.191-13.195a1.748 1.748 0 0 0 0-2.472l-.621-.622a1.748 1.748 0 0 0-2.472 0L12.887 22.015a1.75 1.75 0 0 0-.424.689l-1.128 3.408a.438.438 0 0 0 .553.553Z"/>
  <path fill="#0053E2" d="m24.422 10.485 3.094 3.093 1.66-1.66a1.748 1.748 0 0 0 0-2.472l-.621-.621a1.748 1.748 0 0 0-2.472 0l-1.66 1.66Z"/>
  <path fill="#4DBDF5" d="m27.051 14.042.928-.928-1.98-1.98v1.857l1.052 1.051Z"/>
  <path fill="#fff" d="M12.64 22.328a1.736 1.736 0 0 0-.177.375l-1.127 3.409a.437.437 0 0 0 .552.553l3.409-1.128a1.77 1.77 0 0 0 .376-.177l-3.032-3.032Z"/>
  <path fill="#0053E2" d="m11.84 24.59-.504 1.522a.437.437 0 0 0 .552.553l1.523-.504-1.572-1.572Z"/>
  <path fill="#fff" fill-rule="evenodd" d="m23.958 10.949.928-.928L26 11.135v1.856l-2.042-2.042Z" clip-rule="evenodd"/>
</svg>
