<svg xmlns="http://www.w3.org/2000/svg" width="32" height="32" fill="none" viewBox="0 0 32 32">
  <path fill="#0053E2" d="M19 24a6 6 0 1 1-12 0 6 6 0 0 1 12 0Zm4.071-17 7.071 7.071-7.07 7.071L16 14.072 23.071 7Z"/>
  <path fill="#4DBDF5" d="M8.56 2.262a.502.502 0 0 1 .88 0l1.83 3.464c.072.136.206.23.361.255l3.952.622a.478.478 0 0 1 .273.815l-2.822 2.763a.474.474 0 0 0-.138.414l.613 3.849c.062.387-.353.68-.712.503l-3.574-1.756a.508.508 0 0 0-.446 0l-3.574 1.756c-.36.177-.774-.116-.712-.503l.613-3.85a.474.474 0 0 0-.138-.412L2.144 7.418a.478.478 0 0 1 .273-.815l3.952-.622a.494.494 0 0 0 .361-.255l1.83-3.464Z"/>
</svg>
