<svg xmlns="http://www.w3.org/2000/svg" width="32" height="32" fill="none" viewBox="0 0 32 32">
  <path fill="#0053E2" d="M11 2H9a1 1 0 0 0-1 1v10a1 1 0 0 0 1 1h2a1 1 0 0 0 1-1V3a1 1 0 0 0-1-1Z"/>
  <path fill="#0053E2" d="M5 7a2 2 0 0 1 2-2h18a2 2 0 0 1 2 2v19a4 4 0 0 1-4 4H9a4 4 0 0 1-4-4V7Z"/>
  <path fill="#0053E2" d="M25 2h-2a1 1 0 0 0-1 1v10a1 1 0 0 0 1 1h2a1 1 0 0 0 1-1V3a1 1 0 0 0-1-1Z"/>
  <path fill="#4DBDF5" d="M25 5H7a2 2 0 0 0-2 2v4.5a4 4 0 0 0 4 4h14a4 4 0 0 0 4-4V7a2 2 0 0 0-2-2ZM10 18h12v6a3 3 0 0 1-3 3h-6a3 3 0 0 1-3-3v-6Z"/>
  <path fill="#fff" d="M13 13a1 1 0 0 1 1-1h4a1 1 0 1 1 0 2h-4a1 1 0 0 1-1-1Z"/>
  <path fill="#4DBDF5" d="M6 26v-8H2v4a4 4 0 0 0 4 4Zm24-8h-4v8a4 4 0 0 0 4-4v-4Z"/>
</svg>
