<svg xmlns="http://www.w3.org/2000/svg" width="32" height="32" fill="none" viewBox="0 0 32 32">
  <path fill="#0053E2" d="M8.5 3.974h2v4h-2z"/>
  <path fill="#4DBDF5" d="M27.975 6h-6.95c-.607 0-1.081.512-1.02 1.102L21.043 17h6.915l1.037-9.898c.061-.59-.413-1.102-1.02-1.102Z"/>
  <path fill="#0053E2" d="M18 6a2 2 0 1 0-4 0v7H3a1 1 0 0 0-1 1v1a1 1 0 0 0 .897.995L3 16v12a2 2 0 0 0 2 2h5.117a1 1 0 0 0 .992-.876L12.75 16h6.5l1.64 13.124a1 1 0 0 0 .993.876H27a2 2 0 0 0 2-2V16l.102-.005A1 1 0 0 0 30 15v-1a1 1 0 0 0-1-1H18V6Z"/>
  <path fill="#4DBDF5" d="M4 12.5a5.5 5.5 0 1 1 11 0v.5H4v-.5ZM12 3v1H8.012l-.201.008c-.452.027-.789.11-1.114.273-.384.193-.787.515-1.343 1.073l-.708-.708c.58-.58 1.073-.993 1.602-1.258.542-.272 1.087-.372 1.74-.388H12Z"/>
  <path fill="#0053E2" d="M9 16h14v7H9v-7Z"/>
  <path fill="#fff" d="M22 10a1 1 0 0 1 1-1h3a1 1 0 1 1 0 2h-3a1 1 0 0 1-1-1Z"/>
</svg>
