<svg xmlns="http://www.w3.org/2000/svg" width="32" height="32" fill="none" viewBox="0 0 32 32">
  <path fill="#0053E2" d="M2.515 15.424a1.085 1.085 0 0 1 0-1.848l12.93-7.92c.34-.208.77-.208 1.11 0l12.93 7.92a1.086 1.086 0 0 1 0 1.848l-12.93 7.92c-.34.208-.77.208-1.11 0l-12.93-7.92Z"/>
  <path fill="#4DBDF5" d="M7 17h18v6H7v-6Z"/>
  <path fill="#4DBDF5" d="M25 17c0 1.38-4.03 2.5-9 2.5S7 18.38 7 17s4.03-2.5 9-2.5 9 1.12 9 2.5Z"/>
  <path fill="#0053E2" d="M25 23c0 1.38-4.03 2.5-9 2.5S7 24.38 7 23s4.03-2.5 9-2.5 9 1.12 9 2.5Z"/>
  <path fill="#4DBDF5" d="M25 16.646c0 1.381-4.03 2.5-9 2.5s-9-1.119-9-2.5c0-1.38 4.03-2.5 9-2.5s9 1.12 9 2.5Z"/>
  <path fill="#4DBDF5" d="M7.016 16.449H25v6.561H7.016z"/>
  <path fill="#0053E2" d="M25 23.01c0 1.38-4.03 2.5-9 2.5s-9-1.12-9-2.5 4.03-2.5 9-2.5 9 1.12 9 2.5Z"/>
  <path fill="#4DBDF5" d="m26.313 16.146 1.5-2 1.5 2v10h-3v-10Z"/>
</svg>
