<svg xmlns="http://www.w3.org/2000/svg" width="32" height="32" fill="none" viewBox="0 0 32 32">
  <path fill="#4DBDF5" d="M2 6.659 19.387 2l5.953 22.216-17.387 4.659L2 6.659Z"/>
  <path fill="#0053E2" d="M10 7h18v23H10V7Z"/>
  <path fill="#fff" fill-rule="evenodd" d="M17.305 11c.761.008 1.463.327 1.931.88a2.29 2.29 0 0 1 .52 1.845c-.201 1.276-1.46 1.842-2.689 2.293l-.671.243c-1.672.622-1.888.912-1.71 1.462.195.606.9.593 2.754.224l.788-.157c1.571-.3 3.245-.487 4.438.562.721.636 1.028 1.452.888 2.366-.048.311-.15.623-.29.927.594.528 1.169 1.228 1.66 2.155a.807.807 0 0 1-.335 1.095.807.807 0 0 1-1.096-.335 6.18 6.18 0 0 0-1.136-1.537c-.958 1.13-2.22 2.023-2.825 2.292-.62.278-1.189.394-1.69.394-1.038 0-1.804-.5-2.242-1.107-.74-1.027-.706-2.442.076-3.293.856-.937 2.551-1.423 4.196-1.217a6.32 6.32 0 0 1 2.02.62c.027-.079.046-.16.059-.24.055-.364-.053-.634-.357-.903-.666-.578-1.927-.403-3.21-.154l-1.004.2c-1.71.327-3.624.517-4.239-1.395-.671-2.085 1.194-2.929 2.653-3.466l.791-.288c.751-.28 1.51-.612 1.571-.994a.679.679 0 0 0-.158-.544.885.885 0 0 0-.612-.302l-.096-.005a.808.808 0 0 1-.803-.818.809.809 0 0 1 .733-.8l.085-.003Zm1.786 10.666c-1.012 0-1.854.343-2.22.742-.255.277-.233.858.044 1.246.375.512 1.064.574 1.954.18.41-.182 1.4-.898 2.152-1.738a4.538 4.538 0 0 0-1.93-.43Z" clip-rule="evenodd"/>
</svg>
