<svg xmlns="http://www.w3.org/2000/svg" width="32" height="32" fill="none" viewBox="0 0 32 32">
  <path fill="#4DBDF5" d="M10.71 7.29c.22-.22.52-.32.8-.29H13c.55 0 1 .45 1 1s-.45 1-1 1h-1.18l-7.7 7.7a.996.996 0 0 1-1.41 0L2 15.99l8.71-8.7Zm10.58 0a.992.992 0 0 0-.8-.29H19c-.55 0-1 .45-1 1s.45 1 1 1h1.18l7.7 7.7c.39.39 1.02.39 1.41 0l.71-.71-8.71-8.71v.01Z"/>
  <path fill="#0053E2" d="M22.5 24a5.5 5.5 0 1 0 0-11 5.5 5.5 0 0 0 0 11Zm-13 0a5.5 5.5 0 1 0 0-11 5.5 5.5 0 0 0 0 11Z"/>
  <path fill="#0053E2" stroke="#0053E2" stroke-miterlimit="10" stroke-width="1.781" d="M16 15.7c-.9 0-1.74.23-2.48.62.01.02.02.03.04.05.3.47.53 1 .67 1.56a3.426 3.426 0 0 1 2.21-.45c.53.07 1.02.25 1.45.53.14-.59.37-1.14.69-1.63-.76-.43-1.64-.68-2.58-.68Z"/>
  <path fill="#0053E2" d="M4.64 16H2v2h2.64c.55 0 1-.45 1-1s-.45-1-1-1ZM28 16h-.5c-.55 0-1 .45-1 1s.45 1 1 1h2.49v-2h-2H28Z"/>
  <path fill="#4DBDF5" d="M14 7h-2v2h2V7Zm6 0h-2v2h2V7Z"/>
  <path fill="#fff" d="M9.5 22a3.5 3.5 0 1 0 0-7 3.5 3.5 0 0 0 0 7Z"/>
  <mask id="a" width="7" height="7" x="6" y="15" maskUnits="userSpaceOnUse" style="mask-type:luminance">
    <path fill="#fff" d="M9.5 22a3.5 3.5 0 1 0 0-7 3.5 3.5 0 0 0 0 7Z"/>
  </mask>
  <g mask="url(#a)">
    <path fill="#4DBDF5" d="m13.002 15.49-1.877-.692-2.765 7.507 1.877.691 2.765-7.507Z"/>
  </g>
  <path fill="#fff" d="M22.5 22a3.5 3.5 0 1 0 0-7 3.5 3.5 0 0 0 0 7Z"/>
  <mask id="b" width="7" height="7" x="19" y="15" maskUnits="userSpaceOnUse" style="mask-type:luminance">
    <path fill="#fff" d="M22.5 22a3.5 3.5 0 1 0 0-7 3.5 3.5 0 0 0 0 7Z"/>
  </mask>
  <g mask="url(#b)">
    <path fill="#4DBDF5" d="m26 15.492-1.877-.691-2.765 7.507 1.877.691L26 15.492Z"/>
  </g>
</svg>
