<svg xmlns="http://www.w3.org/2000/svg" width="32" height="32" fill="none" viewBox="0 0 32 32">
  <path fill="#4DBDF5" d="M21 4V3c0-.55.32-1 .71-1h3.57c.39 0 .71.45.71 1v1h-5H21Z"/>
  <path fill="#0053E2" d="M26 4h-5v4l-2.79-3.13c-.4-.55-1.02-.87-1.68-.87h-6.32c-.66 0-1.29.32-1.68.87L6.42 7.76c-.27.38-.42.83-.42 1.3v18.78c0 1.2.94 2.17 2.11 2.17H23.9c1.16 0 2.11-.97 2.11-2.17V4H26Z"/>
  <path fill="#fff" d="M18 8H9l.74-1.34c.22-.41.74-.61 1.22-.48.19.05.4.05.59 0l.53-.15c.19-.05.4-.05.59 0l.53.15c.19.05.4.05.59 0l.53-.15c.19-.05.4-.05.59 0l.53.15c.19.05.4.05.59 0 .48-.13.99.07 1.22.48L17.99 8H18Z"/>
  <path fill="#4DBDF5" d="M23 12H9v15h14V12Z"/>
  <path fill="#fff" d="M18.5 20.37C18.5 18.92 16 16 16 16s-2.5 2.93-2.5 4.37S14.62 23 16 23s2.5-1.18 2.5-2.63Z"/>
</svg>
