<svg xmlns="http://www.w3.org/2000/svg" width="32" height="32" fill="none" viewBox="0 0 32 32">
  <path fill="#0053E2" d="M8 10h16v18c0 1.1-.9 2-2 2H10c-1.1 0-2-.9-2-2V10Z"/>
  <path fill="#4DBDF5" d="M26 7H6v3h20V7Z"/>
  <path fill="#4DBDF5" d="M9 2h14c.55 0 1 .45 1 1v5H8V3c0-.55.45-1 1-1Zm14 12H9v12h14V14Z"/>
  <path fill="#fff" d="M15.16 16.38c.18.18.3.35.4.58.63 1.59-.94 3.1-2.15 1.47-.16-.37-.28-.75-.24-1.15.09-1.03 1.12-1.75 2-.9h-.01Zm3.64.61c.19.69-.11 1.78-.9 2.05-1.24.44-1.78-.95-1.5-1.89.39-1.34 2-1.63 2.4-.16Zm.081 3.36c-.09-.27-.06-.57 0-.86.06-.29.18-.54.4-.75 1.06-1 2.07.34 1.59 1.5-.17.4-.54.78-1.01.83-.34.03-.64-.17-.83-.43-.07-.09-.11-.19-.15-.29Zm-6.081.53c-.62.5-1.4-.01-1.66-.61-.28-.63-.17-1.76.71-1.86 1.19-.13 1.79 1.78.95 2.46v.01Zm1.07 3.03c-.48.26-1.07-.06-1.15-.67-.02-.15-.01-.31.04-.47.47-1.55 1.74-2.67 3.24-2.67 1.5 0 2.78 1.11 3.24 2.67.05.16.06.32.04.47-.08.6-.67.93-1.15.67a4.417 4.417 0 0 0-4.26 0Z"/>
</svg>
