<svg xmlns="http://www.w3.org/2000/svg" width="32" height="32" fill="none" viewBox="0 0 32 32">
  <g clip-path="url(#a)">
    <path fill="#4DBDF5" d="m14.201 4.609-2.299-1.727-7.48 9.963 2.3 1.726 7.48-9.962Zm11.316 9.956 2.299-1.727-7.48-9.962-2.3 1.726 7.48 9.963Z"/>
    <path fill="#0053E2" fill-rule="evenodd" d="M1.739 12.457v3.833H3.54l.777 9.325a2.406 2.406 0 0 0 2.386 2.175h18.822a2.406 2.406 0 0 0 2.386-2.175l.776-9.325h1.802v-3.833H1.739ZM9.405 24.8H7.49v-8.51h1.916v8.51Zm5.108 0h-1.916v-8.51h1.916v8.51Zm5.118 0h-1.917v-8.51h1.917v8.51Zm5.108 0h-1.917v-8.51h1.917v8.51Z" clip-rule="evenodd"/>
    <circle cx="26.286" cy="26.286" r="5.714" fill="#4DBDF5"/>
    <circle cx="26.286" cy="26.286" r="4.463" fill="#0053E2"/>
    <path fill="#fff" d="M26.313 24.67a.834.834 0 0 0-.428.098c-.11.066-.165.18-.165.345 0 .117.034.204.104.26.069.056.16.1.275.13.118.026.247.052.385.078.139.026.277.063.416.11.147.053.275.124.385.215a.835.835 0 0 1 .263.345c.065.143.098.327.098.553 0 .286-.057.526-.171.721a1.095 1.095 0 0 1-.483.442c-.208.1-.455.15-.74.15a2.59 2.59 0 0 1-.801-.104 1.414 1.414 0 0 1-.496-.267v-.87c.119.112.28.22.483.324.208.104.467.156.777.156a.959.959 0 0 0 .318-.045.44.44 0 0 0 .208-.156.44.44 0 0 0 .073-.26c0-.126-.036-.22-.11-.28a.674.674 0 0 0-.281-.136 5.267 5.267 0 0 0-.38-.085 2.783 2.783 0 0 1-.409-.124 1.239 1.239 0 0 1-.514-.35c-.13-.161-.195-.404-.195-.729 0-.412.124-.73.373-.956.249-.225.58-.338.997-.338.297 0 .542.03.733.091.192.06.34.137.447.228v.884a1.55 1.55 0 0 0-.257-.182 1.56 1.56 0 0 0-.385-.176 1.727 1.727 0 0 0-.52-.071Zm.379-.48h-.746v-.898h.746v.898Zm-.838 4.545v-.852h.752v.852h-.752Z"/>
  </g>
  <defs>
    <clipPath id="a">
      <path fill="#fff" d="M0 0h32v32H0z"/>
    </clipPath>
  </defs>
</svg>
