<svg xmlns="http://www.w3.org/2000/svg" width="32" height="32" fill="none" viewBox="0 0 32 32">
  <path fill="#0053E2" d="M16 30c7.73 0 14-6.27 14-14S23.73 2 16 2 2 8.27 2 16s6.27 14 14 14Z"/>
  <path fill="#4DBDF5" d="M16 7a9 9 0 1 1-.001 18.001A9 9 0 0 1 16 7Zm0-1C10.49 6 6 10.49 6 16s4.49 10 10 10 10-4.49 10-10S21.51 6 16 6Z"/>
  <path fill="#003EDE" d="M16 23c3.87 0 7-3.13 7-7s-3.13-7-7-7-7 3.13-7 7 3.13 7 7 7Z"/>
  <path fill="#4DBDF5" d="M16 25a9 9 0 1 0 0-18 9 9 0 0 0 0 18Z"/>
  <mask id="a" width="14" height="14" x="9" y="9" maskUnits="userSpaceOnUse" style="mask-type:luminance">
    <path fill="#fff" d="M16 23c3.87 0 7-3.13 7-7s-3.13-7-7-7-7 3.13-7 7 3.13 7 7 7Z"/>
  </mask>
  <g mask="url(#a)">
    <path fill="#fff" d="m15.129 19.75-1.45 2.52c-.33.58.08 1.3.75 1.3h3.14c.67 0 1.08-.72.75-1.3l-1.45-2.52a.996.996 0 0 0-1.73 0h-.01Zm-2.819-2.62h-2.9c-.67 0-1.08.72-.75 1.3l1.57 2.72c.33.58 1.17.58 1.5 0l1.45-2.51c.39-.67-.1-1.5-.87-1.5v-.01Zm.88-3.75-1.46-2.53a.863.863 0 0 0-1.49 0l-1.58 2.73a.86.86 0 0 0 .75 1.29h2.92c.77 0 1.25-.83.86-1.5v.01Zm3.68-1.13 1.46-2.52a.86.86 0 0 0-.75-1.29h-3.15c-.66 0-1.08.72-.75 1.29l1.46 2.52c.38.67 1.35.67 1.73 0Zm2.809 2.62h2.9c.67 0 1.08-.72.75-1.3l-1.57-2.72a.864.864 0 0 0-1.5 0l-1.45 2.52c-.39.67.1 1.5.87 1.5Zm-.869 3.75 1.46 2.53c.33.57 1.16.57 1.49 0l1.58-2.73a.86.86 0 0 0-.74-1.29h-2.92c-.77 0-1.25.83-.86 1.49h-.01Z"/>
  </g>
  <path fill="#fff" d="M16 17a1 1 0 1 0 0-2 1 1 0 0 0 0 2Z"/>
</svg>
