<svg width="16" height="16" viewBox="0 0 16 16" fill="none" xmlns="http://www.w3.org/2000/svg">
<g clip-path="url(#clip0_5400_36938)">
<path d="M13.667 7.33301C13.6669 6.04309 13.0988 4.78173 12.0459 3.83398C10.9892 2.88297 9.53505 2.33301 8 2.33301C6.49704 2.33306 5.05592 2.93041 3.99316 3.99316C2.93041 5.05592 2.33306 6.49704 2.33301 8C2.33301 9.50304 2.93036 10.945 3.99316 12.0078C5.05589 13.0704 6.49717 13.6669 8 13.667H8.16699C8.19793 13.667 8.22857 13.6588 8.25488 13.6426C8.28113 13.6263 8.30259 13.6028 8.31641 13.5752C8.3302 13.5475 8.33578 13.5161 8.33301 13.4854C8.33018 13.4547 8.31925 13.4251 8.30078 13.4004L8.10059 13.1338C7.85915 12.8119 7.71192 12.4291 7.67578 12.0283C7.63968 11.6277 7.7157 11.225 7.89551 10.8652C8.07546 10.5053 8.35204 10.2018 8.69434 9.99023C9.03662 9.7787 9.43161 9.66699 9.83398 9.66699H11.334C11.9528 9.66695 12.5468 9.42099 12.9844 8.9834C13.4218 8.54579 13.667 7.95176 13.667 7.33301ZM4.98633 8.19922C4.93306 7.93891 4.72806 7.73401 4.46777 7.68066L4.33301 7.66699C3.96494 7.66712 3.66699 7.96589 3.66699 8.33398L3.67969 8.46777C3.74174 8.77159 4.01088 8.99989 4.33301 9C4.65521 9 4.92422 8.77162 4.98633 8.46777L5 8.33398L4.98633 8.19922ZM12.3203 6.86621C12.2583 6.56222 11.9893 6.33301 11.667 6.33301C11.2989 6.3331 11.001 6.63194 11.001 7L11.0137 7.13477C11.0759 7.43839 11.345 7.66691 11.667 7.66699C11.9891 7.66699 12.258 7.43841 12.3203 7.13477L12.334 7L12.3203 6.86621ZM6.31934 4.86523C6.26589 4.60498 6.06114 4.39984 5.80078 4.34668L5.66699 4.33301C5.29882 4.33301 5 4.63182 5 5L5.01367 5.13477C5.076 5.43832 5.345 5.66699 5.66699 5.66699C5.98883 5.66685 6.25699 5.43819 6.31934 5.13477L6.33301 5L6.31934 4.86523ZM9.65332 4.19922C9.60014 3.93871 9.39523 3.733 9.13477 3.67969L9 3.66699C8.63204 3.66715 8.33411 3.96504 8.33398 4.33301L8.34766 4.46777C8.4099 4.77133 8.67807 4.99986 9 5C9.32209 5 9.59109 4.77146 9.65332 4.46777L9.66699 4.33301L9.65332 4.19922ZM5.66699 8.33398C5.66677 9.07019 5.06926 9.66699 4.33301 9.66699C3.64269 9.66687 3.07503 9.14208 3.00684 8.46973L3 8.33398L3.00684 8.19727C3.0751 7.52498 3.64274 7.00012 4.33301 7C5.0694 7 5.66699 7.59759 5.66699 8.33398ZM15.667 7.33301C15.667 8.4822 15.2109 9.58478 14.3984 10.3975C13.5858 11.2101 12.4833 11.6669 11.334 11.667H9.83398C9.80301 11.667 9.77244 11.6761 9.74609 11.6924C9.71993 11.7086 9.6984 11.7313 9.68457 11.7588C9.67074 11.7864 9.66522 11.8178 9.66797 11.8486C9.67074 11.8794 9.68172 11.9089 9.7002 11.9336L9.90039 12.2002C10.1418 12.522 10.289 12.905 10.3252 13.3057C10.3613 13.7064 10.2844 14.1098 10.1045 14.4697C9.92453 14.8295 9.64789 15.1322 9.30566 15.3438C8.96345 15.5552 8.56926 15.667 8.16699 15.667H8C5.96674 15.6669 4.0169 14.8595 2.5791 13.4219C1.14122 11.984 0.333008 10.0335 0.333008 8C0.333063 5.96661 1.14127 4.01693 2.5791 2.5791C4.01693 1.14127 5.96661 0.333063 8 0.333008C10.0015 0.333008 11.9398 1.04805 13.3838 2.34766C14.8309 3.65025 15.6669 5.44065 15.667 7.33301ZM13.001 7C13.001 7.73639 12.4034 8.33301 11.667 8.33301C10.9768 8.33292 10.4092 7.80889 10.3408 7.13672L10.334 7L10.3408 6.86426C10.4089 6.19175 10.9766 5.66708 11.667 5.66699L11.8037 5.67383C12.4759 5.74221 13.0009 6.30977 13.001 7ZM7 5C6.99998 5.73628 6.40324 6.33284 5.66699 6.33301C4.97675 6.33301 4.4083 5.80889 4.33984 5.13672L4.33301 5L4.33984 4.86328C4.40827 4.19108 4.97673 3.66699 5.66699 3.66699L5.80273 3.67383C6.47521 3.742 7 4.30955 7 5ZM10.334 4.33301C10.334 5.0694 9.73639 5.66699 9 5.66699C8.30981 5.66685 7.74217 5.14192 7.67383 4.46973L7.66699 4.33301L7.67383 4.19727C7.74194 3.52484 8.30964 3.00015 9 3L9.13672 3.00684C9.80894 3.07516 10.3339 3.64278 10.334 4.33301Z" fill="#9CA3AF"/>
</g>
<defs>
<clipPath id="clip0_5400_36938">
<rect width="16" height="16" fill="white"/>
</clipPath>
</defs>
</svg>
