<?xml version="1.0" encoding="UTF-8"?>
<svg xmlns="http://www.w3.org/2000/svg" xmlns:xlink="http://www.w3.org/1999/xlink" viewBox="0 0 360 289.13">
  <defs>
    <style>
      .cls-1 {
        fill: #b8804f;
      }

      .cls-2 {
        fill: none;
      }

      .cls-3 {
        mask: url(#mask);
      }

      .cls-4 {
        fill: #ffc220;
      }

      .cls-5 {
        filter: url(#luminosity-invert);
      }

      .cls-6 {
        fill: #ff765f;
      }

      .cls-7 {
        filter: url(#luminosity-invert-2);
      }

      .cls-8 {
        fill: url(#linear-gradient-3);
      }

      .cls-9 {
        fill: url(#linear-gradient-2);
      }

      .cls-10 {
        fill: #6abf4b;
      }

      .cls-11 {
        fill: #edb4ca;
      }

      .cls-12 {
        fill: url(#linear-gradient);
      }

      .cls-13 {
        opacity: .4;
      }

      .cls-13, .cls-14 {
        fill: #fff;
      }

      .cls-15 {
        mask: url(#mask-1);
      }

      .cls-16 {
        fill: #001e60;
      }

      .cls-17 {
        fill: #ccb68d;
      }

      .cls-18 {
        fill: #ed2002;
      }

      .cls-19 {
        fill: #f48a16;
      }

      .cls-20 {
        fill: #f48a16;
      }

      .cls-21 {
        fill: #a9ddf7;
      }

      .cls-22 {
        fill: #00ae42;
      }

      .cls-23 {
        fill: #deb68f;
      }

      .cls-24 {
        fill: #f1e6d0;
      }

      .cls-25 {
        fill: #ed2100;
      }

      .cls-26 {
        fill: #0b6830;
      }

      .cls-27 {
        fill: #4dbdf5;
      }

      .cls-28 {
        fill: #cbebfa;
      }

      .cls-29 {
        fill: #001e50;
      }

      .cls-30 {
        fill: #0053e2;
      }

      .cls-31 {
        fill: #0053e2;
      }

      .cls-32 {
        fill: #f1d898;
      }
    </style>
    <linearGradient id="linear-gradient" x1="180" y1="256.16" x2="180" y2="36.88" gradientUnits="userSpaceOnUse">
      <stop offset=".47" stop-color="#cbebfa" stop-opacity="0"/>
      <stop offset=".94" stop-color="#53b3e6"/>
    </linearGradient>
    <filter id="luminosity-invert" x="-15.85" y="27.77" width="367.06" height="67.09" color-interpolation-filters="sRGB" filterUnits="userSpaceOnUse">
      <feColorMatrix result="cm" values="-1 0 0 0 1 0 -1 0 0 1 0 0 -1 0 1 0 0 0 1 0"/>
    </filter>
    <linearGradient id="linear-gradient-2" x1="-5710.27" y1="87.42" x2="-5710.27" y2="35.95" gradientTransform="translate(5877.95)" gradientUnits="userSpaceOnUse">
      <stop offset="0" stop-color="#fff" stop-opacity="0"/>
      <stop offset="1" stop-color="#000"/>
    </linearGradient>
    <mask id="mask" x="-15.85" y="27.77" width="367.06" height="67.09" maskUnits="userSpaceOnUse">
      <g class="cls-5">
        <rect class="cls-9" x="-15.85" y="27.77" width="367.06" height="67.09"/>
      </g>
    </mask>
    <filter id="luminosity-invert-2" x="8.79" y="93.49" width="367.06" height="67.09" color-interpolation-filters="sRGB" filterUnits="userSpaceOnUse">
      <feColorMatrix result="cm" values="-1 0 0 0 1 0 -1 0 0 1 0 0 -1 0 1 0 0 0 1 0"/>
    </filter>
    <linearGradient id="linear-gradient-3" x1="9910.8" y1="153.13" x2="9910.8" y2="101.67" gradientTransform="translate(-9718.48 254.06) scale(1 -1)" xlink:href="#linear-gradient-2"/>
    <mask id="mask-1" x="8.79" y="93.49" width="367.06" height="67.09" maskUnits="userSpaceOnUse">
      <g class="cls-7">
        <rect class="cls-8" x="8.79" y="93.49" width="367.06" height="67.09" transform="translate(384.64 254.06) rotate(-180)"/>
      </g>
    </mask>
  </defs>
  <g id="Background">
    <rect class="cls-21" width="360" height="289.13"/>
    <rect class="cls-12" width="360" height="289.13"/>
    <g class="cls-3">
      <path class="cls-13" d="M.11,39.98c6.3,0,11.82,4.56,11.82,4.56,0,0,4.58-12.37,13.11-12.37,5.66,0,6.87,3.86,6.87,3.86,0,0,1.21-.47,3.06-.47,4.53,0,7.31,3.82,7.31,3.82,0,0,1.43-2.38,5.96-2.38,8.79,0,14.78,13.07,23.85,13.07,0,0,6.3-15.86,19.68-15.86,8.09,0,11.03,6.19,11.03,6.19,0,0,.89-1.51,3.8-1.51,2.91,0,4.15,2.61,4.15,2.61,0,0,2.98-2.1,7.02-2.1,8.47,0,9.66,8.38,14.03,8.38,3.51,0,3.83-3.46,9.55-3.46s8.46,4.88,8.46,4.88c0,0,1.41-.97,4.05-.97,6.31,0,12.81,7.9,12.81,7.9,0,0,1.16-3.27,6.5-3.27,7.93,0,11.82,9.83,22.82,9.83,5.71,0,8.79-1.7,15.37-1.7,4.53,0,7.3,1.61,7.3,1.61,0,0,.41-2.82,3.11-2.82,1.78,0,3.19.4,4.32.4,6.1,0,4.85-6.89,14.13-6.89s17.54,6.94,17.54,6.94c0,0-.53-2.65,2.38-2.65,3.92,0,4.46,4.62,15.24,4.62,7.35,0,8.9,4.41,8.9,4.41,0,0,1.03-2.02,3.05-2.02,6.22,0,7.53,1.48,15.78,1.48,15.1,0,24.66,10.47,28.2,14.01H0s.11-40.1.11-40.1Z"/>
    </g>
    <g class="cls-15">
      <path class="cls-13" d="M359.89,105.7c-6.3,0-11.82,4.56-11.82,4.56,0,0-4.58-12.37-13.11-12.37-5.66,0-6.87,3.86-6.87,3.86,0,0-1.21-.47-3.06-.47-4.53,0-7.31,3.82-7.31,3.82,0,0-1.43-2.38-5.96-2.38-8.79,0-14.78,13.07-23.85,13.07,0,0-6.3-15.86-19.68-15.86-8.09,0-11.03,6.19-11.03,6.19,0,0-.89-1.51-3.8-1.51s-4.15,2.61-4.15,2.61c0,0-2.98-2.1-7.02-2.1-8.47,0-9.66,8.38-14.03,8.38-3.51,0-3.83-3.46-9.55-3.46-5.72,0-8.46,4.88-8.46,4.88,0,0-1.41-.97-4.05-.97-6.31,0-12.81,7.9-12.81,7.9,0,0-1.16-3.27-6.5-3.27-7.93,0-11.82,9.83-22.82,9.83-5.71,0-8.79-1.7-15.37-1.7-4.53,0-7.3,1.61-7.3,1.61,0,0-.41-2.82-3.11-2.82-1.78,0-3.19.4-4.32.4-6.1,0-4.85-6.89-14.13-6.89-9.28,0-17.54,6.94-17.54,6.94,0,0,.53-2.65-2.38-2.65-3.92,0-4.46,4.62-15.24,4.62-7.35,0-8.9,4.41-8.9,4.41,0,0-1.03-2.02-3.05-2.02-6.22,0-7.53,1.48-15.78,1.48-15.1,0-24.66,10.47-28.2,14.01h331.32l-.11-40.1Z"/>
    </g>
    <rect class="cls-24" y="223.93" width="360" height="65.21"/>
    <polygon class="cls-17" points="79.46 223.93 0 223.93 0 234.81 79.46 234.81 79.46 223.93 79.46 223.93"/>
    <polygon class="cls-24" points="0 220.56 0 223.93 79.46 223.93 0 220.56"/>
    <g>
      <rect class="cls-24" x="38.34" y="115.6" width="6.66" height="107.45"/>
      <path class="cls-27" d="M45,115.6h-6.63s-.03,0-.03,0v107.45h1.97v-95.31c0-1.84.64-3.62,1.81-5.03l2.87-3.47v-3.63Z"/>
      <g>
        <rect class="cls-30" x="17.56" y="55.27" width="48.23" height="61.24" rx="4.34" ry="4.34"/>
        <g>
          <path class="cls-14" d="M28.45,64.81h1.89c1.58,0,2.5.72,2.5,2.09s-.91,2.14-2.5,2.14h-1.36v2.89h-.53v-7.12ZM28.98,65.28v3.29h1.3c1.46,0,2.03-.63,2.03-1.66s-.57-1.63-2.03-1.63h-1.3Z"/>
          <path class="cls-14" d="M33.6,65.11c0-.22.17-.38.39-.38s.39.16.39.38-.18.39-.39.39-.39-.17-.39-.39ZM34.23,71.93h-.5v-5.6h.5v5.6Z"/>
          <path class="cls-14" d="M39.37,67.37c-.34-.43-1-.67-1.58-.67-1.23,0-2.2.87-2.2,2.44s.97,2.42,2.2,2.42c.71,0,1.19-.23,1.58-.56v.53c-.2.18-.7.48-1.6.48-1.42,0-2.68-1.02-2.68-2.88s1.25-2.89,2.68-2.89c.77,0,1.29.24,1.6.49v.65Z"/>
          <path class="cls-14" d="M41.32,69.01l2.82,2.92h-.62l-2.7-2.77v2.77h-.5v-7.38h.5v4.36l2.63-2.58h.6l-2.72,2.68Z"/>
          <path class="cls-14" d="M48.51,70.63c-.3.81-.98,1.39-1.99,1.39s-1.86-.59-1.86-2.07v-3.62h.5v3.6c0,1.26.61,1.65,1.46,1.65,1.08,0,1.89-.85,1.89-2.49v-2.76h.5v5.6h-.5v-1.3Z"/>
          <path class="cls-14" d="M50.74,70.55v3.01h-.5v-7.23h.5v1.37c.38-.87,1.13-1.46,2.14-1.46,1.54,0,2.47,1.27,2.47,2.88s-.93,2.89-2.47,2.89c-1.02,0-1.76-.59-2.14-1.46ZM54.84,69.12c0-1.38-.68-2.43-2.01-2.43s-2.12,1.05-2.12,2.43.85,2.45,2.12,2.45,2.01-1.06,2.01-2.45Z"/>
        </g>
        <circle class="cls-14" cx="41.67" cy="93.27" r="16.13"/>
        <path class="cls-30" d="M41.77,86.48l-3.43,3.11v-1.28l3.25-2.9h1.26v14.78h-1.08v-13.72Z"/>
      </g>
    </g>
  </g>
  <g id="Car">
    <ellipse class="cls-16" cx="180" cy="241.1" rx="170.77" ry="4.42"/>
    <g>
      <path class="cls-16" d="M319.29,170.53l-120.34,1.11-139.68,5.57-14.22,13.86-1.93,26.25s.85,6.81,2.72,8.69c.72.72,2.15.92,3.34.96,1.84,9.37,6.48,15.69,12.2,15.69.03,0,.06,0,.09,0-.03,0-.06,0-.09,0h12.26c7.31,0,13.24-6.32,15.59-15.69h80.01s0,0,0,0c.08.31.16.62.24.93.05.17.1.35.15.52.05.18.1.35.16.53.05.17.1.34.16.51.07.21.13.41.2.61.08.23.16.46.24.68.07.18.13.36.2.54.06.15.12.31.18.46.07.17.14.34.21.51.06.14.11.28.17.42.12.27.23.53.36.79.06.13.13.26.19.39.08.16.16.32.24.48.06.13.13.25.2.38.11.2.22.4.33.59.08.13.15.27.23.4.1.17.21.35.31.52.07.11.14.21.2.32.1.16.21.31.31.46.06.09.12.18.18.26.16.22.31.43.47.63.06.08.13.16.19.23.12.14.23.28.35.42.07.08.13.15.2.23.16.18.32.36.49.52.05.05.09.09.14.14.15.15.31.3.47.44.07.06.13.12.2.18.14.12.29.24.43.36.06.04.11.09.17.13.19.15.39.29.58.42.06.04.11.07.17.11.15.1.31.2.47.29.06.04.13.08.19.11.21.12.42.22.63.32.01,0,.03.01.04.02.2.09.41.18.61.26.06.02.13.05.19.07.17.06.35.12.53.17.05.01.1.03.15.05.22.06.45.11.67.15.05,0,.11.02.16.03.18.03.37.06.55.07.07,0,.13.01.2.02.23.02.47.03.7.03s.47-.01.7-.03c-.23.02-.47.03-.7.03h13.95c8.32,0,15.07-7.2,17.74-17.86h48.16c2.09,10.66,7.37,17.86,13.88,17.86,0,0,0,0,0,0h13.95c9.17,0,16.43-8.74,18.43-21.22l11.41-3.36c2.89-.85,5.38-2.71,7.03-5.23l2.87-4.58c.49-.78.75-1.67.75-2.59v-1.42s-11.54-33.72-11.54-33.72Z"/>
      <g>
        <ellipse class="cls-27" cx="181.99" cy="214.35" rx="11.45" ry="21.45"/>
        <path class="cls-16" d="M181.99,233.99c-5.23,0-9.64-9-9.64-19.65s4.42-19.65,9.64-19.65,9.64,9,9.64,19.65-4.42,19.65-9.64,19.65Z"/>
        <polygon class="cls-27" points="181.99 214.35 179.45 194.7 184.54 194.7 181.99 214.35 181.99 214.35"/>
        <path class="cls-27" d="M181.99,214.35l11.04-5.66c-.09-.64-.2-1.26-.32-1.87l-2-2.55-8.72,10.08Z"/>
        <path class="cls-27" d="M173.19,204.26l-1.9,2.43c-.13.66-.25,1.34-.35,2.03l11.05,5.62-8.8-10.08Z"/>
        <path class="cls-27" d="M187.37,230.66l2.87-1.45c.32-.62.62-1.27.89-1.95l-9.14-12.91,5.38,16.31Z"/>
        <path class="cls-27" d="M181.99,214.35l-9.14,12.91c.28.68.57,1.33.89,1.95l2.87,1.45,5.38-16.31Z"/>
        <path class="cls-16" d="M181.99,217.31c-.89,0-1.56-1.28-1.56-2.97s.67-2.97,1.56-2.97,1.56,1.28,1.56,2.97-.67,2.97-1.56,2.97Z"/>
      </g>
      <g>
        <ellipse class="cls-27" cx="61.23" cy="217.78" rx="10.06" ry="18.85"/>
        <path class="cls-16" d="M61.23,235.04c-4.59,0-8.47-7.91-8.47-17.27s3.88-17.27,8.47-17.27,8.47,7.91,8.47,17.27-3.88,17.27-8.47,17.27Z"/>
        <polygon class="cls-27" points="61.23 217.78 58.99 200.51 63.46 200.51 61.23 217.78 61.23 217.78"/>
        <path class="cls-27" d="M61.23,217.78l9.7-4.97c-.08-.56-.18-1.11-.28-1.64l-1.76-2.24-7.66,8.86Z"/>
        <path class="cls-27" d="M53.5,208.92l-1.67,2.14c-.12.58-.22,1.17-.31,1.78l9.71,4.94-7.73-8.86Z"/>
        <path class="cls-27" d="M65.95,232.11l2.52-1.27c.28-.54.54-1.11.78-1.71l-8.03-11.35,4.73,14.34Z"/>
        <path class="cls-27" d="M61.23,217.78l-8.03,11.35c.24.6.51,1.17.78,1.71l2.52,1.27,4.73-14.34Z"/>
        <path class="cls-16" d="M61.23,220.38c-.78,0-1.37-1.12-1.37-2.61s.59-2.61,1.37-2.61,1.37,1.12,1.37,2.61-.59,2.61-1.37,2.61Z"/>
      </g>
      <path class="cls-31" d="M167.71,214.35c-1.21-8.82.36-19.83,6.97-26.33,1.83-1.76,4.24-3.05,6.82-3.25,1.41-.11,2.79.13,4.19.26,1.82.21,3.63.48,5.44.92v.17l-5.42.03-2.71.02c-4.67-.18-8.28,3.51-10.42,7.31-3.52,6.31-4.64,13.71-4.71,20.86,0,0-.17,0-.17,0h0Z"/>
      <path class="cls-31" d="M48.07,219.61c-1.04-7.76.08-16.25,4.71-22.76,2.21-2.97,5.89-5.64,9.81-5.09.76.12,1.59.33,2.33.58.39.13.77.29,1.16.48v.16c-1.53.03-3.07.01-4.59.08-4.71.44-7.87,4.69-9.75,8.67-1.29,2.77-2.14,5.73-2.69,8.74-.55,3.01-.8,6.08-.81,9.14h-.16Z"/>
      <path class="cls-31" d="M249.91,210.52c8.58-.81,17.45-1.13,26.05-1.29,12.91-.15,26.22-.04,39.08.93,0,0,2.17.15,2.17.15l2.17.2c.35.43-34.76.1-34.73.24,0-.14-35.06.2-34.73-.24h0Z"/>
      <path class="cls-31" d="M330.88,184.87c-.04-1.87-.6-3.69-1.63-5.25l-.84-1.27c-.59-.89-.92-1.92-.96-2.98-.06-1.41-.1-1.94-.1-1.94l-2.58-14.72c-.8-3.6-3.27-6.6-6.66-8.06-3.73-1.62-8.72-3.81-12.7-5.65-.69-.32-1.35-.62-1.96-.91l-8.15-14.31,2.63-2.54v-2.63s-1.26-2.97-38.26-4.86c-12.62-.64-52.21-1.82-66.46-1.82-31.07,0-49.42,4.28-54.11,5.6-3.78.85-17.28,5.54-44.07,30.99h0v-3.23c0-.6-.49-1.08-1.09-1.08h-1.92c-2.87,0-5.02,1.44-6.38,2.74-1.1,1.05-1.71,2.51-1.71,4.03v.97c0,1.65.99,3.08,2.44,3.71l-1.81.4c-1.39.31-3.88.86-6.94,1.56-9.19,2.1-17.96,5.79-25.89,10.89h0c-3.15,1.15-5.42,3.93-5.92,7.24l-.83,5.52s-2.59,11.07-2.59,18.08c0,1.38.03,2.68.07,3.88-.04,2.68.14,5.4.64,8.09h1.95s-.1-.76-.21-1.94c-.02-.19-.04-.38-.05-.59,0-.01,0-.02,0-.03-.02-.21-.04-.44-.06-.67,0-.01,0-.02,0-.03-.02-.22-.04-.46-.05-.69,0-.02,0-.04,0-.06-.02-.24-.03-.48-.05-.73,0-.02,0-.03,0-.05-.02-.26-.03-.53-.04-.8,0,0,0,0,0-.01-.01-.27-.02-.54-.03-.81,0-.02,0-.05,0-.07,0-.26-.02-.52-.02-.78,0-.02,0-.05,0-.07,0-.28,0-.56,0-.84,0-4.09.55-8.17,1.62-11.86,1.12-3.86,2.81-7.29,5.06-9.88.22-.25.45-.5.68-.73,2.31-2.36,5.14-3.87,8.48-4.13.33-.03.67-.04,1.02-.04.27,0,.54,0,.81.02.08,0,.15,0,.23.01.21.01.42.03.62.05.06,0,.12.01.18.02.25.03.49.06.73.1.08.01.16.03.23.04.17.03.34.07.5.1.09.02.18.04.27.06.2.05.39.1.58.15.11.03.22.07.34.1.13.04.27.08.4.13.11.04.23.08.34.12.1.04.2.08.31.12.23.09.45.19.67.29.06.03.12.06.18.08.14.07.27.13.4.2.06.03.12.06.17.09.45.25.89.51,1.32.8.02.01.04.03.07.04.15.1.29.21.44.31,11.24,8.34,11.95,31.92,11.95,31.92l3.05-1.35c1.94-.86,4.01-1.36,6.13-1.48l57.92-3.3c2.19-.12,4.37.39,6.29,1.47l2.98,1.68h2.69v-8.34c0-.11,0-.23,0-.36,0-.02,0-.04,0-.06.34-10.98,5.75-26,16.92-29.5l.29-.02c1.58-.45,3.29-.7,5.16-.7.36,0,.71.01,1.06.03.18.02.37.03.55.05,13.83,1.53,20.74,17.71,23.86,29.37.04.14.07.28.11.41,0,0,0,0,0,0,.24.92,1.16,1.47,2.08,1.25,10.61-3.19,24.52-4.97,34.77-5.62,1.55-.1,3.1-.2,4.66-.31,4.24-.3,8.19-2.08,11.21-4.52,2.24-1.81,5.06-2.76,7.94-2.75l37.6.1c1.45,0,2.8.75,3.58,1.97,1.52,2.38,4.61,5.13,9.24,6.04,3.18.62,6.33,1.37,9.39,2.43l1.24.43s.23-10.32.05-19.39Z"/>
      <g>
        <path class="cls-27" d="M91.44,162.36l-3.85-.39c-.43-.04-.83-.15-1.2-.32l-1.81.4c-1.39.31-3.88.86-6.94,1.56-9.19,2.1-17.96,5.79-25.89,10.89h0c-3.15,1.15-5.42,3.93-5.92,7.24l-.83,5.52s-2.59,11.07-2.59,18.08c0,1.38.03,2.68.07,3.88.12-9.21,2.81-17.99,4.26-23.96,1.42-5.85,4.93-9.66,10.61-11.65l4.99-1.97c6.79-2.68,13.87-4.53,21.1-5.52l8.79-.88h.07s-.85-2.88-.85-2.88Z"/>
        <path class="cls-27" d="M324.78,158.71c-.8-3.6-3.27-6.6-6.66-8.06-3.73-1.62-8.72-3.81-12.7-5.65-.69-.32-1.35-.62-1.96-.91l-8.15-14.31,2.63-2.54v-2.63s-1.26-2.97-38.26-4.86c-12.62-.64-52.21-1.82-66.46-1.82-31.07,0-49.42,4.28-54.11,5.6-3.78.85-17.28,5.54-44.07,30.99v5.71s1.74-.26,1.74-.26c2.68-.4,5.45.43,7.46,2.25l1.8,1.63,54.29-5.43c10.6-1.06,7.45-6.4,35.67-6.76,4.72.06,7.4,1.61,9.87,5.64.02.04,2.81,4.67,2.83,4.71,5.32,8.7,15.02,11.42,25.22,11.42h12.25c.12,1.05.21,2.07.24,3.05l55.77.34,15.08.09v-3.49h10.08l-2.58-14.72Z"/>
      </g>
      <path class="cls-31" d="M203.04,124.7c-1.34-3.02-4.34-4.96-7.64-4.95-.67,0-1.3,0-1.9,0-32.26,0-50.19,4.59-53.45,5.51l-.06.02h-.06c-3.79.87-18.31,5.95-48.15,35.45l62.86-9.39c5.81-.87,11.57-2.07,17.24-3.6l33.56-9.03c1.79-.48,2.72-2.44,1.97-4.13l-4.37-9.87Z"/>
      <path class="cls-27" d="M207.26,144.09s.04,0,.07.01c.01,0,.03,0,.04-.01h-.11Z"/>
      <path class="cls-21" d="M100.57,159.41l54.07-8.08c5.81-.87,11.57-2.07,17.24-3.6l11.61-3.12c-2.35-.51-4.5-1.55-6.32-3.49-3.82-4.24-10.6-4.66-15.26-2.12-7.73,4.22-17.02,5.07-25.07,2.62-6.98-2.12-14.57-.58-20.3,3.94-4.63,3.66-9.93,8.2-15.96,13.85Z"/>
      <path class="cls-21" d="M51.76,174.5c-3.15,1.15-5.42,3.93-5.92,7.24l-.83,5.52s8.97-9.99,9.87-13.9l-3.12,1.14Z"/>
      <path class="cls-21" d="M94.33,151.6v7.62c0,.48-.41.85-.89.81l-1.93-.19c-2.11-.21-3.87-1.78-4.2-3.87-.06-.36-.09-.74-.09-1.13,0-.11,0-.21,0-.32.12-1.98,1.85-3.48,3.83-3.48h2.73c.3,0,.55.25.55.55Z"/>
      <path class="cls-21" d="M94.33,151.6v7.62c0,.48-.41.85-.89.81l-1.93-.19c-2.11-.21-3.87-1.78-4.2-3.87-.06-.36-.09-.74-.09-1.13,0-.11,0-.21,0-.32.12-1.98,1.85-3.48,3.83-3.48h2.73c.3,0,.55.25.55.55Z"/>
      <path class="cls-27" d="M178.98,169.37c-2.41.18-4.79.81-7,1.8-6.63,2.96-11.76,9.28-12.91,16.49l-2.22.03-2.35.07c-13.96.38-28.31,1.66-42.21,3.16-9.26,1.06-18.78,2.3-27.96,4.01-.28.46,37.45-3.53,37.46-3.39-.04-.13,36.91-3.39,37.41-3.85,0,0,4.19-8.35,7.65-11.53,3.47-3.17,7.55-5.38,12.14-6.64v-.13Z"/>
      <path class="cls-25" d="M324.34,157.24h-7.53c.07,2.58-.03,6.1.47,11.24v1.67h9.5l-2.01-11.44c-.11-.5-.26-.99-.43-1.47Z"/>
      <path class="cls-16" d="M324.34,157.24h-7.53c.02.73.03,1.54.04,2.43h8.1s-.17-.96-.17-.96c-.11-.5-.26-.99-.43-1.47Z"/>
      <path class="cls-25" d="M241.77,155.52c-7.5,0-26.28.01-29.99.01-.97.12-1.52,1.18-1.06,2.04,7.1,13.29,10.74,11,34.63,10.86-.97-4.69-2.42-9.43-3.59-12.92Z"/>
      <path class="cls-16" d="M241.77,155.52c-7.5,0-26.28.01-29.99.01-.97.12-1.52,1.18-1.06,2.04.96,1.79.88,1.76,1.06,1.74,3.76,0,23.76-.01,31.2-.01-.42-1.36-.83-2.64-1.21-3.78Z"/>
      <path class="cls-29" d="M335.78,89.01c-3.21-2.4-12.92-8.84-24.27-8.84h-50.06c-8.19,0-15.9,3.91-20.74,10.51l-22.29,30.43c1.22,13.77,12.85,24.86,18.82,27.82,1.72.85,3.04,2.33,3.68,4.14,1.88,5.27,5.53,16.51,5.53,24.31v12.15c0,1.19.97,2.16,2.16,2.16h66.36c1.28,0,2.31-1.03,2.31-2.31v-20.9c-1.26-13.06,1.32-15.7-4.85-18.72-7.48-3.65-11.01-9.62-14.57-17.14l-1.8-3.8-.26-.03c7.3-.92,20.56-27.69,27.92-27.69,1.2,0,2.35-.47,3.2-1.32l8.99-8.91c.54-.53.48-1.42-.13-1.87Z"/>
      <path class="cls-27" d="M269.21,90.36c5.23,0,11.84-.3,30.74-.3,17.75,0,28.64,1.03,35.12,1.16.31,0,.61-.12.83-.34h0c.54-.53.48-1.42-.13-1.87-3.21-2.4-12.92-8.84-24.27-8.84h-50.06c-7.56,0-14.7,3.33-19.56,9.04,2.73-1.7,6.16-3.09,10.1-3.09,9.1,0,12.17,4.24,17.23,4.24Z"/>
      <path class="cls-31" d="M274.25,82.22c7.52-.03,26.6-.11,33.86-.04,3.83-.19,7.38,1.43,10.92,2.68,0,0-.05.15-.05.15l-1.4-.28c-2.24-.46-4.49-1.22-6.78-1.32-2.77-.08-5.56.22-8.33.25-5.64.11-11.29.08-16.93-.23-3.76-.2-7.52-.49-11.29-1.06v-.16h0Z"/>
      <path class="cls-28" d="M249.04,97.73l-10.57,12.86c-.33.41.03,1.01.54.9,5.16-1.08,22.17-4.41,36.28-4.41.3,0,.6,0,.9,0,12.74.13,21.22,3.43,24.49,4.97.92.43,2.02.2,2.7-.56l12.24-13.86c1.37-1.56.27-4.01-1.81-4.01h-56.08c-3.37,0-6.55,1.51-8.69,4.11Z"/>
      <path class="cls-21" d="M269.55,103.28c-8.47,4.89-18.66,7.49-27.84,3.38l-3.24,3.94c-.33.41.03,1.01.54.9,5.16-1.08,22.17-4.41,36.28-4.41.3,0,.6,0,.9,0,12.74.13,21.22,3.43,24.49,4.97.92.43,2.02.2,2.7-.56l12.24-13.86c.89-1.01.74-2.39-.05-3.24-6.02,8.89-20.63,7.46-32.62,6.05-4.66-.55-9.35.49-13.41,2.84Z"/>
      <path class="cls-27" d="M272.74,132.12h-4.4s-39.95,0-39.95,0l4.65,6.63h6.57,0c3.71-.07,6.45,1.2,6.8,3.25.92-1.48,2.73-3.16,6.26-3.37h0s.07,0,.07,0c.23-.01.46-.02.7-.02,2.07,0,4,0,5.81.02h20.12l-6.63-6.5Z"/>
      <path class="cls-31" d="M207.41,134.57l-4.37-9.87c-1.34-3.02-4.34-4.96-7.64-4.95-.67,0-1.3,0-1.9,0-32.26,0-50.19,4.59-53.45,5.51l-.06.02h-.06c-3.65.84-17.24,5.58-44.87,32.25v2.71l59.58-8.9c5.81-.87,11.57-2.07,17.24-3.6l33.56-9.03c1.79-.48,2.72-2.44,1.97-4.13Z"/>
      <path class="cls-28" d="M193.73,141.86l6.83-4.18c1.39-.85,1.94-2.61,1.28-4.1l-3.39-7.66c-.95-2.14-3.07-3.52-5.43-3.52-.67,0-1.31,0-1.91,0-31.95,0-47.92,4.52-51.14,5.42l-.12.03-.12.03c-1.5.34-5.82,1.66-13.53,6.65-8.04,5.2-20.56,15.86-30.94,25.68l59.37-8.87c5.81-.87,11.57-2.07,17.24-3.6l32.38-8.71-10.52,2.83Z"/>
      <path class="cls-21" d="M161.9,138.97c-7.73,4.22-17.02,5.07-25.07,2.62-6.98-2.12-14.57-.58-20.3,3.94-4.63,3.65-9.96,8.24-15.99,13.88l54.09-8.08c5.81-.87,11.57-2.07,17.24-3.6l11.77-3.17c-2.23-.65-4.96-1.85-6.48-3.47-3.82-4.24-10.6-4.66-15.26-2.12Z"/>
      <g>
        <polygon class="cls-2" points="204.25 139.02 193.73 141.86 193.73 141.86 204.25 139.02"/>
        <path class="cls-2" d="M182.7,122.5c-26.37.69-39.81,4.49-42.73,5.31l-.12.03-.12.03c-1.5.34-5.82,1.66-13.53,6.65-8.04,5.2-20.56,15.86-30.94,25.68l59.37-8.87c5.81-.87,11.57-2.07,17.24-3.6l9.55-2.57c-.23-1.97-.52-4.91-.52-7.42,0-5.92,1.16-12.22,1.8-15.24Z"/>
        <path class="cls-16" d="M187.97,122.41c-1.81.02-3.56.05-5.27.09-.64,3.02-1.8,9.32-1.8,15.24,0,2.52.29,5.45.52,7.42l6.66-1.79c-1.5-6.91-.16-17.35-.12-20.96Z"/>
      </g>
      <g>
        <polygon class="cls-2" points="204.25 139.02 193.73 141.86 193.73 141.86 204.25 139.02"/>
        <path class="cls-16" d="M145.61,126.41c-3.25,8.37-7.53,20.46-9.03,27.61l8.84-1.32c1.14-7.98,4.42-19.71,7.03-27.58-2.71.44-4.99.89-6.83,1.29Z"/>
      </g>
      <g>
        <g>
          <rect class="cls-21" x="258.85" y="151.98" width="3.41" height="1.55" transform="translate(-22.49 47.37) rotate(-9.96)"/>
          <path class="cls-27" d="M270.23,149.72l-4.13.73c-1.12.2-1.86,1.26-1.67,2.38l-3.5.61-3.47.61c-.96.17-1.6,1.08-1.43,2.05l2.44,13.92c.23,1.34,1.51,2.23,2.85,2l11.98-2.1c1.34-.23,2.23-1.51,2-2.85l-2.76-15.72c-.19-1.08-1.22-1.81-2.3-1.62ZM270.76,152.83l-4.1.72c-.61.11-1.21-.27-1.35-.87-.14-.64.28-1.27.92-1.38l4.1-.72c.61-.11,1.21.27,1.35.87.14.64-.28,1.27-.92,1.38Z"/>
        </g>
        <g>
          <path class="cls-1" d="M275.4,151.34c-.83-1.75-.24-3.85,1.38-4.9h0s0,0,0,0c0,0,0,0,0,0h0c1.63-1.04,3.78-.72,5.04.76,1.9,2.24,4.82,5.95,8.15,11.1,3.27,5.06,5.54,9.14,6.9,11.74.93,1.77.35,3.96-1.33,5.04l-.17.11h-.01s-.17.12-.17.12c-1.68,1.09-3.91.71-5.14-.86-1.81-2.31-4.6-6.04-7.87-11.11-3.33-5.15-5.51-9.33-6.77-11.98Z"/>
          <path class="cls-23" d="M284.21,151.45c.63.98.81,3.56.4,5.49-.41,1.93-1.45,6.76-1.45,6.76-.66-1.03-.54-4.68-.11-6.67s1.16-5.57,1.16-5.57Z"/>
          <path class="cls-23" d="M288.54,157.63c.66.96.9,3.54.54,5.48s-1.28,6.79-1.28,6.79c-.69-1.01-.66-4.66-.28-6.67.38-2,1.02-5.6,1.02-5.6Z"/>
          <path class="cls-23" d="M292.33,163.29c.75.89,1.26,3.43,1.09,5.39-.17,1.96-.58,6.89-.58,6.89-.79-.94-1.13-4.57-.95-6.6s.45-5.67.45-5.67Z"/>
          <path class="cls-23" d="M279.95,146.4c.53.82.68,2.97.33,4.58s-1.21,5.64-1.21,5.64c-.56-.86-.45-3.91-.09-5.57.36-1.67.97-4.65.97-4.65Z"/>
        </g>
        <path class="cls-10" d="M293.49,153.83c.02-.24-.66-3.23,0-5.84,0,0,.5.59.76,2.03,0,0,.72-4.64,2.82-6.08,0,0,1.02,2.12-.5,6.96l4.24-5.42s.27,3.67-3.52,5.85c0,0,3.1-1.55,4.09-.56.99.99-4.09,2.32-4.09,2.32,0,0,2.67-.68,5.35.34,0,0-1.54,1.24-3.77,1.43l-5.38-1.02Z"/>
        <path class="cls-26" d="M303.41,158.19c0-2.95-1.76-4.65-4.39-4.56,0,0-.43-3.14-2.56-3.14-1.23,0-1.95.97-1.95.97,0,0-1.18-2.34-3.62-.51,0,0-.17-.81-1-.81-1.47,0-1.57,2.02-1.97,2.02s-.79-.75-1.76-.75c-1.62,0-2.84,3.77.18,6.79h17.07Z"/>
        <ellipse class="cls-18" cx="289.57" cy="156.76" rx="3.41" ry="4.44"/>
        <ellipse class="cls-18" cx="284.31" cy="160.17" rx="3.41" ry="4.44"/>
        <circle class="cls-20" cx="295.96" cy="158.47" r="3.5"/>
        <g>
          <polygon class="cls-16" points="304.28 157.72 293.14 157.72 292.28 157.72 281.95 157.72 280.67 191.02 292.28 191.02 293.14 191.02 306.31 191.02 304.28 157.72"/>
          <polygon class="cls-31" points="300.38 157.72 278.06 157.72 276.02 191.02 301.67 191.02 300.38 157.72"/>
          <path class="cls-4" d="M292.55,174.3c.42-.09,4.16-1.8,4.5-1.99.76-.44,1.02-1.41.58-2.18s-1.41-1.02-2.18-.58c-.33.19-3.69,2.58-3.97,2.9-.33.37-.39.9-.14,1.32.24.42.73.64,1.21.54Z"/>
          <path class="cls-4" d="M297.05,178.1c-.33-.19-4.07-1.91-4.5-1.99-.48-.1-.97.12-1.21.54-.24.42-.19.95.14,1.32.29.32,3.64,2.7,3.97,2.9.76.44,1.74.18,2.18-.58s.18-1.74-.58-2.18Z"/>
          <path class="cls-4" d="M288.85,178.08c-.49,0-.92.31-1.07.78-.14.41-.52,4.51-.52,4.89,0,.88.71,1.59,1.59,1.59s1.59-.71,1.59-1.59c0-.39-.39-4.48-.52-4.89-.16-.47-.59-.78-1.07-.78Z"/>
          <path class="cls-4" d="M285.15,176.1c-.42.09-4.16,1.8-4.5,1.99-.76.44-1.02,1.41-.58,2.18.44.76,1.41,1.02,2.18.58.33-.19,3.69-2.58,3.97-2.9.33-.37.39-.9.14-1.32s-.73-.64-1.21-.54Z"/>
          <path class="cls-4" d="M282.24,169.55c-.76-.44-1.74-.18-2.18.58-.44.76-.18,1.74.58,2.18.33.19,4.07,1.91,4.5,1.99.48.1.97-.12,1.21-.54.24-.42.19-.95-.14-1.32-.29-.32-3.64-2.7-3.97-2.9Z"/>
          <path class="cls-4" d="M288.85,165.06c-.88,0-1.59.71-1.59,1.59,0,.39.39,4.48.52,4.89.16.47.59.78,1.07.78s.92-.31,1.07-.78c.14-.41.52-4.51.52-4.89,0-.88-.71-1.59-1.59-1.59Z"/>
          <path class="cls-16" d="M296,159.3h-1.13l.43.46c-.04.1-.07.2-.07.31,0,5.52-2.41,11.31-5.26,11.31s-5.26-5.79-5.26-11.31c0-.42-.34-.77-.77-.77h-1.13l.38.62h0s-.01.1-.01.15c0,6.57,2.98,12.84,6.79,12.84s6.79-6.27,6.79-12.84c0-.42-.34-.77-.77-.77Z"/>
          <path class="cls-19" d="M293.59,170.85c-.96.69-1.95,1.43-2.1,1.59-.05.06-.09.12-.13.19.81-.33,1.56-.95,2.24-1.78Z"/>
          <path class="cls-19" d="M287.59,170.22c.08.67.15,1.2.19,1.33.16.47.59.78,1.07.78s.92-.31,1.07-.78c.01-.03.02-.09.04-.17-.85,0-1.66-.43-2.37-1.16Z"/>
          <path class="cls-31" d="M288.85,171.78c-3.81,0-6.79-5.14-6.79-11.71,0-.42.34-.77.77-.77s.77.34.77.77c0,5.52,2.41,10.18,5.26,10.18s5.26-4.66,5.26-10.18c0-.42.34-.77.77-.77s.77.34.77.77c0,6.57-2.98,11.71-6.79,11.71Z"/>
        </g>
        <g>
          <polygon class="cls-6" points="270.97 148.74 269.91 153.09 273.47 153.62 273.74 149.15 270.97 148.74"/>
          <path class="cls-11" d="M278.11,157.64l-4.64-4.02-3.56-.53-1.02.76c-.27.2-.45.49-.49.82l-2.85,19.11c-.08.51.28.99.79,1.06l8.63,1.29c1.17.17,2.25-.63,2.43-1.8l1.98-13.28c.19-1.28-.28-2.56-1.26-3.41ZM277.04,166.38c-.1.68-.74,1.16-1.42,1.05s-1.16-.74-1.05-1.42l.79-5.27c.1-.68.74-1.16,1.42-1.05s1.16.74,1.05,1.42l-.79,5.27Z"/>
        </g>
        <path class="cls-16" d="M304.71,191.69h-53.15c11.35,0,22.7-.84,33.97-2.16,4.01-.47,8.1-1.08,11.71-2.89s6.74-5.02,7.47-9v14.05Z"/>
        <g>
          <path class="cls-22" d="M257.78,151.77v-.61s0-.93,0-.93c0-.3.25-.55.55-.55h4.2c.3,0,.55.25.55.55v.93s0,.61,0,.61h-2.57s-2.73,0-2.73,0Z"/>
          <path class="cls-19" d="M256.65,157.34l.32-.46c.86-1.24,1.32-2.72,1.32-4.23v-.88h2.29s1.99,0,1.99,0v.88c0,1.51.46,2.99,1.32,4.23l.32.46c.91,1.32,1.4,2.88,1.4,4.48v6.47s0,2.69,0,2.69v7.66c0,.51-.41.91-.91.91h-4.26s0,0,0,0h-4.26c-.51,0-.91-.41-.91-.91v-7.74s0-1.41,0-1.41v-7.66c0-1.6.49-3.17,1.4-4.48Z"/>
        </g>
        <circle class="cls-32" cx="268.17" cy="160.17" r="6.03"/>
        <g>
          <polygon class="cls-16" points="279.99 157.72 268.85 157.72 267.99 157.72 257.66 157.72 256.37 191.02 267.99 191.02 268.85 191.02 282.02 191.02 279.99 157.72"/>
          <polygon class="cls-31" points="276.09 157.72 253.76 157.72 251.73 191.02 277.37 191.02 276.09 157.72"/>
          <path class="cls-4" d="M268.26,174.3c.42-.09,4.16-1.8,4.5-1.99.76-.44,1.02-1.41.58-2.18s-1.41-1.02-2.18-.58c-.33.19-3.69,2.58-3.97,2.9-.33.37-.39.9-.14,1.32.24.42.73.64,1.21.54Z"/>
          <path class="cls-4" d="M272.76,178.1c-.33-.19-4.07-1.91-4.5-1.99-.48-.1-.97.12-1.21.54-.24.42-.19.95.14,1.32.29.32,3.64,2.7,3.97,2.9.76.44,1.74.18,2.18-.58s.18-1.74-.58-2.18Z"/>
          <path class="cls-4" d="M264.56,178.08c-.49,0-.92.31-1.07.78-.14.41-.52,4.51-.52,4.89,0,.88.71,1.59,1.59,1.59s1.59-.71,1.59-1.59c0-.39-.39-4.48-.52-4.89-.16-.47-.59-.78-1.07-.78Z"/>
          <path class="cls-4" d="M260.85,176.1c-.42.09-4.16,1.8-4.5,1.99-.76.44-1.02,1.41-.58,2.18.44.76,1.41,1.02,2.18.58.33-.19,3.69-2.58,3.97-2.9.33-.37.39-.9.14-1.32s-.73-.64-1.21-.54Z"/>
          <path class="cls-4" d="M257.95,169.55c-.76-.44-1.74-.18-2.18.58-.44.76-.18,1.74.58,2.18.33.19,4.07,1.91,4.5,1.99.48.1.97-.12,1.21-.54.24-.42.19-.95-.14-1.32-.29-.32-3.64-2.7-3.97-2.9Z"/>
          <path class="cls-4" d="M264.56,165.06c-.88,0-1.59.71-1.59,1.59,0,.39.39,4.48.52,4.89.16.47.59.78,1.07.78s.92-.31,1.07-.78c.14-.41.52-4.51.52-4.89,0-.88-.71-1.59-1.59-1.59Z"/>
          <path class="cls-16" d="M271.71,159.3h-1.13l.43.46c-.04.1-.07.2-.07.31,0,5.52-2.41,11.31-5.26,11.31s-5.26-5.79-5.26-11.31c0-.42-.34-.77-.77-.77h-1.13l.38.62h0s-.01.1-.01.15c0,6.57,2.98,12.84,6.79,12.84s6.79-6.27,6.79-12.84c0-.42-.34-.77-.77-.77Z"/>
          <path class="cls-19" d="M269.29,170.85c-.96.69-1.95,1.43-2.1,1.59-.05.06-.09.12-.13.19.81-.33,1.56-.95,2.24-1.78Z"/>
          <path class="cls-19" d="M263.29,170.22c.08.67.15,1.2.19,1.33.16.47.59.78,1.07.78s.92-.31,1.07-.78c.01-.03.02-.09.04-.17-.85,0-1.66-.43-2.37-1.16Z"/>
          <path class="cls-31" d="M264.56,171.78c-3.81,0-6.79-5.14-6.79-11.71,0-.42.34-.77.77-.77s.77.34.77.77c0,5.52,2.41,10.18,5.26,10.18s5.26-4.66,5.26-10.18c0-.42.34-.77.77-.77s.77.34.77.77c0,6.57-2.98,11.71-6.79,11.71Z"/>
        </g>
        <path class="cls-16" d="M251.73,191.02h4.64c4.56,0,19.09-1.43,22.31-4.66v5.32h-26.96v-.66Z"/>
      </g>
    </g>
  </g>
</svg>