<?xml version="1.0" encoding="UTF-8"?>
<svg xmlns="http://www.w3.org/2000/svg" xmlns:xlink="http://www.w3.org/1999/xlink" viewBox="0 0 331.49 360.72">
  <defs>
    <style>
      .cls-1, .cls-2, .cls-3, .cls-4, .cls-5, .cls-6 {
        fill: none;
      }

      .cls-7 {
        fill: #302f18;
      }

      .cls-8 {
        fill: #ffc220;
      }

      .cls-9 {
        fill: #b08257;
      }

      .cls-2 {
        stroke-width: 2.04px;
      }

      .cls-2, .cls-3, .cls-5 {
        stroke-linecap: round;
      }

      .cls-2, .cls-4, .cls-5, .cls-6 {
        stroke-miterlimit: 10;
      }

      .cls-2, .cls-5 {
        stroke: #001e50;
      }

      .cls-10 {
        fill: url(#linear-gradient-8);
      }

      .cls-11 {
        fill: url(#linear-gradient-5);
      }

      .cls-12 {
        fill: url(#linear-gradient-6);
      }

      .cls-13 {
        fill: url(#linear-gradient-4);
      }

      .cls-14 {
        fill: url(#linear-gradient-3);
      }

      .cls-15 {
        fill: url(#linear-gradient-2);
      }

      .cls-16 {
        fill: url(#linear-gradient-9);
      }

      .cls-16, .cls-17, .cls-18, .cls-19, .cls-20, .cls-21 {
        mix-blend-mode: soft-light;
        opacity: .6;
      }

      .cls-17 {
        fill: url(#linear-gradient-7);
      }

      .cls-22 {
        fill: #f6f6f7;
      }

      .cls-23 {
        fill: url(#linear-gradient);
      }

      .cls-19 {
        fill: url(#linear-gradient-11);
      }

      .cls-20 {
        fill: url(#linear-gradient-12);
      }

      .cls-21 {
        fill: url(#linear-gradient-10);
      }

      .cls-24 {
        isolation: isolate;
      }

      .cls-3 {
        stroke: #cecece;
        stroke-linejoin: round;
      }

      .cls-25 {
        fill: #ccb68d;
      }

      .cls-26 {
        fill: #ba7048;
      }

      .cls-27 {
        clip-path: url(#clippath-1);
      }

      .cls-28 {
        fill: #f48a16;
      }

      .cls-29 {
        fill: #fff;
      }

      .cls-30 {
        fill: #003eaa;
      }

      .cls-31 {
        fill: #74b968;
      }

      .cls-32 {
        fill: #a9ddf7;
      }

      .cls-33 {
        fill: #66241e;
      }

      .cls-34 {
        fill: #00ae42;
      }

      .cls-35 {
        fill: #8c5138;
      }

      .cls-4 {
        stroke: #f48a16;
        stroke-width: 1.17px;
      }

      .cls-36 {
        fill: #574129;
      }

      .cls-37 {
        fill: #ed2100;
      }

      .cls-38 {
        fill: #0b6830;
      }

      .cls-39 {
        fill: #77613b;
      }

      .cls-40 {
        fill: #b58f55;
      }

      .cls-41 {
        fill: #4dbdf5;
      }

      .cls-5, .cls-6 {
        stroke-width: 1.22px;
      }

      .cls-42 {
        fill: #cbebfa;
      }

      .cls-43 {
        fill: #e8e0ce;
      }

      .cls-44 {
        fill: #7d5a3b;
      }

      .cls-45 {
        fill: #001e50;
      }

      .cls-46 {
        clip-path: url(#clippath);
      }

      .cls-6 {
        stroke: #4dbdf5;
      }

      .cls-47 {
        fill: #0053e2;
      }

      .cls-48 {
        fill: #07421c;
      }

      .cls-49 {
        fill: #f1d898;
      }
    </style>
    <linearGradient id="linear-gradient" x1="33.55" y1="155.71" x2="79.29" y2="155.71" gradientUnits="userSpaceOnUse">
      <stop offset="0" stop-color="#0053e2" stop-opacity="0"/>
      <stop offset="1" stop-color="#4dbdf5"/>
    </linearGradient>
    <linearGradient id="linear-gradient-2" x1="95.59" y1="197.94" x2="141.33" y2="197.94" xlink:href="#linear-gradient"/>
    <linearGradient id="linear-gradient-3" x1="72.5" y1="209.61" x2="56.37" y2="192.36" xlink:href="#linear-gradient"/>
    <linearGradient id="linear-gradient-4" x1="-1170.62" y1="4405.05" x2="-1124.89" y2="4405.05" gradientTransform="translate(-1029.3 4557.83) rotate(-180)" xlink:href="#linear-gradient"/>
    <linearGradient id="linear-gradient-5" x1="-1131.68" y1="4451.12" x2="-1147.81" y2="4433.87" gradientTransform="translate(-1029.3 4557.83) rotate(-180)" xlink:href="#linear-gradient"/>
    <linearGradient id="linear-gradient-6" x1="84.91" y1="101.24" x2="59.39" y2="75.97" xlink:href="#linear-gradient"/>
    <linearGradient id="linear-gradient-7" x1="165.34" y1="183.98" x2="189.87" y2="208.82" xlink:href="#linear-gradient"/>
    <linearGradient id="linear-gradient-8" x1="270.64" y1="103.14" x2="241.64" y2="74.44" xlink:href="#linear-gradient"/>
    <linearGradient id="linear-gradient-9" x1="205.8" y1="67.8" x2="228.22" y2="92.61" xlink:href="#linear-gradient"/>
    <linearGradient id="linear-gradient-10" x1="241.08" y1="121.01" x2="282.13" y2="162.06" xlink:href="#linear-gradient"/>
    <linearGradient id="linear-gradient-11" x1="314.69" y1="135.85" x2="301.73" y2="121.19" xlink:href="#linear-gradient"/>
    <linearGradient id="linear-gradient-12" x1="278.53" y1="202.5" x2="196.18" y2="129.77" xlink:href="#linear-gradient"/>
    <clipPath id="clippath">
      <rect class="cls-1" x="25.94" y=".71" width="289.13" height="360"/>
    </clipPath>
    <clipPath id="clippath-1">
      <rect class="cls-1" x="25.94" y=".71" width="289.13" height="360"/>
    </clipPath>
  </defs>
  <g class="cls-24">
    <g id="Background">
      <rect class="cls-41" x="25.94" y=".71" width="289.13" height="360"/>
      <rect class="cls-32" x="170.51" y="54.03" width="144.57" height="191.47"/>
      <rect class="cls-47" x="177.83" y="63.58" width="137.25" height="45.64"/>
      <rect class="cls-47" x="177.83" y="116.5" width="137.25" height="121.92"/>
      <rect class="cls-25" x="25.94" y="314.94" width="289.13" height="45.78"/>
      <rect class="cls-32" x="25.94" y="54.31" width="122.94" height="261"/>
      <rect class="cls-47" x="33.55" y="116.5" width="45.74" height="120.64"/>
      <rect class="cls-47" x="95.59" y="116.5" width="45.74" height="120.64"/>
      <line class="cls-6" x1="87.51" y1="109.26" x2="87.51" y2="315.31"/>
      <polygon class="cls-30" points="33.55 116.5 33.55 237.4 36.81 234.14 36.81 119.77 76.03 119.77 79.29 116.5 33.55 116.5"/>
      <polygon class="cls-30" points="95.59 116.5 95.59 237.14 98.85 233.88 98.85 119.77 138.07 119.77 141.34 116.5 95.59 116.5"/>
      <g class="cls-18">
        <polygon class="cls-23" points="79.29 162.06 33.73 116.5 33.55 116.5 33.55 149.18 79.29 194.92 79.29 162.06"/>
      </g>
      <g class="cls-18">
        <polygon class="cls-15" points="141.33 204.3 95.77 158.74 95.59 158.74 95.59 191.41 141.33 237.15 141.33 204.3"/>
      </g>
      <g class="cls-18">
        <polygon class="cls-14" points="79.29 204.41 33.73 158.85 33.55 158.85 33.55 180.42 79.29 226.16 79.29 204.41"/>
      </g>
      <g class="cls-18">
        <polygon class="cls-13" points="95.59 138.96 141.33 184.16 141.33 167.14 95.59 121.4 95.59 138.96"/>
      </g>
      <g class="cls-18">
        <polygon class="cls-11" points="95.59 111.91 141.15 157.47 141.33 157.47 141.33 135.9 95.59 90.16 95.59 111.91"/>
      </g>
      <rect class="cls-47" x="33.55" y="63.58" width="107.78" height="45.68"/>
      <polygon class="cls-30" points="33.55 63.58 33.55 109.26 36.81 106 36.81 66.84 138.08 66.84 141.34 63.58 33.55 63.58"/>
      <g class="cls-18">
        <polygon class="cls-12" points="33.55 63.58 79.23 109.26 106.34 109.26 60.65 63.58 33.55 63.58"/>
      </g>
      <polygon class="cls-17" points="177.83 238.42 260.4 238.42 177.83 155.85 177.83 238.42"/>
      <g class="cls-18">
        <polygon class="cls-10" points="293.59 109.22 247.95 63.58 213.86 63.58 259.51 109.22 293.59 109.22"/>
      </g>
      <polygon class="cls-16" points="255.33 109.22 209.69 63.58 189.89 63.58 235.54 109.22 255.33 109.22"/>
      <polygon class="cls-21" points="315.07 188.19 243.39 116.5 229.76 116.5 315.07 201.82 315.07 188.19"/>
      <polygon class="cls-30" points="315.07 63.58 177.83 63.58 177.83 109.26 181.09 106 181.09 66.84 315.07 66.84 315.07 63.58"/>
      <polygon class="cls-30" points="315.07 116.5 177.83 116.5 177.83 235.08 181.09 231.81 181.09 119.77 315.07 119.77 315.07 116.5"/>
      <polygon class="cls-19" points="315.07 121.56 310.02 116.5 284.58 116.5 315.07 147 315.07 121.56"/>
      <path class="cls-45" d="M315.07,80.41c-1.34-.64-2.73-1.17-4.19-1.56l-2.85-8.72c-.51-1.57-1.86-2.7-3.45-2.98v-25.44h-1.5v25.44c-1.59.27-2.93,1.4-3.45,2.98l-2.96,9.08c-10.01,3.25-17.25,12.64-17.25,23.74h35.64v-22.53Z"/>
      <path class="cls-47" d="M287.01,100.71c-1.03-.02-1.85-.88-1.83-1.92.23-9.98,7.82-14.89,8.14-15.1.87-.55,2.03-.29,2.59.58.55.87.29,2.03-.58,2.58-.27.17-6.22,4.1-6.4,12.02-.02,1.04-.88,1.85-1.92,1.83Z"/>
      <g>
        <path class="cls-45" d="M214.89,78.85l-2.85-8.72c-.51-1.57-1.86-2.7-3.45-2.98v-25.44h-1.5v25.44c-1.59.27-2.93,1.4-3.45,2.98l-2.96,9.08c-10.01,3.25-17.25,12.64-17.25,23.74h49.9c0-11.53-7.82-21.23-18.45-24.09Z"/>
        <path class="cls-47" d="M190.89,100.71c-1.03-.02-1.85-.88-1.83-1.92.23-9.98,7.82-14.89,8.14-15.1.87-.55,2.03-.29,2.59.58.55.87.29,2.03-.58,2.58-.27.17-6.22,4.1-6.4,12.02-.02,1.04-.88,1.85-1.92,1.83Z"/>
        <circle class="cls-47" cx="202.22" cy="82.75" r="1.88"/>
      </g>
      <polygon class="cls-20" points="315.07 209.9 221.68 116.5 177.83 116.5 177.83 137.57 278.68 238.42 315.07 238.42 315.07 209.9"/>
      <path class="cls-45" d="M315.07,342.08c-21.95-1.14-51.34-1.84-83.65-1.84-67.92,0-122.98,3.08-122.98,6.89s55.06,6.89,122.98,6.89c32.31,0,61.7-.7,83.65-1.84v-10.1Z"/>
    </g>
    <g id="Planters">
      <g class="cls-46">
        <path class="cls-40" d="M200.4,274.78h119.12v45.09c0,1.78-1.44,3.22-3.22,3.22h-112.69c-1.78,0-3.22-1.44-3.22-3.22v-45.09h0Z"/>
        <path class="cls-39" d="M287.63,274.78h0s-73.07,0-73.07,0c-.24.68-.38,1.43-.38,2.28,0,7.77,11.78,6.25,11.78,6.25,0,0-.49,5.72,9.55,5.72,0,0,6.08,8.67,12.93,8.67,4.18,0,4.98-4.73,7.31-4.73,0,0,2.58,6.06,7.34,1.3,4.76-4.76,4.5-3.45,5.83-2.12s3.24,1.45,7.15-2.45c1.82-1.82,1.96-3.66,4.1-3.66,1.68,0,3.75,5.47,7.45,7.83v26c0,1.78-1.44,3.22-3.22,3.22h31.88c1.78,0,3.22-1.44,3.22-3.22v-45.09h0s-31.88,0-31.88,0Z"/>
        <ellipse class="cls-40" cx="72.2" cy="322.44" rx="56.26" ry="3.15"/>
        <g>
          <g>
            <ellipse class="cls-39" cx="37.58" cy="322.32" rx="13.56" ry=".76"/>
            <polygon class="cls-40" points="37.58 280.53 9.44 280.53 24.02 322.32 37.58 322.32 51.14 322.32 65.72 280.53 37.58 280.53"/>
            <ellipse class="cls-7" cx="37.58" cy="280.53" rx="28.14" ry="1.58"/>
          </g>
          <g>
            <path class="cls-1" d="M65.46,281.28l.26-.75h-3c-.11.3-.18.6-.18.88,0,0,1.22-.42,2.92-.14Z"/>
            <path class="cls-39" d="M37.58,278.96c-15.54,0-28.14.71-28.14,1.58l4.32,12.38c1.63-.4,3.1-1.19,4.32-2.26,1.36,1.19,3.13,1.92,5.08,1.92,3.11,0,5.79-1.85,7-4.51.45-.99,1.61-1.43,2.59-.96,1.95.93,4.42,1.74,7.16,1.74,8.41,0,10.54-4.15,10.54-4.15,0,0,.04.71.21,1.74l-12.79,36.65c7.36,0,13.28-.35,13.28-.76l12.33-35.33,1.99-5.71.26-.75c0-.87-12.6-1.58-28.14-1.58Z"/>
          </g>
          <path class="cls-34" d="M70.76,281.13c-3.52-3.52-7.29-2.22-7.29-2.22,0-1.8,2.82-4,.86-5.96-1.96-1.96-5.15.23-5.15.23,0,0,.59-5.33-4.23-5.33-2.08,0-3.6,1.56-3.6,1.56.73-3.04,1.5-7.57,4.61-7.57,0,0-1.81-14.12-12.26-14.12-6.03,0-9.25,7.38-9.25,7.38,0,0-4.28-3.07-8.52-3.07-4.63,0-5.56,4.27-5.56,4.27,0,0-11.45-3.42-14.39,9.08-3.34.24-5.97,3.01-5.97,6.41,0,1.63.61,3.12,1.61,4.25.6.68.85,1.59.66,2.48-.24,1.2-.28,2.48-.05,3.8.77,4.38,4.38,7.8,8.79,8.31,3.06.36,5.89-.65,7.96-2.49,1.36,1.19,3.13,1.92,5.08,1.92,3.11,0,5.79-1.85,7-4.51.45-.99,1.61-1.43,2.59-.96,1.95.93,4.42,1.74,7.16,1.74,8.41,0,10.54-4.15,10.54-4.15,0,0,.5,8.83,5.26,8.83,2.04,0,3.02-1.76,3.83-.95.81.81,4.28,8.35,8.69,8.35s.33-6.88.33-6.88c0,0,6.08-5.6,1.28-10.41Z"/>
          <rect class="cls-26" x="34.54" y="235.85" width="5.97" height="25.28"/>
          <polygon class="cls-35" points="40.31 235.85 37.53 235.85 34.54 235.85 34.54 242.92 37.53 245.9 37.53 261.13 40.51 261.13 40.51 235.85 40.31 235.85"/>
          <path class="cls-31" d="M66.08,269.46h0c2.96-6.74-3.92-9.83-3.92-9.83,0,0,2.67-7.63-4.13-7.63-4.71,0-7.34,5.43-7.34,5.43-7.23-2.36-9.22,4.27-9.22,4.27,0,0-2.54-2.3-7.42-2.3s-6.78,4.31-6.78,6.53-2.77,1.93-4.41,3.57c-3.21,3.21-2.4,6.08-2.4,6.08,0,0,1.4-3.05,3.06-3.05,3.73,0,4.78,1.43,7.84,1.43,4.28,0,5-4.01,5.9-4.01s2.5,2.52,7.05,2.52c4.83,0,7.68-4.61,10.64-4.61,2.49,0,3.54,1.43,3.96,2.8.4,1.28.26,2.52.26,2.52,0,0,3.2-2.19,5.15-.23,1.96,1.96-.86,4.16-.86,5.96,0,0,3.32-1.15,6.64,1.62.68-1.14,1.08-2.47,1.08-3.89,0-3.32-2.14-6.14-5.11-7.17Z"/>
          <path class="cls-38" d="M37.47,173.31h0s.04,0,.05,0c.02,0,.04,0,.05,0h0c4.33.01,20.26,26.43,20.26,46.18,0,11.22-9.09,20.31-20.31,20.31-11.22,0-20.31-9.09-20.31-20.31,0-19.75,15.88-46.17,20.26-46.17Z"/>
          <path class="cls-48" d="M40.05,180.84c.78,1.24.8,2.89,1.46,4.15.68,1.29,2.03,2.25,2.6,3.56.58,1.34.34,2.98.79,4.33.47,1.39,1.65,2.55,1.99,3.93.35,1.42-.16,3,.05,4.4.22,1.45,1.17,2.81,1.25,4.22.08,1.47-.73,2.91-.8,4.33-.08,1.47.56,2.99.32,4.39-.25,1.45-1.37,2.66-1.8,4.01-.44,1.4-.23,3.04-.85,4.32-.64,1.31-2.08,2.13-2.92,3.29-.85,1.17-1.2,2.79-2.25,3.78-1.04.98-2.68,1.23-3.91,2-1.24.78-2.17,2.14-3.51,2.65-1.35.52-2.96.12-4.38.38-.99.18-1.95.68-2.94.98,3.43,2.65,7.73,4.22,12.39,4.22,11.22,0,20.31-9.09,20.31-20.31,0-19.75-15.92-46.17-20.26-46.17h0s-.04,0-.05,0c-.02,0-.04,0-.05,0h0c-.55.01-1.28.43-2.14,1.2.59,1.02.91,2.27,1.62,3.22.85,1.15,2.33,1.88,3.11,3.12Z"/>
          <path class="cls-38" d="M57.75,276.52c-.27-1.01-1.21-1.8-2.25-1.91s-2.12.49-2.58,1.42c-.09.18-.17.39-.35.49-.16.09-.36.07-.55.07-1.72-.08-3.43,1.05-4.03,2.67-1.35-.93-3.2-.28-4.6.57s-2.86,1.92-4.49,1.74c2.79,1.59,6.54,1.29,9.04-.72,1.04,1.02,2.58,1.53,4.02,1.32s2.77-1.13,3.48-2.41c2.41,2.23,6.32,2.64,9.15.97-1.02.09-2.22.12-2.87-.67-.58-.7-.49-1.8-1.14-2.44-.58-.58-1.68-.48-2.15.19-.38-.47-.76-.94-1.14-1.41"/>
          <path class="cls-38" d="M30.76,281.87c-1.06-1.93-3.87-2.62-5.7-1.39-1.05-2.15-3.97-3.15-6.11-2.07-.28.14-.57.31-.88.28-.23-.02-.43-.15-.62-.27-2.88-1.7-7.06-.62-8.75,2.27.52-.24,1.08-.48,1.63-.34.92.23,1.27,1.31,1.89,2.02.64.74,1.69,1.11,2.66.92s1.81-.91,2.13-1.84c.48,1.02,1.6,1.71,2.73,1.69s2.21-.78,2.64-1.82c.31,1.6,2.19,2.7,3.74,2.19.74-.24,1.37-.78,2.14-.96,1.2-.27,2.39.42,3.43,1.09-.04-1.01-.59-1.99-1.44-2.56"/>
        </g>
        <path class="cls-34" d="M319.75,222.55s-12.5.06-12.5,14.01c0,0-10.53-2.75-12.61,8.87,0,0-2.09-3.14-7.12-3.14-6.31,0-9.14,5.45-9.14,5.45,0,0-1.73-2.02-6.14-2.02-6.02,0-8.17,7.01-9.79,7.01s-3.19-2.36-6.52-2.36c-4.43,0-6.37,2.99-6.37,2.99,0,0-7.77-8.42-17.4-.33,0,0-1.73-1.87-4.49-1.87-9.43,0-12.15,11.7-12.15,11.7,0,0-3.94-1.97-6.17,1.84,0,0-15.06-2.14-15.06,5.63s12.78,7.25,12.78,7.25c0,0,2.02,7.5,12.06,7.5,0,0,6.08,8.67,12.93,8.67,4.18,0,4.98-4.73,7.31-4.73,0,0,2.58,6.06,7.34,1.3,4.76-4.76,4.5-3.45,5.83-2.12s3.24,1.45,7.15-2.45c1.82-1.82,3.21-3.11,5.35-3.11s3.64,8.35,9.64,8.35,7.36-4.81,7.36-4.81c0,0,5.48,7.56,12.01,7.56,3.96,0,7.39-3.61,7.39-3.61,0,0,2.09,7.68,10.28,7.68,9.32,0,6.21-13.68,6.21-13.68,0,0,13.56-6.07,13.56-13.56l-3.2-41.16s-1.15-6.87-8.53-6.87Z"/>
        <path class="cls-38" d="M318.48,281.6s-.96-3.94-4.9-3.94c-.97,0-1.86.54-2.58.54-.85,0-1.65-2.22-4.67-2.22-3.65,0-3.96,3.47-3.96,3.47,0,0-1.23-1.59-3.62-1.59-3.63,0-4.44,2.9-6.69,2.9s-2.69-1.15-2.69-1.15c0,0,.37,4.57,4.34,4.57,2.21,0,3.24-1.24,3.24-1.24,0,0,.74,3.77,4.62,3.77s6.08-3.98,6.08-3.98c0,0,.33,1.41,2.22,1.41,2.74,0,4.01-3.33,6.87-3.33.78,0,1.73.8,1.73.8Z"/>
        <path class="cls-38" d="M255.76,271.94s1.32,2.06,4.09,2.06c5.86,0,4.99-5.97,10.4-5.97,4.33,0,5.25,3.82,5.25,3.82,0,0,1.33-.96,2.94-.96,2.27,0,3.67,2.28,3.67,2.28,0,0,1.51-1.58,3.41-1.58,2.64,0,4.26,2.96,4.26,2.96,0,0-2.72-.16-5.46,2.59-2.74,2.74-5.2,2.99-7.21.98-1.07-1.07-1.64-2.16-3.4-.39-1.58,1.58-5.88,3.81-9.84-1.69l-.13-.15s-1.06,1.58-3.61,1.58c-4.1,0-4.36-5.52-4.36-5.52Z"/>
        <path class="cls-31" d="M312.97,258.92c-.57-1.22-1.67-2.8-3.67-3.49,3.28-2.19,4.31-6.41,4.31-6.41,0,0,1.61,2.06,5.51,2.06s1.75-10.13,1.75-10.13c0,0-3.3-6.08-7.75-6.08s-4.58,4.85-4.58,4.85c0,0-1.06-1.87-4.04-1.87-4.17,0-4.44,4.87-4.44,4.87,0,0-.49-.82-2.87-.82s-7.87,5.88-10.89,5.88-4.11-1.35-4.11-1.35c0,0,1.21,6.31,7.25,6.31,3.58,0,5.75-2.35,5.75-2.35,0,0,2.69,5.48,8.47,6.23-1.88,1.6-3.12,3.86-3.12,3.86,0,0-1.17-4.95-5.15-4.95s-5.28,3.18-5.28,3.18c0,0-.73-.81-2.73-.81-3.66,0-6.41,4.81-6.41,4.81,0,0-2.95-2.94-7.71-2.94-3.01,0-5.65,2.7-5.65,2.7,0,0,.5-.32,1.3-.32,2.85,0,4.22,6.6,10,6.6,4.3,0,6.15-4.06,6.15-4.06,0,0,4.12,2.47,7.75,2.47,10.56,0,12.99-8.59,16.81-8.59,1.1,0,1.95.33,2.58.71-1.92,1.07-3.41,2.91-3.86,5.46,3.21-2.55,6.56-4.3,10.69-3.79,1.41.08,2.75.44,4.24.58-2.54-3.34-6.9-4.08-10.28-2.62Z"/>
      </g>
    </g>
    <g id="Canopy">
      <g class="cls-27">
        <g>
          <path class="cls-41" d="M9.7,35.54v24.01c1.69-.37,3.31-.88,4.81-1.54,4.34-1.9,9.32-1.9,13.66,0,3.15,1.38,6.77,2.16,10.63,2.16s7.48-.78,10.63-2.16c4.34-1.9,9.32-1.9,13.66,0,3.15,1.38,6.77,2.16,10.63,2.16s7.48-.78,10.63-2.16c4.34-1.9,9.32-1.9,13.66,0,3.15,1.38,6.77,2.16,10.63,2.16s7.48-.78,10.63-2.16c4.34-1.9,9.32-1.9,13.66,0,3.15,1.38,6.77,2.16,10.63,2.16s7.48-.78,10.63-2.16c4.34-1.9,9.32-1.9,13.66,0,3.15,1.38,6.77,2.16,10.63,2.16s7.48-.78,10.63-2.16c4.34-1.9,9.32-1.9,13.66,0,3.15,1.38,6.77,2.16,10.63,2.16s7.48-.78,10.63-2.16c4.34-1.9,9.32-1.9,13.66,0,3.15,1.38,6.77,2.16,10.63,2.16s7.48-.78,10.63-2.16c4.34-1.9,9.32-1.9,13.66,0,3.15,1.38,6.77,2.16,10.63,2.16s7.48-.78,10.63-2.16c4.34-1.9,9.32-1.9,13.66,0,3.15,1.38,6.77,2.16,10.63,2.16s7.48-.78,10.63-2.16c.87-.38,1.77-.66,2.68-.89v-21.57H9.7Z"/>
          <rect class="cls-29" x="9.7" width="321.78" height="35.54"/>
          <polygon class="cls-47" points="142.11 35.54 144.33 0 127.75 0 123.2 35.54 142.11 35.54"/>
          <polygon class="cls-47" points="179.11 0 170.49 0 161.87 0 161.03 35.54 170.49 35.54 179.94 35.54 179.11 0"/>
          <polygon class="cls-47" points="104.28 35.54 110.99 0 94.19 0 85.37 35.54 104.28 35.54"/>
          <polygon class="cls-47" points="66.45 35.54 78.04 0 61.24 0 47.54 35.54 66.45 35.54"/>
          <polygon class="cls-47" points="28.62 35.54 45.27 0 28.47 0 9.7 35.54 28.62 35.54"/>
          <polygon class="cls-47" points="198.88 35.54 196.66 0 213.23 0 217.79 35.54 198.88 35.54"/>
          <polygon class="cls-47" points="236.71 35.54 230 0 246.8 0 255.62 35.54 236.71 35.54"/>
          <polygon class="cls-47" points="274.54 35.54 262.95 0 279.75 0 293.45 35.54 274.54 35.54"/>
          <polygon class="cls-47" points="312.37 35.54 295.72 0 312.52 0 331.28 35.54 312.37 35.54"/>
          <path class="cls-45" d="M9.7,35.54v24.01c1.69-.37,3.31-.88,4.81-1.54,4.34-1.9,9.32-1.9,13.66,0,.15.06.3.12.45.18v-22.65H9.7Z"/>
          <path class="cls-45" d="M47.54,35.54v23.19c.65-.22,1.29-.46,1.9-.73,4.34-1.9,9.32-1.9,13.66,0,1.07.47,2.19.86,3.36,1.18v-23.65h-18.92Z"/>
          <path class="cls-45" d="M85.37,35.54v22.07c4.09-1.48,8.64-1.35,12.65.4,1.93.84,4.04,1.46,6.27,1.82v-24.28h-18.92Z"/>
          <path class="cls-45" d="M123.2,35.54v21.3c3.26-.56,6.66-.18,9.74,1.17,2.75,1.2,5.86,1.95,9.18,2.12v-24.59h-18.92Z"/>
          <path class="cls-45" d="M161.03,35.54v21.04c2.33,0,4.66.47,6.83,1.42,3.15,1.38,6.77,2.16,10.63,2.16.49,0,.97-.01,1.46-.04v-24.59h-18.92Z"/>
          <path class="cls-45" d="M198.88,35.54v21.3c1.33.23,2.65.62,3.9,1.17,3.15,1.38,6.77,2.16,10.63,2.16,1.5,0,2.97-.12,4.38-.35v-24.28h-18.92Z"/>
          <path class="cls-45" d="M236.71,35.54v22.07c.33.12.67.25.99.39,3.15,1.38,6.77,2.16,10.63,2.16,2.56,0,5.01-.35,7.29-.99v-23.64h-18.92Z"/>
          <path class="cls-45" d="M274.54,35.54v23.2c2.67.91,5.62,1.43,8.71,1.43,3.69,0,7.15-.72,10.2-1.99v-22.64h-18.92Z"/>
          <path class="cls-45" d="M312.37,35.54v24.01c1.85.4,3.79.62,5.8.62,3.86,0,7.48-.78,10.63-2.16.81-.35,1.64-.64,2.48-.86v-21.6h-18.92Z"/>
        </g>
      </g>
    </g>
    <g id="Man">
      <path class="cls-45" d="M274.62,338.36h-18.15c-.56,0-1.02-.46-1.02-1.02s.46-1.02,1.02-1.02h18.15c.56,0,1.02.46,1.02,1.02s-.46,1.02-1.02,1.02Z"/>
      <path class="cls-45" d="M189.06,350.17c-.41,0-.83-.12-1.19-.38-.91-.66-1.13-1.93-.47-2.84l55.96-78.11c2.57-3.58,4.45-7.56,5.6-11.81l5.55-20.57c.29-1.09,1.41-1.73,2.5-1.44,1.09.29,1.73,1.41,1.44,2.5l-5.55,20.57c-1.27,4.73-3.37,9.14-6.22,13.12l-55.96,78.11c-.4.56-1.02.85-1.66.85Z"/>
      <path class="cls-45" d="M215.86,336.32h-17.32c-.56,0-1.02.46-1.02,1.02s.46,1.02,1.02,1.02h17.32v-2.04Z"/>
      <path class="cls-45" d="M266.95,350.17c-.53,0-1.06-.21-1.46-.62l-75.66-77.88c-.78-.81-.77-2.1.04-2.88.81-.78,2.1-.77,2.88.04l75.66,77.88c.78.81.77,2.1-.04,2.88-.4.38-.91.58-1.42.58Z"/>
      <path class="cls-47" d="M267.79,349.55l-51.88-53.41c-.61-.62-1.63-.55-2.14.16h0s51.73,53.25,51.73,53.25c.4.41.93.62,1.46.62.4,0,.8-.12,1.14-.36-.11-.08-.22-.16-.31-.26Z"/>
      <path class="cls-45" d="M207.21,350.17c-.41,0-.83-.12-1.19-.38-.91-.66-1.13-1.93-.47-2.84l55.96-78.11c2.57-3.58,4.45-7.56,5.6-11.81l5.55-20.57c.29-1.09,1.41-1.73,2.5-1.44,1.09.29,1.73,1.41,1.44,2.5l-5.55,20.57c-1.27,4.73-3.37,9.14-6.22,13.12l-55.96,78.11c-.4.56-1.02.85-1.66.85Z"/>
      <path class="cls-45" d="M285.11,350.17c-.53,0-1.06-.21-1.46-.62l-75.27-77.49c-.78-.81-.77-2.1.04-2.88.81-.78,2.1-.77,2.88.04l75.27,77.49c.78.81.77,2.1-.04,2.88-.4.38-.91.58-1.42.58Z"/>
      <path class="cls-47" d="M285.96,349.55l-54.91-56.53-.98,1.37,53.58,55.15c.4.41.93.62,1.46.62.4,0,.81-.12,1.15-.36-.11-.07-.21-.16-.3-.25Z"/>
      <path class="cls-47" d="M238.81,303.39h0l-1.18-1.22-32.07,44.77c-.66.92-.45,2.19.47,2.84.36.26.77.38,1.19.38.36,0,.72-.1,1.03-.28-.05-.03-.11-.06-.16-.1-.91-.66-1.13-1.93-.47-2.84l31.2-43.55Z"/>
      <path class="cls-47" d="M189.45,346.94l31.2-43.55-1.18-1.22-32.07,44.77c-.66.92-.45,2.19.47,2.84.36.26.77.38,1.19.38.36,0,.72-.1,1.03-.28-.05-.03-.11-.06-.16-.1-.91-.66-1.13-1.93-.47-2.84Z"/>
      <polygon class="cls-28" points="270.46 154.46 266.24 154.17 269.95 159.02 270.46 154.46"/>
      <g>
        <path class="cls-29" d="M160.31,197.15h-1.19v-4.02c0-.78-.2-1.56-.57-2.25l-2.58-4.77,1.05-.57,2.58,4.77c.47.86.71,1.84.71,2.82v4.02Z"/>
        <path class="cls-29" d="M160.4,198.81h-9.28l2.9,21.5c.07.55.55.96,1.1.96h9.19c.56,0,1.03-.41,1.1-.96l2.9-21.5h-7.91Z"/>
        <path class="cls-32" d="M169.58,197.58c-.11-.4-.48-.68-.9-.68h-17.93c-.42,0-.79.28-.9.68l-.35,1.22h20.42l-.35-1.22Z"/>
        <path class="cls-44" d="M160.4,221.27h3.91c.56,0,1.03-.41,1.1-.96l1.65-12.24h-14.7l1.65,12.24c.07.55.55.96,1.1.96h5.28Z"/>
        <path class="cls-42" d="M160.4,198.81h-.16l-2.9,21.5c-.07.55-.55.96-1.1.96h8.07c.56,0,1.03-.41,1.1-.96l2.9-21.5h-7.91Z"/>
        <polygon class="cls-42" points="168.31 198.81 160.4 198.81 159.03 198.81 151.12 198.81 151.26 199.81 168.18 199.81 168.31 198.81"/>
        <g>
          <path class="cls-1" d="M164.56,221.24s-.03,0-.04.01c.01,0,.03,0,.04-.01Z"/>
          <path class="cls-1" d="M165.41,220.31c-.01.09-.04.18-.07.26.03-.08.06-.17.07-.26Z"/>
          <path class="cls-1" d="M164.31,221.27s.06,0,.09,0c-.03,0-.06,0-.09,0h0Z"/>
          <path class="cls-36" d="M158.99,208.07l-1.65,12.24c-.07.55-.55.96-1.1.96h8.07s.06,0,.09,0c.04,0,.07,0,.11-.01.01,0,.03,0,.04-.01.36-.08.65-.34.79-.68.03-.08.06-.17.07-.26l1.65-12.24h-8.07Z"/>
        </g>
      </g>
      <path class="cls-45" d="M95.59,221.27h113.5v4.51c0,2.03-1.65,3.67-3.67,3.67h-106.15c-2.03,0-3.67-1.65-3.67-3.67v-4.51h0Z" transform="translate(304.68 450.72) rotate(-180)"/>
      <path class="cls-45" d="M165.03,343.32l-8.4-10.12c-1.89-2.27-2.92-5.13-2.92-8.09v-102.15h-4.83v102.31c0,2.98-1.05,5.87-2.97,8.15l-8.32,9.9c-.48.57-.07,1.45.67,1.45h26.09c.75,0,1.15-.87.68-1.44Z"/>
      <g>
        <path class="cls-29" d="M163.52,329.01c-.31.25-.64.47-.99.67l-11.76,6.48c-1.69.93-3.53,1.54-5.44,1.82-3.03.43-7.7,1.32-9.21,2.83-.92.92-.97,1.33-.97,2.5s0,2.1,0,2.1c0,0,7.81.69,15.12.69,6.52,0,32.55-.31,32.55-.31,0,0,.75-4.06.75-6.23,0-2.28-1.55-6.44-2.75-9.32-.34.31-3.21,2.77-6.87,2.77s-8.39-2.68-10.42-4Z"/>
        <path class="cls-43" d="M136.12,340.81c-.92.92-.97,1.33-.97,2.5s0,2.1,0,2.1c0,0,7.81.69,15.12.69,6.52,0,32.55-.31,32.55-.31,0,0,.52-2.82.69-5.01h-47.36s-.02.02-.03.03Z"/>
        <path class="cls-43" d="M148.87,341.72l-.05-4.65c-.16.06-.32.12-.48.17l.05,4.48h.49Z"/>
        <path class="cls-43" d="M150.9,337.81c.12,0,.24-.03.35-.09.35-.19.46-.6.25-.92l-.5-.77-.23.13c-.34.19-.69.36-1.04.52l.52.8c.14.22.4.34.65.33Z"/>
        <path class="cls-43" d="M153.26,336.52c.12,0,.24-.03.35-.09.35-.19.46-.6.25-.92l-.5-.77-1.25.69.5.77c.14.22.4.33.65.33Z"/>
        <path class="cls-43" d="M155.61,335.23c.12,0,.24-.03.35-.09.35-.19.46-.6.25-.92l-.5-.77-1.25.69.5.77c.14.22.4.34.65.33Z"/>
        <path class="cls-43" d="M157.97,333.93c.12,0,.24-.03.35-.09.35-.19.46-.6.25-.92l-.51-.78-1.25.69.51.77c.14.22.4.33.65.33Z"/>
        <path class="cls-43" d="M160.32,332.64c.12,0,.24-.03.35-.09.35-.19.46-.6.25-.92l-.51-.78-1.25.69.51.78c.14.22.4.33.65.33Z"/>
      </g>
      <path class="cls-9" d="M168.61,176.92l-3.08-5.6c-.34-.62-.1-1.4.53-1.72h0c.57-.29,1.26-.1,1.61.42l3.64,5.5-2.7,1.4Z"/>
      <g>
        <path class="cls-1" d="M171.31,175.52l-.13-.2c0,.09.02.17.02.25l.11-.05Z"/>
        <path class="cls-44" d="M169.5,176.46h0l1.71-.88c0-.08-.02-.16-.02-.25l-2.79-4.21h-.34s1.45,5.34,1.45,5.34Z"/>
      </g>
      <path class="cls-9" d="M173.45,172.01l10.62,5.22c.49.24.94.57,1.33.96,1.15,1.16,3.48,3.85,4.73,7.7l-7.03,8.49-.88-.82c-.12-.11-.26-.19-.42-.22-1.08-.24-5.59-1.44-8.54-4.81l-.6-.68c-.54-.61-.81-1.41-.75-2.23l.07-1.12c.06-.96-.47-1.86-1.35-2.26l-.36-.16c-.81-.37-1.41-1.09-1.63-1.96l-.21-.85c-.14-.57-.14-1.17.02-1.73l.4-1.48,4.61-4.04Z"/>
      <path class="cls-44" d="M173.77,178.11l-3.48-3.32-1.45,1.27-.44,1.62c-.13.47-.13.97-.01,1.45l.25.99c.22.87.82,1.59,1.63,1.96l.36.16c.88.4,1.41,1.3,1.35,2.26v.12s2.81-.52,2.81-.52l1.86-1.51-2.88-4.48Z"/>
      <path class="cls-44" d="M176.65,180.94c.62.2,1.29.22,1.92.06.45-.11.88-.31,1.34-.37.91-.11,1.8.37,2.72.4-.84-.55-1.65-1.14-2.44-1.75-.12-.09-.23-.18-.37-.22-.12-.03-.24-.03-.36-.03-1.15.02-2.3.05-3.46.07.04.63.2,1.25.48,1.81"/>
      <path class="cls-45" d="M178.33,181.55l-11.55-23.21c-.32-.65-.97-1.08-1.7-1.13l-2.27-.15c-.84-.06-1.42.82-1.05,1.57l11.52,23.15c.24.47.7.79,1.23.82l2.98.2c.67.04,1.13-.65.83-1.25Z"/>
      <path class="cls-44" d="M179.62,184.42l-.05.74c-.05.73-.66,1.3-1.39,1.29l-3.71-.08,5.15-1.96Z"/>
      <path class="cls-45" d="M175,181.9l-11.69-23.5c-.3-.6.16-1.29.83-1.24l-1.32-.09h0c-.45.31-.61.91-.37,1.4l11.68,23.47c.21.41.61.69,1.08.72.49.03,1.03.07,1.03.07-.53-.03-1-.35-1.23-.82Z"/>
      <path class="cls-44" d="M186.65,186.93c-5.81-.38-6.49-7.53-6.49-7.53,0,0-2.37.08-3.2.07.02,2.65,3.31,7.57,7.63,7.85,1.67.11,3.17-.54,3.17-.54h0c-.34.11-.71.17-1.1.14Z"/>
      <polygon class="cls-9" points="183.1 194.37 185.91 197.55 192.91 188.04 190.14 185.88 183.1 194.37"/>
      <path class="cls-8" d="M192.91,188.04l20.41,15.88c1.08.84,2.62.69,3.52-.34l20.29-23.27c4.66-5.34,12.8-5.8,18.03-1.02h0c5.46,5,5.47,13.59.02,18.6l-34.31,31.55c-2.75,2.53-6.94,2.69-9.88.36l-31.69-25.1,13.6-16.67Z"/>
      <path class="cls-28" d="M237.29,180.14h0s-3.47,3.97-3.47,3.97c-4.09,9.56-25.74,37.58-25.74,46.98l2.02-2.02,29.18-23.98-1.98-24.96Z"/>
      <path class="cls-8" d="M251.47,161.24c-2.41,2.41-4.25,4.61-5.43,6.13-1.05,1.35-2.68,2.14-4.39,2.14h-2.44s-.19,2.79,1.4,4.39l-.88.88c-10.66,10.66-7.07,29.02-35.1,57.04-1.38,1.38-3.16,2.04-3.16,2.04h44.74l8.46-68.48-3.19-4.14Z"/>
      <path class="cls-28" d="M239.93,184.58c-4.2,7.32-12.7,20.84-23.55,33.79-2.93,3.9-6.45,8.04-10.74,12.41l-1.79,4.63h30.6l9.41-29.1-3.93-21.75Z"/>
      <ellipse class="cls-44" cx="256.11" cy="167.36" rx="10.89" ry="4.73" transform="translate(-10.72 317.03) rotate(-62.45)"/>
      <polygon class="cls-45" points="189.06 261.57 184.29 265.37 184.29 269.82 197.04 269.06 195.4 265.69 189.06 261.57"/>
      <polygon class="cls-45" points="184.29 268.45 250.96 268.45 239.41 271.35 221.89 271.05 186.18 269.82 184.29 268.45"/>
      <polygon class="cls-45" points="184.29 270.78 249.55 273.64 249.55 271.31 184.29 268.45 184.29 270.78"/>
      <line class="cls-5" x1="264.85" y1="205.1" x2="256.7" y2="236.3"/>
      <polygon class="cls-45" points="202.44 270.78 267.7 273.64 267.99 271.92 202.73 269.06 202.44 270.78"/>
      <line class="cls-2" x1="283" y1="205.1" x2="274.85" y2="236.3"/>
      <polygon class="cls-45" points="264.57 206.33 283 206.33 281.26 212.89 262.82 212.89 264.57 206.33"/>
      <polygon class="cls-45" points="260.75 219.45 281.25 211.69 276.35 230.14 259 226.01 260.75 219.45"/>
      <path class="cls-47" d="M260.65,245.08l-23.02-4.67-56.93-20.07c-4.83-1.7-10.21-.62-14.01,2.83l-44.3,40.2-.45.4,16.71,18.28,39.53-35.26s26,22.98,38.44,24.39l19.96.25c18.6-1.1,22.09-8.92,24.07-26.35h0Z"/>
      <path class="cls-45" d="M149.27,272.67l25.63-22.86c1-4.67.17-6.7.17-6.7-14.72-1.66-21.54,8.94-25.8,29.56Z"/>
      <path class="cls-47" d="M215.64,270.35l-30.26-2.65-4.95,54.19-25.06-2.2,5.24-60.24c.54-6.15.85-17.8,14.09-16.63,4.02.35,27,26.31,40.95,27.54Z"/>
      <path class="cls-45" d="M175.15,242.93l10.22,24.76,23.01,2.61,7.25.04c-13.49-1.18-35.42-25.5-40.49-27.42Z"/>
      <line class="cls-3" x1="236.96" y1="154.76" x2="237.31" y2="154.68"/>
      <polygon class="cls-45" points="205.67 269.9 233.72 271.13 232.98 272.12 221.14 272.12 210.1 271.11 205.67 269.9"/>
      <path class="cls-9" d="M273.38,161.87l-6.6-9.23c-.65-.91-.96-2.03-.85-3.15h0c.09-1.01.32-2.1.61-3.23l-10.86-9.61-5.75,12.63-2.46,12,5.46,7.08c1.05,1.36,1.78,2.93,2.14,4.6l.54,2.48,17.78-13.57Z"/>
      <polygon class="cls-44" points="256.52 145.6 252.37 143.89 249.92 149.28 247.46 161.28 253 168.47 257.35 147.93 256.52 145.6"/>
      <path class="cls-9" d="M236.35,132.38s-1.95,7.46-1.57,9.21c.21.97,1.03,1.73,1.05,1.83s-1.08,2.43-2.19,4.74c-.21.45-.43.89-.63,1.32-.64,1.33.53,2.81,1.97,2.49l1.14-.25h0s4.48.77,4.48.77c1.54.27,3.09-.43,3.91-1.77l3.42-5.57c.44-.72.38-1.63-.14-2.29l-5.24-6.61c-.71-.9-.89-2.11-.47-3.18l1.42-3.58-4.37.95c-1.15.25-2.15.94-2.78,1.93"/>
      <path class="cls-44" d="M247.03,141.91l-.86-1.08-10.94,1.78c.06.09.12.18.18.26h0s.01.02.02.03c.04.06.08.11.12.16.02.02.03.04.04.05.04.04.07.08.1.12.04.04.06.08.09.11,0,0,0,.01.01.02.02.03.03.05.04.06,0,.02-.04.14-.13.34h0c-.08.19-.2.46-.35.78l.59,3.59,4.15-5.08,6.94-1.13Z"/>
      <path class="cls-29" d="M234.63,141.29c.04-.94,1.31-1.34,2.98-1.27,1.76.07,2.95.83,3.51,1.62.13.18-.09.41-.28.28-.53-.34-1.35-.42-1.99-.45-1.37-.06-4.28,1.24-4.22-.19Z"/>
      <path class="cls-44" d="M234.74,151.29c.62-1.08,1.78-.38,2.67-.19-.45.19-.96-.04-1.41-.09-.43-.08-.9.02-1.26.28h0Z"/>
      <path class="cls-44" d="M235.96,150.92s-.13.32-.52.41-.7-.03-.7-.03c0,0,.52-.47,1.22-.37Z"/>
      <path class="cls-44" d="M258.95,141.14c.88,4.02-1.06,8.36-4.06,9.02l-1.4-6.45,5.46-2.57Z"/>
      <polygon class="cls-32" points="253.85 140.8 253.65 139.61 246.17 140.83 247.03 141.91 253.63 140.84 253.85 140.8"/>
      <path d="M240.09,143.04l-2.48-.55-.48.93.92-.2c.05.25.22.71.73.81l-.62.97,1.93-1.97Z"/>
      <polygon class="cls-37" points="233.64 141.97 254.47 138.56 254.66 139.71 235.09 142.91 235.94 148.12 234.68 148.33 233.64 141.97"/>
      <path class="cls-28" d="M247.76,278.91h-16.85s5.19-5.84,5.19-5.84l12.02-1.23s3.05.66,3.13.91.25,1.73.08,2.06-3.57,4.12-3.57,4.12Z"/>
      <line class="cls-4" x1="281.22" y1="254.65" x2="263.39" y2="237.56"/>
      <path class="cls-49" d="M260.22,169.07s-4.38,5.84-8.28,5.84c-4.75,0-.59-8.59-.59-8.59l-11.41,18.26c-2.49,3.98-4.32,8.32-5.44,12.88l-4.43,18.01s-1.27.42-1.69,1.37.21,1.9-.11,2.64-1.69,1.69-2.01,2.32-.47,2.5-.47,2.5l18.31,6.57,13.83-46.42,2.29-15.39Z"/>
      <path class="cls-47" d="M242.11,230.16l-16.33-5.86-6.29,10.65,17.64,6.75,2.42-.71c.65-2.54,2.27-8.67,3.02-10.04.12-.22-.06-.49-.46-.79Z"/>
      <path class="cls-45" d="M224.15,231.37l17.32,2.65c.09-.28.56-3.6.64-3.86l-16.33-5.86-5.83,9.87,13.77,4.85-9.58-7.66Z"/>
      <path class="cls-8" d="M289.9,173.83l1.67-1.32c-1.06-1.06-18.23-10.75-18.23-10.75l-2.8-7.25c-.03-.08-.14-.06-.15.02-.61,6.02-15.99,19.66-15.99,19.66h-4.24c-2.59,2.94-9.51,21.06-9.51,35.74,0,35.89-9.8,69.01-9.8,69.01,0,0,12.98-3.84,14.43-3.84,2.47,0,3.7.57,3.7,1.23s-1.26,2.09-1.26,2.47,35.9-5.16,35.9-18.45l-3.69-13.2s-5.38-6.03-5.38-14.61,7.5-24.99,7.5-24.99c0,0,7.3-25.77,7.85-33.73Z"/>
      <g>
        <path class="cls-28" d="M279.94,247.15s-2.54-2.85-4.13-7.42c1.55,4.51,4.03,7.37,4.16,7.52l-.03-.1Z"/>
        <path class="cls-28" d="M273.17,196.24c-3.27,8.92-6.67,18.58-9.53,26.84l.91-30.96-12.42,61.19c-.49,2.4-.42,4.89.21,7.26l4.38,16.65c10.64-2.48,26.91-7.92,26.91-16.86l-3.67-13.1c-.12-.14-2.61-3-4.16-7.52-.72-2.08-1.25-4.51-1.25-7.2,0-8.58,7.5-24.99,7.5-24.99,0,0,7.3-25.77,7.85-33.73l1.62-1.28c-.12-.1-.31-.23-.57-.41-3.26-1.71-10.28,3.62-17.78,24.1Z"/>
      </g>
      <g>
        <path class="cls-44" d="M258.73,241.56l-2.14,2.14s4.29,6.57,10.73,6.57l-2.33-6.57-6.25-2.15Z"/>
        <path class="cls-8" d="M289.7,171.71c-5.11,0-12.71,12.54-12.71,26.07,0,7.28,4.47,22.64,4.47,25.35,0,3.07-16.64,12.34-22.72,18.43l15.5,15.7s29.48-13.84,29.48-29.67c0-28.1-8.26-55.89-14.01-55.89Z"/>
        <path class="cls-28" d="M289.47,218.1l10.27,1.95s0,0,0,0c0,0,0,0,0,0-3.5-2.66-8.3-3.88-12.69-3.19.56-3.42,7.48-4.59,7.48-6.44,0-5.09-13.79-8.82-13.79-18.67s4.47-17.42,4.65-17.71c-4.24,4.24-8.41,13.71-8.41,23.73,0,7.28,4.47,22.64,4.47,25.35,0,3.07-16.64,12.34-22.72,18.43,22.42-19.12,29.35-10.8,29.35-13.74,0-1.39-5.18-6.36-4.23-6.36,6.24,0,7.35,8.92,13.96,8.92,2.24,0,4.19-1.22,4.19-2.59,0-4.69-8.29-8.2-12.54-9.69Z"/>
      </g>
      <path class="cls-37" d="M180.5,329.51c-.44-1.04-.58-2.19-.47-3.32l.39-4.31-.3-.03h0l-13.46-1.18-.65,4.05c-.27,1.7-1.17,3.22-2.49,4.29,2.03,1.32,6.62,4,10.42,4,3.66,0,6.53-2.46,6.87-2.77-.1-.25-.21-.49-.3-.72,0,0,0-.01,0-.02Z"/>
      <path class="cls-33" d="M180,326.67c0-.16.01-.32.03-.47l.39-4.31-.3-.03-13.46-1.18-.23,1.44h0l13.57,4.55Z"/>
      <path class="cls-28" d="M265.92,177.84h-3.85c-1.6,0-3.14-.62-4.3-1.73-.98-.94-2.26-1.91-3.36-1.92h-4.24l2.39,3c1,1.25,2.53,1.96,4.13,1.88,5.76-.25,11.1-1.24,11.1-1.24l5.59-15.97-7.46,15.97Z"/>
      <path class="cls-45" d="M161.77,158.64l11.52,23.15c.24.47.7.79,1.23.82l1.71.11s-.55-.04-1.03-.07c-.46-.03-.87-.3-1.08-.72l-11.68-23.47c-.25-.49-.09-1.09.37-1.4-.84-.06-1.42.82-1.05,1.57Z"/>
      <path class="cls-47" d="M178.33,181.55l-11.55-23.21c-.32-.65-.97-1.08-1.7-1.13l-.95-.06c-.66-.04-1.13.65-.83,1.24l11.69,23.5c.24.47.7.79,1.23.82l1.26.08c.67.04,1.13-.65.83-1.25Z"/>
      <ellipse class="cls-9" cx="170.04" cy="177.04" rx="1.88" ry="1.43" transform="translate(-17.83 335.04) rotate(-86.22)"/>
      <path class="cls-9" d="M174.56,176.62c-.16.05-.25.21-.21.36.16.68.73,2.37,2.38,2.48.46.03,3.44-.07,3.44-.07,0,0,.68,7.15,6.49,7.53,1.52.1,2.73-1.07,3.26-1.7-1.29-3.5-3.43-5.96-4.51-7.05-.39-.39-.83-.71-1.33-.96l-3.21-1.58c-.79-.39-1.69-.45-2.52-.16l-3.79,1.13Z"/>
      <path class="cls-9" d="M175.97,185.83l1.9-.43c1.61-.36,2.38-1.46,2.18-2.35-.12-.51-.27-.82-.37-.98-.06-.09-.17-.13-.27-.11l-4.91,1.11c-.29.07-.56.18-.81.34l-1.7,1.12-.07,1.08c-.05.81.22,1.61.75,2.23l.2.22,1.54-1.41c.44-.41.99-.69,1.58-.82Z"/>
      <path class="cls-29" d="M269.23,132.75c-.02-.15-.05-.3-.08-.45-3.16-14.51-15.23-12.47-16.36-12.22-1.13.25-2.55.55-2.55.55,0,0-5.7,1.24-8.72,1.9-3.02.66-8.23,2.3-7.29,6.62.11.52.29.97.49,1.35-1.34-1.07-1.78-2.85-1.04-4.75,0,0,.44-1.04.44-1.04-1.7,2.44-1.67,5.02.23,6.7-1.14-.66-2.01-1.83-2.42-3.08.43,2.15,2.03,4.13,4.31,4.43.06-.24.1-.39.1-.39h0s0,0,0,0c.63-.99,1.63-1.68,2.78-1.93l4.37-.95-1.42,3.58c-.42,1.07-.25,2.28.47,3.18l5.24,6.61c.52.66.58,1.57.14,2.29l-3.42,5.57c-.82,1.33-2.37,2.03-3.91,1.77l-4.48-.77c-1.25.99-.76,2.99.8,3.3l.41.08-.32.91c-.28.79-.34,1.65-.16,2.47l1.06,4.86c.91,4.19,6.43,5.18,8.75,1.58l6.1-9.5c.75-1.17,1.01-2.6.71-3.96l-.93-4.28,3.17-5.48c.38,1.03,1.01,2.31,1.01,2.31,0,0,2.49,6.54,9.21,5.64.33-4.12,2.89-9.53,3.36-14.1.09-1.03.09-1.99-.04-2.81Z"/>
      <path class="cls-44" d="M239.27,154.67l-1.95.43h0l-.32.91c-.03.09-.06.19-.09.29,1.85-.43,2.37-1.62,2.37-1.62Z"/>
      <g>
        <path class="cls-9" d="M252.92,141.72c-.3-1.38.16-3.21,2.51-3.72,2.35-.51,3.33,2.26,3.52,3.14.79,3.64-2.69,7.63-4.35,7.99-.7.15-1.75-.34-2.1-1.95-.45-2.06.91-3.23.42-5.47Z"/>
        <path class="cls-44" d="M253.53,145.07l.09-.12c.19-.27.26-.59.19-.9v-.05c-.04-.13,0-.27.06-.37s.19-.19.33-.22.28,0,.39.06l1.42.85c.37.22.32.75-.08.93,0,0-1.34.7-1.71.78-.18.04-.36,0-.5-.08-.14-.09-.25-.22-.29-.4s0-.34.1-.48Z"/>
        <path class="cls-44" d="M256.52,145.61s1.33-.58,1.58-2.9c.24-2.32-1.02-3.83-2.21-3.91-.94-.07-1.67.46-1.79,1.63-.07.67.2,1.76.8,1.8.22.02.47-.08.5-.31.05-.43-1.11-.74-1.06-1.21.03-.27.53-.23.93-.54s-.27-.69-.24-.96c.02-.17.37-.31.88-.28,1.92.14,1.75,5.78.63,6.67Z"/>
      </g>
      <g>
        <polygon class="cls-32" points="258.95 141.14 258.95 141.14 258.95 141.14 258.95 141.14"/>
        <path class="cls-32" d="M257.88,146.07c.17.23.35.46.55.7.66-1.54.91-3.42.59-5.26.22,1.59-.33,3.22-1.14,4.56Z"/>
      </g>
      <path class="cls-22" d="M121.08,278.49c-3.54-1.23-7.29-5.69-8.82-7.66-1.29.58-2.65,1.01-4.06,1.25-4.24.75-10.04,1.75-10.04,1.75-1.9.32-3.84.3-5.73-.07-3.01-.59-7.7-1.28-9.63-.35-1.17.56-1.35.94-1.74,2.04-.38,1.1-.69,1.99-.69,1.99,0,0,7.15,3.22,14.05,5.62,6.16,2.14,30.84,10.4,30.84,10.4,0,0,2.04-3.59,2.75-5.63.75-2.15.65-6.59.46-9.71-.43.18-3.94,1.56-7.4.36Z"/>
      <path class="cls-37" d="M121.08,278.49c3.46,1.2,6.97-.18,7.4-.36h0c-.12-1.94.96-3.61,2.17-4.85l-8.7-9.52-6.02,4.82c-1.13.9-2.36,1.65-3.66,2.24,1.53,1.96,5.28,6.43,8.82,7.66Z"/>
      <path class="cls-33" d="M130.65,273.28l-8.7-9.52c.11.39,6.54,14.37,6.54,14.37-.12-1.94.96-3.61,2.17-4.85Z"/>
      <path class="cls-43" d="M94.84,277.57l1.18-3.52c-.17,0-.34,0-.52,0l-1.13,3.36-11.54-4.01s-.03.01-.04.02c-1.17.56-1.35.94-1.74,2.04-.38,1.1-.69,1.99-.69,1.99,0,0,7.15,3.22,14.05,5.62,6.16,2.14,30.84,10.4,30.84,10.4,0,0,1.42-2.49,2.3-4.51l-32.73-11.39Z"/>
      <path class="cls-43" d="M97.75,275.44c.11.04.24.05.36.03.39-.07.63-.42.54-.79l-.22-.89-.26.04c-.38.07-.77.11-1.16.15l.23.93c.06.25.26.45.51.52Z"/>
      <path class="cls-43" d="M100.39,274.99c.11.04.24.05.36.03.39-.07.63-.42.54-.79l-.22-.9-1.4.25.22.89c.06.25.26.45.51.52Z"/>
      <path class="cls-43" d="M103.04,274.55c.11.04.24.05.36.03.39-.07.63-.42.54-.79l-.23-.91-1.41.25.23.91c.06.25.26.45.51.52Z"/>
      <path class="cls-43" d="M105.69,274.1c.11.04.24.05.36.03.39-.07.63-.42.54-.79l-.23-.93-1.41.25.23.92c.06.25.26.45.51.52Z"/>
      <path class="cls-43" d="M107.83,273.13c.06.25.26.45.51.52.11.04.24.05.36.03.39-.07.63-.42.54-.79l-.24-.97-.34.06c-.15.03-.31.07-.46.1-.2.03-.4.07-.6.11h0s.23.94.23.94Z"/>
    </g>
    <g id="Updates">
      <g>
        <g>
          <path class="cls-29" d="M87.63,75.63h68.57c11.3,0,20.45,9.16,20.45,20.45,0,11.3-9.16,20.45-20.45,20.45h-68.57c-11.3,0-20.45-9.16-20.45-20.45s9.16-20.45,20.45-20.45Z"/>
          <g>
            <circle class="cls-47" cx="150.35" cy="96.17" r="7.64"/>
            <circle class="cls-47" cx="121.92" cy="96.17" r="7.64"/>
            <circle class="cls-47" cx="93.49" cy="96.17" r="7.64"/>
          </g>
        </g>
        <circle class="cls-29" cx="142.57" cy="132.2" r="10.54"/>
        <circle class="cls-29" cx="154.39" cy="150.48" r="4.3"/>
      </g>
    </g>
  </g>
</svg>