<?xml version="1.0" encoding="UTF-8"?>
<svg xmlns="http://www.w3.org/2000/svg" xmlns:xlink="http://www.w3.org/1999/xlink" viewBox="0 0 289.13 360">
  <defs>
    <style>
      .cls-1, .cls-2 {
        fill: none;
      }

      .cls-3 {
        fill: #ffc220;
      }

      .cls-4 {
        fill: url(#linear-gradient-5);
      }

      .cls-5 {
        fill: url(#linear-gradient-6);
      }

      .cls-6 {
        fill: url(#linear-gradient-4);
      }

      .cls-7 {
        fill: url(#linear-gradient-3);
      }

      .cls-8 {
        fill: url(#linear-gradient-2);
      }

      .cls-9 {
        fill: url(#linear-gradient);
      }

      .cls-2 {
        stroke: #000;
        stroke-linecap: round;
        stroke-linejoin: round;
      }

      .cls-10 {
        isolation: isolate;
      }

      .cls-11 {
        fill: #001e60;
      }

      .cls-12 {
        mix-blend-mode: multiply;
      }

      .cls-13 {
        fill: #ba7048;
      }

      .cls-14 {
        fill: #f48a16;
      }

      .cls-15 {
        fill: #fff;
      }

      .cls-16 {
        fill: #cc5605;
      }

      .cls-17 {
        fill: #a9ddf7;
      }

      .cls-18 {
        fill: #00ae42;
      }

      .cls-19 {
        opacity: .6;
      }

      .cls-20 {
        fill: #f3b792;
      }

      .cls-21 {
        fill: #ed2100;
      }

      .cls-22 {
        fill: #0b6830;
      }

      .cls-23 {
        fill: #4dbdf5;
      }

      .cls-24 {
        clip-path: url(#clippath);
      }

      .cls-25 {
        fill: #33190e;
      }

      .cls-26 {
        fill: #0053e2;
      }

      .cls-27 {
        fill: #f1d898;
      }
    </style>
    <linearGradient id="linear-gradient" x1="130.54" y1="217.4" x2="130.54" y2="160.46" gradientUnits="userSpaceOnUse">
      <stop offset=".44" stop-color="#f5bc29"/>
      <stop offset=".49" stop-color="#f4bc2b" stop-opacity=".98"/>
      <stop offset=".57" stop-color="#f4be32" stop-opacity=".91"/>
      <stop offset=".65" stop-color="#f4c23e" stop-opacity=".8"/>
      <stop offset=".73" stop-color="#f4c74f" stop-opacity=".65"/>
      <stop offset=".83" stop-color="#f4cd64" stop-opacity=".45"/>
      <stop offset=".92" stop-color="#f4d57d" stop-opacity=".22"/>
      <stop offset="1" stop-color="#f4dc95" stop-opacity="0"/>
    </linearGradient>
    <linearGradient id="linear-gradient-2" x1="241.5" y1="217.41" x2="241.5" y2="160.5" xlink:href="#linear-gradient"/>
    <linearGradient id="linear-gradient-3" x1="127.37" y1="269.04" x2="127.37" y2="247.31" gradientUnits="userSpaceOnUse">
      <stop offset=".2" stop-color="#f5bc29"/>
      <stop offset=".28" stop-color="#f4be30" stop-opacity=".93"/>
      <stop offset=".45" stop-color="#f4c444" stop-opacity=".75"/>
      <stop offset=".68" stop-color="#f4cd64" stop-opacity=".45"/>
      <stop offset=".97" stop-color="#f4da90" stop-opacity=".04"/>
      <stop offset="1" stop-color="#f4dc95" stop-opacity="0"/>
    </linearGradient>
    <linearGradient id="linear-gradient-4" x1="153.93" y1="310.92" x2="153.93" y2="270.59" xlink:href="#linear-gradient-3"/>
    <linearGradient id="linear-gradient-5" x1="241.57" y1="269.04" x2="241.57" y2="247.31" xlink:href="#linear-gradient-3"/>
    <linearGradient id="linear-gradient-6" x1="66.85" y1="132.98" x2="84.62" y2="132.98" gradientUnits="userSpaceOnUse">
      <stop offset=".11" stop-color="#9e200c"/>
      <stop offset=".24" stop-color="#a5200b" stop-opacity=".89"/>
      <stop offset=".51" stop-color="#b7230a" stop-opacity=".61"/>
      <stop offset=".88" stop-color="#d52609" stop-opacity=".15"/>
      <stop offset="1" stop-color="#df2809" stop-opacity="0"/>
    </linearGradient>
    <clipPath id="clippath">
      <path class="cls-1" d="M209.63,47.19c-11.78,0-16.82,2.56-20.93,6.67-5.08,5.08-13.54,28.15-13.54,29.76,3.96,0,37.07,11.21,48.54,11.21,3.68,0,12.9-1.05,15.77-1.05s7.52.52,8.37.52,3.49-6.51,3.49-15.61c0-25.07-22.4-31.5-41.7-31.5Z"/>
    </clipPath>
  </defs>
  <g class="cls-10">
    <g id="Background">
      <rect class="cls-26" x="0" width="289.13" height="360"/>
      <rect class="cls-23" x="0" y="276.59" width="289.13" height="83.41"/>
      <ellipse class="cls-11" cx="144.08" cy="347.3" rx="136.93" ry="4.53"/>
      <path class="cls-11" d="M289.13,327.33v-15.9c-31.01-1.11-68.8-1.76-109.57-1.76-82.62,0-152.98,2.67-179.57,6.4v6.61c26.59,3.73,96.95,6.4,179.57,6.4,40.77,0,78.55-.65,109.57-1.76Z"/>
    </g>
    <g id="Plant">
      <g>
        <path class="cls-18" d="M14.5,125.7c0,5.35,3.6,9.56,5.55,11.45-1.37,3.2-2.82,7.26-4.28,12.42-9.33,33.18-11.28,85.8-11.28,124.11h1.63c0-37.85,1.91-89.9,11.03-122.97,2.53-9.17,5.07-14.87,7.08-18.35.02-.01.03-.03.05-.04l39.77-35.54c7.31-6.53,11.48-15.86,11.48-25.66h0v-2.5S14.5,106.29,14.5,125.7Z"/>
        <path class="cls-18" d="M57.4,38.66h0c2.34,4.4,1.99,9.75-.92,13.81l-15.86,22.15c-3.26,4.55-8.01,7.8-13.43,9.19l-10.59,2.71s-3.24-1.43-3.24-7.63h0c0-6.43,3.18-12.44,8.49-16.05l35.55-24.18Z"/>
        <path class="cls-18" d="M107.84,111.2c-7.19-.36-14.78-.56-21.95-.56-14.04,0-33.11.73-44.25,4.18-14.94,4.64-13.83,27.08-13.82,27.3l.02.3.25-.16c22.2-14.29,79.21-30.56,79.78-30.72l1.01-.29-1.05-.05Z"/>
        <path class="cls-18" d="M17.95,166.5c0,3.84,2.11,6.76,3.32,8.11-2.99,8.24-14.5,43.62-14.5,99.07,0,.43.35.77.77.77s.77-.35.77-.77c0-59.73,13.39-95.99,14.94-99.96,8.51-12.28,24.03-22.71,32.34-27.74,3.8-2.3,7.06-5.38,9.55-9.05h0s-47.19,13.75-47.19,29.57Z"/>
        <path class="cls-22" d="M70.64,162.73c0,2.2-55.65,8.9-55.65,26.01,0,4.48,3.46,8.12,5.46,9.85-3.19,11.62-10.86,42.5-10.86,71.33h1.63c0-28.28,7.43-58.57,10.68-70.44.28-.79,1.62-3.99,6.76-9.13,9.35-9.35,31.74-12.71,38.21-19.18,5.24-5.24,3.77-8.45,3.77-8.45Z"/>
        <path class="cls-22" d="M84.15,118.9c-14.69-.72-55.29.29-56.21,18.6l-.13,2.58s0,.06,0,.09c-19.37,22.97-21.68,72.9-21.68,109.07v23.56c0,.43.35.77.77.77s.77-.35.77-.77v-23.56c0-35.36,2.2-83.94,20.42-106.97,12.9-8.3,37.55-17.27,56.06-23.37Z"/>
        <path class="cls-22" d="M17.44,83.23c-16.84,7.77-6.08,17.62-2.01,20.69-4.73,15.09-8.2,44.03-10.35,86.46-2.14,42.27-2.12,82.89-2.12,83.3h1.63c0-1.44.01-128.76,12.2-168.8.03-.05,16.73-26.2,40.09-36.97,11.64-5.37,19.13-1.45,23.78-14.07l-63.22,29.38Z"/>
        <path class="cls-18" d="M0,231.74v13.89c.62,7.36.96,15.19.96,23.52,0,.43.35.77.77.77s.77-.35.77-.77c0-13.78-.94-26.23-2.51-37.41Z"/>
        <path class="cls-22" d="M7.77,140.67c0-3.51-3.01-8.05-7.77-13.05v26.18c.33.03.66.06.98.08.53,9.6,1.63,38.69,1.98,117.34h1.63c-.35-79.66-1.49-108.56-2.01-117.84,1.53-1.35,5.18-5.36,5.18-12.7Z"/>
        <path class="cls-16" d="M29.64,269.45c0-.69-.57-1.25-1.27-1.25H0v53.3c.41.01.82.03,1.25.03v-.03.03c23.93,0,26.67-17.78,27.69-24.95.88-6.13.76-22.47.7-27.12Z"/>
      </g>
    </g>
    <g id="Sofa">
      <g>
        <polygon class="cls-3" points="289.13 184.11 252.99 184.11 134.82 184.11 24.57 184.11 52.91 283.02 134.82 283.02 252.99 283.02 289.13 283.02 289.13 184.11"/>
        <g>
          <path class="cls-27" d="M193.97,238.27c0,4.49-3.46,8.13-7.73,8.14l-111.26.17c-4.28,0-7.75-3.63-7.76-8.11l-.11-73.34c0-4.49,3.46-8.13,7.74-8.14l111.26-.17c4.28,0,7.75,3.63,7.76,8.12l.11,73.34Z"/>
          <path class="cls-9" d="M193.97,238.27c0,4.49-3.46,8.13-7.73,8.14l-111.26.17c-4.28,0-7.75-3.63-7.76-8.11l-.11-73.34c0-4.49,3.46-8.13,7.74-8.14l111.26-.17c4.28,0,7.75,3.63,7.76,8.12l.11,73.34Z"/>
        </g>
        <path class="cls-27" d="M289.13,156.85l-87.54.13c-4.28,0-7.74,3.65-7.74,8.14l.11,73.34c0,4.49,3.48,8.12,7.76,8.11l87.4-.13v-89.59Z"/>
        <path class="cls-8" d="M289.13,156.85l-87.54.13c-4.28,0-7.74,3.65-7.74,8.14l.11,73.34c0,4.49,3.48,8.12,7.76,8.11l87.4-.13v-89.59Z"/>
        <g>
          <rect class="cls-27" x="60.75" y="232.87" width="133.24" height="29" rx="14.5" ry="14.5"/>
          <rect class="cls-7" x="60.75" y="232.87" width="133.24" height="29" rx="14.5" ry="14.5"/>
        </g>
        <polygon class="cls-11" points="55.79 299 55.79 323.75 63.07 323.75 68.09 299 55.79 299"/>
        <polygon class="cls-11" points="74.67 299 74.67 319.89 80.81 319.89 85.05 299 74.67 299"/>
        <path class="cls-27" d="M289.13,264.18H71.28c-22.59,0-25.56-80.1-46.71-80.07-7.17.01-5.72,9.81-5.72,9.81,0,5.49,12.68,90.22,23.81,101.31,4.37,4.35,12.97,3.79,25.09,3.79h221.38v-34.83Z"/>
        <path class="cls-6" d="M289.13,264.18H71.28c-22.59,0-25.56-80.1-46.71-80.07-7.17.01-5.72,9.81-5.72,9.81,0,5.49,12.68,90.22,23.81,101.31,4.37,4.35,12.97,3.79,25.09,3.79h221.38v-34.83Z"/>
        <path class="cls-27" d="M289.13,232.87h-80.64c-8.01,0-14.5,6.49-14.5,14.5s6.49,14.5,14.5,14.5h80.64v-29Z"/>
        <path class="cls-4" d="M289.13,232.87h-80.64c-8.01,0-14.5,6.49-14.5,14.5s6.49,14.5,14.5,14.5h80.64v-29Z"/>
        <path class="cls-3" d="M193.86,164.93c1.14,9.44,1.36,18.91,1.43,28.4-.07,9.38-.28,19.09-1.43,28.4-1.15-9.3-1.36-19.03-1.43-28.4.06-9.49.29-18.95,1.43-28.4h0Z"/>
      </g>
    </g>
    <g id="Man">
      <path class="cls-11" d="M209.77,203.14h15.86c10.96,0,9.61,8.09,15.86,14.34,5.89,5.89,8.76,5.97,8.76,7.57s-1,2.42-7.09,2.42h-26.56l-6.83-24.33Z"/>
      <path class="cls-14" d="M279.31,239.29c-1.37-2.78-7.75-4.86-9.58-5.31-1.82-.46-6.39-2.39-12.87-3.08-5.32-.56-11.9-3.5-14.09-4.54-.48-.23-.91-.56-1.25-.97l-.22-.26c-.62-.74-1.53-1.13-2.49-1.19-.77-.05-1.5-.41-2-1.01l-2.49-2.99c-2.78-.54-4.74-.73-6.02-.73-4.29,0-7.47,3-7.47,3l-.77,1.01-.26.2,3.86,14.79s13.64,6.13,17.22,7.64c4.84,2.04,13.89,4.48,18.68,5.47,1.71.36,3.48.27,5.15-.24h0c.99-.3,2.01-.45,3.04-.45h.84c4.33,0,12.09-8.55,10.72-11.34Z"/>
      <path class="cls-1" d="M116.61,233.51h32.28c8.19,0,9.97,2.36,15.73,2.36h3.09c4.36,0,3.77,3.42,8.25,3.42h10.71l1.52,1.5c.81.79.78,2.1-.07,2.86h0c-.85.76-.87,2.09-.04,2.88l1.48,1.41c.71.67,1.24,1.5,1.55,2.43l17.72,51.73,28.82-7.64-18.62-83.87c-.97-4.35-4.82-7.44-9.28-7.44h-93.16v30.37Z"/>
      <path class="cls-14" d="M211.94,299.39l2.85,11.94c.63,2.66.41,5.45-.65,7.97l-1.93,4.6c-1.21,2.89-.09,6.24,2.63,7.8l13.93,8.03c2.38,1.37,3.2,2.55,5.77,3.53l2.58.99c1.17.45,2.41.67,3.66.67h11.94c4.1,0,8.61-.95,8.61-2.82,0-1.51-12.64-12.37-20.97-19.36-4.69-3.93-8.18-9.1-10.08-14.91l-3.91-11.93-14.43,3.5Z"/>
      <path class="cls-11" d="M241.49,217.48c-6.25-6.25-4.9-14.34-15.86-14.34h-15.86l6.83,24.33h2.85l1.22-2.94s2.61-4.37,9.34-4.37c4.47,0,20.24,2.1,20.24,4.89,0-1.59-2.87-1.68-8.76-7.57Z"/>
      <path class="cls-26" d="M116.61,233.51h32.28c8.19,0,9.97,2.36,15.73,2.36h3.09c4.36,0,3.77,3.42,8.25,3.42h10.71l1.52,1.5c.81.79.78,2.1-.07,2.86h0c-.85.76-.87,2.09-.04,2.88l1.48,1.41c.71.67,1.24,1.5,1.55,2.43l17.72,51.73,28.82-7.64-18.62-83.87c-.97-4.35-4.82-7.44-9.28-7.44h-93.16v30.37Z"/>
      <path class="cls-11" d="M181.6,225.94v-6.3c0-.81-.98-1.21-1.55-.64l-16.82,16.82c.44.03.9.05,1.39.05h3.09c4.36,0,3.77,3.42,8.25,3.42h8.69c1.3,0,2.55.51,3.47,1.42h0c.82.8.87,2.17.01,2.93s-.88,2.09-.05,2.88l1.48,1.41c.71.67,1.24,1.5,1.56,2.43l17.72,51.73,12.31-3.26-21.64-69.66c-.74-2.38-3.65-3.25-5.58-1.67l-7.48,6.15s1.39-5.99,10.52-15.11c8.64-8.64,2.11-12.75-7.17-3.47-6.47,6.47-8.21,10.87-8.21,10.87Z"/>
      <path class="cls-11" d="M192.19,226.93c4.71-6.54,11.06-11.46,18-15.45-3.41,6.85-10.93,12.75-18,15.45h0Z"/>
      <path class="cls-11" d="M143.13,193.03l6.06-10.77c.36-.65,1.05-1.05,1.8-1.05h5.16c.34,0,.55.36.38.66l-6.28,11.16h-7.12Z"/>
      <path class="cls-13" d="M139.06,193.47s1.11-2.36,2.44-2.36,3.21,1.92,3.21,1.92"/>
      <path class="cls-13" d="M149.33,190.07s-.44.3-.44,1.03.87,1.54.87,1.54l.25,3.04h2.07l1.84-1.71c.63-.59.63-1.59,0-2.18l-1.16-1.07c-.25-.23-.58-.38-.92-.41l-2.5-.24Z"/>
      <polygon class="cls-23" points="126.71 209 103.56 222.85 103.85 224.47 126.71 209"/>
      <g>
        <path class="cls-20" d="M95.91,142.49l.71,3.9c.16.9.02,1.84-.42,2.65l-.94,1.75c-.18.34-.21.74-.07,1.1.64,1.64,2.46,6.31,2.46,6.72,0,.53-1.5,1.39-1.99,1.66-.1.06-.22.08-.33.08h-.29c-.35,0-.64.29-.64.64h0c0,.1.02.2.07.3l.42.8c.12.23.08.51-.1.69l-.86.88c-.23.23-.55.34-.87.28h0s.94.4.94,1.25c0,1.17-1.63,1.12-1.63,2.29,0,.53.23.73.23,1.5s-.61,3.17-3.54,3.17c-.75,0-5.9-1.74-6.62-1.02-.62.62-1.13,2.23-1.13,2.23l-20.52-4.29,1.71-5.42c1.18-3.74.51-7.81-1.79-11-1.6-2.22-3.07-5.39-3.07-9.54,0-3.07,2.18-8.36,2.18-8.36l36.11,7.71Z"/>
        <g>
          <path class="cls-1" d="M73.16,146.08c.1,0,.2.01.29.03-.09-.01-.19-.02-.29-.03ZM72.85,146.08c.08,0,.15,0,.22,0-.07,0-.15,0-.22,0Z"/>
          <path class="cls-2" d="M73.07,146.08c-.07,0-.15,0-.22,0"/>
        </g>
        <path class="cls-13" d="M83.21,168.89c-2.37-1.41-4.01-3.78-4.53-6.48l-1.03-5.33s-.31,1.92-1.93,1.92c-3.72,0-5.82-5.19-5.82-7.77s1.33-5.13,3.56-5.13c0,0-4.63-.19-4.63,6.14,0,3.53,1.97,6.39,3.81,8.3,2.22,2.3,3.7,5.22,4.35,8.35l.78,3.75,3.53.74s.51-1.61,1.13-2.23c.72-.72,5.87,1.02,6.62,1.02s1.37-.17,1.85-.42c-1.41.57-4.93-1.22-7.69-2.86Z"/>
        <path class="cls-25" d="M68.9,151.13c.61-4.05,3.45-5.18,5.06-4.94,3.22.48,3.65,3.87,3.66,5.51,0,.59.49,1.08,1.1,1.04.43-.03.8-.35.92-.77l1.54-5.09c.35-1.14,1.36-1.94,2.54-1.99h.17c1.44-.07,2.72-.38,2.77-1.85l-.07-2.55-26.79-5.72s-2.18,5.28-2.18,8.36c0,4.15,1.47,7.32,3.07,9.54,1.93,2.67,2.71,5.97,2.21,9.18,4.77-3.71,5.41-6.77,6-10.73Z"/>
        <path class="cls-25" d="M93.75,146.52c1.33.2,2.09.73,1.99,1.39s-.83.85-1.73.71-1.29-.36-2.52-.55c-1.54-.23-3.36.6-3.48.44-.11-.13,2.02-2.56,5.74-2Z"/>
        <path class="cls-12" d="M92.13,151.3s0,0,0,0c.04-.1.07-.2.08-.31s.02-.22,0-.32l1.18.07-.82-.91-2.98.7c.62.19,1.2.4,1.74.69.55.28,1.05.64,1.56,1.03-.19-.37-.47-.68-.79-.95Z"/>
        <g>
          <path class="cls-13" d="M76.44,154.65l-.1-.14c-.23-.31-.31-.7-.23-1.06v-.06c.05-.16.01-.31-.08-.44s-.22-.22-.39-.26-.33,0-.46.07l-1.67,1c-.43.26-.38.88.09,1.09,0,0,1.57.82,2.02.92.21.05.42,0,.59-.09.17-.1.29-.26.34-.47s0-.4-.11-.56Z"/>
          <path class="cls-13" d="M72.92,155.28s-1.57-.68-1.86-3.41c-.29-2.73,1.2-4.51,2.6-4.61,1.11-.08,1.96.55,2.11,1.93.08.79-.23,2.07-.94,2.12-.26.02-.56-.1-.59-.36-.05-.51,1.31-.87,1.25-1.43-.03-.32-.62-.27-1.09-.64s.32-.82.28-1.13c-.02-.2-.44-.37-1.03-.33-2.27.16-2.07,6.8-.74,7.86Z"/>
        </g>
        <path class="cls-13" d="M95.42,159.13l-1.25-.21c-.6-.1-1.28,0-1.34.37-.01.08.03.26.37.31,1.05.18,2.22-.48,2.22-.48Z"/>
        <g class="cls-19">
          <path class="cls-13" d="M93.57,162.63c-.66.24-2.08.62-2.95.47-1.17-.2-1.69-.81-1.69-.81,0,0,1,1.13,1.74,1.25.51.09,1.7.3,2.38.41h0c.32.06.65-.05.87-.28l.86-.88s.07-.09.09-.13l-.55-.1c-.26-.04-.52-.02-.77.07Z"/>
        </g>
        <g class="cls-19">
          <path class="cls-13" d="M93.11,165.94c-.28-.05-.34-.06-.94-.16s-.86.94-.86.94l1.24.22c.32-.48,1.01-.69,1.31-1.18-.11.12-.5.23-.74.19Z"/>
        </g>
        <g>
          <path class="cls-21" d="M96.76,141.06c-.99-9.65-8.09-17.56-18.76-18.12-11.41-.61-19.43,7.34-20.85,17.61-.07.5.3.95.8.98l38.93,2.07,17.13.91c.53.03.99-.38,1.02-.92h0c.03-.52-.36-.97-.88-1.02l-17.39-1.51Z"/>
          <path class="cls-5" d="M78,122.94c-11.41-.61-19.43,7.34-20.85,17.61-.07.5.3.95.8.98l28.71,1.52c0-2.42-.12-19.66-8.66-20.11Z"/>
        </g>
        <path class="cls-21" d="M78,122.94c-3.88,3.75-5.81,8.44-7.46,13.44-1.97-5.4,1.51-12.66,7.46-13.44h0Z"/>
      </g>
      <g>
        <path class="cls-1" d="M241.49,217.48s0,0,0,0c-.14-.14-.29-.3-.44-.46-.08-.08-.15-.16-.22-.24-3.13-3.48-8.32-10.96-13.86-10.96h-15.42l-.91.41,5.96,21.24h2.85l1.22-2.94s2.61-4.37,9.34-4.37c4.47,0,20.24,2.1,20.24,4.89,0-1.59-2.87-1.68-8.76-7.57Z"/>
        <path class="cls-26" d="M223.11,205.81c10.71,0,14.58,7.48,17.72,10.96-5.49-6.13-4.65-13.63-15.19-13.63h-15.86l.87,3.08.91-.41h11.56Z"/>
      </g>
      <path class="cls-11" d="M128,213.95l-1.29-5.09-3.54-3.17-6.56.07v27.75h32.28c8.15,0,13.06-2.3,17.64-6.88,3.26-3.26,6.29-6.29,6.29-6.29h-36.55c-3.89,0-7.28-2.62-8.26-6.38Z"/>
      <path class="cls-17" d="M58.02,219.84c-2.19-3.14-3.47-6.83-3.69-10.66-.35-6.14-.85-15.16-.85-17.04,0-5.8-4.16-4.47-4.16-9.02,0-7.12,7.37-15.12,11.93-15.12,33.04,0,58.07,32.85,58.07,32.85l7.39,8c0,4.03-3.3,9.53-5.5,12.74-1.26,1.83-1.92,4-1.92,6.23h0c0,1.24-.21,2.47-.62,3.64l-.71,2.05h-47.27c-1.96,0-3.8-.96-4.93-2.57l-7.75-11.1Z"/>
      <path class="cls-23" d="M100.16,227.67c-2.77,2.77-8.12,3.64-12.84,3.64s-6.78,2.12-10.87,2.12l.07.09h41.44l.63-1.81c.43-1.24.7-2.55.7-3.86,0-2.23.66-4.4,1.92-6.24,2.2-3.21,5.5-8.7,5.5-12.74l-11.34,6.79c-5.53,3.31-10.59,7.35-15.12,11.94-.03.03-.05.06-.08.08Z"/>
      <path class="cls-13" d="M151.29,203.14c0-.6-.7-1.12-.7-1.12,0,0,1.4-1.09,1.4-2.25s-.64-2.91-.64-2.91v-2.59l-11.62,1.4-.23,7.45h11.79Z"/>
      <path class="cls-20" d="M122.37,200.16l6.33-6.38c.67-.67,1.54-1.12,2.48-1.26l4.16-.64c.64-.1,1.27.23,1.56.81l.3.61,12.56-.65c.6-.03,1.1.44,1.1,1.04h0c0,.43-.27.82-.67.97l-.36.14,1.36.3c.68.15,1.17.75,1.17,1.45h0c0,.61-.38,1.16-.95,1.38l-2.92,1.13.24.71c.3.88-.15,1.84-1.02,2.16l-6.56,2.42s.35,1.32-.87,1.66c-3.19.89-3.47,3-4.18,3s-3-1.1-5.76-1.1c-1.85,0-3.63.97-3.63.97,0,0-.08-3.18-4.34-8.7Z"/>
      <path class="cls-17" d="M120.69,198.48s6.02,2.04,6.02,10.38l-16.74,10.03-21.96-2.57-7.1-5.41,39.77-12.43Z"/>
      <path class="cls-23" d="M83.95,209.96l26.36-8.24c-5.78-.88-10.48-.02-13.22.77-.83.24-1.5-.7-1-1.41l2.92-4.16s-5.24,1.81-9.64,3.9c-1.76.83-3.78-.49-3.72-2.43.16-5.67-.15-14.12-3.77-10.5-1.7,1.7-1.65,5.76-.94,10.11-1.09-2.42-2.39-4.75-3.93-6.92-3.26-4.63-8.51-8.48-14.43-7.71-1.84.18-3.74.44-5.42,1.24,1.81-.34,3.64-.28,5.45-.24,5.61-.12,9.94,3.31,13.11,7.67,2.82,3.92,4.95,8.29,6.73,12.81.53,1.99,1.08,3.77,1.51,5.12Z"/>
    </g>
    <g id="Cap">
      <circle class="cls-23" cx="204.12" cy="78.47" r="57.59"/>
      <circle class="cls-17" cx="172.35" cy="149.48" r="14.9"/>
      <circle class="cls-17" cx="156.9" cy="173.51" r="3.34"/>
      <g>
        <path class="cls-15" d="M209.63,47.19c-11.78,0-16.82,2.56-20.93,6.67-5.08,5.08-13.54,28.15-13.54,29.76,3.96,0,37.07,11.21,48.54,11.21,3.68,0,12.9-1.05,15.77-1.05s7.52.52,8.37.52,3.49-6.51,3.49-15.61c0-25.07-22.4-31.5-41.7-31.5Z"/>
        <path class="cls-17" d="M217.22,94.13c2.54.43,4.76.69,6.49.69,3.68,0,12.9-1.05,15.77-1.05s7.52.52,8.37.52,3.49-6.51,3.49-15.61c0-21.02-15.76-28.94-32.23-30.94,5.52,7.54-.68,40.34-1.89,46.39Z"/>
        <path class="cls-11" d="M221.86,48.14c-.22-.97-1.32-1.84-2.76-2.07-1.56-.25-2.98.34-3.38,1.34,2.05.15,4.11.39,6.14.72Z"/>
        <path class="cls-11" d="M223.7,94.82s-18.74,14.03-37.63,14.03c-9.96,0-23.88-12.34-30.12-12.34-1.23,0-2.54.95-3.78.95h0c-.62,0-1.11-.5-1.11-1.11h0c0-.42.24-.81.62-1l23.49-11.74c3.96,0,37.07,11.21,48.54,11.21Z"/>
        <g class="cls-24">
          <g>
            <circle class="cls-11" cx="207.65" cy="59.73" r="3.62"/>
            <circle class="cls-11" cx="231.57" cy="82.31" r="3.62"/>
            <circle class="cls-11" cx="199.12" cy="73.6" r="3.62"/>
            <circle class="cls-11" cx="208.78" cy="91.75" r="3.62"/>
            <circle class="cls-11" cx="197.03" cy="59.58" r="1.15"/>
            <circle class="cls-11" cx="211.44" cy="72.62" r="2.66"/>
            <circle class="cls-11" cx="218.79" cy="60.36" r="1.66"/>
            <circle class="cls-11" cx="234.9" cy="63.07" r="3.34"/>
            <circle class="cls-11" cx="183.32" cy="65.21" r="3.34"/>
            <circle class="cls-11" cx="214.45" cy="83.18" r="1.94"/>
            <circle class="cls-11" cx="225.23" cy="72.62" r="2.81"/>
            <circle class="cls-11" cx="240.94" cy="74.51" r="1.77"/>
            <circle class="cls-11" cx="203.9" cy="47.27" r="2.1"/>
            <circle class="cls-11" cx="187.31" cy="76.08" r="2.73"/>
            <circle class="cls-11" cx="189.4" cy="54.81" r="2.69"/>
            <circle class="cls-11" cx="197.03" cy="85.12" r="2.1"/>
            <circle class="cls-11" cx="223.05" cy="89.2" r="1.04"/>
            <circle class="cls-11" cx="186.65" cy="86.44" r="2.12"/>
            <circle class="cls-11" cx="252.86" cy="83.1" r="2.68"/>
            <circle class="cls-11" cx="231.57" cy="94.43" r="2.68"/>
            <circle class="cls-11" cx="249.18" cy="73.6" r=".91"/>
            <circle class="cls-11" cx="177.17" cy="78.08" r="2"/>
            <circle class="cls-11" cx="228.04" cy="55.08" r="2"/>
            <circle class="cls-11" cx="243.34" cy="89.2" r="3.33"/>
            <circle class="cls-11" cx="246.67" cy="61.87" r="2.44"/>
            <circle class="cls-11" cx="215.73" cy="52.12" r="2.02"/>
          </g>
        </g>
      </g>
    </g>
    <g id="Dog">
      <g>
        <path class="cls-17" d="M227.01,341.57l-21.99-21.99h-13.75l19.55,17.07c1.11.97.43,2.8-1.05,2.8h-16.03c-2.73,0-5.32,1.24-7.03,3.38l-2.82,3.53c-.27.34-.03.84.41.84h40.39c2.93-.02,4.38-3.57,2.31-5.64Z"/>
        <path class="cls-17" d="M122.31,329.88c-12.92,0-10.57,17.33-16.76,17.33H24.04c-.44,0-.68-.51-.4-.85.79-.96,2.23-2.63,4.08-4.48,2.89-2.89,61.16-6.2,66.42-11.45,5.26-5.26,4.99-15.6,4.99-15.6l23.18,15.05Z"/>
        <path class="cls-15" d="M228.84,304.69c-12.95-12.95-45.34-10.84-59.84-10.84s-26.92-12.91-32.03-18.02c-8.19-8.19-11.27-28.78-18.97-36.48-2.93-2.93-9.7-2.43-11.77-2.43-8.56,0-15.48,8.42-15.48,8.42v1.11c0,1.6-.88,3.07-2.29,3.82l-13.98,7.51c-.55.3-.77.98-.49,1.55l3.41,6.77s3.14,3.5,8.78,3.5h2.29s1.96,1.29,4.02,1.29c2.87,0,4.61-1.41,5.27-2.09,0,0,3.58-.27,6.25,2.4,10.53,10.53-4.88,32.12-4.88,44.33,0,21.4,18.39,31.67,28.95,31.67h21.07c11.27,0,32.8-10.56,50.4-10.56,8.87,0,14.92,4.51,21.68,4.51,16.07,0,24.67-19.4,7.6-36.47Z"/>
        <path class="cls-17" d="M86.12,269.6c1.66,0,3.48-1.25,8.33-1.25,0,0-.43,1.96-2.66,1.96-.76,0-3.32-.71-3.32-.71-1.4,0-2.35,0-2.35,0Z"/>
        <path class="cls-11" d="M93.58,248.04l-.59.44c-.66.49-.89,1.38-.54,2.13h0s2.35,0,2.35,0h2.35l-1.78-1.28-1.78-1.28Z"/>
        <path class="cls-11" d="M78.11,260.46l-2.66,1.77-1.46-2.89c-.28-.56-.07-1.25.49-1.55l.99-.53h3.61v1.42c0,.72-.36,1.39-.96,1.78Z"/>
        <path class="cls-11" d="M78.62,267.16c-.8-.59-1.22-1.05-1.22-1.05l-2.44-4.84.86-.24,2.8,6.14Z"/>
        <path class="cls-17" d="M106.92,239.98c-.52,0-.86.55-.62,1.02.65,1.24,1.63,3.39,1.63,5.12,0,2.8-1.02,6.71-1.02,8.54,0,3.04,2.09,9.51,3.59,12.7.72,1.54.98,1.97.98,1.97l5.37-9.79c1.15-2.18,2.47-4.27,3.89-6.28.95-1.34,1.96-3.26,1.96-5.31,0-3.84-3.64-7.96-11.03-7.96h-4.75Z"/>
        <path class="cls-15" d="M130.57,329.88c-12.92,0-10.57,17.33-16.76,17.33H32.29c-.44,0-.68-.51-.4-.85.79-.96,2.23-2.63,4.08-4.48,2.89-2.89,59.24-4.27,64.5-9.53,5.26-5.26,2.5-17.52,2.5-17.52l27.59,15.05Z"/>
        <path class="cls-15" d="M230.16,306.07c8.34,8.34,16.56,36.17,35.28,36.17h4.56c4.15,0,8.1,1.76,10.88,4.85l.11.13h-20.94c-12.99,0-22.74-16.92-23.85-15.82-1.11,1.11-6.04-25.33-6.04-25.33Z"/>
        <path class="cls-17" d="M194.73,306.73c0,6.81,5.49,24.4,7.31,30.04,7.56.71,13.09,4.39,19.2,4.39.37,0,.73-.01,1.08-.03l1.88-7.27-29.47-27.13Z"/>
        <circle class="cls-11" cx="139.83" cy="301.32" r="4.53"/>
        <circle class="cls-11" cx="125.2" cy="321.46" r="4.53"/>
        <circle class="cls-11" cx="123.76" cy="302.77" r="1.44"/>
        <circle class="cls-11" cx="141.81" cy="316.92" r="3.33"/>
        <circle class="cls-11" cx="152.95" cy="305.82" r="2.08"/>
        <circle class="cls-11" cx="171.18" cy="307.13" r="4.18"/>
        <circle class="cls-11" cx="126.42" cy="264.96" r="1.22"/>
        <circle class="cls-11" cx="118.64" cy="271.91" r="2.02"/>
        <circle class="cls-11" cx="128.7" cy="275.99" r="2.92"/>
        <circle class="cls-11" cx="145.57" cy="332.31" r="2.43"/>
        <circle class="cls-11" cx="159.06" cy="319.09" r="3.52"/>
        <circle class="cls-11" cx="177.58" cy="326.64" r="2.22"/>
        <circle class="cls-11" cx="162.95" cy="331.64" r="1.76"/>
        <circle class="cls-11" cx="221.27" cy="320.11" r="1.76"/>
        <circle class="cls-11" cx="132.36" cy="287.35" r="2.63"/>
        <circle class="cls-11" cx="110.25" cy="321.15" r="2.8"/>
        <circle class="cls-11" cx="112.76" cy="297.96" r="3.36"/>
        <circle class="cls-11" cx="132.36" cy="339.58" r="2.63"/>
        <circle class="cls-11" cx="156.34" cy="339.85" r="1.31"/>
        <circle class="cls-11" cx="108.19" cy="334.3" r="2.66"/>
        <circle class="cls-11" cx="100.22" cy="341.16" r="1.89"/>
        <circle class="cls-11" cx="87.6" cy="339.06" r="2.1"/>
        <circle class="cls-11" cx="113.98" cy="343.54" r="1.23"/>
        <path class="cls-11" d="M74.51,341.57c1.65,0,2.98-1.33,2.98-2.98,0-.56-.15-1.07-.42-1.52-1.76.18-3.56.36-5.37.53-.11.31-.17.64-.17.98,0,1.65,1.33,2.98,2.98,2.98Z"/>
        <circle class="cls-11" cx="193.66" cy="332.21" r="3.36"/>
        <circle class="cls-11" cx="189.06" cy="320.32" r="1.13"/>
        <circle class="cls-11" cx="185.49" cy="309.64" r="2.51"/>
        <circle class="cls-11" cx="162.58" cy="297.14" r="2.51"/>
        <g>
          <path class="cls-17" d="M107.47,284.36s0,.03,0,.04h0s0-.03,0-.04Z"/>
          <path class="cls-17" d="M104.32,266.18c-3.14,0-5.29,1.35-6.56,2.62,0,0,0,0,0,0,0,0,0,0,0,0,0,0,3.58-.27,6.25,2.4,3.33,3.33,4.07,7.78,3.51,12.68.62-3.56,5.99-17.71-3.2-17.71Z"/>
        </g>
        <path class="cls-15" d="M235.63,341.57l-21.99-21.99,10.03-12.86-15.66-9.21c-16.48,0-15.58,14.61-10.38,19.82l2.25,2.25,19.55,17.07c1.11.97.43,2.8-1.05,2.8h-16.03c-2.73,0-5.32,1.24-7.03,3.38l-2.82,3.53c-.27.34-.03.84.41.84h40.39c2.93-.02,4.38-3.57,2.31-5.64Z"/>
        <circle class="cls-11" cx="216.64" cy="306.73" r="4.17"/>
        <circle class="cls-11" cx="207.54" cy="315.56" r="1.93"/>
        <circle class="cls-11" cx="200.07" cy="305.82" r="3.05"/>
        <path class="cls-11" d="M211.72,326.11c0-2.07-1.67-3.74-3.74-3.74-1.27,0-2.39.63-3.07,1.6l5.6,4.89c.74-.68,1.21-1.66,1.21-2.75Z"/>
        <path class="cls-17" d="M130.57,329.88c-9.65,0-10.78,9.67-13.31,14.56.04.03.09.05.13.08,3.8,1.8,7.58,2.69,10.69,2.69h2.49c-6.48,0-10.45-11.79,0-17.33Z"/>
        <path class="cls-11" d="M105.46,238.49c-.52,0-.86.55-.62,1.02.65,1.24,1.63,3.39,1.63,5.12,0,2.8-1.02,6.71-1.02,8.54,0,4.51,5.04,14.2,5.04,14.2l4.89-9.32c1.15-2.18,2.47-4.27,3.89-6.28.95-1.34,1.96-3.26,1.96-5.31,0-3.84-3.64-7.96-11.03-7.96h-4.75Z"/>
        <g>
          <path class="cls-17" d="M107.25,285.8c.08-.45.15-.9.21-1.35-.06.45-.13.89-.21,1.35Z"/>
          <path class="cls-17" d="M136.97,275.83c-.31-.31-.61-.64-.91-.99h0c.3.35.6.68.91.99Z"/>
          <path class="cls-17" d="M138.36,277.22s.08.08.12.12l-31.85,11.41,33.2-10.07c-.53-.51-1.02-1-1.48-1.45Z"/>
          <path class="cls-17" d="M137.64,276.5c.16.16.33.33.5.5-.17-.17-.34-.34-.5-.5Z"/>
          <path class="cls-17" d="M106.93,287.42c.09-.4.16-.8.24-1.2-.07.4-.15.8-.24,1.2Z"/>
        </g>
        <circle class="cls-11" cx="114.09" cy="285.6" r="2.53"/>
        <path class="cls-23" d="M138.48,277.34c-.55-.55-1.06-1.06-1.51-1.51-.73-.73-1.41-1.56-2.07-2.46l-25.26,9.05-4.68,1.68,1.67,4.65,31.85-11.41Z"/>
        <path class="cls-11" d="M212.99,333.69c0,1.47,1.19,2.67,2.67,2.67.89,0,1.68-.44,2.16-1.11l-3.99-3.49c-.51.49-.84,1.17-.84,1.94Z"/>
        <path class="cls-11" d="M144.68,286.93c0,2.13,1.72,3.85,3.85,3.85,1.58,0,2.94-.96,3.53-2.32-2.21-1.35-4.27-2.85-6.14-4.36-.76.7-1.24,1.71-1.24,2.83Z"/>
        <path class="cls-11" d="M185.37,297.19c1.3,0,2.35-1.05,2.35-2.35,0-.39-.09-.75-.26-1.07-1.41-.03-2.8-.04-4.16-.05-.18.33-.28.71-.28,1.11,0,1.3,1.05,2.35,2.35,2.35Z"/>
        <path class="cls-11" d="M104.75,306.73c0-1.81-1.06-3.37-2.6-4.1-1.04,3.03-1.98,5.93-2.52,8.59.19.02.39.04.59.04,2.5,0,4.53-2.03,4.53-4.53Z"/>
      </g>
    </g>
  </g>
</svg>