<svg width="344" height="266" viewBox="0 0 344 266" fill="none" xmlns="http://www.w3.org/2000/svg">
<g clip-path="url(#clip0_14040_43802)">
<path d="M342.76 0.580078H0.0703125V265.87H342.76V0.580078Z" fill="#4DBDF5"/>
<path d="M241.282 133.75H171.202H101.122L55.3516 140.12H171.202H287.062L241.282 133.75Z" fill="#001E50"/>
<path opacity="0.5" d="M114.06 106.72C125.05 96.68 121.81 67.75 126.18 60.38C126.18 60.38 109.04 54.31 97.4497 64.89L87.1797 74.27L97.2097 92.64L114.06 106.71V106.72Z" fill="#A9DDF7"/>
<g opacity="0.5">
<path d="M114.061 106.72C119.421 101.82 121.391 92.4302 122.521 83.2402C117.421 89.1702 113.941 99.5302 112.301 105.24L114.061 106.71V106.72Z" fill="#A9DDF7"/>
</g>
<path opacity="0.5" d="M114.058 106.72C114.058 106.72 108.118 79.5498 118.128 61.8198C118.128 61.8198 121.808 99.6398 114.058 106.72Z" fill="#4DBDF5"/>
<path opacity="0.5" d="M111.229 109.3L91.4688 96.9303L102.609 79.2603L106.459 83.4703C118.849 97.0303 111.229 109.31 111.229 109.31V109.3Z" fill="#A9DDF7"/>
<path d="M159.344 123.316L126.207 151.667L196.978 234.383L230.115 206.032L159.344 123.316Z" fill="#C78242"/>
<path opacity="0.5" d="M131.27 157.59L161.11 132.05" stroke="#905629" stroke-width="1.16" stroke-miterlimit="10"/>
<path opacity="0.5" d="M135.949 163.07L165.799 137.53" stroke="#905629" stroke-width="1.16" stroke-miterlimit="10"/>
<path opacity="0.5" d="M140.641 168.54L170.481 143.01" stroke="#905629" stroke-width="1.16" stroke-miterlimit="10"/>
<path opacity="0.5" d="M145.32 174.02L175.17 148.48" stroke="#905629" stroke-width="2.19" stroke-miterlimit="10"/>
<path opacity="0.5" d="M150.012 179.49L179.862 153.96" stroke="#905629" stroke-width="1.16" stroke-miterlimit="10"/>
<path opacity="0.5" d="M154.699 184.97L184.539 159.43" stroke="#905629" stroke-width="1.16" stroke-miterlimit="10"/>
<path opacity="0.5" d="M159.379 190.45L189.229 164.91" stroke="#905629" stroke-width="1.16" stroke-miterlimit="10"/>
<path opacity="0.5" d="M164.07 195.92L194.91 169.53" stroke="#905629" stroke-width="1.2" stroke-miterlimit="10"/>
<path opacity="0.5" d="M168.75 201.4L199.52 175.07" stroke="#905629" stroke-width="1.2" stroke-miterlimit="10"/>
<path opacity="0.5" d="M173.441 206.87L204.601 180.21" stroke="#905629" stroke-width="2.19" stroke-miterlimit="10"/>
<path opacity="0.5" d="M178.121 212.35L209.351 185.63" stroke="#905629" stroke-width="2.19" stroke-miterlimit="10"/>
<path opacity="0.5" d="M182.809 217.83L213.619 191.46" stroke="#905629" stroke-width="1.2" stroke-miterlimit="10"/>
<path opacity="0.5" d="M187.492 223.3L218.722 196.58" stroke="#905629" stroke-width="1.22" stroke-miterlimit="10"/>
<path opacity="0.5" d="M192.18 228.78L223.41 202.05" stroke="#905629" stroke-width="1.22" stroke-miterlimit="10"/>
<path d="M110.228 107.56C99.6579 117.55 99.3579 134.3 109.168 145.03L194.928 238.87C199.708 244.1 207.828 244.47 213.058 239.69L233.248 221.24C238.478 216.46 238.848 208.34 234.068 203.11L148.008 108.95C138.028 98.0302 121.018 97.3702 110.218 107.57L110.228 107.56ZM223.728 202.91C225.078 204.39 224.978 206.68 223.498 208.02L200.988 228.6C199.508 229.95 197.218 229.85 195.878 228.37L129.948 156.24C128.598 154.76 128.698 152.47 130.178 151.13L152.688 130.55C154.168 129.2 156.458 129.3 157.798 130.78L223.728 202.91Z" fill="#A9DDF7"/>
<g opacity="0.5">
<path d="M112.109 105.92C112.199 110.33 114.489 114.41 117.269 117.82C117.689 118.33 118.239 118.88 118.889 118.8C119.359 118.74 119.739 118.35 119.889 117.9C120.039 117.45 119.999 116.96 119.909 116.5C119.449 114.34 117.829 112.65 116.249 111.11C114.669 109.57 112.989 107.97 112.369 105.86" fill="#4DBDF5"/>
</g>
<path d="M110.099 107.98C109.119 110.02 108.159 112.08 107.559 114.27C106.959 116.46 106.719 118.77 107.189 120.98C107.359 121.79 107.759 122.72 108.579 122.86C109.159 122.96 109.749 122.59 110.039 122.08C110.329 121.57 110.379 120.95 110.319 120.37C110.189 119.09 109.619 117.91 109.329 116.66C108.879 114.72 109.119 112.69 109.359 110.71C109.449 109.97 109.539 109.23 109.769 108.52" fill="#4DBDF5"/>
<path opacity="0.5" d="M113.691 104.79C118.531 104.24 124.571 107.75 126.161 112.42C123.651 111.67 121.671 110.6 119.501 109.34C117.371 108.03 115.451 106.72 113.691 104.79Z" fill="#4DBDF5"/>
<path opacity="0.5" d="M113.691 104.79C117.031 102.8 122.661 101.86 126.161 103.83C121.931 104.04 117.931 104.88 113.691 104.79Z" fill="#4DBDF5"/>
<path d="M133.232 127.3C133.232 127.3 133.172 127.32 133.152 127.33C133.182 127.33 133.212 127.31 133.232 127.3Z" fill="#D366E9"/>
<path d="M133.022 127.37C133.022 127.37 132.962 127.38 132.922 127.39C132.952 127.39 132.982 127.38 133.022 127.37Z" fill="#D366E9"/>
<path d="M133.15 127.34C133.15 127.34 133.07 127.37 133.02 127.38C133.06 127.38 133.11 127.36 133.15 127.34Z" fill="#D366E9"/>
<path d="M94.7109 107.05C94.7109 107.13 94.7109 107.21 94.7209 107.29C94.7209 107.21 94.7109 107.13 94.7109 107.05Z" fill="#D366E9"/>
<path d="M94.7193 106.57C94.7193 106.69 94.7093 106.81 94.7193 106.93C94.7193 106.81 94.7193 106.69 94.7193 106.57Z" fill="#D366E9"/>
<path d="M133.29 127.28C133.29 127.28 133.26 127.29 133.25 127.3C133.26 127.3 133.28 127.29 133.29 127.28Z" fill="#D366E9"/>
<path d="M94.7617 107.65C94.7817 107.81 94.8117 107.97 94.8517 108.12C94.8117 107.96 94.7817 107.81 94.7617 107.65Z" fill="#D366E9"/>
<path d="M132.481 127.37C132.421 127.35 132.361 127.33 132.301 127.31C132.361 127.33 132.421 127.36 132.481 127.37Z" fill="#D366E9"/>
<path d="M131.872 126.99C131.872 126.99 131.832 126.94 131.812 126.91C131.832 126.94 131.852 126.96 131.872 126.99Z" fill="#D366E9"/>
<path d="M99.5309 123.58H114.531L114.571 132.35C114.571 171.95 137.531 169.8 137.531 190.31V237.36C137.531 241.09 134.511 244.11 130.781 244.11H93.9609C90.2309 244.11 87.2109 241.09 87.2109 237.36V188.15C87.2109 160.04 99.5309 136.3 99.5309 123.58Z" fill="#0B6830"/>
<path d="M131.931 127.06C131.931 127.06 131.901 127.03 131.891 127.01C131.901 127.03 131.921 127.04 131.931 127.06Z" fill="#D366E9"/>
<path d="M132.67 127.4C132.61 127.4 132.54 127.38 132.48 127.37C132.54 127.39 132.6 127.4 132.67 127.4Z" fill="#D366E9"/>
<path d="M132.101 127.2C132.101 127.2 132.071 127.18 132.051 127.16C132.071 127.17 132.081 127.19 132.101 127.2Z" fill="#D366E9"/>
<path d="M132.299 127.31C132.229 127.28 132.169 127.25 132.109 127.2C132.169 127.24 132.239 127.28 132.299 127.31Z" fill="#D366E9"/>
<path d="M99.5326 117.24C99.5326 117.04 99.5326 116.84 99.5026 116.65C99.3426 114.38 98.2526 112.37 96.6126 111C94.5126 109.24 94.1026 106.17 95.5926 103.88L99.5926 97.7202C100.323 96.6002 101.563 95.9302 102.893 95.9302H135.373V105.25H129.003L133.883 125.9C133.993 126.38 133.823 126.91 133.413 127.18C132.773 127.61 131.943 127.33 131.663 126.66L125.643 112.13C125.353 111.43 124.923 110.81 124.393 110.28C123.863 109.75 123.243 109.33 122.543 109.03C121.843 108.74 121.083 108.57 120.283 108.57C119.483 108.57 118.713 108.73 118.023 109.03C117.323 109.32 116.703 109.75 116.173 110.28C115.643 110.81 115.223 111.43 114.923 112.13C114.633 112.83 114.463 113.59 114.463 114.39L114.513 123.56H99.5126V117.22L99.5326 117.24Z" fill="#00AE42"/>
<path d="M240.181 123.07L250.321 133.22V243.23H240.181H230.041H210.341L200.191 223.31V123.07H240.181Z" fill="white"/>
<path d="M200.191 123.07L210.341 133.22V243.23H200.191H190.051V133.22L200.191 123.07Z" fill="#FEF6DE"/>
<path d="M240.171 114.47H200.191V123.07H240.171V114.47Z" fill="white"/>
<path d="M200.191 123.07H240.181L250.321 133.22H210.341L200.191 123.07Z" fill="#FEF6DE"/>
<path d="M233.789 123.18L232.509 127.29C231.999 128.93 228.489 129.29 224.669 128.09C220.849 126.9 218.169 124.6 218.679 122.97L219.959 118.86L233.799 123.18H233.789Z" fill="#0053E2"/>
<path d="M233.793 123.174C234.303 121.54 231.617 119.248 227.795 118.055C223.973 116.862 220.461 117.22 219.951 118.855C219.441 120.489 222.126 122.781 225.948 123.974C229.771 125.166 233.283 124.808 233.793 123.174Z" fill="#4DBDF5"/>
<path d="M210.341 133.22L200.191 123.07L190.051 133.22H210.341Z" fill="#E8E0CE"/>
<path d="M170.26 210.2C162.53 205.8 153.44 206.02 146.16 209.97C144.46 210.9 142.62 211.55 140.74 212.02C139.72 212.27 138.79 212.93 138.23 213.92C137.67 214.91 137.57 216.04 137.88 217.05C138.44 218.91 138.82 220.81 138.89 222.75C139.21 231.03 143.67 238.95 151.4 243.35C158.77 247.55 167.39 247.54 174.48 244.1C176.61 243.07 178.87 242.32 181.21 241.91C182.34 241.71 183.38 241.03 183.99 239.95C184.6 238.87 184.66 237.63 184.25 236.56C183.41 234.34 182.89 232.02 182.69 229.66C182.02 221.8 177.62 214.39 170.25 210.2H170.26Z" fill="#F48A16"/>
<path d="M130.419 150.45V145.92L130.439 142.07C130.439 142.07 129.149 142.07 127.149 142.07C122.079 142.06 118.369 140.86 113.719 140.84C111.589 140.84 109.749 141.49 108.379 142.21L111.149 145C111.149 145 112.309 144.25 113.709 144.25C117.139 144.25 120.059 145.15 123.389 145.62V150.43L118.189 150.41L118.159 161.67L134.989 161.72L135.019 150.46H130.419V150.45Z" fill="#FF765F"/>
<path d="M144.46 176.5L138.51 171.04C136.26 168.98 134.99 166.06 135 163.01V159.45L125.06 159.42L118.16 159.4V162.96C118.14 166.01 116.85 168.92 114.59 170.96L108.61 176.38C106.35 178.43 105.06 181.33 105.05 184.38L104.93 227.03C104.93 230.23 105.4 233.41 106.34 236.46C107.73 240.95 111.88 244.02 116.58 244.03L123.1 244.05L136.1 244.09C140.8 244.1 144.97 241.06 146.38 236.58C147.34 233.53 147.84 230.35 147.85 227.15L147.97 184.5C147.97 181.45 146.7 178.54 144.46 176.47V176.5Z" fill="#F4BDD3"/>
<path d="M142.3 185.741L111.25 185.649L111.121 228.979L142.171 229.071L142.3 185.741Z" fill="#F8E9F1"/>
<path d="M225.042 243.23C239.003 243.23 250.322 231.912 250.322 217.95C250.322 203.988 239.003 192.67 225.042 192.67C211.08 192.67 199.762 203.988 199.762 217.95C199.762 231.912 211.08 243.23 225.042 243.23Z" fill="#ED2100"/>
<path d="M189.068 206.84C196.798 202.44 205.888 202.66 213.168 206.61C214.868 207.54 216.708 208.19 218.588 208.66C219.608 208.91 220.538 209.57 221.098 210.56C221.658 211.55 221.758 212.68 221.448 213.69C220.888 215.55 220.508 217.45 220.438 219.39C220.118 227.67 215.658 235.59 207.928 239.99C200.558 244.19 191.938 244.18 184.848 240.74C182.718 239.71 180.458 238.96 178.118 238.55C176.988 238.35 175.948 237.67 175.338 236.59C174.728 235.51 174.668 234.27 175.078 233.2C175.918 230.98 176.438 228.66 176.638 226.3C177.308 218.44 181.708 211.03 189.078 206.84H189.068Z" fill="#FFC220"/>
<path d="M171.199 254.82C233.646 254.82 284.269 252.349 284.269 249.3C284.269 246.252 233.646 243.78 171.199 243.78C108.752 243.78 58.1289 246.252 58.1289 249.3C58.1289 252.349 108.752 254.82 171.199 254.82Z" fill="#001E50"/>
<path d="M250.001 155.75V194.13H243.021V152.3H240.291V194.13H232.971V152.3H230.241V194.13H222.921V152.3H220.191V169.01H212.871V152.3H210.141V169.01H202.821V152.3H200.091V169.01H192.771V152.3H190.041V169.01H182.721V152.3H179.991V169.01H172.831V152.3H170.101V169.01H162.781V152.3H160.051V169.01H152.731V152.3H150.001V169.01H142.681V152.3H139.951V169.01H132.631V152.3H129.901V169.01H122.581V152.3H119.851V194.13H112.531V152.3H109.801V194.13H102.481V152.3H99.7508V194.13H92.4108V155.75H66.3008L85.4608 237.89C86.2608 241.2 89.0208 243.61 92.3208 244.04V247.31C92.3208 248.41 93.2108 249.3 94.3108 249.3H248.011C249.111 249.3 250.001 248.41 250.001 247.31V244.05C253.341 243.65 256.141 241.22 256.951 237.89L276.111 155.75H250.001ZM250.001 198.62V219.08H243.021V198.62H250.001ZM240.291 198.62V219.08H232.971V198.62H240.291ZM92.4108 223.58H99.7508V236.96H92.4108V223.58ZM222.921 236.96V223.58H230.241V236.96H222.921ZM139.951 223.58V236.96H132.631V223.58H139.951ZM142.681 223.58H150.001V236.96H142.681V223.58ZM152.731 223.58H160.051V236.96H152.731V223.58ZM162.781 223.58H170.101V236.96H162.781V223.58ZM172.831 223.58H179.991V236.96H172.831V223.58ZM182.721 223.58H190.041V236.96H182.721V223.58ZM192.771 223.58H200.091V236.96H192.771V223.58ZM202.821 223.58H210.141V236.96H202.821V223.58ZM212.871 223.58H220.191V236.96H212.871V223.58ZM129.901 223.58V236.96H122.581V223.58H129.901ZM119.851 236.96H112.531V223.58H119.851V236.96ZM109.801 236.96H102.481V223.58H109.801V236.96ZM232.971 236.96V223.58H240.291V236.96H232.971ZM230.241 198.62V219.08H222.921V198.62H230.241ZM119.851 198.62V219.08H112.531V198.62H119.851ZM109.801 198.62V219.08H102.481V198.62H109.801ZM99.7508 198.62V219.08H92.4108V198.62H99.7508ZM243.021 236.96V223.58H250.001V236.96H243.021Z" fill="#0053E2"/>
<path d="M153.182 190.62L151.732 197.86L150.112 190.62H147.292L145.672 197.86L144.222 190.62H141.352L143.692 201.68H147.042L148.682 194.34L150.312 201.68H153.592L155.922 190.62H153.182Z" fill="white"/>
<path d="M159.442 192.65C157.662 192.65 156.402 193.25 155.942 193.68V196.04C156.472 195.57 157.592 194.87 159.072 194.87C159.982 194.87 160.322 195.12 160.322 195.64C160.322 196.08 159.852 196.26 158.542 196.54C156.552 196.95 155.402 197.68 155.402 199.4C155.402 200.99 156.452 201.92 157.972 201.92C159.242 201.92 160.002 201.33 160.422 200.54V201.67H163.162V196.24C163.162 193.75 161.862 192.64 159.442 192.64V192.65ZM159.052 200.15C158.402 200.15 158.052 199.75 158.052 199.21C158.052 198.5 158.612 198.22 159.322 197.97C159.692 197.83 160.062 197.69 160.312 197.47V198.69C160.312 199.62 159.822 200.15 159.062 200.15H159.052Z" fill="white"/>
<path d="M167.03 190.62H164.18V201.68H167.03V190.62Z" fill="white"/>
<path d="M178.451 192.68C177.071 192.68 176.181 193.51 175.711 194.62C175.461 193.44 174.631 192.68 173.461 192.68C172.141 192.68 171.281 193.45 170.851 194.53V192.93H168.051V201.68H170.901V196.83C170.901 195.64 171.301 194.96 172.151 194.96C172.841 194.96 173.081 195.43 173.081 196.17V201.69H175.931V196.84C175.931 195.65 176.331 194.97 177.181 194.97C177.871 194.97 178.111 195.44 178.111 196.18V201.7H180.961V195.78C180.961 193.94 180.091 192.7 178.451 192.7V192.68Z" fill="white"/>
<path d="M185.622 192.65C183.842 192.65 182.582 193.25 182.122 193.68V196.04C182.652 195.57 183.772 194.87 185.252 194.87C186.162 194.87 186.502 195.12 186.502 195.64C186.502 196.08 186.032 196.26 184.722 196.54C182.732 196.95 181.582 197.68 181.582 199.4C181.582 200.99 182.632 201.92 184.152 201.92C185.422 201.92 186.182 201.33 186.602 200.54V201.67H189.342V196.24C189.342 193.75 188.042 192.64 185.622 192.64V192.65ZM185.242 200.15C184.592 200.15 184.242 199.75 184.242 199.21C184.242 198.5 184.802 198.22 185.512 197.97C185.882 197.83 186.252 197.69 186.502 197.47V198.69C186.502 199.62 186.012 200.15 185.252 200.15H185.242Z" fill="white"/>
<path d="M193.102 195.41V192.94H190.312V201.69H193.162V197.97C193.162 196.26 194.222 195.8 195.242 195.8C195.582 195.8 195.902 195.84 196.052 195.89V192.88C194.452 192.8 193.482 193.83 193.102 195.41Z" fill="white"/>
<path d="M201.48 195.15V192.94H199.67V191.24H196.82V198.76C196.82 200.87 198.01 201.86 199.92 201.86C200.81 201.86 201.28 201.68 201.48 201.55V199.35C201.32 199.47 201.05 199.56 200.71 199.56C200.08 199.57 199.66 199.29 199.66 198.37V195.15H201.47H201.48Z" fill="white"/>
<path d="M102.48 155.75H99.75V159.82H102.48V155.75Z" fill="#001E50"/>
<path d="M112.531 155.75H109.801V159.82H112.531V155.75Z" fill="#001E50"/>
<path d="M122.582 155.75H119.852V159.82H122.582V155.75Z" fill="#001E50"/>
<path d="M132.632 155.75H129.902V159.82H132.632V155.75Z" fill="#001E50"/>
<path d="M142.679 155.75H139.949V159.82H142.679V155.75Z" fill="#001E50"/>
<path d="M152.73 155.75H150V159.82H152.73V155.75Z" fill="#001E50"/>
<path d="M162.781 155.75H160.051V159.82H162.781V155.75Z" fill="#001E50"/>
<path d="M172.832 155.75H170.102V159.82H172.832V155.75Z" fill="#001E50"/>
<path d="M182.722 155.75H179.992V159.82H182.722V155.75Z" fill="#001E50"/>
<path d="M192.769 155.75H190.039V159.82H192.769V155.75Z" fill="#001E50"/>
<path d="M202.82 155.75H200.09V159.82H202.82V155.75Z" fill="#001E50"/>
<path d="M212.871 155.75H210.141V159.82H212.871V155.75Z" fill="#001E50"/>
<path d="M222.921 155.75H220.191V159.82H222.921V155.75Z" fill="#001E50"/>
<path d="M232.972 155.75H230.242V159.82H232.972V155.75Z" fill="#001E50"/>
<path d="M243.019 155.75H240.289V159.82H243.019V155.75Z" fill="#001E50"/>
<path d="M275.16 159.82L276.11 155.75H250V159.82H275.16Z" fill="#001E50"/>
<path d="M92.4108 159.82V155.75H66.3008L67.2508 159.82H92.4108Z" fill="#001E50"/>
<path d="M225.612 194.13H222.922V198.63H225.612V194.13Z" fill="#001E50"/>
<path d="M225.612 219.08H222.922V223.58H225.612V219.08Z" fill="#001E50"/>
<path d="M134.08 151.14C133.45 151.14 132.8 151.01 132.19 150.72C129.91 149.67 128.92 146.98 129.97 144.7L162.8 73.3901C163.85 71.1101 166.54 70.1201 168.82 71.1701C171.1 72.2201 172.09 74.9101 171.04 77.1901L138.21 148.5C137.45 150.16 135.8 151.14 134.09 151.14H134.08Z" fill="#001E50"/>
<path d="M209.28 151.14C207.66 151.14 206.1 150.27 205.28 148.75L168.92 80.97C167.74 78.76 168.57 76.01 170.77 74.83C172.98 73.65 175.73 74.47 176.91 76.68L213.27 144.46C214.45 146.67 213.62 149.42 211.42 150.6C210.74 150.97 210 151.14 209.28 151.14Z" fill="#001E50"/>
<path d="M287.06 140.12H55.3503C54.7803 140.12 54.3203 140.58 54.3203 141.15V154.75C54.3203 155.32 54.7803 155.78 55.3503 155.78H287.07C287.64 155.78 288.1 155.32 288.1 154.75V141.15C288.1 140.58 287.64 140.12 287.07 140.12H287.06Z" fill="#0053E2"/>
<path d="M277.212 38.4601L265.862 43.8501C264.992 44.2601 264.242 44.8901 263.672 45.6701L262.152 47.7701H254.492L260.392 34.8301L279.952 28.3101L277.202 38.4701L277.212 38.4601Z" fill="#BA7048"/>
<path d="M258.161 95.0099C271.802 95.0099 282.861 83.9513 282.861 70.3099C282.861 56.6684 271.802 45.6099 258.161 45.6099C244.52 45.6099 233.461 56.6684 233.461 70.3099C233.461 83.9513 244.52 95.0099 258.161 95.0099Z" fill="#F48A16"/>
<path d="M271.694 49.6401C274.244 53.5301 275.734 58.1701 275.734 63.1701C275.734 73.1501 269.814 81.7401 261.304 85.6401C261.304 85.5901 261.334 85.5501 261.334 85.5001C261.334 85.0001 260.934 84.6001 260.434 84.6001C259.934 84.6001 259.534 85.0001 259.534 85.5001C259.534 85.8001 259.694 86.0601 259.924 86.2201C259.004 86.5801 258.054 86.8801 257.074 87.1301C257.074 86.6301 256.674 86.2301 256.174 86.2301C255.674 86.2301 255.274 86.6301 255.274 87.1301C255.274 87.2601 255.304 87.3901 255.354 87.5001C254.674 87.6201 253.974 87.7201 253.274 87.7801C253.294 87.7001 253.324 87.6201 253.324 87.5301C253.324 87.0301 252.924 86.6301 252.424 86.6301C251.924 86.6301 251.524 87.0301 251.524 87.5301C251.524 87.6501 251.554 87.7701 251.594 87.8801C251.404 87.8801 251.204 87.8901 251.014 87.8901C250.634 87.8901 250.254 87.8601 249.874 87.8501C249.724 87.5701 249.434 87.3801 249.094 87.3801C248.804 87.3801 248.554 87.5301 248.394 87.7401C247.884 87.6901 247.374 87.6201 246.874 87.5301C246.934 87.4101 246.974 87.2801 246.974 87.1301C246.974 86.6301 246.574 86.2301 246.074 86.2301C245.574 86.2301 245.174 86.6301 245.174 87.1301C245.174 87.1501 245.174 87.1601 245.184 87.1801C243.784 86.8401 242.434 86.3801 241.144 85.8101C241.234 85.6701 241.304 85.5101 241.304 85.3301C241.304 84.8301 240.904 84.4301 240.404 84.4301C240.004 84.4301 239.674 84.6901 239.564 85.0501C238.954 84.7301 238.354 84.3901 237.774 84.0201C238.124 83.9001 238.384 83.5801 238.384 83.1901C238.384 82.6901 237.984 82.2901 237.484 82.2901C237.184 82.2901 236.924 82.4401 236.754 82.6601C236.984 83.0601 237.234 83.4601 237.484 83.8501C237.494 83.8701 237.514 83.8901 237.524 83.9101C237.564 83.9601 237.594 84.0201 237.624 84.0801C237.624 84.0801 237.624 84.0801 237.634 84.0801C242.064 90.6801 249.594 95.0301 258.144 95.0301C271.784 95.0301 282.844 83.9701 282.844 70.3301C282.844 61.6801 278.394 54.0801 271.664 49.6601L271.694 49.6401Z" fill="#CC5605"/>
<path d="M246.771 85.1403C247.271 85.1403 247.671 84.7403 247.671 84.2403C247.671 83.7403 247.271 83.3403 246.771 83.3403C246.271 83.3403 245.871 83.7403 245.871 84.2403C245.871 84.7403 246.271 85.1403 246.771 85.1403Z" fill="#CC5605"/>
<path d="M249.931 86.2199C250.431 86.2199 250.831 85.8199 250.831 85.3199C250.831 84.8199 250.431 84.4199 249.931 84.4199C249.431 84.4199 249.031 84.8199 249.031 85.3199C249.031 85.8199 249.431 86.2199 249.931 86.2199Z" fill="#CC5605"/>
<path d="M244.502 82.6999C245.002 82.6999 245.402 82.2999 245.402 81.7999C245.402 81.2999 245.002 80.8999 244.502 80.8999C244.002 80.8999 243.602 81.2999 243.602 81.7999C243.602 82.2999 244.002 82.6999 244.502 82.6999Z" fill="#CC5605"/>
<path d="M240.662 83.6003C241.159 83.6003 241.562 83.1973 241.562 82.7003C241.562 82.2032 241.159 81.8003 240.662 81.8003C240.165 81.8003 239.762 82.2032 239.762 82.7003C239.762 83.1973 240.165 83.6003 240.662 83.6003Z" fill="#CC5605"/>
<path d="M238.193 81.2502C238.693 81.2502 239.093 80.8502 239.093 80.3502C239.093 79.8502 238.693 79.4502 238.193 79.4502C237.693 79.4502 237.293 79.8502 237.293 80.3502C237.293 80.8502 237.693 81.2502 238.193 81.2502Z" fill="#CC5605"/>
<path d="M253.334 85.8801C253.834 85.8801 254.234 85.4801 254.234 84.9801C254.234 84.4801 253.834 84.0801 253.334 84.0801C252.834 84.0801 252.434 84.4801 252.434 84.9801C252.434 85.4801 252.834 85.8801 253.334 85.8801Z" fill="#CC5605"/>
<path d="M257.271 85.32C257.771 85.32 258.171 84.92 258.171 84.42C258.171 83.92 257.771 83.52 257.271 83.52C256.771 83.52 256.371 83.92 256.371 84.42C256.371 84.92 256.771 85.32 257.271 85.32Z" fill="#CC5605"/>
<path d="M250.002 83.34C250.502 83.34 250.902 82.94 250.902 82.44C250.902 81.94 250.502 81.54 250.002 81.54C249.502 81.54 249.102 81.94 249.102 82.44C249.102 82.94 249.502 83.34 250.002 83.34Z" fill="#CC5605"/>
<path d="M243.603 85.7199C244.103 85.7199 244.503 85.3199 244.503 84.8199C244.503 84.3199 244.103 83.9199 243.603 83.9199C243.103 83.9199 242.703 84.3199 242.703 84.8199C242.703 85.3199 243.103 85.7199 243.603 85.7199Z" fill="#CC5605"/>
<path d="M235.603 78.2002C235.303 78.2002 235.043 78.3502 234.883 78.5702C235.053 79.0502 235.233 79.5202 235.433 79.9802C235.493 79.9902 235.553 80.0002 235.613 80.0002C236.113 80.0002 236.513 79.6002 236.513 79.1002C236.513 78.6002 236.113 78.2002 235.613 78.2002H235.603Z" fill="#CC5605"/>
<path d="M332.452 -19L313.892 4.17C311.962 6.58 309.332 8.35 306.372 9.22L281.232 16.66C279.872 17.06 278.572 17.66 277.372 18.43L253.392 33.91C252.812 34.28 252.272 34.71 251.772 35.19L231.602 54.62C231.602 54.62 231.672 57.85 236.652 58.16C239.582 52.98 244.322 48.98 250.012 46.99L241.672 62.06H244.112C247.912 62.06 251.462 60.15 253.552 56.98L263.412 42.02C263.792 41.44 264.302 40.96 264.902 40.6L276.022 34.01L265.082 63.46H267.172C269.692 63.46 272.002 62.04 273.152 59.8L282.242 41.93C283.582 39.29 285.512 37.01 287.862 35.27L294.022 39.29C295.302 40.13 295.602 41.88 294.662 43.1L282.052 59.38C281.662 59.89 281.322 60.44 281.052 61.01C282.222 63.89 282.872 67.03 282.872 70.32C282.872 70.91 282.842 71.49 282.802 72.07C283.332 72.03 283.872 71.8 284.292 71.34C289.532 65.53 299.142 54.93 303.192 50.88C308.902 45.17 315.782 41.58 319.622 37.74C323.462 33.9 333.542 17.76 336.682 14.63C339.822 11.49 375.062 -18.99 375.062 -18.99H332.472L332.452 -19Z" fill="#F3B792"/>
<path d="M295.223 41.6001H295.203C295.173 42.1301 295.003 42.6401 294.653 43.0901L282.043 59.3701C281.653 59.8801 281.313 60.4301 281.043 61.0001C282.213 63.8801 282.863 67.0201 282.863 70.3101C282.863 70.9001 282.833 71.4801 282.793 72.0601C283.323 72.0201 283.863 71.7901 284.283 71.3301C284.323 71.2801 284.373 71.2301 284.413 71.1801C284.113 69.1301 283.673 66.8801 283.673 64.5001C283.673 60.1501 295.213 45.6001 295.213 41.6001H295.223Z" fill="#BA7048"/>
<path d="M256.563 35.1599L239.913 53.0399C238.323 54.7499 235.953 55.5099 233.663 55.0399L231.613 54.6199C231.613 54.6199 231.683 57.8499 236.663 58.1599C239.593 52.9799 244.333 48.9799 250.023 46.9899L256.573 35.1499L256.563 35.1599Z" fill="#BA7048"/>
<path d="M261.853 88.2598L263.583 90.3598L260.303 91.9798L257.273 90.1198L261.853 88.2598Z" fill="#07421C"/>
</g>
<defs>
<clipPath id="clip0_14040_43802">
<rect width="343" height="265" fill="white" transform="translate(0.0351562 0.935059)"/>
</clipPath>
</defs>
</svg>
