<svg width="290" height="360" viewBox="0 0 290 360" fill="none" xmlns="http://www.w3.org/2000/svg">
<g clip-path="url(#clip0_14040_43799)">
<path d="M289.122 0H-0.0078125V360H289.122V0Z" fill="#4DBDF5"/>
<path d="M289.122 51.46V48.2H278.702V0H275.442V48.19H267.822C261.782 48.19 255.942 49.97 250.932 53.32L217.782 75.53H185.922V0H179.392V75.54H130.942V0H124.412V44.06H60.6222V0H57.3622V44.06H34.9022V0H31.6422V44.06H-0.0078125V50.59H31.6422V81.66H-0.0078125V84.92H31.6422V200.42H-0.0078125V206.95H31.6422V277.85H-0.0078125V284.38H31.6422V308.46H-0.0078125V311.72H31.6422V360H34.9022V311.72H44.7522C49.3322 311.72 53.7622 310.37 57.5722 307.82L92.5722 284.38H124.432V360H130.962V284.38H179.412V360H185.942V315.85H249.732V360H252.992V315.85H275.452V360H278.712V315.85H289.132V309.32H278.712V278.25H289.132V274.99H278.712V159.49H289.132V152.96H278.712V82.06H289.132V75.53H278.712V51.45H289.132L289.122 51.46ZM208.042 82.06L185.932 96.87V82.06H208.042ZM185.922 152.97V100.81L213.902 82.07H249.712V152.97H185.922ZM179.402 239.52H163.142C156.942 239.52 150.952 241.34 145.802 244.79L130.952 254.74V196.83H179.402V239.52ZM124.432 206.95V259.11L96.4522 277.85H60.6422V206.95H124.432ZM130.952 193.56V159.49H179.402V193.56H130.952ZM130.952 152.97V120.4H144.492C152.462 120.4 160.182 118.05 166.802 113.62L179.392 105.18V152.97H130.942H130.952ZM179.402 82.06V101.25L164.992 110.9C158.912 114.98 151.822 117.13 144.502 117.13H130.962V82.06H179.412H179.402ZM124.432 50.59V163.09H34.9122V50.59H124.432ZM34.9122 166.35H124.432V200.42H34.9122V166.35ZM34.9122 206.95H57.3722V277.85H34.9122V206.95ZM55.7622 305.11C52.4922 307.3 48.6922 308.46 44.7622 308.46H34.9122V284.38H86.7122L55.7622 305.11ZM102.312 277.85L124.432 263.04V277.85H102.312ZM130.952 277.85V258.66L147.622 247.5C152.232 244.41 157.592 242.78 163.142 242.78H179.402V277.85H130.952ZM185.922 309.32V196.82H275.442V309.32H185.922ZM275.442 193.56H185.922V159.49H275.442V193.56ZM275.442 152.97H252.982V82.07H275.442V152.97ZM275.442 75.54H223.642L252.742 56.04C257.212 53.04 262.432 51.46 267.812 51.46H275.432V75.54H275.442Z" fill="#A9DDF7"/>
<path d="M265.151 25.7902V25.7702C265.151 25.6102 265.151 25.4402 265.151 25.2802C265.151 17.6502 258.971 11.4702 251.341 11.4702C243.711 11.4702 237.531 17.6502 237.531 25.2802C237.531 25.4502 237.531 25.6102 237.531 25.7702V25.7902C237.571 26.9302 237.751 28.0302 238.051 29.0902C240.591 38.5002 251.331 46.9202 251.331 46.9202C251.331 46.9202 262.071 38.5002 264.611 29.0902C264.911 28.0402 265.091 26.9302 265.131 25.7902H265.151Z" fill="#0053E2"/>
<path d="M47.0731 177.18V177.16C47.0731 177 47.0731 176.83 47.0731 176.67C47.0731 169.04 40.8931 162.86 33.2631 162.86C25.6331 162.86 19.4531 169.04 19.4531 176.67C19.4531 176.84 19.4531 177 19.4531 177.16V177.18C19.4931 178.32 19.6731 179.42 19.9731 180.48C22.5131 189.89 33.2531 198.31 33.2531 198.31C33.2531 198.31 43.9931 189.89 46.5331 180.48C46.8331 179.43 47.0131 178.32 47.0531 177.18H47.0731Z" fill="#0053E2"/>
<path d="M279.714 237.75V237.73C279.714 237.57 279.714 237.4 279.714 237.24C279.714 229.61 273.534 223.43 265.904 223.43C258.274 223.43 252.094 229.61 252.094 237.24C252.094 237.41 252.094 237.57 252.094 237.73V237.75C252.134 238.89 252.314 239.99 252.614 241.05C255.154 250.46 265.894 258.88 265.894 258.88C265.894 258.88 276.634 250.46 279.174 241.05C279.474 240 279.654 238.89 279.694 237.75H279.714Z" fill="#0053E2"/>
<path d="M95.4736 360H246.604L226.194 311.49L86.6036 309.76L66.6836 329.19C66.6836 329.19 76.5336 339.28 90.2636 353.36C92.1136 355.26 93.8336 357.5 95.4736 360Z" fill="#B8804F"/>
<path d="M89.2936 340.97C90.6036 338.65 93.0836 337.22 95.7536 337.26L159.104 338.15C170.984 338.32 180.604 347.95 180.614 359.83C180.614 359.89 180.614 359.94 180.614 360H228.134L210.554 321.81L77.0736 320.15L77.9036 324.34L72.6336 323.38L66.6836 329.19C66.6836 329.19 74.1836 336.88 85.2236 348.19L89.3036 340.97H89.2936Z" fill="#835936"/>
<path d="M53.4137 150.96C47.9137 156.33 47.5237 165.05 52.5437 170.88L73.5137 195.25L97.2037 172.14L73.3537 150.57C67.6537 145.41 58.9237 145.58 53.4137 150.95V150.96Z" fill="#B8804F"/>
<path d="M59.9102 300.81L77.7802 301.03L74.4702 316.32L59.9102 300.81Z" fill="#835936"/>
<path d="M54.25 247.5L74.62 247.75L74.35 269.52L54.25 247.5Z" fill="#835936"/>
<path d="M50.5312 234.39L70.8112 255.18L74.8813 226.71L50.5312 234.39Z" fill="#835936"/>
<path d="M205.131 29.1899H84.1512C77.1814 29.1899 71.5312 34.8401 71.5312 41.8099V318.98C71.5312 325.95 77.1814 331.6 84.1512 331.6H205.131C212.101 331.6 217.751 325.95 217.751 318.98V41.8099C217.751 34.8401 212.101 29.1899 205.131 29.1899Z" fill="#001E60"/>
<path d="M131.194 45.52L158.714 45.58C160.234 45.58 161.464 46.82 161.464 48.34C161.464 49.86 160.224 51.09 158.704 51.09L131.184 51.03C129.664 51.03 128.434 49.79 128.434 48.27C128.434 46.75 129.674 45.52 131.194 45.52Z" fill="#A9DDF7"/>
<mask id="mask0_14040_43799" style="mask-type:luminance" maskUnits="userSpaceOnUse" x="81" y="64" width="128" height="232">
<path d="M199.702 64.0098H90.122C85.2674 64.0098 81.332 67.9452 81.332 72.7998V287.12C81.332 291.974 85.2674 295.91 90.122 295.91H199.702C204.557 295.91 208.492 291.974 208.492 287.12V72.7998C208.492 67.9452 204.557 64.0098 199.702 64.0098Z" fill="white"/>
</mask>
<g mask="url(#mask0_14040_43799)">
<path d="M75.1678 300.355L214.188 300.646L214.699 56.5565L75.679 56.2654L75.1678 300.355Z" fill="#A9DDF7"/>
<path d="M213.282 246.909C213.282 246.909 212.402 245.929 209.892 245.929C207.382 245.929 206.242 249.219 206.242 249.219C206.242 249.219 205.592 247.989 203.352 247.989C199.692 247.989 198.862 252.529 197.512 252.529C196.162 252.529 194.502 250.909 192.562 250.909C190.622 250.909 187.162 254.659 186.452 260.149C185.742 265.639 186.452 268.639 186.452 268.639H213.282V246.919V246.909Z" fill="#0B6830"/>
<path opacity="0.4" d="M16.3123 102.929C25.0223 102.929 32.6624 109.239 32.6624 109.239C32.6624 109.239 39.0023 92.1294 50.7823 92.1294C58.6123 92.1294 60.2724 97.4594 60.2724 97.4594C60.2724 97.4594 61.9423 96.8094 64.5023 96.8094C70.7624 96.8094 74.6024 102.089 74.6024 102.089C74.6024 102.089 76.5824 98.7994 82.8524 98.7994C95.0124 98.7994 103.282 116.869 115.832 116.869C115.832 116.869 124.542 94.9494 143.032 94.9494C154.222 94.9494 158.282 103.509 158.282 103.509C158.282 103.509 159.512 101.419 163.532 101.419C167.552 101.419 169.262 105.029 169.262 105.029C169.262 105.029 173.382 102.129 178.972 102.129C190.672 102.129 192.322 113.709 198.362 113.709C203.212 113.709 203.662 108.929 211.562 108.929C219.462 108.929 223.262 115.679 223.262 115.679C223.262 115.679 225.212 114.329 228.862 114.329C237.592 114.329 246.572 125.249 246.572 125.249C246.572 125.249 248.172 120.729 255.552 120.729C266.522 120.729 271.892 134.309 287.102 134.309C295.002 134.309 299.262 131.959 308.352 131.959C314.612 131.959 318.452 134.179 318.452 134.179C318.452 134.179 319.022 130.279 322.752 130.279C325.212 130.279 327.162 130.829 328.722 130.829C337.152 130.829 335.432 121.309 348.262 121.309C361.092 121.309 372.512 130.899 372.512 130.899C372.512 130.899 371.782 127.229 375.802 127.229C381.222 127.229 381.962 133.619 396.872 133.619C407.032 133.619 409.182 139.719 409.182 139.719C409.182 139.719 410.602 136.929 413.402 136.929C422.012 136.929 423.812 138.979 435.222 138.979C456.102 138.979 469.312 153.449 474.212 158.349H16.1523L16.3123 102.909V102.929Z" fill="white"/>
<path opacity="0.4" d="M336.041 152.449C327.331 152.449 319.691 158.759 319.691 158.759C319.691 158.759 313.351 141.649 301.571 141.649C293.741 141.649 292.081 146.979 292.081 146.979C292.081 146.979 290.411 146.329 287.851 146.329C281.591 146.329 277.751 151.609 277.751 151.609C277.751 151.609 275.771 148.319 269.501 148.319C257.341 148.319 249.071 166.389 236.521 166.389C236.521 166.389 227.811 144.469 209.321 144.469C198.131 144.469 194.071 153.029 194.071 153.029C194.071 153.029 192.841 150.939 188.821 150.939C184.801 150.939 183.091 154.549 183.091 154.549C183.091 154.549 178.971 151.649 173.381 151.649C161.681 151.649 160.031 163.229 153.991 163.229C149.141 163.229 148.691 158.449 140.791 158.449C132.891 158.449 129.091 165.199 129.091 165.199C129.091 165.199 127.141 163.849 123.491 163.849C114.761 163.849 105.781 174.769 105.781 174.769C105.781 174.769 104.181 170.249 96.8006 170.249C85.8306 170.249 80.4606 183.829 65.2506 183.829C57.3506 183.829 53.0906 181.479 44.0006 181.479C37.7406 181.479 33.9006 183.699 33.9006 183.699C33.9006 183.699 33.3306 179.799 29.6006 179.799C27.1406 179.799 25.1906 180.349 23.6306 180.349C15.2006 180.349 16.9206 170.829 4.09062 170.829C-8.73938 170.829 -20.1594 180.419 -20.1594 180.419C-20.1594 180.419 -19.4294 176.749 -23.4494 176.749C-28.8694 176.749 -29.6094 183.139 -44.5194 183.139C-54.6794 183.139 -56.8294 189.239 -56.8294 189.239C-56.8294 189.239 -58.2494 186.449 -61.0494 186.449C-69.6594 186.449 -71.4594 188.499 -82.8694 188.499C-103.749 188.499 -116.959 202.969 -121.859 207.869H336.201L336.041 152.429V152.449Z" fill="white"/>
<path d="M211.5 273.319H77.2695V297.209H211.5V273.319Z" fill="#00AE42"/>
<path d="M175.952 139.66C175.952 139.66 175.952 139.62 175.952 139.61C175.962 139.24 175.972 138.87 175.972 138.5C175.972 121.34 162.062 107.43 144.902 107.43C127.742 107.43 113.832 121.34 113.832 138.5C113.832 138.87 113.832 139.24 113.852 139.61C113.852 139.63 113.852 139.65 113.852 139.66C113.942 142.22 114.352 144.71 115.032 147.08C120.742 168.25 144.902 187.19 144.902 187.19C144.902 187.19 169.062 168.25 174.772 147.08C175.452 144.71 175.852 142.23 175.952 139.66Z" fill="#0053E2"/>
<path d="M144.912 151.73C152.224 151.73 158.152 145.802 158.152 138.49C158.152 131.177 152.224 125.25 144.912 125.25C137.6 125.25 131.672 131.177 131.672 138.49C131.672 145.802 137.6 151.73 144.912 151.73Z" fill="#A9DDF7"/>
<path d="M210.351 281.979V288.539H175.821C173.411 288.539 171.111 287.559 169.441 285.829L158.181 274.139H141.471L147.281 285.879C147.891 287.109 146.991 288.539 145.631 288.539H77.2609V281.979H76.9609V297.219H213.211V281.979H210.351Z" fill="#FBE298"/>
<path d="M93.9117 260.139C93.9117 260.139 92.9017 256.599 88.2817 257.239C88.2817 257.239 89.5117 250.259 84.6117 250.259C83.3617 250.259 82.1317 251.219 81.3917 251.219C80.6517 251.219 80.1717 247.079 75.2617 247.079V266.109H94.1617L93.9117 260.139Z" fill="#0B6830"/>
<path d="M179.219 193.939H171.629V209.109H179.219V193.939Z" fill="#0053E2"/>
<path d="M98.9492 203.349L107.979 227.679H195.309L180.709 203.349H98.9492Z" fill="#0053E2"/>
<path d="M184.172 193.939H177.902V209.109H184.172V193.939Z" fill="#001E60"/>
<path d="M191.91 227.679H107.98V274.139H191.91V227.679Z" fill="white"/>
<path d="M184.169 192.369H171.629V193.949H184.169V192.369Z" fill="white"/>
<path d="M131.284 232.809H124.684V244.839H131.284V232.809Z" fill="#A9DDF7"/>
<path d="M123.092 232.809H119.422V244.839H123.092V232.809Z" fill="#FFC220"/>
<path d="M134.951 232.809H131.281V244.839H134.951V232.809Z" fill="#FFC220"/>
<path d="M129.694 232.809H123.094V244.839H129.694V232.809Z" fill="#4DBDF5"/>
<path d="M130.404 236.699H123.094V237.129H130.404V236.699Z" fill="white"/>
<path d="M126.614 232.809H126.184V244.839H126.614V232.809Z" fill="white"/>
<path d="M154.799 232.809H148.199V244.839H154.799V232.809Z" fill="#A9DDF7"/>
<path d="M146.611 232.809H142.941V244.839H146.611V232.809Z" fill="#FFC220"/>
<path d="M158.471 232.809H154.801V244.839H158.471V232.809Z" fill="#FFC220"/>
<path d="M153.209 232.809H146.609V244.839H153.209V232.809Z" fill="#4DBDF5"/>
<path d="M153.919 236.699H146.609V237.129H153.919V236.699Z" fill="white"/>
<path d="M150.129 232.809H149.699V244.839H150.129V232.809Z" fill="white"/>
<path d="M178.354 232.809H171.754V244.839H178.354V232.809Z" fill="#A9DDF7"/>
<path d="M170.162 232.809H166.492V244.839H170.162V232.809Z" fill="#FFC220"/>
<path d="M182.022 232.809H178.352V244.839H182.022V232.809Z" fill="#FFC220"/>
<path d="M176.772 232.809H170.172V244.839H176.772V232.809Z" fill="#4DBDF5"/>
<path d="M177.482 236.699H170.172V237.129H177.482V236.699Z" fill="white"/>
<path d="M173.684 232.809H173.254V244.839H173.684V232.809Z" fill="white"/>
<path d="M195.31 227.679H107.98V229.539H195.31V227.679Z" fill="#F7EED7"/>
<path d="M191.91 229.529H107.98V231.389H189.89L191.91 229.529Z" fill="#A9DDF7"/>
<path d="M107.98 252.189V274.139H173.35L191.91 255.569L186.34 252.189H107.98Z" fill="#A9DDF7"/>
<path d="M197.93 253.709L191.91 246.269H107.98L111.7 253.709H197.93Z" fill="#0053E2"/>
<path d="M107.98 246.269V255.569H111.7V253.709L107.98 246.269Z" fill="#F7EED7"/>
<path d="M131.284 257.149H124.684V269.179H131.284V257.149Z" fill="#4DBDF5"/>
<path d="M123.092 257.149H119.422V269.179H123.092V257.149Z" fill="#FFC220"/>
<path d="M134.951 257.149H131.281V269.179H134.951V257.149Z" fill="#FFC220"/>
<path d="M129.694 257.149H123.094V269.179H129.694V257.149Z" fill="#0053E2"/>
<path d="M130.404 261.039H123.094V261.469H130.404V261.039Z" fill="#A9DDF7"/>
<path d="M126.614 257.149H126.184V269.179H126.614V257.149Z" fill="#A9DDF7"/>
<path d="M178.354 257.149H171.754V269.179H178.354V257.149Z" fill="#4DBDF5"/>
<path d="M170.162 257.149H166.492V269.179H170.162V257.149Z" fill="#FFC220"/>
<path d="M182.022 257.149H178.352V269.179H182.022V257.149Z" fill="#FFC220"/>
<path d="M176.772 257.149H170.172V269.179H176.772V257.149Z" fill="#0053E2"/>
<path d="M177.482 261.039H170.172V261.469H177.482V261.039Z" fill="#A9DDF7"/>
<path d="M173.684 257.149H173.254V269.179H173.684V257.149Z" fill="#A9DDF7"/>
<path d="M146.6 257.149H142.93V269.179H146.6V257.149Z" fill="#0053E2"/>
<path d="M197.93 253.708H196.27V275.199H197.93V253.708Z" fill="white"/>
<path d="M113.359 253.708H111.699V275.199H113.359V253.708Z" fill="white"/>
<path d="M141.551 253.708H139.891V275.199H141.551V253.708Z" fill="white"/>
<path d="M170.172 253.708H168.512V275.199H170.172V253.708Z" fill="white"/>
<path d="M197.929 253.708H111.699V255.568H197.929V253.708Z" fill="#F7EED7"/>
<path d="M158.471 257.149H154.801V269.179H158.471V257.149Z" fill="#0053E2"/>
<path d="M154.8 257.149H152.98V274.139H154.8V257.149Z" fill="#4DBDF5"/>
<path d="M153.202 257.149H146.602V274.139H153.202V257.149Z" fill="#001E60"/>
<path d="M197.929 253.708H111.699V255.568H197.929V253.708Z" fill="#F7EED7"/>
<path d="M168.512 257.149L170.172 255.569H168.512V257.149Z" fill="#A9DDF7"/>
<path d="M139.891 257.149L141.551 255.569H139.891V257.149Z" fill="#A9DDF7"/>
<path d="M111.699 257.149L113.349 255.569H111.699V257.149Z" fill="#A9DDF7"/>
<path d="M196.27 257.149L197.93 255.569H196.27V257.149Z" fill="#A9DDF7"/>
<path d="M104.93 193.938H97.3398V209.108H104.93V193.938Z" fill="#0053E2"/>
<path d="M109.879 193.938H103.609V209.108H109.879V193.938Z" fill="#001E60"/>
<path d="M109.88 192.369H97.3398V193.949H109.88V192.369Z" fill="white"/>
<path d="M107.98 227.679V274.139H91.9102V227.429L98.9501 203.349L107.98 227.679Z" fill="#F7EED7"/>
<path d="M74.5925 265.639H138.653C141.023 265.639 142.942 267.559 142.942 269.929V273.889C142.942 274.609 142.352 275.199 141.632 275.199H71.6225C70.9025 275.199 70.3125 274.609 70.3125 273.889V269.929C70.3125 267.559 72.2325 265.639 74.6025 265.639H74.5925Z" fill="#0B6830"/>
<path d="M162.471 265.639H226.531C228.901 265.639 230.821 267.559 230.821 269.929V273.889C230.821 274.609 230.231 275.199 229.511 275.199H159.501C158.781 275.199 158.191 274.609 158.191 273.889V269.929C158.191 267.559 160.111 265.639 162.481 265.639H162.471Z" fill="#0B6830"/>
<path d="M151.912 258.569H147.902V265.569H151.912V258.569Z" fill="#0053E2"/>
</g>
<path style="mix-blend-mode:soft-light" d="M117.062 64.0098L81.332 99.7398V156.52L173.842 64.0098H117.062Z" fill="url(#paint0_linear_14040_43799)"/>
<path style="mix-blend-mode:soft-light" d="M208.482 77.4302L81.332 204.59V253.97L208.482 126.81V77.4302Z" fill="url(#paint1_linear_14040_43799)"/>
<path style="mix-blend-mode:soft-light" d="M208.48 134.97L81.3203 262.13V287.12C81.3203 291.98 85.2603 295.91 90.1103 295.91H94.5903L208.48 182.02V134.97Z" fill="url(#paint2_linear_14040_43799)"/>
<path d="M264.901 360C264.921 359.82 264.931 359.63 264.951 359.44C265.991 346.94 264.851 334.36 261.591 322.26L249.191 276.3C246.701 267.07 236.681 254.46 236.681 230.61C236.681 218.33 236.971 207.52 236.971 207.52C236.971 207.52 215.391 204.03 215.031 233.51C214.661 262.99 214.261 295.3 214.151 304.63C213.881 326.66 195.361 322.77 192.281 359.99H264.911L264.901 360Z" fill="#B8804F"/>
<path d="M79.1435 315.89L67.4935 303.85C63.0835 299.29 55.6135 299.91 52.0035 305.13L49.7735 308.36C43.8335 316.97 47.4335 328.87 57.1535 332.74L65.5935 336.1C70.9535 338.23 77.0735 336.41 80.3835 331.69C83.8135 326.81 83.2935 320.17 79.1435 315.88V315.89Z" fill="#B8804F"/>
<path d="M73.0207 263.18L66.8707 253.84C62.1207 246.63 52.0607 245.36 45.6607 251.16C39.2607 256.97 39.5607 267.13 46.3007 272.55L54.8307 279.41C59.8707 283.62 67.3307 283.14 71.7807 278.31C75.6207 274.15 76.1307 267.91 73.0107 263.18H73.0207Z" fill="#B8804F"/>
<path d="M48.7492 232.831L48.7562 232.838C54.7955 239.029 64.7101 239.151 70.9011 233.112L70.9082 233.105C77.0991 227.066 77.222 217.151 71.1826 210.96L71.1757 210.953C65.1363 204.762 55.2217 204.639 49.0308 210.679L49.0236 210.686C42.8327 216.725 42.7098 226.64 48.7492 232.831Z" fill="#B8804F"/>
</g>
<defs>
<linearGradient id="paint0_linear_14040_43799" x1="83.322" y1="127.63" x2="126.572" y2="82.9198" gradientUnits="userSpaceOnUse">
<stop stop-color="#A9DDF7" stop-opacity="0"/>
<stop offset="1" stop-color="#CBEBFA"/>
</linearGradient>
<linearGradient id="paint1_linear_14040_43799" x1="98.032" y1="214.16" x2="167.682" y2="142.16" gradientUnits="userSpaceOnUse">
<stop stop-color="#A9DDF7" stop-opacity="0"/>
<stop offset="1" stop-color="#CBEBFA"/>
</linearGradient>
<linearGradient id="paint2_linear_14040_43799" x1="195.29" y1="168.44" x2="109.45" y2="259.81" gradientUnits="userSpaceOnUse">
<stop stop-color="#A9DDF7" stop-opacity="0"/>
<stop offset="1" stop-color="#CBEBFA"/>
</linearGradient>
<clipPath id="clip0_14040_43799">
<rect width="289" height="360" fill="white" transform="translate(0.0703125)"/>
</clipPath>
</defs>
</svg>
