<svg width="240" height="250" viewBox="0 0 240 250" fill="none" xmlns="http://www.w3.org/2000/svg">
<g clip-path="url(#clip0_14040_43795)">
<path d="M120.001 250.625C177.737 250.625 224.541 203.821 224.541 146.085C224.541 88.3491 177.737 41.5449 120.001 41.5449C62.2651 41.5449 15.4609 88.3491 15.4609 146.085C15.4609 203.821 62.2651 250.625 120.001 250.625Z" fill="#0053E2"/>
<path d="M120 250.625C170.11 250.625 211.99 215.365 222.18 168.305H17.8203C28.0103 215.365 69.8803 250.625 120 250.625Z" fill="#4DBDF5"/>
<path d="M120.549 199.875C167.499 199.875 205.559 197.005 205.559 193.465C205.559 189.925 167.499 187.055 120.549 187.055C73.5993 187.055 35.5391 189.925 35.5391 193.465C35.5391 197.005 73.5993 199.875 120.549 199.875Z" fill="#001E60"/>
<path d="M232.214 53.4552L168.774 161.365L145.344 137.935L121.914 114.505L229.824 51.0652C231.374 50.1552 233.124 51.9052 232.214 53.4552Z" fill="#C78242"/>
<mask id="mask0_14040_43795" style="mask-type:luminance" maskUnits="userSpaceOnUse" x="121" y="50" width="112" height="112">
<path d="M232.214 53.4552L168.774 161.365L145.344 137.935L121.914 114.505L229.824 51.0652C231.374 50.1552 233.124 51.9052 232.214 53.4552Z" fill="white"/>
</mask>
<g mask="url(#mask0_14040_43795)">
<path d="M254.223 30.1868L127.156 157.254L128.62 158.718L255.687 31.6505L254.223 30.1868Z" fill="#905629"/>
<path d="M248.161 24.1273L121.094 151.194L122.557 152.658L249.625 25.591L248.161 24.1273Z" fill="#905629"/>
<path d="M242.091 18.0643L115.023 145.131L116.487 146.595L243.554 19.528L242.091 18.0643Z" fill="#905629"/>
<path d="M236.024 11.9871L108.957 139.054L110.421 140.518L237.488 13.4508L236.024 11.9871Z" fill="#905629"/>
<path d="M229.95 5.92705L102.883 132.994L104.347 134.458L231.414 7.39076L229.95 5.92705Z" fill="#905629"/>
<path d="M223.899 -0.142779L96.832 126.924L98.2957 128.388L225.363 1.32093L223.899 -0.142779Z" fill="#905629"/>
<path d="M217.825 -6.20284L90.7578 120.864L92.2215 122.328L219.289 -4.73913L217.825 -6.20284Z" fill="#905629"/>
<path d="M211.751 -12.2731L84.6836 114.794L86.1473 116.258L213.214 -10.8094L211.751 -12.2731Z" fill="#905629"/>
<path d="M205.692 -18.343L78.625 108.724L80.0887 110.188L207.156 -16.8793L205.692 -18.343Z" fill="#905629"/>
<path d="M199.626 -24.403L72.5586 102.664L74.0223 104.128L201.089 -22.9393L199.626 -24.403Z" fill="#905629"/>
<path d="M193.551 -30.4728L66.4844 96.5942L67.9481 98.0579L195.015 -29.0091L193.551 -30.4728Z" fill="#905629"/>
<path d="M187.493 -36.5432L60.4258 90.5239L61.8895 91.9876L188.957 -35.0795L187.493 -36.5432Z" fill="#905629"/>
<path d="M320.954 96.9168L193.887 223.984L195.35 225.448L322.418 98.3805L320.954 96.9168Z" fill="#905629"/>
<path d="M314.88 90.8572L187.812 217.924L189.276 219.388L316.343 92.3209L314.88 90.8572Z" fill="#905629"/>
<path d="M308.829 84.7869L181.762 211.854L183.225 213.318L310.293 86.2506L308.829 84.7869Z" fill="#905629"/>
<path d="M302.755 78.7269L175.688 205.794L177.151 207.258L304.218 80.1906L302.755 78.7269Z" fill="#905629"/>
<path d="M296.68 72.657L169.613 199.724L171.077 201.188L298.144 74.1207L296.68 72.657Z" fill="#905629"/>
<path d="M290.63 66.5872L163.562 193.654L165.026 195.118L292.093 68.0509L290.63 66.5872Z" fill="#905629"/>
<path d="M284.555 60.5272L157.488 187.594L158.952 189.058L286.019 61.9909L284.555 60.5272Z" fill="#905629"/>
<path d="M278.481 54.4568L151.414 181.524L152.878 182.988L279.945 55.9205L278.481 54.4568Z" fill="#905629"/>
<path d="M272.423 48.387L145.355 175.454L146.819 176.918L273.886 49.8507L272.423 48.387Z" fill="#905629"/>
<path d="M266.356 42.3269L139.289 169.394L140.753 170.858L267.82 43.7907L266.356 42.3269Z" fill="#905629"/>
<path d="M260.282 36.2571L133.215 163.324L134.679 164.788L261.746 37.7208L260.282 36.2571Z" fill="#905629"/>
<path d="M128.612 30.1872L127.148 31.6509L254.216 158.718L255.679 157.254L128.612 30.1872Z" fill="#905629"/>
<path d="M122.554 36.2614L121.09 37.7251L248.157 164.792L249.621 163.328L122.554 36.2614Z" fill="#905629"/>
<path d="M116.491 42.3283L115.027 43.792L242.094 170.859L243.558 169.395L116.491 42.3283Z" fill="#905629"/>
<path d="M110.413 48.3957L108.949 49.8594L236.016 176.926L237.48 175.463L110.413 48.3957Z" fill="#905629"/>
<path d="M104.358 54.4528L102.895 55.9165L229.962 182.984L231.425 181.52L104.358 54.4528Z" fill="#905629"/>
<path d="M98.2918 60.527L96.8281 61.9907L223.895 189.058L225.359 187.594L98.2918 60.527Z" fill="#905629"/>
<path d="M92.2137 66.5944L90.75 68.0581L217.817 195.125L219.281 193.661L92.2137 66.5944Z" fill="#905629"/>
<path d="M86.159 72.6515L84.6953 74.1152L211.762 201.182L213.226 199.719L86.159 72.6515Z" fill="#905629"/>
<path d="M80.0887 78.7257L78.625 80.1895L205.692 207.257L207.156 205.793L80.0887 78.7257Z" fill="#905629"/>
<path d="M74.0145 84.7931L72.5508 86.2568L199.618 213.324L201.082 211.86L74.0145 84.7931Z" fill="#905629"/>
<path d="M67.9598 90.8605L66.4961 92.3242L193.563 219.391L195.027 217.928L67.9598 90.8605Z" fill="#905629"/>
<path d="M61.8895 96.9245L60.4258 98.3882L187.493 225.455L188.957 223.992L61.8895 96.9245Z" fill="#905629"/>
<path d="M195.343 -36.5433L193.879 -35.0796L320.946 91.9875L322.41 90.5238L195.343 -36.5433Z" fill="#905629"/>
<path d="M189.292 -30.4764L187.828 -29.0127L314.895 98.0544L316.359 96.5907L189.292 -30.4764Z" fill="#905629"/>
<path d="M183.222 -24.4022L181.758 -22.9385L308.825 104.129L310.289 102.665L183.222 -24.4022Z" fill="#905629"/>
<path d="M177.143 -18.3348L175.68 -16.8711L302.747 110.196L304.21 108.732L177.143 -18.3348Z" fill="#905629"/>
<path d="M171.089 -12.2777L169.625 -10.814L296.692 116.253L298.156 114.789L171.089 -12.2777Z" fill="#905629"/>
<path d="M165.018 -6.20346L163.555 -4.73975L290.622 122.327L292.085 120.864L165.018 -6.20346Z" fill="#905629"/>
<path d="M158.944 -0.136069L157.48 1.32764L284.548 128.395L286.011 126.931L158.944 -0.136069Z" fill="#905629"/>
<path d="M152.889 5.93131L151.426 7.39502L278.493 134.462L279.957 132.998L152.889 5.93131Z" fill="#905629"/>
<path d="M146.819 11.9953L145.355 13.459L272.423 140.526L273.886 139.062L146.819 11.9953Z" fill="#905629"/>
<path d="M140.753 18.0627L139.289 19.5264L266.356 146.593L267.82 145.13L140.753 18.0627Z" fill="#905629"/>
<path d="M134.69 24.13L133.227 25.5938L260.294 152.661L261.757 151.197L134.69 24.13Z" fill="#905629"/>
<path d="M134.961 148.455L249.301 33.4854L168.811 179.235L134.961 148.455Z" fill="#905629"/>
<path d="M251.508 30.1902L124.441 157.257L125.905 158.721L252.972 31.654L251.508 30.1902Z" fill="#C78242"/>
<path d="M245.434 24.1302L118.367 151.197L119.831 152.661L246.898 25.5939L245.434 24.1302Z" fill="#C78242"/>
<path d="M239.376 18.0604L112.309 145.127L113.772 146.591L240.839 19.5241L239.376 18.0604Z" fill="#C78242"/>
<path d="M233.301 11.9905L106.234 139.058L107.698 140.521L234.765 13.4543L233.301 11.9905Z" fill="#C78242"/>
<path d="M227.235 5.93046L100.168 132.998L101.632 134.461L228.699 7.39417L227.235 5.93046Z" fill="#C78242"/>
<path d="M221.176 -0.139361L94.1094 126.928L95.5731 128.391L222.64 1.32435L221.176 -0.139361Z" fill="#C78242"/>
<path d="M215.102 -6.20967L88.0352 120.857L89.4989 122.321L216.566 -4.74596L215.102 -6.20967Z" fill="#C78242"/>
<path d="M209.036 -12.2697L81.9688 114.797L83.4325 116.261L210.5 -10.806L209.036 -12.2697Z" fill="#C78242"/>
<path d="M202.977 -18.3395L75.9102 108.728L77.3739 110.191L204.441 -16.8758L202.977 -18.3395Z" fill="#C78242"/>
<path d="M196.903 -24.4094L69.8359 102.658L71.2996 104.121L198.367 -22.9457L196.903 -24.4094Z" fill="#C78242"/>
<path d="M190.829 -30.4694L63.7617 96.5977L65.2254 98.0614L192.293 -29.0057L190.829 -30.4694Z" fill="#C78242"/>
<path d="M184.778 -36.5398L57.7109 90.5273L59.1746 91.9911L186.242 -35.076L184.778 -36.5398Z" fill="#C78242"/>
<path d="M318.239 96.9202L191.172 223.987L192.636 225.451L319.703 98.3839L318.239 96.9202Z" fill="#C78242"/>
<path d="M312.165 90.8607L185.098 217.928L186.561 219.391L313.628 92.3244L312.165 90.8607Z" fill="#C78242"/>
<path d="M306.106 84.7903L179.039 211.857L180.503 213.321L307.57 86.254L306.106 84.7903Z" fill="#C78242"/>
<path d="M300.032 78.7205L172.965 205.788L174.429 207.251L301.496 80.1842L300.032 78.7205Z" fill="#C78242"/>
<path d="M293.966 72.6605L166.898 199.728L168.362 201.191L295.429 74.1242L293.966 72.6605Z" fill="#C78242"/>
<path d="M287.907 66.5906L160.84 193.658L162.304 195.121L289.371 68.0543L287.907 66.5906Z" fill="#C78242"/>
<path d="M281.833 60.5203L154.766 187.587L156.229 189.051L283.296 61.984L281.833 60.5203Z" fill="#C78242"/>
<path d="M275.759 54.4602L148.691 181.527L150.155 182.991L277.222 55.924L275.759 54.4602Z" fill="#C78242"/>
<path d="M269.708 48.3904L142.641 175.458L144.104 176.921L271.171 49.8541L269.708 48.3904Z" fill="#C78242"/>
<path d="M263.634 42.3206L136.566 169.388L138.03 170.851L265.097 43.7843L263.634 42.3206Z" fill="#C78242"/>
<path d="M257.567 36.2532L130.5 163.32L131.964 164.784L259.031 37.7169L257.567 36.2532Z" fill="#C78242"/>
<path d="M125.897 30.1906L124.434 31.6543L251.501 158.721L252.964 157.258L125.897 30.1906Z" fill="#C78242"/>
<path d="M119.835 36.2575L118.371 37.7212L245.438 164.788L246.902 163.325L119.835 36.2575Z" fill="#C78242"/>
<path d="M113.764 42.3317L112.301 43.7954L239.368 170.862L240.832 169.399L113.764 42.3317Z" fill="#C78242"/>
<path d="M107.698 48.3893L106.234 49.853L233.301 176.92L234.765 175.456L107.698 48.3893Z" fill="#C78242"/>
<path d="M101.636 54.4562L100.172 55.9199L227.239 182.987L228.703 181.523L101.636 54.4562Z" fill="#C78242"/>
<path d="M95.5653 60.5304L94.1016 61.9941L221.169 189.061L222.632 187.598L95.5653 60.5304Z" fill="#C78242"/>
<path d="M89.4989 66.5881L88.0352 68.0518L215.102 195.119L216.566 193.655L89.4989 66.5881Z" fill="#C78242"/>
<path d="M83.4364 72.6549L81.9727 74.1187L209.04 201.186L210.503 199.722L83.4364 72.6549Z" fill="#C78242"/>
<path d="M77.366 78.7292L75.9023 80.1929L202.969 207.26L204.433 205.796L77.366 78.7292Z" fill="#C78242"/>
<path d="M71.2997 84.7965L69.8359 86.2603L196.903 213.327L198.367 211.864L71.2997 84.7965Z" fill="#C78242"/>
<path d="M65.2332 90.8537L63.7695 92.3174L190.837 219.384L192.3 217.921L65.2332 90.8537Z" fill="#C78242"/>
<path d="M59.1746 96.9279L57.7109 98.3916L184.778 225.459L186.242 223.995L59.1746 96.9279Z" fill="#C78242"/>
<path d="M192.628 -36.5399L191.164 -35.0762L318.231 91.9909L319.695 90.5272L192.628 -36.5399Z" fill="#C78242"/>
<path d="M186.565 -30.473L185.102 -29.0093L312.169 98.0578L313.632 96.5941L186.565 -30.473Z" fill="#C78242"/>
<path d="M180.495 -24.3988L179.031 -22.9351L306.098 104.132L307.562 102.668L180.495 -24.3988Z" fill="#C78242"/>
<path d="M174.429 -18.3412L172.965 -16.8774L300.032 110.19L301.496 108.726L174.429 -18.3412Z" fill="#C78242"/>
<path d="M168.366 -12.2743L166.902 -10.8105L293.969 116.257L295.433 114.793L168.366 -12.2743Z" fill="#C78242"/>
<path d="M162.296 -6.20004L160.832 -4.73633L287.899 122.331L289.363 120.867L162.296 -6.20004Z" fill="#C78242"/>
<path d="M156.229 -0.132651L154.766 1.33105L281.833 128.398L283.296 126.934L156.229 -0.132651Z" fill="#C78242"/>
<path d="M150.167 5.92448L148.703 7.38818L275.77 134.455L277.234 132.992L150.167 5.92448Z" fill="#C78242"/>
<path d="M144.104 11.9987L142.641 13.4624L269.708 140.529L271.171 139.066L144.104 11.9987Z" fill="#C78242"/>
<path d="M138.034 18.0587L136.57 19.5225L263.637 146.59L265.101 145.126L138.034 18.0587Z" fill="#C78242"/>
<path d="M131.964 24.1232L130.5 25.5869L257.567 152.654L259.031 151.19L131.964 24.1232Z" fill="#C78242"/>
</g>
<path d="M111.454 182.095C118.464 182.095 123.144 184.335 126.294 187.485C121.774 182.965 128.244 178.055 123.484 173.295C122.294 172.105 121.034 171.205 119.824 170.535C118.434 169.765 117.694 168.215 117.864 166.635C117.994 165.465 118.054 164.285 118.054 163.085C118.054 149.925 110.344 138.565 99.2039 133.265C98.9539 132.705 98.7439 132.095 98.5939 131.455C98.0539 129.125 98.5439 126.745 99.4439 124.835C96.7639 124.835 94.4539 126.445 93.4239 128.735C91.9839 125.095 88.4339 122.515 84.2839 122.515C80.5739 122.515 77.3439 124.575 75.6739 127.615C74.1839 130.325 72.0239 132.575 69.3039 134.045C59.0039 139.635 52.0039 150.535 52.0039 163.085C52.0039 173.265 56.6139 182.375 63.8539 188.435C58.9539 188.625 52.0039 189.085 52.0039 190.185C52.0039 191.875 69.0139 191.845 67.3939 193.455C65.5439 195.305 80.3739 196.065 89.3639 196.065C98.3539 196.065 94.9339 196.065 101.994 196.065C109.414 196.065 117.634 195.785 124.624 195.385C123.364 185.225 111.454 182.085 111.454 182.085V182.095Z" fill="#F4BDD3"/>
<path d="M166.543 189.515C166.543 189.515 166.623 189.515 166.663 189.515C166.773 189.335 166.873 189.155 166.983 188.985L166.543 189.525V189.515Z" fill="#FCE9F5"/>
<path d="M124.623 195.395C133.673 194.875 140.673 194.165 141.243 193.595C141.403 193.435 141.363 193.215 141.193 192.955C134.903 192.505 130.123 191.325 126.293 187.495C123.133 184.335 118.463 182.105 111.453 182.105C111.453 182.105 123.363 185.245 124.623 195.405V195.395Z" fill="#001E60"/>
<path d="M118.448 201.159L113.312 201.911C112.411 202.043 111.787 202.881 111.919 203.782C112.051 204.684 112.889 205.308 113.79 205.176L118.926 204.424C119.827 204.292 120.451 203.454 120.319 202.553C120.187 201.651 119.349 201.027 118.448 201.159Z" fill="#FEF6DE"/>
<path d="M78.8808 183.309L73.7725 182.391C72.8755 182.23 72.0179 182.827 71.8568 183.724C71.6958 184.621 72.2923 185.478 73.1892 185.639L78.2975 186.557C79.1944 186.718 80.0521 186.121 80.2132 185.224C80.3742 184.327 79.7777 183.47 78.8808 183.309Z" fill="#FBE298"/>
<path d="M86.7228 178.235H81.5328C80.6215 178.235 79.8828 178.974 79.8828 179.885C79.8828 180.797 80.6215 181.535 81.5328 181.535H86.7228C87.6341 181.535 88.3728 180.797 88.3728 179.885C88.3728 178.974 87.6341 178.235 86.7228 178.235Z" fill="#A9DDF7"/>
<path d="M71.9241 186.147L66.7888 186.899C65.8872 187.031 65.2633 187.869 65.3953 188.771C65.5273 189.672 66.3653 190.296 67.2669 190.164L72.4022 189.412C73.3038 189.28 73.9277 188.442 73.7957 187.541C73.6637 186.639 72.8257 186.015 71.9241 186.147Z" fill="#FEF6DE"/>
<path d="M60.0642 177.782L55.5696 175.187C54.7804 174.732 53.7713 175.002 53.3156 175.791C52.86 176.58 53.1304 177.59 53.9196 178.045L58.4142 180.64C59.2034 181.096 60.2125 180.825 60.6682 180.036C61.1238 179.247 60.8534 178.238 60.0642 177.782Z" fill="#FF765F"/>
<path d="M55.5216 170.31L52.9266 165.816C52.4709 165.026 51.4618 164.756 50.6726 165.212C49.8834 165.667 49.613 166.676 50.0687 167.466L52.6637 171.96C53.1193 172.75 54.1284 173.02 54.9176 172.564C55.7068 172.109 55.9772 171.1 55.5216 170.31Z" fill="#FBE298"/>
<path d="M67.197 173.161L62.7024 170.566C61.9132 170.111 60.9041 170.381 60.4484 171.17C59.9928 171.959 60.2632 172.968 61.0524 173.424L65.5471 176.019C66.3362 176.475 67.3454 176.204 67.801 175.415C68.2566 174.626 67.9862 173.617 67.197 173.161Z" fill="#D2E5A1"/>
<path d="M148.184 201.515H142.994C142.082 201.515 141.344 202.254 141.344 203.165C141.344 204.076 142.082 204.815 142.994 204.815H148.184C149.095 204.815 149.834 204.076 149.834 203.165C149.834 202.254 149.095 201.515 148.184 201.515Z" fill="#A9DDF7"/>
<path d="M133.242 205.065H128.052C127.141 205.065 126.402 205.804 126.402 206.715C126.402 207.627 127.141 208.365 128.052 208.365H133.242C134.154 208.365 134.892 207.627 134.892 206.715C134.892 205.804 134.154 205.065 133.242 205.065Z" fill="#FF765F"/>
<path d="M144.205 206.931L139.097 206.014C138.2 205.853 137.342 206.449 137.181 207.346C137.02 208.243 137.617 209.101 138.513 209.262L143.622 210.179C144.519 210.34 145.376 209.744 145.537 208.847C145.698 207.95 145.102 207.092 144.205 206.931Z" fill="#F4BDD3"/>
<path d="M61.4259 203.165H56.2359C55.3247 203.165 54.5859 203.904 54.5859 204.815C54.5859 205.726 55.3247 206.465 56.2359 206.465H61.4259C62.3372 206.465 63.0759 205.726 63.0759 204.815C63.0759 203.904 62.3372 203.165 61.4259 203.165Z" fill="#D2E5A1"/>
<path d="M71.2245 202.247L66.1162 201.329C65.2193 201.168 64.3616 201.765 64.2006 202.662C64.0395 203.559 64.636 204.416 65.533 204.577L70.6413 205.495C71.5382 205.656 72.3958 205.059 72.5569 204.162C72.718 203.265 72.1214 202.408 71.2245 202.247Z" fill="#A9DDF7"/>
<path d="M97.0525 193.125C104.365 193.125 110.292 187.197 110.292 179.885C110.292 172.573 104.365 166.645 97.0525 166.645C89.7402 166.645 83.8125 172.573 83.8125 179.885C83.8125 187.197 89.7402 193.125 97.0525 193.125Z" fill="#ED2100"/>
<path d="M99.4752 170.005C99.4752 170.925 98.7352 171.665 97.8152 171.665C93.2852 171.665 89.6052 175.345 89.6052 179.875C89.6052 180.795 88.8652 181.535 87.9452 181.535C87.0252 181.535 86.2852 180.795 86.2852 179.875C86.2852 173.515 91.4652 168.335 97.8252 168.335C98.7452 168.335 99.4852 169.075 99.4852 169.995L99.4752 170.005Z" fill="#FF765F"/>
<path d="M91.3337 183.875C91.3337 183.875 80.8637 185.315 74.3438 196.285" stroke="#A51F0A" stroke-width="1.62" stroke-miterlimit="10" stroke-linecap="round"/>
<path d="M104.602 169.005C106.092 171.145 106.962 173.745 106.962 176.555C106.962 183.865 101.032 189.795 93.7219 189.795C90.9119 189.795 88.3119 188.915 86.1719 187.435C88.5619 190.875 92.5419 193.125 97.0419 193.125C104.352 193.125 110.282 187.195 110.282 179.885C110.282 175.375 108.032 171.405 104.592 169.015L104.602 169.005Z" fill="#A51F0A"/>
<path d="M111.453 182.095C101.993 182.095 97.4433 193.465 84.1133 193.465H111.453V182.095Z" fill="#F4BDD3"/>
<path d="M111.742 188.025L106.712 186.746C105.829 186.521 104.931 187.055 104.707 187.938C104.482 188.821 105.016 189.719 105.899 189.944L110.929 191.223C111.812 191.448 112.71 190.914 112.935 190.031C113.159 189.148 112.625 188.249 111.742 188.025Z" fill="#A9DDF7"/>
<path d="M119.991 189.784L114.855 190.536C113.954 190.668 113.33 191.506 113.462 192.408C113.594 193.31 114.432 193.934 115.333 193.802L120.469 193.05C121.37 192.918 121.994 192.08 121.862 191.178C121.73 190.276 120.892 189.652 119.991 189.784Z" fill="#FBE298"/>
<path d="M100.108 190.388L94.9724 191.14C94.0708 191.272 93.4469 192.11 93.5789 193.012C93.7109 193.914 94.5489 194.538 95.4505 194.406L100.586 193.654C101.487 193.522 102.111 192.684 101.979 191.782C101.847 190.88 101.009 190.256 100.108 190.388Z" fill="#D2E5A1"/>
<path d="M117.873 166.645C118.003 165.475 118.063 164.295 118.063 163.095C118.063 150.545 111.053 139.635 100.743 134.055C100.743 134.055 100.713 134.045 100.703 134.035C100.673 134.015 100.643 134.005 100.613 133.985C100.153 133.735 99.6834 133.495 99.2134 133.265C98.9634 132.705 98.7534 132.095 98.6034 131.455C98.0634 129.125 98.5534 126.745 99.4534 124.835C96.8034 124.835 94.5134 126.415 93.4634 128.675C93.0034 130.035 93.0234 131.365 93.0634 131.925C90.7734 131.795 89.0234 131.995 89.0234 131.995C110.493 139.205 114.303 160.415 113.223 161.485C112.143 162.555 107.343 158.575 107.343 161.255C107.343 163.935 112.853 166.545 119.823 170.545C118.433 169.775 117.693 168.225 117.863 166.645H117.873Z" fill="#F59CC0"/>
<path d="M167.232 188.725C166.412 185.975 164.352 183.745 161.712 182.695C160.682 182.285 159.992 181.265 160.082 180.155C160.182 178.825 161.302 177.825 162.612 177.845C162.672 177.845 162.732 177.845 162.802 177.845C170.162 177.845 176.122 171.885 176.122 164.525C176.122 150.195 151.482 149.095 151.482 138.075C151.482 133.675 148.992 129.865 145.352 127.955C143.032 126.745 141.812 124.775 141.812 121.035C141.812 116.575 138.362 113.965 134.452 113.745C134.332 113.745 134.212 113.735 134.092 113.735C131.282 113.705 128.552 112.835 126.312 111.145C123.892 109.325 120.872 108.235 117.612 108.235C111.362 108.235 106.032 112.195 104.002 117.755C103.402 119.395 102.502 120.915 101.282 122.165C100.622 122.835 99.9823 123.755 99.4823 124.825C98.8623 126.125 98.4423 127.655 98.4023 129.235C98.4023 129.255 98.4023 129.275 98.4023 129.305C98.4023 129.425 98.4023 129.545 98.4023 129.655C98.4023 129.675 98.4023 129.695 98.4023 129.715C98.4023 129.855 98.4123 129.985 98.4223 130.125C98.4223 130.125 98.4223 130.145 98.4223 130.155C98.4223 130.275 98.4423 130.395 98.4623 130.525C98.4623 130.565 98.4623 130.605 98.4823 130.645C98.4923 130.745 98.5123 130.845 98.5223 130.935C98.5223 130.975 98.5323 131.015 98.5423 131.055C98.5623 131.185 98.5923 131.315 98.6223 131.445C98.6623 131.615 98.7123 131.785 98.7523 131.955C98.7723 132.025 98.7923 132.095 98.8223 132.165C98.8523 132.255 98.8823 132.345 98.9123 132.435C98.9423 132.525 98.9723 132.615 99.0123 132.695C99.0323 132.765 99.0623 132.825 99.0923 132.895C99.1423 133.015 99.1923 133.135 99.2423 133.255C110.382 138.565 118.092 149.915 118.092 163.075C118.092 164.285 118.022 165.475 117.902 166.655C117.732 168.235 118.502 169.765 119.892 170.545C121.102 171.215 122.352 172.105 123.532 173.295C128.282 178.055 121.822 182.965 126.342 187.485C126.502 187.645 126.652 187.795 126.812 187.935C126.852 187.975 126.902 188.015 126.952 188.055C127.062 188.155 127.182 188.265 127.292 188.365C127.352 188.415 127.412 188.455 127.462 188.505C127.572 188.595 127.672 188.685 127.782 188.765C127.842 188.815 127.912 188.865 127.972 188.905C128.072 188.985 128.182 189.065 128.282 189.135C128.352 189.185 128.412 189.225 128.482 189.275C128.582 189.345 128.692 189.425 128.792 189.495C128.862 189.545 128.932 189.585 129.002 189.625C129.102 189.695 129.212 189.765 129.312 189.825C129.382 189.865 129.452 189.905 129.522 189.945C129.632 190.005 129.732 190.075 129.842 190.135C129.912 190.175 129.982 190.215 130.052 190.255C130.162 190.315 130.272 190.375 130.382 190.435C130.452 190.475 130.522 190.505 130.602 190.545C130.712 190.605 130.822 190.655 130.942 190.705C131.012 190.735 131.092 190.775 131.162 190.805C131.272 190.855 131.392 190.905 131.502 190.955C131.572 190.985 131.652 191.015 131.722 191.045C131.842 191.095 131.952 191.145 132.072 191.185C132.142 191.215 132.222 191.245 132.292 191.265C132.412 191.315 132.532 191.355 132.662 191.395C132.732 191.425 132.812 191.445 132.892 191.475C133.012 191.515 133.142 191.555 133.262 191.595C133.342 191.615 133.412 191.645 133.492 191.665C133.622 191.705 133.742 191.745 133.872 191.775C133.952 191.795 134.022 191.815 134.102 191.835C134.232 191.875 134.362 191.905 134.492 191.935C134.572 191.955 134.652 191.975 134.722 191.995C134.852 192.025 134.992 192.065 135.132 192.095C135.162 192.095 135.192 192.105 135.222 192.115C138.532 192.855 142.362 193.045 146.832 193.165C154.022 193.345 149.892 194.405 150.522 195.035C151.152 195.665 154.022 196.125 162.992 196.125C168.552 196.125 175.292 194.875 175.292 193.435C175.292 192.855 172.852 192.285 170.732 191.895C169.052 191.585 167.742 190.335 167.252 188.705L167.232 188.725Z" fill="#FCE9F5"/>
<path d="M140.604 167.672L135.694 169.354C134.832 169.649 134.372 170.588 134.668 171.45C134.963 172.312 135.901 172.771 136.763 172.476L141.673 170.794C142.535 170.499 142.995 169.56 142.699 168.698C142.404 167.836 141.466 167.377 140.604 167.672Z" fill="#A9DDF7"/>
<path d="M149.867 171.823L144.689 171.467C143.78 171.405 142.992 172.091 142.93 173C142.867 173.909 143.554 174.697 144.463 174.759L149.641 175.115C150.55 175.177 151.337 174.491 151.4 173.582C151.462 172.673 150.776 171.885 149.867 171.823Z" fill="#F4BDD3"/>
<path d="M170.748 173.387L165.957 175.381C165.116 175.731 164.717 176.697 165.068 177.538C165.418 178.38 166.384 178.778 167.225 178.428L172.017 176.433C172.858 176.083 173.256 175.117 172.906 174.276C172.556 173.434 171.59 173.036 170.748 173.387Z" fill="#FBE298"/>
<path d="M135.334 181.876L130.199 182.628C129.297 182.76 128.673 183.598 128.805 184.499C128.937 185.401 129.775 186.025 130.677 185.893L135.812 185.141C136.714 185.009 137.338 184.171 137.206 183.269C137.074 182.368 136.236 181.744 135.334 181.876Z" fill="#D2E5A1"/>
<path d="M158.502 188.252L153.394 187.335C152.497 187.174 151.639 187.771 151.478 188.667C151.317 189.564 151.913 190.422 152.81 190.583L157.919 191.5C158.816 191.661 159.673 191.065 159.834 190.168C159.995 189.271 159.399 188.413 158.502 188.252Z" fill="#FF765F"/>
</g>
<defs>
<clipPath id="clip0_14040_43795">
<rect width="240" height="250" fill="white"/>
</clipPath>
</defs>
</svg>
