<svg width="289" height="360" viewBox="0 0 289 360" fill="none" xmlns="http://www.w3.org/2000/svg">
<g clip-path="url(#clip0_14040_43797)">
<path d="M289.919 0H0.789062V360H289.919V0Z" fill="#0053E2"/>
<path d="M276.259 195.73V30.7498H142.539V25.5098L137.289 30.7498V200.97H276.259L281.499 195.73H276.259Z" fill="#001E60"/>
<path d="M281.499 25.5098H142.539V195.72H281.499V25.5098Z" fill="#0053E2"/>
<mask id="mask0_14040_43797" style="mask-type:luminance" maskUnits="userSpaceOnUse" x="150" y="34" width="124" height="154">
<path d="M273.54 34.0898H150.5V187.16H273.54V34.0898Z" fill="white"/>
</mask>
<g mask="url(#mask0_14040_43797)">
<path d="M282 34.0898H150.5V187.16H282V34.0898Z" fill="#CBEBFA"/>
<path opacity="0.3" d="M146.469 91.91V87.18H150.339V91.91C150.339 91.91 151.949 92.66 151.949 91.91V75.47H162.479V76.76H164.089V78.37H167.739V93.41H169.999V84.44H175.049V78.37H176.549V76.97H179.089V70.25H182.599V76.89H183.519V80.27H185.059V88.57H186.969V92.81H189.059V82.85H193.669V78.42H198.839V89.25H201.789V78.42H204.069V74.36H208.989V89.06H213.359V82.97L214.219 77.68H217.229L218.089 82.97V88.57H220.669V74.98H221.649V72.52H223.369L223.979 74.98H225.029V85.87H228.539V87.41H230.019V81.83H235.059V91.72H237.889V78.31H242.259V82.37H243.549V84.58H244.529V90.85C244.529 90.85 252.339 90.91 252.339 90.85V81.32H256.459V83.29H259.349V85.69H260.329V150.78H146.449V91.91H146.469Z" fill="url(#paint0_linear_14040_43797)"/>
<path d="M238.641 157.28H218.891V188.02H238.641V157.28Z" fill="#1FA1DB"/>
<path d="M214.277 105.61H190.438V111.83H214.277V105.61Z" fill="#1FA1DB"/>
<path d="M223.428 110.62H182.828V187.16H223.428V110.62Z" fill="#59BEEA"/>
<g opacity="0.5">
<path d="M170.309 118.87H167.379V125.03H170.309V118.87Z" fill="#A9DDF7"/>
<path d="M176.809 118.87H173.879V125.03H176.809V118.87Z" fill="#A9DDF7"/>
<path d="M183.309 118.87H180.379V125.03H183.309V118.87Z" fill="#A9DDF7"/>
<path d="M189.809 118.87H186.879V125.03H189.809V118.87Z" fill="#A9DDF7"/>
<path d="M196.309 118.87H193.379V125.03H196.309V118.87Z" fill="#A9DDF7"/>
<path d="M202.809 118.87H199.879V125.03H202.809V118.87Z" fill="#A9DDF7"/>
<path d="M209.309 118.87H206.379V125.03H209.309V118.87Z" fill="#A9DDF7"/>
<path d="M170.309 129.18H167.379V135.34H170.309V129.18Z" fill="#A9DDF7"/>
<path d="M176.809 129.18H173.879V135.34H176.809V129.18Z" fill="#A9DDF7"/>
<path d="M183.309 129.18H180.379V135.34H183.309V129.18Z" fill="#A9DDF7"/>
<path d="M189.809 129.18H186.879V135.34H189.809V129.18Z" fill="#A9DDF7"/>
<path d="M196.309 129.18H193.379V135.34H196.309V129.18Z" fill="#A9DDF7"/>
<path d="M202.809 129.18H199.879V135.34H202.809V129.18Z" fill="#A9DDF7"/>
<path d="M209.309 129.18H206.379V135.34H209.309V129.18Z" fill="#A9DDF7"/>
<path d="M170.309 139.49H167.379V145.65H170.309V139.49Z" fill="#A9DDF7"/>
<path d="M176.809 139.49H173.879V145.65H176.809V139.49Z" fill="#A9DDF7"/>
<path d="M183.309 139.49H180.379V145.65H183.309V139.49Z" fill="#A9DDF7"/>
<path d="M189.809 139.49H186.879V145.65H189.809V139.49Z" fill="#A9DDF7"/>
<path d="M196.309 139.49H193.379V145.65H196.309V139.49Z" fill="#A9DDF7"/>
<path d="M202.809 139.49H199.879V145.65H202.809V139.49Z" fill="#A9DDF7"/>
<path d="M209.309 139.49H206.379V145.65H209.309V139.49Z" fill="#A9DDF7"/>
<path d="M170.309 149.8H167.379V155.96H170.309V149.8Z" fill="#A9DDF7"/>
<path d="M176.809 149.8H173.879V155.96H176.809V149.8Z" fill="#A9DDF7"/>
<path d="M183.309 149.8H180.379V155.96H183.309V149.8Z" fill="#A9DDF7"/>
<path d="M189.809 149.8H186.879V155.96H189.809V149.8Z" fill="#A9DDF7"/>
<path d="M196.309 149.8H193.379V155.96H196.309V149.8Z" fill="#A9DDF7"/>
<path d="M202.809 149.8H199.879V155.96H202.809V149.8Z" fill="#A9DDF7"/>
<path d="M209.309 149.8H206.379V155.96H209.309V149.8Z" fill="#A9DDF7"/>
<path d="M170.309 160.1H167.379V166.26H170.309V160.1Z" fill="#A9DDF7"/>
<path d="M176.809 160.1H173.879V166.26H176.809V160.1Z" fill="#A9DDF7"/>
<path d="M183.309 160.1H180.379V166.26H183.309V160.1Z" fill="#A9DDF7"/>
<path d="M189.809 160.1H186.879V166.26H189.809V160.1Z" fill="#A9DDF7"/>
<path d="M196.309 160.1H193.379V166.26H196.309V160.1Z" fill="#A9DDF7"/>
<path d="M202.809 160.1H199.879V166.26H202.809V160.1Z" fill="#A9DDF7"/>
<path d="M209.309 160.1H206.379V166.26H209.309V160.1Z" fill="#A9DDF7"/>
</g>
<g opacity="0.5">
<path d="M170.309 170.26H167.379V176.42H170.309V170.26Z" fill="#A9DDF7"/>
<path d="M176.809 170.26H173.879V176.42H176.809V170.26Z" fill="#A9DDF7"/>
<path d="M183.309 170.26H180.379V176.42H183.309V170.26Z" fill="#A9DDF7"/>
<path d="M189.809 170.26H186.879V176.42H189.809V170.26Z" fill="#A9DDF7"/>
<path d="M196.309 170.26H193.379V176.42H196.309V170.26Z" fill="#A9DDF7"/>
<path d="M202.809 170.26H199.879V176.42H202.809V170.26Z" fill="#A9DDF7"/>
<path d="M209.309 170.26H206.379V176.42H209.309V170.26Z" fill="#A9DDF7"/>
<path d="M170.309 180.57H167.379V186.73H170.309V180.57Z" fill="#A9DDF7"/>
<path d="M176.809 180.57H173.879V186.73H176.809V180.57Z" fill="#A9DDF7"/>
<path d="M183.309 180.57H180.379V186.73H183.309V180.57Z" fill="#A9DDF7"/>
<path d="M189.809 180.57H186.879V186.73H189.809V180.57Z" fill="#A9DDF7"/>
<path d="M196.309 180.57H193.379V186.73H196.309V180.57Z" fill="#A9DDF7"/>
<path d="M202.809 180.57H199.879V186.73H202.809V180.57Z" fill="#A9DDF7"/>
<path d="M209.309 180.57H206.379V186.73H209.309V180.57Z" fill="#A9DDF7"/>
</g>
<path d="M223.43 110.62H214.32V190.28H223.43V110.62Z" fill="#1FA1DB"/>
<path d="M209.137 105.61H190.438V111.83H209.137V105.61Z" fill="#59BEEA"/>
<path d="M203.967 99.4897H190.438V105.71H203.967V99.4897Z" fill="#1FA1DB"/>
<path d="M200.298 99.4897H190.438V105.71H200.298V99.4897Z" fill="#59BEEA"/>
<path d="M172.01 99.8997V91.9297H150.5V99.8997V187.28H180.76V99.8997H172.01Z" fill="#C3E7F9"/>
<path d="M288.328 65.6499H236.328V240.47H288.328V65.6499Z" fill="#4DBDF5"/>
<path d="M297.148 60.1396H288.318H236.318H227.488L229.808 65.6497L236.328 68.7197V81.8297H288.318V68.7197L294.828 65.6497L297.148 60.1396Z" fill="#1FA1DB"/>
<path d="M254.97 93.1997H244.07V111.53H254.97V93.1997Z" fill="#1FA1DB"/>
<path d="M254.978 95.6299H246.398V111.54H254.978V95.6299Z" fill="#4DBDF5"/>
<path d="M256.989 88.1099H242.059V89.2899C242.839 90.1499 242.729 91.1299 242.729 91.1299V93.2099H256.329V91.1299C256.329 91.1299 256.209 90.1499 256.999 89.2899V88.1099H256.989Z" fill="#74C8ED"/>
<path d="M255.96 111.54H243.07V113.15H255.96V111.54Z" fill="#74C8ED"/>
<path d="M280.4 93.1997H269.5V111.53H280.4V93.1997Z" fill="#1FA1DB"/>
<path d="M280.4 95.6299H271.82V111.54H280.4V95.6299Z" fill="#4DBDF5"/>
<path d="M282.418 88.1099H267.488V89.2899C268.268 90.1499 268.158 91.1299 268.158 91.1299V93.2099H281.758V91.1299C281.758 91.1299 281.638 90.1499 282.428 89.2899V88.1099H282.418Z" fill="#74C8ED"/>
<path d="M281.39 111.54H268.5V113.15H281.39V111.54Z" fill="#74C8ED"/>
<path d="M254.848 126.01H244.188V151.23H254.848V126.01Z" fill="#4DBDF5"/>
<path d="M256.989 120.92H242.059V122.1C242.839 122.96 242.729 123.94 242.729 123.94V126.02H256.329V123.94C256.329 123.94 256.209 122.96 256.999 122.1V120.92H256.989Z" fill="#74C8ED"/>
<path d="M255.967 151.23H243.137V152.84H255.967V151.23Z" fill="#74C8ED"/>
<path d="M254.97 128.44V126.01H244.07V151.23H246.4V128.44H254.97Z" fill="#1FA1DB"/>
<path d="M280.398 126.01H269.738V151.23H280.398V126.01Z" fill="#4DBDF5"/>
<path d="M282.539 120.92H267.609V122.1C268.389 122.96 268.279 123.94 268.279 123.94V126.02H281.879V123.94C281.879 123.94 281.759 122.96 282.549 122.1V120.92H282.539Z" fill="#74C8ED"/>
<path d="M281.519 151.23H268.629V152.84H281.519V151.23Z" fill="#74C8ED"/>
<path d="M280.521 128.44V126.01H269.621V151.23H271.951V128.44H280.521Z" fill="#1FA1DB"/>
<path d="M254.848 170.42H244.188V203.19H254.848V170.42Z" fill="#4DBDF5"/>
<path d="M256.989 165.33H242.059V166.51C242.839 167.37 242.729 168.35 242.729 168.35V170.43H256.329V168.35C256.329 168.35 256.209 167.37 256.999 166.51V165.33H256.989Z" fill="#74C8ED"/>
<path d="M280.398 170.42H269.738V203.19H280.398V170.42Z" fill="#74C8ED"/>
<path d="M282.539 165.33H267.609V166.51C268.389 167.37 268.279 168.35 268.279 168.35V170.43H281.879V168.35C281.879 168.35 281.759 167.37 282.549 166.51V165.33H282.539Z" fill="#74C8ED"/>
<path d="M280.521 172.85V170.42H269.621V203.19H271.951V172.85H280.521Z" fill="#1FA1DB"/>
<path d="M255.087 172.85V170.42H244.188V203.19H246.508V172.85H255.087Z" fill="#1FA1DB"/>
<path d="M258.86 101.05H258.23V113.76H258.86V101.05Z" fill="#1FA1DB"/>
<path d="M260.661 101.05H260.031V113.76H260.661V101.05Z" fill="#1FA1DB"/>
<path d="M262.45 101.05H261.82V113.76H262.45V101.05Z" fill="#1FA1DB"/>
<path d="M264.251 101.05H263.621V113.76H264.251V101.05Z" fill="#1FA1DB"/>
<path d="M266.04 101.05H265.41V113.76H266.04V101.05Z" fill="#1FA1DB"/>
<path d="M267.841 101.05H267.211V113.76H267.841V101.05Z" fill="#1FA1DB"/>
<path d="M269.63 101.05H269V113.76H269.63V101.05Z" fill="#1FA1DB"/>
<path d="M271.431 101.05H270.801V113.76H271.431V101.05Z" fill="#1FA1DB"/>
<path d="M273.22 101.05H272.59V113.76H273.22V101.05Z" fill="#1FA1DB"/>
<path d="M280.4 100.75H258.23V101.37H280.4V100.75Z" fill="#1FA1DB"/>
<path d="M280.4 113.14H258.23V114.83H280.4V113.14Z" fill="#1FA1DB"/>
<path d="M227.599 140.75H226.969V153.46H227.599V140.75Z" fill="#1FA1DB"/>
<path d="M229.4 140.75H228.77V153.46H229.4V140.75Z" fill="#1FA1DB"/>
<path d="M231.189 140.75H230.559V153.46H231.189V140.75Z" fill="#1FA1DB"/>
<path d="M232.989 140.75H232.359V153.46H232.989V140.75Z" fill="#1FA1DB"/>
<path d="M234.778 140.75H234.148V153.46H234.778V140.75Z" fill="#1FA1DB"/>
<path d="M236.579 140.75H235.949V153.46H236.579V140.75Z" fill="#1FA1DB"/>
<path d="M238.368 140.75H237.738V153.46H238.368V140.75Z" fill="#1FA1DB"/>
<path d="M240.169 140.75H239.539V153.46H240.169V140.75Z" fill="#1FA1DB"/>
<path d="M241.958 140.75H241.328V153.46H241.958V140.75Z" fill="#1FA1DB"/>
<path d="M243.759 140.75H243.129V153.46H243.759V140.75Z" fill="#1FA1DB"/>
<path d="M245.548 140.75H244.918V153.46H245.548V140.75Z" fill="#1FA1DB"/>
<path d="M247.337 140.75H246.707V153.46H247.337V140.75Z" fill="#1FA1DB"/>
<path d="M249.138 140.75H248.508V153.46H249.138V140.75Z" fill="#1FA1DB"/>
<path d="M249.139 140.44H226.969V141.06H249.139V140.44Z" fill="#1FA1DB"/>
<path d="M249.139 152.84H226.969V154.53H249.139V152.84Z" fill="#1FA1DB"/>
<path d="M191.54 60.1396H150.02V195.45H191.54V60.1396Z" fill="#1FA1DB"/>
<path d="M177.029 94.0596H185.449V79.9796H177.029V94.0596Z" fill="#4DBDF5"/>
<path d="M175.348 75.9497H180.948H181.538H187.138V76.8797C186.518 77.5597 186.608 78.3297 186.608 78.3297V79.9697H181.528H180.938H175.858V78.3297C175.858 78.3297 175.948 77.5597 175.328 76.8797V75.9497H175.348Z" fill="#59BEEA"/>
<path d="M176.148 95.3296H186.328V94.0596H176.148V95.3296Z" fill="#59BEEA"/>
<path d="M177.029 125.57H185.449V105.65H177.029V125.57Z" fill="#4DBDF5"/>
<path d="M175.348 101.63H180.948H181.538H187.138V102.56C186.518 103.24 186.608 104.01 186.608 104.01V105.65H181.528H180.938H175.858V104.01C175.858 104.01 175.948 103.24 175.328 102.56V101.63H175.348Z" fill="#59BEEA"/>
<path d="M176.148 126.83H186.328V125.56H176.148V126.83Z" fill="#59BEEA"/>
<path d="M156.029 125.57H164.449V105.65H156.029V125.57Z" fill="#4DBDF5"/>
<path d="M154.34 101.63H159.94H160.53H166.13V102.56C165.51 103.24 165.6 104.01 165.6 104.01V105.65H160.52H159.93H154.85V104.01C154.85 104.01 154.94 103.24 154.32 102.56V101.63H154.34Z" fill="#59BEEA"/>
<path d="M155.152 126.83H165.332V125.56H155.152V126.83Z" fill="#59BEEA"/>
<path d="M177.029 160.72H185.449V140.8H177.029V160.72Z" fill="#4DBDF5"/>
<path d="M175.348 136.78H180.948H181.538H187.138V137.71C186.518 138.39 186.608 139.16 186.608 139.16V140.8H181.528H180.938H175.858V139.16C175.858 139.16 175.948 138.39 175.328 137.71V136.78H175.348Z" fill="#59BEEA"/>
<path d="M176.148 161.98H186.328V160.71H176.148V161.98Z" fill="#59BEEA"/>
<path d="M156.029 160.72H164.449V140.8H156.029V160.72Z" fill="#4DBDF5"/>
<path d="M154.34 136.78H159.94H160.53H166.13V137.71C165.51 138.39 165.6 139.16 165.6 139.16V140.8H160.52H159.93H154.85V139.16C154.85 139.16 154.94 138.39 154.32 137.71V136.78H154.34Z" fill="#59BEEA"/>
<path d="M155.152 161.98H165.332V160.71H155.152V161.98Z" fill="#59BEEA"/>
<path d="M177.029 195.33H185.449V175.41H177.029V195.33Z" fill="#4DBDF5"/>
<path d="M175.348 171.38H180.948H181.538H187.138V172.31C186.518 172.99 186.608 173.76 186.608 173.76V175.4H181.528H180.938H175.858V173.76C175.858 173.76 175.948 172.99 175.328 172.31V171.38H175.348Z" fill="#59BEEA"/>
<path d="M156.029 195.33H164.449V175.41H156.029V195.33Z" fill="#4DBDF5"/>
<path d="M154.34 171.38H159.94H160.53H166.13V172.31C165.51 172.99 165.6 173.76 165.6 173.76V175.4H160.52H159.93H154.85V173.76C154.85 173.76 154.94 172.99 154.32 172.31V171.38H154.34Z" fill="#59BEEA"/>
<path d="M156.029 94.0596H164.449V79.9796H156.029V94.0596Z" fill="#4DBDF5"/>
<path d="M154.34 75.9497H159.94H160.53H166.13V76.8797C165.51 77.5597 165.6 78.3297 165.6 78.3297V79.9697H160.52H159.93H154.85V78.3297C154.85 78.3297 154.94 77.5597 154.32 76.8797V75.9497H154.34Z" fill="#59BEEA"/>
<path d="M155.152 95.3296H165.332V94.0596H155.152V95.3296Z" fill="#59BEEA"/>
<path d="M191.55 60.1396H194V63.5797L191.55 66.0296V71.7796H150.02V60.1396H191.55Z" fill="#4DBDF5"/>
<path d="M194 63.5801H150.02V66.0301H191.55L194 63.5801Z" fill="#1FA1DB"/>
<path d="M229.809 65.6499H294.829L288.319 68.7199H236.329L229.809 65.6499Z" fill="#4DBDF5"/>
</g>
<path d="M273.527 187.16L281.497 195.73V25.5098L273.527 34.0898V187.16Z" fill="#001E60"/>
<g style="mix-blend-mode:color">
<path d="M273.54 34.0898H150.5V187.16H273.54V34.0898Z" fill="#0053E2"/>
</g>
<g style="mix-blend-mode:soft-light" opacity="0.75">
<path d="M273.53 131.81L175.81 34.0898H150.5V41.1798L273.53 164.22V131.81Z" fill="url(#paint1_linear_14040_43797)"/>
</g>
<path style="mix-blend-mode:soft-light" opacity="0.75" d="M150.5 134.65L203.01 187.16H267.84L150.5 69.8096V134.65Z" fill="url(#paint2_linear_14040_43797)"/>
<path d="M277.437 29.8799V191.93L273.527 187.16V34.0899L277.437 29.8799Z" fill="#0053E2"/>
<path d="M142.539 25.5098L150.499 34.0898H273.529L281.499 25.5098H142.539Z" fill="#001E60"/>
<path d="M146.359 29.9499L150.499 34.0899H273.529L277.439 29.8799L146.359 29.9499Z" fill="#0053E2"/>
<path d="M94.9391 201.87H0.789062V360H94.9391V201.87Z" fill="#001E60"/>
<path d="M74.2581 177.28C74.2581 171.56 71.9381 166.38 68.1881 162.63L61.8581 156.3C59.1181 153.56 57.5881 149.85 57.5881 145.98V127.68H49.4981V145.98C49.4981 149.85 47.9581 153.56 45.2281 156.3L38.8981 162.63C35.1481 166.38 32.8281 171.56 32.8281 177.28C32.8281 183 35.1481 188.18 38.8981 191.93C40.2581 193.28 41.7981 194.45 43.4881 195.38L41.8881 196.98C41.2381 197.63 40.8781 198.51 40.8781 199.42V202.07H66.2181V199.42C66.2181 198.5 65.8581 197.62 65.2081 196.98L63.6081 195.38C65.2981 194.44 66.8381 193.28 68.1981 191.93C71.9481 188.18 74.2681 183 74.2681 177.28H74.2581Z" fill="#001E60"/>
<path d="M89.05 85.4502H18.04C17.4656 85.4502 17 85.9158 17 86.4902V130.16C17 130.735 17.4656 131.2 18.04 131.2H89.05C89.6244 131.2 90.09 130.735 90.09 130.16V86.4902C90.09 85.9158 89.6244 85.4502 89.05 85.4502Z" fill="url(#paint3_linear_14040_43797)"/>
<path d="M66.5286 164.3L60.1986 157.97C57.2086 154.98 55.5586 151 55.5586 146.76L52.5586 149.76C53.1786 153.72 55.0086 157.38 57.8986 160.27L64.2286 166.6C67.2886 169.66 68.9686 173.72 68.9686 178.05C68.9686 178.95 69.6986 179.68 70.5986 179.68C71.4986 179.68 72.2286 178.95 72.2286 178.05C72.2286 172.85 70.2086 167.97 66.5286 164.29V164.3Z" fill="#0053E2"/>
<path d="M13.538 142.67H5.72797C5.14255 142.67 4.66797 143.145 4.66797 143.73V200.83C4.66797 201.416 5.14255 201.89 5.72797 201.89H13.538C14.1234 201.89 14.598 201.416 14.598 200.83V143.73C14.598 143.145 14.1234 142.67 13.538 142.67Z" fill="#A51F0A"/>
<path d="M19.8181 145.67H15.3881C14.8027 145.67 14.3281 146.145 14.3281 146.73V200.83C14.3281 201.416 14.8027 201.89 15.3881 201.89H19.8181C20.4035 201.89 20.8781 201.416 20.8781 200.83V146.73C20.8781 146.145 20.4035 145.67 19.8181 145.67Z" fill="#4DBDF5"/>
<path d="M17.2205 145.67H12.7905C12.205 145.67 11.7305 146.145 11.7305 146.73V200.83C11.7305 201.416 12.205 201.89 12.7905 201.89H17.2205C17.8059 201.89 18.2805 201.416 18.2805 200.83V146.73C18.2805 146.145 17.8059 145.67 17.2205 145.67Z" fill="#A9DDF7"/>
<path d="M35.792 199.73L28.292 155.26C28.202 154.74 27.752 154.37 27.232 154.38H25.382V154.68L21.702 155.3C21.122 155.4 20.732 155.94 20.832 156.52L28.332 200.99C28.362 201.16 28.432 201.31 28.532 201.44H27.472L27.512 201.87H29.382C29.442 201.87 29.492 201.87 29.552 201.86L34.922 200.95C35.502 200.85 35.892 200.31 35.792 199.73Z" fill="#CC5605"/>
<path d="M25.214 154.389L19.8499 155.294C19.2726 155.392 18.8837 155.939 18.9811 156.516L26.4868 200.987C26.5843 201.564 27.1312 201.953 27.7085 201.856L33.0726 200.95C33.6499 200.853 34.0388 200.306 33.9414 199.729L26.4357 155.258C26.3382 154.68 25.7913 154.292 25.214 154.389Z" fill="#F48A16"/>
<path d="M8.86078 201.89C9.45078 201.89 9.92078 201.42 9.92078 200.83V143.73C9.92078 143.14 9.45078 142.67 8.86078 142.67H1.05078C0.960781 142.67 0.880781 142.7 0.800781 142.72V201.84C0.880781 201.86 0.960781 201.89 1.05078 201.89H8.86078Z" fill="#ED2100"/>
<path d="M246.32 347.66V380.04H236.8L230.23 347.66H246.32Z" fill="#001E60"/>
<path d="M258.819 347.66V380.04H249.289L242.719 347.66H258.819Z" fill="#001E60"/>
<path d="M83.6797 347.66V380.04H93.1997L99.7697 347.66H83.6797Z" fill="#001E60"/>
<path d="M71.1797 347.66V380.04H80.7097L87.2797 347.66H71.1797Z" fill="#001E60"/>
<path d="M166.42 210.25H163.56H38.4297L65.2597 322.03H163.56H166.42H264.71L291.54 210.25H166.42Z" fill="#E09E0B"/>
<path d="M241.088 275.57C241.088 280.95 236.948 285.32 231.808 285.33L98.3384 285.53C93.2084 285.53 89.0384 281.18 89.0284 275.8L88.8984 187.82C88.8984 182.44 93.0484 178.06 98.1784 178.06L231.648 177.86C236.778 177.86 240.948 182.21 240.958 187.6L241.088 275.58V275.57Z" fill="#FFC220"/>
<path d="M122.161 270.05C122.161 270.05 124.941 264.47 124.941 254.72C124.941 244.97 117.771 217.18 92.1806 206.45C66.5906 195.72 62.6406 196 62.6406 196L87.8406 265.34L98.0306 278.95L106.661 270.04H122.151L122.161 270.05Z" fill="#FFCE4D"/>
<path d="M62.6397 196.01C62.6397 196.01 91.2497 239.19 98.0397 278.97C98.0397 278.97 78.0697 284.85 62.6397 234.99C57.6497 218.85 62.6397 196.02 62.6397 196.02V196.01Z" fill="#FFC220"/>
<path d="M207.421 270.05C207.421 270.05 204.641 264.47 204.641 254.72C204.641 244.97 211.811 217.18 237.401 206.45C262.991 195.72 266.941 196 266.941 196L241.741 265.34L231.551 278.95L222.921 270.04H207.431L207.421 270.05Z" fill="url(#paint4_linear_14040_43797)"/>
<path d="M266.951 196.01C266.951 196.01 238.341 239.19 231.551 278.97C231.551 278.97 251.521 284.85 266.951 234.99C271.941 218.85 266.951 196.02 266.951 196.02V196.01Z" fill="#FFC220"/>
<path d="M86.1194 289.71C86.1294 297.39 94.8694 303.6 105.639 303.58L224.419 303.4C235.189 303.38 243.909 297.15 243.899 289.47V282.95C243.879 275.27 235.139 269.06 224.369 269.08L105.589 269.26C94.8194 269.28 86.0994 275.51 86.1094 283.19V289.71H86.1194Z" fill="#FFC220"/>
<path d="M291.54 210.25C266.18 210.21 257.01 308.62 235.51 308.59H98.7402C72.9902 308.59 63.8002 210.21 38.4302 210.25C29.8302 210.26 31.5702 222.01 31.5702 222.01C31.5802 228.6 46.7802 330.23 60.1302 343.53C65.3702 348.75 75.6902 348.09 90.2302 348.07H239.75C254.3 348.09 264.61 348.75 269.85 343.53C283.2 330.22 298.4 228.6 298.41 222.01C298.41 222.01 300.15 210.26 291.55 210.25H291.54Z" fill="#FFC220"/>
<path style="mix-blend-mode:multiply" opacity="0.5" d="M291.54 210.25C266.18 210.21 257.01 308.62 235.51 308.59H98.7402C72.9902 308.59 63.8002 210.21 38.4302 210.25C29.8302 210.26 31.5702 222.01 31.5702 222.01C31.5802 228.6 46.7802 330.23 60.1302 343.53C65.3702 348.75 75.6902 348.09 90.2302 348.07H239.75C254.3 348.09 264.61 348.75 269.85 343.53C283.2 330.22 298.4 228.6 298.41 222.01C298.41 222.01 300.15 210.26 291.55 210.25H291.54Z" fill="url(#paint5_linear_14040_43797)"/>
<path d="M262.33 275.31C262.33 275.31 263.97 274.3 263.97 272.79C263.97 271.28 261.99 266.57 253.59 266.57C250.56 266.57 247.54 263.04 242.67 263.04C238.12 263.04 233.32 266.12 227.09 267.69C223.03 265.46 219.45 263.52 215.16 264.12C210.29 265.57 205.83 266.96 202.68 266.96C197.57 266.96 192.61 265.76 190.66 265.23C190.37 265.16 190.09 265.07 189.8 264.98C164.22 257.27 127.73 243.05 114.61 243.05C105.42 243.05 100.48 249.28 100.48 258.06C100.48 262.09 102.44 266 105.53 269.56C106.83 271.06 108.33 272.5 109.97 273.86C110.62 274.4 111.29 274.93 111.99 275.44C111.99 275.44 112 275.45 112.01 275.46C112.7 275.97 113.4 276.47 114.13 276.96C114.14 276.96 114.15 276.97 114.16 276.98C114.88 277.46 115.61 277.93 116.36 278.38C116.37 278.38 116.38 278.39 116.39 278.4C117.13 278.85 117.89 279.29 118.65 279.71C118.65 279.71 118.67 279.71 118.67 279.72C119.04 279.93 119.42 280.13 119.79 280.33C119.8 280.33 119.81 280.34 119.82 280.35C120.2 280.55 120.59 280.75 120.97 280.94C121.34 281.12 121.71 281.31 122.08 281.48C122.11 281.5 122.15 281.51 122.18 281.53C122.92 281.88 123.66 282.22 124.4 282.53C124.45 282.55 124.5 282.57 124.55 282.59C125.27 282.9 125.99 283.19 126.71 283.47C126.77 283.49 126.83 283.52 126.89 283.54C127.59 283.81 128.29 284.06 128.98 284.29C129.05 284.31 129.11 284.33 129.18 284.36C129.49 284.46 129.8 284.56 130.11 284.66C130.14 284.66 130.17 284.68 130.21 284.69C130.54 284.79 130.87 284.89 131.2 284.98C131.27 285 131.33 285.02 131.4 285.04C131.68 285.12 131.95 285.19 132.22 285.26C132.28 285.27 132.33 285.29 132.39 285.3C132.7 285.38 133.01 285.45 133.32 285.53C133.38 285.54 133.44 285.56 133.5 285.57C133.75 285.63 134.01 285.68 134.26 285.73C134.33 285.74 134.4 285.76 134.46 285.77C134.75 285.83 135.04 285.88 135.33 285.93C135.38 285.93 135.43 285.95 135.48 285.95C135.72 285.99 135.96 286.02 136.19 286.06C136.26 286.06 136.33 286.08 136.4 286.09C136.67 286.12 136.94 286.16 137.2 286.18C137.23 286.18 137.26 286.18 137.29 286.18C137.52 286.2 137.75 286.22 137.98 286.23C138.05 286.23 138.11 286.23 138.18 286.23C138.43 286.24 138.67 286.25 138.91 286.25C148.52 286.25 156.34 283.23 156.34 283.23L167.32 287.21L169.47 288.03C169.47 288.03 169.4 287.98 169.28 287.88L169.47 288.03C170.92 288.62 172.26 284.55 172.79 282.68H221.43C221.59 282.68 221.76 282.68 221.92 282.67H248.55C254.77 282.67 262.33 283.01 262.33 279.81C262.33 279.81 266.03 277.63 262.33 275.27V275.31Z" fill="#E09E0B"/>
<path d="M251.497 332.1C251.197 330.17 250.917 328.36 250.667 326.74C250.267 324.13 250.127 320.96 250.127 317.94L252.037 314.75C252.887 313.33 253.277 311.67 253.147 310.02C252.837 306.11 252.177 298.21 251.287 289.81C246.577 300.9 241.527 308.6 235.517 308.59H229.867C230.697 311.13 231.867 315.06 231.867 315.06C233.017 319.13 233.957 323.25 234.587 327.38C235.507 333.33 234.997 340.16 235.097 348.08H239.747C245.107 348.08 249.897 348.18 254.067 348.04C253.147 342.67 252.237 337.01 251.467 332.13L251.497 332.1Z" fill="#E09E0B"/>
<path d="M195.468 223.46H133.738L132.528 238.04C123.218 237.6 114.568 237.29 108.828 237.29L123.188 264.65L198.298 271.48L198.788 271.26L208.798 274.68L227.358 255.06L195.468 223.45V223.46Z" fill="#001E60"/>
<path d="M219.16 233.17L235.31 273.52L237.61 285.47L243.75 293.54L244.7 308.65L246.55 303.65L243.33 275.61L219.16 233.17Z" fill="#001E60"/>
<path d="M149.977 171.34L164.147 162.55C169.557 159.19 174.017 154.51 177.117 148.95L179.048 145.49C168.668 145.26 158.257 140.35 158.257 131.52V123.68L136.887 122.33V130.97C136.887 140.7 129.238 142.27 119.688 143.28L122.837 148.95C125.927 154.51 130.397 159.2 135.807 162.55L149.977 171.34Z" fill="#F3B792"/>
<path d="M200.29 161.13C197.71 151.89 189.29 145.49 179.69 145.49C179.47 145.49 179.26 145.49 179.05 145.48L177.12 148.94C174.03 154.5 169.56 159.19 164.15 162.54L149.98 171.33L135.81 162.54C130.4 159.18 125.94 154.5 122.84 148.94L119.69 143.27C114.6 143.81 109.46 144.98 105.66 148.77C98.9895 155.44 80.0695 174.36 80.0695 174.36C79.3595 175.06 78.2995 175.36 77.2995 175.36H76.0895C74.5895 175.36 73.2195 176.25 72.6195 177.63C72.1495 178.7 71.2195 179.5 70.0895 179.78C66.6095 180.65 59.1195 183.55 59.1195 192.44C59.1195 194.49 58.0195 197.95 58.0195 199.47C58.0195 200.99 67.4795 199.95 71.2795 203.75C75.0795 207.55 83.1595 213.69 90.3395 213.69C100.01 213.69 102.63 204.3 102.63 204.3L130.84 232.51V237.26C130.86 237.45 130.87 237.64 130.87 237.84V240.44C130.87 241.88 131.44 243.27 132.46 244.29L134.83 246.66C135.85 247.68 136.42 249.07 136.42 250.51C136.42 253.52 138.86 255.95 141.86 255.95H151.11C167.1 255.95 181.26 245.64 186.16 230.42C186.16 230.42 191.43 236.34 199.56 236.34C207.62 236.34 213.51 227.29 213.51 217.43C213.51 209.84 205.51 179.91 200.27 161.13H200.29Z" fill="#A9DDF7"/>
<path d="M170.157 223.35C130.457 223.35 112.247 172.07 112.247 172.07C112.247 172.07 118.247 175.8 125.467 175.8C132.687 175.8 135.397 174.31 135.397 172.09C135.397 169.87 115.537 159.79 115.537 148.03C115.537 148 115.557 147.95 115.577 147.9C116.007 147.11 117.157 147.11 117.647 147.87C120.297 151.96 129.687 164.35 149.977 171.35L135.807 162.56C132.937 160.78 130.347 158.63 128.077 156.17C127.827 155.9 127.577 155.62 127.337 155.35C127.337 155.35 127.337 155.35 127.337 155.34C127.097 155.07 126.867 154.79 126.637 154.51C126.627 154.49 126.617 154.48 126.597 154.46C126.377 154.19 126.157 153.92 125.947 153.65C125.917 153.61 125.897 153.58 125.867 153.54C125.667 153.28 125.477 153.03 125.287 152.76C125.237 152.7 125.197 152.63 125.147 152.57C124.977 152.33 124.807 152.09 124.647 151.85C124.577 151.75 124.507 151.64 124.437 151.54C124.297 151.33 124.157 151.13 124.027 150.92C123.917 150.76 123.817 150.59 123.717 150.42C123.617 150.26 123.527 150.11 123.427 149.95C123.227 149.62 123.037 149.29 122.847 148.95L119.697 143.28C118.477 143.41 117.247 143.58 116.037 143.81C112.217 144.54 108.557 145.9 105.677 148.78C99.0073 155.45 80.0873 174.37 80.0873 174.37C79.3773 175.07 78.3173 175.37 77.3173 175.37H75.9973C74.5173 175.37 73.2373 176.3 72.6273 177.65C72.1573 178.71 71.2273 179.5 70.0973 179.78C66.6173 180.65 59.1273 183.55 59.1273 192.44C59.1273 194.49 58.0273 197.95 58.0273 199.47C58.0273 206.49 67.4873 199.95 71.2873 203.75C75.0873 207.55 83.1673 213.69 90.3473 213.69C100.017 213.69 102.637 204.3 102.637 204.3L128.457 230.12C129.987 231.65 130.847 233.73 130.847 235.89V237.26C130.867 237.45 130.877 237.64 130.877 237.84V240.44C130.877 241.88 131.447 243.27 132.467 244.29L134.837 246.66C135.857 247.68 136.427 249.07 136.427 250.51C136.427 253.52 138.867 255.95 141.867 255.95H151.117C167.107 255.95 181.267 245.64 186.167 230.42C186.167 230.42 182.797 223.36 170.147 223.36L170.157 223.35Z" fill="#4DBDF5"/>
<path d="M163.46 282.14L163.66 282.3C165.53 283.06 167.22 276.06 167.22 276.06H161.52C161.63 280.11 162.94 281.69 163.45 282.14H163.46Z" fill="#001E60"/>
<path d="M228.09 262.65C220.21 263.38 211.57 264.05 206.25 264.05C201.52 264.05 193.51 262.08 184.01 259.22C180.78 260.63 179.33 265.19 173.24 265.19H168.16C168.16 265.19 161.52 269.91 161.52 276.95H215.63C224.14 276.95 230.11 271.22 230.11 271.22L228.09 262.65Z" fill="#F3B792"/>
<path d="M181.338 259.22L173.688 259.79L166.038 265.19C166.038 265.19 159.398 269.91 159.398 276.95H170.368L171.648 270.78C172.038 268.91 173.688 267.57 175.598 267.57C181.688 267.57 180.768 260.64 183.998 259.23H181.338V259.22Z" fill="#BA7048"/>
<path d="M184.007 259.22C158.427 251.51 121.938 237.29 108.818 237.29C99.6275 237.29 94.6875 243.52 94.6875 252.3C94.6875 267.2 121.457 280.51 133.107 280.51C142.717 280.51 150.538 277.49 150.538 277.49L161.518 281.47L163.667 282.29C163.667 282.29 161.518 281.01 161.518 275.51C161.518 268.79 168.158 265.18 168.158 265.18H173.238C179.328 265.18 180.777 260.62 184.007 259.21V259.22Z" fill="#0053E2"/>
<path d="M123.94 273.8C123.94 273.8 108.1 272 99.7305 263.81C108.06 273.43 124.6 280.52 133.11 280.52C142.72 280.52 150.54 277.5 150.54 277.5L161.52 281.48L110.73 263.07L123.95 273.8H123.94Z" fill="#001E60"/>
<path d="M127.449 263.07C133.949 260.82 140.479 260.06 147.219 259.67C153.959 259.4 160.569 259.53 167.229 261.25C155.709 266.11 139.359 266.96 127.449 263.08V263.07Z" fill="#001E60"/>
<path d="M258.029 271.09C257.579 270.02 257.669 268.83 258.049 267.73C258.129 267.51 258.169 267.27 258.169 267.02C258.169 265.51 256.189 260.8 247.789 260.8C244.759 260.8 241.739 257.27 236.869 257.27C232.319 257.27 227.519 260.35 221.289 261.92C217.229 259.69 213.649 257.75 209.359 258.35C204.489 259.8 200.029 261.19 196.879 261.19C191.769 261.19 186.809 259.99 184.859 259.46C184.569 259.39 184.289 259.3 183.999 259.21C182.859 259.71 181.949 260.6 180.969 261.54C181.989 265.03 182.739 270.59 180.309 276.94H215.619C215.779 276.94 215.949 276.94 216.109 276.93H242.739C248.339 276.93 255.029 277.2 256.309 274.92C256.609 274.39 256.909 273.85 257.349 273.42C257.889 272.88 258.439 272.04 258.029 271.08V271.09Z" fill="#FEF6DE"/>
<path d="M184.01 259.22C182.87 259.72 181.96 260.61 180.98 261.55C181.11 261.98 181.23 262.44 181.34 262.94C182.05 261.35 182.67 259.81 184.01 259.23V259.22Z" fill="#4DBDF5"/>
<path d="M135.641 199.23L141.991 200.21V201.34L135.641 199.23Z" fill="#BA7048"/>
<path d="M83.4572 177.96C82.7972 177.96 82.2372 178.27 82.2372 179.08C82.2372 179.96 83.2372 180.71 84.5572 181.42C84.2272 181.29 83.8972 181.18 83.5672 181.06C75.8072 178.38 66.3172 181.34 61.8672 188.32C67.6372 183.95 74.9672 181.5 82.1772 182.73C82.6072 182.79 83.0272 182.87 83.4572 182.95C76.9372 182.4 70.0672 184.95 66.1972 190.32C64.4572 192.75 63.3672 195.62 63.2172 198.59C65.0572 196.31 66.7672 194.25 68.7172 192.57C74.7972 187.2 82.6572 185.93 90.5672 184.94C90.5672 184.94 86.9972 177.95 83.4672 177.95L83.4572 177.96Z" fill="#A9DDF7"/>
<path d="M162.99 192.41H159.73V196.56H162.99V192.41Z" fill="#BA7048"/>
<path d="M129.738 186.79C132.778 186.79 140.948 187.53 140.948 187.53L139.428 191L129.738 186.79Z" fill="#BA7048"/>
<path d="M166.709 190.87L163.909 188.57C163.399 188.15 162.749 187.92 162.089 187.92H158.629L159.249 190.4L166.719 190.88L166.709 190.87Z" fill="#BA7048"/>
<path d="M133.949 203.18L139.969 182.44C140.149 181.84 140.699 181.42 141.329 181.42H162.449C163.389 181.42 164.069 182.32 163.809 183.23L158.019 203.18H133.959H133.949Z" fill="#001E60"/>
<path d="M154.587 195.84H144.488C144.098 195.84 143.717 195.8 143.337 195.71L136.688 194.24C136.688 194.24 136.658 194.17 136.688 194.17H141.068C141.548 194.17 142.027 194.12 142.497 194.03L147.768 193.02C148.338 192.91 148.817 192.46 148.887 191.88C148.987 191.08 148.367 190.4 147.577 190.4H141.298L131.038 187C130.258 186.72 129.407 186.7 128.617 186.92L118.727 189.71C117.427 190.08 116.087 190.26 114.747 190.26H88.4175L84.7075 194.28L80.6875 202.02L80.8775 204.55L84.5975 207.16L84.7475 207.62H86.3775C100.558 207.62 108.828 203.67 112.238 203.67C115.648 203.67 125.837 206.44 128.867 206.44C131.427 206.44 140.527 205.15 143.307 204.75C143.827 204.67 144.287 204.39 144.577 203.95L145.018 203.3L136.367 199.35L142.658 200.33C143.188 200.41 143.738 200.42 144.268 200.33L156.227 198.55C156.517 198.51 156.727 198.25 156.727 197.96C156.727 196.78 155.757 195.83 154.577 195.83L154.587 195.84Z" fill="#F3B792"/>
<path d="M92.617 203.68C89.077 203.68 86.157 200.85 86.127 197.32C86.127 197.28 86.127 197.25 86.127 197.21C86.127 192.89 90.967 190.28 90.967 190.28H88.437L84.727 194.3L80.707 202.04L80.897 204.57L84.617 207.18L84.767 207.64H86.397C100.577 207.64 108.847 203.69 112.257 203.69H92.627L92.617 203.68Z" fill="#BA7048"/>
<path d="M81.8878 203.11C81.8878 198.37 87.1778 190.27 90.9578 190.27H95.0978C95.0978 190.27 93.4878 187.95 91.3078 187.95C87.0178 187.95 79.4278 201.3 78.3378 201.3C77.2478 201.3 79.4278 196.44 79.4278 196.44C79.4278 196.44 75.7578 198.49 75.7578 201.56C75.7578 204.63 84.7578 209.24 92.5678 209.24C95.9778 209.24 97.7978 206.73 97.7978 206.73C86.0878 208.62 81.8878 205.51 81.8878 203.1V203.11Z" fill="#001E60"/>
<path d="M134.86 197.77L141.81 199.31C142.19 199.39 142.57 199.44 142.96 199.44H153.06C154.25 199.44 155.21 200.4 155.21 201.59C155.21 201.88 155 202.12 154.71 202.17L142.75 203.95C142.22 204.03 141.67 204.03 141.14 203.95L127.59 201.83L134.85 197.79L134.86 197.77Z" fill="#F3B792"/>
<path opacity="0.5" d="M246.99 268.45L245.58 260.28C244.36 259.78 243.06 259 241.59 258.35C242.27 261.21 242.86 264.23 243.35 267.4C243.81 270.36 244.24 273.62 244.64 276.95C245.91 276.95 247.19 276.95 248.42 276.93C248.51 276.93 248.59 276.93 248.68 276.93C248.75 276.93 248.83 276.93 248.9 276.93C249.28 276.92 249.66 276.9 250.03 276.88C250.06 276.88 250.1 276.88 250.13 276.88C253.14 276.71 255.6 276.24 256.33 274.95C256.63 274.42 256.93 273.89 257.35 273.46H252.94C250.01 273.46 247.5 271.35 247 268.46L246.99 268.45Z" fill="#A9DDF7"/>
<path d="M145.82 198.09C145.82 199.36 144.79 200.39 143.52 200.4C143.78 200.4 144.03 200.38 144.28 200.34L156.24 198.56C156.53 198.52 156.74 198.27 156.74 197.98C156.74 196.79 155.78 195.83 154.59 195.83H144.49C144.26 195.83 144.04 195.82 143.81 195.79C144.94 195.94 145.81 196.91 145.81 198.08L145.82 198.09Z" fill="#BA7048"/>
<path d="M142.757 203.94C142.227 204.02 141.677 204.02 141.147 203.94L138.947 203.6C138.947 203.67 138.967 203.74 138.967 203.82C138.967 204.74 138.267 205.5 137.367 205.59C139.537 205.3 142.267 204.92 143.317 204.77C143.837 204.69 144.297 204.4 144.597 203.97L144.817 203.65L142.757 203.96V203.94Z" fill="#BA7048"/>
<path d="M153.068 199.44H150.408L144.288 200.35C143.798 200.42 143.298 200.42 142.808 200.35C143.028 200.71 143.158 201.13 143.158 201.58C143.158 202.78 142.258 203.77 141.098 203.92C141.398 203.92 142.468 203.98 142.768 203.94L154.728 202.16C155.018 202.12 155.228 201.87 155.228 201.58C155.228 200.39 154.268 199.43 153.078 199.43L153.068 199.44Z" fill="#BA7048"/>
<path d="M206.472 203.52C206.472 205.54 206.842 207.53 207.512 209.43C208.032 210.91 208.552 213.04 208.552 215.63C208.552 220.8 202.932 227.87 201.742 226.67C200.542 225.47 206.032 222.51 206.032 214.81C206.032 207.56 199.872 199.58 193.302 198.68C195.242 198.68 197.142 199.02 198.822 199.97C201.192 201.31 203.152 201.89 203.152 201.89C203.152 199.93 201.662 198.1 199.792 197.6C198.562 197.29 197.302 197.17 196.042 197.24C197.462 196.96 198.902 196.83 200.412 196.92C202.852 197.07 204.892 197.66 207.412 198.21C205.552 195.42 202.192 193.8 198.812 193.9C195.982 193.99 193.092 195.33 191.432 197.62C192.042 195.62 193.132 192.8 194.442 190.69C199.562 182.4 202.992 179.52 202.992 174.78C202.992 170.49 201.702 166.28 201.702 166.28C201.702 166.28 201.032 172.52 197.552 178.89C195.502 182.65 186.712 197.02 185.062 202.33C183.012 204.83 182.072 207.68 182.072 207.68L180.332 216.95C180.332 227.74 189.992 236.33 199.552 236.33C207.702 236.33 212.362 227.69 212.362 219.62C212.362 211.55 206.452 203.52 206.452 203.52H206.472Z" fill="#4DBDF5"/>
<path d="M188.519 202.54C188.519 202.54 189.469 200.8 191.699 200.8C196.079 200.8 203.849 206.42 203.849 217.26C203.849 220.34 202.239 223.89 197.829 223.89H188.619C183.799 223.89 182.109 221.88 182.109 219.61C182.109 215.47 188.529 202.55 188.529 202.55L188.519 202.54Z" fill="#001E60"/>
<path d="M192.97 202.54H188.52C186.85 202.54 185.19 202.17 183.68 201.45L176.04 197.83C174.96 197.32 173.94 196.68 173.01 195.93L166.02 190.3C165.37 189.78 164.56 189.49 163.73 189.49H157.31C156.9 189.49 156.48 189.53 156.08 189.61L152.59 190.29C151.94 190.42 151.44 190.98 151.47 191.64C151.5 192.35 152.09 192.89 152.78 192.89H157.14C157.21 192.89 157.29 192.89 157.36 192.9L161.73 193.35C162.11 193.39 162.29 193.84 162.04 194.13L161 195.34C159.74 196.8 158.13 197.9 156.32 198.55L152.02 200.1L141.3 203.45C140.59 203.67 140.12 204.38 140.27 205.11C140.44 205.89 141.19 206.36 141.94 206.21L142.94 206C142.22 206.15 141.77 206.9 142.04 207.63C142.23 208.16 142.79 208.48 143.36 208.42L153.29 207.44C153.46 207.42 153.62 207.4 153.79 207.37L162.64 205.69L153.45 207.7L147.99 208.21C146.74 208.33 145.78 209.38 145.78 210.63V211.13C145.78 211.13 159.96 210.06 161.84 210.06C163.72 210.06 165.97 211.13 169.07 211.13C171.42 211.13 172.29 210.58 173.08 210.5C177.13 213.61 186.54 223.27 190.02 223.27C194.17 223.27 200.66 219.79 200.66 212.33C200.66 204.87 195.11 202.53 193 202.53L192.97 202.54Z" fill="#F3B792"/>
<path d="M142.93 206.01C142.55 206.09 142.26 206.33 142.09 206.65L158.41 203.47C159.88 203.18 161.3 202.67 162.61 201.95L153.31 203.87L142.92 206.02L142.93 206.01Z" fill="#BA7048"/>
<path d="M153.18 207.73L147.96 208.21C146.71 208.33 145.75 209.38 145.75 210.63V211.13L162.62 205.69L153.66 207.65C153.5 207.68 153.35 207.71 153.19 207.72L153.18 207.73Z" fill="#BA7048"/>
<path d="M198.819 210.52C198.819 212.48 197.789 216.91 193.059 216.91C189.359 216.91 182.929 210.13 176.699 210.13C174.139 210.13 173.059 210.53 173.059 210.53C177.109 213.64 186.519 223.3 189.999 223.3C194.149 223.3 200.639 219.82 200.639 212.36C200.639 206.23 196.889 203.56 194.389 202.8C197.309 203.83 198.829 207.94 198.829 210.53L198.819 210.52Z" fill="#BA7048"/>
<path d="M142.7 192.44C142.7 193.56 142.13 194 141.89 194.13C142.1 194.11 142.3 194.08 142.5 194.04L147.77 193.03C148.19 192.95 148.56 192.68 148.76 192.31C148.76 192.3 148.77 192.28 148.78 192.26C148.8 192.22 148.82 192.17 148.83 192.13C148.84 192.09 148.85 192.06 148.86 192.02C148.86 191.99 148.88 191.96 148.88 191.92C148.88 191.89 148.88 191.86 148.88 191.82C148.88 191.76 148.88 191.7 148.88 191.65C148.88 191.61 148.88 191.57 148.87 191.53C148.87 191.48 148.85 191.43 148.84 191.38C148.83 191.34 148.82 191.3 148.8 191.27C148.78 191.22 148.76 191.18 148.74 191.13C148.72 191.1 148.7 191.06 148.68 191.03C148.65 190.99 148.62 190.95 148.59 190.91C148.57 190.88 148.54 190.85 148.52 190.82C148.49 190.78 148.45 190.75 148.41 190.72C148.38 190.7 148.35 190.67 148.32 190.65C148.28 190.62 148.23 190.59 148.18 190.57C148.15 190.55 148.12 190.53 148.09 190.52C148.04 190.5 147.98 190.48 147.92 190.46C147.89 190.46 147.86 190.44 147.83 190.43C147.74 190.41 147.65 190.4 147.55 190.4H141.27C141.27 190.4 142.66 190.98 142.66 192.43L142.7 192.44Z" fill="#BA7048"/>
<g opacity="0.5">
<path d="M251.638 359.8C250.068 353.83 247.418 337.83 245.598 326.26L245.628 326.23C245.328 324.3 245.048 322.49 244.798 320.87C244.168 316.81 244.198 311.36 244.338 307.26C242.698 308.2 241.078 308.86 239.518 309.33C239.438 313.08 239.508 317.46 240.028 320.87C240.278 322.49 240.558 324.3 240.858 326.23L240.828 326.26C242.648 337.83 245.298 353.84 246.868 359.8C247.938 363.84 245.798 368.24 244.478 370.45C243.978 371.29 243.558 372.18 243.308 373.12C242.918 374.57 242.158 375.69 241.528 376.43C240.948 377.11 240.468 377.87 240.058 378.67C239.598 379.57 238.978 380.14 238.408 380.51C238.128 380.69 237.848 380.89 237.578 381.08C237.628 381.2 237.678 381.33 237.718 381.44C238.238 382.76 239.958 383.21 240.988 382.24C241.018 382.21 241.048 382.18 241.078 382.15C241.698 381.51 242.418 380.99 243.168 380.5C243.738 380.13 244.358 379.56 244.818 378.66C245.228 377.86 245.698 377.1 246.288 376.42C246.918 375.68 247.678 374.56 248.068 373.11C248.318 372.17 248.738 371.27 249.238 370.44C250.568 368.23 252.698 363.83 251.628 359.79L251.638 359.8Z" fill="#A9DDF7"/>
</g>
<path d="M216.097 225.5C199.987 227.98 202.647 245.24 203.447 250.45C205.387 263.07 219.267 285.28 225.997 309.19C227.977 309.88 235.847 312.1 244.337 307.26C244.287 308.73 244.247 310.37 244.247 312.07L246.157 308.88C247.007 307.46 247.397 305.8 247.267 304.15C246.747 297.61 245.257 279.9 243.327 267.41C239.117 240.1 227.327 223.77 216.087 225.51L216.097 225.5Z" fill="#0053E2"/>
<path d="M216.096 225.5C215.286 225.62 214.536 225.79 213.816 225.98C227.356 223.95 231.576 248.26 231.576 248.26L219.686 234.09C224.776 244.29 231.846 261.65 242.266 274.33L234.706 279.94C234.706 279.94 237.106 306.19 237.396 309.95L242.396 312.9L242.316 312.37L244.256 312.07L246.166 308.88C247.016 307.46 247.406 305.8 247.276 304.15C246.756 297.61 245.266 279.9 243.336 267.41C239.126 240.1 227.336 223.77 216.096 225.51V225.5Z" fill="#001E60"/>
<path d="M235.936 279.13C236.326 281.65 236.876 284.01 237.516 286.17C237.996 284 243.196 278.89 242.606 275.05C242.516 274.49 241.576 272.01 234.996 273.03C234.996 273.03 235.456 275.99 235.936 279.13Z" fill="#4DBDF5"/>
<path d="M245.596 326.26L245.626 326.23C245.326 324.3 245.046 322.49 244.796 320.87C244.166 316.81 244.196 311.36 244.336 307.26C235.846 312.1 227.966 309.88 225.996 309.19C227.146 313.26 228.086 317.38 228.716 321.51C230.436 332.68 227.156 346.95 232.196 365.73C233.486 370.53 236.336 377.93 237.726 381.44C238.246 382.76 239.966 383.22 240.996 382.24C241.026 382.21 241.056 382.18 241.086 382.15C241.706 381.51 242.426 380.99 243.176 380.5C243.746 380.13 244.366 379.56 244.826 378.66C245.236 377.86 245.706 377.1 246.296 376.42C246.926 375.68 247.686 374.56 248.076 373.11C248.326 372.17 248.746 371.27 249.246 370.44C250.576 368.23 252.706 363.83 251.636 359.79C250.066 353.82 247.416 337.82 245.596 326.25V326.26Z" fill="#FEF6DE"/>
<path d="M244.677 301.4C244.677 301.4 238.007 292.54 235.937 279.14C235.457 276.01 234.997 273.04 234.997 273.04C231.147 273.63 225.787 279.27 227.097 287.76C227.567 290.78 228.197 294.9 228.197 294.9L223.727 301.91C224.547 304.32 225.997 309.19 225.997 309.19C227.977 309.88 235.847 312.1 244.337 307.26C244.337 307.26 244.337 307.26 244.337 307.27C244.457 303.87 244.667 301.39 244.667 301.39L244.677 301.4Z" fill="#F3B792"/>
<path d="M233.716 285.18C236.266 284.79 237.516 286.18 237.516 286.18C236.876 284.01 236.326 281.65 235.936 279.14C235.456 276.01 234.996 273.04 234.996 273.04C231.146 273.63 225.786 279.27 227.096 287.76C227.566 290.78 228.196 294.9 228.196 294.9C227.386 289.67 230.176 285.73 233.716 285.19V285.18Z" fill="#BA7048"/>
<path d="M158.258 123.67L136.888 122.32V130.96C136.888 137.47 133.468 140.32 128.348 141.8C143.568 138.26 155.238 128.95 158.258 126.36V123.66V123.67Z" fill="#BA7048"/>
<path d="M134.917 116.03C134.917 116.03 133.707 121.92 126.497 121.92C126.497 121.92 130.047 120.1 130.047 117.53C130.047 114.96 123.957 115.48 123.957 112.94C123.957 111.34 125.627 111.16 126.907 109.89C126.907 109.89 118.207 107.16 118.207 99.4301C118.207 95.3601 121.257 92.8101 121.257 92.8101C121.257 92.8101 117.887 87.6401 123.317 85.4901C123.317 85.4901 119.927 82.8301 119.927 78.0301C119.927 73.2301 125.337 70.0301 132.817 70.0301C132.817 70.0301 131.907 62.7601 140.867 60.1601C140.867 60.1601 136.827 62.4001 135.747 65.9401C135.747 65.9401 138.857 62.3001 144.017 66.3901C144.017 66.3901 144.957 59.6401 153.887 59.6401C159.567 59.6401 165.147 67.3301 165.147 67.3301C165.147 67.3301 170.137 65.7301 173.157 68.7401C178.167 73.7501 172.717 81.3801 172.717 81.3801C172.717 81.3801 179.267 83.1901 175.777 89.1401C175.777 89.1401 177.477 91.8001 177.477 95.2501C177.477 101.84 173.607 105.08 168.907 106.91C168.907 106.91 168.317 112.13 174.237 115.31C174.237 115.31 171.367 115.44 168.637 111.85C168.637 111.85 169.787 116.86 173.937 119.55C173.937 119.55 167.987 120.93 166.267 113.82C166.267 113.82 164.957 120.57 157.557 120.57L134.927 116.04L134.917 116.03Z" fill="#CC5605"/>
<path d="M147.539 78.7002C129.539 78.7002 130.029 100.55 130.029 103.07C130.029 105.59 132.919 120.35 135.689 123.21C137.659 125.24 140.259 126.75 141.999 127.86C142.739 128.33 143.579 128.64 144.439 128.77C144.889 128.84 145.349 128.87 145.809 128.87H149.269C149.729 128.87 150.179 128.84 150.639 128.77C151.509 128.65 152.339 128.34 153.079 127.86C154.819 126.75 157.419 125.24 159.389 123.21C162.159 120.35 165.049 105.58 165.049 103.07C165.049 100.56 165.549 78.7002 147.539 78.7002Z" fill="#F3B792"/>
<path d="M145.459 116.74C145.459 115.35 147.389 115.06 147.389 113.83C147.389 113.03 145.459 112.21 145.459 111.8C145.459 111.33 146.869 109.39 146.869 105.28C146.869 105.17 146.859 105.05 146.839 104.93C146.839 104.85 146.839 104.77 146.839 104.69C146.839 98.1102 140.669 96.8802 140.669 91.8502C140.669 85.7402 147.019 84.7202 151.599 84.7202L147.279 78.7202C129.519 78.9202 130.009 100.58 130.009 103.08C130.009 105.58 132.899 120.36 135.669 123.22C137.639 125.25 140.239 126.76 141.979 127.87C142.719 128.34 143.559 128.65 144.419 128.78C144.869 128.85 145.329 128.88 145.789 128.88H147.539C146.109 128.88 144.159 127.6 144.169 126.27C144.179 123.28 148.879 123.37 148.879 122.28C148.879 121.98 148.449 121.89 147.539 121.88C146.629 121.88 145.439 117.17 145.439 116.74H145.459Z" fill="#BA7048"/>
<path d="M148.53 113.36C148.53 113.36 149.03 112.74 149.71 112.74C150 112.74 150.28 112.77 150.28 112.98C150.28 113.24 149.73 113.24 149.4 113.24C149.07 113.24 148.52 113.36 148.52 113.36H148.53Z" fill="#603625"/>
<path d="M146.57 113.36C146.57 113.36 146.07 112.74 145.39 112.74C145.1 112.74 144.82 112.77 144.82 112.98C144.82 113.19 145.37 113.24 145.7 113.24C146.03 113.24 146.58 113.36 146.58 113.36H146.57Z" fill="#603625"/>
<path opacity="0.49" d="M156.149 105.58C153.149 105.58 150.859 103.61 150.859 102.06C150.859 101 154.159 98.3 156.569 98.3C158.989 98.3 163.499 97.19 163.499 100.24C163.499 103.28 157.869 105.59 156.149 105.59V105.58Z" fill="#C96E3A"/>
<path d="M149.638 117.79H145.478L141.398 117.98C142.118 120.25 144.938 121.88 147.558 121.88C150.178 121.88 152.968 120.38 153.688 118.11L149.638 117.79Z" fill="#FF765F"/>
<path d="M153.739 117.51C153.269 117.51 150.109 116.73 149.649 116.73C149.189 116.73 148.419 117.45 147.549 117.45C146.679 117.45 145.919 116.73 145.449 116.73C144.979 116.73 141.829 117.51 141.359 117.51C141.119 117.51 140.699 117.34 140.699 117.34C140.699 117.34 141.629 118.84 143.499 118.84C144.609 118.84 145.609 118.39 146.109 118.39C146.609 118.39 147.259 118.6 147.549 118.6C147.839 118.6 148.469 118.39 148.989 118.39C149.509 118.39 150.489 118.84 151.599 118.84C153.469 118.84 154.399 117.34 154.399 117.34C154.399 117.34 153.969 117.51 153.739 117.51Z" fill="#FF765F"/>
<path d="M146.079 81.1499C146.079 81.1499 145.399 88.7399 160.469 88.7399C160.469 88.7399 148.989 86.1399 146.079 81.1499Z" fill="#BA7048"/>
<path d="M150.778 100.25C150.338 100.25 150.708 98.5901 151.208 98.0601C151.808 97.4201 156.428 96.3901 159.108 96.3901C160.528 96.3901 163.238 98.7701 163.078 98.9401C162.918 99.1101 161.718 98.2301 158.788 98.2301C155.638 98.2301 151.868 100.26 150.788 100.26L150.778 100.25Z" fill="#CC5605"/>
<path d="M144.35 100.25C144.79 100.25 144.42 98.5901 143.92 98.0601C143.32 97.4201 138.7 96.3901 136.02 96.3901C134.6 96.3901 131.89 98.7701 132.05 98.9401C132.21 99.1101 133.41 98.2301 136.34 98.2301C139.49 98.2301 143.26 100.26 144.34 100.26L144.35 100.25Z" fill="#7E4427"/>
<path d="M151.68 103.19C151.68 103.19 152.53 105.27 155.39 105.27C157.52 105.27 158.77 103.6 158.77 103.6L155.45 103.5L151.68 103.19Z" fill="#FDDAC5"/>
<path d="M159.191 104.59C156.921 106.21 153.961 106 151.961 104.07C152.461 104.47 153.021 104.78 153.611 105.02C155.351 105.78 157.401 105.29 158.821 104.12L159.201 104.59H159.191Z" fill="#8C5138"/>
<path d="M156.611 105.08C156.801 105.02 156.971 104.95 157.141 104.88L156.461 104.39L156.611 105.08Z" fill="#C96E3A"/>
<path d="M153.85 103.37L155.45 103.5L156.7 103.54C156.8 103.75 156.85 103.98 156.85 104.23C156.85 104.48 156.76 104.83 156.61 105.08C156.24 105.2 155.84 105.27 155.39 105.27C154.76 105.27 154.24 105.17 153.79 105.01C153.67 104.78 153.59 104.51 153.59 104.23C153.59 103.91 153.68 103.62 153.83 103.37H153.85Z" fill="#603625"/>
<path d="M159.18 103.11C159.5 102.88 159.77 102.62 160.17 102.55C159.76 102.48 159.37 102.7 159.03 102.86C157.28 103.71 155.3 103.18 153.44 103.04C152.74 102.99 151.54 102.71 151.27 103.6C151.77 102.9 152.68 103.4 153.36 103.5C153.56 103.55 153.76 103.59 153.96 103.63C158.79 106.6 161.24 103.82 161.24 103.82C159.99 104.16 159.37 103.4 159.19 103.11H159.18Z" fill="#35130C"/>
<path d="M146.057 120.59C146.057 119.83 146.767 119.27 147.497 119.27C149.207 119.27 150.257 118.98 150.807 118.77C150.027 118.64 149.357 118.38 148.977 118.38C148.457 118.38 147.827 118.59 147.537 118.59C147.247 118.59 146.617 118.38 146.097 118.38C145.577 118.38 144.597 118.83 143.487 118.83C142.597 118.83 141.927 118.49 141.457 118.14C142.257 120.31 144.977 121.86 147.527 121.87C146.847 121.87 146.057 121.37 146.057 120.58V120.59Z" fill="#A51F0A"/>
<path d="M145.458 116.74C145.458 116.74 145.447 116.74 145.438 116.74C144.977 116.74 141.818 117.52 141.348 117.52C141.108 117.52 140.688 117.35 140.688 117.35C140.688 117.35 141.618 118.85 143.488 118.85C144.598 118.85 145.598 118.4 146.098 118.4C146.558 118.4 147.108 118.57 147.428 118.61C146.868 118.54 145.458 118.01 145.458 116.76V116.74Z" fill="#A51F0A"/>
<path d="M164.498 102.32C164.538 102.2 165.998 96.8799 168.028 96.8799C170.288 96.8799 168.068 102.24 168.068 103.74C168.068 105.24 167.698 108.59 166.478 109.83C164.348 111.98 162.168 110.4 162.168 110.4L164.498 102.32Z" fill="#F3B792"/>
<path d="M143.418 103.19C143.418 103.19 142.568 105.27 139.708 105.27C137.578 105.27 136.328 103.6 136.328 103.6L139.648 103.5L143.418 103.19Z" fill="#FDDAC5"/>
<path d="M135.908 104.59C138.178 106.21 141.138 106 143.138 104.07C142.638 104.47 142.078 104.78 141.488 105.02C139.748 105.78 137.698 105.29 136.278 104.12L135.898 104.59H135.908Z" fill="#8C5138"/>
<path d="M138.491 105.08C138.301 105.02 138.131 104.95 137.961 104.88L138.641 104.39L138.491 105.08Z" fill="#C96E3A"/>
<path d="M141.25 103.37L139.65 103.5L138.4 103.54C138.3 103.75 138.25 103.98 138.25 104.23C138.25 104.54 138.34 104.83 138.49 105.08C138.86 105.2 139.26 105.27 139.71 105.27C140.34 105.27 140.86 105.17 141.31 105.01C141.43 104.78 141.51 104.51 141.51 104.23C141.51 103.91 141.42 103.62 141.27 103.37H141.25Z" fill="#603625"/>
<path d="M135.919 103.11C135.599 102.88 135.329 102.62 134.929 102.55C135.339 102.48 135.729 102.7 136.069 102.86C137.819 103.71 139.799 103.18 141.659 103.04C142.359 102.99 143.559 102.71 143.829 103.6C143.329 102.9 142.419 103.4 141.739 103.5C141.539 103.55 141.339 103.59 141.139 103.63C136.309 106.6 133.859 103.82 133.859 103.82C135.109 104.16 135.729 103.4 135.909 103.11H135.919Z" fill="#35130C"/>
<path d="M130.559 103.11C130.519 102.99 129.029 96.8799 126.999 96.8799C124.739 96.8799 126.959 102.24 126.959 103.74C126.959 105.24 127.329 108.59 128.549 109.83C130.679 111.98 132.859 110.4 132.859 110.4L130.559 103.11Z" fill="#BA7048"/>
<path d="M147.577 69.1599C132.487 69.1599 126.457 84.7899 126.457 90.6099C126.457 93.3599 126.907 95.4699 127.377 96.9399C127.457 96.9699 127.547 97.0199 127.627 97.0699C127.327 95.1099 127.587 92.9799 129.217 91.1999C129.217 91.1999 126.447 84.6699 133.207 83.4399C136.687 78.9599 142.277 75.7799 147.587 75.7799C151.527 75.7799 155.617 77.5399 158.887 80.2799C167.167 81.0299 165.447 89.7899 165.447 89.7899C165.447 89.7899 167.277 89.7299 167.277 94.1099C167.277 95.1599 167.137 96.2799 166.927 97.3799C167.197 97.1199 167.497 96.9599 167.797 96.8999C168.267 95.4299 168.707 93.3299 168.707 90.5999C168.707 84.7799 162.677 69.1499 147.587 69.1499L147.577 69.1599Z" fill="#FBE298"/>
<path d="M166.918 97.4001C167.118 96.3001 167.268 95.1801 167.268 94.1301C167.268 89.7501 165.438 89.8101 165.438 89.8101C165.438 89.8101 167.008 81.7901 159.878 80.4501C159.558 80.3901 159.228 80.3401 158.878 80.3101C155.608 77.5701 151.518 75.8101 147.578 75.8101C142.288 75.8101 136.708 78.9801 133.228 83.4401V83.4701C133.048 83.5001 132.898 83.5501 132.728 83.5901C132.498 83.6401 132.258 83.6901 132.048 83.7601C131.908 83.8101 131.798 83.8701 131.668 83.9201C131.468 84.0001 131.268 84.0701 131.088 84.1601C130.978 84.2201 130.898 84.2801 130.798 84.3401C130.638 84.4401 130.458 84.5301 130.318 84.6401C130.238 84.7001 130.178 84.7701 130.108 84.8401C129.978 84.9601 129.828 85.0801 129.718 85.2001C129.668 85.2601 129.628 85.3301 129.578 85.3901C129.468 85.5301 129.358 85.6601 129.278 85.8101C129.248 85.8701 129.228 85.9301 129.198 85.9801C129.118 86.1401 129.028 86.3001 128.968 86.4601C128.948 86.5101 128.938 86.5701 128.918 86.6201C128.858 86.7901 128.808 86.9601 128.768 87.1301C128.768 87.1701 128.758 87.2201 128.748 87.2601C128.718 87.4401 128.688 87.6201 128.668 87.8001C128.668 87.8301 128.668 87.8601 128.668 87.8801C128.658 88.0701 128.648 88.2701 128.648 88.4601C128.648 88.4701 128.648 88.4801 128.648 88.5001C128.668 89.1301 128.768 89.7201 128.878 90.1801C128.878 90.1801 128.878 90.1901 128.878 90.2001C128.988 90.6501 129.108 90.9801 129.168 91.1201C129.188 91.1801 129.208 91.2101 129.208 91.2101C128.968 91.4801 128.758 91.7501 128.578 92.0301C128.518 92.1201 128.468 92.2101 128.408 92.3001C128.298 92.4901 128.188 92.6901 128.098 92.8901C128.048 93.0001 127.998 93.1001 127.958 93.2101C127.878 93.4001 127.818 93.6001 127.768 93.8001C127.698 94.0301 127.648 94.2701 127.608 94.5001C127.588 94.6201 127.558 94.7401 127.548 94.8701C127.528 95.0801 127.518 95.2901 127.508 95.5001C127.508 95.5501 127.508 95.6001 127.508 95.6601C127.508 96.1401 127.538 96.6201 127.618 97.0901C127.618 97.0901 127.608 97.0901 127.598 97.0901C128.088 100.32 130.108 103.09 130.108 103.09C130.108 97.9601 131.438 89.8801 134.498 86.8201C137.558 83.7601 139.878 85.7301 143.058 85.7301C145.078 85.7301 146.368 84.5401 147.038 82.5101C147.858 84.6801 150.728 87.9301 160.448 88.7601C160.448 88.7601 155.428 87.2301 151.308 84.6701C151.838 84.7601 152.378 84.8001 152.918 84.8001C156.838 84.8001 159.058 85.1401 160.928 87.0101C164.898 90.9801 164.908 104.16 164.908 104.16C164.908 104.16 166.258 100.89 166.908 97.4001H166.918Z" fill="#CC5605"/>
<path d="M65.9101 341.22C54.0301 332.98 49.1701 344.6 46.0601 342.45C43.3601 340.58 53.0901 334.33 39.0501 324.59C25.0101 314.85 9.50013 320.89 1.91013 331.82C-5.66987 342.75 -4.07987 351.99 -4.07987 351.99C-4.07987 351.99 -3.03987 349.72 -2.18987 348.5C5.17013 337.88 -3.72987 344.53 -2.20987 352.95C0.790126 369.52 14.1801 376.31 14.8001 379.74C15.4201 383.17 14.9801 387.26 14.9801 387.26C14.9801 387.26 19.9001 381.18 24.3601 380.37C30.4201 379.27 52.3801 382.34 56.5601 376.31C58.0201 374.21 41.9501 354.28 50.2901 352.77C58.6301 351.26 64.6001 377.49 65.5201 377.32C66.6601 377.11 79.4101 350.57 65.9101 341.2V341.22ZM17.2101 353.99C12.7601 356.05 8.87013 357.08 8.50013 356.3C8.14013 355.52 11.4501 353.22 15.8901 351.16C20.3401 349.1 24.2301 348.07 24.6001 348.85C24.9601 349.63 21.6501 351.93 17.2101 353.99ZM26.7001 333.51C21.8201 331.94 18.1501 329.78 18.5001 328.71C18.8501 327.63 23.0901 328.03 27.9601 329.61C32.8401 331.18 36.5101 333.33 36.1601 334.41C35.8101 335.49 31.5701 335.09 26.7001 333.51Z" fill="#0B6830"/>
<path d="M41.8114 284.31C26.6914 284.31 24.3414 294.22 23.1614 294.22H20.8114C17.4514 294.22 16.6114 288.68 3.17141 288.68C-7.57859 288.68 -14.8086 294.9 -14.8086 302.62C-14.8086 313.54 9.72141 327.99 9.72141 327.99C9.72141 327.99 6.86141 323.12 6.86141 320.26C6.86141 311.02 20.9714 297.24 20.9714 305.64C20.9714 308.5 11.5614 319.92 11.5614 330.17C11.5614 340.42 32.5614 338.91 35.2514 338.91C37.9414 338.91 40.1214 341.43 40.1214 341.43C40.1214 335.55 64.1914 324.81 64.1914 301.32C64.1914 292.34 53.2314 284.31 41.8014 284.31H41.8114ZM3.88141 303.99C-0.738593 307.86 -4.19859 315.08 -4.71859 314.46C-5.08859 314.02 -1.00859 305.88 5.78141 300.2C8.72141 297.74 14.9114 293.79 16.4014 295.58C17.8914 297.36 11.6814 297.48 3.88141 304V303.99Z" fill="#0B6830"/>
<path d="M-8.70094 289.07C-8.70094 289.07 -8.70094 279.33 -5.95094 276.48C3.47906 266.66 41.7891 286.17 27.8391 272.79C19.1791 264.47 6.15906 271.26 6.15906 271.26C6.15906 271.26 8.80906 264.27 15.4091 257.4C16.6491 256.11 18.0091 255 19.4491 254.05C20.8291 254.57 28.8691 257.81 35.6091 264.27C42.9991 271.37 42.7091 263.5 36.1591 257.22C30.4991 251.79 21.9891 253.32 19.7891 253.84C31.9591 246.13 49.8491 250.06 56.3091 256.26C63.5991 263.26 54.1891 278.67 50.9691 278.74C25.9891 279.25 -13.2109 307.25 -13.2109 307.25C-13.2109 307.25 -10.2309 299.56 -3.23094 292.27C1.93906 286.88 12.1091 287.85 12.0391 284.19C11.8691 276.08 -8.68094 289.07 -8.68094 289.07H-8.70094Z" fill="#0B6830"/>
<path d="M0.460938 298.2C13.8609 290.59 37.3709 279.01 50.9509 278.74C55.4409 278.65 64.3009 273.01 59.4409 268.35C52.5409 261.72 39.6209 268.41 35.2309 272.99C31.1709 277.22 29.1209 281.33 28.1709 282.32C26.7509 283.8 15.8209 282.64 11.4209 287.22C7.03094 291.8 0.460938 298.21 0.460938 298.21V298.2Z" fill="#00AE42"/>
<path d="M91.8904 320.53C82.8704 314.54 93.4104 314.65 103.9 321.61C114.39 328.58 111.59 339.98 113.24 341.08C114.9 342.18 125.51 300.52 98.1504 282.35C65.5804 260.72 61.6104 296.04 56.5504 297.06C51.5004 298.08 46.1004 277.66 39.0604 279.08C32.4404 280.42 39.7804 308.39 37.5804 316.38C40.4604 311.34 49.3704 297.33 52.5704 299.46C56.2504 301.9 47.5604 305.41 41.6904 314.24C35.8204 323.07 59.5604 338.04 60.4104 336.76C61.2704 335.47 53.5604 319.92 59.5104 310.97C61.6504 307.75 64.8604 305.91 67.3504 307.56C73.3304 311.53 66.5304 330.2 62.7404 335.9C58.9504 341.6 78.9404 361.07 79.6304 360.93C80.5004 360.75 76.9304 318.82 90.8504 328.07C102.81 336.02 95.2104 355.23 96.1704 359.98C97.4504 366.31 109.87 371.03 111.5 379.09C113 386.54 107.31 389.92 108.23 390.53C109.15 391.14 113.13 387.47 115.82 383.42C127.89 365.26 109.55 332.26 91.8804 320.53H91.8904ZM78.8404 300.45C78.4104 298.31 96.9304 295.5 106.46 301.83C109.39 303.77 109.88 305.03 109.2 306.04C108.28 307.42 106.32 306.78 105.03 305.92C95.4604 299.56 79.2604 302.59 78.8304 300.45H78.8404Z" fill="#00AE42"/>
<path d="M-17.1903 336.26C-17.4003 339.72 -19.8403 345.66 -18.6303 345.73C-17.4203 345.8 -14.2103 335.92 -1.23033 336.7C2.05967 336.9 5.47967 337.8 5.41967 338.84C5.26967 341.26 -17.6403 342.22 -12.8403 347.64C-9.59033 351.31 -3.30033 362.3 -3.30033 362.3C-3.22033 360.91 -3.14033 359.59 -3.06033 358.26C-2.42033 347.76 7.61967 341.15 10.1397 344C12.4197 346.57 -3.20033 357.62 1.51967 362.94C4.44967 366.25 12.9097 375.8 22.7797 376.39C27.6297 376.68 32.1497 373.83 35.2597 374.02C42.1297 374.44 51.3897 378.91 53.4997 377.04C53.4997 377.04 46.7897 367.25 41.4297 361.19C33.5697 352.31 23.2997 346.77 32.3097 347.31C37.4997 347.62 56.1097 354.08 55.1397 370.13C54.9897 372.61 54.3397 374.72 54.3397 374.72C54.3397 374.72 61.9797 370.08 62.5197 361.08C63.2897 348.44 54.9397 348.57 55.2397 343.49C55.6997 335.87 49.8797 332.51 39.1397 331.86C30.9397 331.36 17.0897 330.52 12.8197 330.27C6.69967 329.9 6.53967 336.32 3.99967 336.17C1.22967 336 -0.200329 313.67 -12.8403 312.9C-25.4803 312.13 -17.0003 332.81 -17.2103 336.27L-17.1903 336.26ZM18.3397 336.85C18.3897 336.04 22.8097 333.88 33.6597 334.53C45.8997 335.27 53.7997 342.59 53.6997 344.09C53.6097 345.59 44.3597 339.47 30.0497 338.6C25.5497 338.33 18.2597 338.12 18.3397 336.85Z" fill="#00AE42"/>
</g>
<defs>
<linearGradient id="paint0_linear_14040_43797" x1="203.419" y1="149.54" x2="203.419" y2="86.23" gradientUnits="userSpaceOnUse">
<stop stop-color="#A9DDF7" stop-opacity="0"/>
<stop offset="0.09" stop-color="#9AD7F6" stop-opacity="0.16"/>
<stop offset="0.22" stop-color="#86D0F6" stop-opacity="0.38"/>
<stop offset="0.35" stop-color="#74CAF5" stop-opacity="0.57"/>
<stop offset="0.49" stop-color="#66C5F5" stop-opacity="0.72"/>
<stop offset="0.62" stop-color="#5BC1F5" stop-opacity="0.84"/>
<stop offset="0.75" stop-color="#53BFF5" stop-opacity="0.93"/>
<stop offset="0.88" stop-color="#4EBDF5" stop-opacity="0.98"/>
<stop offset="1" stop-color="#4DBDF5"/>
</linearGradient>
<linearGradient id="paint1_linear_14040_43797" x1="174.47" y1="48.9498" x2="246.06" y2="120.54" gradientUnits="userSpaceOnUse">
<stop stop-color="#0053E2" stop-opacity="0"/>
<stop offset="1" stop-color="#A9DDF7"/>
</linearGradient>
<linearGradient id="paint2_linear_14040_43797" x1="235.86" y1="183.69" x2="195.92" y2="146.39" gradientUnits="userSpaceOnUse">
<stop stop-color="#0053E2" stop-opacity="0"/>
<stop offset="1" stop-color="#A9DDF7"/>
</linearGradient>
<linearGradient id="paint3_linear_14040_43797" x1="37.29" y1="108.33" x2="62.47" y2="108.33" gradientUnits="userSpaceOnUse">
<stop stop-color="#F59CC0"/>
<stop offset="1" stop-color="#F4BDD3"/>
</linearGradient>
<linearGradient id="paint4_linear_14040_43797" x1="235.661" y1="222.53" x2="236.611" y2="245.42" gradientUnits="userSpaceOnUse">
<stop stop-color="#FFCE4D"/>
<stop offset="1" stop-color="#FFC220"/>
</linearGradient>
<linearGradient id="paint5_linear_14040_43797" x1="164.99" y1="345" x2="164.99" y2="323.46" gradientUnits="userSpaceOnUse">
<stop stop-color="#E09E0B"/>
<stop offset="1" stop-color="#FFC220" stop-opacity="0"/>
</linearGradient>
<clipPath id="clip0_14040_43797">
<rect width="288" height="360" fill="white" transform="translate(0.386719)"/>
</clipPath>
</defs>
</svg>
