<svg width="290" height="360" viewBox="0 0 290 360" fill="none" xmlns="http://www.w3.org/2000/svg">
<g clip-path="url(#clip0_14040_43798)">
<path d="M289.196 0H0.0664062V360H289.196V0Z" fill="#A9DDF7"/>
<path d="M289.196 0H0.0664062V360H289.196V0Z" fill="#4DBDF5"/>
<path opacity="0.4" d="M289.194 61.8102C285.934 64.1502 282.504 65.8402 278.674 65.8402C278.674 65.8402 269.974 43.9302 251.494 43.9302C240.314 43.9302 236.254 52.4802 236.254 52.4802C236.254 52.4802 235.024 50.3902 231.004 50.3902C226.984 50.3902 225.274 54.0002 225.274 54.0002C225.274 54.0002 221.164 51.1002 215.574 51.1002C203.874 51.1002 202.234 62.6702 196.194 62.6702C191.354 62.6702 190.904 57.8902 183.004 57.8902C175.104 57.8902 171.314 64.6402 171.314 64.6402C171.314 64.6402 169.364 63.3002 165.714 63.3002C156.994 63.3002 148.014 74.2202 148.014 74.2202C148.014 74.2202 146.414 69.7102 139.034 69.7102C128.074 69.7102 122.714 83.2902 107.504 83.2902C99.6142 83.2902 95.3542 80.9402 86.2642 80.9402C80.0042 80.9402 76.1742 83.1602 76.1742 83.1602C76.1742 83.1602 75.6042 79.2602 71.8842 79.2602C69.4242 79.2602 67.4842 79.8102 65.9242 79.8102C57.5042 79.8102 59.2242 70.3002 46.3942 70.3002C33.5642 70.3002 22.1642 79.8802 22.1642 79.8802C22.1642 79.8802 22.8942 76.2102 18.8742 76.2102C13.7542 76.2102 12.8042 81.9302 0.0742188 82.5402V107.31H289.204V61.8202L289.194 61.8102Z" fill="white"/>
<path opacity="0.4" d="M289.195 185.21C282.435 180.37 273.165 175.85 261.495 175.85C249.825 175.85 248.285 173.8 239.685 173.8C236.885 173.8 235.465 176.59 235.465 176.59C235.465 176.59 233.325 170.5 223.165 170.5C208.265 170.5 207.515 164.11 202.105 164.11C198.085 164.11 198.815 167.78 198.815 167.78C198.815 167.78 187.405 158.2 174.585 158.2C161.765 158.2 163.475 167.71 155.055 167.71C153.495 167.71 151.545 167.16 149.095 167.16C145.365 167.16 144.805 171.06 144.805 171.06C144.805 171.06 140.975 168.84 134.715 168.84C125.625 168.84 121.375 171.19 113.475 171.19C98.2747 171.19 92.9047 157.61 81.9447 157.61C74.5747 157.61 72.9647 162.12 72.9647 162.12C72.9647 162.12 63.9847 151.2 55.2647 151.2C51.6147 151.2 49.6647 152.54 49.6647 152.54C49.6647 152.54 45.8647 145.79 37.9747 145.79C30.0847 145.79 29.6247 150.57 24.7847 150.57C18.7447 150.57 17.1047 139 5.40469 139C3.38469 139 1.56469 139.38 0.0546875 139.86V195.2H289.185V185.2L289.195 185.21Z" fill="white"/>
<path d="M5.36656 305.18H12.4466V314.01H20.1566V305.18H27.2366V314.07H34.9466V305.18H42.0266V314.01H49.7366V305.18H56.8166V314.01H64.5266V305.18H71.6066V314.01H79.3166V305.18H86.3966V314.01H94.1066V305.18H101.187V314.01H108.897V305.18H115.977V314.01H123.687V305.18H130.767V314.01H138.477V235.83C138.477 233.72 136.747 232 134.617 232C132.487 232 130.757 233.71 130.757 235.83V246.28H123.677V235.83C123.677 233.72 121.947 232 119.817 232C117.687 232 115.957 233.71 115.957 235.83V246.28H108.877V235.83C108.877 233.72 107.147 232 105.017 232C102.887 232 101.157 233.71 101.157 235.83V246.28H94.0766V235.83C94.0766 233.72 92.3466 232 90.2166 232C88.0866 232 86.3566 233.71 86.3566 235.83V246.28H79.2766V235.83C79.2766 233.72 77.5466 232 75.4166 232C73.2866 232 71.5566 233.71 71.5566 235.83V246.28H64.4766V235.83C64.4766 233.72 62.7466 232 60.6166 232C58.4866 232 56.7566 233.71 56.7566 235.83V246.28H49.6766V235.83C49.6766 233.72 47.9466 232 45.8166 232C43.6866 232 41.9566 233.71 41.9566 235.83V246.28H34.8766V235.89C34.8766 233.78 33.1466 232.06 31.0166 232.06C28.8866 232.06 27.1566 233.77 27.1566 235.89V246.28H20.0766V235.83C20.0766 233.72 18.3466 232 16.2166 232C14.0866 232 12.3566 233.71 12.3566 235.83V246.28H5.27656V235.83C5.27656 233.72 3.54656 232 1.41656 232C0.906563 232 0.416562 232.1 -0.0234375 232.28V314H5.27656V305.17L5.36656 305.18ZM123.737 251.89H130.817V299.59H123.737V251.89ZM108.937 251.89H116.017V299.59H108.937V251.89ZM94.1466 251.89H101.227V299.59H94.1466V251.89ZM79.3466 251.89H86.4266V299.59H79.3466V251.89ZM64.5466 251.89H71.6266V299.59H64.5466V251.89ZM49.7566 251.89H56.8366V299.59H49.7566V251.89ZM34.9566 251.89H42.0366V299.59H34.9566V251.89ZM20.1566 251.89H27.2366V299.59H20.1566V251.89ZM5.36656 251.89H12.4466V299.59H5.36656V251.89Z" fill="white"/>
<path d="M282.125 235.84C282.125 233.73 280.395 232.01 278.265 232.01C276.135 232.01 274.405 233.72 274.405 235.84V246.29H267.325V235.84C267.325 233.73 265.595 232.01 263.465 232.01C261.335 232.01 259.605 233.72 259.605 235.84V246.29H252.525V235.84C252.525 233.73 250.795 232.01 248.665 232.01C246.535 232.01 244.805 233.72 244.805 235.84V246.29H237.725V235.84C237.725 233.73 235.995 232.01 233.865 232.01C231.735 232.01 230.005 233.72 230.005 235.84V246.29H222.925V235.9C222.925 233.79 221.195 232.07 219.065 232.07C216.935 232.07 215.205 233.78 215.205 235.9V246.29H208.125V235.84C208.125 233.73 206.395 232.01 204.265 232.01C202.135 232.01 200.405 233.72 200.405 235.84V246.29H193.325V235.84C193.325 233.73 191.595 232.01 189.465 232.01C187.335 232.01 185.605 233.72 185.605 235.84V246.29H178.525V235.84C178.525 233.73 176.795 232.01 174.665 232.01C172.535 232.01 170.805 233.72 170.805 235.84V246.29H163.725V235.84C163.725 233.73 161.995 232.01 159.865 232.01C157.735 232.01 156.005 233.72 156.005 235.84V246.29H151.855V251.88H156.005V299.58H151.855V305.17H156.005V314H163.715V305.17H170.795V314H178.505V305.17H185.585V314H193.295V305.17H200.375V314H208.085V305.17H215.165V314.06H222.875V305.17H229.955V314H237.665V305.17H244.745V314H252.455V305.17H259.535V314H267.245V305.17H274.325V314H282.035V305.17H289.105V299.58H282.035V251.88H289.105V246.29H282.035V235.84H282.125ZM170.845 299.59H163.765V251.89H170.845V299.59ZM185.635 299.59H178.555V251.89H185.635V299.59ZM200.435 299.59H193.355V251.89H200.435V299.59ZM215.225 299.59H208.145V251.89H215.225V299.59ZM230.025 299.59H222.945V251.89H230.025V299.59ZM244.825 299.59H237.745V251.89H244.825V299.59ZM259.615 299.59H252.535V251.89H259.615V299.59ZM274.415 299.59H267.335V251.89H274.415V299.59Z" fill="white"/>
<path d="M232.307 235.84C232.307 234.12 233.447 232.66 235.027 232.18C234.667 232.07 234.287 232.01 233.887 232.01C231.757 232.01 230.027 233.72 230.027 235.84V246.29H232.307V235.84Z" fill="#4DBDF5"/>
<path d="M261.897 235.84C261.897 234.12 263.037 232.66 264.617 232.18C264.257 232.07 263.877 232.01 263.477 232.01C261.347 232.01 259.617 233.72 259.617 235.84V246.29H261.897V235.84Z" fill="#4DBDF5"/>
<path d="M247.1 235.84C247.1 234.12 248.24 232.66 249.82 232.18C249.46 232.07 249.08 232.01 248.68 232.01C246.55 232.01 244.82 233.72 244.82 235.84V246.29H247.1V235.84Z" fill="#4DBDF5"/>
<path d="M276.698 235.84C276.698 234.12 277.838 232.66 279.418 232.18C279.058 232.07 278.678 232.01 278.278 232.01C276.148 232.01 274.418 233.72 274.418 235.84V246.29H276.698V235.84Z" fill="#4DBDF5"/>
<path d="M173.128 251.89H170.848V299.59H173.128V251.89Z" fill="#4DBDF5"/>
<path d="M276.698 251.89H274.418V299.59H276.698V251.89Z" fill="#4DBDF5"/>
<path d="M187.917 251.89H185.637V299.59H187.917V251.89Z" fill="#4DBDF5"/>
<path d="M158.327 251.89H156.047V299.59H158.327V251.89Z" fill="#4DBDF5"/>
<path d="M202.717 251.89H200.438V299.59H202.717V251.89Z" fill="#4DBDF5"/>
<path d="M261.897 251.89H259.617V299.59H261.897V251.89Z" fill="#4DBDF5"/>
<path d="M217.507 251.89H215.227V299.59H217.507V251.89Z" fill="#4DBDF5"/>
<path d="M247.108 251.89H244.828V299.59H247.108V251.89Z" fill="#4DBDF5"/>
<path d="M232.307 251.89H230.027V299.59H232.307V251.89Z" fill="#4DBDF5"/>
<path d="M247.108 305.18H244.828V314.01H247.108V305.18Z" fill="#4DBDF5"/>
<path d="M261.897 305.18H259.617V314.01H261.897V305.18Z" fill="#4DBDF5"/>
<path d="M217.507 305.18H215.227V314.07H217.507V305.18Z" fill="#4DBDF5"/>
<path d="M232.307 305.18H230.027V314.01H232.307V305.18Z" fill="#4DBDF5"/>
<path d="M202.717 305.18H200.438V314.01H202.717V305.18Z" fill="#4DBDF5"/>
<path d="M187.917 305.18H185.637V314.01H187.917V305.18Z" fill="#4DBDF5"/>
<path d="M276.698 305.18H274.418V314.01H276.698V305.18Z" fill="#4DBDF5"/>
<path d="M187.917 235.84C187.917 234.12 189.057 232.66 190.637 232.18C190.277 232.07 189.897 232.01 189.497 232.01C187.367 232.01 185.637 233.72 185.637 235.84V246.29H187.917V235.84Z" fill="#4DBDF5"/>
<path d="M173.12 235.84C173.12 234.12 174.26 232.66 175.84 232.18C175.48 232.07 175.1 232.01 174.7 232.01C172.57 232.01 170.84 233.72 170.84 235.84V246.29H173.12V235.84Z" fill="#4DBDF5"/>
<path d="M217.507 235.9C217.507 234.18 218.647 232.72 220.227 232.24C219.867 232.13 219.487 232.07 219.087 232.07C216.957 232.07 215.227 233.78 215.227 235.9V246.29H217.507V235.9Z" fill="#4DBDF5"/>
<path d="M202.717 235.84C202.717 234.12 203.857 232.66 205.438 232.18C205.077 232.07 204.698 232.01 204.298 232.01C202.168 232.01 200.438 233.72 200.438 235.84V246.29H202.717V235.84Z" fill="#4DBDF5"/>
<path d="M158.327 235.84C158.327 234.12 159.467 232.66 161.047 232.18C160.687 232.07 160.307 232.01 159.907 232.01C157.777 232.01 156.047 233.72 156.047 235.84V246.29H158.327V235.84Z" fill="#4DBDF5"/>
<path d="M158.327 305.18H156.047V314.01H158.327V305.18Z" fill="#4DBDF5"/>
<path d="M173.128 305.18H170.848V314.01H173.128V305.18Z" fill="#4DBDF5"/>
<path d="M154.178 299.59H151.898V305.18H154.178V299.59Z" fill="#4DBDF5"/>
<path d="M154.178 246.29H151.898V251.88H154.178V246.29Z" fill="#4DBDF5"/>
<path d="M133.096 235.84C133.096 234.12 134.236 232.66 135.816 232.18C135.456 232.07 135.076 232.01 134.676 232.01C132.546 232.01 130.816 233.72 130.816 235.84V246.29H133.096V235.84Z" fill="#4DBDF5"/>
<path d="M118.303 251.89H116.023V299.59H118.303V251.89Z" fill="#4DBDF5"/>
<path d="M44.3152 235.84C44.3152 234.12 45.4552 232.66 47.0352 232.18C46.6752 232.07 46.2952 232.01 45.8952 232.01C43.7652 232.01 42.0352 233.72 42.0352 235.84V246.29H44.3152V235.84Z" fill="#4DBDF5"/>
<path d="M133.096 251.89H130.816V299.59H133.096V251.89Z" fill="#4DBDF5"/>
<path d="M118.296 235.84C118.296 234.12 119.436 232.66 121.016 232.18C120.656 232.07 120.276 232.01 119.876 232.01C117.746 232.01 116.016 233.72 116.016 235.84V246.29H118.296V235.84Z" fill="#4DBDF5"/>
<path d="M103.507 235.84C103.507 234.12 104.647 232.66 106.227 232.18C105.867 232.07 105.487 232.01 105.087 232.01C102.957 232.01 101.227 233.72 101.227 235.84V246.29H103.507V235.84Z" fill="#4DBDF5"/>
<path d="M73.9167 235.84C73.9167 234.12 75.0567 232.66 76.6367 232.18C76.2767 232.07 75.8967 232.01 75.4967 232.01C73.3667 232.01 71.6367 233.72 71.6367 235.84V246.29H73.9167V235.84Z" fill="#4DBDF5"/>
<path d="M59.1159 235.84C59.1159 234.12 60.2559 232.66 61.8359 232.18C61.4759 232.07 61.0959 232.01 60.6959 232.01C58.5659 232.01 56.8359 233.72 56.8359 235.84V246.29H59.1159V235.84Z" fill="#4DBDF5"/>
<path d="M88.7058 235.84C88.7058 234.12 89.8458 232.66 91.4258 232.18C91.0658 232.07 90.6858 232.01 90.2858 232.01C88.1558 232.01 86.4258 233.72 86.4258 235.84V246.29H88.7058V235.84Z" fill="#4DBDF5"/>
<path d="M103.507 251.89H101.227V299.59H103.507V251.89Z" fill="#4DBDF5"/>
<path d="M88.7058 251.89H86.4258V299.59H88.7058V251.89Z" fill="#4DBDF5"/>
<path d="M14.7253 251.89H12.4453V299.59H14.7253V251.89Z" fill="#4DBDF5"/>
<path d="M73.9167 251.89H71.6367V299.59H73.9167V251.89Z" fill="#4DBDF5"/>
<path d="M29.5261 251.89H27.2461V299.59H29.5261V251.89Z" fill="#4DBDF5"/>
<path d="M59.1159 251.89H56.8359V299.59H59.1159V251.89Z" fill="#4DBDF5"/>
<path d="M44.3152 251.89H42.0352V299.59H44.3152V251.89Z" fill="#4DBDF5"/>
<path d="M59.1159 305.18H56.8359V314.01H59.1159V305.18Z" fill="#4DBDF5"/>
<path d="M73.9167 305.18H71.6367V314.01H73.9167V305.18Z" fill="#4DBDF5"/>
<path d="M29.5261 305.18H27.2461V314.07H29.5261V305.18Z" fill="#4DBDF5"/>
<path d="M44.3152 305.18H42.0352V314.01H44.3152V305.18Z" fill="#4DBDF5"/>
<path d="M14.7253 305.18H12.4453V314.01H14.7253V305.18Z" fill="#4DBDF5"/>
<path d="M103.507 305.18H101.227V314.01H103.507V305.18Z" fill="#4DBDF5"/>
<path d="M118.303 305.18H116.023V314.01H118.303V305.18Z" fill="#4DBDF5"/>
<path d="M133.096 305.18H130.816V314.01H133.096V305.18Z" fill="#4DBDF5"/>
<path d="M88.7058 305.18H86.4258V314.01H88.7058V305.18Z" fill="#4DBDF5"/>
<path d="M29.5261 235.9C29.5261 234.18 30.6661 232.72 32.2461 232.24C31.8861 232.13 31.5061 232.07 31.1061 232.07C28.9761 232.07 27.2461 233.78 27.2461 235.9V246.29H29.5261V235.9Z" fill="#4DBDF5"/>
<path d="M14.7253 235.84C14.7253 234.12 15.8653 232.66 17.4453 232.18C17.0853 232.07 16.7053 232.01 16.3053 232.01C14.1753 232.01 12.4453 233.72 12.4453 235.84V246.29H14.7253V235.84Z" fill="#4DBDF5"/>
<path d="M268.735 310.61L269.265 308.07C268.895 308.46 268.335 308.7 267.845 308.85C267.085 309.09 266.285 308.63 266.085 307.85C265.795 306.69 265.815 305.17 265.815 305.17L262.895 307.7C260.405 300.96 266.885 291.45 266.885 291.45C258.555 299.16 253.805 308.43 253.805 308.43C252.995 306.64 254.035 302.58 254.035 302.58C251.715 305.62 250.345 309.65 250.045 310.59H217.865C217.485 309.58 218.395 307.43 218.395 307.43L215.385 310.44L216.355 305.91C214.525 306.85 212.735 309.14 212.735 309.14C211.875 303.65 214.935 297.99 214.935 297.99C210.775 302.15 208.895 309.28 208.895 309.28C207.025 307.36 204.585 306.29 204.585 306.29C205.715 307.93 206.305 309.82 206.515 310.59H9.54469C9.71469 309.77 10.5247 306.94 10.5247 306.94L8.02469 310.5C8.02469 310.5 7.07469 308.7 7.48469 305.89C7.48469 305.89 5.98469 308.61 5.94469 310.59C5.94469 310.59 4.52469 307.36 6.09469 303.5C6.09469 303.5 3.50469 307.52 3.20469 310.51C3.20469 310.51 2.56469 304.38 7.91469 297.28C7.91469 297.28 2.34469 300.44 0.394688 306.52C0.394688 306.52 0.284688 305.75 0.0546875 304.76V359.97H289.185V310.58H268.715L268.735 310.61Z" fill="#6ABF48"/>
<path d="M57.0062 114.72C76.2534 114.72 91.8562 99.1171 91.8562 79.87C91.8562 60.6229 76.2534 45.02 57.0062 45.02C37.7591 45.02 22.1562 60.6229 22.1562 79.87C22.1562 99.1171 37.7591 114.72 57.0062 114.72Z" fill="#A9DDF7"/>
<path d="M25.847 113.78C23.477 112.58 21.557 110.65 20.357 108.29C20.187 107.95 20.247 107.53 20.517 107.26L36.217 91.5599L52.377 75.3999L55.557 78.5799L58.737 81.7599L42.577 97.9199L26.877 113.62C26.607 113.89 26.187 113.96 25.847 113.78Z" fill="#0053E2"/>
<path d="M91.5981 42.6098C89.5481 40.5898 75.7781 39.9698 59.4981 56.2498L48.2181 67.5298C47.2981 68.4498 47.1681 69.8998 47.9081 70.9698L51.5981 76.3198L51.1281 75.6398L52.5281 77.6798L56.9181 81.9498L58.5681 83.0898L61.3881 85.0298L63.2381 86.2998C64.3081 87.0398 65.7581 86.9098 66.6781 85.9898L77.9581 74.7098C94.2381 58.4298 93.6281 44.6598 91.5981 42.6098Z" fill="#E8E0CE"/>
<path d="M91.5981 42.6098C89.5481 40.5898 75.7781 39.9698 59.4981 56.2498L48.2181 67.5298C47.2981 68.4498 47.1681 69.8998 47.9081 70.9698L51.5981 76.3198L51.1281 75.6398L52.5281 77.6798L56.9181 81.9498L58.5681 83.0898L61.3881 85.0298L63.2381 86.2998C64.3081 87.0398 65.7581 86.9098 66.6781 85.9898L77.9581 74.7098C94.2381 58.4298 93.6281 44.6598 91.5981 42.6098Z" fill="white"/>
<path d="M58.6619 75.5623L58.6548 75.5552C57.1864 74.0868 54.8057 74.0868 53.3374 75.5552L49.123 79.7696C47.6546 81.2379 47.6546 83.6186 49.123 85.087L49.1301 85.0941C50.5985 86.5624 52.9792 86.5624 54.4475 85.0941L58.6619 80.8797C60.1303 79.4113 60.1303 77.0306 58.6619 75.5623Z" fill="#4DBDF5"/>
<path d="M58.2445 80.3927C59.4668 79.1703 59.4668 77.1885 58.2445 75.9662C57.0222 74.7438 55.0403 74.7438 53.818 75.9662L51.6543 78.1299C50.4319 79.3523 50.4319 81.3341 51.6543 82.5564C52.8766 83.7788 54.8584 83.7788 56.0807 82.5564L58.2445 80.3927Z" fill="#001E60"/>
<path d="M237.136 168.62C257.598 168.62 274.186 152.032 274.186 131.57C274.186 111.108 257.598 94.52 237.136 94.52C216.674 94.52 200.086 111.108 200.086 131.57C200.086 152.032 216.674 168.62 237.136 168.62Z" fill="#A9DDF7"/>
<path d="M250.517 121.96C261.747 110.73 269.987 98.76 269.987 98.76L269.247 97.48L249.547 117.9L250.517 121.96Z" fill="#62612E"/>
<path d="M251.736 120.12L269.256 97.4798L268.516 96.7397C268.516 96.7397 255.986 105.09 245.676 115.4L251.736 120.12Z" fill="white"/>
<path d="M251.157 117.6L250.977 119.53L251.737 120.12L269.257 97.4799L268.917 97.1499L261.797 104.27L251.157 117.6Z" fill="#B2AC8A"/>
<path d="M240.094 132.74C242.007 130.826 242.232 127.949 240.596 126.312C238.959 124.676 236.082 124.901 234.168 126.814C232.254 128.728 232.03 131.606 233.666 133.242C235.302 134.878 238.18 134.654 240.094 132.74Z" fill="#001E60"/>
<path d="M235.103 139.368L227.551 131.816L224.171 135.196L231.723 142.748L235.103 139.368Z" fill="#BEB286"/>
<path d="M244.105 126.264L240.598 122.757L237.345 126.01L240.852 129.517L244.105 126.264Z" fill="#001E60"/>
<path d="M248.397 136.16C249.857 135.84 250.907 134.56 250.977 133.07L252.007 120.91C252.557 119.26 252.177 117.36 250.867 116.05C249.557 114.74 247.657 114.36 246.007 114.91L233.857 115.96C232.367 116.03 231.087 117.08 230.767 118.54C230.407 120.16 229.477 122.41 227.157 124.74C222.697 129.2 218.867 130.04 211.927 136.98C204.177 144.73 198.317 154.47 196.767 157.15C196.527 157.57 196.597 158.09 196.937 158.44C197.337 158.84 197.997 158.86 198.417 158.47L222.247 136.53H225.487L234.377 127.64L241.387 125.56L239.307 132.57L230.417 141.46V144.7L208.477 168.53C208.087 168.95 208.107 169.6 208.507 170.01C208.847 170.35 209.377 170.42 209.797 170.18C212.477 168.63 222.217 162.77 229.967 155.02C236.907 148.08 237.747 144.25 242.207 139.79C244.537 137.46 246.787 136.53 248.407 136.18L248.397 136.16Z" fill="#0053E2"/>
<path d="M247.518 121.59C248.728 121.59 249.708 120.609 249.708 119.4C249.708 118.19 248.728 117.21 247.518 117.21C246.309 117.21 245.328 118.19 245.328 119.4C245.328 120.609 246.309 121.59 247.518 121.59Z" fill="#4DBDF5"/>
<path d="M225.475 136.52L234.365 127.63L241.375 125.55L242.835 120.63L234.765 123.03L225.875 131.92H222.635L198.805 153.86C198.765 153.89 198.735 153.92 198.695 153.94C197.805 155.36 197.145 156.48 196.755 157.15C196.515 157.57 196.585 158.09 196.925 158.44C197.325 158.84 197.985 158.86 198.405 158.47L222.235 136.53H225.475V136.52Z" fill="#001E60"/>
<path d="M248.793 131.56C247.173 131.92 244.923 132.85 242.593 135.17C238.133 139.63 237.293 143.46 230.353 150.4C224.073 156.68 216.493 161.72 212.413 164.23L208.453 168.53C208.063 168.95 208.083 169.6 208.483 170.01C208.823 170.35 209.353 170.42 209.773 170.18C212.453 168.63 222.193 162.77 229.943 155.02C236.883 148.08 237.723 144.25 242.183 139.79C244.513 137.46 246.763 136.53 248.383 136.18C249.843 135.86 250.893 134.58 250.963 133.09L251.323 128.83C251.113 130.16 250.133 131.27 248.793 131.56Z" fill="#001E60"/>
<path d="M252.023 120.82C252.233 120.16 252.283 119.47 252.193 118.79L252.023 120.82Z" fill="#001E60"/>
<path d="M171.386 113.86C198.337 113.86 220.186 92.0113 220.186 65.0598C220.186 38.1083 198.337 16.2598 171.386 16.2598C144.434 16.2598 122.586 38.1083 122.586 65.0598C122.586 92.0113 144.434 113.86 171.386 113.86Z" fill="#A9DDF7"/>
<path d="M149.645 87.0499L126.965 64.3699C120.985 58.3899 117.695 50.4499 117.695 41.9999C117.695 33.5499 120.985 25.6099 126.965 19.6299C132.945 13.6499 140.885 10.3599 149.335 10.3599C157.785 10.3599 165.725 13.6499 171.705 19.6299C177.685 25.6099 180.975 33.5499 180.975 41.9999H178.975C178.975 34.0899 175.895 26.6399 170.295 21.0499C164.695 15.4499 157.255 12.3699 149.345 12.3699C141.435 12.3699 133.985 15.4499 128.395 21.0499C122.795 26.6499 119.715 34.0899 119.715 41.9999C119.715 49.9099 122.795 57.3599 128.395 62.9499L151.075 85.6299L149.655 87.0499H149.645Z" fill="#0053E2"/>
<path d="M190.986 85.41L187.996 83.69L218.476 30.72C223.166 22.56 227.116 21.6 231.286 20.59C231.776 20.47 232.276 20.35 232.776 20.21L233.676 23.54C233.136 23.68 232.616 23.81 232.096 23.94C228.366 24.85 225.416 25.57 221.456 32.44L190.976 85.41H190.986Z" fill="#0053E2"/>
<path d="M210.248 47.0698H188.098V48.4098H210.248V47.0698Z" fill="#0053E2"/>
<path d="M232.106 21.9096C228.376 22.8196 225.426 23.5396 221.466 30.4096L190.986 83.3796L188.866 82.1597L187.996 83.6796L190.986 85.3997L221.466 32.4296C225.426 25.5596 228.366 24.8396 232.106 23.9296C232.626 23.7996 233.146 23.6796 233.686 23.5296L233.176 21.6396C232.816 21.7296 232.456 21.8196 232.106 21.9096Z" fill="#001E60"/>
<path d="M148.899 97.6001H189.419C190.462 97.6001 191.309 96.7539 191.309 95.7101V43.6401C191.309 42.5963 190.462 41.7501 189.419 41.7501L148.899 41.7501C147.855 41.7501 147.009 42.5963 147.009 43.6401V95.7101C147.009 96.7539 147.855 97.6001 148.899 97.6001Z" fill="#0053E2"/>
<path d="M189.417 94.2098H165.447C161.777 94.2098 158.807 91.2398 158.807 87.5698V43.6498C158.807 42.6098 159.657 41.7598 160.697 41.7598H148.917C147.877 41.7598 147.027 42.6098 147.027 43.6498V95.7198C147.027 96.7598 147.877 97.6098 148.917 97.6098H189.427C190.467 97.6098 191.317 96.7598 191.317 95.7198V92.3298C191.317 93.3698 190.467 94.2198 189.427 94.2198L189.417 94.2098Z" fill="#001E60"/>
<path d="M189.649 45.525C189.649 44.6717 188.957 43.98 188.104 43.98C187.25 43.98 186.559 44.6717 186.559 45.525C186.559 46.3783 187.25 47.07 188.104 47.07C188.957 47.07 189.649 46.3783 189.649 45.525Z" fill="#4DBDF5"/>
<path d="M189.649 49.9797C189.649 49.1236 188.957 48.4297 188.104 48.4297C187.25 48.4297 186.559 49.1236 186.559 49.9797V65.1597C186.559 66.0157 187.25 66.7097 188.104 66.7097C188.957 66.7097 189.649 66.0157 189.649 65.1597V49.9797Z" fill="#4DBDF5"/>
<path d="M127.336 61.8599C122.026 56.0299 119.106 48.5299 119.106 40.5799C119.106 32.6299 122.146 24.8199 127.676 18.9399C127.436 19.1699 127.186 19.3899 126.946 19.6299C120.966 25.6099 117.676 33.5499 117.676 41.9999C117.676 50.4499 120.966 58.3899 126.946 64.3699L149.626 87.0499L151.046 85.6299L128.366 62.9499C128.006 62.5899 127.666 62.2299 127.326 61.8599H127.336Z" fill="#001E60"/>
<mask id="mask0_14040_43798" style="mask-type:luminance" maskUnits="userSpaceOnUse" x="0" y="0" width="290" height="360">
<path d="M289.196 0H0.0664062V360H289.196V0Z" fill="white"/>
</mask>
<g mask="url(#mask0_14040_43798)">
<path d="M131.57 190.58C131.98 189.92 132.19 188.95 132.19 188.35V187.02H131C131.13 188.29 131.33 189.47 131.58 190.58H131.57Z" fill="#ED2100"/>
<path d="M96.1687 182.8C96.1687 174.71 96.1687 168.74 96.1687 168.74L113.319 170.6L130.779 169.37C130.779 169.37 130.779 174.71 130.779 182.8C130.779 214.27 162.149 203.18 182.369 223.4H113.319H37.9688C58.1887 203.18 96.1687 214.27 96.1687 182.8Z" fill="#F7DBC8"/>
<path opacity="0.85" d="M130.777 178.68V169.37L113.317 170.6L96.1672 168.74V182.8C96.1672 189.43 94.4772 194.17 91.6172 197.72C106.027 196.97 118.407 191.81 130.777 178.68Z" fill="#BA7048"/>
<path d="M188.977 301.25C188.567 294.92 188.267 288.96 188.267 285.1C188.267 273.06 190.317 231.37 182.367 223.41C182.037 223.08 181.697 222.75 181.357 222.43C181.167 222.25 180.967 222.08 180.777 221.91C180.647 221.79 180.507 221.67 180.377 221.55C180.077 221.29 179.787 221.04 179.487 220.79C179.477 220.78 179.467 220.77 179.447 220.76C166.787 210.34 150.867 209.86 140.757 203.55C137.597 206.88 129.807 212.6 113.617 212.62C113.567 212.62 113.517 212.62 113.467 212.62C95.9666 212.62 88.2466 205.96 85.5866 202.82C72.8466 210.36 51.4866 209.93 37.9966 223.39C37.9966 223.39 37.9766 223.41 37.9666 223.42C30.1966 231.19 29.4866 248.21 29.4866 275.85V285.8C29.4866 287.33 29.5166 290.78 28.0866 292.21C26.4566 293.84 23.9066 294.08 23.9066 296.39C23.9066 296.7 23.9366 297.01 24.0066 297.3C24.2766 298.51 23.9366 299.81 23.0366 300.67C22.0766 301.58 21.4766 302.87 21.4766 304.3C21.4766 305.13 21.6766 305.91 22.0366 306.6C22.9166 308.29 23.1066 310.25 22.7866 312.12C22.2566 315.24 21.9266 318.47 21.9266 321.74C21.9266 337.34 40.8966 348.76 45.7166 348.76C50.5366 348.76 63.0966 335.53 63.0966 316.77C63.0966 316.48 63.0766 316.17 63.0466 315.86H80.2566V304.39H154.977C154.987 305.19 155.187 305.94 155.537 306.6C156.417 308.29 156.607 310.25 156.287 312.12C155.757 315.24 155.427 318.47 155.427 321.74C155.427 337.34 173.197 348.76 178.017 348.76C184.887 348.76 196.607 335.53 196.607 316.77C196.607 312.44 191.427 304.66 189.007 301.26L188.977 301.25Z" fill="#001E60"/>
<path d="M186.17 430.27C179.42 372.41 159.35 328.57 159.35 328.57L162.94 321.94C163.81 320.34 164.26 318.54 164.26 316.72V273.74C164.26 256.34 156.7 235.73 156.7 235.73H113.31V235.78L113.28 235.73H69.8895C69.8895 235.73 62.3295 256.34 62.3295 273.74V316.72C62.3295 318.54 62.7795 320.34 63.6495 321.94L67.2395 328.57C67.2395 328.57 51.2495 362.18 43.2695 430.27H186.17Z" fill="#0053E2"/>
<path d="M171.879 149.99C156.759 143.11 151.149 105.95 139.319 94.1199C136.379 91.1799 129.449 85.3599 122.629 85.3599C115.809 85.3599 113.379 88.3699 113.379 88.3699L113.359 165.99H146.599C152.929 165.99 157.909 163.55 160.139 156.71C159.589 160.05 157.999 163.19 155.279 165.99C156.699 164.86 158.029 163.58 159.149 162.09C162.519 157.45 163.139 152.31 162.259 147.16C167.779 149.51 171.879 149.99 171.879 149.99Z" fill="#35130C"/>
<path d="M156.697 235.73C150.977 218.98 142.967 206.05 140.207 201.83C139.597 200.91 138.917 200.05 138.147 199.26L132.227 193.18L148.797 235.73" fill="#0053E2"/>
<path d="M38.3784 288.04C38.3784 290.78 32.8984 299.42 32.8984 308.36C32.8984 324.93 47.0884 332.64 49.0384 334.58C49.0384 334.58 59.1284 324.64 59.1284 318.87C59.1284 313.1 58.4084 291.49 58.4084 289.04C58.4084 286.59 60.5684 283.27 60.5684 280.96L38.3784 288.03V288.04Z" fill="#F7DBC8"/>
<path opacity="0.85" d="M58.698 321.2C58.608 321.46 58.518 321.71 58.418 321.96C58.518 321.71 58.618 321.45 58.698 321.2Z" fill="#BA7048"/>
<mask id="mask1_14040_43798" style="mask-type:luminance" maskUnits="userSpaceOnUse" x="43" y="235" width="144" height="196">
<path d="M186.17 430.27C179.42 372.41 159.35 328.57 159.35 328.57L162.94 321.94C163.81 320.34 164.26 318.54 164.26 316.72V273.74C164.26 256.34 156.7 235.73 156.7 235.73H113.31V235.78L113.28 235.73H69.8895C69.8895 235.73 62.3295 256.34 62.3295 273.74V316.72C62.3295 318.54 62.7795 320.34 63.6495 321.94L67.2395 328.57C67.2395 328.57 51.2495 362.18 43.2695 430.27H186.17Z" fill="white"/>
</mask>
<g mask="url(#mask1_14040_43798)">
<path opacity="0.5" d="M55.0395 226.74H54.0195V434.22H55.0395V226.74Z" fill="#4DBDF5"/>
<path opacity="0.5" d="M69.7309 226.74H68.7109V434.22H69.7309V226.74Z" fill="#4DBDF5"/>
<path opacity="0.5" d="M84.4302 226.74H83.4102V434.22H84.4302V226.74Z" fill="#4DBDF5"/>
<path opacity="0.5" d="M99.1294 226.74H98.1094V434.22H99.1294V226.74Z" fill="#4DBDF5"/>
<path opacity="0.5" d="M113.829 226.74H112.809V434.22H113.829V226.74Z" fill="#4DBDF5"/>
<path opacity="0.5" d="M128.52 226.74H127.5V434.22H128.52V226.74Z" fill="#4DBDF5"/>
<path opacity="0.5" d="M143.219 226.74H142.199V434.22H143.219V226.74Z" fill="#4DBDF5"/>
<path opacity="0.5" d="M157.918 226.74H156.898V434.22H157.918V226.74Z" fill="#4DBDF5"/>
<path opacity="0.5" d="M172.61 226.74H171.59V434.22H172.61V226.74Z" fill="#4DBDF5"/>
</g>
<path d="M131.86 328.67L66.0995 326.48L65.0195 333.84H132.53L131.86 328.67Z" fill="#001E60"/>
<path d="M162.939 321.94L137.999 329.38L136.379 332.38L160.709 331.71L162.939 321.94Z" fill="#001E60"/>
<path d="M132.528 330.5H127.628C116.378 330.5 113.328 336.64 113.328 339.68C113.328 342.72 117.138 345.08 120.438 345.08C128.178 345.08 133.648 335.21 133.648 335.21L132.538 330.5H132.528ZM118.268 341.7C116.268 341.7 114.718 341.11 114.718 340.21C114.718 336.77 127.138 334.58 127.138 334.58C127.138 334.58 124.528 341.7 118.268 341.7Z" fill="#001E60"/>
<path d="M138.728 332.38L137.828 334.15C146.108 336.98 147.888 352.67 158.998 352.67C162.168 352.67 164.188 350.6 164.188 348.43C164.188 340.21 138.738 332.39 138.738 332.39L138.728 332.38ZM159.198 349.17C155.218 349.17 151.658 343.81 147.958 339.41C145.708 336.73 143.148 335.68 141.858 334.71C150.468 337.54 161.748 343.45 161.748 347.1C161.748 348.46 160.448 349.17 159.198 349.17Z" fill="#001E60"/>
<path d="M131.858 328.67C131.858 328.67 134.728 329.59 135.878 329.59C137.028 329.59 140.528 328.67 140.528 328.67L138.178 334.73C137.728 335.91 136.588 336.68 135.328 336.68C133.738 336.68 132.418 335.46 132.288 333.88L131.848 328.67H131.858Z" fill="#001E60"/>
<path d="M16.9783 223.35H40.2883C43.8083 223.35 47.0283 225.32 48.6383 228.45L71.0383 272.02C71.5883 273.09 70.8083 274.36 69.6083 274.36H38.6683L14.5183 227.39C13.5683 225.55 14.9083 223.36 16.9783 223.36V223.35Z" fill="#857B43"/>
<path d="M17.1983 227.26H40.5083C42.7983 227.26 44.9083 228.34 46.2483 230.14C46.7183 230.77 47.4283 231.16 48.2083 231.16H48.2383C48.7583 231.16 49.0983 230.61 48.8583 230.14C47.2483 227.01 44.0283 225.04 40.5083 225.04H17.1983C15.7983 225.04 14.7383 226.04 14.4883 227.26H17.1983Z" fill="#B2AC8A"/>
<path d="M113.638 202.02C113.638 202.02 111.228 220.84 126.278 220.84C130.288 220.84 134.728 219.98 134.728 219.98C134.728 219.98 129.008 215.83 125.168 209C121.328 202.17 116.908 202.02 113.638 202.02Z" fill="#A51F0A"/>
<path d="M133.499 190.43C133.499 188.38 132.769 187.02 132.189 187.02C131.729 187.02 131.589 187.02 131.589 187.02C132.079 187.83 132.149 188.85 131.679 189.68C129.069 194.31 117.199 199.88 117.199 199.88C117.199 199.88 115.709 199.09 114.209 199.09C112.019 199.09 110.179 199.56 108.679 200.26C108.539 200.32 108.459 200.35 108.459 200.35C108.459 200.35 94.2589 190.6 94.2589 187.02C94.2589 187.02 92.9089 187 92.9089 188.58V191.55C92.9089 194.42 90.8789 196.71 90.8789 196.71C90.8789 202.22 102.299 204.22 103.959 204.48C103.959 204.48 103.229 205.2 103.229 206.53C103.229 207.86 104.889 209.04 106.219 209.04C113.299 209.04 115.889 204.34 115.889 204.34C115.889 204.34 118.249 204.86 121.229 204.86C131.619 204.86 134.319 199.31 135.009 196.72C135.209 195.98 135.129 195.21 134.799 194.52C134.279 193.43 133.499 191.6 133.499 190.43Z" fill="#ED2100"/>
<path d="M117.627 201.41C117.627 201.41 117.197 202.05 116.977 202.56C116.977 202.56 117.807 203.02 121.007 203.02C124.207 203.02 127.847 200.57 127.847 198.35C127.847 198.02 127.737 197.01 126.687 197.01C124.877 197.01 121.467 201.54 118.527 201.54C117.957 201.54 117.627 201.42 117.627 201.42V201.41Z" fill="#A51F0A"/>
<path opacity="0.85" d="M52.9602 325.85C48.4802 325.85 46.0902 318.41 45.6302 311.46C45.1302 303.98 45.6302 294.74 45.6302 294.74L47.7502 291.1L40.0502 287.5L38.3902 288.03C38.3902 290.77 32.9102 299.41 32.9102 308.35C32.9102 324.92 47.1002 332.63 49.0502 334.57C49.0502 334.57 54.8202 328.88 57.6302 323.61C56.6402 324.91 55.1302 325.84 52.9602 325.84V325.85Z" fill="#BA7048"/>
<path d="M36.6383 285.72L34.4883 292C34.4883 292 40.2083 297.33 48.2583 297.33C56.3083 297.33 60.5783 291.32 60.5783 291.32V280.97L36.6483 285.72H36.6383Z" fill="#F48A16"/>
<path d="M71.968 272.21C71.378 271 70.168 270.26 68.878 270.23C69.068 269.6 69.098 268.92 68.918 268.24C68.438 266.33 66.568 265.11 64.628 265.45C63.828 265.59 62.918 265.74 61.928 265.91C62.758 265.07 63.208 263.88 63.058 262.63C62.808 260.5 60.918 258.95 58.788 259.11L46.478 260.03C47.158 259.45 47.628 258.61 47.728 257.65C47.928 255.71 46.548 253.97 44.618 253.71L26.178 251.26C23.768 250.94 21.548 252.63 21.208 255.04C21.178 255.22 21.168 255.41 21.168 255.59C21.168 255.59 21.168 255.64 21.168 255.67C21.168 255.84 21.168 256 21.198 256.16C21.528 259.69 24.798 262.03 24.798 264.4C24.798 266.89 22.828 267.92 22.828 271.09C22.828 273.23 24.228 275.04 26.158 275.67C27.028 275.95 27.628 276.75 27.628 277.67C27.628 279 28.168 280.2 29.038 281.07C32.298 284.33 40.888 291.12 47.748 291.12C51.118 291.12 60.098 286.44 60.558 281.39L70.278 276.96C72.078 276.14 72.848 274.01 71.988 272.23L71.968 272.21ZM36.838 260.75C35.588 260.84 34.368 261.18 33.238 261.73L32.398 262.15L31.468 260.34L38.288 260.64L36.838 260.75Z" fill="#FFC220"/>
<path d="M64.6297 265.45C63.8297 265.59 62.9197 265.74 61.9297 265.91C61.3097 266.54 60.4897 266.97 59.5497 267.08L38.9797 269.83C37.9597 269.97 36.9597 270.21 35.9997 270.57C35.7197 270.67 35.4497 270.79 35.1797 270.9C34.8897 271.03 34.5997 271.16 34.3097 271.31L30.1797 273.47C32.4897 272.52 34.6897 271.17 37.1097 270.55C38.1597 270.26 39.7197 270.12 40.8097 269.99C42.7897 269.74 44.7797 269.48 46.7697 269.2L68.6797 267.55C67.9697 266.05 66.3297 265.17 64.6397 265.46L64.6297 265.45Z" fill="#F48A16"/>
<path d="M68.8772 270.23C68.4972 271.5 67.4672 272.54 66.0772 272.84L43.0572 277.91C41.7572 278.2 40.5072 278.65 39.3272 279.27L36.1172 280.96L69.0872 274.01C70.3272 273.74 71.2772 272.88 71.7372 271.8C71.0972 270.83 70.0172 270.25 68.8772 270.22V270.23Z" fill="#F48A16"/>
<path d="M52.7864 284.899L52.3164 285.119L60.5664 283.919V281.359L52.7864 284.899Z" fill="#F48A16"/>
<path d="M144.287 130.9C142.817 130.9 140.357 138.8 140.357 138.8L140.317 138.96C139.437 123.79 131.427 103.8 113.367 103.8C95.3066 103.8 87.2966 123.8 86.4166 138.96L86.3766 138.8C86.3766 138.8 83.9266 130.9 82.4466 130.9C80.9666 130.9 80.9766 133.76 80.9766 134.94C80.9766 140.27 84.0666 141.95 84.0666 148.26C84.0666 151.45 84.7966 154.38 88.2266 154.55C88.3366 155.51 88.4266 156.55 88.4666 157.71C89.1666 162.47 91.3866 166.94 94.3066 170.78C95.7566 172.53 97.3266 174.22 98.8266 175.74C101.487 178.2 104.347 180.17 107.007 181.47C109.947 182.75 112.497 183.25 113.367 183.25C114.237 183.25 116.787 182.75 119.727 181.47C122.397 180.17 125.247 178.2 127.907 175.74C129.407 174.21 130.977 172.53 132.427 170.78C135.347 166.95 137.567 162.47 138.267 157.71C138.307 156.55 138.387 155.51 138.507 154.55C141.937 154.37 142.667 151.45 142.667 148.26C142.667 141.95 145.757 140.27 145.757 134.94C145.757 133.76 145.757 130.9 144.287 130.9Z" fill="#F7DBC8"/>
<path opacity="0.85" d="M107.328 179.11C107.328 175.3 115.637 175.06 115.637 173.47C115.637 172.93 114.157 173.08 113.307 173.08C112.457 173.08 111.677 171.9 111.677 170.75C111.677 169.07 113.368 168.06 113.368 168.06V167.35C111.488 167.35 110.697 166.28 110.697 165.59C110.697 164.65 111.497 163.93 111.497 163.93C108.167 163.93 110.398 158.62 110.398 158.62C110.398 158.62 112.537 159.18 113.357 159.18C114.177 159.18 116.637 158.59 117.277 158.59C120.567 158.59 120.827 156.8 120.827 156.8C119.707 158.36 117.607 157.93 117.607 157.93C117.607 157.93 118.478 157.57 118.478 157.26C118.478 157.06 117.607 156.8 117.607 156.8C116.427 156.8 113.607 157.93 113.287 157.93C111.807 157.93 111.008 156.22 111.008 155.05C111.008 151.76 112.957 147.17 112.957 138.18C112.957 134.66 111.378 131.44 109.258 128.7C108.728 128.02 108.787 127.06 109.387 126.44C118.487 117.09 121.957 108.35 121.957 108.35L116.857 107.28L100.637 120.97C99.2475 120.04 98.3075 119.54 98.3075 119.54L97.4075 110.59C90.3675 117.76 86.9375 129.32 86.3775 138.94L86.3375 138.78C86.3375 138.78 83.8875 130.88 82.4075 130.88C80.9275 130.88 80.9375 133.74 80.9375 134.92C80.9375 140.25 84.0275 141.93 84.0275 148.24C84.0275 151.43 84.7575 154.36 88.1875 154.53C88.2975 155.49 88.3875 156.53 88.4275 157.69C89.1275 162.45 91.3475 166.92 94.2675 170.76C95.7175 172.51 97.2875 174.2 98.7875 175.72C101.448 178.18 104.308 180.15 106.968 181.45C108.598 182.16 110.107 182.63 111.277 182.91C109.527 182.46 107.288 181.4 107.288 179.07L107.328 179.11Z" fill="#BA7048"/>
<path d="M111.478 157.72C111.478 157.72 110.108 156.81 109.148 156.81C108.488 156.81 108.258 156.99 108.258 157.27C108.258 157.55 108.858 157.5 109.268 157.5C110.508 157.5 111.478 157.72 111.478 157.72Z" fill="#35130C"/>
<path d="M115.27 157.72C115.27 157.72 116.64 156.81 117.6 156.81C118.26 156.81 118.49 156.99 118.49 157.27C118.49 157.55 117.89 157.5 117.48 157.5C116.24 157.5 115.27 157.72 115.27 157.72Z" fill="#35130C"/>
<path d="M120.316 139.96C120.316 139.96 121.686 139.59 122.926 139.59C123.676 139.59 125.746 139.96 127.156 139.96C131.056 139.96 133.116 137.68 133.116 137.68L129.526 135.93L126.866 135.62C126.866 135.62 123.206 136.45 120.316 139.96Z" fill="white"/>
<path d="M137.286 136.91C137.286 136.91 136.476 137.18 135.266 137.18C133.446 137.18 132.036 135.65 128.356 135.42C130.116 135.18 131.926 135.29 133.646 135.8C134.346 135.97 135.016 136.21 135.686 136.5C130.856 132.95 122.976 134.43 120.316 139.96C120.316 139.96 122.826 137.42 125.566 136.59C125.566 136.68 125.546 136.77 125.546 136.86C125.546 138.51 126.886 139.85 128.536 139.85C128.576 139.85 128.606 139.85 128.646 139.85C129.016 139.79 129.366 139.71 129.696 139.62C130.646 139.22 131.336 138.35 131.486 137.3C132.296 137.61 133.056 137.87 133.966 137.87C135.496 137.87 137.296 136.92 137.296 136.92L137.286 136.91Z" fill="#35130C"/>
<path d="M106.3 139.96C106.3 139.96 104.93 139.59 103.69 139.59C102.94 139.59 100.87 139.96 99.46 139.96C95.56 139.96 93.5 137.68 93.5 137.68L97.09 135.93L99.75 135.62C99.75 135.62 103.41 136.45 106.3 139.96Z" fill="white"/>
<path d="M106.298 139.96C103.638 134.42 95.7481 132.95 90.9281 136.5C91.5981 136.22 92.2781 135.97 92.9681 135.8C94.6881 135.3 96.4981 135.18 98.2581 135.42C94.5781 135.65 93.1681 137.18 91.3481 137.18C90.1381 137.18 89.3281 136.91 89.3281 136.91C89.3281 136.91 91.1281 137.86 92.6581 137.86C94.4381 137.86 95.6781 136.84 97.8081 136.45C97.7881 136.58 97.7681 136.72 97.7681 136.86C97.7681 138.51 99.1081 139.85 100.758 139.85C102.088 139.85 103.198 138.98 103.588 137.78C105.168 138.8 106.308 139.96 106.308 139.96H106.298Z" fill="#35130C"/>
<path d="M119.238 130.9C119.238 128.29 126.858 127.03 131.808 127.03C133.478 127.03 136.848 128.99 136.478 129.36C136.108 129.73 134.588 128.5 131.488 128.5C128.388 128.5 123.108 130.9 121.058 130.9H119.238Z" fill="#35130C"/>
<path d="M107.506 130.9C107.506 128.29 99.8864 127.03 94.9364 127.03C93.2664 127.03 89.8964 128.99 90.2664 129.36C90.6364 129.73 92.1564 128.5 95.2564 128.5C98.3564 128.5 103.636 130.9 105.686 130.9H107.506Z" fill="#35130C"/>
<path d="M123.207 165.95H103.527C103.527 165.95 106.117 173.06 113.367 173.07C120.617 173.07 123.207 165.95 123.207 165.95Z" fill="#F59CC0"/>
<path d="M122.856 165.01C119.206 165.01 117.866 163.93 115.246 163.93C114.556 163.93 113.996 164.16 113.376 164.17C112.756 164.17 112.196 163.93 111.506 163.93C108.886 163.93 107.546 165.01 103.896 165.01C103.236 165.01 102.566 164.61 102.566 164.61C102.566 164.61 104.236 167.59 106.416 167.59C108.596 167.59 110.366 167.35 113.386 167.35C116.406 167.35 118.176 167.59 120.356 167.59C122.536 167.59 124.206 164.61 124.206 164.61C124.206 164.61 123.536 165.01 122.876 165.01H122.856Z" fill="#F59CC0"/>
<path d="M111.306 170.589C111.306 168.569 113.376 168.049 113.376 168.049V167.339C113.196 167.339 113.036 167.329 112.876 167.309C112.846 167.309 112.816 167.309 112.786 167.309C112.636 167.289 112.496 167.259 112.366 167.229C112.336 167.229 112.316 167.219 112.296 167.209C112.026 167.129 111.796 167.029 111.596 166.909C111.586 166.909 111.566 166.889 111.556 166.879C111.466 166.819 111.376 166.749 111.296 166.689C111.296 166.689 111.276 166.669 111.266 166.669C111.106 166.519 110.976 166.369 110.886 166.209C110.836 166.129 110.806 166.049 110.776 165.969C110.736 165.839 110.706 165.719 110.706 165.599C110.706 164.659 111.506 163.939 111.506 163.939C108.886 163.939 107.546 165.019 103.896 165.019C103.236 165.019 102.566 164.619 102.566 164.619C102.566 164.619 102.936 165.269 103.536 165.959C103.536 165.959 106.106 173.069 113.286 173.069C112.686 173.069 111.316 171.979 111.316 170.599L111.306 170.589Z" fill="#AF4335"/>
<path d="M113.377 167.35C111.367 167.35 109.917 167.46 108.527 167.53C108.767 167.66 109.817 168.06 113.367 168.06C116.917 168.06 117.977 167.66 118.207 167.53C116.827 167.46 115.377 167.35 113.367 167.35H113.377Z" fill="#35130C"/>
<path d="M139.377 100.42H125.227C125.497 99.9898 125.647 99.7498 125.647 99.7498L120.297 93.4098L117.877 90.1398L113.387 88.3698C113.387 88.3698 110.717 85.3198 106.317 85.3198C101.917 85.3198 94.367 88.9598 86.407 96.9298C71.237 112.1 79.977 121.31 70.257 132.43C69.407 133.4 68.567 134.64 67.807 136.07C63.797 142.29 62.277 150.11 64.047 157.3C64.737 160.22 65.827 163.03 67.357 165.56C66.137 162.87 65.387 160 65.057 157.12C64.877 155.69 64.827 154.25 64.907 152.82C66.297 160.58 72.107 165.98 72.107 165.98H78.547C78.547 165.98 78.517 165.9 78.497 165.85C77.837 164.03 77.527 162.06 77.597 160.11C78.647 162.45 80.247 164.49 82.187 165.98H96.267C96.267 165.98 86.177 155.86 86.177 142.96C86.177 140.47 86.497 137.79 87.147 135.3C97.847 134.5 109.827 121.44 117.547 111.38C115.517 115.31 112.967 118.99 109.987 122.28C108.397 124.1 106.537 125.8 104.707 127.39L106.207 126.32C112.697 121.63 118.277 115.48 122.007 108.35C135.597 114.18 140.347 133.16 140.347 138.95L141.127 129.14L144.607 121.45L139.407 100.41L139.377 100.42Z" fill="#35130C"/>
<path d="M109.607 205.8C109.337 205.53 111.997 204.4 111.997 203.31C111.997 203.31 110.917 203.8 108.627 203.8C106.537 203.8 103.227 204 103.227 206.53C103.227 207.8 104.887 209.04 106.217 209.04C113.297 209.04 115.887 204.34 115.887 204.34C114.727 204.11 109.877 206.08 109.607 205.8Z" fill="#A51F0A"/>
<path d="M107.608 204.34C107.468 204.34 107.328 204.38 107.208 204.45C105.778 205.33 96.5484 211.36 96.5484 220.96C96.5484 231.37 95.1484 233.38 95.1484 233.38C95.1484 233.38 108.968 227.85 108.968 216.76C108.968 211.97 107.498 207.75 108.328 205.38C108.508 204.87 108.138 204.35 107.608 204.35V204.34Z" fill="#ED2100"/>
<path d="M95.4889 189.47C95.6589 188.69 95.7989 187.87 95.9089 187.02H94.2589C94.2589 187.02 92.9089 187 92.9089 188.58V191.55C92.9089 194.42 90.8789 196.71 90.8789 196.71C90.8789 197.07 90.9289 197.41 91.0189 197.74C95.0589 197.56 98.9489 197.05 102.709 196.11C100.029 194.01 97.0889 191.5 95.4789 189.47H95.4889Z" fill="#A51F0A"/>
<path d="M69.8789 235.73C73.4789 225.19 77.5589 216.16 80.6789 209.86C83.5489 204.07 87.2989 198.77 91.7989 194.14L92.6989 193.19L80.0489 235.74" fill="#0053E2"/>
</g>
<path d="M188.358 295.57L141.168 301.28L149.648 333.89C149.968 336.57 158.798 337.7 169.368 336.43C179.938 335.15 188.238 331.94 187.918 329.26C187.918 329.26 187.918 329.26 187.918 329.25L188.368 295.57H188.358Z" fill="#84543D"/>
<path d="M165.378 303.45C148.458 305.5 140.258 302.25 140.258 302.25L141.898 308.06C142.008 308.45 142.288 308.76 142.668 308.9C147.868 310.84 158.908 310.28 166.098 309.41C173.288 308.54 184.148 306.45 188.728 303.32C189.058 303.09 189.258 302.72 189.278 302.32L189.488 296.29C189.488 296.29 182.298 301.41 165.378 303.45Z" fill="#84543D"/>
<path d="M165.406 303.71C155.916 304.86 139.706 305.47 139.106 300.5C138.506 295.53 154.396 292.25 163.886 291.1C173.376 289.95 189.586 289.34 190.186 294.31C190.786 299.29 174.896 302.56 165.406 303.71Z" fill="#84543D"/>
<path d="M165.183 302.116C178.633 300.489 189.259 296.88 188.917 294.057C188.575 291.233 177.396 290.263 163.946 291.891C150.497 293.518 139.871 297.127 140.212 299.951C140.554 302.774 151.734 303.744 165.183 302.116Z" fill="#001E60"/>
<path d="M176.846 300.05L189.426 264.29L187.146 263.49L174.066 300.67C175.026 300.47 175.956 300.27 176.846 300.05Z" fill="#00AE42"/>
<path d="M153.407 302.89L140.257 264.89L137.977 265.7L150.827 302.85C151.647 302.88 152.517 302.88 153.407 302.88V302.89Z" fill="#00AE42"/>
<path d="M154.316 302.88L147.906 269.82L145.496 270.05L151.886 302.88C152.666 302.89 153.476 302.89 154.316 302.88Z" fill="#00AE42"/>
<path d="M162.387 302.41L157.497 272.53L155.117 273L159.957 302.62C160.757 302.56 161.567 302.49 162.387 302.41Z" fill="#00AE42"/>
<path d="M169.766 301.46L175.616 268.16L173.236 267.74L167.246 301.84C168.106 301.72 168.946 301.59 169.766 301.46Z" fill="#00AE42"/>
<path d="M173.966 300.69L180.706 264.77L178.326 264.32L171.406 301.17C172.276 301.01 173.136 300.85 173.956 300.68L173.966 300.69Z" fill="#00AE42"/>
<path d="M174.928 302.14L174.848 307.99C174.568 308.05 174.288 308.1 174.008 308.16C173.978 308.16 173.948 308.17 173.918 308.18C173.608 308.24 173.298 308.3 172.988 308.35C170.538 308.8 168.168 309.15 166.088 309.4C159.138 310.24 148.577 310.8 143.188 309.08L143.658 310.9C149.118 312.52 159.458 311.97 166.288 311.14C168.268 310.9 170.527 310.57 172.857 310.15L172.558 332.38C172.558 332.38 172.558 332.38 172.558 332.39C172.728 333.79 170.538 335.34 166.888 336.68C167.688 336.61 168.508 336.53 169.338 336.42C179.908 335.14 188.208 331.93 187.888 329.25C187.888 329.25 187.888 329.25 187.888 329.24L188.228 303.62C188.228 303.62 188.197 303.63 188.188 303.64C188.368 303.53 188.538 303.42 188.708 303.31C189.038 303.08 189.238 302.71 189.258 302.31L189.458 296.34C187.408 298.85 181.218 300.8 174.908 302.13L174.928 302.14ZM175.188 307.92C175.137 307.93 175.078 307.94 175.028 307.95C174.988 307.95 174.948 307.97 174.908 307.97C175.138 307.92 175.358 307.88 175.588 307.83C175.458 307.86 175.317 307.89 175.188 307.91V307.92ZM176.247 307.7C176.177 307.71 176.108 307.73 176.038 307.74C176.018 307.74 175.987 307.75 175.967 307.76C176.177 307.71 176.387 307.67 176.607 307.62C176.487 307.65 176.367 307.67 176.247 307.7ZM177.298 307.47C177.298 307.47 177.267 307.47 177.247 307.48C177.177 307.5 177.098 307.51 177.028 307.53C177.228 307.48 177.428 307.44 177.628 307.39C177.518 307.42 177.408 307.44 177.298 307.47ZM178.458 307.19C178.378 307.21 178.297 307.23 178.217 307.25C178.177 307.26 178.128 307.27 178.088 307.28C178.278 307.23 178.468 307.19 178.658 307.14C178.598 307.16 178.527 307.17 178.467 307.19H178.458ZM179.428 306.95C179.428 306.95 179.348 306.97 179.308 306.98C179.248 306.99 179.188 307.01 179.128 307.02C179.308 306.97 179.488 306.93 179.658 306.88C179.578 306.9 179.498 306.92 179.428 306.94V306.95ZM180.588 306.63C180.518 306.65 180.438 306.67 180.368 306.69C180.298 306.71 180.228 306.73 180.158 306.74C180.328 306.69 180.488 306.65 180.658 306.6C180.638 306.6 180.608 306.61 180.588 306.62V306.63ZM181.538 306.36C181.468 306.38 181.398 306.4 181.318 306.42C181.268 306.43 181.218 306.45 181.168 306.46C181.328 306.41 181.478 306.37 181.638 306.32C181.608 306.32 181.578 306.34 181.538 306.35V306.36ZM182.568 306.05C182.568 306.05 182.478 306.08 182.428 306.09C182.338 306.12 182.248 306.14 182.168 306.17C182.308 306.13 182.448 306.08 182.598 306.04H182.577L182.568 306.05ZM183.298 305.81C183.248 305.83 183.188 305.85 183.138 305.86C183.248 305.82 183.368 305.79 183.478 305.75C183.418 305.77 183.358 305.79 183.308 305.81H183.298ZM184.357 305.43C184.357 305.43 184.308 305.45 184.278 305.46C184.208 305.48 184.147 305.51 184.077 305.53C184.187 305.49 184.298 305.45 184.398 305.41C184.388 305.41 184.367 305.42 184.357 305.43ZM185.138 305.13C185.138 305.13 185.058 305.16 185.018 305.17C185.068 305.15 185.118 305.13 185.168 305.11C185.168 305.11 185.148 305.11 185.138 305.12V305.13ZM187.648 303.97C187.648 303.97 187.638 303.97 187.628 303.97C187.648 303.96 187.678 303.94 187.698 303.93C187.678 303.94 187.658 303.95 187.648 303.96V303.97Z" fill="#35130C"/>
<path d="M167.719 301.77L163.959 266.06L161.609 266.64L165.309 302.1C166.129 302 166.929 301.89 167.719 301.78V301.77Z" fill="#00AE42"/>
<path d="M119.828 219.52C119.828 234.81 135.628 249.52 135.628 249.52L146.138 257.73L147.938 249.07L140.918 212.82L119.828 219.52Z" fill="#001E60"/>
<path d="M225.457 215.6C225.457 215.6 202.207 218.64 191.367 239.35C191.367 239.35 211.967 237.03 225.457 215.6Z" fill="#001E60"/>
<path d="M182.187 185.66C182.187 185.66 191.667 195.94 193.587 211.74C197.487 243.94 160.317 268.68 160.317 268.68C160.317 268.68 147.877 252.33 145.537 233C141.707 201.38 182.187 185.66 182.187 185.66Z" fill="#00AE42"/>
<path d="M177.408 253.41C174.838 232.18 182.388 193.42 237.258 186.78L199.908 235.53L177.398 253.41H177.408Z" fill="#001E60"/>
<path d="M178.379 252.64L181.879 249.86L195.779 238.82L199.919 235.53L230.119 196.11C188.839 211.92 180.029 239.66 178.379 252.64Z" fill="#00AE42"/>
<path d="M134.347 178.37C134.347 178.37 155.127 190.25 157.907 213.27C159.987 230.45 147.927 249.06 147.927 249.06C147.927 249.06 121.967 237.61 119.607 218.08C117.407 199.93 135.137 184.97 134.347 178.37Z" fill="#00AE42"/>
<path d="M148.337 249.53C140.457 234.03 134.927 216.37 137.427 198.87C136.087 211.9 139.567 224.87 144.697 236.74C146.427 240.68 148.357 244.6 150.537 248.24L148.347 249.53H148.337Z" fill="#001E60"/>
<path d="M169.779 178.26C169.779 178.26 143.589 203.41 147.389 234.81L168.139 196.47L170.189 184.34L169.779 178.26Z" fill="#00AE42"/>
<path d="M169.778 178.26C171.648 193.67 142.458 212.63 146.888 249.2C148.008 258.45 149.058 258.32 149.058 258.32C161.788 242.08 173.818 211.6 169.798 178.44L169.778 178.27V178.26Z" fill="#001E60"/>
<path d="M161.008 261.65C161.898 240.96 167.528 218.37 177.578 200.22C170.678 220 165.458 241.14 161.008 261.65Z" fill="#001E60"/>
<path d="M225.459 215.6C225.459 215.6 212.719 247.37 172.159 278.63C172.159 278.63 170.639 270.84 170.419 265.6C169.939 254.55 174.319 251.18 177.099 248.15C183.039 241.67 215.179 230.23 225.459 215.6Z" fill="#00AE42"/>
<path d="M185.698 267.3C185.698 267.3 192.628 245.03 226.918 236.65C242.848 232.75 264.807 223.48 264.807 223.48C264.807 223.48 247.037 234.76 242.607 237.83C233.917 243.84 225.508 257.39 195.088 263.82C189.328 265.04 185.688 267.31 185.688 267.31L185.698 267.3Z" fill="#001E60"/>
<path d="M226.928 236.65C242.858 232.75 264.818 223.48 264.818 223.48C264.818 223.48 261.568 224.61 256.548 225.22C251.528 225.83 240.348 224.83 232.568 225.77C215.368 227.85 207.828 240.94 205.848 245.08C211.348 241.78 218.258 238.77 226.918 236.66L226.928 236.65Z" fill="#00AE42"/>
<path d="M57.0977 215.63C57.0977 215.63 100.748 214.3 117.048 227.07C136.588 242.39 137.858 258.2 137.858 258.2C137.858 258.2 123.058 253.34 115.078 250.31C89.8477 240.72 75.3877 236.99 57.1077 215.63H57.0977Z" fill="#00AE42"/>
<path d="M130.686 254.77C124.786 242.38 112.656 233.72 100.076 228.9C97.1958 227.74 93.8958 226.8 90.9258 225.95C95.0258 226.9 99.3558 227.97 103.286 229.52C111.386 232.56 118.956 237.09 125.126 243.22C128.286 246.38 131.006 249.73 133.046 253.8L130.696 254.77H130.686Z" fill="#001E60"/>
<path d="M123.585 252.24C120.975 249.31 113.615 242.16 105.795 245.03C101.255 246.69 100.345 248.27 97.4252 249.34C95.5952 250.01 94.8452 250.08 94.5352 250.03C103.435 254.11 112.325 255.02 123.585 252.24Z" fill="#001E60"/>
<path d="M94.3359 249.94C94.3359 249.94 94.3459 249.97 94.3959 249.99C94.3559 249.96 94.3359 249.94 94.3359 249.94Z" fill="#A51F0A"/>
<path d="M164.178 279.44C164.178 279.44 165.938 264.57 162.098 254.06C158.248 243.56 148.058 243.77 132.318 249.54C116.578 255.31 105.498 255.11 94.3477 249.93C94.3477 249.93 106.078 259.58 115.568 263.99C143.628 277.01 163.008 276.23 164.188 279.44H164.178Z" fill="#00AE42"/>
<path d="M209.078 322.06C205.678 318.66 200.588 313.57 197.898 310.88C196.458 309.44 195.208 307.82 194.208 306.04C194.168 305.96 194.128 305.89 194.088 305.82C192.348 302.56 189.738 299.85 186.548 297.98L183.588 296.24C182.678 295.7 181.518 295.67 180.628 296.24C179.258 297.11 178.938 298.93 179.878 300.21L187.748 310.91L181.658 309.84L171.558 308.88C170.238 308.75 168.928 309.38 168.278 310.53C167.288 312.3 168.108 314.5 169.958 315.22L186.268 321.56C186.988 321.84 186.788 322.91 186.018 322.91H171.478C169.488 322.91 167.748 324.41 167.628 326.4C167.508 328.39 168.868 330.03 170.758 330.33L184.428 332.52L184.568 332.55C181.158 334.26 175.638 335.65 169.368 336.41C168.968 336.46 168.568 336.5 168.168 336.54C170.228 337.56 177.618 341.13 180.368 341.13C182.278 341.13 184.428 340.76 185.868 340.46C186.958 340.23 188.078 340.38 189.068 340.88L191.908 342.31C192.508 342.61 193.178 342.77 193.848 342.77H200.488C203.838 342.77 206.878 341.41 209.078 339.21C211.278 337.01 212.638 333.97 212.638 330.62C212.638 327.27 211.278 324.23 209.078 322.03V322.06Z" fill="#FFC220"/>
<path d="M187.048 335.32C186.918 333.95 185.908 332.84 184.568 332.56C181.238 334.19 175.718 335.65 169.368 336.42C168.968 336.47 168.568 336.51 168.168 336.55C168.168 336.55 173.228 338 178.548 338C182.328 338 185.198 336.66 187.058 335.41V335.31L187.048 335.32Z" fill="#F48A16"/>
<path d="M188.416 305.26C185.956 302.8 181.206 300.91 181.206 297.92C181.206 297.14 181.436 296.33 181.586 295.86C181.186 295.94 180.796 296.1 180.456 296.35C179.236 297.26 178.976 298.98 179.876 300.21L187.746 310.91L193.896 312.38C193.896 312.38 190.866 307.73 188.406 305.26H188.416Z" fill="#F48A16"/>
<path d="M186.43 321.65C186.96 322.01 186.73 322.91 186.02 322.91L189.51 322.87L186.43 321.64V321.65Z" fill="#F48A16"/>
</g>
<defs>
<clipPath id="clip0_14040_43798">
<rect width="289" height="360" fill="white" transform="translate(0.0664062)"/>
</clipPath>
</defs>
</svg>
