<?xml version="1.0" encoding="UTF-8"?>
<svg xmlns="http://www.w3.org/2000/svg" viewBox="0 0 615.12 99.21">
  <defs>
    <style>
      .cls-1 {
        fill: none;
      }

      .cls-2 {
        fill: #ffc220;
      }

      .cls-3 {
        fill: #ff765f;
      }

      .cls-4 {
        fill: #b08257;
      }

      .cls-5 {
        fill: #603625;
      }

      .cls-6 {
        fill: #f48a16;
      }

      .cls-7 {
        fill: #a9ddf7;
      }

      .cls-8 {
        fill: #66241e;
      }

      .cls-9 {
        fill: #8c5138;
      }

      .cls-10 {
        fill: #f4bdd3;
      }

      .cls-11 {
        fill: #ed2100;
      }

      .cls-12 {
        fill: #d8b794;
      }

      .cls-13 {
        fill: #35130c;
      }

      .cls-14 {
        fill: #4dbdf5;
      }

      .cls-15 {
        fill: #0053e2;
      }
    </style>
  </defs>
  <g id="Background">
    <rect class="cls-15" y="0" width="615.12" height="99.21"/>
  </g>
  <g id="Arms_Back" data-name="Arms Back">
    <path class="cls-5" d="M183.77,48.16l-7.53,4.22c-1.29.72-2.62,1.35-3.99,1.88-7.65,2.97-33.38,12.01-57,9.46l-9.51,26.44,43.7,1.07,42.25-21.09s.38-15.26.38-15.26l21.83-9.44-11.76-1.14c-6.37-.62-12.78.73-18.36,3.86Z"/>
    <path class="cls-3" d="M105.44,92.95l16.36-5.71,4.34-22.3c.34-1.73-.88-3.37-2.63-3.56l-13.75-1.48c-.98-.11-1.95.28-2.59,1.02l-1.05,1.21-24.76-9.74c-.89-.35-1.61-1.04-1.99-1.92l-1.97-4.53c-.52-1.19-1.63-2.01-2.92-2.15l-2.87-.31c-1.92-.21-3.33-1.89-3.21-3.81.12-1.94-1.31-3.62-3.24-3.81l-22.95-2.3c-.47-.05-.93-.19-1.35-.41L0,11.21v25.57l61.1,49.79,44.34,6.39Z"/>
    <path class="cls-4" d="M519.02,63.92c-28.88,3.11-60.89-7.07-71.02-10.66-2.04-.72-4-1.67-5.83-2.82l-10.23-6.44c-5.47-3.44-11.92-4.97-18.35-4.35l-16.77,1.62,27.04,11.69.47,18.9,52.34,26.13,54.13-1.33-11.78-32.75Z"/>
    <g>
      <polygon class="cls-1" points="586.1 92.21 537.5 99.21 615.12 99.21 615.12 61.64 586.1 92.21"/>
      <path class="cls-6" d="M615.12,61.64V0h-1.89l-31.24,28.27c-1.21,1.02-2.12,2.35-2.62,3.85l-.35,1.05c-1.05,3.17-3.85,5.44-7.18,5.79-3.05.33-5.68,2.27-6.9,5.08l-.83,1.91c-.9,2.08-2.59,3.71-4.7,4.54l-29.1,11.45-1.69-1.95c-.55-.64-1.38-.97-2.22-.88l-18.87,2.03c-1.5.16-2.54,1.57-2.25,3.05l5.62,28.85,17.66,6.16h8.94l48.6-7,29.02-30.57Z"/>
    </g>
  </g>
  <g id="Gift">
    <path class="cls-11" d="M305.52,22.1s15.46-13.33,29.9-13.33c11.46,0,14.59,6.57,14.59,9.95s-2.8,6.38-2.8,6.38h-43.07l1.37-3Z"/>
    <path class="cls-11" d="M305.52,22.1s-7.78-13.83-22.78-13.83c-13.44,0-18.97,3.52-18.97,7.12,0,4.38,9.48,7.46,20.87,7.46s20.87-.75,20.87-.75h0Z"/>
    <path class="cls-8" d="M290.96,12.42c-2.67,0-4.83,2.16-4.83,4.83s2.16,4.83,4.83,4.83h14.56s-7.62-9.66-14.56-9.66Z"/>
    <path class="cls-3" d="M334.49,8.79c.31-.01.61-.02.93-.02-.31,0-.62,0-.93.02Z"/>
    <path class="cls-8" d="M325.03,16.99c3.2.95,5.02,4.3,4.08,7.5-.95,3.2-4.3,5.02-7.5,4.08l-17.46-5.16s12.56-8.87,20.89-6.41Z"/>
    <path class="cls-11" d="M311.66,22.1c-.94-1.84-3.36-3.15-6.2-3.15s-5.26,1.31-6.2,3.15h12.39Z"/>
    <rect class="cls-14" x="342.17" y="26.29" width="65.52" height="57.64" rx="1.93" ry="1.93"/>
    <rect class="cls-14" x="203.73" y="22.1" width="205.63" height="4.19" rx="1.87" ry="1.87"/>
    <path class="cls-7" d="M347.34,24.41v-.44c0-1.03-.84-1.87-1.87-1.87h-139.86c-1.03,0-1.87.84-1.87,1.87v.44c0,1.03.84,1.87,1.87,1.87h2.04c-1.06,0-1.93.87-1.93,1.93v53.78c0,1.06.87,1.93,1.93,1.93h137.77c1.06,0,1.93-.87,1.93-1.93V28.22c0-1.06-.87-1.93-1.93-1.93h.06c1.03,0,1.87-.84,1.87-1.87Z"/>
    <path class="cls-7" d="M284.31,63.08V26.29h-14.61v56.57c0,.39.08.75.23,1.06h14.61c-.14-.31-.23-.68-.23-1.06v-19.78Z"/>
    <path class="cls-14" d="M273.03,83.92h-2.84c-.6,0-1.15-.24-1.54-.63s-.64-.93-.64-1.52v-19.78c0-.49,0-4.19,0-4.19V24.26c0-.59.25-1.13.64-1.52s.94-.63,1.54-.63h18.47c-.6,0-1.15.24-1.54.63s-.64.93-.64,1.52v33.54s0,3.7,0,4.19v19.78c0,.59.25,1.13.64,1.52s.94.63,1.54.63h-15.63Z"/>
    <path class="cls-14" d="M282.25,57.79v-16.77s0-16.77,0-16.77c0-.3.06-.58.17-.84s.27-.49.47-.69.43-.35.69-.46.55-.17.85-.17h-9.24s-9.24,0-9.24,0c-.3,0-.59.06-.85.17s-.5.27-.69.46-.36.43-.47.69-.17.54-.17.84v16.77s0,16.77,0,16.77l9.24-9.68,9.24,9.68Z"/>
    <path class="cls-8" d="M382.41,83.92h2.84c.6,0,1.15-.24,1.54-.63s.64-.93.64-1.52v-19.78c0-.49,0-4.19,0-4.19V24.26c0-.59-.25-1.13-.64-1.52s-.94-.63-1.54-.63h-18.47c.6,0,1.15.24,1.54.63s.64.93.64,1.52v33.54s0,3.7,0,4.19v19.78c0,.59-.25,1.13-.64,1.52s-.94.63-1.54.63h15.63Z"/>
    <path class="cls-13" d="M370.74,22.73c.2.2.36.43.47.69s.17.54.17.84v40.83l9.24-9.68,6.81,7.14V24.26c0-.59-.25-1.13-.64-1.52-.4-.39-.94-.63-1.54-.63h-16.04c.3,0,.59.06.85.17s.5.27.69.46Z"/>
    <path class="cls-8" d="M374.02,62.64v-21.61s0-16.77,0-16.77c0-.3-.06-.58-.17-.84s-.27-.49-.47-.69-.43-.35-.69-.46-.55-.17-.85-.17h18.47c.3,0,.59.06.85.17s.5.27.69.46.36.43.47.69.17.54.17.84v16.77s0,21.61,0,21.61l-9.24-9.68-9.24,9.68Z"/>
    <path class="cls-13" d="M392.49,54.78v-7.99l-12.84-3.03c0,5.46,6.43,8.61,12.84,11.02Z"/>
    <path class="cls-14" d="M239.94,47.53l-.07.79c-.38,4.51-3.79,8.17-8.25,8.87l-18.84,2.95,2.95-9.43,24.22-3.18Z"/>
    <path class="cls-14" d="M263.1,76.94c-.26.13-13.73,2.18-17.33,2.72-.58.09-1.17.13-1.76.13h-15.89l3.25-7.96,23.24.98,8.48,4.13Z"/>
    <path class="cls-1" d="M358.08,83.52s0,0,0,0c0,0,0,0,0,0Z"/>
    <path class="cls-13" d="M368.96,81.77c0,.59-.25,1.13-.64,1.52-.4.39-.94.63-1.54.63h18.47c.6,0,1.15-.24,1.54-.63.4-.39.64-.93.64-1.52v-5.62h-18.47v5.62Z"/>
    <path class="cls-4" d="M358.33,83.92c-.57.32-1.36.94-1.47,1.97l8.22-1.97h-6.75Z"/>
    <path class="cls-14" d="M347.34,28.22c0-1.06-.87-1.93-1.93-1.93h-137.77c-1.06,0-1.93.87-1.93,1.93v.94h141.63v-.94Z"/>
    <path class="cls-11" d="M271.22,83.92h-2.84c-.6,0-1.15-.24-1.54-.63s-.64-.93-.64-1.52v-19.78c0-.49,0-4.19,0-4.19V24.26c0-.59.25-1.13.64-1.52s.94-.63,1.54-.63h18.47c-.6,0-1.15.24-1.54.63s-.64.93-.64,1.52v33.54s0,3.7,0,4.19v19.78c0,.59.25,1.13.64,1.52s.94.63,1.54.63h-15.63Z"/>
    <path class="cls-8" d="M282.25,57.79V24.26c0-.3.06-.58.17-.84.11-.26.27-.49.47-.69.2-.2.43-.35.69-.46s.55-.17.85-.17h-16.04c-.6,0-1.15.24-1.54.63-.4.39-.64.93-.64,1.52v30.99l6.81-7.14,9.23,9.68Z"/>
    <path class="cls-11" d="M279.61,57.79v-16.77s0-16.77,0-16.77c0-.3.06-.58.17-.84s.27-.49.47-.69.43-.35.69-.46.55-.17.85-.17h-9.24s-9.24,0-9.24,0c-.3,0-.59.06-.85.17s-.5.27-.69.46-.36.43-.47.69-.17.54-.17.84v16.77s0,16.77,0,16.77l9.24-9.68,9.24,9.68Z"/>
  </g>
  <g id="Arms">
    <path class="cls-12" d="M446.14,57.48c-4.32-1.31-8.51-3-12.53-5.05h0c-4.19-2.15-8.58-3.89-13.1-5.22l-5.54-1.63c-1.65-.49-3.33-.91-5.01-1.27-4.79-1.03-14.69-3.12-15.75-3.12-1.4,0-3.82.37-6.18.37s-3.53-.37-5.22-.37-3.16.59-3.16,2.57c0,9.07,25.45,6.23,25.45,14.12,0,8.42-48.59,12.1-48.59,22.45,0,1.71.93,2.56.93,2.56l35.76-7.21-3.26,1.84c-.97.55-2.01.95-3.09,1.2l-21.76,5.21h-6.75c-.61.34-1.48,1.03-1.48,2.2,0,.52.13.97.28,1.29.16.37.5.64.89.72l8.41,1.85c.37.08.75.12,1.14.12h8.83c2.34,0,7.88-.85,7.88-.85,0,0,7.55,2.28,10.61,2.28,1.35,0,4.01-1.04,5.05-1.04s3.7,2.28,8.07,2.28h4.94c9.59,0,17.24-8.87,22.46-8.87,6.24,0,18.93,6.86,34.49,15.31h83.91l-1.99-21.54c-27.32,2.53-85.87-14.22-105.67-20.2Z"/>
    <path class="cls-5" d="M240.78,83.92c1.66,1.51,1.93,4.08.52,5.92-.39.5-.86.89-1.39,1.18l5.99-3.21c.12-.07.24-.14.35-.22h0s0,0,0,0c0,0,0,0,0,0,.19-.13.36-.29.53-.46.02-.02.04-.03.06-.05,0,0,.02-.02.03-.03.04-.05.08-.1.12-.15,0-.01.02-.02.02-.03.01-.01.02-.03.03-.04,0,0,0,0,.01-.01.03-.04.06-.09.1-.13.03-.04.05-.08.08-.12.03-.04.05-.08.07-.12,0,0,0-.01,0-.02.01-.02.02-.04.04-.07.01-.03.03-.05.04-.08.02-.03.03-.06.05-.1.04-.09.08-.18.12-.27l.73-1.94.02-.05h-7.53Z"/>
    <path class="cls-4" d="M384.27,89.26h0s2.3.69,4.87,1.31l8.5-4.86c.11-.06.04-.23-.08-.19-5.07,1.49-9.54,2.92-13.28,3.74Z"/>
    <g>
      <path class="cls-1" d="M388.58,78.17s0,0,0,0c0,0-.01,0-.02,0,0,0,.02,0,.03-.01h-.01Z"/>
      <path class="cls-1" d="M386.84,78.72c.07-.02.33-.08.33-.08-.11.03-.22.06-.33.08Z"/>
      <path class="cls-1" d="M389.26,77.87s.01,0,.02-.01c0,0-.01,0-.02.01Z"/>
      <polygon class="cls-1" points="393.19 75.68 392.2 76.24 392.2 76.24 393.19 75.68"/>
      <path class="cls-4" d="M387.17,78.63s-.26.07-.33.08l-21.76,5.21h-6.75c-.61.34-1.48,1.03-1.48,2.2,0,.24.03.46.07.67h3.82c2.76,0,5.49-.47,8.09-1.38l18.34-6.77"/>
    </g>
    <path class="cls-9" d="M258.89,70.56l-14.97-2.59c-13.06-2.75-20.54-5.83-21.69-6.32l-4.81-2.08h-.03c-1.26-.57-1.02-2.42.33-2.65l16.52-2.77c3.61-.58,6.22-4.72,5.67-8.26-.07-.44-.47-.78-.91-.76l-29.53,1.16c-.61.02-1.22.1-1.83.22l-.21.05-9.76,2.9c-3.95,1.17-7.8,2.64-11.52,4.39l-12.41,5.85c-2.3,1.08-4.67,1.99-7.11,2.71-19.18,5.69-64.44,18.15-86.23,16.13l-1.91,20.67h69.75c16.95-8.5,31.39-16.13,38.22-16.73l18.89,10.4c.71.39,1.5.59,2.31.59h12.32c.83,0,1.62-.32,2.22-.88l1.13-1.07,5.37,1.36c1.41.36,2.9-.11,3.83-1.2l1.36-1.6,1.86.91c1.75.86,3.9.58,5.24-.83,1.89-1.99,1.51-5.14-.7-6.64l-13.36-9.09,15.14,2.28c.92.14,1.86.21,2.79.21h18.19c.4,0,.71-.33.71-.72-.02-2.79-2.07-5.17-4.89-5.66Z"/>
    <path class="cls-10" d="M97.03,78.84c-.49-1.17-1.59-1.98-2.85-2.09l-18.57-1.72c-.98-.09-1.96.25-2.68.93l-2.33,2.21-4.78-5.76L0,24.02v75.19h99.17c.22-1.58.34-3.18.34-4.79,0-8.18-1.46-13.12-2.48-15.58Z"/>
    <g>
      <path class="cls-3" d="M69.71,80.59l-5.57,18.63h3.67c2.56-9.72,1.9-18.63,1.9-18.63Z"/>
      <path class="cls-3" d="M69.71,80.59l-4.77,3.61c-.62.47-1.37.73-2.15.73-2.88,0-10.61.58-16.34,6.31-2.27,2.27-4.19,5.17-5.74,7.98h16.83c5.06-4.28,9.71-10.28,12.17-18.63Z"/>
    </g>
    <path class="cls-5" d="M219.95,83.25l12.18,8.85c.15-.13.29-.26.41-.41l1.36-1.6-13.95-6.84Z"/>
    <path class="cls-5" d="M211.67,88.57l6.76,4.92h1.55c.83,0,1.63-.32,2.23-.88l1.13-1.07-11.67-2.97Z"/>
    <g>
      <polygon class="cls-5" points="231.81 77.77 231.81 77.77 231.81 77.77 231.81 77.77"/>
      <path class="cls-5" d="M232.81,75.34l-5.86-.88,4.87,3.31c-1.19-.81-.44-2.64,1-2.43Z"/>
    </g>
    <path class="cls-2" d="M579.38,64.78l-1.6,4.96c-.38,1.16-1.41,1.99-2.63,2.1l-.87.08c-1.24.11-2.28.96-2.64,2.15h0c-.49,1.61-2.2,2.52-3.82,2.03l-.3-.09c-1.03-.31-2.15-.06-2.94.66l-1.3,1.18.03-.66c.09-2.26-1.83-4.08-4.08-3.87l-25.99,2.4c-1.74.16-3.14,1.51-3.37,3.24-.52,3.98-1.27,11.27-.7,17.42.09.96.21,1.89.33,2.82h85.63v-62.52l-34.69,26.61c-.49.38-.86.9-1.05,1.48Z"/>
    <polygon class="cls-6" points="563.7 99.21 571.78 99.21 563.54 80.73 563.7 99.21"/>
    <path class="cls-6" d="M600.52,97.32c1.58.15,3.12.21,4.75-.01-.62-1.53-1.45-2.83-2.37-4.12-5.7-7.71-16.45-13.31-26.13-12.29-3.03-2.2-5.38-3.13-5.38-3.13l16.56,21.45h1.25c-.68-2.7-1.63-5.12-2.75-7.24,4.28,2.91,9.27,4.82,14.07,5.35Z"/>
    <path class="cls-4" d="M399.93,90.49c.45,0,1.39.53,2.65,1.08l3.64-2.58-6.29,1.5Z"/>
  </g>
</svg>