<?xml version="1.0" encoding="UTF-8"?>
<svg xmlns="http://www.w3.org/2000/svg" xmlns:xlink="http://www.w3.org/1999/xlink" viewBox="0 0 615.12 140.91">
  <defs>
    <style>
      .cls-1 {
        fill: none;
      }

      .cls-2 {
        fill: #ffc220;
      }

      .cls-3 {
        opacity: .25;
      }

      .cls-3, .cls-4 {
        fill: #fff;
      }

      .cls-5 {
        fill: #001e60;
      }

      .cls-6, .cls-7 {
        opacity: .5;
      }

      .cls-6, .cls-8 {
        fill: #4dbdf5;
      }

      .cls-9 {
        fill: #f48a16;
      }

      .cls-10 {
        fill: #b6e53e;
      }

      .cls-11 {
        fill: #905629;
      }

      .cls-12 {
        fill: #a9ddf7;
      }

      .cls-13 {
        fill: #66241e;
      }

      .cls-14 {
        fill: #f4d645;
      }

      .cls-15 {
        fill: #00ae42;
      }

      .cls-16 {
        fill: #fcd2e3;
      }

      .cls-17 {
        fill: #f4bdd3;
      }

      .cls-18 {
        fill: #c78242;
      }

      .cls-19 {
        fill: #ed2100;
      }

      .cls-20 {
        fill: #f59cc0;
      }

      .cls-21 {
        fill: #0b6830;
      }

      .cls-22 {
        fill: #d2e5a1;
      }

      .cls-23 {
        fill: #a51f0a;
      }

      .cls-24 {
        clip-path: url(#clippath);
      }

      .cls-25 {
        fill: #0053e2;
      }

      .cls-26 {
        fill: #07421c;
      }
    </style>
    <clipPath id="clippath">
      <rect class="cls-1" y="41.7" width="615.12" height="99.21"/>
    </clipPath>
  </defs>
  <g id="Background">
    <rect class="cls-8" y="41.7" width="615.12" height="99.21"/>
    <ellipse class="cls-5" cx="307.56" cy="128.66" rx="239.41" ry="7.36"/>
  </g>
  <g id="Driver">
    <path class="cls-17" d="M218.87,63.41c-.85-.42-1.78-.63-2.72-.63h-25.95c-.94,0-1.87.22-2.72.63l-8.8,4.33c-.7.34-1.14,1.06-1.14,1.83v54.55l11.23,2.76h28.81l11.23-2.76v-54.55c0-.78-.44-1.49-1.14-1.83l-8.8-4.33Z"/>
    <path class="cls-23" d="M217.07,52.98c0-4.89-6.22-8.86-13.89-8.86s-13.89,3.97-13.89,8.86c0,.11,0,.22.01.32h0c0,.9.51,1.72,1.31,2.13l7.05,3.53v3.82h11.04v-3.82l7.05-3.53c.81-.4,1.31-1.23,1.31-2.13h0s-.01,0-.01,0c0-.11.01-.21.01-.32Z"/>
    <polygon class="cls-20" points="201.5 129.65 202.81 129.65 217.59 129.65 228.81 124.13 177.55 124.13 188.77 129.65 201.5 129.65"/>
    <polygon class="cls-17" points="197.67 62.78 203.18 62.78 203.19 62.78 208.71 62.78 208.71 58.96 197.67 58.96 197.67 62.78"/>
    <path class="cls-13" d="M190.62,55.43l7.05,3.53h11.04l7.05-3.53c.32-.16.59-.39.8-.66h-26.74c.21.27.48.5.8.66Z"/>
    <g>
      <path class="cls-19" d="M196.22,54.77c.07-5.73,2.32-10.66,6.96-10.66-7.67,0-13.89,3.97-13.89,8.86,0,.11,0,.22.01.32,0,.54.19,1.06.51,1.47h6.4Z"/>
      <path class="cls-19" d="M189.96,54.94s-.09-.1-.13-.15c.04.05.09.1.13.15Z"/>
      <path class="cls-19" d="M190.01,54.99s.03.04.05.05h0s-.04-.03-.06-.05Z"/>
    </g>
    <g>
      <polygon class="cls-1" points="227.67 67.74 218.87 63.41 218.87 63.41 227.67 67.74 227.67 67.74"/>
      <polygon class="cls-1" points="178.69 67.74 178.69 67.74 186.74 63.78 178.69 67.74"/>
      <path class="cls-16" d="M227.67,67.74l-8.8-4.33c-.85-.42-1.78-.63-2.72-.63h-25.95c-.94,0-1.87.22-2.72.63l-.74.36-8.06,3.96c-.27.13-.49.33-.67.56h50.33c-.18-.23-.4-.43-.67-.56Z"/>
    </g>
  </g>
  <g id="Apple">
    <g>
      <path class="cls-15" d="M138.01,87.98s-6.41-12.43,9.16-18.84c0,0,5.63,16.74-9.16,18.84Z"/>
      <path class="cls-23" d="M155.15,81.4c-12.17,0-12.17,6.67-18.97,6.67-4.8,0-5.1-2.75-12.04-2.75-6.93,0-10.86,6.54-10.86,12.3,0,11.77,16.48,31.66,24.59,31.66,2.62,0,3.92-1.55,5.76-1.55s3.14,1.54,5.49,1.54c3.01,0,21.06-12.42,21.06-32.43,0-7.33-7.33-15.44-15.04-15.44Z"/>
      <g>
        <path class="cls-1" d="M130.58,86.53c-.5-.19-.81-.32-.81-.32.28.1.55.21.81.32Z"/>
        <path class="cls-13" d="M138.72,87.7c-.42-2.62-1.74-8.54-5.59-14.61-.29-.45-.89-.59-1.34-.3-.45.29-.59.89-.3,1.34,3.65,5.76,4.91,11.49,5.31,13.92-.2.01-.41.02-.62.02-2.59,0-3.87-.8-5.6-1.54-.5-.19-.81-.32-.81-.32,0,0,0,0,0,0,0,0,1.7,4.87,6.28,4.87s7.33-9.68,19.1-9.68c-10.44,0-11.92,4.91-16.43,6.3Z"/>
      </g>
    </g>
  </g>
  <g id="Lemon">
    <path class="cls-14" d="M100.72,97.67c6.97-3.96,15.17-3.77,21.73-.21,1.54.83,3.19,1.42,4.89,1.84.92.23,1.76.82,2.26,1.71s.59,1.91.32,2.82c-.51,1.67-.84,3.39-.91,5.14-.29,7.46-4.31,14.61-11.28,18.57-6.65,3.78-14.42,3.78-20.81.68-1.92-.93-3.96-1.6-6.07-1.97-1.02-.18-1.95-.79-2.51-1.76s-.6-2.09-.24-3.06c.76-2,1.22-4.09,1.4-6.22.6-7.09,4.57-13.76,11.22-17.55Z"/>
  </g>
  <g id="Tennis_Ball" data-name="Tennis Ball">
    <g>
      <circle class="cls-10" cx="512.55" cy="112.58" r="16.86"/>
      <path class="cls-4" d="M525.53,121.02c1.69-1.82,2.69-4.22,2.89-6.68.09-1.52-.06-3.06-.39-4.55-1.34-6.05-5.97-10.8-11.39-13.57-.23-.06-.46-.11-.7-.16,4.6,2.72,8.63,6.74,10.33,11.86.64,1.98.93,4.08.78,6.15-.2,2.17-1.14,4.32-2.64,5.89-1.43,1.51-3.4,2.4-5.47,2.39-2.45.03-4.88-.84-6.67-2.53-1.32-1.23-2.34-2.73-3.23-4.31-1.12-1.97-1.99-4.01-3.12-6.02-.81-1.4-1.67-2.77-3.08-3.69-1.46-.98-3.38-.96-4.9-.14-.38.2-.73.44-1.07.69-.25.64-.47,1.3-.65,1.97.64-.69,1.38-1.28,2.2-1.67,3.13-1.39,4.92,1,6.25,3.52,1.41,2.7,2.48,5.53,4.2,8.09,1.32,2,3.1,3.78,5.32,4.75,1.48.66,3.12.94,4.73.94,2.48.01,4.93-1.11,6.59-2.94Z"/>
    </g>
  </g>
  <g id="Pepper">
    <g>
      <path class="cls-21" d="M482.73,81.4c0-9.07-1.81-24.99-11.62-24.99-1.07,0-2.29.68-3.07,1.21-.51.34-.82.92-.82,1.54v2.87c0,1.02.83,1.85,1.85,1.85h0c.68,0,1.3-.38,1.63-.98.28-.51.74-1.04,1.43-1.04,1.34,0,3.69,2.74,3.69,10.98s-1.28,10.76-1.28,10.76l8.19-2.19Z"/>
      <path class="cls-19" d="M471.75,82.87s-3.22-5.01-9.43-5.01c-7.16,0-9.79,5.61-9.79,9.55,0,9.87,9.41,30.95,12.98,38.58.81,1.73,2.54,2.83,4.44,2.83h0c1.84,0,3.52-1.03,4.36-2.66l.66-1.28-3.22-42.01Z"/>
      <path class="cls-19" d="M487.86,84.66s2.03-3.34,8.11-3.34,8,5.49,8,9.07c0,12.36-11.18,31.16-14.7,36.78-.64,1.02-1.77,1.64-2.98,1.64h0c-1.12,0-2.17-.53-2.83-1.43l-.97-1.32,5.37-41.41Z"/>
      <path class="cls-23" d="M488.66,83.75s0,0,0,0c3.38,2.99,4.7,7.42,4.7,11.05,0,9.83-5.46,23.86-8.41,30.73-.33.76-.79,1.44-1.34,2.02.39.47.89.82,1.45,1.03,1.13-.72,2.05-1.77,2.61-3.05,2.96-6.87,8.41-19.49,8.41-29.33,0-4.07-2.16-9.97-7.41-12.45Z"/>
      <path class="cls-19" d="M478.68,80.36c-10.98,0-14.68,8.35-14.68,14.44,0,9.83,5.46,23.86,8.41,30.73,1.08,2.5,3.54,4.12,6.26,4.12s5.19-1.62,6.26-4.12c2.96-6.87,8.41-20.9,8.41-30.73,0-6.09-3.7-14.44-14.68-14.44Z"/>
      <path class="cls-23" d="M472.41,125.53c-2.96-6.87-8.41-20.9-8.41-30.73h0c0,14.74,5.16,30.21,6.5,33.98,1.16-.13,2.22-.66,3.01-1.49-.45-.52-.82-1.1-1.1-1.75Z"/>
    </g>
  </g>
  <g id="Bread">
    <g>
      <g>
        <path class="cls-18" d="M369.32,55.71h0c-.06,0-.13,0-.19,0s-.13,0-.19,0h0c-21.85.08-36.39,7.07-36.39,20.81,0,4,1.52,7.63,4.01,10.38,1.2,1.32,1.85,3.06,1.85,4.85v33.77c0,2.28,1.85,4.13,4.13,4.13h53.19c2.28,0,4.13-1.85,4.13-4.13v-33.77c0-1.79.65-3.53,1.85-4.85,2.49-2.74,4.01-6.38,4.01-10.38,0-13.75-14.54-20.73-36.39-20.81Z"/>
        <polygon class="cls-18" points="369.32 55.71 423.84 55.71 423.84 129.65 368.94 129.65 369.32 55.71"/>
        <path class="cls-11" d="M424.22,55.71h0c-.06,0-.13,0-.19,0s-.13,0-.19,0h0c-21.85.08-36.39,7.07-36.39,20.81,0,4,1.52,7.63,4.01,10.38,1.2,1.32,1.85,3.06,1.85,4.85v33.77c0,2.28,1.85,4.13,4.13,4.13h53.19c2.28,0,4.13-1.85,4.13-4.13v-33.77c0-1.79.65-3.53,1.85-4.85,2.49-2.74,4.01-6.38,4.01-10.38,0-13.75-14.54-20.73-36.39-20.81Z"/>
      </g>
      <path class="cls-3" d="M426.45,49.73h0c-.07,0-.14,0-.2,0s-.14,0-.2,0h0s-58.93,0-58.93,0h0c-.07,0-.14,0-.2,0s-.14,0-.2,0h0c-23.61.09-39.33,7.64-39.33,22.5,0,4.32,1.64,8.25,4.33,11.22,1.3,1.43,2,3.31,2,5.24v36.5c0,2.46,2,4.46,4.46,4.46h116.83c2.46,0,4.46-2,4.46-4.46v-36.5c0-1.93.7-3.81,2-5.24,2.69-2.96,4.33-6.9,4.33-11.22,0-14.86-15.72-22.41-39.33-22.5Z"/>
      <circle class="cls-6" cx="428.66" cy="87.36" r="3.78"/>
      <path class="cls-12" d="M428.66,87.36c10.51,11.5,43.25,10.57,50.97,15.14,0,0,6.35-17.94-4.72-30.07l-9.82-10.74-19.23,10.5-17.2,15.17Z"/>
      <path class="cls-6" d="M428.66,87.36s30.91-3.76,49.46,6.72c0,0-42.05,1.39-49.46-6.72Z"/>
      <g class="cls-7">
        <path class="cls-12" d="M428.66,87.36c5.41,5.92,16.69,8.54,27.43,10.32-6.31-5.08-17.59-8.03-23.42-9.7l-4.01-.62Z"/>
      </g>
      <path class="cls-12" d="M428.66,87.36l12.71-21.19,18.5,11.66-4.41,4.03c-14.19,12.97-26.8,5.49-26.8,5.49Z"/>
    </g>
  </g>
  <g id="Bag">
    <g class="cls-24">
      <g>
        <polygon class="cls-5" points="334.29 0 290.92 0 287.57 0 247.36 0 242.35 129.65 287.57 129.65 290.92 129.65 342.19 129.65 334.29 0"/>
        <polygon class="cls-25" points="319.1 0 232.19 0 224.27 129.65 324.11 129.65 319.1 0"/>
        <path class="cls-2" d="M288.62,64.56c1.65-.34,16.21-7.01,17.51-7.76,2.97-1.71,3.98-5.51,2.27-8.47-1.71-2.97-5.51-3.98-8.47-2.27-1.3.75-14.36,10.02-15.47,11.28-1.28,1.44-1.5,3.5-.55,5.14.95,1.64,2.84,2.48,4.73,2.09Z"/>
        <path class="cls-2" d="M306.13,79.33c-1.3-.75-15.86-7.42-17.51-7.76-1.89-.39-3.78.45-4.73,2.09-.95,1.64-.73,3.7.55,5.14,1.12,1.26,14.17,10.53,15.47,11.28,2.97,1.71,6.76.7,8.47-2.27,1.71-2.97.7-6.76-2.27-8.47Z"/>
        <path class="cls-2" d="M274.21,79.25c-1.89,0-3.56,1.22-4.17,3.05-.53,1.59-2.03,17.54-2.03,19.04,0,3.43,2.78,6.2,6.2,6.2s6.2-2.78,6.2-6.2c0-1.5-1.5-17.45-2.03-19.04-.61-1.83-2.28-3.05-4.17-3.05Z"/>
        <path class="cls-2" d="M259.79,71.57c-1.65.34-16.21,7.01-17.51,7.76-2.97,1.71-3.98,5.51-2.27,8.47,1.71,2.97,5.51,3.98,8.47,2.27,1.3-.75,14.36-10.02,15.47-11.28,1.28-1.44,1.5-3.5.55-5.14s-2.84-2.48-4.73-2.09Z"/>
        <path class="cls-2" d="M248.49,46.05c-2.97-1.71-6.76-.7-8.47,2.27-1.71,2.97-.7,6.76,2.27,8.47,1.3.75,15.86,7.42,17.51,7.76,1.89.39,3.78-.45,4.73-2.09.95-1.64.73-3.7-.55-5.14-1.12-1.26-14.17-10.53-15.47-11.28Z"/>
        <path class="cls-2" d="M274.21,28.58c-3.43,0-6.2,2.78-6.2,6.2,0,1.5,1.5,17.45,2.03,19.04.61,1.83,2.28,3.05,4.17,3.05s3.56-1.22,4.17-3.05c.53-1.59,2.03-17.54,2.03-19.04,0-3.43-2.78-6.2-6.2-6.2Z"/>
        <path class="cls-5" d="M302.06,6.16h-4.4l1.68,1.77c-.16.37-.26.78-.26,1.21,0,21.48-9.37,44.02-20.47,44.02s-20.47-22.55-20.47-44.02c0-1.65-1.33-2.98-2.98-2.98h-4.4l1.47,2.42h0c-.04.18-.06.37-.06.57,0,25.56,11.61,49.99,26.43,49.99s26.43-24.42,26.43-49.99c0-1.65-1.33-2.98-2.98-2.98Z"/>
        <path class="cls-9" d="M292.65,51.12c-3.74,2.68-7.61,5.55-8.19,6.21-.2.23-.37.47-.51.72,3.15-1.29,6.09-3.69,8.71-6.93Z"/>
        <path class="cls-9" d="M269.29,48.65c.3,2.59.57,4.65.75,5.18.61,1.83,2.28,3.05,4.17,3.05s3.56-1.22,4.17-3.05c.04-.13.09-.36.15-.66-3.3-.03-6.45-1.67-9.24-4.51Z"/>
        <path class="cls-25" d="M274.21,54.73c-14.82,0-26.43-20.02-26.43-45.58,0-1.65,1.33-2.98,2.98-2.98s2.98,1.33,2.98,2.98c0,21.48,9.37,39.62,20.47,39.62s20.47-18.14,20.47-39.62c0-1.65,1.33-2.98,2.98-2.98s2.98,1.33,2.98,2.98c0,25.56-11.61,45.58-26.43,45.58Z"/>
      </g>
    </g>
  </g>
  <g id="Soap">
    <path class="cls-26" d="M370.69,51.6v-7.16h-2.81c-4.33,0-7.5-1.01-11.47-1.01-1.82,0-3.39.57-4.55,1.18l2.37,2.37s.99-.65,2.18-.65c2.93,0,5.42.75,8.27,1.15v4.11h-2.66c-.98,0-1.77.79-1.77,1.77v7.85h14.38v-7.85c0-.98-.79-1.77-1.77-1.77h-2.16Z"/>
    <path class="cls-15" d="M382.75,73.81l-5.09-4.65c-1.92-1.76-3.02-4.24-3.02-6.85v-3.04h-14.39v3.04c0,2.61-1.1,5.09-3.02,6.85l-5.09,4.65c-1.92,1.76-3.02,4.24-3.02,6.85v36.43c0,2.73.41,5.45,1.23,8.06,1.2,3.83,4.75,6.44,8.76,6.44h16.67c4.02,0,7.57-2.61,8.76-6.44.81-2.61,1.23-5.32,1.23-8.06v-36.43c0-2.61-1.1-5.09-3.02-6.85Z"/>
    <path class="cls-22" d="M359.19,122.07h26.1c.31-1.64.48-3.31.48-4.99v-36.11h-26.58v41.09Z"/>
  </g>
  <g id="Scissors">
    <g>
      <path class="cls-12" d="M429.4,113.64l5.04-3.63,35.16,3.96c12.14,1.37,23.85,5.41,34.2,11.9,2.35,1.47,5.16,3.2,5.16,3.2l-77.57-8.74-3.92-5.64c.68-.26,1.34-.61,1.94-1.04Z"/>
      <path class="cls-5" d="M396.75,85.29c-2.51,1.58-4.42,4.12-5.13,7.24-.71,3.12-.09,6.24,1.49,8.75,1.58,2.51,4.12,4.42,7.24,5.13l22.07,5.04c.26.06.52.13.77.22l6.4-4.07-9.61-2.6c-2.45-.66-4.2-2.83-4.3-5.36-.12-2.9-.69-6.83-2.63-10.19-.09-.17-.19-.33-.29-.49-1.58-2.51-4.12-4.42-7.24-5.13-3.12-.71-6.24-.09-8.75,1.49ZM404.61,87.71c4.08.93,6.64,5.01,5.71,9.09-.93,4.08-5.01,6.64-9.09,5.71-4.08-.93-6.64-5.01-5.71-9.09.93-4.08,5.01-6.64,9.09-5.71Z"/>
      <path class="cls-12" d="M423.18,111.66l6.39-4.07,79.37,21.48h0c-11.65,3.86-24.2,4.13-36.01.79l-43.5-12.32-2.05-2.81c-1.04-1.42-2.51-2.5-4.21-3.06Z"/>
      <path class="cls-5" d="M388.64,106.57c-2.7,1.29-4.74,3.56-5.74,6.38-1,2.82-.84,5.87.45,8.57.08.18.18.36.28.55,0,0,.04.07.06.1.09.15.18.31.27.46l.03.04c.11.17.21.33.33.49l.04.06c.07.1.14.2.22.29,1.58,2.08,3.96,3.85,7.07,5.28.66.3,1.35.59,2.07.85h0c.09.03.17.06.26.09,1.17.42,2.41.8,3.69,1.12,13.17,3.43,23.79.09,25.58-4.95l.83-2.34c.82-2.31,3.12-3.75,5.55-3.46l1.75.2-3.92-5.64c-1.85.7-3.91.75-5.82.07l-5.12-1.81-19.3-6.83c-2.82-1-5.87-.84-8.57.45ZM395.48,111.02l19.3,6.83c1.1.39,1.94,1.19,2.41,2.16.47.98.56,2.13.17,3.23-.39,1.1-1.19,1.94-2.16,2.4-6.33,3.02-22.07.55-26.47-5.28-.04-.06-.08-.11-.13-.17,0-.01-.02-.02-.02-.03-.06-.09-.12-.18-.18-.27,0,0,0-.01-.01-.02-.05-.09-.11-.18-.16-.27,0-.01-.01-.02-.02-.04-.05-.1-.1-.2-.15-.3-.66-1.39-.8-3.03-.24-4.59.55-1.56,1.69-2.76,3.08-3.42s3.03-.8,4.59-.24Z"/>
      <circle class="cls-8" cx="439.63" cy="115.3" r="2.9"/>
    </g>
  </g>
  <g id="Camera">
    <g>
      <path class="cls-5" d="M178.72,80.4h12.17c.93,0,1.68.75,1.68,1.68v1.9h-15.54v-1.9c0-.93.75-1.68,1.68-1.68Z"/>
      <path class="cls-5" d="M163.33,80.4h7.94c1.05,0,1.91.86,1.91,1.91v1.67h-11.76v-1.67c0-1.05.86-1.91,1.91-1.91Z"/>
      <path class="cls-12" d="M196.21,76.97h50.36c.69,0,1.25.56,1.25,1.25v50.18c0,.69-.56,1.25-1.25,1.25h-86.56c-.69,0-1.25-.56-1.25-1.25v-43.2c0-.69.56-1.25,1.25-1.25h27.44c1.62,0,3.1-.92,3.82-2.37l1.12-2.24c.72-1.45,2.2-2.37,3.82-2.37Z"/>
      <g>
        <path class="cls-1" d="M158.77,126.28v2.12c0,.69.56,1.25,1.25,1.25h86.56c.69,0,1.25-.56,1.25-1.25v-2.12h-89.05Z"/>
        <rect class="cls-5" x="158.77" y="94.34" width="89.05" height="31.94"/>
      </g>
      <circle class="cls-5" cx="204.91" cy="109.98" r="19.43"/>
      <circle class="cls-12" cx="207.89" cy="106.99" r="19.43"/>
      <path class="cls-5" d="M207.89,123.61c-9.16,0-16.62-7.45-16.62-16.62s7.45-16.62,16.62-16.62,16.62,7.45,16.62,16.62-7.45,16.62-16.62,16.62Z"/>
      <path class="cls-25" d="M207.89,116.67c-5.34,0-9.68-4.34-9.68-9.68s4.34-9.68,9.68-9.68,9.68,4.34,9.68,9.68-4.34,9.68-9.68,9.68Z"/>
      <rect class="cls-5" x="224.67" y="80.4" width="16.79" height="11.92" rx="1.01" ry="1.01"/>
      <circle class="cls-6" cx="203.72" cy="103.9" r="4.17"/>
    </g>
  </g>
  <g id="Sunglasses">
    <g>
      <path class="cls-9" d="M368.49,100.08h-1.65c-1.59,0-3.86-1.02-6.49-2.2-3.77-1.69-8.44-3.79-13.53-3.99l-.61-.02h0s-.5,0-.5,0c-1.24.02-2.48.16-3.69.42-4.39.92-7.86,3.14-10.65,4.93-2.05,1.31-3.67,2.35-4.85,2.35-1.1,0-1.83-.16-2.6-.33-.96-.21-1.95-.42-3.72-.42s-2.76.21-3.72.42c-.77.17-1.5.33-2.6.33-1.18,0-2.8-1.04-4.85-2.35-2.79-1.79-6.26-4.01-10.65-4.93-1.21-.26-2.46-.4-3.72-.42h-.33s-.51,0-.51,0c-5.19.13-9.95,2.27-13.79,4-2.62,1.18-4.89,2.19-6.48,2.19h-1.65c-.67,0-1.21.54-1.21,1.21v3.05c0,.79.4,1.51,1.05,1.88.25.15.49.32.71.52l.17.17c.94.94,1.21,2.82,1.54,5.2.59,4.11,1.39,9.74,6.37,14.77l.08.08c3.66,3.66,8.53,5.67,13.7,5.67s10.04-2.02,13.7-5.67c4.35-4.35,5.8-9.85,6.85-13.87.61-2.33,1.1-4.18,1.9-4.98.78-.78,1.86-1.14,3.4-1.14s2.62.36,3.4,1.14c.81.81,1.29,2.65,1.91,4.98,1.06,4.02,2.51,9.52,6.85,13.87,3.66,3.66,8.53,5.67,13.7,5.67s10.04-2.02,13.7-5.67l.08-.08c4.98-5.03,5.78-10.66,6.37-14.77.34-2.38.61-4.27,1.54-5.2l.17-.16c.23-.21.47-.38.72-.53.65-.38,1.05-1.1,1.05-1.88v-3.05c0-.67-.54-1.21-1.21-1.21Z"/>
      <circle class="cls-12" cx="294.33" cy="113.27" r="16.16"/>
      <path class="cls-8" d="M278.17,113.27c0-8.93,7.24-16.16,16.16-16.16,2.93,0,5.67.78,8.04,2.14l-22.06,22.06c-1.36-2.37-2.14-5.11-2.14-8.04Z"/>
      <g>
        <circle class="cls-12" cx="346.06" cy="113.27" r="16.16"/>
        <path class="cls-8" d="M329.9,113.27c0-8.93,7.24-16.16,16.16-16.16,6.01,0,11.26,3.29,14.04,8.16l-22.05,22.05c-4.87-2.78-8.16-8.03-8.16-14.04Z"/>
        <path class="cls-12" d="M333.83,110.52c.74,0,1.44-.45,1.72-1.19.08-.23.18-.45.28-.68.42-.92,0-2.01-.92-2.42-.92-.42-2.01,0-2.42.92-.13.3-.26.6-.37.9-.35.95.13,2,1.07,2.36.21.08.43.12.64.12Z"/>
        <path class="cls-12" d="M336.83,105.87c.47,0,.94-.18,1.3-.54,2.12-2.12,4.94-3.29,7.93-3.29,1.01,0,1.83-.82,1.83-1.83,0-1.01-.82-1.83-1.83-1.83-3.98,0-7.71,1.55-10.52,4.36-.72.72-.72,1.88,0,2.59.36.36.83.54,1.3.54Z"/>
      </g>
      <path class="cls-12" d="M286.42,105.5c-.54,0-1.07-.2-1.48-.61-.82-.82-.82-2.14,0-2.96,2.14-2.14,4.98-3.31,8-3.31,1.16,0,2.09.94,2.09,2.09s-.94,2.09-2.09,2.09c-1.9,0-3.69.74-5.04,2.09-.41.41-.95.61-1.48.61Z"/>
    </g>
  </g>
</svg>