<?xml version="1.0" encoding="UTF-8"?>
<svg xmlns="http://www.w3.org/2000/svg" xmlns:xlink="http://www.w3.org/1999/xlink" viewBox="0 0 670.36 207.91">
  <defs>
    <style>
      .cls-1 {
        fill: #b8804f;
      }

      .cls-2, .cls-3 {
        fill: none;
      }

      .cls-4 {
        mask: url(#mask);
      }

      .cls-5 {
        fill: #ffc220;
      }

      .cls-6 {
        filter: url(#luminosity-invert);
      }

      .cls-7 {
        filter: url(#luminosity-invert-2);
      }

      .cls-8 {
        fill: #277fff;
      }

      .cls-9 {
        fill: url(#linear-gradient-2);
      }

      .cls-10 {
        fill: #603625;
      }

      .cls-11 {
        fill: #e03828;
      }

      .cls-12 {
        fill: url(#linear-gradient);
      }

      .cls-13 {
        opacity: .4;
      }

      .cls-13, .cls-14 {
        fill: #fff;
      }

      .cls-15 {
        mask: url(#mask-1);
      }

      .cls-16 {
        fill: #001e60;
      }

      .cls-17 {
        fill: #f9efd6;
      }

      .cls-18 {
        clip-path: url(#clippath-1);
      }

      .cls-19 {
        clip-path: url(#clippath-2);
      }

      .cls-20 {
        fill: #e8be8f;
      }

      .cls-21 {
        fill: #f48a16;
      }

      .cls-22 {
        fill: #66221d;
      }

      .cls-3 {
        stroke: #fff;
        stroke-miterlimit: 10;
        stroke-width: .58px;
      }

      .cls-23 {
        fill: #6abf48;
      }

      .cls-24 {
        fill: #a9ddf7;
      }

      .cls-25 {
        fill: #deb68f;
      }

      .cls-26 {
        fill: #104220;
      }

      .cls-27 {
        fill: #a71e0d;
      }

      .cls-28 {
        fill: #bd5b2b;
      }

      .cls-29 {
        fill: #7b6034;
      }

      .cls-30 {
        fill: #835936;
      }

      .cls-31 {
        fill: #00693d;
      }

      .cls-32 {
        fill: #4dbdf5;
      }

      .cls-33 {
        fill: #a51f0a;
      }

      .cls-34 {
        fill: #cbebfa;
      }

      .cls-35 {
        fill: #e8e0ce;
      }

      .cls-36 {
        clip-path: url(#clippath);
      }

      .cls-37 {
        fill: #0053e2;
      }

      .cls-38 {
        fill: #00ad57;
      }

      .cls-39 {
        fill: #f1d898;
      }
    </style>
    <filter id="luminosity-invert" x="209.97" y="117.6" width="302.01" height="55.2" color-interpolation-filters="sRGB" filterUnits="userSpaceOnUse">
      <feColorMatrix result="cm" values="-1 0 0 0 1 0 -1 0 0 1 0 0 -1 0 1 0 0 0 1 0"/>
    </filter>
    <linearGradient id="linear-gradient" x1="518.65" y1="166.68" x2="518.65" y2="124.34" gradientTransform="translate(-157.68 290.4) scale(1 -1)" gradientUnits="userSpaceOnUse">
      <stop offset="0" stop-color="#fff" stop-opacity="0"/>
      <stop offset="1" stop-color="#000"/>
    </linearGradient>
    <mask id="mask" x="209.97" y="117.6" width="302.01" height="55.2" maskUnits="userSpaceOnUse">
      <g class="cls-6">
        <rect class="cls-12" x="209.97" y="117.6" width="302.01" height="55.2" transform="translate(721.94 290.4) rotate(-180)"/>
      </g>
    </mask>
    <filter id="luminosity-invert-2" x="497.36" y="136.75" width="194.17" height="29.46" color-interpolation-filters="sRGB" filterUnits="userSpaceOnUse">
      <feColorMatrix result="cm" values="-1 0 0 0 1 0 -1 0 0 1 0 0 -1 0 1 0 0 0 1 0"/>
    </filter>
    <linearGradient id="linear-gradient-2" x1="605.67" y1="162.75" x2="605.67" y2="152.83" gradientUnits="userSpaceOnUse">
      <stop offset="0" stop-color="#fff"/>
      <stop offset="1" stop-color="#000"/>
    </linearGradient>
    <mask id="mask-1" x="497.36" y="136.75" width="194.17" height="29.46" maskUnits="userSpaceOnUse">
      <g class="cls-7">
        <rect class="cls-9" x="519.81" y="136.75" width="171.72" height="29.46"/>
      </g>
    </mask>
    <clipPath id="clippath">
      <rect class="cls-2" x="55.08" y="108.7" width="615.12" height="99.21"/>
    </clipPath>
    <clipPath id="clippath-1">
      <rect class="cls-2" x="389.05" y="154.56" width="29.06" height="29.06" transform="translate(237.78 -235.85) rotate(45)"/>
    </clipPath>
    <clipPath id="clippath-2">
      <rect class="cls-2" x="370.83" y="140.66" width="22.91" height="22.91" transform="translate(545.04 529.99) rotate(-135)"/>
    </clipPath>
  </defs>
  <g id="Background">
    <rect class="cls-24" x="55.08" y="108.7" width="615.12" height="99.21"/>
    <g class="cls-4">
      <path class="cls-13" d="M498.84,127.65c-5.18,0-9.73,3.75-9.73,3.75l-16.43-7.01s-1-.39-2.52-.39c-3.73,0-6.01,3.14-6.01,3.14,0,0-1.18-1.96-4.91-1.96-7.23,0-12.16,10.75-19.63,10.75,0,0-5.18-13.05-16.19-13.05-6.66,0-9.08,5.09-9.08,5.09,0,0-.73-1.25-3.13-1.25s-3.41,2.15-3.41,2.15c0,0-2.45-1.73-5.78-1.73-6.97,0-7.95,6.89-11.54,6.89-2.88,0-3.15-2.85-7.85-2.85s-6.96,4.02-6.96,4.02c0,0-1.16-.8-3.34-.8-5.19,0-10.54,6.5-10.54,6.5,0,0-.95-2.69-5.35-2.69-6.53,0-9.72,8.08-18.78,8.08-4.7,0-7.23-1.4-12.65-1.4-3.73,0-6.01,1.32-6.01,1.32,0,0-.34-2.32-2.56-2.32-1.46,0-2.62.33-3.55.33-5.02,0-3.99-5.67-11.63-5.67s-14.43,5.71-14.43,5.71c0,0,.43-2.18-1.96-2.18-3.22,0-3.67,3.8-12.54,3.8-6.05,0-7.32,3.63-7.32,3.63,0,0-.84-1.66-2.51-1.66-5.12,0-6.2,1.22-12.99,1.22-12.43,0-20.29,8.61-23.2,11.53h272.61l-.09-32.99Z"/>
    </g>
    <g class="cls-15">
      <path class="cls-13" d="M670.3,142.2c-3.29,0-6.17,2.38-6.17,2.38,0,0-2.39-6.46-6.84-6.46-2.96,0-3.59,2.01-3.59,2.01,0,0-.63-.25-1.6-.25-2.37,0-3.81,2-3.81,2,0,0-.75-1.24-3.11-1.24-4.59,0-7.72,6.82-12.46,6.82,0,0-3.29-8.28-10.27-8.28-4.22,0-5.76,3.23-5.76,3.23,0,0-.46-.79-1.98-.79s-2.16,1.36-2.16,1.36c0,0-1.55-1.09-3.67-1.09-4.42,0-5.04,4.37-7.32,4.37-1.83,0-2-1.81-4.98-1.81s-4.42,2.55-4.42,2.55c0,0-.74-.51-2.12-.51-3.3,0-6.69,4.13-6.69,4.13,0,0-.61-1.71-3.39-1.71-4.14,0-6.17,5.13-11.92,5.13-2.98,0-4.59-.89-8.03-.89-2.36,0-3.81.84-3.81.84,0,0-.21-1.47-1.62-1.47-.93,0-1.66.21-2.25.21-3.18,0-2.53-3.6-7.38-3.6s-9.16,3.62-9.16,3.62c0,0,.28-1.39-1.24-1.39-2.05,0-2.33,2.41-7.96,2.41-3.84,0-4.65,2.3-4.65,2.3,0,0-.54-1.05-1.59-1.05-3.25,0-3.93.77-8.24.77-7.89,0-12.87,5.46-14.73,7.32h173l-.06-20.94Z"/>
    </g>
    <path class="cls-23" d="M351.14,175.99c-53.65,0-231.91-12.99-296.06-13.89v45.81h615.12v-37.69c-17.13-.75-63.52-2.49-124.21-2.49-77.3,0-123.43,8.26-194.84,8.26Z"/>
    <rect class="cls-20" x="55.08" y="194.76" width="615.12" height="13.15"/>
    <path class="cls-38" d="M351.14,175.99c20.47,0,38.85-.68,56.49-1.65-.67-2.84-3.07-4.95-5.95-4.95-.93,0-1.82.23-2.61.62-2.47-3.4-7.9-10.37-11.07-10.37-4.2,0-5.57,1.56-5.57,1.56,0,0-4.43-5.77-6.34-5.77s-2.6,1.78-2.6,1.78c0,0-2.73-1.03-5.23-1.03-5.64,0-7.52,4.48-7.52,4.48,0,0-2.61-3.05-4.66-2.66-2.05.39-2.14,2.15-6,2.15s-13.39-8.57-19.08-8.57c-3.43,0-5.4,1.47-5.4,1.47,0,0-.6-5.26-4.12-5.26-3.05,0-4.13,1.91-6.26,1.91s-4.41-7.22-8.81-2.82c-2.68,2.68-4.64-8.71-13.11-8.71-5.38,0-6.58,3.17-6.58,3.17,0,0-1.92-2.74-6.72-2.74-6.17,0-9.87,6.86-9.87,6.86,0,0-3.2-3.59-5.1-3.59s-3.17,2.61-3.17,2.61c0,0-5.98-3.24-9.32-3.24s-5.02,3.9-5.02,3.9c0,0-2.31-2.65-5.39-2.65s-5.62,2.65-5.62,2.65v25.87c48.33,2.69,92.3,4.95,114.64,4.95Z"/>
    <path class="cls-16" d="M55.08,198.19v4.93c185.3,0,335.2-1.11,335.2-2.46s-149.9-2.46-335.2-2.46Z"/>
  </g>
  <g id="House">
    <polygon class="cls-37" points="495.92 123.23 443.22 123.23 433.98 152.29 491.41 152.29 495.92 123.23"/>
    <rect class="cls-32" x="543.94" y="114.59" width="4.08" height="4.08"/>
    <rect class="cls-32" x="542.1" y="118.29" width="4.92" height="5.49"/>
    <rect class="cls-14" x="438.08" y="153.01" width="68.76" height="21.87"/>
    <polygon class="cls-24" points="461.69 152.09 460.73 152.29 438.14 174.88 466.24 174.88 466.24 152.09 461.69 152.09"/>
    <rect class="cls-14" x="594.94" y="155" width="1.47" height="19.89"/>
    <rect class="cls-14" x="544.81" y="118.29" width="4.92" height="5.49"/>
    <rect class="cls-14" x="515.96" y="152.09" width="68.76" height="22.79"/>
    <rect class="cls-37" x="515.96" y="174.88" width="26.31" height="6.36"/>
    <rect class="cls-16" x="438.08" y="174.88" width="26.31" height="6.36"/>
    <polygon class="cls-24" points="515.96 152.09 515.96 174.88 561.92 174.88 584.71 152.09 515.96 152.09"/>
    <polygon class="cls-37" points="491 123.23 578.01 123.23 585.46 146.67 610.35 152.29 494.53 152.29 491 123.23"/>
    <polygon class="cls-8" points="502.8 152.29 610.35 152.29 585.46 146.67 503.32 146.67 502.8 152.29"/>
    <rect class="cls-14" x="516.46" y="152.75" width="90.42" height="2.85"/>
    <rect class="cls-32" x="516.41" y="152.29" width="93.94" height="1.87"/>
    <rect class="cls-32" x="434.05" y="152.29" width="93.94" height="1.87"/>
    <rect class="cls-14" x="557.99" y="155" width="1.47" height="19.89"/>
    <rect class="cls-14" x="605.41" y="155" width="1.47" height="19.89"/>
    <rect class="cls-37" x="542.02" y="157.76" width="10.4" height="17.12"/>
    <rect class="cls-14" x="538.77" y="155" width="1.47" height="19.89"/>
    <rect class="cls-16" x="543.39" y="159.51" width="2.83" height="7.49"/>
    <rect class="cls-16" x="548.22" y="159.51" width="2.83" height="7.49"/>
    <polygon class="cls-14" points="488.81 122.21 460.73 150.44 460.73 176.51 488.81 176.51 516.89 176.51 516.89 150.44 488.81 122.21"/>
    <polygon class="cls-8" points="459.09 151.14 485.41 151.14 485.84 148.13 461.62 148.13 459.09 151.14"/>
    <polygon class="cls-32" points="488.81 119.87 457.51 151.17 458.63 152.29 460.73 152.29 460.73 150.44 488.81 122.21 516.89 150.44 516.89 152.29 518.98 152.29 520.11 151.17 488.81 119.87"/>
    <polygon class="cls-24" points="514.32 147.87 488.81 122.21 487.3 123.71 513.1 149.66 514.32 147.87"/>
    <polygon class="cls-14" points="500.79 134.26 484.69 150.44 484.69 176.51 516.89 176.51 516.89 150.44 500.79 134.26"/>
    <rect class="cls-14" x="516.89" y="155" width="1.47" height="19.89"/>
    <rect class="cls-32" x="498.96" y="140.21" width="3.61" height="7.38"/>
    <rect class="cls-32" x="487" y="128.14" width="3.61" height="7.38"/>
    <rect class="cls-37" x="460.73" y="176.51" width="56.16" height="4.74"/>
    <polygon class="cls-32" points="499.58 133.04 481.47 151.16 482.6 152.28 484.69 152.28 484.69 150.43 500.78 134.25 499.58 133.04"/>
    <rect class="cls-32" x="459.55" y="151.14" width="25.14" height="1.87"/>
    <polygon class="cls-24" points="482.36 176.51 484.69 176.51 484.69 153.01 482.36 155.35 482.36 176.51"/>
    <polygon class="cls-24" points="482.36 156.43 460.73 156.43 460.73 153.01 484.69 153.01 482.36 156.43"/>
    <g>
      <rect class="cls-16" x="469.23" y="154.6" width="8.67" height="1.83"/>
      <rect class="cls-37" x="469.23" y="169.96" width="8.67" height="1.83"/>
      <g>
        <rect class="cls-32" x="473.93" y="156.83" width="3.04" height="6"/>
        <rect class="cls-32" x="470.17" y="156.83" width="3.04" height="6"/>
        <rect class="cls-32" x="470.17" y="163.56" width="6.8" height="6"/>
      </g>
    </g>
    <g>
      <rect class="cls-37" x="496.43" y="154.6" width="8.67" height="1.83"/>
      <rect class="cls-37" x="496.43" y="169.96" width="8.67" height="1.83"/>
      <g>
        <rect class="cls-32" x="501.13" y="156.83" width="3.04" height="6"/>
        <rect class="cls-32" x="497.37" y="156.83" width="3.04" height="6"/>
        <rect class="cls-32" x="497.37" y="163.56" width="6.8" height="6"/>
      </g>
    </g>
    <g>
      <rect class="cls-16" x="519.5" y="157.73" width="6.83" height="1.44"/>
      <rect class="cls-16" x="519.5" y="169.84" width="6.83" height="1.44"/>
      <g>
        <rect class="cls-37" x="523.2" y="159.48" width="2.39" height="4.73"/>
        <rect class="cls-37" x="520.24" y="159.48" width="2.39" height="4.73"/>
        <rect class="cls-37" x="520.24" y="164.79" width="5.36" height="4.73"/>
      </g>
    </g>
    <g>
      <rect class="cls-16" x="530.78" y="157.73" width="6.83" height="1.44"/>
      <rect class="cls-16" x="530.78" y="169.84" width="6.83" height="1.44"/>
      <g>
        <rect class="cls-37" x="534.48" y="159.48" width="2.39" height="4.73"/>
        <rect class="cls-37" x="531.51" y="159.48" width="2.39" height="4.73"/>
        <rect class="cls-37" x="531.51" y="164.79" width="5.36" height="4.73"/>
      </g>
    </g>
    <g>
      <line class="cls-3" x1="517.62" y1="168.2" x2="539.5" y2="168.2"/>
      <line class="cls-3" x1="537.56" y1="168.2" x2="537.56" y2="174.87"/>
      <line class="cls-3" x1="536.06" y1="168.2" x2="536.06" y2="174.87"/>
      <line class="cls-3" x1="534.56" y1="168.2" x2="534.56" y2="174.87"/>
      <line class="cls-3" x1="533.06" y1="168.2" x2="533.06" y2="174.87"/>
      <line class="cls-3" x1="531.56" y1="168.2" x2="531.56" y2="174.87"/>
      <line class="cls-3" x1="530.06" y1="168.2" x2="530.06" y2="174.87"/>
      <line class="cls-3" x1="528.55" y1="168.2" x2="528.55" y2="174.87"/>
      <line class="cls-3" x1="527.05" y1="168.2" x2="527.05" y2="174.87"/>
      <line class="cls-3" x1="525.55" y1="168.2" x2="525.55" y2="174.87"/>
      <line class="cls-3" x1="524.05" y1="168.2" x2="524.05" y2="174.87"/>
      <line class="cls-3" x1="522.55" y1="168.2" x2="522.55" y2="174.87"/>
      <line class="cls-3" x1="521.05" y1="168.2" x2="521.05" y2="174.87"/>
      <line class="cls-3" x1="519.55" y1="168.2" x2="519.55" y2="174.87"/>
    </g>
    <rect class="cls-37" x="448.77" y="157.73" width="6.83" height="1.44"/>
    <rect class="cls-16" x="448.77" y="169.84" width="6.83" height="1.44"/>
    <rect class="cls-32" x="452.48" y="159.48" width="2.39" height="4.73"/>
    <rect class="cls-32" x="449.51" y="159.48" width="2.39" height="4.73"/>
    <rect class="cls-37" x="449.51" y="164.79" width="5.36" height="4.73"/>
    <polygon class="cls-37" points="449.51 164.22 451.9 164.22 451.9 161.12 449.51 163.51 449.51 164.22"/>
    <polygon class="cls-37" points="452.48 164.22 454.87 164.22 454.87 159.48 453.54 159.48 452.48 160.55 452.48 164.22"/>
    <polygon class="cls-16" points="455.6 159.17 455.6 157.73 455.3 157.73 453.85 159.17 455.6 159.17"/>
    <rect class="cls-16" x="565.92" y="157.73" width="6.83" height="1.44"/>
    <rect class="cls-37" x="565.92" y="169.84" width="6.83" height="1.44"/>
    <rect class="cls-37" x="569.62" y="159.48" width="2.39" height="4.73"/>
    <rect class="cls-37" x="566.66" y="159.48" width="2.39" height="4.73"/>
    <rect class="cls-32" x="566.66" y="164.79" width="5.36" height="4.73"/>
    <polygon class="cls-37" points="566.66 164.79 566.66 169.52 567.28 169.52 572.02 164.79 566.66 164.79"/>
    <g>
      <line class="cls-3" x1="558.73" y1="168.22" x2="605.87" y2="168.22"/>
      <line class="cls-3" x1="604.21" y1="168.22" x2="604.21" y2="174.88"/>
      <line class="cls-3" x1="602.71" y1="168.22" x2="602.71" y2="174.88"/>
      <line class="cls-3" x1="601.21" y1="168.22" x2="601.21" y2="174.88"/>
      <line class="cls-3" x1="599.71" y1="168.22" x2="599.71" y2="174.88"/>
      <line class="cls-3" x1="598.21" y1="168.22" x2="598.21" y2="174.88"/>
      <line class="cls-3" x1="596.71" y1="168.22" x2="596.71" y2="174.88"/>
      <line class="cls-3" x1="595.21" y1="168.22" x2="595.21" y2="174.88"/>
      <line class="cls-3" x1="593.7" y1="168.22" x2="593.7" y2="174.88"/>
      <line class="cls-3" x1="592.2" y1="168.22" x2="592.2" y2="174.88"/>
      <line class="cls-3" x1="590.7" y1="168.22" x2="590.7" y2="174.88"/>
      <line class="cls-3" x1="589.2" y1="168.22" x2="589.2" y2="174.88"/>
      <line class="cls-3" x1="587.7" y1="168.22" x2="587.7" y2="174.88"/>
      <line class="cls-3" x1="586.2" y1="168.22" x2="586.2" y2="174.88"/>
      <line class="cls-3" x1="584.7" y1="168.22" x2="584.7" y2="174.88"/>
      <line class="cls-3" x1="583.2" y1="168.22" x2="583.2" y2="174.88"/>
      <line class="cls-3" x1="581.7" y1="168.22" x2="581.7" y2="174.88"/>
      <line class="cls-3" x1="580.2" y1="168.22" x2="580.2" y2="174.88"/>
      <line class="cls-3" x1="578.7" y1="168.22" x2="578.7" y2="174.88"/>
      <line class="cls-3" x1="577.2" y1="168.22" x2="577.2" y2="174.88"/>
      <line class="cls-3" x1="575.69" y1="168.22" x2="575.69" y2="174.88"/>
      <line class="cls-3" x1="574.19" y1="168.22" x2="574.19" y2="174.88"/>
      <line class="cls-3" x1="572.69" y1="168.22" x2="572.69" y2="174.88"/>
      <line class="cls-3" x1="571.19" y1="168.22" x2="571.19" y2="174.88"/>
      <line class="cls-3" x1="569.69" y1="168.22" x2="569.69" y2="174.88"/>
      <line class="cls-3" x1="568.19" y1="168.22" x2="568.19" y2="174.88"/>
      <line class="cls-3" x1="566.69" y1="168.22" x2="566.69" y2="174.88"/>
      <line class="cls-3" x1="565.19" y1="168.22" x2="565.19" y2="174.88"/>
      <line class="cls-3" x1="563.69" y1="168.22" x2="563.69" y2="174.88"/>
      <line class="cls-3" x1="562.19" y1="168.22" x2="562.19" y2="174.88"/>
      <line class="cls-3" x1="560.69" y1="168.22" x2="560.69" y2="174.88"/>
    </g>
    <polygon class="cls-24" points="540.24 155.6 538.77 157.07 538.77 155.6 540.24 155.6"/>
    <polygon class="cls-24" points="559.46 155.6 557.99 157.07 557.99 155.6 559.46 155.6"/>
    <polygon class="cls-24" points="596.41 155.6 594.94 157.07 594.94 155.6 596.41 155.6"/>
    <polygon class="cls-24" points="606.88 155.6 605.41 157.07 605.41 155.6 606.88 155.6"/>
    <polygon class="cls-16" points="485.45 123.23 477.51 123.23 448.44 152.29 458.63 152.29 457.51 151.17 485.45 123.23"/>
    <polygon class="cls-24" points="516.89 150.44 500.79 134.26 499.29 135.77 516.89 153.47 516.89 150.44"/>
    <g>
      <polygon class="cls-29" points="513.13 146.67 513.12 146.67 513.13 146.67 513.13 146.67"/>
      <polygon class="cls-16" points="536.57 123.23 514.37 145.43 515.61 146.67 521.24 146.67 521.24 146.67 544.5 123.23 536.57 123.23"/>
    </g>
    <polygon class="cls-21" points="454.07 146.67 454.07 146.67 454.08 146.67 454.07 146.67"/>
    <polygon class="cls-24" points="516.89 155.6 516.89 164.93 516.89 166.4 518.35 164.93 518.35 155.6 516.89 155.6"/>
    <path class="cls-20" d="M440.25,194.76l1.68-3.21c1.4-2.67,4.17-4.35,7.19-4.35h64.67c28.03,0,40.7-1.34,45.99-2.23,1.18-.2,1.43-1.78.37-2.33l-2.67-1.39h-12.45l1.91.99c.43.22.37.86-.1.99-2.36.66-9.74,1.79-32.62,1.79h-76.31c-5.32,0-10.49,1.73-14.73,4.94l-6.35,4.8h23.41Z"/>
    <g>
      <polygon class="cls-32" points="573.85 146.67 547.23 119.84 520.61 146.67 573.85 146.67"/>
      <polygon class="cls-14" points="547.23 122.73 523.47 146.67 547.23 146.67 570.98 146.67 547.23 122.73"/>
      <polygon class="cls-24" points="547.23 122.73 545.44 124.53 567.4 146.67 570.98 146.67 547.23 122.73"/>
      <rect class="cls-32" x="545" y="132.24" width="4.45" height="9.11"/>
    </g>
    <rect class="cls-37" x="540.75" y="174.88" width="66.13" height="6.36"/>
    <g>
      <polygon class="cls-14" points="542.2 174.88 542.2 176.48 543.14 176.48 553.71 176.48 554.65 176.48 554.65 174.88 542.2 174.88"/>
      <polygon class="cls-14" points="554.65 176.48 544.08 176.48 543.14 176.48 543.14 178.07 544.08 178.07 554.65 178.07 555.6 178.07 555.6 176.48 554.65 176.48"/>
      <polygon class="cls-14" points="555.6 178.07 545.02 178.07 544.08 178.07 544.08 179.66 545.02 179.66 555.6 179.66 556.54 179.66 556.54 178.07 555.6 178.07"/>
      <polygon class="cls-14" points="556.54 179.66 545.97 179.66 545.02 179.66 545.02 181.25 557.48 181.25 557.48 179.66 556.54 179.66"/>
      <polygon class="cls-24" points="553.71 176.08 543.14 176.08 542.2 176.08 542.2 176.48 543.14 176.48 553.71 176.48 554.65 176.48 554.65 176.08 553.71 176.08"/>
      <polygon class="cls-24" points="554.65 177.67 544.08 177.67 543.14 177.67 543.14 178.07 544.08 178.07 554.65 178.07 555.6 178.07 555.6 177.67 554.65 177.67"/>
      <polygon class="cls-24" points="555.6 179.26 545.02 179.26 544.08 179.26 544.08 179.66 545.02 179.66 555.6 179.66 556.54 179.66 556.54 179.26 555.6 179.26"/>
    </g>
    <polygon class="cls-16" points="545.02 180.68 545.02 180.68 545.02 179.65 544.08 179.65 544.08 179.25 544.08 178.06 543.14 178.06 543.14 177.66 543.14 176.47 542.2 176.47 542.2 176.07 542.2 174.89 535.83 181.25 541.75 181.25 542.27 181.25 545.02 181.25 545.02 180.68"/>
    <path class="cls-23" d="M542.17,180.07c-1.96-3-7.06-3.34-9.42-.62-.8-.78-2.31-.68-2.99.2-.02-1.17-1.06-2.24-2.26-2.33-1.2-.1-2.4.79-2.62,1.94-.88-1.01-2.82-.79-3.44.39-.68-.52-1.78-.4-2.33.25-.66-.87-2.17-.96-2.93-.17-1.35-1.53-3.65-2-5.71-1.69-2.05.31-3.93,1.28-5.76,2.24-1.21-1.11-3.37-1.01-4.48.2-.3-.92-1.41-1.41-2.4-1.36-1,.05-1.91.52-2.8.97-1.23-1.94-4.86-1.51-5.57.67-2.51.14-4.68-1.53-6.92-2.64-2.24-1.11-5.48-1.44-6.83.62-.87-1.63-3.65-1.78-4.7-.26-1.13-.78-2.95-.22-3.42,1.04-2.29-.21-4.62.06-6.8.76-.24-1.83-1.75-3.43-3.61-3.82-1.85-.39-3.91.47-4.9,2.05-.98-1.19-3.26-.91-3.9.48-.16-.92-1.05-1.67-2.01-1.71-.96-.03-1.9.66-2.13,1.57-.76-.35-1.64-.27-2.47-.2-2.47.23-5.52.95-6.25,3.14h110.27s-1.21-2.38-3.63-1.75Z"/>
    <path class="cls-23" d="M669.73,181.82s-1.21-2.38-3.63-1.75c-1.96-3-7.06-3.34-9.42-.62-.8-.78-2.31-.68-2.99.2-.02-1.17-1.06-2.24-2.26-2.33-1.2-.1-2.4.79-2.62,1.94-.88-1.01-2.82-.79-3.44.39-.68-.52-1.78-.4-2.33.25-.66-.87-2.17-.96-2.93-.17-1.35-1.53-3.65-2-5.71-1.69-2.05.31-3.93,1.28-5.76,2.24-1.21-1.11-3.37-1.01-4.48.2-.3-.92-1.41-1.41-2.4-1.36-1,.05-1.91.52-2.8.97-1.23-1.94-4.86-1.51-5.57.67-2.51.14-4.68-1.53-6.92-2.64-2.24-1.11-5.48-1.44-6.83.62-.87-1.63-3.65-1.78-4.7-.26-1.13-.78-2.95-.22-3.42,1.04-2.29-.21-4.62.06-6.8.76-.24-1.83-1.75-3.43-3.61-3.82-1.85-.39-3.91.47-4.9,2.05-.98-1.19-3.26-.91-3.9.48-.16-.92-1.05-1.67-2.01-1.71-.96-.03-1.9.66-2.13,1.57,0,0-1.06-.61-2.86-.61-2.73,0-5.17,2.19-5.17,2.19,0,0-.26-.66-.89-.66s-1.79,1.46-1.79,1.46l1.98.57h110.27Z"/>
  </g>
  <g id="Van">
    <g class="cls-36">
      <path class="cls-16" d="M178.47,143.62c-11.88,0-21.5,12.61-21.5,28.17,0,15.56,9.63,28.17,21.5,28.17h14.85s0-56.33,0-56.33h-14.85Z"/>
      <ellipse class="cls-16" cx="192.97" cy="171.78" rx="21.5" ry="28.17"/>
      <rect class="cls-37" x="136.96" y="15.84" width="108.79" height="135.97"/>
      <rect class="cls-16" x="239.52" y="18.31" width="8.81" height="133.5"/>
      <g>
        <rect class="cls-2" x="136.96" y="15.84" width="108.79" height="27.14"/>
        <polygon class="cls-16" points="245.75 78.3 245.75 42.98 136.96 42.98 136.96 151.81 150.57 151.81 224.09 78.3 245.75 78.3"/>
      </g>
      <path class="cls-16" d="M91.28,168.26h157.04v7.38c0,2.13-1.73,3.86-3.86,3.86H91.28v-11.24h0Z"/>
      <path class="cls-37" d="M127.67,168.26v-16.45h130.39v14.8c0,.91-.74,1.65-1.65,1.65H127.67Z"/>
      <polygon class="cls-37" points="245.04 21.94 140.45 21.94 140.45 18.31 248.3 18.31 245.04 21.94"/>
      <rect class="cls-32" x="141.17" y="21.31" width="105.96" height="33.79"/>
      <rect class="cls-16" x="31.15" y="132.19" width="62.83" height="36.07"/>
      <rect class="cls-25" x="164.78" y="95.46" width="28.34" height="56.34"/>
      <polygon class="cls-1" points="193.12 95.46 164.78 95.46 164.78 137.6 193.12 109.26 193.12 95.46"/>
      <polygon class="cls-1" points="198.74 96.92 198.74 103.64 205.47 96.92 198.74 96.92"/>
      <rect class="cls-1" x="140.42" y="95.46" width="24.36" height="56.34"/>
      <polygon class="cls-30" points="140.42 151.81 150.57 151.81 164.78 137.6 164.78 95.46 140.42 95.46 140.42 151.81"/>
      <g>
        <path class="cls-22" d="M257.08,117.81c0-1.26-.59-2.35-1.43-2.84l.24-.28h-1.23c-1.34,0-2.43,1.39-2.43,3.12s1.09,3.12,2.43,3.12h1.23l-.26-.26c.86-.48,1.45-1.58,1.45-2.85Z"/>
        <ellipse class="cls-11" cx="255.89" cy="117.81" rx="2.17" ry="3.12"/>
      </g>
      <polygon class="cls-16" points="140.45 160.97 245.75 160.97 258.06 159.15 258.06 157.55 140.45 157.55 140.45 160.97"/>
      <rect class="cls-32" x="182.55" y="157.55" width="29.88" height="10.71"/>
      <rect class="cls-2" x="182.55" y="157.55" width="29.88" height="10.71"/>
      <g>
        <path class="cls-28" d="M256.86,98.78l-1.26-1.26h-2.05c-1.35,0-2.45,1.1-2.45,2.45v10.06c0,1.35,1.1,2.45,2.45,2.45h2.05l-.05-1.04c.28-.4.44-.88.44-1.4v-10.06c0-.22-.03-.44-.09-.64l.95-.55Z"/>
        <rect class="cls-21" x="253.16" y="97.53" width="4.9" height="14.96" rx="2.45" ry="2.45"/>
      </g>
      <g>
        <path class="cls-22" d="M256.86,124.65l-1.26-1.26h-2.05c-1.35,0-2.45,1.1-2.45,2.45v10.06c0,1.35,1.1,2.45,2.45,2.45h2.05l-.05-1.04c.28-.4.44-.88.44-1.4v-10.06c0-.22-.03-.44-.09-.64l.95-.55Z"/>
        <rect class="cls-11" x="253.16" y="123.39" width="4.9" height="14.96" rx="2.45" ry="2.45"/>
      </g>
      <polygon class="cls-24" points="212.42 168.26 212.42 160.97 194.49 168.26 212.42 168.26"/>
      <g>
        <path class="cls-16" d="M76.55,143.62c11.88,0,21.5,12.61,21.5,28.17s-9.63,28.17-21.5,28.17h-14.85v-56.33h14.85Z"/>
        <ellipse class="cls-37" cx="62.06" cy="171.78" rx="21.5" ry="28.17"/>
        <ellipse class="cls-16" cx="62.06" cy="171.78" rx="11.73" ry="15.36"/>
        <path class="cls-32" d="M53.33,171.78c0-7.82,4.46-14.27,10.23-15.23-.49-.08-.99-.13-1.5-.13-6.48,0-11.73,6.88-11.73,15.36s5.25,15.36,11.73,15.36c.51,0,1.01-.05,1.5-.13-5.77-.97-10.23-7.42-10.23-15.23Z"/>
      </g>
      <path class="cls-37" d="M127.67,114.43V0H0v168.26h28.44s9.77,0,9.77,0c0-17.64,9.89-31.93,24.49-31.93,13.29,0,22.51,11.83,24.07,27.25.27,2.65,2.48,4.68,5.15,4.68h35.74v-53.83h0Z"/>
      <g>
        <path class="cls-2" d="M92.94,157.33c-.03-.09-.06-.18-.08-.27.03.09.06.18.08.27Z"/>
        <path class="cls-2" d="M89.69,149.85s-.03-.05-.04-.08c.01.03.03.05.04.08Z"/>
        <path class="cls-2" d="M88.13,147.44c-.06-.08-.12-.16-.18-.24.06.08.12.16.18.24Z"/>
        <path class="cls-2" d="M88.91,148.59c-.05-.08-.1-.15-.15-.22.05.07.1.15.15.22Z"/>
        <path class="cls-2" d="M89.28,149.17c-.04-.06-.08-.12-.12-.18.04.06.08.12.12.18Z"/>
        <path class="cls-2" d="M94.33,164.35c-.01-.11-.02-.23-.04-.34.01.11.02.23.04.34Z"/>
        <path class="cls-2" d="M90.47,151.25c-.04-.08-.09-.17-.13-.25.04.08.09.17.13.25Z"/>
        <path class="cls-2" d="M90.11,150.6c-.04-.07-.08-.14-.12-.22.04.07.08.14.12.22Z"/>
        <path class="cls-2" d="M85.53,144.27c-.06-.07-.13-.14-.19-.21.07.07.13.14.19.21Z"/>
        <path class="cls-2" d="M85.99,144.77c-.07-.07-.13-.15-.2-.22.07.07.13.14.2.22Z"/>
        <path class="cls-2" d="M86.44,145.28c-.07-.08-.13-.15-.2-.23.07.08.13.15.2.23Z"/>
        <path class="cls-2" d="M91.11,152.56c-.04-.09-.09-.19-.13-.28.04.09.09.19.13.28Z"/>
        <path class="cls-2" d="M87.31,146.34c-.06-.08-.13-.16-.19-.24.06.08.13.16.19.24Z"/>
        <path class="cls-2" d="M87.73,146.89c-.06-.08-.12-.16-.18-.24.06.08.12.16.18.24Z"/>
        <path class="cls-2" d="M86.88,145.81c-.06-.08-.13-.16-.19-.23.06.08.13.16.19.23Z"/>
        <path class="cls-2" d="M91.7,153.88c-.04-.1-.08-.2-.13-.3.04.1.08.2.13.3Z"/>
        <path class="cls-2" d="M93.74,160.52c-.02-.1-.04-.2-.06-.3.02.1.04.2.06.3Z"/>
        <path class="cls-2" d="M93.89,161.28c-.02-.11-.04-.21-.06-.32.02.11.04.21.06.32Z"/>
        <path class="cls-2" d="M93.58,159.75c-.02-.09-.04-.17-.06-.26.02.08.04.17.06.26Z"/>
        <path class="cls-2" d="M93.36,158.85s-.01-.06-.02-.09c0,.03.01.06.02.09Z"/>
        <path class="cls-2" d="M94.03,162.05c-.02-.11-.04-.22-.05-.33.02.11.04.22.05.33Z"/>
        <path class="cls-2" d="M94.24,163.58c-.01-.11-.03-.23-.04-.34.01.11.03.23.04.34Z"/>
        <path class="cls-2" d="M94.14,162.81c-.02-.11-.03-.22-.05-.34.02.11.03.22.05.34Z"/>
        <path class="cls-2" d="M84.55,143.28c-.05-.05-.11-.11-.16-.16.05.05.11.11.16.16Z"/>
        <path class="cls-2" d="M91.97,154.55c-.04-.1-.08-.2-.12-.3.04.1.08.2.12.3Z"/>
        <path class="cls-2" d="M91.41,153.22c-.04-.1-.09-.19-.13-.29.04.1.09.19.13.29Z"/>
        <path class="cls-2" d="M92.23,155.24c-.04-.1-.08-.2-.11-.3.04.1.08.2.11.3Z"/>
        <path class="cls-2" d="M92.72,156.62c-.03-.1-.06-.19-.1-.29.03.1.07.19.1.29Z"/>
        <path class="cls-2" d="M92.48,155.93c-.03-.1-.07-.2-.11-.3.04.1.07.2.11.3Z"/>
        <path class="cls-2" d="M93.14,158.04c-.02-.07-.04-.14-.06-.22.02.07.04.14.06.22Z"/>
        <path class="cls-2" d="M90.8,151.9c-.04-.09-.09-.18-.13-.27.05.09.09.18.13.27Z"/>
        <path class="cls-2" d="M73.52,137.01c-.09-.02-.18-.05-.28-.07.09.02.18.04.28.07Z"/>
        <path class="cls-2" d="M71.62,136.62c-.09-.02-.19-.03-.28-.04.09.01.19.03.28.04Z"/>
        <path class="cls-2" d="M72.26,136.73c-.09-.02-.19-.04-.28-.05.09.02.19.03.28.05Z"/>
        <path class="cls-2" d="M72.89,136.86c-.09-.02-.19-.04-.28-.06.09.02.19.04.28.06Z"/>
        <path class="cls-2" d="M74.14,137.17c-.09-.03-.18-.05-.27-.07.09.02.18.05.27.07Z"/>
        <path class="cls-2" d="M75.36,137.56c-.08-.03-.16-.05-.24-.08.08.03.16.05.24.08Z"/>
        <path class="cls-2" d="M74.75,137.36c-.09-.03-.17-.05-.26-.08.09.03.17.05.26.08Z"/>
        <path class="cls-2" d="M70.97,136.52c-.09-.01-.19-.02-.28-.04.09.01.19.02.28.04Z"/>
        <path class="cls-2" d="M84.87,143.59c.06.06.12.13.19.19-.06-.06-.12-.13-.19-.19Z"/>
        <path class="cls-2" d="M68.95,136.35c-.07,0-.14,0-.22,0,.07,0,.14,0,.22,0Z"/>
        <path class="cls-2" d="M70.32,136.44c-.09,0-.18-.02-.27-.03.09,0,.18.02.27.03Z"/>
        <path class="cls-2" d="M75.96,137.77c-.06-.02-.13-.05-.2-.07.07.02.13.05.2.07Z"/>
        <path class="cls-2" d="M69.65,136.39c-.09,0-.17-.01-.26-.02.09,0,.17.01.26.02Z"/>
        <path class="cls-2" d="M83.41,142.24c-.05-.05-.11-.09-.16-.14.05.05.11.09.16.14Z"/>
        <path class="cls-2" d="M82.39,141.4c-.07-.06-.15-.11-.22-.17.07.06.15.11.22.17Z"/>
        <path class="cls-2" d="M81.86,141.01c-.08-.06-.15-.11-.23-.17.08.06.15.11.23.17Z"/>
        <path class="cls-2" d="M80.8,140.26c-.08-.05-.16-.11-.24-.16.08.05.16.11.24.16Z"/>
        <path class="cls-2" d="M76.6,138.02s-.02-.01-.04-.02c.01,0,.02.01.04.02Z"/>
        <path class="cls-2" d="M83.94,142.71s-.03-.03-.04-.04c.01.01.03.03.04.04Z"/>
        <path class="cls-2" d="M82.9,141.81c-.07-.05-.13-.11-.2-.16.07.05.14.11.2.16Z"/>
        <path class="cls-2" d="M81.33,140.63c-.08-.06-.16-.11-.24-.16.08.05.16.11.24.16Z"/>
        <path class="cls-2" d="M78.55,138.93c-.08-.04-.16-.08-.24-.13.08.04.16.08.24.13Z"/>
        <path class="cls-2" d="M77.96,138.64c-.08-.04-.15-.08-.23-.11.08.04.15.07.23.11Z"/>
        <path class="cls-2" d="M77.35,138.35c-.07-.03-.13-.06-.2-.09.07.03.13.06.2.09Z"/>
        <path class="cls-2" d="M79.13,139.24c-.08-.05-.16-.09-.25-.14.08.04.16.09.25.14Z"/>
        <path class="cls-2" d="M79.69,139.57c-.08-.05-.16-.1-.25-.14.08.05.16.1.25.14Z"/>
        <path class="cls-2" d="M80.25,139.91c-.08-.05-.16-.1-.25-.15.08.05.16.1.25.15Z"/>
        <path class="cls-2" d="M88.53,148.01c-.05-.08-.11-.16-.17-.24.06.08.11.16.17.24Z"/>
      </g>
      <path class="cls-16" d="M45.74,168.26c0-6.02,1.16-11.65,3.27-16.45H0v16.45h28.44s17.3,0,17.3,0Z"/>
      <path class="cls-16" d="M86.77,163.58c.27,2.65,2.48,4.68,5.15,4.68h35.74v-16.45h-43.86c1.52,3.54,2.54,7.52,2.97,11.77Z"/>
      <path class="cls-37" d="M85.6,143.24c-5.21-7.12-12.64-11.04-20.92-11.04s-15.77,3.91-21.07,11.01c-4.92,6.59-7.63,15.48-7.63,25.05h2.16c0-17.64,9.97-31.93,24.57-31.93,13.49,0,22.72,12.19,24.05,27.94.19,2.25,2.06,4,4.32,4h1.95c0-9.59-2.64-18.47-7.43-25.02Z"/>
      <rect class="cls-25" x="196.54" y="117.96" width="33.93" height="33.84"/>
      <rect class="cls-1" x="172.77" y="117.96" width="33.93" height="33.84"/>
      <polygon class="cls-30" points="172.77 117.96 172.77 129.61 184.42 117.96 172.77 117.96"/>
      <g>
        <path class="cls-16" d="M172.77,130.09c.81,0,1.53-.52,1.79-1.31.23-.68.87-7.52.87-8.16,0-1.47-1.19-2.66-2.66-2.66"/>
        <path class="cls-16" d="M178.95,133.38c.71-.15,6.95-3,7.5-3.33,1.27-.73,1.71-2.36.97-3.63-.73-1.27-2.36-1.71-3.63-.97-.56.32-6.15,4.3-6.63,4.83-.55.62-.64,1.5-.24,2.2s1.22,1.06,2.03.9Z"/>
        <path class="cls-16" d="M183.8,144.32c1.27.73,2.9.3,3.63-.97.73-1.27.3-2.9-.97-3.63-.56-.32-6.8-3.18-7.5-3.33-.81-.17-1.62.19-2.03.9-.41.7-.31,1.58.24,2.2.48.54,6.08,4.51,6.63,4.83Z"/>
        <path class="cls-16" d="M172.77,151.81c1.47,0,2.66-1.19,2.66-2.66,0-.64-.64-7.48-.87-8.16-.26-.78-.98-1.31-1.79-1.31"/>
      </g>
      <rect class="cls-1" x="177.7" y="96.92" width="21.05" height="21.05"/>
      <polygon class="cls-30" points="198.74 96.92 177.7 96.92 177.7 117.96 184.42 117.96 198.74 103.64 198.74 96.92"/>
      <rect class="cls-25" x="198.74" y="96.92" width="19.75" height="21.05"/>
      <g>
        <path class="cls-37" d="M202.58,106.51c.44-.09,4.32-1.87,4.67-2.07.79-.46,1.06-1.47.61-2.26s-1.47-1.06-2.26-.61c-.35.2-3.83,2.67-4.12,3.01-.34.38-.4.93-.15,1.37.25.44.76.66,1.26.56Z"/>
        <path class="cls-37" d="M207.25,110.44c-.35-.2-4.23-1.98-4.67-2.07-.5-.1-1.01.12-1.26.56-.25.44-.19.99.15,1.37.3.33,3.78,2.81,4.12,3.01.79.46,1.8.19,2.26-.61s.19-1.8-.61-2.26Z"/>
        <path class="cls-37" d="M198.74,117.96c.91,0,1.65-.74,1.65-1.65,0-.4-.4-4.65-.54-5.08-.16-.49-.61-.81-1.11-.81"/>
        <path class="cls-16" d="M198.74,110.42c-.5,0-.95.33-1.11.81-.14.43-.54,4.68-.54,5.08,0,.91.74,1.65,1.65,1.65"/>
        <path class="cls-16" d="M194.9,108.38c-.44.09-4.32,1.87-4.67,2.07-.79.46-1.06,1.47-.61,2.26.46.79,1.47,1.06,2.26.61.35-.2,3.83-2.67,4.12-3.01.34-.38.4-.93.15-1.37s-.76-.66-1.26-.56Z"/>
        <path class="cls-16" d="M191.89,101.57c-.79-.46-1.8-.19-2.26.61-.46.79-.19,1.8.61,2.26.35.2,4.23,1.98,4.67,2.07.5.1,1.01-.12,1.26-.56.25-.44.19-.99-.15-1.37-.3-.33-3.78-2.81-4.12-3.01Z"/>
        <path class="cls-37" d="M198.74,104.46c.5,0,.95-.33,1.11-.81.14-.43.54-4.68.54-5.08,0-.91-.74-1.65-1.65-1.65"/>
        <path class="cls-16" d="M198.74,96.92c-.91,0-1.65.74-1.65,1.65,0,.4.4,4.65.54,5.08.16.49.61.81,1.11.81"/>
      </g>
      <rect class="cls-1" x="208.6" y="136.32" width="15.49" height="15.49"/>
      <rect class="cls-25" x="224.09" y="136.32" width="12.75" height="15.49"/>
      <g>
        <path class="cls-37" d="M226.92,143.38c.32-.07,3.18-1.38,3.43-1.52.58-.34.78-1.08.45-1.66s-1.08-.78-1.66-.45c-.25.15-2.82,1.97-3.04,2.21-.25.28-.29.69-.11,1.01.19.32.56.49.93.41Z"/>
        <path class="cls-37" d="M230.35,146.27c-.25-.15-3.11-1.46-3.43-1.52-.37-.08-.74.09-.93.41-.19.32-.14.73.11,1.01.22.25,2.78,2.07,3.04,2.21.58.34,1.33.14,1.66-.45s.14-1.33-.45-1.66Z"/>
        <path class="cls-37" d="M224.09,151.81c.67,0,1.22-.54,1.22-1.22,0-.29-.29-3.42-.4-3.74-.12-.36-.45-.6-.82-.6"/>
        <path class="cls-16" d="M224.09,146.26c-.37,0-.7.24-.82.6-.1.31-.4,3.44-.4,3.74,0,.67.54,1.22,1.22,1.22"/>
        <path class="cls-16" d="M221.26,144.75c-.32.07-3.18,1.38-3.43,1.52-.58.34-.78,1.08-.45,1.66.34.58,1.08.78,1.66.45.25-.15,2.82-1.97,3.04-2.21.25-.28.29-.69.11-1.01s-.56-.49-.93-.41Z"/>
        <path class="cls-16" d="M219.04,139.75c-.58-.34-1.33-.14-1.66.45-.34.58-.14,1.33.45,1.66.25.15,3.11,1.46,3.43,1.52.37.08.74-.09.93-.41.19-.32.14-.73-.11-1.01-.22-.25-2.78-2.07-3.04-2.21Z"/>
        <path class="cls-37" d="M224.09,141.87c.37,0,.7-.24.82-.6.1-.31.4-3.44.4-3.74,0-.67-.54-1.22-1.22-1.22"/>
        <path class="cls-16" d="M224.09,136.32c-.67,0-1.22.54-1.22,1.22,0,.29.29,3.42.4,3.74.12.36.45.6.82.6"/>
      </g>
      <polygon class="cls-32" points="127.67 0 127.67 151.81 140.42 151.81 140.42 18.31 248.32 18.31 248.32 151.81 258.06 151.81 258.06 0 127.67 0"/>
      <g>
        <path class="cls-28" d="M136.61,100.67c0-.63-.19-1.22-.51-1.71v-1.43h-2.63c-1.74,0-3.14,1.41-3.14,3.14v8.68c0,1.74,1.41,3.14,3.14,3.14h2.63v-1.43c.32-.49.51-1.08.51-1.71v-8.68Z"/>
        <rect class="cls-21" x="132.95" y="97.53" width="6.29" height="14.96" rx="3.14" ry="3.14"/>
      </g>
      <g>
        <path class="cls-22" d="M136.61,126.53c0-.63-.19-1.22-.51-1.71v-1.43h-2.63c-1.74,0-3.14,1.41-3.14,3.14v8.68c0,1.74,1.41,3.14,3.14,3.14h2.63v-1.43c.32-.49.51-1.08.51-1.71v-8.68Z"/>
        <rect class="cls-11" x="132.95" y="123.39" width="6.29" height="14.96" rx="3.14" ry="3.14"/>
      </g>
      <g>
        <path class="cls-22" d="M137.27,117.81c0-1.26-.75-2.35-1.84-2.84l-.03-.28h-1.25c-1.72,0-3.12,1.39-3.12,3.12s1.39,3.12,3.12,3.12h1.25v-.26c1.1-.48,1.87-1.58,1.87-2.85Z"/>
        <circle class="cls-11" cx="135.4" cy="117.81" r="3.12"/>
      </g>
      <polygon class="cls-30" points="208.6 136.32 206.72 138.2 206.72 151.81 208.6 151.81 208.6 136.32"/>
      <path class="cls-24" d="M140.42,151.81h128.44c1.59,0,2.87,1.29,2.87,2.87h0c0,1.59-1.29,2.87-2.87,2.87h-128.44v-5.74h0Z"/>
      <path class="cls-32" d="M140.42,151.81h20.54c1.59,0,2.87,1.29,2.87,2.87h0c0,1.59-1.29,2.87-2.87,2.87h-20.54v-5.74h0Z"/>
    </g>
  </g>
  <g id="Driver">
    <g>
      <path class="cls-17" d="M279.53,194.8l-.94-3.13c-.18-.59-.27-1.21-.27-1.83,0-2.18,0-7.47.12-8.38,0,0,0,0,0,0-.91-.21-3.08-.91-4.11-2.83-.66-1.23-.56-2.73-.43-3.57-1.71.35-3.31.28-4.54.94-1.46.78-2.96,2.09-2.96,2.09,0,0,5.54,10.39,7.02,13.15,1.48,2.77,4.2,6.91,4.2,6.91l.68-.36c1.08-.58,1.6-1.83,1.25-3.01Z"/>
      <path class="cls-35" d="M266.39,178.1s5.54,10.39,7.02,13.15c1.48,2.77,4.2,6.91,4.2,6.91l.68-.36c.53-.28.93-.73,1.15-1.25l-10.75-20.15c-1.22.76-2.29,1.7-2.29,1.7Z"/>
      <path class="cls-37" d="M311,123.09l-9.89-1.57c-.81,3.22-.33,5.95.44,8.02.19.52.42,1.03.66,1.5.92,1.84-2.63,23.15-2.63,23.15-9.78,8.62-21.43,18.66-22.49,19.58l3.82,4.55,3.81,4.55,23.24-18.97c1.76-1.43,3.03-3.38,3.63-5.57l9.31-33.66-9.89-1.57Z"/>
      <g>
        <path class="cls-39" d="M325.2,188.56h-6.02v1.86c0,.86-.15,1.63-.37,2.36.68.51,1.96,1.3,3.36,1.3,2.18,0,3.82-1.59,4.43-2.29-.04-.03-.07-.05-.08-.07-.38-.38-1.11-1.09-1.32-3.16Z"/>
        <path class="cls-17" d="M338.88,197.1l-3.2-.64c-.61-.12-1.19-.33-1.74-.62-1.92-1.02-6.59-3.51-7.33-4.05,0,0,0,0,0,0-.62.7-2.25,2.29-4.43,2.29-1.4,0-2.68-.79-3.36-1.3-.49,1.67-1.31,3.06-1.31,4.45,0,1.66.45,3.6.45,3.6h14.91c3.14,0,8.08-.45,8.08-.45v-.77c0-1.22-.86-2.28-2.06-2.52Z"/>
        <path class="cls-35" d="M317.96,200.83h14.91c3.14,0,8.08-.45,8.08-.45v-.77c0-.6-.21-1.16-.57-1.61h-22.84c.1,1.43.42,2.82.42,2.82Z"/>
        <path class="cls-5" d="M322.5,188.56h-3.31v1.86c0,.86-.15,1.63-.37,2.36l6.38-4.22h-2.71Z"/>
      </g>
      <path class="cls-37" d="M315.73,159.86c.33,12.48.81,27.44.83,28.7h11.87l.4-31.03c.04-2.76-.19-5.53-.68-8.25l-5.7-31.8-15.23,3.5,7.27,29.65c.74,3.02,1.16,6.12,1.24,9.23Z"/>
      <path class="cls-5" d="M280.89,178.31l-3.8-4.53c-.32.17-.64.34-.94.5-.76.4-1.51.63-2.25.79-.13.84-.22,2.34.43,3.57,1.03,1.93,3.2,2.62,4.11,2.83,0-.05.01-.08.02-.11.15-.5.78-1.77,2.61-2.85l-.17-.21Z"/>
      <g>
        <path class="cls-16" d="M311,123.09l-9.89-1.57c-.21.85-.34,1.67-.39,2.45l16.75.16-6.47-1.03Z"/>
        <path class="cls-16" d="M307.97,157.69l-7.4,2.27c-.39.12-.65-.4-.32-.64l10.51-7.65v8.73c.34-.66.61-1.35.81-2.08l9.31-33.66-3.42-.54-16.75-.16c-.14,2.17.26,4.05.83,5.57.19.52.42,1.03.66,1.5.92,1.84-2.63,23.15-2.63,23.15-9.78,8.62-21.43,18.66-22.49,19.58l3.82,4.55.17.21h0l26.91-20.83Z"/>
      </g>
      <g>
        <polygon class="cls-2" points="324.58 129.36 322.45 117.48 307.22 120.98 309.73 131.21 310.53 126.76 324.58 129.36"/>
        <path class="cls-16" d="M320.52,157.13l3.35-.77c-1.27-2.77-5.05-3.34-5.05-3.34h5.4l-3.91-12.26,5.02-6.6.07-.21-.82-4.58-14.05-2.6-.8,4.45,4.76,19.42c.74,3.02,1.16,6.12,1.24,9.23.33,12.48.81,27.44.83,28.7h7.66v-28.03c-2.92-.68-3.7-3.39-3.7-3.39Z"/>
      </g>
    </g>
    <g>
      <polygon class="cls-16" points="298.95 130.5 298.94 130.56 298.95 130.49 298.95 130.5"/>
      <path class="cls-16" d="M298.94,130.56c0,.55,3.41.75,3.63.75l-.03-.84c-2.2-.29-3.6-.33-3.6.08Z"/>
    </g>
    <path class="cls-5" d="M328.07,134.15l-1.77-25.46h-23.34l-4.02,21.86c0-1.6,22.01,3.6,29.13,3.6Z"/>
    <path class="cls-21" d="M311.08,111.7l2.02,3.77-.67,2.29c4.24.76,8.85,1.58,12.2,1.94l-2.65-4.95c.57-.36,1.04-.58,1.38-.58v-3.73s-.36-.45-.99-.45-1.19.3-1.19.3v-1.6h-10.62l-.03.96c.04.71.23,1.41.57,2.04Z"/>
    <path class="cls-33" d="M333.6,126.57l.85,1.68c.2.39.32.82.36,1.26l.18,2.18c.06.69-.41,1.32-1.09,1.46l-5.09,1.05c-.69.14-1.37-.26-1.59-.93l-1.19-3.69,7.57-3.02Z"/>
    <path class="cls-21" d="M319.87,122.98l.78.93-1.26.7,3.43,4.09c.21.25.37.55.47.87l1.11,3.66c.08.26.22.5.39.71,1.27.14,2.39.22,3.27.22l-.72-10.4c-1.81-.07-4.84-.37-7.47-.77Z"/>
    <path class="cls-14" d="M326.67,123.75l-.15-3.89c-3.4-.17-9.23-1.22-14.43-2.15-4.83-.87-8.28-1.47-10.49-1.66l-.71,3.84c2.05.13,6.34.9,10.51,1.64,5.73,1.03,11.63,2.09,15.26,2.22Z"/>
    <path class="cls-34" d="M304.22,116.36c-1.01-.15-1.88-.26-2.61-.32l-.71,3.84c.66.04,1.56.15,2.62.3l.7-3.82Z"/>
    <path class="cls-32" d="M396.23,189.11l1.72-1.72-65.64-65.64v-2.95h-3.44,0c-.31,0-.63.12-.86.36-.47.47-.47,1.24,0,1.72l68.23,68.23Z"/>
    <path class="cls-16" d="M386.88,180.46h-2.38c-5.63,0-10.19,4.56-10.19,10.19s4.56,10.19,10.19,10.19h2.38c5.63,0,10.19-4.56,10.19-10.19s-4.56-10.19-10.19-10.19Z"/>
    <polygon class="cls-32" points="417.71 175.51 415.71 175.51 402.12 189.11 403.43 190.43 417.71 175.51"/>
    <g>
      <polygon class="cls-30" points="398.49 152.11 398.49 154.9 383.41 169.98 381.15 167.72 396.65 152.11 398.49 152.11"/>
      <g>
        <rect class="cls-25" x="389.06" y="154.56" width="29.06" height="29.06" transform="translate(237.78 -235.85) rotate(45)"/>
        <g class="cls-18">
          <g>
            <path class="cls-37" d="M418.82,159.39c.62.03,6.46-.98,7-1.12,1.22-.33,1.95-1.59,1.61-2.82s-1.59-1.95-2.82-1.61c-.54.15-6.08,2.23-6.6,2.58-.59.39-.87,1.11-.68,1.79.18.68.78,1.15,1.49,1.19Z"/>
            <path class="cls-37" d="M423.69,166.32c-.39-.39-4.97-4.15-5.53-4.43-.64-.32-1.39-.2-1.89.3-.49.5-.61,1.25-.29,1.89.28.55,4.08,5.11,4.47,5.5.9.89,2.35.89,3.25-.01s.89-2.35-.01-3.25Z"/>
            <path class="cls-37" d="M412.27,163.28c-.68-.18-1.39.1-1.78.7-.34.52-2.38,6.08-2.52,6.62-.32,1.23.41,2.48,1.63,2.8,1.23.32,2.48-.41,2.8-1.63.14-.54,1.11-6.38,1.07-7-.04-.71-.53-1.31-1.2-1.48Z"/>
            <path class="cls-37" d="M407.84,159.17c-.62-.03-6.46.98-7,1.12-1.22.33-1.95,1.59-1.61,2.82.33,1.22,1.59,1.95,2.82,1.61.54-.15,6.08-2.23,6.6-2.58.59-.39.87-1.11.68-1.79s-.78-1.15-1.49-1.19Z"/>
            <path class="cls-37" d="M406.21,148.98c-.9-.89-2.35-.89-3.25.01-.89.9-.89,2.35.01,3.25.39.39,4.97,4.15,5.53,4.43.64.32,1.39.2,1.89-.3.49-.5.61-1.25.29-1.89-.28-.55-4.08-5.11-4.47-5.5Z"/>
            <path class="cls-37" d="M417.06,145.16c-1.23-.32-2.48.41-2.8,1.63-.14.54-1.11,6.38-1.07,7,.04.71.53,1.31,1.2,1.48s1.39-.1,1.78-.7c.34-.52,2.38-6.08,2.52-6.62.32-1.23-.41-2.48-1.63-2.8Z"/>
          </g>
        </g>
      </g>
      <g>
        <rect class="cls-25" x="370.83" y="140.66" width="22.91" height="22.91" transform="translate(545.04 529.99) rotate(-135)"/>
        <g class="cls-19">
          <g>
            <path class="cls-37" d="M370.28,159.77c-.49-.03-5.09.77-5.51.89-.96.26-1.53,1.26-1.27,2.22s1.26,1.53,2.22,1.27c.42-.11,4.79-1.76,5.2-2.03.47-.31.68-.87.54-1.41-.14-.53-.62-.91-1.18-.94Z"/>
            <path class="cls-37" d="M366.44,154.3c.31.31,3.92,3.27,4.36,3.49.5.25,1.1.15,1.49-.24.39-.39.48-.99.23-1.49-.22-.44-3.21-4.02-3.52-4.33-.71-.7-1.85-.7-2.56,0-.7.71-.7,1.85,0,2.56Z"/>
            <path class="cls-37" d="M375.44,156.7c.53.14,1.1-.08,1.4-.55.27-.41,1.88-4.8,1.99-5.22.25-.97-.32-1.96-1.29-2.21-.97-.25-1.96.32-2.21,1.29-.11.42-.87,5.03-.84,5.52.04.56.42,1.03.95,1.17Z"/>
            <path class="cls-37" d="M378.93,159.93c.49.03,5.09-.77,5.51-.89.96-.26,1.53-1.26,1.27-2.22-.26-.96-1.26-1.53-2.22-1.27-.42.11-4.79,1.76-5.2,2.03-.47.31-.68.87-.54,1.41s.62.91,1.18.94Z"/>
            <path class="cls-37" d="M380.22,167.97c.71.7,1.85.7,2.56,0,.7-.71.7-1.85,0-2.56-.31-.31-3.92-3.27-4.36-3.49-.5-.25-1.1-.15-1.49.24-.39.39-.48.99-.23,1.49.22.44,3.21,4.02,3.52,4.33Z"/>
            <path class="cls-37" d="M371.67,170.98c.97.25,1.96-.32,2.21-1.29.11-.42.87-5.03.84-5.52-.04-.56-.42-1.03-.95-1.17s-1.1.08-1.4.55c-.27.41-1.88,4.8-1.99,5.22-.25.97.32,1.96,1.29,2.21Z"/>
          </g>
        </g>
      </g>
    </g>
    <circle class="cls-37" cx="390.3" cy="190.64" r="5.96"/>
    <path class="cls-35" d="M403.61,189.62l-70.46-70.46c-.47-.47-1.24-.47-1.72,0h0c-.47.47-.47,1.24,0,1.72l5.05,5.05-6.46,1.54.56,2.36,7.91-1.88,64.43,64.43,13.33-13.33c.93-.93,1.46-2.2,1.46-3.52l-14.1,14.1Z"/>
    <g>
      <path class="cls-16" d="M398.11,190.64c0-4.51-2.93-8.32-6.98-9.67l-.83-.52h-2.38c-5.63,0-10.19,4.56-10.19,10.19s4.56,10.19,10.19,10.19h2.38l.83-.52c4.05-1.34,6.98-5.16,6.98-9.67Z"/>
      <circle class="cls-37" cx="390.3" cy="190.64" r="10.19"/>
      <circle class="cls-32" cx="390.3" cy="190.64" r="5.96"/>
      <path class="cls-24" d="M391.59,195.32c-3.29,0-5.96-2.67-5.96-5.96,0-1.32.43-2.54,1.15-3.52-1.48,1.08-2.44,2.83-2.44,4.81,0,3.29,2.67,5.96,5.96,5.96,1.97,0,3.72-.96,4.81-2.44-.99.72-2.2,1.15-3.52,1.15Z"/>
    </g>
    <path class="cls-24" d="M314.25,119.9c.54,0,1.32-.42,2.21-1.02l3.41,4.1c2.63.41,5,.7,6.8.77l-.11-2.99c-.1-.02-.21,0-.31.05l-.79.44-.83-1.55c-3.35-.36-7.96-1.18-12.2-1.94l-.22.74c-.09.3-.02.64.2.85.28.27.82.54,1.83.54Z"/>
    <polygon class="cls-1" points="317.75 116.89 323.41 112.85 327.16 119.84 322.46 122.56 317.75 116.89"/>
    <polygon class="cls-30" points="317.75 116.89 322.46 122.56 324.31 121.49 320.4 115 317.75 116.89"/>
    <g>
      <path class="cls-11" d="M320.99,123l7.26-4.04,2.23,3.79c.3.51.7.96,1.17,1.31l3.05,2.28-1.23.29,1.32,3.16c.25.6-.03,1.29-.62,1.56l-5.17,2.27c-.53.24-1.16.12-1.58-.28l-.87-.84c-.25-.24-.44-.55-.54-.88l-1.11-3.66c-.1-.32-.26-.61-.47-.87l-3.43-4.09Z"/>
      <polygon class="cls-27" points="334.7 126.34 332.72 124.86 333.46 126.64 334.7 126.34"/>
    </g>
    <path class="cls-37" d="M314.7,113.87l-.92,3.13c-.06.21-.03.44.1.62.23.3.76.68,1.96.68,1.99,0,7.41-5.72,9.1-5.72v-3.88h-12.76c.09.49.25.96.49,1.4l2.02,3.77Z"/>
    <g>
      <path class="cls-2" d="M322.76,108.7h-5.41c-1.01,1.16-1.87,2.23-1.87,2.86.87,0,5.25-1.84,7.28-2.86Z"/>
      <path class="cls-16" d="M314.7,113.87l-.47,1.59c2.28-.65,7.4-5.87,9.72-6.76h-1.2c-2.03,1.02-6.41,2.86-7.28,2.86,0-.64.86-1.71,1.87-2.86h-5.16c.09.49.25.96.49,1.4l2.02,3.77Z"/>
    </g>
  </g>
  <g id="Trees">
    <path class="cls-10" d="M624.24,128.15s13.81,16.81,13.81,30.07v22.07h14.61s-3.52-15.54-3.52-23.72c0-13.16,7.58-17.39,7.58-17.39,0,0-1.26-2.2-3.23-2.2-3.73,0-7.51,9.35-11.43,9.35-3.48,0-11-15.21-14.89-19.09l-2.93.9Z"/>
    <path class="cls-26" d="M655.59,164.98c-4.55-3.41-12.06-1.49-14.42,3.69-3.95-5.98-14.22-6.01-18.2-.05-5.59-4.24-15.05-1.08-16.97,5.67-4.86-.59-9.79,3.41-10.23,8.29-4.41-.67-9.1,2.03-10.73,6.18-.55,1.4-.86,3.03-2.06,3.92-1.95,1.44-4.6-.01-6.92-.7-6.55-1.94-12.99,2.73-19.5,4.79-6.66,2.11-13.88,1.49-20.69,3.03-4.89,1.1-9.9,3.99-12.35,8.12h146.66v-54.42c-6.18,1.65-11.75,5.74-14.6,11.49Z"/>
    <path class="cls-31" d="M600.54,123.68c1.85,0,3.67-.82,3.67-.82,0,0,1.51,10.07,9.92,10.07,2.26,0,3.75-1.73,3.75-1.73,0,0,.46.9,3.89.9,5.65,0,9.55-7.15,9.55-7.15,0,0,6.75,13.66,15.23,13.66h3.95c1.7,0,3.33.65,4.58,1.81,1.88,1.75,5.15,4.14,9.04,4.14,2.92,0,4.84-1.07,6.06-2.2v-33.68h-81.32c.49,3.95,2.65,14.99,11.67,14.99Z"/>
  </g>
</svg>